%FSTAX23Y23*%
%MOIN*%
%SFA1B1*%

%IPPOS*%
%ADD10C,0.007874*%
%ADD14C,0.003937*%
%ADD15C,0.005118*%
%ADD16C,0.007874*%
%ADD18C,0.000000*%
%ADD19C,0.001969*%
%ADD205C,0.001969*%
%LNshm_pcb-1*%
%LPD*%
G54D10*
X01055Y0079D02*
D01*
X01055Y0079*
X01055Y00791*
X01055Y00791*
X01054Y00791*
X01054Y00791*
X01054Y00792*
X01054Y00792*
X01054Y00792*
X01054Y00792*
X01054Y00793*
X01054Y00793*
X01053Y00793*
X01053Y00793*
X01053Y00793*
X01053Y00793*
X01052Y00794*
X01052Y00794*
X01052Y00794*
X01052Y00794*
X01051Y00794*
X01051Y00794*
X01051Y00794*
X01051*
X0105Y00794*
X0105Y00794*
X0105Y00794*
X01049Y00794*
X01049Y00794*
X01049Y00794*
X01049Y00793*
X01048Y00793*
X01048Y00793*
X01048Y00793*
X01048Y00793*
X01048Y00793*
X01047Y00792*
X01047Y00792*
X01047Y00792*
X01047Y00792*
X01047Y00791*
X01047Y00791*
X01047Y00791*
X01047Y00791*
X01047Y0079*
X01047Y0079*
X01047Y0079*
X01047Y0079*
X01047Y00789*
X01047Y00789*
X01047Y00789*
X01047Y00788*
X01047Y00788*
X01047Y00788*
X01047Y00788*
X01048Y00788*
X01048Y00787*
X01048Y00787*
X01048Y00787*
X01048Y00787*
X01049Y00787*
X01049Y00787*
X01049Y00786*
X01049Y00786*
X0105Y00786*
X0105Y00786*
X0105Y00786*
X01051Y00786*
X01051*
X01051Y00786*
X01051Y00786*
X01052Y00786*
X01052Y00786*
X01052Y00786*
X01052Y00787*
X01053Y00787*
X01053Y00787*
X01053Y00787*
X01053Y00787*
X01054Y00787*
X01054Y00788*
X01054Y00788*
X01054Y00788*
X01054Y00788*
X01054Y00788*
X01054Y00789*
X01054Y00789*
X01055Y00789*
X01055Y0079*
X01055Y0079*
X01055Y0079*
X01009Y01156D02*
D01*
X01009Y01156*
X01009Y01157*
X01009Y01157*
X01009Y01157*
X01009Y01158*
X01009Y01158*
X01009Y01158*
X01009Y01158*
X01009Y01159*
X01008Y01159*
X01008Y01159*
X01008Y01159*
X01008Y01159*
X01008Y01159*
X01007Y0116*
X01007Y0116*
X01007Y0116*
X01007Y0116*
X01006Y0116*
X01006Y0116*
X01006Y0116*
X01006Y0116*
X01005*
X01005Y0116*
X01005Y0116*
X01004Y0116*
X01004Y0116*
X01004Y0116*
X01004Y0116*
X01003Y0116*
X01003Y01159*
X01003Y01159*
X01003Y01159*
X01003Y01159*
X01002Y01159*
X01002Y01159*
X01002Y01158*
X01002Y01158*
X01002Y01158*
X01002Y01158*
X01002Y01157*
X01002Y01157*
X01002Y01157*
X01001Y01156*
X01001Y01156*
X01001Y01156*
X01002Y01156*
X01002Y01155*
X01002Y01155*
X01002Y01155*
X01002Y01155*
X01002Y01154*
X01002Y01154*
X01002Y01154*
X01002Y01154*
X01003Y01153*
X01003Y01153*
X01003Y01153*
X01003Y01153*
X01003Y01153*
X01004Y01153*
X01004Y01153*
X01004Y01152*
X01004Y01152*
X01005Y01152*
X01005Y01152*
X01005Y01152*
X01006*
X01006Y01152*
X01006Y01152*
X01006Y01152*
X01007Y01152*
X01007Y01153*
X01007Y01153*
X01007Y01153*
X01008Y01153*
X01008Y01153*
X01008Y01153*
X01008Y01153*
X01008Y01154*
X01009Y01154*
X01009Y01154*
X01009Y01154*
X01009Y01155*
X01009Y01155*
X01009Y01155*
X01009Y01155*
X01009Y01156*
X01009Y01156*
X01009Y01156*
X02133Y01883D02*
D01*
X02133Y01883*
X02133Y01884*
X02132Y01884*
X02132Y01884*
X02132Y01884*
X02132Y01885*
X02132Y01885*
X02132Y01885*
X02132Y01885*
X02132Y01885*
X02131Y01886*
X02131Y01886*
X02131Y01886*
X02131Y01886*
X02131Y01886*
X0213Y01887*
X0213Y01887*
X0213Y01887*
X0213Y01887*
X02129Y01887*
X02129Y01887*
X02129Y01887*
X02128*
X02128Y01887*
X02128Y01887*
X02128Y01887*
X02127Y01887*
X02127Y01887*
X02127Y01887*
X02127Y01886*
X02126Y01886*
X02126Y01886*
X02126Y01886*
X02126Y01886*
X02126Y01885*
X02125Y01885*
X02125Y01885*
X02125Y01885*
X02125Y01885*
X02125Y01884*
X02125Y01884*
X02125Y01884*
X02125Y01884*
X02125Y01883*
X02125Y01883*
X02125Y01883*
X02125Y01882*
X02125Y01882*
X02125Y01882*
X02125Y01882*
X02125Y01881*
X02125Y01881*
X02125Y01881*
X02125Y01881*
X02126Y0188*
X02126Y0188*
X02126Y0188*
X02126Y0188*
X02126Y0188*
X02127Y0188*
X02127Y01879*
X02127Y01879*
X02127Y01879*
X02128Y01879*
X02128Y01879*
X02128Y01879*
X02128Y01879*
X02129*
X02129Y01879*
X02129Y01879*
X0213Y01879*
X0213Y01879*
X0213Y01879*
X0213Y01879*
X02131Y0188*
X02131Y0188*
X02131Y0188*
X02131Y0188*
X02131Y0188*
X02132Y0188*
X02132Y01881*
X02132Y01881*
X02132Y01881*
X02132Y01881*
X02132Y01882*
X02132Y01882*
X02132Y01882*
X02133Y01882*
X02133Y01883*
X02133Y01883*
X02298D02*
D01*
X02298Y01883*
X02298Y01884*
X02298Y01884*
X02298Y01884*
X02298Y01884*
X02298Y01885*
X02297Y01885*
X02297Y01885*
X02297Y01885*
X02297Y01885*
X02297Y01886*
X02297Y01886*
X02296Y01886*
X02296Y01886*
X02296Y01886*
X02296Y01887*
X02295Y01887*
X02295Y01887*
X02295Y01887*
X02295Y01887*
X02294Y01887*
X02294Y01887*
X02294*
X02294Y01887*
X02293Y01887*
X02293Y01887*
X02293Y01887*
X02293Y01887*
X02292Y01887*
X02292Y01886*
X02292Y01886*
X02292Y01886*
X02291Y01886*
X02291Y01886*
X02291Y01885*
X02291Y01885*
X02291Y01885*
X02291Y01885*
X0229Y01885*
X0229Y01884*
X0229Y01884*
X0229Y01884*
X0229Y01884*
X0229Y01883*
X0229Y01883*
X0229Y01883*
X0229Y01882*
X0229Y01882*
X0229Y01882*
X0229Y01882*
X0229Y01881*
X02291Y01881*
X02291Y01881*
X02291Y01881*
X02291Y0188*
X02291Y0188*
X02291Y0188*
X02292Y0188*
X02292Y0188*
X02292Y0188*
X02292Y01879*
X02293Y01879*
X02293Y01879*
X02293Y01879*
X02293Y01879*
X02294Y01879*
X02294Y01879*
X02294*
X02294Y01879*
X02295Y01879*
X02295Y01879*
X02295Y01879*
X02295Y01879*
X02296Y01879*
X02296Y0188*
X02296Y0188*
X02296Y0188*
X02297Y0188*
X02297Y0188*
X02297Y0188*
X02297Y01881*
X02297Y01881*
X02297Y01881*
X02298Y01881*
X02298Y01882*
X02298Y01882*
X02298Y01882*
X02298Y01882*
X02298Y01883*
X02298Y01883*
X02473D02*
D01*
X02473Y01883*
X02473Y01884*
X02473Y01884*
X02473Y01884*
X02473Y01884*
X02473Y01885*
X02473Y01885*
X02473Y01885*
X02472Y01885*
X02472Y01885*
X02472Y01886*
X02472Y01886*
X02472Y01886*
X02471Y01886*
X02471Y01886*
X02471Y01887*
X02471Y01887*
X0247Y01887*
X0247Y01887*
X0247Y01887*
X0247Y01887*
X02469Y01887*
X02469*
X02469Y01887*
X02469Y01887*
X02468Y01887*
X02468Y01887*
X02468Y01887*
X02467Y01887*
X02467Y01886*
X02467Y01886*
X02467Y01886*
X02467Y01886*
X02466Y01886*
X02466Y01885*
X02466Y01885*
X02466Y01885*
X02466Y01885*
X02466Y01885*
X02465Y01884*
X02465Y01884*
X02465Y01884*
X02465Y01884*
X02465Y01883*
X02465Y01883*
X02465Y01883*
X02465Y01882*
X02465Y01882*
X02465Y01882*
X02465Y01882*
X02466Y01881*
X02466Y01881*
X02466Y01881*
X02466Y01881*
X02466Y0188*
X02466Y0188*
X02467Y0188*
X02467Y0188*
X02467Y0188*
X02467Y0188*
X02467Y01879*
X02468Y01879*
X02468Y01879*
X02468Y01879*
X02469Y01879*
X02469Y01879*
X02469Y01879*
X02469*
X0247Y01879*
X0247Y01879*
X0247Y01879*
X0247Y01879*
X02471Y01879*
X02471Y01879*
X02471Y0188*
X02471Y0188*
X02472Y0188*
X02472Y0188*
X02472Y0188*
X02472Y0188*
X02472Y01881*
X02473Y01881*
X02473Y01881*
X02473Y01881*
X02473Y01882*
X02473Y01882*
X02473Y01882*
X02473Y01882*
X02473Y01883*
X02473Y01883*
X02626D02*
D01*
X02626Y01883*
X02626Y01884*
X02626Y01884*
X02626Y01884*
X02626Y01884*
X02626Y01885*
X02625Y01885*
X02625Y01885*
X02625Y01885*
X02625Y01885*
X02625Y01886*
X02625Y01886*
X02624Y01886*
X02624Y01886*
X02624Y01886*
X02624Y01887*
X02623Y01887*
X02623Y01887*
X02623Y01887*
X02623Y01887*
X02622Y01887*
X02622Y01887*
X02622*
X02622Y01887*
X02621Y01887*
X02621Y01887*
X02621Y01887*
X0262Y01887*
X0262Y01887*
X0262Y01886*
X0262Y01886*
X0262Y01886*
X02619Y01886*
X02619Y01886*
X02619Y01885*
X02619Y01885*
X02619Y01885*
X02618Y01885*
X02618Y01885*
X02618Y01884*
X02618Y01884*
X02618Y01884*
X02618Y01884*
X02618Y01883*
X02618Y01883*
X02618Y01883*
X02618Y01882*
X02618Y01882*
X02618Y01882*
X02618Y01882*
X02618Y01881*
X02618Y01881*
X02619Y01881*
X02619Y01881*
X02619Y0188*
X02619Y0188*
X02619Y0188*
X0262Y0188*
X0262Y0188*
X0262Y0188*
X0262Y01879*
X0262Y01879*
X02621Y01879*
X02621Y01879*
X02621Y01879*
X02622Y01879*
X02622Y01879*
X02622*
X02622Y01879*
X02623Y01879*
X02623Y01879*
X02623Y01879*
X02623Y01879*
X02624Y01879*
X02624Y0188*
X02624Y0188*
X02624Y0188*
X02625Y0188*
X02625Y0188*
X02625Y0188*
X02625Y01881*
X02625Y01881*
X02625Y01881*
X02626Y01881*
X02626Y01882*
X02626Y01882*
X02626Y01882*
X02626Y01882*
X02626Y01883*
X02626Y01883*
X00381Y00529D02*
Y00578D01*
X0046*
Y00529D02*
Y00578D01*
X00381Y00529D02*
X0046D01*
X03752Y00083D02*
X03784D01*
X03752D02*
Y00146D01*
X03784*
Y00083D02*
Y00146D01*
X03274Y00208D02*
X03305D01*
X03274D02*
Y00271D01*
X03305*
Y00208D02*
Y00271D01*
X03261Y00823D02*
Y00855D01*
X03198Y00823D02*
X03261D01*
X03198D02*
Y00855D01*
X03261*
X02816Y00843D02*
X02847D01*
X02816D02*
Y00906D01*
X02847*
Y00843D02*
Y00906D01*
X0382Y00393D02*
X03945D01*
X0382Y00295D02*
Y00393D01*
Y00295D02*
X03945D01*
Y00393*
X02375Y02651D02*
X02501D01*
X02375Y02553D02*
Y02651D01*
Y02553D02*
X02501D01*
Y02651*
X02375Y02513D02*
X02501D01*
X02375Y02415D02*
Y02513D01*
Y02415D02*
X02501D01*
Y02513*
X01895Y0007D02*
X03295D01*
X01895D02*
Y0017D01*
X03295*
Y0007D02*
Y0017D01*
X02446Y02789D02*
X03846D01*
X02446D02*
Y02889D01*
X03846*
Y02789D02*
Y02889D01*
X0262Y00803D02*
X03482D01*
X0262Y00499D02*
Y00803D01*
Y00499D02*
X03482D01*
Y00803*
X02311Y01485D02*
Y01548D01*
X0228D02*
X02311D01*
X0228Y01485D02*
Y01548D01*
Y01485D02*
X02311D01*
X02331Y01345D02*
Y01408D01*
Y01345D02*
X02363D01*
Y01408*
X02331D02*
X02363D01*
X00257Y-00213D02*
Y00105D01*
Y-00213D02*
X00507D01*
Y00105*
X00244D02*
Y00381D01*
X00519*
Y00105D02*
Y00381D01*
X00244Y00105D02*
X00519D01*
X03776Y00096D02*
Y00344D01*
X03357Y00096D02*
X03776D01*
X03357D02*
Y00344D01*
X03776*
X03881Y00795D02*
X03944D01*
Y00826*
X03881D02*
X03944D01*
X03881Y00795D02*
Y00826D01*
X03613Y01846D02*
X03692D01*
X03613Y01767D02*
Y01846D01*
Y01767D02*
X03692D01*
Y01846*
X03673Y01633D02*
X03704D01*
Y01696*
X03673D02*
X03704D01*
X03673Y01633D02*
Y01696D01*
X0122Y00318D02*
X01456D01*
Y00082D02*
Y00318D01*
X0122Y00082D02*
X01456D01*
X0122D02*
Y00318D01*
X03807Y02133D02*
Y02448D01*
X04003*
Y02133D02*
Y02448D01*
X03807Y02133D02*
X04003D01*
X03187Y02421D02*
X03206D01*
Y02381D02*
Y02421D01*
X03187Y02381D02*
X03206D01*
X03187D02*
Y02421D01*
X00687Y0227D02*
Y02877D01*
X00246D02*
X00687D01*
X00246Y0227D02*
Y02877D01*
Y0227D02*
X00687D01*
X0095Y02607D02*
Y02843D01*
X01186*
Y02607D02*
Y02843D01*
X0095Y02607D02*
X01186D01*
X0093Y02478D02*
X00993D01*
Y02446D02*
Y02478D01*
X0093Y02446D02*
X00993D01*
X0093D02*
Y02478D01*
X03383Y02401D02*
Y02433D01*
X0332D02*
X03383D01*
X0332Y02401D02*
Y02433D01*
Y02401D02*
X03383D01*
X00849Y01163D02*
Y01195D01*
X00786Y01163D02*
X00849D01*
X00786D02*
Y01195D01*
X00849*
X01185Y0063D02*
X01736D01*
Y00031D02*
Y0063D01*
X01185Y00031D02*
X01736D01*
X01185D02*
Y0063D01*
X0075Y01487D02*
X00812D01*
Y01518*
X0075D02*
X00812D01*
X0075Y01487D02*
Y01518D01*
X00125Y01117D02*
X00156D01*
X00125D02*
Y0118D01*
X00156*
Y01117D02*
Y0118D01*
X00619Y01374D02*
Y01405D01*
X00555Y01374D02*
X00619D01*
X00555D02*
Y01405D01*
X00619*
X02607Y00316D02*
X0267D01*
Y00348*
X02607D02*
X0267D01*
X02607Y00316D02*
Y00348D01*
X01627Y00681D02*
Y00744D01*
Y00681D02*
X01659D01*
Y00744*
X01627D02*
X01659D01*
X01683D02*
X01714D01*
Y00681D02*
Y00744D01*
X01683Y00681D02*
X01714D01*
X01683D02*
Y00744D01*
X01364D02*
X01395D01*
Y00681D02*
Y00744D01*
X01364Y00681D02*
X01395D01*
X01364D02*
Y00744D01*
X01576D02*
X01608D01*
Y00681D02*
Y00744D01*
X01576Y00681D02*
X01608D01*
X01576D02*
Y00744D01*
X02644Y0116D02*
X02762D01*
X02644Y01062D02*
Y0116D01*
Y01062D02*
X02762D01*
Y0116*
X01651Y00616D02*
X01714D01*
Y00576D02*
Y00616D01*
X01651Y00576D02*
X01714D01*
X01651D02*
Y00616D01*
X03451Y01063D02*
X03502D01*
X03451D02*
Y01111D01*
X03502*
Y01063D02*
Y01111D01*
X0147Y00681D02*
Y00744D01*
Y00681D02*
X01501D01*
Y00744*
X0147D02*
X01501D01*
X01415Y00681D02*
Y00744D01*
Y00681D02*
X01446D01*
Y00744*
X01415D02*
X01446D01*
G54D14*
X02713Y01596D02*
D01*
X02713Y01597*
X02713Y01599*
X02713Y016*
X02713Y01601*
X02712Y01603*
X02712Y01604*
X02711Y01605*
X0271Y01606*
X0271Y01608*
X02709Y01609*
X02708Y0161*
X02707Y01611*
X02706Y01611*
X02705Y01612*
X02703Y01613*
X02702Y01614*
X02701Y01614*
X027Y01615*
X02698Y01615*
X02697Y01615*
X02696Y01616*
X02694Y01616*
X02693*
X02692Y01616*
X0269Y01615*
X02689Y01615*
X02688Y01615*
X02686Y01614*
X02685Y01614*
X02684Y01613*
X02683Y01612*
X02681Y01611*
X0268Y01611*
X02679Y0161*
X02679Y01609*
X02678Y01608*
X02677Y01606*
X02676Y01605*
X02676Y01604*
X02675Y01603*
X02675Y01601*
X02674Y016*
X02674Y01599*
X02674Y01597*
X02674Y01596*
X02674Y01595*
X02674Y01593*
X02674Y01592*
X02675Y01591*
X02675Y01589*
X02676Y01588*
X02676Y01587*
X02677Y01586*
X02678Y01584*
X02679Y01583*
X02679Y01582*
X0268Y01581*
X02681Y0158*
X02683Y0158*
X02684Y01579*
X02685Y01578*
X02686Y01578*
X02688Y01577*
X02689Y01577*
X0269Y01577*
X02692Y01576*
X02693Y01576*
X02694*
X02696Y01576*
X02697Y01577*
X02698Y01577*
X027Y01577*
X02701Y01578*
X02702Y01578*
X02703Y01579*
X02705Y0158*
X02706Y0158*
X02707Y01581*
X02708Y01582*
X02709Y01583*
X0271Y01584*
X0271Y01586*
X02711Y01587*
X02712Y01588*
X02712Y01589*
X02713Y01591*
X02713Y01592*
X02713Y01593*
X02713Y01595*
X02713Y01596*
X01213Y00972D02*
X01276D01*
Y0094D02*
Y00972D01*
X01213Y0094D02*
X01276D01*
X01213D02*
Y00972D01*
X02992Y00811D02*
Y00874D01*
X03118*
Y00811D02*
Y00874D01*
X02992Y00811D02*
X03118D01*
X01826Y02035D02*
X0198D01*
Y01842D02*
Y02035D01*
X01826Y01842D02*
X0198D01*
X01826D02*
Y02035D01*
Y01985D02*
X01876Y02035D01*
X02527Y01886D02*
Y01918D01*
Y01886D02*
X0259D01*
Y01918*
X02527D02*
X0259D01*
X02577Y01936D02*
X02592Y01951D01*
Y01936D02*
Y01967D01*
X02529D02*
X02592D01*
X02529Y01936D02*
Y01967D01*
Y01936D02*
X02592D01*
X02409D02*
X02472D01*
X02409D02*
Y01967D01*
X02472*
Y01936D02*
Y01967D01*
X02456Y01936D02*
X02472Y01951D01*
X01541Y00844D02*
X01561Y00824D01*
X01541D02*
X02328D01*
Y01612*
X01541D02*
X02328D01*
X01541Y00824D02*
Y01612D01*
X02852Y01694D02*
X02883D01*
Y0163D02*
Y01694D01*
X02852Y0163D02*
X02883D01*
X02852D02*
Y01694D01*
X02915D02*
X02946D01*
Y0163D02*
Y01694D01*
X02915Y0163D02*
X02946D01*
X02915D02*
Y01694D01*
X0294Y01551D02*
Y01582D01*
X02877Y01551D02*
X0294D01*
X02877D02*
Y01582D01*
X0294*
X02942Y01492D02*
Y01523D01*
X02879Y01492D02*
X02942D01*
X02879D02*
Y01523D01*
X02942*
X02377Y01556D02*
Y01587D01*
X0244*
Y01556D02*
Y01587D01*
X02377Y01556D02*
X0244D01*
X02377Y01494D02*
Y01526D01*
X0244*
Y01494D02*
Y01526D01*
X02377Y01494D02*
X0244D01*
X0239Y01413D02*
X02422D01*
Y0135D02*
Y01413D01*
X0239Y0135D02*
X02422D01*
X0239D02*
Y01413D01*
X02677Y01358D02*
Y01389D01*
X02614Y01358D02*
X02677D01*
X02614D02*
Y01389D01*
X02677*
X02724Y00622D02*
X02787D01*
Y00496D02*
Y00622D01*
X02724Y00496D02*
X02787D01*
X02724D02*
Y00622D01*
X02792Y01435D02*
Y01623D01*
X02595Y01435D02*
X02792D01*
X02783Y01631D02*
X02792Y01623D01*
X02595Y01435D02*
Y01631D01*
X02783*
X03798Y00147D02*
X04027D01*
X03798D02*
Y00987D01*
X04027*
Y00147D02*
Y00987D01*
X03791Y00433D02*
Y00496D01*
X03665Y00433D02*
X03791D01*
X03665D02*
Y00496D01*
X03791*
Y00515D02*
Y00578D01*
X03665Y00515D02*
X03791D01*
X03665D02*
Y00578D01*
X03791*
Y00594D02*
Y00657D01*
X03665Y00594D02*
X03791D01*
X03665D02*
Y00657D01*
X03791*
Y00673D02*
Y00736D01*
X03665Y00673D02*
X03791D01*
X03665D02*
Y00736D01*
X03791*
Y00751D02*
Y00814D01*
X03665Y00751D02*
X03791D01*
X03665D02*
Y00814D01*
X03791*
X03664Y02393D02*
X03727D01*
X03664D02*
Y02424D01*
X03727*
Y02393D02*
Y02424D01*
X03669Y00775D02*
Y00874D01*
X0359Y00775D02*
X03669D01*
X0359D02*
Y00874D01*
X03669*
X03785Y01767D02*
Y01807D01*
X03805*
Y01767D02*
Y01807D01*
X03785Y01767D02*
X03805D01*
X03541Y01141D02*
Y01181D01*
X03561*
Y01141D02*
Y01181D01*
X03541Y01141D02*
X03561D01*
X0321Y02629D02*
X0323D01*
X0321Y0259D02*
Y02629D01*
Y0259D02*
X0323D01*
Y02629*
X03179D02*
X03198D01*
X03179Y0259D02*
Y02629D01*
Y0259D02*
X03198D01*
Y02629*
X01211Y00384D02*
X01274D01*
Y00353D02*
Y00384D01*
X01211Y00353D02*
X01274D01*
X01211D02*
Y00384D01*
X01206Y00468D02*
X01269D01*
Y00437D02*
Y00468D01*
X01206Y00437D02*
X01269D01*
X01206D02*
Y00468D01*
X03631Y01049D02*
Y01092D01*
X03687*
Y01049D02*
Y01092D01*
X03631Y01049D02*
X03687D01*
X03622Y01616D02*
Y01714D01*
X03543Y01616D02*
X03622D01*
X03543D02*
Y01714D01*
X03622*
X03545Y01909D02*
X03564D01*
X03545Y0187D02*
Y01909D01*
Y0187D02*
X03564D01*
Y01909*
Y0096D02*
X03584D01*
X03564Y00921D02*
Y0096D01*
Y00921D02*
X03584D01*
Y0096*
X03525Y00929D02*
X03545D01*
X03525Y00889D02*
Y00929D01*
Y00889D02*
X03545D01*
Y00929*
X03161Y02582D02*
Y02622D01*
X03141Y02582D02*
X03161D01*
X03141D02*
Y02622D01*
X03161*
X03531Y02448D02*
X03594D01*
X03531D02*
Y0248D01*
X03594*
Y02448D02*
Y0248D01*
X03538Y02114D02*
X03587D01*
Y02192*
X03538D02*
X03587D01*
X03538Y02114D02*
Y02192D01*
X03657Y02118D02*
Y02181D01*
X03625Y02118D02*
X03657D01*
X03625D02*
Y02181D01*
X03657*
X0087Y01968D02*
Y02031D01*
X00901*
Y01968D02*
Y02031D01*
X0087Y01968D02*
X00901D01*
X00814D02*
Y02031D01*
X00846*
Y01968D02*
Y02031D01*
X00814Y01968D02*
X00846D01*
X00791D02*
Y02031D01*
X00759Y01968D02*
X00791D01*
X00759D02*
Y02031D01*
X00791*
X00637Y01909D02*
X00669D01*
Y01972*
X00637D02*
X00669D01*
X00637Y01909D02*
Y01972D01*
X02848Y02339D02*
X02898Y02289D01*
X02848D02*
Y02482D01*
X03001*
Y02289D02*
Y02482D01*
X02848Y02289D02*
X03001D01*
X02893Y02551D02*
X02956D01*
Y02582*
X02893D02*
X02956D01*
X02893Y02551D02*
Y02582D01*
X02951Y02301D02*
Y02474D01*
X03207*
Y02301D02*
Y02474D01*
X02951Y02301D02*
X03207D01*
X02951Y02326D02*
X02977Y02301D01*
X0296Y02582D02*
X0298D01*
Y02622*
X0296D02*
X0298D01*
X0296Y02582D02*
Y02622D01*
X02915Y02581D02*
X02935D01*
Y0262*
X02915D02*
X02935D01*
X02915Y02581D02*
Y0262D01*
X03007Y02582D02*
X03027D01*
Y02622*
X03007D02*
X03027D01*
X03007Y02582D02*
Y02622D01*
X03052D02*
X03072D01*
X03052Y02582D02*
Y02622D01*
Y02582D02*
X03072D01*
Y02622*
X03097D02*
X03117D01*
X03097Y02582D02*
Y02622D01*
Y02582D02*
X03117D01*
Y02622*
X02409Y00456D02*
Y00488D01*
Y00456D02*
X02472D01*
Y00488*
X02409D02*
X02472D01*
X03326Y0224D02*
Y02271D01*
Y0224D02*
X03389D01*
Y02271*
X03326D02*
X03389D01*
X0372Y02118D02*
Y02181D01*
X03688Y02118D02*
X0372D01*
X03688D02*
Y02181D01*
X0372*
X03661Y02298D02*
X03724D01*
Y02267D02*
Y02298D01*
X03661Y02267D02*
X03724D01*
X03661D02*
Y02298D01*
X0366Y02362D02*
X03723D01*
Y02331D02*
Y02362D01*
X0366Y02331D02*
X03723D01*
X0366D02*
Y02362D01*
X03442Y02144D02*
X03458Y02128D01*
X03427Y02144D02*
X03458D01*
X03427Y02081D02*
Y02144D01*
Y02081D02*
X03458D01*
Y02144*
X03536Y02259D02*
X03565Y02288D01*
X03447Y02259D02*
X03565D01*
X03447D02*
Y02377D01*
X03565*
Y02259D02*
Y02377D01*
X02083Y01727D02*
X02146D01*
Y01696D02*
Y01727D01*
X02083Y01696D02*
X02146D01*
X02083D02*
Y01727D01*
X03338Y02541D02*
X03375Y02578D01*
X03261Y02541D02*
X03375D01*
X03261D02*
Y02592D01*
X03375*
Y02541D02*
Y02592D01*
X0079Y01092D02*
X00853D01*
Y01124*
X0079D02*
X00853D01*
X0079Y01092D02*
Y01124D01*
X00463Y00985D02*
X00489Y00959D01*
X00463D02*
Y01156D01*
X00637*
Y00959D02*
Y01156D01*
X00463Y00959D02*
X00637D01*
X00792Y00958D02*
Y00978D01*
X00831*
Y00958D02*
Y00978D01*
X00792Y00958D02*
X00831D01*
X01605Y01814D02*
Y01846D01*
X01542D02*
X01605D01*
X01542Y01814D02*
Y01846D01*
Y01814D02*
X01605D01*
X01622Y01874D02*
Y01924D01*
X01543D02*
X01622D01*
X01543Y01874D02*
Y01924D01*
Y01874D02*
X01622D01*
X01445Y00724D02*
Y00787D01*
X01319D02*
X01445D01*
X01319Y00724D02*
Y00787D01*
Y00724D02*
X01445D01*
X03326Y02362D02*
X03389D01*
Y0233D02*
Y02362D01*
X03326Y0233D02*
X03389D01*
X03326D02*
Y02362D01*
X00323Y01331D02*
Y01394D01*
X00291D02*
X00323D01*
X00291Y01331D02*
Y01394D01*
Y01331D02*
X00323D01*
X00355Y01396D02*
X00387D01*
Y01333D02*
Y01396D01*
X00355Y01333D02*
X00387D01*
X00355D02*
Y01396D01*
X00149Y00496D02*
Y00528D01*
X00212*
Y00496D02*
Y00528D01*
X00149Y00496D02*
X00212D01*
X00149Y00596D02*
X00212D01*
X00149Y00564D02*
Y00596D01*
Y00564D02*
X00212D01*
Y00596*
X00149Y00624D02*
X00212D01*
Y00655*
X00149D02*
X00212D01*
X00149Y00624D02*
Y00655D01*
X01124Y01373D02*
Y01404D01*
X01061Y01373D02*
X01124D01*
X01061D02*
Y01404D01*
X01124*
X02001Y02067D02*
Y02098D01*
X01938D02*
X02001D01*
X01938Y02067D02*
Y02098D01*
Y02067D02*
X02001D01*
X0233Y01936D02*
X02346Y01951D01*
Y01936D02*
Y01967D01*
X02283D02*
X02346D01*
X02283Y01936D02*
Y01967D01*
Y01936D02*
X02346D01*
X01118Y01307D02*
Y01339D01*
X01056Y01307D02*
X01118D01*
X01056D02*
Y01339D01*
X01118*
X02405Y00633D02*
X02484D01*
X02405D02*
Y00683D01*
X02484*
Y00633D02*
Y00683D01*
X0247Y00718D02*
Y0075D01*
X02407D02*
X0247D01*
X02407Y00718D02*
Y0075D01*
Y00718D02*
X0247D01*
X02406Y00777D02*
Y00809D01*
Y00777D02*
X02469D01*
Y00809*
X02406D02*
X02469D01*
X04003Y01641D02*
Y01673D01*
X0394D02*
X04003D01*
X0394Y01641D02*
Y01673D01*
Y01641D02*
X04003D01*
X02444Y0135D02*
Y01381D01*
Y0135D02*
X02507D01*
Y01381*
X02444D02*
X02507D01*
X0261Y00407D02*
X02673D01*
X0261Y00375D02*
Y00407D01*
Y00375D02*
X02673D01*
Y00407*
X02645Y01651D02*
Y01682D01*
X02582Y01651D02*
X02645D01*
X02582D02*
Y01682D01*
X02645*
X02266Y02663D02*
Y02892D01*
X01427Y02663D02*
X02266D01*
X01427D02*
Y02892D01*
X02266*
X0392Y0145D02*
X03998D01*
X0392D02*
Y01608D01*
X03998*
Y0145D02*
Y01608D01*
X00795Y01048D02*
X00835D01*
Y01067*
X00795D02*
X00835D01*
X00795Y01048D02*
Y01067D01*
X03944Y01736D02*
X04007D01*
Y01704D02*
Y01736D01*
X03944Y01704D02*
X04007D01*
X03944D02*
Y01736D01*
Y0172D02*
X0396Y01736D01*
X04013Y01769D02*
Y01789D01*
X03974D02*
X04013D01*
X03974Y01769D02*
Y01789D01*
Y01769D02*
X04013D01*
X00792Y01004D02*
X00831D01*
Y01024*
X00792D02*
X00831D01*
X00792Y01004D02*
Y01024D01*
X02405Y01887D02*
Y01918D01*
Y01887D02*
X02468D01*
Y01918*
X02405D02*
X02468D01*
X02158Y0192D02*
X02221D01*
Y01889D02*
Y0192D01*
X02158Y01889D02*
X02221D01*
X02158D02*
Y0192D01*
X02281Y01919D02*
X02344D01*
Y01888D02*
Y01919D01*
X02281Y01888D02*
X02344D01*
X02281D02*
Y01919D01*
X01688Y00524D02*
X0172D01*
X01688Y00461D02*
Y00524D01*
Y00461D02*
X0172D01*
Y00524*
X0161D02*
X01641D01*
X0161Y00461D02*
Y00524D01*
Y00461D02*
X01641D01*
Y00524*
X01872Y00475D02*
Y00538D01*
X01841Y00475D02*
X01872D01*
X01841D02*
Y00538D01*
X01872*
X03455Y01196D02*
Y01235D01*
Y01196D02*
X03474D01*
Y01235*
X03455D02*
X03474D01*
X03355Y01152D02*
Y01192D01*
Y01152D02*
X03375D01*
Y01192*
X03355D02*
X03375D01*
X03575Y01084D02*
Y01124D01*
X03555D02*
X03575D01*
X03555Y01084D02*
Y01124D01*
Y01084D02*
X03575D01*
X03354Y01031D02*
X03374D01*
X03354D02*
Y0107D01*
X03374*
Y01031D02*
Y0107D01*
X01261Y01109D02*
Y01121D01*
X01284*
Y01109D02*
Y01121D01*
X01261Y01109D02*
X01284D01*
X01261Y01152D02*
Y01164D01*
X01284*
Y01152D02*
Y01164D01*
X01261Y01152D02*
X01284D01*
X02829Y012D02*
Y01232D01*
X02892*
Y012D02*
Y01232D01*
X02829Y012D02*
X02892D01*
X01261Y01198D02*
Y0121D01*
X01285*
Y01198D02*
Y0121D01*
X01261Y01198D02*
X01285D01*
X01261Y01057D02*
Y01068D01*
X01285*
Y01057D02*
Y01068D01*
X01261Y01057D02*
X01285D01*
X02868Y01059D02*
Y01122D01*
Y01059D02*
X02899D01*
Y01122*
X02868D02*
X02899D01*
X02814Y01058D02*
Y01121D01*
Y01058D02*
X02845D01*
Y01121*
X02814D02*
X02845D01*
X03137Y02334D02*
X032D01*
X03137Y02303D02*
Y02334D01*
Y02303D02*
X032D01*
Y02334*
X00731Y01431D02*
X0078D01*
X00731Y01352D02*
Y01431D01*
Y01352D02*
X0078D01*
Y01431*
X00754D02*
X0078Y01405D01*
X00591Y01462D02*
X0064D01*
Y01541*
X00591D02*
X0064D01*
X00591Y01462D02*
Y01541D01*
Y01488D02*
X00617Y01462D01*
X04025Y01111D02*
Y01311D01*
X03892D02*
X04025D01*
X03892Y01111D02*
Y01311D01*
Y01111D02*
X04025D01*
X00125Y00982D02*
X00157D01*
Y00919D02*
Y00982D01*
X00125Y00919D02*
X00157D01*
X00125D02*
Y00982D01*
X00786Y00896D02*
Y00928D01*
X00849*
Y00896D02*
Y00928D01*
X00786Y00896D02*
X00849D01*
X00151Y00695D02*
X00277D01*
Y00758*
X00151D02*
X00277D01*
X00151Y00695D02*
Y00758D01*
X01521Y00681D02*
X01553D01*
X01521D02*
Y00744D01*
X01553*
Y00681D02*
Y00744D01*
X02168Y01936D02*
X02231D01*
X02168D02*
Y01967D01*
X02231*
Y01936D02*
Y01967D01*
X02215Y01936D02*
X02231Y01951D01*
X02169Y00523D02*
Y00586D01*
X022*
Y00523D02*
Y00586D01*
X02169Y00523D02*
X022D01*
X01842Y01763D02*
X01905D01*
Y01732D02*
Y01763D01*
X01842Y01732D02*
X01905D01*
X01842D02*
Y01763D01*
X02413Y01633D02*
X02476D01*
Y01602D02*
Y01633D01*
X02413Y01602D02*
X02476D01*
X02413D02*
Y01633D01*
X0244Y01177D02*
X02503D01*
Y01145D02*
Y01177D01*
X0244Y01145D02*
X02503D01*
X0244D02*
Y01177D01*
X01994Y00667D02*
Y0073D01*
X01963Y00667D02*
X01994D01*
X01963D02*
Y0073D01*
X01994*
X02466Y00916D02*
X02529D01*
Y00885D02*
Y00916D01*
X02466Y00885D02*
X02529D01*
X02466D02*
Y00916D01*
X01542Y01735D02*
Y01766D01*
Y01735D02*
X01605D01*
Y01766*
X01542D02*
X01605D01*
X01421Y01311D02*
Y01342D01*
X01358D02*
X01421D01*
X01358Y01311D02*
Y01342D01*
Y01311D02*
X01421D01*
X0142Y01116D02*
Y01148D01*
X01357D02*
X0142D01*
X01357Y01116D02*
Y01148D01*
Y01116D02*
X0142D01*
X01421Y00858D02*
Y00889D01*
X01358D02*
X01421D01*
X01358Y00858D02*
Y00889D01*
Y00858D02*
X01421D01*
X02879Y01444D02*
X02942D01*
X02879Y01413D02*
Y01444D01*
Y01413D02*
X02942D01*
Y01444*
Y01354D02*
Y01385D01*
X02879Y01354D02*
X02942D01*
X02879D02*
Y01385D01*
X02942*
X02444Y00627D02*
X02476D01*
X02444D02*
Y00689D01*
X02476*
Y00627D02*
Y00689D01*
X02393Y00625D02*
X02425D01*
X02393D02*
Y00688D01*
X02425*
Y00625D02*
Y00688D01*
X0233Y00625D02*
X02362D01*
X0233D02*
Y00688D01*
X02362*
Y00625D02*
Y00688D01*
X0269Y0049D02*
Y00553D01*
X02659D02*
X0269D01*
X02659Y0049D02*
Y00553D01*
Y0049D02*
X0269D01*
X02597Y00553D02*
X02629D01*
Y0049D02*
Y00553D01*
X02597Y0049D02*
X02629D01*
X02597D02*
Y00553D01*
X0258Y00366D02*
X03521D01*
X0258D02*
Y00865D01*
X03521*
Y00366D02*
Y00865D01*
X02674Y01533D02*
X02713D01*
X02699Y01511D02*
Y01551D01*
X00185Y-00253D02*
Y0044D01*
X00578*
Y-00253D02*
Y0044D01*
X00185Y-00253D02*
X00578D01*
X03816Y00015D02*
Y00397D01*
X03318Y00015D02*
X03816D01*
X03318D02*
Y00397D01*
X03816*
X03548Y01885D02*
X03744D01*
X03548Y01728D02*
Y01885D01*
Y01728D02*
X03744D01*
Y01885*
X01122Y00358D02*
X01525D01*
Y00043D02*
Y00358D01*
X01122Y00043D02*
X01525D01*
X01122D02*
Y00358D01*
X03592Y01009D02*
Y01131D01*
X03726*
Y01009D02*
Y01131D01*
X03592Y01009D02*
X03726D01*
X00766Y02214D02*
Y02917D01*
X00167D02*
X00766D01*
X00167Y02214D02*
Y02917D01*
Y02214D02*
X00766D01*
X00911Y02508D02*
Y02912D01*
X01225*
Y02508D02*
Y02912D01*
X00911Y02508D02*
X01225D01*
X01135Y-00019D02*
X01787D01*
Y00705*
X01135D02*
X01787D01*
X01135Y-00019D02*
Y00705D01*
X01588Y00655D02*
X01753D01*
Y00537D02*
Y00655D01*
X01588Y00537D02*
X01753D01*
X01588D02*
Y00655D01*
X03396Y01024D02*
X03541D01*
X03396D02*
Y0115D01*
X03541*
Y01024D02*
Y0115D01*
G54D15*
X00184Y00669D02*
X00973D01*
X00184D02*
Y01604D01*
X00973*
Y00669D02*
Y01604D01*
X01072Y01251D02*
X01131D01*
Y01137D02*
Y01251D01*
X01072Y01137D02*
X01131D01*
X01072D02*
Y01251D01*
X00694Y02028D02*
X00731D01*
X00694Y01963D02*
X00731D01*
Y02028*
X00694Y01963D02*
Y02028D01*
X02034Y01946D02*
X02149D01*
X02034D02*
Y01997D01*
X02149*
Y01946D02*
Y01997D01*
X02314Y01946D02*
Y01997D01*
X02199D02*
X02314D01*
X02199Y01946D02*
Y01997D01*
Y01946D02*
X02314D01*
X02489D02*
Y01997D01*
X02374D02*
X02489D01*
X02374Y01946D02*
Y01997D01*
Y01946D02*
X02489D01*
X02642D02*
Y01997D01*
X02527D02*
X02642D01*
X02527Y01946D02*
Y01997D01*
Y01946D02*
X02642D01*
G54D16*
X01904Y0058D02*
D01*
X01905Y0058*
X01906Y0058*
X01907Y0058*
X01908Y0058*
X0191Y00581*
X01911Y00581*
X01912Y00582*
X01913Y00582*
X01914Y00583*
X01915Y00584*
X01916Y00585*
X01916Y00585*
X01917Y00586*
X01918Y00587*
X01918Y00588*
X01919Y00589*
X0192Y0059*
X0192Y00592*
X0192Y00593*
X01921Y00594*
X01921Y00595*
X01921Y00596*
X0192Y00597*
X02115D02*
D01*
X02115Y00596*
X02115Y00594*
X02116Y00593*
X02116Y00592*
X02116Y00591*
X02117Y0059*
X02117Y00589*
X02118Y00588*
X02118Y00587*
X02119Y00586*
X0212Y00585*
X02121Y00584*
X02122Y00583*
X02123Y00583*
X02124Y00582*
X02125Y00582*
X02126Y00581*
X02127Y00581*
X02128Y0058*
X02129Y0058*
X0213Y0058*
X02132Y0058*
X02132Y0058*
Y00483D02*
D01*
X02131Y00483*
X0213Y00483*
X02129Y00483*
X02128Y00483*
X02126Y00482*
X02125Y00482*
X02124Y00481*
X02123Y00481*
X02122Y0048*
X02121Y00479*
X0212Y00479*
X0212Y00478*
X02119Y00477*
X02118Y00476*
X02118Y00475*
X02117Y00474*
X02116Y00473*
X02116Y00472*
X02116Y00471*
X02116Y00469*
X02115Y00468*
X02115Y00467*
X02115Y00467*
X0192D02*
D01*
X0192Y00468*
X0192Y00469*
X0192Y0047*
X0192Y00471*
X01919Y00473*
X01919Y00474*
X01918Y00475*
X01918Y00476*
X01917Y00477*
X01916Y00478*
X01916Y00479*
X01915Y00479*
X01914Y0048*
X01913Y00481*
X01912Y00481*
X01911Y00482*
X0191Y00483*
X01909Y00483*
X01908Y00483*
X01906Y00483*
X01905Y00484*
X01904Y00484*
X01904Y00483*
X0192Y00597D02*
X01977D01*
X02059D02*
X02115D01*
X02132Y00544D02*
Y0058D01*
Y00483D02*
Y0052D01*
X02059Y00467D02*
X02115D01*
X0192D02*
X01977D01*
X01904Y00483D02*
Y0052D01*
Y00544D02*
Y0058D01*
G54D18*
X0234Y00321D02*
X02504D01*
Y00485*
X0234D02*
X02504D01*
X0234Y00321D02*
Y00485D01*
X02454D02*
X02466D01*
X02429D02*
X02441D01*
X02403D02*
X02415D01*
X02378D02*
X0239D01*
X0234Y00435D02*
Y00447D01*
Y0041D02*
Y00422D01*
Y00384D02*
Y00396D01*
Y00359D02*
Y00371D01*
X02378Y00321D02*
X0239D01*
X02403D02*
X02415D01*
X02429D02*
X02441D01*
X02454D02*
X02466D01*
X02504Y00359D02*
Y00371D01*
Y00384D02*
Y00396D01*
Y0041D02*
Y00422D01*
Y00435D02*
Y00447D01*
X02454Y00321D02*
X02504Y00371D01*
G54D19*
X00298Y00482D02*
Y00625D01*
X00529*
Y00482D02*
Y00625D01*
X00298Y00482D02*
X00529D01*
X01187Y00986D02*
X01302D01*
Y00927D02*
Y00986D01*
X01187Y00927D02*
X01302D01*
X01187D02*
Y00986D01*
X02964Y00797D02*
Y00887D01*
X03145*
Y00797D02*
Y00887D01*
X02964Y00797D02*
X03145D01*
X03713Y00017D02*
X03823D01*
X03713D02*
Y00188D01*
X03823*
Y00017D02*
Y00188D01*
X03235Y00142D02*
X03345D01*
X03235D02*
Y00312D01*
X03345*
Y00142D02*
Y00312D01*
X03327Y00784D02*
Y00894D01*
X03157Y00784D02*
X03327D01*
X03157D02*
Y00894D01*
X03327*
X02776Y00777D02*
X02886D01*
X02776D02*
Y00948D01*
X02886*
Y00777D02*
Y00948D01*
X03758Y00433D02*
X04029D01*
X03758Y00255D02*
Y00433D01*
Y00255D02*
X04029D01*
Y00433*
X02314Y0269D02*
X02584D01*
X02314Y02513D02*
Y0269D01*
Y02513D02*
X02584D01*
Y0269*
X02314Y02553D02*
X02584D01*
X02314Y02375D02*
Y02553D01*
Y02375D02*
X02584D01*
Y02553*
X01756Y02047D02*
X0205D01*
Y0183D02*
Y02047D01*
X01756Y0183D02*
X0205D01*
X01756D02*
Y02047D01*
X02501Y01872D02*
Y01931D01*
Y01872D02*
X02616D01*
Y01931*
X02501D02*
X02616D01*
X02624Y01924D02*
Y01979D01*
X02498D02*
X02624D01*
X02498Y01924D02*
Y01979D01*
Y01924D02*
X02624D01*
X02377D02*
X02503D01*
X02377D02*
Y01979D01*
X02503*
Y01924D02*
Y01979D01*
X01848Y00024D02*
X03361D01*
X01848D02*
Y00218D01*
X03361*
Y00024D02*
Y00218D01*
X02399Y02742D02*
X03912D01*
X02399D02*
Y02937D01*
X03912*
Y02742D02*
Y02937D01*
X01473Y00757D02*
X02396D01*
Y01679*
X01473D02*
X02396D01*
X01473Y00757D02*
Y01679D01*
X02838Y01719D02*
X02897D01*
Y01605D02*
Y01719D01*
X02838Y01605D02*
X02897D01*
X02838D02*
Y01719D01*
X02901D02*
X0296D01*
Y01605D02*
Y01719D01*
X02901Y01605D02*
X0296D01*
X02901D02*
Y01719D01*
X02966Y01537D02*
Y01596D01*
X02852Y01537D02*
X02966D01*
X02852D02*
Y01596D01*
X02966*
X02968Y01478D02*
Y01537D01*
X02854Y01478D02*
X02968D01*
X02854D02*
Y01537D01*
X02968*
X02352Y01542D02*
Y01601D01*
X02466*
Y01542D02*
Y01601D01*
X02352Y01542D02*
X02466D01*
X02352Y01481D02*
Y0154D01*
X02466*
Y01481D02*
Y0154D01*
X02352Y01481D02*
X02466D01*
X02351Y01419D02*
Y01589D01*
X0224D02*
X02351D01*
X0224Y01419D02*
Y01589D01*
Y01419D02*
X02351D01*
X02292Y01303D02*
Y01474D01*
Y01303D02*
X02402D01*
Y01474*
X02292D02*
X02402D01*
X02377Y01438D02*
X02436D01*
Y01324D02*
Y01438D01*
X02377Y01324D02*
X02436D01*
X02377D02*
Y01438D01*
X02702Y01344D02*
Y01403D01*
X02588Y01344D02*
X02702D01*
X02588D02*
Y01403D01*
X02702*
X0271Y0065D02*
X02801D01*
Y00468D02*
Y0065D01*
X0271Y00468D02*
X02801D01*
X0271D02*
Y0065D01*
X01149Y00493D02*
Y0178D01*
X00007D02*
X01149D01*
X00007Y00493D02*
Y0178D01*
Y00493D02*
X01149D01*
X02827Y01399D02*
Y01667D01*
X0256Y01399D02*
Y01667D01*
X02827*
X0256Y01399D02*
X02827D01*
X03788Y00137D02*
X04037D01*
X03788D02*
Y00997D01*
X04037*
Y00137D02*
Y00997D01*
X03818Y00419D02*
Y00509D01*
X03637Y00419D02*
X03818D01*
X03637D02*
Y00509D01*
X03818*
Y00501D02*
Y00592D01*
X03637Y00501D02*
X03818D01*
X03637D02*
Y00592D01*
X03818*
Y0058D02*
Y00671D01*
X03637Y0058D02*
X03818D01*
X03637D02*
Y00671D01*
X03818*
Y00659D02*
Y0075D01*
X03637Y00659D02*
X03818D01*
X03637D02*
Y0075D01*
X03818*
X03816Y00755D02*
X03986D01*
Y00866*
X03816D02*
X03986D01*
X03816Y00755D02*
Y00866D01*
X03818Y00738D02*
Y00828D01*
X03637Y00738D02*
X03818D01*
X03637D02*
Y00828D01*
X03818*
X01018Y01127D02*
X01184D01*
Y01261*
X01018D02*
X01184D01*
X01018Y01127D02*
Y01261D01*
X03639Y02379D02*
X03753D01*
X03639D02*
Y02438D01*
X03753*
Y02379D02*
Y02438D01*
X03683Y00747D02*
Y00902D01*
X03576Y00747D02*
X03683D01*
X03576D02*
Y00902D01*
X03683*
X03775Y01749D02*
Y01824D01*
X03815*
Y01749D02*
Y01824D01*
X03775Y01749D02*
X03815D01*
X03531Y01124D02*
Y01198D01*
X03571*
Y01124D02*
Y01198D01*
X03531Y01124D02*
X03571D01*
X03625Y01559D02*
X03751D01*
Y01746*
X03625D02*
X03751D01*
X03625Y01559D02*
Y01746D01*
X03198Y02656D02*
X03242D01*
X03198Y02563D02*
Y02656D01*
Y02563D02*
X03242D01*
Y02656*
X03167D02*
X0321D01*
X03167Y02563D02*
Y02656D01*
Y02563D02*
X0321D01*
Y02656*
X01185Y00398D02*
X013D01*
Y00339D02*
Y00398D01*
X01185Y00339D02*
X013D01*
X01185D02*
Y00398D01*
X0119Y00477D02*
X01286D01*
Y00428D02*
Y00477D01*
X0119Y00428D02*
X01286D01*
X0119D02*
Y00477D01*
X03635Y01587D02*
Y01743D01*
X03529Y01587D02*
X03635D01*
X03529D02*
Y01743D01*
X03635*
X03535Y01927D02*
X03575D01*
X03535Y01851D02*
Y01927D01*
Y01851D02*
X03575D01*
Y01927*
X03553Y00987D02*
X03596D01*
X03553Y00894D02*
Y00987D01*
Y00894D02*
X03596D01*
Y00987*
X03515Y00947D02*
X03555D01*
X03515Y00872D02*
Y00947D01*
Y00872D02*
X03555D01*
Y00947*
X03173Y02556D02*
Y02648D01*
X03129Y02556D02*
X03173D01*
X03129D02*
Y02648D01*
X03173*
X03514Y0244D02*
X03611D01*
X03514D02*
Y02488D01*
X03611*
Y0244D02*
Y02488D01*
X03525Y02086D02*
X036D01*
Y0222*
X03525D02*
X036D01*
X03525Y02086D02*
Y0222D01*
X03671Y02092D02*
Y02206D01*
X03612Y02092D02*
X03671D01*
X03612D02*
Y02206D01*
X03671*
X00861Y01951D02*
Y02048D01*
X0091*
Y01951D02*
Y02048D01*
X00861Y01951D02*
X0091D01*
X00806D02*
Y02048D01*
X00855*
Y01951D02*
Y02048D01*
X00806Y01951D02*
X00855D01*
X008D02*
Y02048D01*
X00751Y01951D02*
X008D01*
X00751D02*
Y02048D01*
X008*
X00683Y01939D02*
X00741D01*
X00683Y02052D02*
X00741D01*
Y01939D02*
Y02052D01*
X00683Y01939D02*
Y02052D01*
X00629Y01892D02*
X00677D01*
Y01988*
X00629D02*
X00677D01*
X00629Y01892D02*
Y01988D01*
X02778Y02277D02*
Y02494D01*
X03072*
Y02277D02*
Y02494D01*
X02778Y02277D02*
X03072D01*
X02877Y02542D02*
X02973D01*
Y02591*
X02877D02*
X02973D01*
X02877Y02542D02*
Y02591D01*
X03139Y02488D02*
X03253D01*
Y02332D02*
Y02488D01*
X03139Y02332D02*
X03253D01*
X03139D02*
Y02488D01*
X0294Y02233D02*
Y02542D01*
X03219*
Y02233D02*
Y02542D01*
X0294Y02233D02*
X03219D01*
X02948Y02556D02*
X02992D01*
Y02648*
X02948D02*
X02992D01*
X02948Y02556D02*
Y02648D01*
X02903Y02555D02*
X02946D01*
Y02647*
X02903D02*
X02946D01*
X02903Y02555D02*
Y02647D01*
X02996Y02556D02*
X03039D01*
Y02648*
X02996D02*
X03039D01*
X02996Y02556D02*
Y02648D01*
X0304D02*
X03083D01*
X0304Y02556D02*
Y02648D01*
Y02556D02*
X03083D01*
Y02648*
X03085D02*
X03128D01*
X03085Y02556D02*
Y02648D01*
Y02556D02*
X03128D01*
Y02648*
X00864Y02517D02*
X01035D01*
Y02407D02*
Y02517D01*
X00864Y02407D02*
X01035D01*
X00864D02*
Y02517D01*
X02383Y00442D02*
Y00501D01*
Y00442D02*
X02498D01*
Y00501*
X02383D02*
X02498D01*
X03301Y02226D02*
Y02285D01*
Y02226D02*
X03415D01*
Y02285*
X03301D02*
X03415D01*
X03457Y02354D02*
Y0248D01*
X03271D02*
X03457D01*
X03271Y02354D02*
Y0248D01*
Y02354D02*
X03457D01*
X03729Y02101D02*
Y02198D01*
X0368Y02101D02*
X03729D01*
X0368D02*
Y02198D01*
X03729*
X03645Y02307D02*
X03741D01*
Y02258D02*
Y02307D01*
X03645Y02258D02*
X03741D01*
X03645D02*
Y02307D01*
X03643Y02371D02*
X0374D01*
Y02322D02*
Y02371D01*
X03643Y02322D02*
X0374D01*
X03643D02*
Y02371D01*
X03415Y02175D02*
X0347D01*
X03415Y02049D02*
Y02175D01*
Y02049D02*
X0347D01*
Y02175*
X03434Y02233D02*
X03578D01*
X03434D02*
Y02403D01*
X03578*
Y02233D02*
Y02403D01*
X02067Y01736D02*
X02162D01*
Y01687D02*
Y01736D01*
X02067Y01687D02*
X02162D01*
X02067D02*
Y01736D01*
X02024Y01896D02*
X02159D01*
X02024D02*
Y02047D01*
X02159*
Y01896D02*
Y02047D01*
X0325Y02493D02*
X03387D01*
X0325D02*
Y0264D01*
X03387*
Y02493D02*
Y0264D01*
X00764Y01079D02*
X00878D01*
Y01138*
X00764D02*
X00878D01*
X00764Y01079D02*
Y01138D01*
X00396Y00947D02*
Y01168D01*
X00705*
Y00947D02*
Y01168D01*
X00396Y00947D02*
X00705D01*
X00915Y01124D02*
Y01234D01*
X00745Y01124D02*
X00915D01*
X00745D02*
Y01234D01*
X00915*
X00765Y00946D02*
Y0099D01*
X00858*
Y00946D02*
Y0099D01*
X00765Y00946D02*
X00858D01*
X01621Y01806D02*
Y01855D01*
X01525D02*
X01621D01*
X01525Y01806D02*
Y01855D01*
Y01806D02*
X01621D01*
X0164Y01864D02*
Y01934D01*
X01525D02*
X0164D01*
X01525Y01864D02*
Y01934D01*
Y01864D02*
X0164D01*
X01463Y00714D02*
Y00798D01*
X01301D02*
X01463D01*
X01301Y00714D02*
Y00798D01*
Y00714D02*
X01463D01*
X03301Y02375D02*
X03415D01*
Y02316D02*
Y02375D01*
X03301Y02316D02*
X03415D01*
X03301D02*
Y02375D01*
X00684Y01448D02*
X00854D01*
Y01558*
X00684D02*
X00854D01*
X00684Y01448D02*
Y01558D01*
X00331Y01314D02*
Y01411D01*
X00283D02*
X00331D01*
X00283Y01314D02*
Y01411D01*
Y01314D02*
X00331D01*
X00346Y01412D02*
X00395D01*
Y01316D02*
Y01412D01*
X00346Y01316D02*
X00395D01*
X00346D02*
Y01412D01*
X00085Y01051D02*
X00196D01*
X00085D02*
Y01222D01*
X00196*
Y01051D02*
Y01222D01*
X00685Y01334D02*
Y01444D01*
X00514Y01334D02*
X00685D01*
X00514D02*
Y01444D01*
X00685*
X00133Y00488D02*
Y00537D01*
X00229*
Y00488D02*
Y00537D01*
X00133Y00488D02*
X00229D01*
X00133Y00605D02*
X00229D01*
X00133Y00556D02*
Y00605D01*
Y00556D02*
X00229D01*
Y00605*
X00133Y00615D02*
X00229D01*
Y00664*
X00133D02*
X00229D01*
X00133Y00615D02*
Y00664D01*
X0114Y01364D02*
Y01413D01*
X01044Y01364D02*
X0114D01*
X01044D02*
Y01413D01*
X0114*
X02018Y02058D02*
Y02107D01*
X01922D02*
X02018D01*
X01922Y02058D02*
Y02107D01*
Y02058D02*
X02018D01*
X02377Y01924D02*
Y01979D01*
X02251D02*
X02377D01*
X02251Y01924D02*
Y01979D01*
Y01924D02*
X02377D01*
X01144Y01294D02*
Y01353D01*
X0103Y01294D02*
X01144D01*
X0103D02*
Y01353D01*
X01144*
X02387Y00623D02*
X02502D01*
X02387D02*
Y00693D01*
X02502*
Y00623D02*
Y00693D01*
X02487Y00709D02*
Y00758D01*
X0239D02*
X02487D01*
X0239Y00709D02*
Y00758D01*
Y00709D02*
X02487D01*
X0239Y00768D02*
Y00817D01*
Y00768D02*
X02486D01*
Y00817*
X0239D02*
X02486D01*
X02541Y00277D02*
X02711D01*
Y00387*
X02541D02*
X02711D01*
X02541Y00277D02*
Y00387D01*
X01588Y0064D02*
Y0081D01*
Y0064D02*
X01698D01*
Y0081*
X01588D02*
X01698D01*
X01643D02*
X01753D01*
Y0064D02*
Y0081D01*
X01643Y0064D02*
X01753D01*
X01643D02*
Y0081D01*
X01324D02*
X01435D01*
Y0064D02*
Y0081D01*
X01324Y0064D02*
X01435D01*
X01324D02*
Y0081D01*
X01537D02*
X01647D01*
Y0064D02*
Y0081D01*
X01537Y0064D02*
X01647D01*
X01537D02*
Y0081D01*
X04029Y01627D02*
Y01687D01*
X03915D02*
X04029D01*
X03915Y01627D02*
Y01687D01*
Y01627D02*
X04029D01*
X02428Y01341D02*
Y0139D01*
Y01341D02*
X02524D01*
Y0139*
X02428D02*
X02524D01*
X02584Y00421D02*
X02698D01*
X02584Y00362D02*
Y00421D01*
Y00362D02*
X02698D01*
Y00421*
X02671Y01637D02*
Y01696D01*
X02557Y01637D02*
X02671D01*
X02557D02*
Y01696D01*
X02671*
X02276Y02653D02*
Y02901D01*
X01417Y02653D02*
X02276D01*
X01417D02*
Y02901D01*
X02276*
X0391Y0144D02*
X04008D01*
X0391D02*
Y01618D01*
X04008*
Y0144D02*
Y01618D01*
X00768Y01036D02*
X00861D01*
Y01079*
X00768D02*
X00861D01*
X00768Y01036D02*
Y01079D01*
X03913Y01748D02*
X04039D01*
Y01692D02*
Y01748D01*
X03913Y01692D02*
X04039D01*
X03913D02*
Y01748D01*
X0404Y01757D02*
Y01801D01*
X03948D02*
X0404D01*
X03948Y01757D02*
Y01801D01*
Y01757D02*
X0404D01*
X00765Y00992D02*
X00858D01*
Y01035*
X00765D02*
X00858D01*
X00765Y00992D02*
Y01035D01*
X02379Y01873D02*
Y01932D01*
Y01873D02*
X02493D01*
Y01932*
X02379D02*
X02493D01*
X02133Y01934D02*
X02247D01*
Y01875D02*
Y01934D01*
X02133Y01875D02*
X02247D01*
X02133D02*
Y01934D01*
X02255Y01933D02*
X0237D01*
Y01874D02*
Y01933D01*
X02255Y01874D02*
X0237D01*
X02255D02*
Y01933D01*
X0168Y0054D02*
X01729D01*
X0168Y00445D02*
Y0054D01*
Y00445D02*
X01729D01*
Y0054*
X01601D02*
X0165D01*
X01601Y00445D02*
Y0054D01*
Y00445D02*
X0165D01*
Y0054*
X01881Y00459D02*
Y00555D01*
X01832Y00459D02*
X01881D01*
X01832D02*
Y00555D01*
X01881*
X03443Y01169D02*
Y01261D01*
Y01169D02*
X03486D01*
Y01261*
X03443D02*
X03486D01*
X03344Y01126D02*
Y01218D01*
Y01126D02*
X03387D01*
Y01218*
X03344D02*
X03387D01*
X03584Y01068D02*
Y0114D01*
X03547D02*
X03584D01*
X03547Y01068D02*
Y0114D01*
Y01068D02*
X03584D01*
X03346Y01015D02*
X03382D01*
X03346D02*
Y01087D01*
X03382*
Y01015D02*
Y01087D01*
X01234Y01097D02*
Y01132D01*
X01311*
Y01097D02*
Y01132D01*
X01234Y01097D02*
X01311D01*
X01234Y0114D02*
Y01176D01*
X01311*
Y0114D02*
Y01176D01*
X01234Y0114D02*
X01311D01*
X02804Y01187D02*
Y01246D01*
X02918*
Y01187D02*
Y01246D01*
X02804Y01187D02*
X02918D01*
X01235D02*
Y01222D01*
X01312*
Y01187D02*
Y01222D01*
X01235Y01187D02*
X01312D01*
X01234Y01045D02*
Y0108D01*
X01311*
Y01045D02*
Y0108D01*
X01234Y01045D02*
X01311D01*
X02324Y01896D02*
Y02047D01*
X02189D02*
X02324D01*
X02189Y01896D02*
Y02047D01*
Y01896D02*
X02324D01*
X02499D02*
Y02047D01*
X02364D02*
X02499D01*
X02364Y01896D02*
Y02047D01*
Y01896D02*
X02499D01*
X02652D02*
Y02047D01*
X02517D02*
X02652D01*
X02517Y01896D02*
Y02047D01*
Y01896D02*
X02652D01*
X02859Y01043D02*
Y01139D01*
Y01043D02*
X02908D01*
Y01139*
X02859D02*
X02908D01*
X02805Y01042D02*
Y01138D01*
Y01042D02*
X02854D01*
Y01138*
X02805D02*
X02854D01*
X03112Y02348D02*
X03226D01*
X03112Y02289D02*
Y02348D01*
Y02289D02*
X03226D01*
Y02348*
X00688Y01444D02*
X00822D01*
X00688Y01338D02*
Y01444D01*
Y01338D02*
X00822D01*
Y01444*
X00549Y01448D02*
X00683D01*
Y01555*
X00549D02*
X00683D01*
X00549Y01448D02*
Y01555D01*
X04035Y01101D02*
Y01321D01*
X03882D02*
X04035D01*
X03882Y01101D02*
Y01321D01*
Y01101D02*
X04035D01*
X00117Y00999D02*
X00166D01*
Y00902D02*
Y00999D01*
X00117Y00902D02*
X00166D01*
X00117D02*
Y00999D01*
X00769Y00888D02*
Y00937D01*
X00865*
Y00888D02*
Y00937D01*
X00769Y00888D02*
X00865D01*
X00133Y00685D02*
X00295D01*
Y00768*
X00133D02*
X00295D01*
X00133Y00685D02*
Y00768D01*
X01512Y00664D02*
X01561D01*
X01512D02*
Y00761D01*
X01561*
Y00664D02*
Y00761D01*
X01431Y0064D02*
Y0081D01*
Y0064D02*
X01541D01*
Y0081*
X01431D02*
X01541D01*
X01375Y0064D02*
Y0081D01*
Y0064D02*
X01486D01*
Y0081*
X01375D02*
X01486D01*
X02136Y01924D02*
X02262D01*
X02136D02*
Y01979D01*
X02262*
Y01924D02*
Y01979D01*
X0216Y00507D02*
Y00603D01*
X02209*
Y00507D02*
Y00603D01*
X0216Y00507D02*
X02209D01*
X01825Y01772D02*
X01922D01*
Y01723D02*
Y01772D01*
X01825Y01723D02*
X01922D01*
X01825D02*
Y01772D01*
X02396Y01642D02*
X02492D01*
Y01593D02*
Y01642D01*
X02396Y01593D02*
X02492D01*
X02396D02*
Y01642D01*
X02424Y01185D02*
X0252D01*
Y01137D02*
Y01185D01*
X02424Y01137D02*
X0252D01*
X02424D02*
Y01185D01*
X02003Y0065D02*
Y00746D01*
X01954Y0065D02*
X02003D01*
X01954D02*
Y00746D01*
X02003*
X0245Y00925D02*
X02546D01*
Y00876D02*
Y00925D01*
X0245Y00876D02*
X02546D01*
X0245D02*
Y00925D01*
X01525Y01726D02*
Y01775D01*
Y01726D02*
X01621D01*
Y01775*
X01525D02*
X01621D01*
X01437Y01302D02*
Y01351D01*
X01341D02*
X01437D01*
X01341Y01302D02*
Y01351D01*
Y01302D02*
X01437D01*
X01436Y01108D02*
Y01157D01*
X0134D02*
X01436D01*
X0134Y01108D02*
Y01157D01*
Y01108D02*
X01436D01*
X01437Y00849D02*
Y00898D01*
X01341D02*
X01437D01*
X01341Y00849D02*
Y00898D01*
Y00849D02*
X01437D01*
X02863Y01453D02*
X02959D01*
X02863Y01404D02*
Y01453D01*
Y01404D02*
X02959D01*
Y01453*
X02961Y01344D02*
Y01396D01*
X02861Y01344D02*
X02961D01*
X02861D02*
Y01396D01*
X02961*
X02436Y0061D02*
X02485D01*
X02436D02*
Y00706D01*
X02485*
Y0061D02*
Y00706D01*
X02385Y00609D02*
X02433D01*
X02385D02*
Y00705D01*
X02433*
Y00609D02*
Y00705D01*
X02322Y00609D02*
X0237D01*
X02322D02*
Y00705D01*
X0237*
Y00609D02*
Y00705D01*
X02699Y00473D02*
Y00569D01*
X0265D02*
X02699D01*
X0265Y00473D02*
Y00569D01*
Y00473D02*
X02699D01*
X02587Y00571D02*
X02639D01*
Y00471D02*
Y00571D01*
X02587Y00471D02*
X02639D01*
X02587D02*
Y00571D01*
G54D205*
X02964Y01812D02*
X03131D01*
X03048Y01728D02*
Y01895D01*
X03225Y00121D02*
X03265D01*
X03245Y00101D02*
Y00141D01*
X03125Y00121D02*
X03165D01*
X03145Y00101D02*
Y00141D01*
X03025Y00121D02*
X03065D01*
X03045Y00101D02*
Y00141D01*
X02925Y00121D02*
X02965D01*
X02945Y00101D02*
Y00141D01*
X02825Y00121D02*
X02865D01*
X02845Y00101D02*
Y00141D01*
X02725Y00121D02*
X02765D01*
X02745Y00101D02*
Y00141D01*
X02625Y00121D02*
X02665D01*
X02645Y00101D02*
Y00141D01*
X02525Y00121D02*
X02565D01*
X02545Y00101D02*
Y00141D01*
X02425Y00121D02*
X02465D01*
X02445Y00101D02*
Y00141D01*
X02325Y00121D02*
X02365D01*
X02345Y00101D02*
Y00141D01*
X02225Y00121D02*
X02265D01*
X02245Y00101D02*
Y00141D01*
X02125Y00121D02*
X02165D01*
X02145Y00101D02*
Y00141D01*
X02025Y00121D02*
X02065D01*
X02045Y00101D02*
Y00141D01*
X01925Y00121D02*
X01965D01*
X01945Y00101D02*
Y00141D01*
X03776Y02839D02*
X03816D01*
X03796Y02819D02*
Y02859D01*
X03676Y02839D02*
X03716D01*
X03696Y02819D02*
Y02859D01*
X03576Y02839D02*
X03616D01*
X03596Y02819D02*
Y02859D01*
X03476Y02839D02*
X03516D01*
X03496Y02819D02*
Y02859D01*
X03376Y02839D02*
X03416D01*
X03396Y02819D02*
Y02859D01*
X03276Y02839D02*
X03316D01*
X03296Y02819D02*
Y02859D01*
X03176Y02839D02*
X03216D01*
X03196Y02819D02*
Y02859D01*
X03076Y02839D02*
X03116D01*
X03096Y02819D02*
Y02859D01*
X02976Y02839D02*
X03016D01*
X02996Y02819D02*
Y02859D01*
X02876Y02839D02*
X02916D01*
X02896Y02819D02*
Y02859D01*
X02776Y02839D02*
X02816D01*
X02796Y02819D02*
Y02859D01*
X02676Y02839D02*
X02716D01*
X02696Y02819D02*
Y02859D01*
X02576Y02839D02*
X02616D01*
X02596Y02819D02*
Y02859D01*
X02476Y02839D02*
X02516D01*
X02496Y02819D02*
Y02859D01*
X03422Y00705D02*
X03467D01*
X03444Y00683D02*
Y00728D01*
X02625Y00705D02*
X02689D01*
X02657Y00673D02*
Y00738D01*
X03715Y02708D02*
X03741D01*
X03728Y02695D02*
Y02721D01*
X03715Y02669D02*
X03741D01*
X03728Y02656D02*
Y02681D01*
X00445Y00141D02*
X0052D01*
X00483Y00104D02*
Y00179D01*
X00445Y00344D02*
X0052D01*
X00483Y00307D02*
Y00381D01*
X00243Y00344D02*
X00317D01*
X0028Y00307D02*
Y00381D01*
X00243Y00141D02*
X00317D01*
X0028Y00104D02*
Y00179D01*
X0035Y00243D02*
X00413D01*
X00381Y00211D02*
Y00274D01*
X03925Y00457D02*
X03955D01*
X0394Y00442D02*
Y00472D01*
X03876Y00457D02*
X03905D01*
X0389Y00442D02*
Y00472D01*
X03925Y00507D02*
X03955D01*
X0394Y00492D02*
Y00522D01*
X03876Y00507D02*
X03905D01*
X0389Y00492D02*
Y00522D01*
X03925Y00557D02*
X03955D01*
X0394Y00542D02*
Y00572D01*
X03876Y00557D02*
X03905D01*
X0389Y00542D02*
Y00572D01*
X03925Y00607D02*
X03955D01*
X0394Y00592D02*
Y00622D01*
X03876Y00607D02*
X03905D01*
X0389Y00592D02*
Y00622D01*
X03925Y00657D02*
X03955D01*
X0394Y00642D02*
Y00672D01*
X03876Y00657D02*
X03905D01*
X0389Y00642D02*
Y00672D01*
X03467Y0022D02*
X03508D01*
X03488Y00199D02*
Y0024D01*
X03624Y0022D02*
X03666D01*
X03645Y00199D02*
Y0024D01*
X03945Y01332D02*
X03971D01*
X03958Y01319D02*
Y01345D01*
X03945Y01362D02*
X03971D01*
X03958Y01349D02*
Y01375D01*
X03945Y01394D02*
X03971D01*
X03958Y01381D02*
Y01407D01*
X03973Y01394D02*
X03999D01*
X03986Y01381D02*
Y01407D01*
X03973Y01362D02*
X03999D01*
X03986Y01349D02*
Y01375D01*
X03973Y01332D02*
X03999D01*
X03986Y01319D02*
Y01345D01*
X03768Y0262D02*
X03793D01*
X0378Y02607D02*
Y02633D01*
X0374Y0262D02*
X03765D01*
X03752Y02607D02*
Y02633D01*
X03711Y0262D02*
X03736D01*
X03724Y02607D02*
Y02633D01*
X03681Y0262D02*
X03706D01*
X03693Y02607D02*
Y02633D01*
X03648Y0262D02*
X03673D01*
X03661Y02607D02*
Y02633D01*
X03809Y02209D02*
X03836D01*
X03822Y02196D02*
Y02223D01*
X03809Y02373D02*
X03836D01*
X03822Y02359D02*
Y02386D01*
X00012Y02847D02*
X00138D01*
X00075Y02784D02*
Y0291D01*
X01942Y02805D02*
X01971D01*
X01957Y0279D02*
Y0282D01*
X01942Y02755D02*
X01971D01*
X01957Y0274D02*
Y0277D01*
X01892Y02805D02*
X01921D01*
X01907Y0279D02*
Y0282D01*
X01892Y02755D02*
X01921D01*
X01907Y0274D02*
Y0277D01*
X01842Y02805D02*
X01871D01*
X01857Y0279D02*
Y0282D01*
X01842Y02755D02*
X01871D01*
X01857Y0274D02*
Y0277D01*
X01792Y02805D02*
X01822D01*
X01807Y0279D02*
Y0282D01*
X01792Y02755D02*
X01822D01*
X01807Y0274D02*
Y0277D01*
X01742Y02805D02*
X01772D01*
X01757Y0279D02*
Y0282D01*
X01742Y02755D02*
X01772D01*
X01757Y0274D02*
Y0277D01*
X03944Y0149D02*
X03975D01*
X03959Y01474D02*
Y01505D01*
X03944Y01568D02*
X03975D01*
X03959Y01553D02*
Y01584D01*
X00023Y0007D02*
X00149D01*
X00086Y00007D02*
Y00133D01*
X03911Y0007D02*
X04037D01*
X03974Y00007D02*
Y00133D01*
X03913Y0285D02*
X04039D01*
X03976Y02787D02*
Y02913D01*
X0392Y01286D02*
X03948D01*
X03934Y01272D02*
Y013D01*
X0397Y01286D02*
X03998D01*
X03984Y01272D02*
Y013D01*
X0392Y01236D02*
X03948D01*
X03934Y01222D02*
Y0125D01*
X0397Y01236D02*
X03998D01*
X03984Y01222D02*
Y0125D01*
X0392Y01186D02*
X03948D01*
X03934Y01172D02*
Y012D01*
X0397Y01186D02*
X03998D01*
X03984Y01172D02*
Y012D01*
X0392Y01136D02*
X03948D01*
X03934Y01122D02*
Y0115D01*
X0397Y01136D02*
X03998D01*
X03984Y01122D02*
Y0115D01*
X00159Y00031D02*
X00187D01*
X00173Y00016D02*
Y00044D01*
X02979Y01961D02*
X03007D01*
X02993Y01947D02*
Y01975D01*
X03154Y00845D02*
X03166D01*
X0316Y00839D02*
Y00851D01*
X03389Y00921D02*
X03401D01*
X03395Y00915D02*
Y00927D01*
X02997Y0089D02*
X03009D01*
X03003Y00884D02*
Y00896D01*
X02905Y00937D02*
X02917D01*
X02911Y00931D02*
Y00942D01*
X03032Y0094D02*
X03044D01*
X03038Y00935D02*
Y00946D01*
X03083Y00911D02*
X03094D01*
X03088Y00905D02*
Y00917D01*
X03288Y00925D02*
X033D01*
X03294Y00919D02*
Y00931D01*
X03382Y00957D02*
X03394D01*
X03388Y00951D02*
Y00962D01*
X03363Y00875D02*
X03375D01*
X03369Y0087D02*
Y00881D01*
X0283Y00748D02*
X02842D01*
X02836Y00743D02*
Y00754D01*
X02794Y00661D02*
X02805D01*
X028Y00655D02*
Y00667D01*
X03309Y01031D02*
X0332D01*
X03314Y01025D02*
Y01037D01*
X03521Y0038D02*
X03533D01*
X03527Y00374D02*
Y00386D01*
X03592Y00401D02*
X03604D01*
X03598Y00396D02*
Y00407D01*
X03725Y00216D02*
X03737D01*
X03731Y0021D02*
Y00222D01*
X02806Y00611D02*
X02818D01*
X02812Y00605D02*
Y00616D01*
X02949Y00444D02*
X02961D01*
X02955Y00438D02*
Y0045D01*
X03268Y00358D02*
X03279D01*
X03274Y00352D02*
Y00364D01*
X02316Y02535D02*
X02327D01*
X02321Y02529D02*
Y02541D01*
X02463Y01671D02*
X02475D01*
X02469Y01665D02*
Y01677D01*
X02427Y01302D02*
X02439D01*
X02434Y01296D02*
Y01307D01*
X02705Y00953D02*
X02716D01*
X02711Y00947D02*
Y00959D01*
X02733Y00892D02*
X02745D01*
X02739Y00886D02*
Y00898D01*
X02221Y01305D02*
X02233D01*
X02227Y01299D02*
Y01311D01*
X02727Y01368D02*
X02738D01*
X02733Y01362D02*
Y01374D01*
X02725Y01241D02*
X02737D01*
X02731Y01235D02*
Y01247D01*
X02707Y01544D02*
X02719D01*
X02713Y01538D02*
Y0155D01*
X02533Y01443D02*
X02545D01*
X02539Y01438D02*
Y0145D01*
X01976Y02193D02*
X01988D01*
X01982Y02188D02*
Y022D01*
X02714Y015D02*
X02726D01*
X0272Y01494D02*
Y01507D01*
X02924Y01215D02*
X02935D01*
X0293Y01209D02*
Y01221D01*
X02994Y01427D02*
X03005D01*
X03Y01421D02*
Y01433D01*
X02998Y01275D02*
X03009D01*
X03003Y01269D02*
Y01281D01*
X02855Y0132D02*
X02866D01*
X02861Y01314D02*
Y01325D01*
X02616Y0188D02*
X02628D01*
X02622Y01874D02*
Y01886D01*
X02967Y02757D02*
X02979D01*
X02973Y02751D02*
Y02763D01*
X02855Y02729D02*
X02866D01*
X02861Y02723D02*
Y02735D01*
X02679Y02681D02*
X0269D01*
X02685Y02675D02*
Y02687D01*
X02675Y02622D02*
X02687D01*
X02681Y02616D02*
Y02627D01*
X02625Y02586D02*
X02636D01*
X0263Y0258D02*
Y02592D01*
X02622Y02006D02*
X02634D01*
X02628Y02D02*
Y02012D01*
X02598Y0257D02*
X0261D01*
X02604Y02564D02*
Y02576D01*
X03183Y02675D02*
X03194D01*
X03188Y0267D02*
Y02681D01*
X0236Y02173D02*
X02372D01*
X02366Y02167D02*
Y02179D01*
X0206Y01384D02*
X02071D01*
X02065Y01379D02*
Y0139D01*
X02049Y01228D02*
X02061D01*
X02055Y01222D02*
Y01234D01*
X02029Y01253D02*
X02041D01*
X02035Y01248D02*
Y01259D01*
X02068Y01763D02*
X0208D01*
X02074Y01757D02*
Y01769D01*
X01881Y00662D02*
X01893D01*
X01887Y00656D02*
Y00668D01*
X01904Y00719D02*
X01916D01*
X0191Y00713D02*
Y00725D01*
X01954Y00968D02*
X01966D01*
X0196Y00962D02*
Y00974D01*
X01833Y00901D02*
X01845D01*
X01839Y00895D02*
Y00907D01*
X01829Y00948D02*
X01841D01*
X01835Y00941D02*
Y00953D01*
X0185Y00978D02*
X01862D01*
X01856Y00972D02*
Y00984D01*
X01891Y01056D02*
X01903D01*
X01897Y0105D02*
Y01062D01*
X02111Y01168D02*
X02122D01*
X02117Y01162D02*
Y01174D01*
X0211Y01355D02*
X02122D01*
X02116Y01349D02*
Y01361D01*
X02086Y01326D02*
X02098D01*
X02092Y0132D02*
Y01332D01*
X01824Y01443D02*
X01836D01*
X0183Y01438D02*
Y0145D01*
X02003Y0128D02*
X02014D01*
X02009Y01274D02*
Y01286D01*
X01853Y01362D02*
X01865D01*
X01859Y01356D02*
Y01368D01*
X01778Y01396D02*
X0179D01*
X01784Y0139D02*
Y01402D01*
X01908Y00678D02*
X0192D01*
X01914Y00672D02*
Y00684D01*
X0262Y01267D02*
X02632D01*
X02626Y01261D02*
Y01273D01*
X02472Y01333D02*
X02483D01*
X02477Y01327D02*
Y01338D01*
X00482Y01501D02*
X00494D01*
X00488Y01496D02*
Y01507D01*
X02104Y00429D02*
X02116D01*
X0211Y00423D02*
Y00435D01*
X00602Y01576D02*
X00614D01*
X00608Y0157D02*
Y01582D01*
X01604Y0196D02*
X01616D01*
X0161Y01954D02*
Y01966D01*
X00159Y02433D02*
X00171D01*
X00165Y02427D02*
Y02438D01*
X02049Y02043D02*
X02061D01*
X02055Y02037D02*
Y02049D01*
X02925Y01066D02*
X02937D01*
X02931Y0106D02*
Y01072D01*
X00097Y01385D02*
X00109D01*
X00103Y01379D02*
Y01391D01*
X03446Y01271D02*
X03458D01*
X03452Y01265D02*
Y01277D01*
X0258Y01734D02*
X02592D01*
X02586Y01728D02*
Y0174D01*
X00694Y00771D02*
X00706D01*
X007Y00765D02*
Y00777D01*
X00742Y00771D02*
X00753D01*
X00748Y00765D02*
Y00777D01*
X0084Y0087D02*
X00852D01*
X00846Y00864D02*
Y00875D01*
X00844Y00826D02*
X00856D01*
X0085Y0082D02*
Y00832D01*
X00824Y00795D02*
X00836D01*
X0083Y00789D02*
Y00801D01*
X0073Y00901D02*
X00742D01*
X00736Y00895D02*
Y00907D01*
X00734Y00834D02*
X00746D01*
X0074Y00828D02*
Y0084D01*
X0047Y00783D02*
X00482D01*
X00476Y00777D02*
Y00789D01*
X00541Y00787D02*
X00553D01*
X00547Y00781D02*
Y00793D01*
X00466Y00751D02*
X00478D01*
X00472Y00746D02*
Y00757D01*
X00509Y00755D02*
X00521D01*
X00515Y0075D02*
Y00761D01*
X00604Y00791D02*
X00616D01*
X0061Y00785D02*
Y00797D01*
X00545Y00964D02*
X00557D01*
X00551Y00958D02*
Y0097D01*
X00604Y0096D02*
X00616D01*
X0061Y00954D02*
Y00966D01*
X01531Y00618D02*
X01543D01*
X01537Y00612D02*
Y00624D01*
X02194Y00892D02*
X02206D01*
X022Y00886D02*
Y00898D01*
X02152Y01865D02*
X02164D01*
X02158Y01859D02*
Y01871D01*
X02265Y01869D02*
X02277D01*
X02271Y01863D02*
Y01875D01*
X03532Y01018D02*
X03544D01*
X03538Y01012D02*
Y01024D01*
X00099Y01212D02*
X00111D01*
X00105Y01207D02*
Y01218D01*
X00978Y00598D02*
X01006D01*
X00992Y00584D02*
Y00612D01*
X03454Y00983D02*
X03466D01*
X0346Y00977D02*
Y00989D01*
X03183Y00879D02*
X03194D01*
X03188Y00874D02*
Y00885D01*
X02885Y00853D02*
X02896D01*
X0289Y00847D02*
Y00859D01*
X03329Y00875D02*
X0334D01*
X03335Y0087D02*
Y00881D01*
X03266Y00566D02*
X03278D01*
X03272Y0056D02*
Y00571D01*
X03528Y00532D02*
X0354D01*
X03534Y00526D02*
Y00538D01*
X03431Y0087D02*
X03442D01*
X03437Y00864D02*
Y00876D01*
X03183Y00738D02*
X03194D01*
X03188Y00732D02*
Y00744D01*
X02783Y00727D02*
X02795D01*
X02789Y00721D02*
Y00733D01*
X02694Y0089D02*
X02706D01*
X027Y00884D02*
Y00896D01*
X03419Y0098D02*
X03431D01*
X03425Y00974D02*
Y00986D01*
X0332Y0107D02*
X03332D01*
X03326Y01064D02*
Y01076D01*
X03486Y00921D02*
X03498D01*
X03492Y00915D02*
Y00927D01*
X02963Y0113D02*
X02975D01*
X02969Y01124D02*
Y01136D01*
X02974Y01094D02*
X02986D01*
X0298Y01088D02*
Y011D01*
X02605Y00844D02*
X02617D01*
X02611Y00838D02*
Y0085D01*
X02683Y01D02*
X02695D01*
X02689Y00994D02*
Y01005D01*
X02517Y0087D02*
X02529D01*
X02523Y00864D02*
Y00875D01*
X02001Y00964D02*
X02013D01*
X02007Y00958D02*
Y0097D01*
X02927Y00716D02*
X02938D01*
X02933Y0071D02*
Y00722D01*
X03086Y01275D02*
X03098D01*
X03092Y01269D02*
Y01281D01*
X0297Y00363D02*
X02981D01*
X02975Y00357D02*
Y00369D01*
X02766Y00406D02*
X02778D01*
X02772Y004D02*
Y00412D01*
X03127Y00688D02*
X03139D01*
X03133Y00683D02*
Y00694D01*
X00812Y00043D02*
X0084D01*
X00826Y00029D02*
Y00057D01*
X02857Y00452D02*
X02869D01*
X02863Y00446D02*
Y00458D01*
X03424Y00796D02*
X03435D01*
X03429Y0079D02*
Y00802D01*
X02711Y00709D02*
X02722D01*
X02716Y00703D02*
Y00715D01*
X00879Y00125D02*
X00907D01*
X00893Y00111D02*
Y0014D01*
X038Y01724D02*
X03812D01*
X03806Y01718D02*
Y0173D01*
X01115Y006D02*
X01127D01*
X01121Y00594D02*
Y00605D01*
X01105Y0109D02*
X01116D01*
X01111Y01084D02*
Y01096D01*
X01217Y01115D02*
X01229D01*
X01223Y01109D02*
Y01121D01*
X02316Y00566D02*
X02328D01*
X02322Y00561D02*
Y00572D01*
X02377Y0056D02*
X02388D01*
X02383Y00554D02*
Y00566D01*
X02422Y00546D02*
X02433D01*
X02427Y0054D02*
Y00551D01*
X03523Y02527D02*
X03535D01*
X03529Y02521D02*
Y02533D01*
X02611Y01233D02*
X02623D01*
X02617Y01227D02*
Y01239D01*
X01687Y00844D02*
X01698D01*
X01692Y00838D02*
Y0085D01*
X0301Y0165D02*
X03038D01*
X03024Y01636D02*
Y01664D01*
X0314Y01697D02*
X03168D01*
X03154Y01683D02*
Y01711D01*
X03077Y01658D02*
X03105D01*
X03091Y01644D02*
Y01672D01*
X03065Y01961D02*
X03093D01*
X03079Y01947D02*
Y01975D01*
X0314Y01925D02*
X03168D01*
X03154Y01912D02*
Y0194D01*
X03152Y01855D02*
X0318D01*
X03166Y01841D02*
Y01869D01*
X03152Y01776D02*
X0318D01*
X03166Y01762D02*
Y0179D01*
X03828Y00822D02*
X0384D01*
X03834Y00816D02*
Y00828D01*
X0308Y0072D02*
X03092D01*
X03086Y00714D02*
Y00726D01*
X02505Y01661D02*
X02517D01*
X02511Y01655D02*
Y01667D01*
X0243Y01891D02*
X02442D01*
X02436Y01885D02*
Y01897D01*
X01903Y01787D02*
X01914D01*
X01909Y01781D02*
Y01793D01*
X00596Y00039D02*
X00624D01*
X0061Y00025D02*
Y00053D01*
X00033Y00251D02*
X00061D01*
X00047Y00237D02*
Y00266D01*
X017Y01769D02*
X01712D01*
X01706Y01763D02*
Y01775D01*
X01661Y0174D02*
X01673D01*
X01667Y01734D02*
Y01746D01*
X01702Y01578D02*
X01714D01*
X01708Y01572D02*
Y01584D01*
X01718Y01893D02*
X0173D01*
X01724Y01887D02*
Y01899D01*
X01624Y01555D02*
X01635D01*
X01629Y01549D02*
Y01561D01*
X01675Y01503D02*
X01687D01*
X01681Y01498D02*
Y01509D01*
X01624Y01038D02*
X01636D01*
X0163Y01032D02*
Y01044D01*
X01639Y01503D02*
X01651D01*
X01645Y01498D02*
Y01509D01*
X01716Y0137D02*
X01728D01*
X01722Y01364D02*
Y01376D01*
X02572Y01228D02*
X02584D01*
X02578Y01222D02*
Y01234D01*
X01995Y00874D02*
X02007D01*
X02001Y00868D02*
Y00879D01*
X01996Y00901D02*
X02008D01*
X02002Y00896D02*
Y00907D01*
X01997Y00929D02*
X02009D01*
X02003Y00923D02*
Y00935D01*
X0299Y0069D02*
X03001D01*
X02996Y00685D02*
Y00696D01*
X02403Y00417D02*
X02415D01*
X02409Y00411D02*
Y00423D01*
X01289Y01364D02*
X01301D01*
X01295Y01358D02*
Y0137D01*
X01257Y01389D02*
X01269D01*
X01263Y01383D02*
Y01395D01*
X0158Y01346D02*
X01592D01*
X01586Y0134D02*
Y01352D01*
X0132Y01464D02*
X01332D01*
X01326Y01458D02*
Y0147D01*
X01167Y02011D02*
X01179D01*
X01173Y02005D02*
Y02017D01*
X01167Y0135D02*
X01179D01*
X01173Y01344D02*
Y01356D01*
X01687Y02645D02*
X01698D01*
X01692Y02639D02*
Y02651D01*
X03588Y011D02*
X036D01*
X03594Y01094D02*
Y01106D01*
X02881Y02185D02*
X02893D01*
X02887Y02179D02*
Y0219D01*
X0362Y01145D02*
X03631D01*
X03625Y01139D02*
Y01151D01*
X03671Y011D02*
X03683D01*
X03677Y01094D02*
Y01106D01*
X00887Y01507D02*
X00899D01*
X00893Y01501D02*
Y01513D01*
X0125Y01251D02*
X01261D01*
X01255Y01246D02*
Y01257D01*
X01312Y01314D02*
X01324D01*
X01318Y01309D02*
Y0132D01*
X02407Y00366D02*
X02419D01*
X02413Y0036D02*
Y00372D01*
X02679Y01102D02*
X0269D01*
X02685Y01096D02*
Y01108D01*
X0136Y0011D02*
X01372D01*
X01366Y00104D02*
Y00116D01*
X01344Y00271D02*
X01356D01*
X0135Y00265D02*
Y00277D01*
X00273Y00925D02*
X00285D01*
X00279Y00919D02*
Y00931D01*
X00312Y00799D02*
X00324D01*
X00318Y00793D02*
Y00805D01*
X01584Y01566D02*
X01596D01*
X0159Y01561D02*
Y01572D01*
X02529Y01161D02*
X02541D01*
X02535Y01155D02*
Y01167D01*
X02277Y01149D02*
X02289D01*
X02283Y01143D02*
Y01155D01*
X03903Y02531D02*
X03915D01*
X03909Y02525D02*
Y02537D01*
X03312Y02665D02*
X03324D01*
X03318Y02659D02*
Y02671D01*
X02887Y0233D02*
X02899D01*
X02893Y02324D02*
Y02336D01*
X02057Y02082D02*
X02068D01*
X02062Y02076D02*
Y02088D01*
X0195Y01787D02*
X01962D01*
X01956Y01781D02*
Y01793D01*
X01576Y01169D02*
X01588D01*
X01582Y01163D02*
Y01175D01*
X0132Y01133D02*
X01332D01*
X01326Y01127D02*
Y01139D01*
X02541Y00547D02*
X02553D01*
X02547Y00541D02*
Y00553D01*
X0332Y02212D02*
X03332D01*
X03326Y02206D02*
Y02218D01*
X02636Y00414D02*
X02648D01*
X02642Y00408D02*
Y0042D01*
X01911Y00633D02*
X01923D01*
X01917Y00627D02*
Y00639D01*
X01698Y00429D02*
X0171D01*
X01704Y00423D02*
Y00435D01*
X03643Y01748D02*
X03655D01*
X03649Y01742D02*
Y01753D01*
X03734Y01637D02*
X03746D01*
X0374Y01631D02*
Y01643D01*
X03966Y0185D02*
X03978D01*
X03972Y01844D02*
Y01856D01*
X03549Y0194D02*
X03561D01*
X03555Y01935D02*
Y01946D01*
X03738Y02125D02*
X0375D01*
X03744Y0212D02*
Y02131D01*
X03714Y0224D02*
X03726D01*
X0372Y02234D02*
Y02246D01*
X03423Y02338D02*
X03435D01*
X03429Y02332D02*
Y02344D01*
X00927Y02405D02*
X00938D01*
X00933Y02399D02*
Y02411D01*
X01356Y00909D02*
X01368D01*
X01362Y00903D02*
Y00915D01*
X01529Y00775D02*
X01541D01*
X01535Y00769D02*
Y00781D01*
X01442Y00913D02*
X01454D01*
X01448Y00907D02*
Y00919D01*
X03236Y02299D02*
X03248D01*
X03242Y02293D02*
Y02305D01*
X03222Y02503D02*
X03234D01*
X03228Y02498D02*
Y02509D01*
X0121Y00755D02*
X01222D01*
X01216Y0075D02*
Y00761D01*
X00938Y00043D02*
X00966D01*
X00952Y00029D02*
Y00057D01*
X00954Y00114D02*
X00982D01*
X00968Y001D02*
Y00128D01*
X00926Y00267D02*
X00955D01*
X0094Y00253D02*
Y00281D01*
X00895Y00204D02*
X00923D01*
X00909Y0019D02*
Y00218D01*
X00871Y00043D02*
X009D01*
X00885Y00029D02*
Y00057D01*
X00745Y00039D02*
X00774D01*
X00759Y00025D02*
Y00053D01*
X00166Y00354D02*
X00195D01*
X00181Y0034D02*
Y00368D01*
X00174Y00287D02*
X00203D01*
X00188Y00273D02*
Y00301D01*
X0017Y0022D02*
X00199D01*
X00185Y00206D02*
Y00234D01*
X00162Y00153D02*
X00191D01*
X00177Y00139D02*
Y00167D01*
X00159Y00094D02*
X00187D01*
X00173Y0008D02*
Y00108D01*
X00225Y00031D02*
X00254D01*
X0024Y00017D02*
Y00045D01*
X00296Y00039D02*
X00325D01*
X00311Y00025D02*
Y00053D01*
X00367Y00118D02*
X00396D01*
X00381Y00103D02*
Y00132D01*
X00363Y00035D02*
X00392D01*
X00377Y00021D02*
Y00049D01*
X0045Y00035D02*
X00478D01*
X00464Y00021D02*
Y00049D01*
X00529Y00039D02*
X00557D01*
X00543Y00025D02*
Y00053D01*
X00666Y00043D02*
X00695D01*
X00681Y00029D02*
Y00057D01*
X00029Y00181D02*
X00057D01*
X00043Y00166D02*
Y00195D01*
X00037Y00326D02*
X00065D01*
X00051Y00312D02*
Y0034D01*
X0004Y00401D02*
X00069D01*
X00055Y00387D02*
Y00415D01*
X00442Y0044D02*
X0047D01*
X00456Y00426D02*
Y00455D01*
X00371Y00381D02*
X004D01*
X00385Y00367D02*
Y00396D01*
X00367Y00437D02*
X00396D01*
X00381Y00422D02*
Y00451D01*
X001Y00181D02*
X00128D01*
X00114Y00166D02*
Y00195D01*
X001Y00251D02*
X00128D01*
X00114Y00237D02*
Y00266D01*
X001Y0033D02*
X00128D01*
X00114Y00316D02*
Y00344D01*
X00107Y00405D02*
X00136D01*
X00122Y00391D02*
Y00419D01*
X00296Y00448D02*
X00325D01*
X00311Y00434D02*
Y00462D01*
X00911Y00606D02*
X00939D01*
X00925Y00592D02*
Y0062D01*
X00914Y00531D02*
X00943D01*
X00929Y00517D02*
Y00545D01*
X00887Y0046D02*
X00915D01*
X00901Y00446D02*
Y00474D01*
X0093Y00409D02*
X00959D01*
X00944Y00395D02*
Y00423D01*
X008Y00102D02*
X00829D01*
X00814Y00088D02*
Y00116D01*
X00725Y00122D02*
X00754D01*
X0074Y00107D02*
Y00136D01*
X00788Y00169D02*
X00817D01*
X00803Y00155D02*
Y00183D01*
X00729Y00204D02*
X00758D01*
X00744Y0019D02*
Y00218D01*
X00812Y00236D02*
X0084D01*
X00826Y00222D02*
Y0025D01*
X00761Y00279D02*
X00789D01*
X00775Y00265D02*
Y00293D01*
X00844Y00299D02*
X00872D01*
X00858Y00285D02*
Y00313D01*
X00899Y00342D02*
X00927D01*
X00913Y00328D02*
Y00356D01*
X00848Y00401D02*
X00876D01*
X00862Y00387D02*
Y00415D01*
X00796Y00342D02*
X00825D01*
X00811Y00328D02*
Y00356D01*
X00714Y00326D02*
X00742D01*
X00728Y00312D02*
Y0034D01*
X00662Y00267D02*
X00691D01*
X00677Y00253D02*
Y00281D01*
X00655Y00192D02*
X00683D01*
X00669Y00178D02*
Y00207D01*
X00651Y00114D02*
X00679D01*
X00665Y001D02*
Y00128D01*
X00588Y00114D02*
X00616D01*
X00602Y001D02*
Y00128D01*
X00588Y00185D02*
X00616D01*
X00602Y0017D02*
Y00199D01*
X00596Y00263D02*
X00624D01*
X0061Y00249D02*
Y00277D01*
X00615Y00338D02*
X00644D01*
X00629Y00324D02*
Y00352D01*
X0067Y00377D02*
X00699D01*
X00685Y00363D02*
Y00392D01*
X00737Y00393D02*
X00766D01*
X00751Y00379D02*
Y00407D01*
X00792Y00437D02*
X00821D01*
X00807Y00422D02*
Y00451D01*
X00824Y005D02*
X00852D01*
X00838Y00485D02*
Y00514D01*
X00832Y00566D02*
X0086D01*
X00846Y00552D02*
Y00581D01*
X00509Y00437D02*
X00537D01*
X00523Y00422D02*
Y00451D01*
X00572Y0044D02*
X006D01*
X00586Y00426D02*
Y00455D01*
X00635Y00468D02*
X00663D01*
X00649Y00454D02*
Y00482D01*
X00706Y00492D02*
X00734D01*
X0072Y00477D02*
Y00506D01*
X00423Y01476D02*
X00435D01*
X00429Y0147D02*
Y01482D01*
X00576Y01275D02*
X00588D01*
X00582Y01269D02*
Y01281D01*
X00639Y01287D02*
X00651D01*
X00645Y01281D02*
Y01293D01*
X00671Y01318D02*
X00683D01*
X00677Y01312D02*
Y01324D01*
X00604Y01318D02*
X00616D01*
X0061Y01312D02*
Y01324D01*
X00513Y01322D02*
X00525D01*
X00519Y01316D02*
Y01328D01*
X00427Y01437D02*
X00438D01*
X00433Y01431D02*
Y01442D01*
X00875Y01385D02*
X00887D01*
X00881Y01379D02*
Y01391D01*
X00856Y01303D02*
X00868D01*
X00862Y01297D02*
Y01309D01*
X00856Y0124D02*
X00868D01*
X00862Y01234D02*
Y01246D01*
X00482Y01204D02*
X00494D01*
X00488Y01198D02*
Y0121D01*
X00289Y01303D02*
X00301D01*
X00295Y01297D02*
Y01309D01*
X0047Y01311D02*
X00482D01*
X00476Y01305D02*
Y01316D01*
X00289Y01236D02*
X00301D01*
X00295Y0123D02*
Y01242D01*
X02887Y02413D02*
X02899D01*
X02893Y02407D02*
Y02419D01*
X00549Y00501D02*
X00561D01*
X00555Y00496D02*
Y00507D01*
X00368Y00755D02*
X00379D01*
X00374Y0075D02*
Y00761D01*
X02242Y01185D02*
X02253D01*
X02248Y01179D02*
Y0119D01*
X03533Y02614D02*
X03545D01*
X03539Y02608D02*
Y0262D01*
X01805Y01696D02*
X01816D01*
X01811Y0169D02*
Y01702D01*
X01411Y01291D02*
X01423D01*
X01417Y01285D02*
Y01297D01*
X03986Y02027D02*
X03998D01*
X03992Y02021D02*
Y02033D01*
X02372Y00657D02*
X02383D01*
X02377Y00651D02*
Y00663D01*
X02488Y00612D02*
X025D01*
X02494Y00606D02*
Y00618D01*
X02427Y00515D02*
X02438D01*
X02433Y00509D02*
Y00521D01*
X03604Y02401D02*
X03616D01*
X0361Y02395D02*
Y02407D01*
X03557Y01988D02*
X03568D01*
X03562Y01982D02*
Y01994D01*
X03446Y01988D02*
X03458D01*
X03452Y01982D02*
Y01994D01*
X0162Y01129D02*
X01631D01*
X01625Y01124D02*
Y01135D01*
X02277Y00917D02*
X02289D01*
X02283Y00911D02*
Y00923D01*
X01399Y00944D02*
X01411D01*
X01405Y00938D02*
Y0095D01*
X01116Y00814D02*
X01127D01*
X01122Y00809D02*
Y0082D01*
X01076Y00834D02*
X01088D01*
X01082Y00828D02*
Y0084D01*
X03037Y00645D02*
X03049D01*
X03043Y00639D02*
Y00651D01*
X03234Y02665D02*
X03246D01*
X0324Y02659D02*
Y02671D01*
X03314Y02157D02*
X03326D01*
X0332Y02151D02*
Y02163D01*
X03139Y02094D02*
X03151D01*
X03145Y02088D02*
Y021D01*
X03163Y02133D02*
X03175D01*
X03169Y02127D02*
Y02139D01*
X03064Y00669D02*
X03076D01*
X0307Y00663D02*
Y00675D01*
X00584Y02208D02*
X00596D01*
X0059Y02202D02*
Y02214D01*
X00891Y01106D02*
X00903D01*
X00897Y011D02*
Y01112D01*
X02121Y01891D02*
X02133D01*
X02127Y01885D02*
Y01897D01*
X01927Y01891D02*
X01938D01*
X01933Y01885D02*
Y01897D01*
X03352Y02124D02*
X03364D01*
X03358Y02118D02*
Y0213D01*
X03375Y02444D02*
X03387D01*
X03381Y02438D02*
Y0245D01*
X01293Y02047D02*
X01305D01*
X01299Y02041D02*
Y02053D01*
X00446Y0222D02*
X00458D01*
X00452Y02214D02*
Y02226D01*
X00647Y02007D02*
X00659D01*
X00653Y02001D02*
Y02013D01*
X00057Y017D02*
X00068D01*
X00062Y01694D02*
Y01706D01*
X00273Y02214D02*
X00285D01*
X00279Y02209D02*
Y0222D01*
X00312Y01496D02*
X00324D01*
X00318Y0149D02*
Y01502D01*
X03046Y02106D02*
X03058D01*
X03052Y021D02*
Y02112D01*
X03099Y0213D02*
X03111D01*
X03105Y02124D02*
Y02137D01*
X03114Y02173D02*
X03125D01*
X0312Y02167D02*
Y02179D01*
X01148Y02485D02*
X0116D01*
X01154Y02479D02*
Y02491D01*
X01775Y00232D02*
X01787D01*
X01781Y00226D02*
Y00238D01*
X02222Y00704D02*
X02234D01*
X02228Y00698D02*
Y0071D01*
X02198Y0074D02*
X0221D01*
X02204Y00734D02*
Y00746D01*
X01612Y01307D02*
X01624D01*
X01618Y01301D02*
Y01312D01*
X01735Y0145D02*
X01747D01*
X01741Y01444D02*
Y01456D01*
X01757Y01479D02*
X0177D01*
X01764Y01474D02*
Y01485D01*
X01706Y01413D02*
X01718D01*
X01712Y01407D02*
Y01419D01*
X0137Y01089D02*
X01381D01*
X01375Y01083D02*
Y01095D01*
X00074Y01033D02*
X00086D01*
X0008Y01027D02*
Y01039D01*
X01727Y02018D02*
X01738D01*
X01733Y02012D02*
Y02024D01*
X01582Y01026D02*
X01594D01*
X01588Y0102D02*
Y01032D01*
X02744Y01043D02*
X02756D01*
X0275Y01037D02*
Y01049D01*
X02592Y01027D02*
X02604D01*
X02598Y01021D02*
Y01033D01*
X02485Y01002D02*
X02497D01*
X02491Y00996D02*
Y01008D01*
X02575Y01153D02*
X02587D01*
X02581Y01147D02*
Y01159D01*
X01901Y01914D02*
X01913D01*
X01907Y01908D02*
Y0192D01*
X01717Y01963D02*
X01729D01*
X01723Y01958D02*
Y01969D01*
X01328Y01008D02*
X0134D01*
X01334Y01002D02*
Y01014D01*
X01895Y01697D02*
X01907D01*
X01901Y01691D02*
Y01703D01*
X02716Y01206D02*
X02728D01*
X02722Y012D02*
Y01212D01*
X02692Y01283D02*
X02703D01*
X02698Y01277D02*
Y01289D01*
X00711Y01468D02*
X00723D01*
X00717Y01462D02*
Y01474D01*
X00035Y00858D02*
X00046D01*
X0004Y00852D02*
Y00864D01*
X01998Y01573D02*
X0201D01*
X02004Y01567D02*
Y01579D01*
X02467Y01997D02*
X02479D01*
X02473Y01991D02*
Y02003D01*
X0234Y01997D02*
X02351D01*
X02346Y01992D02*
Y02003D01*
X02189Y02005D02*
X02201D01*
X02195Y02D02*
Y02011D01*
X02009Y0085D02*
X0202D01*
X02014Y00844D02*
Y00855D01*
X02059Y00719D02*
X0207D01*
X02064Y00713D02*
Y00725D01*
X01195Y01157D02*
X01207D01*
X01201Y01151D02*
Y01163D01*
M02*