%FSTAX23Y23*%
%MOIN*%
%SFA1B1*%

%IPPOS*%
%AMD124*
4,1,8,-0.083500,0.076400,-0.083500,-0.076400,-0.041700,-0.118100,0.041700,-0.118100,0.083500,-0.076400,0.083500,0.076400,0.041700,0.118100,-0.041700,0.118100,-0.083500,0.076400,0.0*
%
%ADD10C,0.007874*%
%ADD14C,0.003937*%
%ADD15C,0.005118*%
%ADD16C,0.007874*%
%ADD18C,0.000000*%
%ADD19C,0.001969*%
%ADD117C,0.011811*%
G04~CAMADD=124~4~0.0~0.0~2362.2~1669.3~0.0~417.3~0~0.0~0.0~0.0~0.0~0~0.0~0.0~0.0~0.0~0~0.0~0.0~0.0~90.0~1670.0~2362.0*
%ADD124D124*%
%ADD125C,0.061024*%
%ADD129C,0.112205*%
%ADD132C,0.045275*%
%ADD135C,0.125984*%
%ADD137R,0.047244X0.047244*%
%ADD141C,0.050000*%
%ADD142C,0.023622*%
%LNshm_pcb-1*%
%LPD*%
G36*
X03909Y0288D02*
X03906Y02871D01*
X03903Y02857*
Y02855*
X03976*
Y0285*
X03981*
Y02777*
X03983*
X03997Y0278*
X04011Y02785*
X04022Y02793*
X04033Y02803*
X04034Y02805*
X04038Y02803*
Y00114*
X04034Y00112*
X04031Y00117*
X0402Y00127*
X04009Y00135*
X03995Y0014*
X03981Y00143*
X03979*
Y0007*
X03974*
Y00065*
X03901*
Y00063*
X03904Y00049*
X03909Y00036*
Y00035*
X03907Y00031*
X00989*
X00987Y00035*
X00987Y00038*
X00952*
Y00048*
X00987*
X00985Y00056*
X0098Y00064*
X00974Y00071*
X00969Y00074*
X0097Y00079*
X00973*
X00981Y00081*
X0099Y00086*
X00996Y00092*
X01001Y001*
X01003Y00109*
X00933*
X00935Y001*
X0094Y00092*
X00946Y00086*
X00951Y00083*
X0095Y00078*
X00948*
X00939Y00075*
X00931Y00071*
X00924Y00064*
X00922Y0006*
X00916*
X00913Y00064*
X00907Y00071*
X00899Y00075*
X0089Y00078*
Y00043*
X0088*
Y00078*
X00872Y00075*
X00864Y00071*
X00859Y00066*
X00856Y00065*
X00853Y00066*
X00848Y00071*
X00843Y00074*
X00842Y0008*
X00842Y0008*
X00847Y00088*
X0085Y00097*
X00779*
X00782Y00088*
X00787Y0008*
X00793Y00074*
X00798Y00071*
X00799Y00065*
X00798Y00064*
X00794Y00058*
X0079Y00057*
X00789Y00058*
X00787Y00061*
X00781Y00067*
X00773Y00072*
X00764Y00074*
Y00039*
X00759*
Y00034*
X00724*
X00722Y00032*
X00718*
X00715Y00036*
X00716Y00038*
X00681*
Y00048*
X00716*
X00713Y00056*
X00709Y00064*
X00702Y00071*
X00694Y00075*
X00685Y00078*
X00683*
X00681Y00083*
X00687Y00086*
X00693Y00092*
X00698Y001*
X007Y00109*
Y00114*
Y00116*
X00705Y00116*
X00705Y00115*
X00707Y00108*
X00712Y001*
X00718Y00094*
X00726Y00089*
X00735Y00087*
Y00122*
Y00157*
X00726Y00154*
X00718Y0015*
X00712Y00143*
X00707Y00135*
X00705Y00126*
Y00121*
Y0012*
X007Y00119*
X00699Y0012*
X00698Y00127*
X00693Y00135*
X00687Y00142*
X00678Y00146*
X0067Y00149*
Y00114*
X0066*
Y00149*
X00651Y00146*
X00643Y00142*
X00637Y00135*
X00636Y00133*
X00631*
X0063Y00135*
X00624Y00142*
X00615Y00146*
X00614*
Y00152*
X00615*
X00624Y00157*
X0063Y00163*
X00635Y00171*
X00635Y00172*
X0064Y00173*
X00641Y00171*
X00647Y00164*
X00655Y0016*
X00664Y00157*
Y00192*
X00669*
Y00198*
X00704*
X00701Y00206*
X00697Y00214*
X0069Y0022*
X00682Y00225*
X00675Y00227*
X00674Y00227*
X00675Y00232*
X00676*
X00681*
X0069Y00235*
X00698Y00239*
X00705Y00246*
X00709Y00254*
X00712Y00262*
X00677*
Y00267*
X00672*
Y00302*
X00663Y003*
X00655Y00295*
X00649Y00289*
X00645Y00282*
X0064Y00282*
X00639Y00282*
X00638Y00285*
X00631Y00291*
X00623Y00296*
X00615Y00298*
Y00263*
Y00228*
X00623Y00231*
X00631Y00235*
X00638Y00242*
X00642Y00248*
X00646Y00249*
X00647Y00248*
X00649Y00246*
X00655Y00239*
X00663Y00235*
X0067Y00233*
X00671Y00233*
X00671Y00227*
X00669*
X00664*
X00655Y00225*
X00647Y0022*
X00641Y00214*
X00636Y00206*
X00636Y00205*
X00631Y00204*
X0063Y00206*
X00624Y00212*
X00615Y00217*
X00607Y0022*
Y00185*
X00602*
Y00179*
X00567*
X00569Y00171*
X00574Y00163*
X0058Y00157*
X00588Y00152*
X00589*
Y00146*
X00588*
X0058Y00142*
X00574Y00135*
X00569Y00127*
X00567Y00119*
X00602*
Y00109*
X00567*
X00569Y001*
X00574Y00092*
X0058Y00086*
X00588Y00081*
X00597Y00079*
X00604*
X00604Y00074*
X00596Y00072*
X00588Y00067*
X00582Y00061*
X00579Y00056*
X00574*
X00571Y00061*
X00564Y00067*
X00556Y00072*
X00548Y00074*
Y00039*
X00543*
Y00034*
X00507*
X00505Y00031*
X00499*
Y0004*
X00497Y00048*
X00492Y00057*
X00486Y00063*
X00477Y00068*
X00469Y0007*
Y00035*
X00459*
Y0007*
X00451Y00068*
X00442Y00063*
X00436Y00057*
X00431Y00048*
X00429Y0004*
Y00031*
X00412*
Y0004*
X0041Y00048*
X00405Y00057*
X00399Y00063*
X00391Y00068*
X00383Y0007*
Y00035*
X00372*
Y0007*
X00364Y00068*
X00356Y00063*
X0035Y00057*
X00348Y00054*
X00347Y00053*
X00342Y00054*
X00338Y00061*
X00332Y00067*
X00324Y00072*
X00316Y00074*
Y00039*
X00305*
Y00074*
X00297Y00072*
X00289Y00067*
X00283Y00061*
X00278Y00052*
X00277Y00047*
X00271Y00046*
X00268Y00053*
X00261Y00059*
X00253Y00064*
X00245Y00066*
Y00031*
X00235*
Y00066*
X00226Y00064*
X00218Y00059*
X00212Y00053*
X00209Y00048*
X00203*
X00201Y00052*
X00194Y00059*
X00192Y0006*
Y00065*
X00194Y00066*
X00201Y00072*
X00205Y00081*
X00208Y00089*
X00173*
Y00099*
X00208*
X00205Y00107*
X00201Y00116*
X00198Y00119*
X00198Y00125*
X00205Y00131*
X00207Y00135*
X00213Y00136*
X00214Y00135*
Y00135*
X00216Y00122*
X00222Y0011*
X00229Y00099*
X00238Y0009*
X00249Y00083*
X00261Y00078*
X00274Y00075*
X00275*
Y00141*
Y00207*
X00274*
X00261Y00205*
X00249Y002*
X00238Y00192*
X00229Y00183*
X00222Y00173*
X00216Y00161*
Y0016*
X00211*
X00209Y00166*
X00205Y00175*
X00198Y00181*
X00196Y00182*
X00197Y00187*
X00198Y00187*
X00206Y00192*
X00212Y00198*
X00217Y00207*
X0022Y00215*
X0015*
X00152Y00207*
X00157Y00198*
X00163Y00192*
X00165Y00191*
X00164Y00186*
X00163Y00186*
X00155Y00181*
X00154Y00179*
X00149Y00182*
Y00185*
X00146Y00194*
X00142Y00202*
X00135Y00209*
X00127Y00213*
X00126*
Y00219*
X00127*
X00135Y00224*
X00142Y0023*
X00146Y00238*
X00149Y00246*
X00114*
Y00251*
X00109*
Y00287*
X001Y00284*
X00092Y00279*
X00086Y00273*
X00083Y00268*
X00077*
X00075Y00273*
X00068Y00279*
X0006Y00284*
X00052Y00286*
X00053Y00291*
X00055*
X00064Y00294*
X00072Y00298*
X00079Y00305*
X00081Y00308*
X00083Y00308*
X00087*
X00092Y00302*
X001Y00298*
X00109Y00295*
Y0033*
X00119*
Y00295*
X00127Y00298*
X00135Y00302*
X00142Y00309*
X00146Y00317*
X00149Y00325*
Y00329*
X00149Y0033*
X00154Y00331*
X00159Y00326*
X00167Y00321*
X00168Y00321*
X00169Y00316*
X00167Y00315*
X00161Y00309*
X00156Y003*
X00153Y00292*
X00224*
X00221Y003*
X00216Y00309*
X0021Y00315*
X00202Y0032*
X00201Y0032*
X002Y00325*
X00202Y00326*
X00209Y00332*
X00209Y00334*
X00215Y00333*
X00216Y00325*
X00222Y00312*
X00229Y00302*
X00238Y00293*
X00249Y00285*
X00261Y00281*
X00274Y00278*
X00275*
Y00344*
Y0041*
X00274*
X00261Y00407*
X00249Y00403*
X00238Y00395*
X00229Y00386*
X00222Y00375*
X00218Y00368*
X00215*
X00213Y00368*
X00209Y00375*
X00202Y00382*
X00194Y00387*
X00186Y00389*
Y00354*
X00175*
Y00389*
X00167Y00387*
X00159Y00382*
X00153Y00375*
X00148Y00367*
X00146Y00359*
Y00355*
X00145Y00354*
X0014Y00353*
X00135Y00358*
X00127Y00363*
X00119Y00365*
X0012Y0037*
X00126*
X00135Y00372*
X00143Y00377*
X0015Y00383*
X00154Y00392*
X00157Y004*
X00122*
Y00405*
X00116*
Y0044*
X00108Y00438*
X001Y00433*
X00094Y00427*
X0009Y0042*
X00085Y0042*
X00084Y0042*
X00083Y00423*
X00076Y00429*
X00068Y00434*
X0006Y00436*
Y00401*
X00055*
Y00396*
X0002*
X00022Y00388*
X00027Y00379*
X00033Y00373*
X00041Y00368*
X00049Y00366*
X00049Y00361*
X00046*
X00037Y00359*
X00029Y00354*
X00023Y00348*
X00018Y0034*
X00016Y00331*
X00011Y00331*
Y02807*
X00016Y02809*
X00024Y02801*
X00036Y02793*
X00049Y02788*
X00063Y02785*
X00065*
Y02858*
X0007*
Y02863*
X00143*
Y02865*
X0014Y02879*
X0014Y02881*
X00142Y02885*
X03906*
X03909Y0288*
G37*
G36*
X00119Y00146D02*
X00127Y00148D01*
X00135Y00153*
X00137Y00154*
X00142Y00152*
Y00148*
X00144Y0014*
X00149Y00131*
X00152Y00128*
X00151Y00122*
X00148Y00118*
X00143Y00117*
X00141Y00118*
X00133Y00127*
X00121Y00135*
X00107Y0014*
X00093Y00143*
X00091*
Y0007*
X00081*
Y00143*
X00079*
X00065Y0014*
X00051Y00135*
X0004Y00127*
X00029Y00117*
X00022Y00105*
X00016Y00092*
X00016Y00091*
X00011Y00092*
Y00157*
X00016Y00158*
X00021Y00153*
X00029Y00148*
X00038Y00146*
Y00181*
X00048*
Y00146*
X00056Y00148*
X00064Y00153*
X00071Y00159*
X00075Y00167*
Y00168*
X00081*
Y00167*
X00086Y00159*
X00092Y00153*
X001Y00148*
X00109Y00146*
Y00181*
X00119*
Y00146*
G37*
%LNshm_pcb-2*%
%LPC*%
G36*
X03702Y02879D02*
X03701D01*
Y02844*
X03737*
Y02844*
X03734Y02855*
X03729Y02864*
X03721Y02872*
X03712Y02877*
X03702Y02879*
G37*
G36*
X03691D02*
X03691D01*
X03681Y02877*
X03672Y02872*
X03664Y02864*
X03659Y02855*
X03656Y02844*
Y02844*
X03691*
Y02879*
G37*
G36*
X01912Y02838D02*
Y02805D01*
X01901*
Y02838*
X01894Y02836*
X01887Y02831*
X01882Y02827*
X01877Y02831*
X01869Y02836*
X01862Y02838*
Y02805*
X01851*
Y02838*
X01844Y02836*
X01837Y02831*
X01831Y02825*
X01824Y02825*
X01823Y02827*
X01817Y0283*
X0181Y02832*
X01803*
X01796Y0283*
X0179Y02827*
X01785Y02822*
X01785Y0282*
X01779*
X01778Y02822*
X01773Y02827*
X01767Y0283*
X0176Y02832*
X01753*
X01746Y0283*
X0174Y02827*
X01735Y02822*
X01732Y02816*
X0173Y02809*
Y02802*
X01732Y02795*
X01735Y02789*
X0174Y02784*
X01742Y02783*
Y02777*
X0174Y02777*
X01735Y02772*
X01732Y02766*
X0173Y02759*
Y02752*
X01732Y02745*
X01735Y02739*
X0174Y02734*
X01746Y02731*
X01753Y02729*
X0176*
X01767Y02731*
X01773Y02734*
X01778Y02739*
X01779Y0274*
X01785*
X01785Y02739*
X0179Y02734*
X01796Y02731*
X01803Y02729*
X0181*
X01817Y02731*
X01823Y02734*
X01828Y02739*
X01829Y0274*
X01835*
X01835Y02739*
X0184Y02734*
X01846Y02731*
X01853Y02729*
X0186*
X01867Y02731*
X01873Y02734*
X01878Y02739*
X01879Y0274*
X01885*
X01885Y02739*
X0189Y02734*
X01896Y02731*
X01903Y02729*
X0191*
X01917Y02731*
X01923Y02734*
X01928Y02739*
X01929Y0274*
X01935*
X01935Y02739*
X0194Y02734*
X01946Y02731*
X01953Y02729*
X0196*
X01967Y02731*
X01973Y02734*
X01978Y02739*
X01981Y02745*
X01983Y02752*
Y02759*
X01981Y02766*
X01978Y02772*
X01976Y02774*
X01978Y02779*
X01983*
Y02832*
X0193*
X01925Y02832*
X01919Y02836*
X01912Y02838*
G37*
G36*
X03801Y02874D02*
X03792D01*
X03783Y02871*
X03775Y02867*
X03769Y0286*
X03764Y02852*
X03762Y02844*
Y02835*
X03764Y02826*
X03769Y02818*
X03775Y02811*
X03783Y02807*
X03792Y02805*
X03801*
X0381Y02807*
X03818Y02811*
X03824Y02818*
X03829Y02826*
X03831Y02835*
Y02844*
X03829Y02852*
X03824Y0286*
X03818Y02867*
X0381Y02871*
X03801Y02874*
G37*
G36*
X03601D02*
X03592D01*
X03583Y02871*
X03575Y02867*
X03569Y0286*
X03564Y02852*
X03562Y02844*
Y02835*
X03564Y02826*
X03569Y02818*
X03575Y02811*
X03583Y02807*
X03592Y02805*
X03601*
X0361Y02807*
X03618Y02811*
X03624Y02818*
X03629Y02826*
X03631Y02835*
Y02844*
X03629Y02852*
X03624Y0286*
X03618Y02867*
X0361Y02871*
X03601Y02874*
G37*
G36*
X03501D02*
X03492D01*
X03483Y02871*
X03475Y02867*
X03469Y0286*
X03464Y02852*
X03462Y02844*
Y02835*
X03464Y02826*
X03469Y02818*
X03475Y02811*
X03483Y02807*
X03492Y02805*
X03501*
X0351Y02807*
X03518Y02811*
X03524Y02818*
X03529Y02826*
X03531Y02835*
Y02844*
X03529Y02852*
X03524Y0286*
X03518Y02867*
X0351Y02871*
X03501Y02874*
G37*
G36*
X03401D02*
X03392D01*
X03383Y02871*
X03375Y02867*
X03369Y0286*
X03364Y02852*
X03362Y02844*
Y02835*
X03364Y02826*
X03369Y02818*
X03375Y02811*
X03383Y02807*
X03392Y02805*
X03401*
X0341Y02807*
X03418Y02811*
X03424Y02818*
X03429Y02826*
X03431Y02835*
Y02844*
X03429Y02852*
X03424Y0286*
X03418Y02867*
X0341Y02871*
X03401Y02874*
G37*
G36*
X03301D02*
X03292D01*
X03283Y02871*
X03275Y02867*
X03269Y0286*
X03264Y02852*
X03262Y02844*
Y02835*
X03264Y02826*
X03269Y02818*
X03275Y02811*
X03283Y02807*
X03292Y02805*
X03301*
X0331Y02807*
X03318Y02811*
X03324Y02818*
X03329Y02826*
X03331Y02835*
Y02844*
X03329Y02852*
X03324Y0286*
X03318Y02867*
X0331Y02871*
X03301Y02874*
G37*
G36*
X03201D02*
X03192D01*
X03183Y02871*
X03175Y02867*
X03169Y0286*
X03164Y02852*
X03162Y02844*
Y02835*
X03164Y02826*
X03169Y02818*
X03175Y02811*
X03183Y02807*
X03192Y02805*
X03201*
X0321Y02807*
X03218Y02811*
X03224Y02818*
X03229Y02826*
X03231Y02835*
Y02844*
X03229Y02852*
X03224Y0286*
X03218Y02867*
X0321Y02871*
X03201Y02874*
G37*
G36*
X03101D02*
X03092D01*
X03083Y02871*
X03075Y02867*
X03069Y0286*
X03064Y02852*
X03062Y02844*
Y02835*
X03064Y02826*
X03069Y02818*
X03075Y02811*
X03083Y02807*
X03092Y02805*
X03101*
X0311Y02807*
X03118Y02811*
X03124Y02818*
X03129Y02826*
X03131Y02835*
Y02844*
X03129Y02852*
X03124Y0286*
X03118Y02867*
X0311Y02871*
X03101Y02874*
G37*
G36*
X03001D02*
X02992D01*
X02983Y02871*
X02975Y02867*
X02969Y0286*
X02964Y02852*
X02962Y02844*
Y02835*
X02964Y02826*
X02969Y02818*
X02975Y02811*
X02983Y02807*
X02992Y02805*
X03001*
X0301Y02807*
X03018Y02811*
X03024Y02818*
X03029Y02826*
X03031Y02835*
Y02844*
X03029Y02852*
X03024Y0286*
X03018Y02867*
X0301Y02871*
X03001Y02874*
G37*
G36*
X02901D02*
X02892D01*
X02883Y02871*
X02875Y02867*
X02869Y0286*
X02864Y02852*
X02862Y02844*
Y02835*
X02864Y02826*
X02869Y02818*
X02875Y02811*
X02883Y02807*
X02892Y02805*
X02901*
X0291Y02807*
X02918Y02811*
X02924Y02818*
X02929Y02826*
X02931Y02835*
Y02844*
X02929Y02852*
X02924Y0286*
X02918Y02867*
X0291Y02871*
X02901Y02874*
G37*
G36*
X02801D02*
X02792D01*
X02783Y02871*
X02775Y02867*
X02769Y0286*
X02764Y02852*
X02762Y02844*
Y02835*
X02764Y02826*
X02769Y02818*
X02775Y02811*
X02783Y02807*
X02792Y02805*
X02801*
X0281Y02807*
X02818Y02811*
X02824Y02818*
X02829Y02826*
X02831Y02835*
Y02844*
X02829Y02852*
X02824Y0286*
X02818Y02867*
X0281Y02871*
X02801Y02874*
G37*
G36*
X02701D02*
X02692D01*
X02683Y02871*
X02675Y02867*
X02669Y0286*
X02664Y02852*
X02662Y02844*
Y02835*
X02664Y02826*
X02669Y02818*
X02675Y02811*
X02683Y02807*
X02692Y02805*
X02701*
X0271Y02807*
X02718Y02811*
X02724Y02818*
X02729Y02826*
X02731Y02835*
Y02844*
X02729Y02852*
X02724Y0286*
X02718Y02867*
X0271Y02871*
X02701Y02874*
G37*
G36*
X02601D02*
X02592D01*
X02583Y02871*
X02575Y02867*
X02569Y0286*
X02564Y02852*
X02562Y02844*
Y02835*
X02564Y02826*
X02569Y02818*
X02575Y02811*
X02583Y02807*
X02592Y02805*
X02601*
X0261Y02807*
X02618Y02811*
X02624Y02818*
X02629Y02826*
X02631Y02835*
Y02844*
X02629Y02852*
X02624Y0286*
X02618Y02867*
X0261Y02871*
X02601Y02874*
G37*
G36*
X02501D02*
X02492D01*
X02483Y02871*
X02475Y02867*
X02469Y0286*
X02464Y02852*
X02462Y02844*
Y02835*
X02464Y02826*
X02469Y02818*
X02475Y02811*
X02483Y02807*
X02492Y02805*
X02501*
X0251Y02807*
X02518Y02811*
X02524Y02818*
X02529Y02826*
X02531Y02835*
Y02844*
X02529Y02852*
X02524Y0286*
X02518Y02867*
X0251Y02871*
X02501Y02874*
G37*
G36*
X03737Y02834D02*
X03701D01*
Y02799*
X03702*
X03712Y02801*
X03721Y02807*
X03729Y02814*
X03734Y02824*
X03737Y02834*
Y02834*
G37*
G36*
X03691D02*
X03656D01*
Y02834*
X03659Y02824*
X03664Y02814*
X03672Y02807*
X03681Y02801*
X03691Y02799*
X03691*
Y02834*
G37*
G36*
X00143Y02853D02*
X00075D01*
Y02785*
X00077*
X00092Y02788*
X00105Y02793*
X00117Y02801*
X00127Y02811*
X00135Y02823*
X0014Y02837*
X00143Y02851*
Y02853*
G37*
G36*
X03971Y02845D02*
X03903D01*
Y02843*
X03906Y02829*
X03911Y02815*
X03919Y02803*
X03929Y02793*
X03941Y02785*
X03955Y0278*
X03969Y02777*
X03971*
Y02845*
G37*
G36*
X02976Y02773D02*
X0297D01*
X02964Y02771*
X0296Y02766*
X02957Y02761*
Y02754*
X0296Y02748*
X02964Y02744*
X0297Y02742*
X02976*
X02982Y02744*
X02986Y02748*
X02989Y02754*
Y02761*
X02986Y02766*
X02982Y02771*
X02976Y02773*
G37*
G36*
X02864Y02744D02*
X02858D01*
X02852Y02742*
X02848Y02738*
X02845Y02732*
Y02726*
X02848Y0272*
X02852Y02716*
X02858Y02713*
X02864*
X0287Y02716*
X02874Y0272*
X02876Y02726*
Y02732*
X02874Y02738*
X0287Y02742*
X02864Y02744*
G37*
G36*
X03324Y02687D02*
Y0267D01*
X0334*
X03337Y02677*
X03331Y02683*
X03324Y02687*
G37*
G36*
X03313D02*
X03306Y02683D01*
X033Y02677*
X03297Y0267*
X03313*
Y02687*
G37*
G36*
X02688Y02696D02*
X02681D01*
X02675Y02694*
X02671Y0269*
X02669Y02684*
Y02677*
X02671Y02672*
X02675Y02667*
X02681Y02665*
X02688*
X02694Y02667*
X02698Y02672*
X027Y02677*
Y02684*
X02698Y0269*
X02694Y02694*
X02688Y02696*
G37*
G36*
X03192Y02692D02*
X03185D01*
X03179Y02689*
X03175Y02685*
X03173Y02679*
Y02673*
X03175Y02667*
X03179Y02662*
X03185Y0266*
X03192*
X03198Y02662*
X03202Y02667*
X03204Y02673*
Y02679*
X03202Y02685*
X03198Y02689*
X03192Y02692*
G37*
G36*
X03746Y02726D02*
X0371D01*
Y02722*
X0371Y02721*
Y02695*
X0371Y02695*
Y02692*
Y02685*
Y02682*
X0371Y02681*
Y02656*
X0371Y02655*
Y02651*
X03746*
Y02655*
X03746Y02656*
Y02681*
X03746Y02682*
Y02685*
Y02692*
Y02695*
X03746Y02695*
Y02721*
X03746Y02722*
Y02725*
Y02726*
G37*
G36*
X03243Y02681D02*
X03237D01*
X03231Y02678*
X03226Y02674*
X03224Y02668*
Y02662*
X03226Y02656*
X03231Y02651*
X03237Y02649*
X03243*
X03249Y02651*
X03253Y02656*
X03255Y02662*
Y02668*
X03253Y02674*
X03249Y02678*
X03243Y02681*
G37*
G36*
X0334Y0266D02*
X03324D01*
Y02643*
X03331Y02646*
X03337Y02653*
X0334Y0266*
G37*
G36*
X03313D02*
X03297D01*
X033Y02653*
X03306Y02646*
X03313Y02643*
Y0266*
G37*
G36*
X01696Y02661D02*
X01689D01*
X01683Y02659*
X01679Y02654*
X01677Y02648*
Y02642*
X01679Y02636*
X01683Y02632*
X01689Y02629*
X01696*
X01701Y02632*
X01706Y02636*
X01708Y02642*
Y02648*
X01706Y02654*
X01701Y02659*
X01696Y02661*
G37*
G36*
X02684Y02637D02*
X02677D01*
X02672Y02635*
X02667Y02631*
X02665Y02625*
Y02618*
X02667Y02612*
X02672Y02608*
X02677Y02606*
X02684*
X0269Y02608*
X02694Y02612*
X02696Y02618*
Y02625*
X02694Y02631*
X0269Y02635*
X02684Y02637*
G37*
G36*
X03798Y02638D02*
X03643D01*
Y02634*
X03642Y02633*
Y02607*
X03643Y02607*
Y02602*
X03798*
Y02607*
X03798Y02607*
Y02633*
X03798Y02634*
Y02637*
Y02638*
G37*
G36*
X03542Y02629D02*
X03536D01*
X0353Y02627*
X03525Y02623*
X03523Y02617*
Y02611*
X03525Y02605*
X0353Y026*
X03536Y02598*
X03542*
X03548Y026*
X03552Y02605*
X03555Y02611*
Y02617*
X03552Y02623*
X03548Y02627*
X03542Y02629*
G37*
G36*
X02633Y02602D02*
X02627D01*
X02622Y026*
X02617Y02595*
X02615Y02589*
Y02588*
X0261Y02585*
X02607Y02586*
X02601*
X02595Y02584*
X0259Y02579*
X02588Y02574*
Y02567*
X0259Y02561*
X02595Y02557*
X02601Y02555*
X02607*
X02613Y02557*
X02617Y02561*
X0262Y02567*
Y02568*
X02625Y02572*
X02627Y0257*
X02633*
X02639Y02573*
X02644Y02577*
X02646Y02583*
Y02589*
X02644Y02595*
X02639Y026*
X02633Y02602*
G37*
G36*
X03914Y02553D02*
Y02536D01*
X03931*
X03927Y02543*
X03921Y0255*
X03914Y02553*
G37*
G36*
X03904D02*
X03897Y0255D01*
X0389Y02543*
X03887Y02536*
X03904*
Y02553*
G37*
G36*
X03534Y02548D02*
Y02532D01*
X03551*
X03548Y02539*
X03542Y02545*
X03534Y02548*
G37*
G36*
X03524D02*
X03517Y02545D01*
X03511Y02539*
X03508Y02532*
X03524*
Y02548*
G37*
G36*
X02324Y02551D02*
X02318D01*
X02312Y02548*
X02308Y02544*
X02306Y02538*
Y02532*
X02308Y02526*
X02312Y02522*
X02318Y02519*
X02324*
X0233Y02522*
X02335Y02526*
X02337Y02532*
Y02538*
X02335Y02544*
X0233Y02548*
X02324Y02551*
G37*
G36*
X03931Y02526D02*
X03914D01*
Y02509*
X03921Y02512*
X03927Y02519*
X03931Y02526*
G37*
G36*
X03904D02*
X03887D01*
X0389Y02519*
X03897Y02512*
X03904Y02509*
Y02526*
G37*
G36*
X03233Y02525D02*
Y02509D01*
X0325*
X03246Y02516*
X0324Y02522*
X03233Y02525*
G37*
G36*
X03223D02*
X03216Y02522D01*
X03209Y02516*
X03206Y02509*
X03223*
Y02525*
G37*
G36*
X03551Y02522D02*
X03534D01*
Y02505*
X03542Y02508*
X03548Y02514*
X03551Y02522*
G37*
G36*
X03524D02*
X03508D01*
X03511Y02514*
X03517Y02508*
X03524Y02505*
Y02522*
G37*
G36*
X0325Y02498D02*
X03233D01*
Y02482*
X0324Y02485*
X03246Y02491*
X0325Y02498*
G37*
G36*
X03223D02*
X03206D01*
X03209Y02491*
X03216Y02485*
X03223Y02482*
Y02498*
G37*
G36*
X01157Y02501D02*
X01151D01*
X01145Y02498*
X01141Y02494*
X01138Y02488*
Y02482*
X01141Y02476*
X01145Y02472*
X01151Y02469*
X01157*
X01163Y02472*
X01168Y02476*
X0117Y02482*
Y02488*
X01168Y02494*
X01163Y02498*
X01157Y02501*
G37*
G36*
X03385Y0246D02*
X03378D01*
X03372Y02458*
X03368Y02453*
X03366Y02448*
Y02441*
X03368Y02435*
X03372Y02431*
X03378Y02429*
X03385*
X0339Y02431*
X03395Y02435*
X03397Y02441*
Y02448*
X03395Y02453*
X0339Y02458*
X03385Y0246*
G37*
G36*
X00168Y02448D02*
X00162D01*
X00156Y02446*
X00151Y02442*
X00149Y02436*
Y02429*
X00151Y02424*
X00156Y02419*
X00162Y02417*
X00168*
X00174Y02419*
X00178Y02424*
X00181Y02429*
Y02436*
X00178Y02442*
X00174Y02446*
X00168Y02448*
G37*
G36*
X00938Y02427D02*
Y0241D01*
X00954*
X00951Y02417*
X00945Y02424*
X00938Y02427*
G37*
G36*
X00927D02*
X0092Y02424D01*
X00914Y02417*
X00911Y0241*
X00927*
Y02427*
G37*
G36*
X02896Y02429D02*
X0289D01*
X02884Y02426*
X0288Y02422*
X02877Y02416*
Y0241*
X0288Y02404*
X02884Y024*
X0289Y02397*
X02896*
X02902Y024*
X02907Y02404*
X02909Y0241*
Y02416*
X02907Y02422*
X02902Y02426*
X02896Y02429*
G37*
G36*
X03613Y02417D02*
X03607D01*
X03601Y02414*
X03596Y0241*
X03594Y02404*
Y02398*
X03596Y02392*
X03601Y02388*
X03607Y02385*
X03613*
X03619Y02388*
X03623Y02392*
X03625Y02398*
Y02404*
X03623Y0241*
X03619Y02414*
X03613Y02417*
G37*
G36*
X00954Y024D02*
X00938D01*
Y02383*
X00945Y02387*
X00951Y02393*
X00954Y024*
G37*
G36*
X00927D02*
X00911D01*
X00914Y02393*
X0092Y02387*
X00927Y02383*
Y024*
G37*
G36*
X03826Y0239D02*
X03819D01*
X03812Y02388*
X03807Y02383*
X03805Y02376*
Y02369*
X03807Y02362*
X03812Y02357*
X03819Y02355*
X03826*
X03832Y02357*
X03837Y02362*
X0384Y02369*
Y02376*
X03837Y02383*
X03832Y02388*
X03826Y0239*
G37*
G36*
X03434Y0236D02*
Y02343D01*
X0345*
X03447Y0235*
X03441Y02357*
X03434Y0236*
G37*
G36*
X03424D02*
X03416Y02357D01*
X0341Y0235*
X03407Y02343*
X03424*
Y0236*
G37*
G36*
X02898Y02352D02*
Y02335D01*
X02915*
X02912Y02342*
X02905Y02349*
X02898Y02352*
G37*
G36*
X02888D02*
X02881Y02349D01*
X02875Y02342*
X02872Y02335*
X02888*
Y02352*
G37*
G36*
X0345Y02333D02*
X03434D01*
Y02316*
X03441Y0232*
X03447Y02326*
X0345Y02333*
G37*
G36*
X03424D02*
X03407D01*
X0341Y02326*
X03416Y0232*
X03424Y02316*
Y02333*
G37*
G36*
X02915Y02325D02*
X02898D01*
Y02309*
X02905Y02312*
X02912Y02318*
X02915Y02325*
G37*
G36*
X02888D02*
X02872D01*
X02875Y02318*
X02881Y02312*
X02888Y02309*
Y02325*
G37*
G36*
X03247Y0232D02*
Y02304D01*
X03263*
X0326Y02311*
X03254Y02317*
X03247Y0232*
G37*
G36*
X03237D02*
X03229Y02317D01*
X03223Y02311*
X0322Y02304*
X03237*
Y0232*
G37*
G36*
X03263Y02294D02*
X03247D01*
Y02277*
X03254Y0228*
X0326Y02287*
X03263Y02294*
G37*
G36*
X03237D02*
X0322D01*
X03223Y02287*
X03229Y0228*
X03237Y02277*
Y02294*
G37*
G36*
X03725Y02261D02*
Y02245D01*
X03742*
X03738Y02252*
X03732Y02258*
X03725Y02261*
G37*
G36*
X03715D02*
X03708Y02258D01*
X03701Y02252*
X03698Y02245*
X03715*
Y02261*
G37*
G36*
X03742Y02235D02*
X03725D01*
Y02218*
X03732Y02221*
X03738Y02227*
X03742Y02235*
G37*
G36*
X03715D02*
X03698D01*
X03701Y02227*
X03708Y02221*
X03715Y02218*
Y02235*
G37*
G36*
X03331Y02234D02*
Y02217D01*
X03348*
X03345Y02224*
X03338Y02231*
X03331Y02234*
G37*
G36*
X03321D02*
X03314Y02231D01*
X03308Y02224*
X03305Y02217*
X03321*
Y02234*
G37*
G36*
X00455Y02236D02*
X00449D01*
X00443Y02233*
X00439Y02229*
X00437Y02223*
Y02217*
X00439Y02211*
X00443Y02207*
X00449Y02204*
X00455*
X00461Y02207*
X00466Y02211*
X00468Y02217*
Y02223*
X00466Y02229*
X00461Y02233*
X00455Y02236*
G37*
G36*
X00282Y0223D02*
X00276D01*
X0027Y02228*
X00266Y02224*
X00263Y02218*
Y02211*
X00266Y02206*
X0027Y02201*
X00276Y02199*
X00282*
X00288Y02201*
X00292Y02206*
X00295Y02211*
Y02218*
X00292Y02224*
X00288Y02228*
X00282Y0223*
G37*
G36*
X00593Y02224D02*
X00587D01*
X00581Y02222*
X00577Y02217*
X00574Y02211*
Y02205*
X00577Y02199*
X00581Y02195*
X00587Y02192*
X00593*
X00599Y02195*
X00603Y02199*
X00606Y02205*
Y02211*
X00603Y02217*
X00599Y02222*
X00593Y02224*
G37*
G36*
X03826Y02227D02*
X03819D01*
X03812Y02224*
X03807Y02219*
X03805Y02212*
Y02206*
X03807Y02199*
X03812Y02194*
X03819Y02191*
X03826*
X03832Y02194*
X03837Y02199*
X0384Y02206*
Y02212*
X03837Y02219*
X03832Y02224*
X03826Y02227*
G37*
G36*
X03348Y02207D02*
X03331D01*
Y0219*
X03338Y02194*
X03345Y022*
X03348Y02207*
G37*
G36*
X03321D02*
X03305D01*
X03308Y022*
X03314Y02194*
X03321Y0219*
Y02207*
G37*
G36*
X01985Y02209D02*
X01979D01*
X01973Y02207*
X01968Y02202*
X01966Y02196*
Y0219*
X01968Y02185*
X01973Y0218*
X01979Y02178*
X01985*
X01991Y0218*
X01995Y02185*
X01998Y0219*
Y02196*
X01995Y02202*
X01991Y02207*
X01985Y02209*
G37*
G36*
X0289Y022D02*
X02884D01*
X02878Y02198*
X02874Y02194*
X02872Y02188*
Y02181*
X02874Y02175*
X02878Y02171*
X02884Y02169*
X0289*
X02896Y02171*
X02901Y02175*
X02903Y02181*
Y02188*
X02901Y02194*
X02896Y02198*
X0289Y022*
G37*
G36*
X03123Y02188D02*
X03116D01*
X03111Y02186*
X03106Y02182*
X03104Y02176*
Y0217*
X03106Y02164*
X03111Y02159*
X03116Y02157*
X03123*
X03129Y02159*
X03133Y02164*
X03135Y0217*
Y02176*
X03133Y02182*
X03129Y02186*
X03123Y02188*
G37*
G36*
X02369D02*
X02362D01*
X02357Y02186*
X02352Y02182*
X0235Y02176*
Y0217*
X02352Y02164*
X02357Y02159*
X02362Y02157*
X02369*
X02375Y02159*
X02379Y02164*
X02381Y0217*
Y02176*
X02379Y02182*
X02375Y02186*
X02369Y02188*
G37*
G36*
X03324Y02173D02*
X03317D01*
X03311Y0217*
X03307Y02166*
X03305Y0216*
Y02154*
X03307Y02148*
X03311Y02144*
X03317Y02141*
X03324*
X03329Y02144*
X03334Y02148*
X03336Y02154*
Y0216*
X03334Y02166*
X03329Y0217*
X03324Y02173*
G37*
G36*
X03749Y02147D02*
Y02131D01*
X03765*
X03762Y02138*
X03756Y02144*
X03749Y02147*
G37*
G36*
X03738D02*
X03731Y02144D01*
X03725Y02138*
X03722Y02131*
X03738*
Y02147*
G37*
G36*
X03172Y02149D02*
X03166D01*
X0316Y02147*
X03155Y02142*
X03153Y02137*
Y0213*
X03155Y02124*
X0316Y0212*
X03166Y02118*
X03172*
X03178Y0212*
X03182Y02124*
X03185Y0213*
Y02137*
X03182Y02142*
X03178Y02147*
X03172Y02149*
G37*
G36*
X03108Y02146D02*
X03102D01*
X03096Y02144*
X03092Y02139*
X03089Y02133*
Y02127*
X03092Y02122*
X03096Y02117*
X03102Y02114*
X03108*
X03114Y02117*
X03118Y02122*
X03121Y02127*
Y02133*
X03118Y02139*
X03114Y02144*
X03108Y02146*
G37*
G36*
X03361Y0214D02*
X03355D01*
X03349Y02137*
X03345Y02133*
X03342Y02127*
Y02121*
X03345Y02115*
X03349Y02111*
X03355Y02108*
X03361*
X03367Y02111*
X03371Y02115*
X03374Y02121*
Y02127*
X03371Y02133*
X03367Y02137*
X03361Y0214*
G37*
G36*
X03765Y0212D02*
X03749D01*
Y02104*
X03756Y02107*
X03762Y02113*
X03765Y0212*
G37*
G36*
X03738D02*
X03722D01*
X03725Y02113*
X03731Y02107*
X03738Y02104*
Y0212*
G37*
G36*
X03055Y02122D02*
X03049D01*
X03044Y02119*
X03039Y02115*
X03037Y02109*
Y02103*
X03039Y02097*
X03044Y02092*
X03049Y0209*
X03055*
X03061Y02092*
X03066Y02097*
X03068Y02103*
Y02109*
X03066Y02115*
X03061Y02119*
X03055Y02122*
G37*
G36*
X02068Y02104D02*
Y02087D01*
X02084*
X02081Y02094*
X02075Y02101*
X02068Y02104*
G37*
G36*
X02057D02*
X0205Y02101D01*
X02044Y02094*
X02041Y02087*
X02057*
Y02104*
G37*
G36*
X03148Y0211D02*
X03142D01*
X03136Y02107*
X03132Y02103*
X03129Y02097*
Y02091*
X03132Y02085*
X03136Y02081*
X03142Y02078*
X03148*
X03154Y02081*
X03159Y02085*
X03161Y02091*
Y02097*
X03159Y02103*
X03154Y02107*
X03148Y0211*
G37*
G36*
X01302Y02062D02*
X01296D01*
X0129Y0206*
X01286Y02055*
X01283Y0205*
Y02044*
X01286Y02038*
X0129Y02033*
X01296Y02031*
X01302*
X01308Y02033*
X01312Y02038*
X01314Y02044*
Y0205*
X01312Y02055*
X01308Y0206*
X01302Y02062*
G37*
G36*
X02084Y02077D02*
X02041D01*
X02044Y0207*
X0205Y02064*
X02051Y02063*
Y02062*
X0205Y02058*
X02046Y02056*
X02041Y02052*
X02039Y02046*
Y0204*
X02041Y02034*
X02046Y02029*
X02051Y02027*
X02058*
X02064Y02029*
X02068Y02034*
X0207Y0204*
Y02046*
X02068Y02052*
X02064Y02055*
X02065Y02059*
X02066Y02061*
X02067*
X02075Y02064*
X02081Y0207*
X02084Y02077*
G37*
G36*
X03995Y02043D02*
X03988D01*
X03983Y0204*
X03978Y02036*
X03976Y0203*
Y02024*
X03978Y02018*
X03983Y02014*
X03988Y02011*
X03995*
X04001Y02014*
X04005Y02018*
X04007Y02024*
Y0203*
X04005Y02036*
X04001Y0204*
X03995Y02043*
G37*
G36*
X01736Y02034D02*
X01729D01*
X01724Y02031*
X01719Y02027*
X01717Y02021*
Y02015*
X01719Y02009*
X01724Y02005*
X01729Y02002*
X01736*
X01741Y02005*
X01746Y02009*
X01748Y02015*
Y02021*
X01746Y02027*
X01741Y02031*
X01736Y02034*
G37*
G36*
X01176Y02027D02*
X0117D01*
X01164Y02025*
X01159Y0202*
X01157Y02014*
Y02008*
X01159Y02002*
X01164Y01998*
X0117Y01996*
X01176*
X01182Y01998*
X01186Y02002*
X01188Y02008*
Y02014*
X01186Y0202*
X01182Y02025*
X01176Y02027*
G37*
G36*
X00656Y02023D02*
X0065D01*
X00644Y02021*
X0064Y02016*
X00637Y02011*
Y02004*
X0064Y01998*
X00644Y01994*
X0065Y01992*
X00656*
X00662Y01994*
X00666Y01998*
X00669Y02004*
Y02011*
X00666Y02016*
X00662Y02021*
X00656Y02023*
G37*
G36*
X02631Y02022D02*
X02625D01*
X02619Y02019*
X02614Y02015*
X02612Y02009*
Y02003*
X02614Y01997*
X02619Y01992*
X02625Y0199*
X02631*
X02637Y01992*
X02641Y01997*
X02644Y02003*
Y02009*
X02641Y02015*
X02637Y02019*
X02631Y02022*
G37*
G36*
X02198Y02021D02*
X02192D01*
X02186Y02019*
X02181Y02014*
X02179Y02009*
Y02002*
X02181Y01996*
X02186Y01992*
X02192Y0199*
X02198*
X02204Y01992*
X02208Y01996*
X02211Y02002*
Y02009*
X02208Y02014*
X02204Y02019*
X02198Y02021*
G37*
G36*
X02349Y02013D02*
X02342D01*
X02337Y02011*
X02332Y02006*
X0233Y02*
Y01994*
X02332Y01988*
X02337Y01984*
X02342Y01982*
X02349*
X02354Y01984*
X02359Y01988*
X02361Y01994*
Y02*
X02359Y02006*
X02354Y02011*
X02349Y02013*
G37*
G36*
X02476Y02012D02*
X0247D01*
X02464Y0201*
X02459Y02006*
X02457Y02*
Y01994*
X02459Y01988*
X02464Y01983*
X0247Y01981*
X02476*
X02481Y01983*
X02486Y01988*
X02488Y01994*
Y02*
X02486Y02006*
X02481Y0201*
X02476Y02012*
G37*
G36*
X03566Y02003D02*
X03559D01*
X03553Y02001*
X03549Y01997*
X03547Y01991*
Y01985*
X03549Y01979*
X03553Y01974*
X03559Y01972*
X03566*
X03572Y01974*
X03576Y01979*
X03578Y01985*
Y01991*
X03576Y01997*
X03572Y02001*
X03566Y02003*
G37*
G36*
X03455D02*
X03449D01*
X03443Y02001*
X03439Y01997*
X03437Y01991*
Y01985*
X03439Y01979*
X03443Y01974*
X03449Y01972*
X03455*
X03461Y01974*
X03466Y01979*
X03468Y01985*
Y01991*
X03466Y01997*
X03461Y02001*
X03455Y02003*
G37*
G36*
X03084Y01996D02*
Y01966D01*
X03114*
X03112Y01975*
X03107Y01983*
X03101Y01989*
X03093Y01994*
X03084Y01996*
G37*
G36*
X03074D02*
X03066Y01994D01*
X03058Y01989*
X03051Y01983*
X03047Y01975*
X03044Y01966*
X03074*
Y01996*
G37*
G36*
X02998D02*
Y01966D01*
X03027*
X03025Y01975*
X03021Y01983*
X03014Y01989*
X03006Y01994*
X02998Y01996*
G37*
G36*
X02988D02*
X02979Y01994D01*
X02971Y01989*
X02964Y01983*
X0296Y01975*
X02958Y01966*
X02988*
Y01996*
G37*
G36*
X01726Y01979D02*
X0172D01*
X01714Y01977*
X0171Y01972*
X01707Y01966*
Y01961*
X0171Y01955*
X01714Y0195*
X0172Y01948*
X01726*
X01732Y0195*
X01737Y01955*
X01739Y01961*
Y01966*
X01737Y01972*
X01732Y01977*
X01726Y01979*
G37*
G36*
X0356Y01962D02*
Y01946D01*
X03576*
X03573Y01953*
X03567Y01959*
X0356Y01962*
G37*
G36*
X0355D02*
X03542Y01959D01*
X03536Y01953*
X03533Y01946*
X0355*
Y01962*
G37*
G36*
X01613Y01976D02*
X01607D01*
X01601Y01974*
X01596Y01969*
X01594Y01963*
Y01957*
X01596Y01951*
X01601Y01947*
X01607Y01944*
X01613*
X01619Y01947*
X01623Y01951*
X01625Y01957*
Y01963*
X01623Y01969*
X01619Y01974*
X01613Y01976*
G37*
G36*
X03114Y01956D02*
X03044D01*
X03047Y01948*
X03048Y01945*
X03045Y0194*
X03043*
X03026*
X03024Y01945*
X03025Y01948*
X03027Y01956*
X02958*
X0296Y01948*
X02964Y0194*
X02971Y01933*
X02979Y01929*
X02983Y01927*
X02984Y01923*
X02954Y01893*
Y01851*
X02954Y01846*
Y01816*
X03048*
X03142*
Y01823*
X03147Y01825*
X03152Y01822*
X03161Y0182*
Y01855*
X03166*
Y0186*
X03201*
X03198Y01868*
X03194Y01876*
X03187Y01883*
X03179Y01887*
X03172Y0189*
X0317Y01892*
Y01895*
X03175Y01898*
X03182Y01904*
X03187Y01912*
X03189Y01921*
X03117*
X03115Y01919*
X03101Y01933*
X03107Y0194*
X03112Y01948*
X03114Y01956*
G37*
G36*
X03159Y01961D02*
Y01931D01*
X03189*
X03187Y01939*
X03182Y01947*
X03175Y01954*
X03168Y01958*
X03159Y01961*
G37*
G36*
X03149D02*
X0314Y01958D01*
X03133Y01954*
X03126Y01947*
X03122Y01939*
X03119Y01931*
X03149*
Y01961*
G37*
G36*
X03576Y01935D02*
X0356D01*
Y01919*
X03567Y01922*
X03573Y01928*
X03576Y01935*
G37*
G36*
X0355D02*
X03533D01*
X03536Y01928*
X03542Y01922*
X0355Y01919*
Y01935*
G37*
G36*
X01729Y01915D02*
Y01898D01*
X01746*
X01742Y01905*
X01736Y01912*
X01729Y01915*
G37*
G36*
X01719D02*
X01712Y01912D01*
X01705Y01905*
X01702Y01898*
X01719*
Y01915*
G37*
G36*
X02439Y01907D02*
X02433D01*
X02427Y01905*
X02423Y019*
X0242Y01894*
Y01888*
X02423Y01882*
X02427Y01878*
X02433Y01875*
X02439*
X02445Y01878*
X0245Y01882*
X02452Y01888*
Y01894*
X0245Y019*
X02445Y01905*
X02439Y01907*
G37*
G36*
X0213D02*
X02124D01*
X02118Y01905*
X02114Y019*
X02111Y01894*
Y01888*
X02114Y01882*
X02118Y01878*
X02124Y01875*
X0213*
X02136Y01878*
X0214Y01882*
X02142Y01888*
Y01894*
X0214Y019*
X02136Y01905*
X0213Y01907*
G37*
G36*
X01911Y0193D02*
X01904D01*
X01898Y01927*
X01894Y01923*
X01892Y01917*
Y01911*
X01894Y01905*
X01898Y01901*
X01904Y01898*
X01911*
X01914Y019*
X01917Y01896*
X01917Y01894*
Y01888*
X01919Y01882*
X01924Y01878*
X01929Y01875*
X01936*
X01941Y01878*
X01946Y01882*
X01948Y01888*
Y01894*
X01946Y019*
X01941Y01905*
X01936Y01907*
X01929*
X01926Y01906*
X01922Y01909*
X01923Y01911*
Y01917*
X0192Y01923*
X01916Y01927*
X01911Y0193*
G37*
G36*
X01746Y01888D02*
X01729D01*
Y01872*
X01736Y01875*
X01742Y01881*
X01746Y01888*
G37*
G36*
X01719D02*
X01702D01*
X01705Y01881*
X01712Y01875*
X01719Y01872*
Y01888*
G37*
G36*
X02625Y01896D02*
X02619D01*
X02613Y01894*
X02609Y01889*
X02606Y01883*
Y01877*
X02609Y01871*
X02613Y01867*
X02619Y01864*
X02625*
X02631Y01867*
X02635Y01871*
X02638Y01877*
Y01883*
X02635Y01889*
X02631Y01894*
X02625Y01896*
G37*
G36*
X03977Y01872D02*
Y01855D01*
X03994*
X0399Y01862*
X03984Y01868*
X03977Y01872*
G37*
G36*
X03967D02*
X0396Y01868D01*
X03953Y01862*
X0395Y01855*
X03967*
Y01872*
G37*
G36*
X02274Y01885D02*
X02268D01*
X02262Y01882*
X02258Y01878*
X02255Y01872*
Y01866*
X02258Y0186*
X02262Y01855*
X02268Y01853*
X02274*
X0228Y01855*
X02285Y0186*
X02287Y01866*
Y01872*
X02285Y01878*
X0228Y01882*
X02274Y01885*
G37*
G36*
X02161Y01881D02*
X02155D01*
X02149Y01878*
X02145Y01874*
X02142Y01868*
Y01862*
X02145Y01856*
X02149Y01851*
X02155Y01849*
X02161*
X02167Y01851*
X02171Y01856*
X02174Y01862*
Y01868*
X02171Y01874*
X02167Y01878*
X02161Y01881*
G37*
G36*
X03994Y01845D02*
X03977D01*
Y01828*
X03984Y01831*
X0399Y01838*
X03994Y01845*
G37*
G36*
X03967D02*
X0395D01*
X03953Y01838*
X0396Y01831*
X03967Y01828*
Y01845*
G37*
G36*
X03201Y0185D02*
X03171D01*
Y0182*
X03179Y01822*
X03187Y01827*
X03194Y01833*
X03198Y01841*
X03201Y0185*
G37*
G36*
X03161Y01811D02*
X03152Y01809D01*
X03147Y01805*
X03145Y01807*
X03048*
X02954*
Y01777*
X02954Y01772*
Y0173*
X03001Y01683*
X03002*
X03003Y01678*
X03003*
X02996Y01672*
X02992Y01664*
X02989Y01655*
X03024*
Y0165*
X03029*
Y01615*
X03038Y01618*
X03046Y01622*
X03052Y01629*
X03057Y01637*
X03057Y01638*
X03062Y01638*
X03063Y01637*
X0307Y0163*
X03077Y01625*
X03086Y01623*
Y01658*
X03091*
Y01663*
X03126*
X03124Y01671*
Y01672*
X03129Y01673*
X03133Y01669*
X0314Y01665*
X03149Y01662*
Y01697*
Y01732*
X03145Y01731*
X03141Y01734*
Y01745*
X03146Y01747*
X03152Y01744*
X03161Y01741*
Y01776*
Y01811*
G37*
G36*
X01961Y01809D02*
Y01792D01*
X01978*
X01975Y01799*
X01968Y01805*
X01961Y01809*
G37*
G36*
X01951D02*
X01944Y01805D01*
X01938Y01799*
X01935Y01792*
X01951*
Y01809*
G37*
G36*
X03171Y01811D02*
Y01781D01*
X03201*
X03198Y0179*
X03194Y01798*
X03187Y01804*
X03179Y01809*
X03171Y01811*
G37*
G36*
X01912Y01803D02*
X01905D01*
X019Y018*
X01895Y01796*
X01893Y0179*
Y01784*
X01895Y01778*
X019Y01774*
X01905Y01771*
X01912*
X01918Y01774*
X01922Y01778*
X01924Y01784*
Y0179*
X01922Y01796*
X01918Y018*
X01912Y01803*
G37*
G36*
X02079Y01785D02*
Y01768D01*
X02096*
X02093Y01775*
X02087Y01782*
X02079Y01785*
G37*
G36*
X02069D02*
X02062Y01782D01*
X02056Y01775*
X02053Y01768*
X02069*
Y01785*
G37*
G36*
X01978Y01782D02*
X01961D01*
Y01765*
X01968Y01768*
X01975Y01775*
X01978Y01782*
G37*
G36*
X01951D02*
X01935D01*
X01938Y01775*
X01944Y01768*
X01951Y01765*
Y01782*
G37*
G36*
X01709Y01785D02*
X01703D01*
X01697Y01783*
X01693Y01778*
X0169Y01772*
Y01766*
X01693Y0176*
X01697Y01756*
X01703Y01753*
X01709*
X01715Y01756*
X0172Y0176*
X01722Y01766*
Y01772*
X0172Y01778*
X01715Y01783*
X01709Y01785*
G37*
G36*
X03654Y01769D02*
Y01753D01*
X03671*
X03668Y0176*
X03661Y01766*
X03654Y01769*
G37*
G36*
X03644D02*
X03637Y01766D01*
X03631Y0176*
X03627Y01753*
X03644*
Y01769*
G37*
G36*
X02096Y01758D02*
X02079D01*
Y01742*
X02087Y01745*
X02093Y01751*
X02096Y01758*
G37*
G36*
X02069D02*
X02053D01*
X02056Y01751*
X02062Y01745*
X02069Y01742*
Y01758*
G37*
G36*
X03201Y01771D02*
X03171D01*
Y01741*
X03179Y01744*
X03187Y01748*
X03194Y01755*
X03198Y01762*
X03201Y01771*
G37*
G36*
X03811Y01746D02*
Y01729D01*
X03827*
X03824Y01736*
X03818Y01742*
X03811Y01746*
G37*
G36*
X03801D02*
X03793Y01742D01*
X03787Y01736*
X03784Y01729*
X03801*
Y01746*
G37*
G36*
X03671Y01742D02*
X03654D01*
Y01726*
X03661Y01729*
X03668Y01735*
X03671Y01742*
G37*
G36*
X03644D02*
X03627D01*
X03631Y01735*
X03637Y01729*
X03644Y01726*
Y01742*
G37*
G36*
X0167Y01755D02*
X01664D01*
X01658Y01753*
X01653Y01749*
X01651Y01743*
Y01737*
X01653Y01731*
X01658Y01726*
X01664Y01724*
X0167*
X01676Y01726*
X0168Y01731*
X01683Y01737*
Y01743*
X0168Y01749*
X01676Y01753*
X0167Y01755*
G37*
G36*
X02589Y0175D02*
X02583D01*
X02577Y01747*
X02573Y01743*
X0257Y01737*
Y01731*
X02573Y01725*
X02577Y0172*
X02583Y01718*
X02589*
X02595Y0172*
X026Y01725*
X02602Y01731*
Y01737*
X026Y01743*
X02595Y01747*
X02589Y0175*
G37*
G36*
X03827Y01719D02*
X03811D01*
Y01702*
X03818Y01705*
X03824Y01712*
X03827Y01719*
G37*
G36*
X03801D02*
X03784D01*
X03787Y01712*
X03793Y01705*
X03801Y01702*
Y01719*
G37*
G36*
X03159Y01732D02*
Y01702D01*
X03189*
X03187Y01711*
X03182Y01719*
X03175Y01725*
X03168Y0173*
X03159Y01732*
G37*
G36*
X00066Y01716D02*
X00059D01*
X00053Y01714*
X00049Y01709*
X00047Y01703*
Y01697*
X00049Y01691*
X00053Y01687*
X00059Y01685*
X00066*
X00072Y01687*
X00076Y01691*
X00078Y01697*
Y01703*
X00076Y01709*
X00072Y01714*
X00066Y01716*
G37*
G36*
X01904Y01712D02*
X01898D01*
X01892Y0171*
X01887Y01706*
X01885Y017*
Y01694*
X01887Y01688*
X01892Y01683*
X01898Y01681*
X01904*
X0191Y01683*
X01914Y01688*
X01916Y01694*
Y017*
X01914Y01706*
X0191Y0171*
X01904Y01712*
G37*
G36*
X01814Y01712D02*
X01807D01*
X01801Y0171*
X01797Y01705*
X01795Y017*
Y01693*
X01797Y01687*
X01801Y01683*
X01807Y01681*
X01814*
X0182Y01683*
X01824Y01687*
X01826Y01693*
Y017*
X01824Y01705*
X0182Y0171*
X01814Y01712*
G37*
G36*
X02516Y01683D02*
Y01666D01*
X02533*
X0253Y01673*
X02524Y01679*
X02516Y01683*
G37*
G36*
X02506D02*
X02499Y01679D01*
X02493Y01673*
X0249Y01666*
X02506*
Y01683*
G37*
G36*
X03189Y01692D02*
X03159D01*
Y01662*
X03168Y01665*
X03175Y01669*
X03182Y01676*
X03187Y01684*
X03189Y01692*
G37*
G36*
X02472Y01687D02*
X02466D01*
X0246Y01684*
X02456Y0168*
X02453Y01674*
Y01668*
X02456Y01662*
X0246Y01657*
X02466Y01655*
X02472*
X02478Y01657*
X02482Y01662*
X02485Y01668*
Y01674*
X02482Y0168*
X02478Y01684*
X02472Y01687*
G37*
G36*
X03745Y01659D02*
Y01642D01*
X03761*
X03758Y0165*
X03752Y01656*
X03745Y01659*
G37*
G36*
X03735D02*
X03727Y01656D01*
X03721Y0165*
X03718Y01642*
X03735*
Y01659*
G37*
G36*
X02533Y01656D02*
X02516D01*
Y01639*
X02524Y01642*
X0253Y01649*
X02533Y01656*
G37*
G36*
X02506D02*
X0249D01*
X02493Y01649*
X02499Y01642*
X02506Y01639*
Y01656*
G37*
G36*
X03126Y01653D02*
X03096D01*
Y01623*
X03105Y01625*
X03112Y0163*
X03119Y01637*
X03124Y01644*
X03126Y01653*
G37*
G36*
X03761Y01632D02*
X03745D01*
Y01616*
X03752Y01619*
X03758Y01625*
X03761Y01632*
G37*
G36*
X03735D02*
X03718D01*
X03721Y01625*
X03727Y01619*
X03735Y01616*
Y01632*
G37*
G36*
X03019Y01645D02*
X02989D01*
X02992Y01637*
X02996Y01629*
X03003Y01622*
X03011Y01618*
X03019Y01615*
Y01645*
G37*
G36*
X00613Y01598D02*
Y01581D01*
X00629*
X00626Y01588*
X0062Y01595*
X00613Y01598*
G37*
G36*
X00603D02*
X00596Y01595D01*
X00589Y01588*
X00586Y01581*
X00603*
Y01598*
G37*
G36*
X01585Y01588D02*
X01578Y01585D01*
X01572Y01579*
X01568Y01572*
X01585*
Y01588*
G37*
G36*
X01711Y01594D02*
X01705D01*
X01699Y01592*
X01695Y01587*
X01692Y01581*
Y01575*
X01695Y01569*
X01699Y01565*
X01705Y01562*
X01711*
X01717Y01565*
X01722Y01569*
X01724Y01575*
Y01581*
X01722Y01587*
X01717Y01592*
X01711Y01594*
G37*
G36*
X02007Y01589D02*
X02001D01*
X01995Y01587*
X0199Y01582*
X01988Y01576*
Y0157*
X0199Y01564*
X01995Y0156*
X02001Y01557*
X02007*
X02013Y0156*
X02017Y01564*
X0202Y0157*
Y01576*
X02017Y01582*
X02013Y01587*
X02007Y01589*
G37*
G36*
X00629Y01571D02*
X00613D01*
Y01555*
X0062Y01558*
X00626Y01564*
X00629Y01571*
G37*
G36*
X00603D02*
X00586D01*
X00589Y01564*
X00596Y01558*
X00603Y01555*
Y01571*
G37*
G36*
X02718Y01565D02*
Y01549D01*
X02735*
X02731Y01556*
X02725Y01562*
X02718Y01565*
G37*
G36*
X02708D02*
X02701Y01562D01*
X02695Y01556*
X02692Y01549*
X02708*
Y01565*
G37*
G36*
X01585Y01561D02*
X01568D01*
X01572Y01554*
X01578Y01548*
X01585Y01545*
Y01561*
G37*
G36*
X03963Y01596D02*
X03955D01*
X03948Y01594*
X03942Y0159*
X03937Y01585*
X03933Y01579*
X03932Y01572*
Y01565*
X03933Y01558*
X03937Y01551*
X03942Y01546*
X03948Y01543*
X03955Y01541*
X03963*
X0397Y01543*
X03976Y01546*
X03981Y01551*
X03985Y01558*
X03987Y01565*
Y01572*
X03985Y01579*
X03981Y01585*
X03976Y0159*
X0397Y01594*
X03963Y01596*
G37*
G36*
X01595Y01588D02*
Y01566D01*
Y01545*
X01602Y01548*
X01609Y01554*
X01614Y01553*
Y01551*
X01616Y01546*
X0162Y01541*
X01626Y01539*
X01633*
X01638Y01541*
X01643Y01546*
X01645Y01551*
Y01558*
X01643Y01564*
X01638Y01568*
X01633Y0157*
X01626*
X0162Y01568*
X01617Y01564*
X01613Y01565*
X01612Y01566*
Y01571*
X01609Y01579*
X01602Y01585*
X01595Y01588*
G37*
G36*
X02735Y01539D02*
X02718D01*
Y01522*
X02725Y01525*
X02731Y01531*
X02735Y01539*
G37*
G36*
X02708D02*
X02692D01*
X02695Y01531*
X02701Y01525*
X02708Y01522*
Y01539*
G37*
G36*
X01684Y01519D02*
X01677D01*
X01672Y01517*
X01667Y01512*
X01666Y01508*
X0166*
X01659Y01512*
X01654Y01517*
X01648Y01519*
X01642*
X01636Y01517*
X01632Y01512*
X01629Y01507*
Y015*
X01632Y01494*
X01636Y0149*
X01642Y01488*
X01648*
X01654Y0149*
X01659Y01494*
X0166Y01499*
X01666*
X01667Y01494*
X01672Y0149*
X01677Y01488*
X01684*
X0169Y0149*
X01694Y01494*
X01696Y015*
Y01507*
X01694Y01512*
X0169Y01517*
X01684Y01519*
G37*
G36*
X03993Y01523D02*
X03964D01*
Y01495*
X03993*
Y01523*
G37*
G36*
X03954D02*
X03925D01*
Y01495*
X03954*
Y01523*
G37*
G36*
X00896D02*
X0089D01*
X00884Y01521*
X0088Y01516*
X00877Y01511*
Y01504*
X0088Y01498*
X00884Y01494*
X0089Y01492*
X00896*
X00902Y01494*
X00907Y01498*
X00909Y01504*
Y01511*
X00907Y01516*
X00902Y01521*
X00896Y01523*
G37*
G36*
X00491Y01517D02*
X00485D01*
X00479Y01515*
X00474Y01511*
X00472Y01505*
Y01498*
X00474Y01492*
X00479Y01488*
X00485Y01486*
X00491*
X00497Y01488*
X00501Y01492*
X00503Y01498*
Y01505*
X00501Y01511*
X00497Y01515*
X00491Y01517*
G37*
G36*
X02723Y01516D02*
X02717D01*
X02711Y01514*
X02707Y01509*
X02704Y01503*
Y01498*
X02707Y01492*
X02711Y01487*
X02717Y01485*
X02723*
X02729Y01487*
X02733Y01492*
X02736Y01498*
Y01503*
X02733Y01509*
X02729Y01514*
X02723Y01516*
G37*
G36*
X00434Y01498D02*
Y01481D01*
X0045*
X00447Y01488*
X00441Y01494*
X00434Y01498*
G37*
G36*
X00424D02*
X00416Y01494D01*
X0041Y01488*
X00407Y01481*
X00424*
Y01498*
G37*
G36*
X00322Y01512D02*
X00315D01*
X00309Y0151*
X00305Y01505*
X00303Y015*
Y01493*
X00305Y01487*
X00309Y01483*
X00315Y01481*
X00322*
X00327Y01483*
X00332Y01487*
X00334Y01493*
Y015*
X00332Y01505*
X00327Y0151*
X00322Y01512*
G37*
G36*
X01766Y01495D02*
X01761D01*
X01755Y01493*
X0175Y01488*
X01748Y01483*
Y01476*
X0175Y0147*
X01755Y01466*
X01761Y01464*
X01766*
X01772Y01466*
X01777Y0147*
X01779Y01476*
Y01483*
X01777Y01488*
X01772Y01493*
X01766Y01495*
G37*
G36*
X03993Y01485D02*
X03964D01*
Y01456*
X03993*
Y01485*
G37*
G36*
X03954D02*
X03925D01*
Y01456*
X03954*
Y01485*
G37*
G36*
X0072Y01483D02*
X00714D01*
X00708Y01481*
X00704Y01477*
X00701Y01471*
Y01464*
X00704Y01459*
X00708Y01454*
X00714Y01452*
X0072*
X00726Y01454*
X00731Y01459*
X00733Y01464*
Y01471*
X00731Y01477*
X00726Y01481*
X0072Y01483*
G37*
G36*
X01329Y0148D02*
X01323D01*
X01317Y01477*
X01313Y01473*
X01311Y01467*
Y01461*
X01313Y01455*
X01317Y01451*
X01323Y01448*
X01329*
X01335Y01451*
X0134Y01455*
X01342Y01461*
Y01467*
X0134Y01473*
X01335Y01477*
X01329Y0148*
G37*
G36*
X0045Y01471D02*
X00407D01*
X0041Y01464*
X00416Y01457*
X00417Y01452*
X00414Y01449*
X00411Y01442*
X00454*
X00451Y01449*
X00445Y01455*
X00444Y01461*
X00447Y01464*
X0045Y01471*
G37*
G36*
X01744Y01466D02*
X01738D01*
X01732Y01464*
X01727Y01459*
X01725Y01453*
Y01447*
X01727Y01441*
X01732Y01437*
X01738Y01435*
X01744*
X0175Y01437*
X01754Y01441*
X01757Y01447*
Y01453*
X01754Y01459*
X0175Y01464*
X01744Y01466*
G37*
G36*
X03005Y01448D02*
Y01432D01*
X03021*
X03018Y01439*
X03012Y01445*
X03005Y01448*
G37*
G36*
X02994D02*
X02987Y01445D01*
X02981Y01439*
X02978Y01432*
X02994*
Y01448*
G37*
G36*
X02542Y01459D02*
X02536D01*
X0253Y01457*
X02525Y01452*
X02523Y01446*
Y0144*
X02525Y01435*
X0253Y0143*
X02536Y01428*
X02542*
X02548Y0143*
X02552Y01435*
X02555Y0144*
Y01446*
X02552Y01452*
X02548Y01457*
X02542Y01459*
G37*
G36*
X01833D02*
X01827D01*
X01821Y01457*
X01817Y01452*
X01814Y01446*
Y0144*
X01817Y01435*
X01821Y0143*
X01827Y01428*
X01833*
X01839Y0143*
X01844Y01435*
X01846Y0144*
Y01446*
X01844Y01452*
X01839Y01457*
X01833Y01459*
G37*
G36*
X00454Y01431D02*
X00438D01*
Y01415*
X00445Y01418*
X00451Y01424*
X00454Y01431*
G37*
G36*
X00427D02*
X00411D01*
X00414Y01424*
X0042Y01418*
X00427Y01415*
Y01431*
G37*
G36*
X01715Y01429D02*
X01709D01*
X01703Y01426*
X01698Y01422*
X01696Y01416*
Y0141*
X01698Y01404*
X01703Y014*
X01709Y01398*
X01715*
X0172Y014*
X01725Y01404*
X01727Y0141*
Y01416*
X01725Y01422*
X0172Y01426*
X01715Y01429*
G37*
G36*
X00887Y01407D02*
Y0139D01*
X00903*
X009Y01398*
X00894Y01404*
X00887Y01407*
G37*
G36*
X00876D02*
X00869Y01404D01*
X00863Y01398*
X0086Y0139*
X00876*
Y01407*
G37*
G36*
X01787Y01412D02*
X01781D01*
X01775Y01409*
X01771Y01405*
X01768Y01399*
Y01393*
X01771Y01387*
X01775Y01383*
X01781Y01381*
X01787*
X01793Y01383*
X01797Y01387*
X018Y01393*
Y01399*
X01797Y01405*
X01793Y01409*
X01787Y01412*
G37*
G36*
X01266Y01405D02*
X0126D01*
X01254Y01403*
X0125Y01398*
X01248Y01392*
Y01386*
X0125Y0138*
X01254Y01376*
X0126Y01374*
X01266*
X01272Y01376*
X01277Y0138*
X01279Y01386*
Y01392*
X01277Y01398*
X01272Y01403*
X01266Y01405*
G37*
G36*
X00106Y01401D02*
X001D01*
X00094Y01399*
X0009Y01394*
X00087Y01388*
Y01382*
X0009Y01376*
X00094Y01372*
X001Y0137*
X00106*
X00112Y01372*
X00116Y01376*
X00119Y01382*
Y01388*
X00116Y01394*
X00112Y01399*
X00106Y01401*
G37*
G36*
X02068Y014D02*
X02062D01*
X02057Y01398*
X02052Y01393*
X0205Y01387*
Y01381*
X02052Y01375*
X02057Y01371*
X02062Y01369*
X02068*
X02074Y01371*
X02079Y01375*
X02081Y01381*
Y01387*
X02079Y01393*
X02074Y01398*
X02068Y014*
G37*
G36*
X00903Y0138D02*
X00887D01*
Y01364*
X00894Y01367*
X009Y01373*
X00903Y0138*
G37*
G36*
X00876D02*
X0086D01*
X00863Y01373*
X00869Y01367*
X00876Y01364*
Y0138*
G37*
G36*
X01725Y01386D02*
X01719D01*
X01713Y01384*
X01709Y01379*
X01707Y01374*
Y01367*
X01709Y01361*
X01713Y01357*
X01719Y01355*
X01725*
X01731Y01357*
X01736Y01361*
X01738Y01367*
Y01374*
X01736Y01379*
X01731Y01384*
X01725Y01386*
G37*
G36*
X02736Y01383D02*
X0273D01*
X02724Y01381*
X0272Y01377*
X02717Y01371*
Y01364*
X0272Y01359*
X02724Y01354*
X0273Y01352*
X02736*
X02742Y01354*
X02746Y01359*
X02748Y01364*
Y01371*
X02746Y01377*
X02742Y01381*
X02736Y01383*
G37*
G36*
X01591Y01368D02*
Y01351D01*
X01608*
X01605Y01358*
X01598Y01364*
X01591Y01368*
G37*
G36*
X01581D02*
X01574Y01364D01*
X01568Y01358*
X01564Y01351*
X01581*
Y01368*
G37*
G36*
X01298Y01379D02*
X01292D01*
X01286Y01377*
X01281Y01373*
X01279Y01367*
Y01361*
X01281Y01355*
X01286Y0135*
X01292Y01348*
X01298*
X01304Y0135*
X01308Y01355*
X01311Y01361*
Y01367*
X01308Y01373*
X01304Y01377*
X01298Y01379*
G37*
G36*
X01862Y01377D02*
X01856D01*
X0185Y01375*
X01846Y0137*
X01843Y01365*
Y01359*
X01846Y01353*
X0185Y01348*
X01856Y01346*
X01862*
X01868Y01348*
X01872Y01353*
X01875Y01359*
Y01365*
X01872Y0137*
X01868Y01375*
X01862Y01377*
G37*
G36*
X02119Y0137D02*
X02112D01*
X02107Y01368*
X02102Y01364*
X021Y01358*
Y01351*
X02102Y01346*
X02107Y01341*
X02112Y01339*
X02119*
X02124Y01341*
X02129Y01346*
X02131Y01351*
Y01358*
X02129Y01364*
X02124Y01368*
X02119Y0137*
G37*
G36*
X02483Y01354D02*
Y01338D01*
X02499*
X02496Y01345*
X0249Y01351*
X02483Y01354*
G37*
G36*
X02472D02*
X02465Y01351D01*
X02459Y01345*
X02456Y01338*
X02472*
Y01354*
G37*
G36*
X01176Y01366D02*
X0117D01*
X01164Y01363*
X01159Y01359*
X01157Y01353*
Y01347*
X01159Y01341*
X01164Y01337*
X0117Y01334*
X01176*
X01182Y01337*
X01186Y01341*
X01188Y01347*
Y01353*
X01186Y01359*
X01182Y01363*
X01176Y01366*
G37*
G36*
X00524Y01344D02*
Y01327D01*
X00541*
X00538Y01335*
X00531Y01341*
X00524Y01344*
G37*
G36*
X00514D02*
X00507Y01341D01*
X00501Y01335*
X00498Y01327*
X00492Y01325*
X00488Y01329*
X00481Y01332*
Y01311*
Y01289*
X00488Y01292*
X00494Y01298*
X00498Y01306*
X00503Y01308*
X00507Y01304*
X00514Y01301*
Y01322*
Y01344*
G37*
G36*
X01608Y01341D02*
X01591D01*
Y01324*
X01598Y01327*
X01605Y01334*
X01608Y01341*
G37*
G36*
X01581D02*
X01564D01*
X01568Y01334*
X01574Y01327*
X01581Y01324*
Y01341*
G37*
G36*
X00682Y0134D02*
Y01324D01*
X00698*
X00695Y01331*
X00689Y01337*
X00682Y0134*
G37*
G36*
X00672D02*
X00664Y01337D01*
X00658Y01331*
X00655Y01324*
X00672*
Y0134*
G37*
G36*
X00615D02*
Y01324D01*
X00631*
X00628Y01331*
X00622Y01337*
X00615Y0134*
G37*
G36*
X00605D02*
X00598Y01337D01*
X00591Y01331*
X00588Y01324*
X00605*
Y0134*
G37*
G36*
X01324Y01336D02*
Y0132D01*
X0134*
X01337Y01327*
X01331Y01333*
X01324Y01336*
G37*
G36*
X01313D02*
X01306Y01333D01*
X013Y01327*
X01297Y0132*
X01313*
Y01336*
G37*
G36*
X00471Y01332D02*
X00464Y01329D01*
X00457Y01323*
X00454Y01316*
X00471*
Y01332*
G37*
G36*
X02499Y01327D02*
X02483D01*
Y01311*
X0249Y01314*
X02496Y0132*
X02499Y01327*
G37*
G36*
X02472D02*
X02456D01*
X02459Y0132*
X02465Y01314*
X02472Y01311*
Y01327*
G37*
G36*
X02095Y01342D02*
X02089D01*
X02083Y0134*
X02079Y01335*
X02076Y01329*
Y01323*
X02079Y01317*
X02083Y01313*
X02089Y01311*
X02095*
X02101Y01313*
X02105Y01317*
X02108Y01323*
Y01329*
X02105Y01335*
X02101Y0134*
X02095Y01342*
G37*
G36*
X00867Y01324D02*
Y01308D01*
X00883*
X0088Y01315*
X00874Y01321*
X00867Y01324*
G37*
G36*
X00857D02*
X0085Y01321D01*
X00843Y01315*
X0084Y01308*
X00857*
Y01324*
G37*
G36*
X003D02*
Y01308D01*
X00316*
X00313Y01315*
X00307Y01321*
X003Y01324*
G37*
G36*
X0029D02*
X00283Y01321D01*
X00276Y01315*
X00273Y01308*
X0029*
Y01324*
G37*
G36*
X00672Y01313D02*
X00655D01*
X00656Y01311*
X00652Y01308*
X0065Y01309*
Y01292*
X00667*
X00666Y01294*
X0067Y01298*
X00672Y01297*
Y01313*
G37*
G36*
X02438Y01323D02*
Y01307D01*
X02455*
X02452Y01314*
X02446Y0132*
X02438Y01323*
G37*
G36*
X02429D02*
X02421Y0132D01*
X02415Y01314*
X02412Y01307*
X02429*
Y01323*
G37*
G36*
X02864Y01335D02*
X02858D01*
X02852Y01333*
X02848Y01328*
X02845Y01322*
Y01316*
X02848Y01311*
X02852Y01306*
X02858Y01303*
X02864*
X0287Y01306*
X02874Y01311*
X02876Y01316*
Y01322*
X02874Y01328*
X0287Y01333*
X02864Y01335*
G37*
G36*
X00541Y01317D02*
X00524D01*
Y01301*
X00531Y01304*
X00538Y0131*
X00541Y01317*
G37*
G36*
X00698Y01313D02*
X00682D01*
Y01297*
X00689Y013*
X00695Y01306*
X00698Y01313*
G37*
G36*
X00605D02*
X00588D01*
X00591Y01306*
X00598Y013*
X00605Y01297*
Y01313*
G37*
G36*
X0134Y01309D02*
X01324D01*
Y01293*
X01331Y01296*
X01337Y01302*
X0134Y01309*
G37*
G36*
X01313D02*
X01297D01*
X013Y01302*
X01306Y01296*
X01313Y01293*
Y01309*
G37*
G36*
X00631Y01313D02*
X00615D01*
Y01297*
X00622Y013*
X00624Y01298*
X00625Y01296*
X00624Y01292*
X0064*
Y01309*
X00633Y01306*
X00631Y01307*
X00629Y01309*
X00631Y01313*
G37*
G36*
X01621Y01322D02*
X01614D01*
X01609Y0132*
X01604Y01316*
X01602Y0131*
Y01303*
X01604Y01298*
X01609Y01293*
X01614Y01291*
X01621*
X01627Y01293*
X01631Y01298*
X01633Y01303*
Y0131*
X01631Y01316*
X01627Y0132*
X01621Y01322*
G37*
G36*
X00471Y01305D02*
X00454D01*
X00457Y01298*
X00464Y01292*
X00471Y01289*
Y01305*
G37*
G36*
X0223Y0132D02*
X02224D01*
X02218Y01318*
X02214Y01314*
X02211Y01308*
Y01301*
X02214Y01296*
X02218Y01291*
X02224Y01289*
X0223*
X02236Y01291*
X0224Y01296*
X02243Y01301*
Y01308*
X0224Y01314*
X02236Y01318*
X0223Y0132*
G37*
G36*
X00883Y01298D02*
X00867D01*
Y01281*
X00874Y01284*
X0088Y0129*
X00883Y01298*
G37*
G36*
X00857D02*
X0084D01*
X00843Y0129*
X0085Y01284*
X00857Y01281*
Y01298*
G37*
G36*
X00316D02*
X003D01*
Y01281*
X00307Y01284*
X00313Y0129*
X00316Y01298*
G37*
G36*
X0029D02*
X00273D01*
X00276Y0129*
X00283Y01284*
X0029Y01281*
Y01298*
G37*
G36*
X02455Y01297D02*
X02438D01*
Y0128*
X02446Y01283*
X02452Y01289*
X02455Y01297*
G37*
G36*
X02429D02*
X02412D01*
X02415Y01289*
X02421Y01283*
X02429Y0128*
Y01297*
G37*
G36*
X00587D02*
Y0128D01*
X00604*
X00601Y01287*
X00594Y01294*
X00587Y01297*
G37*
G36*
X00577D02*
X0057Y01294D01*
X00564Y01287*
X00561Y0128*
X00577*
Y01297*
G37*
G36*
X0142Y01307D02*
X01414D01*
X01408Y01304*
X01403Y013*
X01401Y01294*
Y01288*
X01403Y01282*
X01408Y01277*
X01414Y01275*
X0142*
X01426Y01277*
X0143Y01282*
X01433Y01288*
Y01294*
X0143Y013*
X01426Y01304*
X0142Y01307*
G37*
G36*
X027Y01299D02*
X02694D01*
X02688Y01296*
X02684Y01292*
X02681Y01286*
Y0128*
X02684Y01274*
X02688Y0127*
X02694Y01267*
X027*
X02706Y0127*
X02711Y01274*
X02713Y0128*
Y01286*
X02711Y01292*
X02706Y01296*
X027Y01299*
G37*
G36*
X00667Y01282D02*
X0065D01*
Y01265*
X00657Y01268*
X00664Y01275*
X00667Y01282*
G37*
G36*
X0064D02*
X00624D01*
X00627Y01275*
X00633Y01268*
X0064Y01265*
Y01282*
G37*
G36*
X02011Y01296D02*
X02005D01*
X02Y01293*
X01995Y01289*
X01992Y01283*
Y01277*
X01995Y01271*
X02Y01267*
X02005Y01264*
X02011*
X02017Y01267*
X02022Y01271*
X02024Y01277*
Y01283*
X02022Y01289*
X02017Y01293*
X02011Y01296*
G37*
G36*
X00604Y0127D02*
X00587D01*
Y01253*
X00594Y01257*
X00601Y01263*
X00604Y0127*
G37*
G36*
X00577D02*
X00561D01*
X00564Y01263*
X0057Y01257*
X00577Y01253*
Y0127*
G37*
G36*
X00867Y01261D02*
Y01245D01*
X00883*
X0088Y01252*
X00874Y01258*
X00867Y01261*
G37*
G36*
X00857D02*
X0085Y01258D01*
X00843Y01252*
X0084Y01245*
X00857*
Y01261*
G37*
G36*
X003Y01257D02*
Y01241D01*
X00316*
X00313Y01248*
X00307Y01254*
X003Y01257*
G37*
G36*
X0029D02*
X00283Y01254D01*
X00276Y01248*
X00273Y01241*
X0029*
Y01257*
G37*
G36*
X01259Y01267D02*
X01252D01*
X01246Y01265*
X01242Y01261*
X0124Y01255*
Y01248*
X01242Y01242*
X01246Y01238*
X01252Y01236*
X01259*
X01264Y01238*
X01269Y01242*
X01271Y01248*
Y01255*
X01269Y01261*
X01264Y01265*
X01259Y01267*
G37*
G36*
X02734Y01257D02*
X02728D01*
X02722Y01255*
X02718Y0125*
X02715Y01244*
Y01238*
X02718Y01233*
X02721Y01229*
X02722Y01228*
X02725Y01227*
X02724Y01222*
X02719*
X02713Y0122*
X02709Y01215*
X02706Y01209*
Y01203*
X02709Y01197*
X02713Y01193*
X02719Y0119*
X02725*
X02731Y01193*
X02735Y01197*
X02738Y01203*
Y01209*
X02735Y01215*
X02732Y01218*
X02731Y0122*
X02728Y01221*
X02729Y01225*
X02729*
X02734*
X0274Y01228*
X02744Y01233*
X02747Y01238*
Y01244*
X02744Y0125*
X0274Y01255*
X02734Y01257*
G37*
G36*
X00883Y01235D02*
X00867D01*
Y01218*
X00874Y01221*
X0088Y01227*
X00883Y01235*
G37*
G36*
X00857D02*
X0084D01*
X00843Y01227*
X0085Y01221*
X00857Y01218*
Y01235*
G37*
G36*
X02629Y01283D02*
X02623D01*
X02618Y01281*
X02613Y01276*
X02611Y0127*
Y01264*
X02613Y01258*
X02618Y01254*
X02616Y01249*
X02614*
X02608Y01246*
X02604Y01242*
X02601Y01236*
Y0123*
X02604Y01224*
X02608Y0122*
X02614Y01217*
X0262*
X02626Y0122*
X02631Y01224*
X02633Y0123*
Y01236*
X02631Y01242*
X02626Y01246*
Y01247*
X02627Y01251*
X02629*
X02635Y01254*
X0264Y01258*
X02642Y01264*
Y0127*
X0264Y01276*
X02635Y01281*
X02629Y01283*
G37*
G36*
X00316Y01231D02*
X003D01*
Y01214*
X00307Y01217*
X00313Y01224*
X00316Y01231*
G37*
G36*
X0029D02*
X00273D01*
X00276Y01224*
X00283Y01217*
X0029Y01214*
Y01231*
G37*
G36*
X02581Y01244D02*
X02575D01*
X02569Y01242*
X02564Y01237*
X02562Y01231*
Y01225*
X02564Y01219*
X02569Y01215*
X02575Y01212*
X02581*
X02587Y01215*
X02591Y01219*
X02594Y01225*
Y01231*
X02591Y01237*
X02587Y01242*
X02581Y01244*
G37*
G36*
X02038Y01269D02*
X02032D01*
X02026Y01267*
X02022Y01262*
X02019Y01257*
Y0125*
X02022Y01244*
X02026Y0124*
X02032Y01238*
X02036*
X02039Y01234*
X0204Y01233*
X02039Y01231*
Y01225*
X02041Y01219*
X02046Y01215*
X02051Y01212*
X02058*
X02064Y01215*
X02068Y01219*
X0207Y01225*
Y01231*
X02068Y01237*
X02064Y01242*
X02058Y01244*
X02053*
X0205Y01248*
X0205Y01249*
X02051Y0125*
Y01257*
X02048Y01262*
X02044Y01267*
X02038Y01269*
G37*
G36*
X00493Y01226D02*
Y01209D01*
X00509*
X00506Y01216*
X005Y01223*
X00493Y01226*
G37*
G36*
X00483D02*
X00475Y01223D01*
X00469Y01216*
X00466Y01209*
X00483*
Y01226*
G37*
G36*
X02933Y01231D02*
X02927D01*
X02921Y01228*
X02916Y01224*
X02914Y01218*
Y01212*
X02916Y01206*
X02921Y01202*
X02927Y012*
X02933*
X02938Y01202*
X02943Y01206*
X02945Y01212*
Y01218*
X02943Y01224*
X02938Y01228*
X02933Y01231*
G37*
G36*
X00108Y01228D02*
X00101D01*
X00096Y01226*
X00091Y01222*
X00089Y01216*
Y0121*
X00091Y01204*
X00096Y012*
X00101Y01197*
X00108*
X00113Y012*
X00118Y01204*
X0012Y0121*
Y01216*
X00118Y01222*
X00113Y01226*
X00108Y01228*
G37*
G36*
X00509Y01199D02*
X00493D01*
Y01183*
X005Y01186*
X00506Y01192*
X00509Y01199*
G37*
G36*
X00483D02*
X00466D01*
X00469Y01192*
X00475Y01186*
X00483Y01183*
Y01199*
G37*
G36*
X01587Y0119D02*
Y01174D01*
X01604*
X01601Y01181*
X01594Y01187*
X01587Y0119*
G37*
G36*
X01577D02*
X0157Y01187D01*
X01564Y01181*
X01561Y01174*
X01577*
Y0119*
G37*
G36*
X02251Y012D02*
X02244D01*
X02238Y01198*
X02234Y01194*
X02232Y01188*
Y01181*
X02234Y01175*
X02238Y01171*
X02244Y01169*
X02251*
X02257Y01171*
X02261Y01175*
X02263Y01181*
Y01188*
X02261Y01194*
X02257Y01198*
X02251Y012*
G37*
G36*
X0254Y01183D02*
Y01166D01*
X02557*
X02553Y01173*
X02547Y01179*
X0254Y01183*
G37*
G36*
X0253D02*
X02523Y01179D01*
X02516Y01173*
X02513Y01166*
X0253*
Y01183*
G37*
G36*
X02288Y01171D02*
Y01154D01*
X02305*
X02301Y01161*
X02295Y01168*
X02288Y01171*
G37*
G36*
X02278D02*
X02271Y01168D01*
X02264Y01161*
X02261Y01154*
X02278*
Y01171*
G37*
G36*
X0212Y01184D02*
X02114D01*
X02108Y01181*
X02103Y01177*
X02101Y01171*
Y01165*
X02103Y01159*
X02108Y01155*
X02114Y01152*
X0212*
X02125Y01155*
X0213Y01159*
X02132Y01165*
Y01171*
X0213Y01177*
X02125Y01181*
X0212Y01184*
G37*
G36*
X03631Y01167D02*
Y0115D01*
X03647*
X03644Y01157*
X03638Y01164*
X03631Y01167*
G37*
G36*
X0362D02*
X03613Y01164D01*
X03607Y01157*
X03604Y0115*
X0362*
Y01167*
G37*
G36*
X01604Y01164D02*
X01587D01*
Y01147*
X01594Y0115*
X01601Y01157*
X01604Y01164*
G37*
G36*
X01577D02*
X01561D01*
X01564Y01157*
X0157Y0115*
X01577Y01147*
Y01164*
G37*
G36*
X01204Y01173D02*
X01198D01*
X01192Y0117*
X01188Y01166*
X01185Y0116*
Y01154*
X01188Y01148*
X01192Y01144*
X01198Y01141*
X01204*
X0121Y01144*
X01214Y01148*
X01217Y01154*
Y0116*
X01214Y01166*
X0121Y0117*
X01204Y01173*
G37*
G36*
X02557Y01156D02*
X0254D01*
Y01139*
X02547Y01142*
X02553Y01149*
X02557Y01156*
G37*
G36*
X0253D02*
X02513D01*
X02516Y01149*
X02523Y01142*
X0253Y01139*
Y01156*
G37*
G36*
X01331Y01155D02*
Y01138D01*
X01348*
X01345Y01146*
X01338Y01152*
X01331Y01155*
G37*
G36*
X01321D02*
X01314Y01152D01*
X01308Y01146*
X01305Y01138*
X01321*
Y01155*
G37*
G36*
X02584Y01169D02*
X02577D01*
X02572Y01166*
X02567Y01162*
X02565Y01156*
Y0115*
X02567Y01144*
X02572Y0114*
X02577Y01137*
X02584*
X0259Y0114*
X02594Y01144*
X02596Y0115*
Y01156*
X02594Y01162*
X0259Y01166*
X02584Y01169*
G37*
G36*
X02305Y01144D02*
X02288D01*
Y01127*
X02295Y01131*
X02301Y01137*
X02305Y01144*
G37*
G36*
X02278D02*
X02261D01*
X02264Y01137*
X02271Y01131*
X02278Y01127*
Y01144*
G37*
G36*
X03647Y0114D02*
X03631D01*
Y01124*
X03638Y01127*
X03644Y01133*
X03647Y0114*
G37*
G36*
X0362D02*
X03604D01*
X03607Y01133*
X03613Y01127*
X0362Y01124*
Y0114*
G37*
G36*
X01629Y01145D02*
X01622D01*
X01616Y01143*
X01612Y01138*
X0161Y01133*
Y01126*
X01612Y0112*
X01616Y01116*
X01622Y01114*
X01629*
X01635Y01116*
X01639Y0112*
X01641Y01126*
Y01133*
X01639Y01138*
X01635Y01143*
X01629Y01145*
G37*
G36*
X01348Y01128D02*
X01331D01*
Y01112*
X01338Y01115*
X01345Y01121*
X01348Y01128*
G37*
G36*
X01321D02*
X01305D01*
X01308Y01121*
X01314Y01115*
X01321Y01112*
Y01128*
G37*
G36*
X04004Y01412D02*
X0394D01*
Y01407*
X0394Y01407*
Y01381*
X0394Y01381*
Y01375*
X0394Y01375*
Y01349*
X0394Y01349*
Y01345*
X0394Y01345*
Y01319*
X0394Y01318*
Y01316*
X0394Y01314*
X03938Y01312*
X03937Y01311*
X0393*
X03924Y0131*
X03918Y01306*
X03913Y01301*
X0391Y01296*
X03908Y01289*
Y01282*
X0391Y01276*
X03913Y0127*
X03918Y01265*
X03921Y01264*
Y01258*
X03918Y01256*
X03913Y01251*
X0391Y01246*
X03908Y01239*
Y01232*
X0391Y01226*
X03913Y0122*
X03918Y01215*
X03921Y01214*
Y01208*
X03918Y01206*
X03913Y01201*
X0391Y01196*
X03908Y01189*
Y01182*
X0391Y01176*
X03913Y0117*
X03918Y01165*
X03921Y01164*
Y01158*
X03918Y01156*
X03913Y01151*
X0391Y01146*
X03908Y01139*
Y01132*
X0391Y01126*
X03913Y0112*
X03918Y01115*
X03924Y01112*
X0393Y0111*
X03937*
X03944Y01112*
X0395Y01115*
X03953Y01119*
X03958Y01118*
X03958Y01117*
Y0111*
X04009*
Y01161*
X04002*
X04002Y01162*
X04001Y01166*
X04004Y0117*
X04008Y01176*
X04009Y01182*
Y01189*
X04008Y01196*
X04004Y01201*
X04Y01206*
X03997Y01208*
Y01214*
X04Y01215*
X04004Y0122*
X04008Y01226*
X04009Y01232*
Y01239*
X04008Y01246*
X04004Y01251*
X04Y01256*
X03997Y01258*
Y01264*
X04Y01265*
X04004Y0127*
X04008Y01276*
X04009Y01282*
Y01289*
X04008Y01296*
X04004Y01301*
X04Y01306*
X03994Y01309*
X03995Y01312*
X03995Y01314*
X04004*
Y01318*
X04004Y01319*
Y01345*
X04004Y01345*
Y01349*
X04004Y01349*
Y01375*
X04004Y01375*
Y01381*
X04004Y01381*
Y01407*
X04004Y01407*
Y01411*
Y01412*
G37*
G36*
X0269Y01124D02*
Y01107D01*
X02706*
X02703Y01114*
X02697Y0112*
X0269Y01124*
G37*
G36*
X02679D02*
X02672Y0112D01*
X02666Y01114*
X02663Y01107*
X02679*
Y01124*
G37*
G36*
X03682Y01122D02*
Y01105D01*
X03698*
X03695Y01112*
X03689Y01119*
X03682Y01122*
G37*
G36*
X03672D02*
X03664Y01119D01*
X03658Y01112*
X03655Y01105*
X03672*
Y01122*
G37*
G36*
X03599D02*
Y01105D01*
X03616*
X03612Y01112*
X03606Y01119*
X03599Y01122*
G37*
G36*
X03589D02*
X03582Y01119D01*
X03575Y01112*
X03572Y01105*
X03589*
Y01122*
G37*
G36*
X01226Y01131D02*
X0122D01*
X01214Y01129*
X0121Y01124*
X01207Y01118*
Y01112*
X0121Y01106*
X01214Y01102*
X0122Y011*
X01226*
X01232Y01102*
X01237Y01106*
X01239Y01112*
Y01118*
X01237Y01124*
X01232Y01129*
X01226Y01131*
G37*
G36*
X009Y01122D02*
X00894D01*
X00888Y01119*
X00884Y01115*
X00881Y01109*
Y01103*
X00884Y01097*
X00888Y01092*
X00894Y0109*
X009*
X00906Y01092*
X00911Y01097*
X00913Y01103*
Y01109*
X00911Y01115*
X00906Y01119*
X009Y01122*
G37*
G36*
X02706Y01097D02*
X0269D01*
Y0108*
X02697Y01083*
X02703Y0109*
X02706Y01097*
G37*
G36*
X02679D02*
X02663D01*
X02666Y0109*
X02672Y01083*
X02679Y0108*
Y01097*
G37*
G36*
X03698Y01095D02*
X03682D01*
Y01079*
X03689Y01082*
X03695Y01088*
X03698Y01095*
G37*
G36*
X03672D02*
X03655D01*
X03658Y01088*
X03664Y01082*
X03672Y01079*
Y01095*
G37*
G36*
X03616D02*
X03599D01*
Y01079*
X03606Y01082*
X03612Y01088*
X03616Y01095*
G37*
G36*
X03589D02*
X03572D01*
X03575Y01088*
X03582Y01082*
X03589Y01079*
Y01095*
G37*
G36*
X01114Y01106D02*
X01107D01*
X01101Y01103*
X01097Y01099*
X01095Y01093*
Y01087*
X01097Y01081*
X01101Y01077*
X01107Y01074*
X01114*
X0112Y01077*
X01124Y01081*
X01126Y01087*
Y01093*
X01124Y01099*
X0112Y01103*
X01114Y01106*
G37*
G36*
X01379Y01105D02*
X01373D01*
X01367Y01102*
X01362Y01098*
X0136Y01092*
Y01086*
X01362Y0108*
X01367Y01075*
X01373Y01073*
X01379*
X01385Y01075*
X01389Y0108*
X01391Y01086*
Y01092*
X01389Y01098*
X01385Y01102*
X01379Y01105*
G37*
G36*
X02937Y01088D02*
Y01071D01*
X02953*
X0295Y01078*
X02944Y01085*
X02937Y01088*
G37*
G36*
X02926D02*
X02919Y01085D01*
X02913Y01078*
X0291Y01071*
X02926*
Y01088*
G37*
G36*
X02953Y01061D02*
X02937D01*
Y01044*
X02944Y01048*
X0295Y01054*
X02953Y01061*
G37*
G36*
X02926D02*
X0291D01*
X02913Y01054*
X02919Y01048*
X02926Y01044*
Y01061*
G37*
G36*
X019Y01072D02*
X01894D01*
X01888Y01069*
X01884Y01064*
X01881Y01059*
Y01053*
X01884Y01047*
X01888Y01042*
X01894Y0104*
X019*
X01906Y01042*
X01911Y01047*
X01913Y01053*
Y01059*
X01911Y01064*
X01906Y01069*
X019Y01072*
G37*
G36*
X02753Y01059D02*
X02747D01*
X02742Y01056*
X02737Y01052*
X02735Y01046*
Y0104*
X02737Y01034*
X02742Y0103*
X02747Y01027*
X02753*
X02759Y0103*
X02764Y01034*
X02766Y0104*
Y01046*
X02764Y01052*
X02759Y01056*
X02753Y01059*
G37*
G36*
X03543Y0104D02*
Y01023D01*
X03559*
X03556Y01031*
X0355Y01037*
X03543Y0104*
G37*
G36*
X01633Y01053D02*
X01627D01*
X01621Y01051*
X01617Y01047*
X01614Y01041*
Y01035*
X01617Y01029*
X01621Y01024*
X01627Y01022*
X01633*
X01639Y01024*
X01644Y01029*
X01646Y01035*
Y01041*
X01644Y01047*
X01639Y01051*
X01633Y01053*
G37*
G36*
X00083Y01049D02*
X00077D01*
X00071Y01046*
X00067Y01042*
X00064Y01036*
Y0103*
X00067Y01024*
X00071Y0102*
X00077Y01017*
X00083*
X00089Y0102*
X00094Y01024*
X00096Y0103*
Y01036*
X00094Y01042*
X00089Y01046*
X00083Y01049*
G37*
G36*
X02601Y01043D02*
X02595D01*
X02589Y0104*
X02585Y01036*
X02582Y0103*
Y01024*
X02585Y01018*
X02589Y01014*
X02595Y01011*
X02601*
X02607Y01014*
X02611Y01018*
X02614Y01024*
Y0103*
X02611Y01036*
X02607Y0104*
X02601Y01043*
G37*
G36*
X01591Y01042D02*
X01585D01*
X01579Y0104*
X01575Y01035*
X01572Y01029*
Y01023*
X01575Y01018*
X01579Y01013*
X01585Y01011*
X01591*
X01597Y01013*
X01601Y01018*
X01604Y01023*
Y01029*
X01601Y01035*
X01597Y0104*
X01591Y01042*
G37*
G36*
X03559Y01013D02*
X03543D01*
Y00997*
X0355Y01*
X03556Y01006*
X03559Y01013*
G37*
G36*
X03021Y01422D02*
X02978D01*
X02981Y01414*
X02982Y01414*
X0298Y01409*
X0296*
Y01143*
X02956Y01139*
X02953Y01133*
Y01127*
X02956Y01121*
X0296Y01117*
Y00858*
X02905*
X02903Y00862*
X02899Y00866*
X02893Y00869*
X02887*
X02881Y00866*
X02877Y00862*
X02875Y00858*
X02619*
X02614Y0086*
X02608*
X02603Y00858*
X02546*
X02544Y00862*
X02545Y00864*
X02501*
X02503Y00862*
X025Y00858*
X02173*
Y00464*
X0284*
X02843Y0046*
X02842Y00457*
X02885*
X02884Y0046*
X02887Y00464*
X02937*
X02938Y00459*
X02936Y00457*
X02933Y00449*
X02976*
X02973Y00457*
X0297Y00459*
X02973Y00464*
X03511*
Y00517*
X03513Y00518*
X03516Y00519*
X03522Y00514*
X03529Y00511*
Y00532*
Y00553*
X03522Y00551*
X03516Y00545*
X03513Y00546*
X03511Y00547*
Y01013*
X03516Y01014*
X0352Y01006*
X03525Y01*
X03533Y00997*
Y01018*
Y0104*
X03525Y01037*
X0352Y01031*
X03516Y01023*
X03511Y01023*
Y01409*
X03019*
X03017Y01414*
X03018Y01414*
X03021Y01422*
G37*
G36*
X01337Y01024D02*
X01331D01*
X01325Y01022*
X01321Y01017*
X01318Y01011*
Y01005*
X01321Y01*
X01325Y00995*
X01331Y00992*
X01337*
X01343Y00995*
X01348Y01*
X0135Y01005*
Y01011*
X01348Y01017*
X01343Y01022*
X01337Y01024*
G37*
G36*
X02494Y01018D02*
X02488D01*
X02482Y01015*
X02477Y01011*
X02475Y01005*
Y00999*
X02477Y00993*
X02482Y00989*
X02488Y00986*
X02494*
X025Y00989*
X02504Y00993*
X02507Y00999*
Y01005*
X02504Y01011*
X025Y01015*
X02494Y01018*
G37*
G36*
X02692Y01015D02*
X02686D01*
X0268Y01013*
X02675Y01009*
X02673Y01003*
Y00996*
X02675Y00991*
X0268Y00987*
X02686Y00984*
X02692*
X02698Y00987*
X02702Y00991*
X02705Y00996*
Y01003*
X02702Y01009*
X02698Y01013*
X02692Y01015*
G37*
G36*
X00556Y00986D02*
Y00969D01*
X00572*
X00569Y00976*
X00563Y00983*
X00556Y00986*
G37*
G36*
X00546D02*
X00538Y00983D01*
X00532Y00976*
X00529Y00969*
X00546*
Y00986*
G37*
G36*
X00615Y00982D02*
Y00965D01*
X00631*
X00628Y00972*
X00622Y00979*
X00615Y00982*
G37*
G36*
X00605D02*
X00598Y00979D01*
X00591Y00972*
X00588Y00965*
X00605*
Y00982*
G37*
G36*
X01859Y00994D02*
X01853D01*
X01847Y00991*
X01842Y00987*
X0184Y00981*
Y00975*
X01842Y00969*
X01847Y00964*
X01844Y00961*
X01838Y00963*
X01832*
X01826Y00961*
X01822Y00956*
X01819Y0095*
Y00944*
X01822Y00938*
X01826Y00934*
X01832Y00931*
X01838*
X01844Y00934*
X01848Y00938*
X01851Y00944*
Y0095*
X01848Y00956*
X01844Y00961*
X01847Y00964*
X01853Y00962*
X01859*
X01865Y00964*
X01869Y00969*
X01872Y00975*
Y00981*
X01869Y00987*
X01865Y00991*
X01859Y00994*
G37*
G36*
X01963Y00984D02*
X01957D01*
X01951Y00981*
X01947Y00977*
X01944Y00971*
Y00965*
X01947Y00959*
X01951Y00955*
X01957Y00952*
X01963*
X01969Y00955*
X01974Y00959*
X01976Y00965*
Y00971*
X01974Y00977*
X01969Y00981*
X01963Y00984*
G37*
G36*
X00572Y00959D02*
X00556D01*
Y00942*
X00563Y00946*
X00569Y00952*
X00572Y00959*
G37*
G36*
X00546D02*
X00529D01*
X00532Y00952*
X00538Y00946*
X00546Y00942*
Y00959*
G37*
G36*
X00631Y00955D02*
X00615D01*
Y00938*
X00622Y00942*
X00628Y00948*
X00631Y00955*
G37*
G36*
X00605D02*
X00588D01*
X00591Y00948*
X00598Y00942*
X00605Y00938*
Y00955*
G37*
G36*
X02714Y00969D02*
X02707D01*
X02701Y00966*
X02697Y00962*
X02695Y00956*
Y0095*
X02697Y00944*
X02701Y0094*
X02707Y00937*
X02714*
X0272Y0094*
X02724Y00944*
X02726Y0095*
Y00956*
X02724Y00962*
X0272Y00966*
X02714Y00969*
G37*
G36*
X00284Y00946D02*
Y0093D01*
X00301*
X00298Y00937*
X00291Y00943*
X00284Y00946*
G37*
G36*
X00274D02*
X00267Y00943D01*
X00261Y00937*
X00257Y0093*
X00274*
Y00946*
G37*
G36*
X01408Y0096D02*
X01402D01*
X01396Y00958*
X01392Y00953*
X01389Y00948*
Y00941*
X01392Y00935*
X01396Y00931*
X01402Y00929*
X01408*
X01414Y00931*
X01418Y00935*
X01421Y00941*
Y00948*
X01418Y00953*
X01414Y00958*
X01408Y0096*
G37*
G36*
X02914Y00952D02*
X02908D01*
X02902Y0095*
X02898Y00946*
X02895Y0094*
Y00933*
X02898Y00927*
X02902Y00923*
X02908Y00921*
X02914*
X0292Y00923*
X02924Y00927*
X02927Y00933*
Y0094*
X02924Y00946*
X0292Y0095*
X02914Y00952*
G37*
G36*
X01453Y00935D02*
Y00918D01*
X0147*
X01467Y00925*
X01461Y00931*
X01453Y00935*
G37*
G36*
X01443D02*
X01436Y00931D01*
X0143Y00925*
X01427Y00918*
X01443*
Y00935*
G37*
G36*
X01367Y00931D02*
Y00914D01*
X01383*
X0138Y00921*
X01374Y00927*
X01367Y00931*
G37*
G36*
X01357D02*
X0135Y00927D01*
X01343Y00921*
X0134Y00914*
X01357*
Y00931*
G37*
G36*
X00741Y00923D02*
Y00906D01*
X00757*
X00754Y00913*
X00748Y0092*
X00741Y00923*
G37*
G36*
X00731D02*
X00724Y0092D01*
X00717Y00913*
X00714Y00906*
X00731*
Y00923*
G37*
G36*
X00301Y0092D02*
X00284D01*
Y00903*
X00291Y00906*
X00298Y00912*
X00301Y0092*
G37*
G36*
X00274D02*
X00257D01*
X00261Y00912*
X00267Y00906*
X00274Y00903*
Y0092*
G37*
G36*
X02286Y00933D02*
X0228D01*
X02274Y0093*
X0227Y00926*
X02267Y0092*
Y00914*
X0227Y00908*
X02274Y00903*
X0228Y00901*
X02286*
X02292Y00903*
X02296Y00908*
X02299Y00914*
Y0092*
X02296Y00926*
X02292Y0093*
X02286Y00933*
G37*
G36*
X02205Y00914D02*
Y00897D01*
X02222*
X02219Y00905*
X02212Y00911*
X02205Y00914*
G37*
G36*
X02195D02*
X02188Y00911D01*
X02182Y00905*
X02179Y00897*
X02195*
Y00914*
G37*
G36*
X0147Y00908D02*
X01453D01*
Y00891*
X01461Y00894*
X01467Y00901*
X0147Y00908*
G37*
G36*
X01443D02*
X01427D01*
X0143Y00901*
X01436Y00894*
X01443Y00891*
Y00908*
G37*
G36*
X01383Y00904D02*
X01367D01*
Y00887*
X01374Y0089*
X0138Y00897*
X01383Y00904*
G37*
G36*
X01357D02*
X0134D01*
X01343Y00897*
X0135Y0089*
X01357Y00887*
Y00904*
G37*
G36*
X01842Y00917D02*
X01836D01*
X0183Y00914*
X01826Y0091*
X01824Y00904*
Y00898*
X01826Y00892*
X0183Y00888*
X01836Y00885*
X01842*
X01848Y00888*
X01852Y00892*
X01855Y00898*
Y00904*
X01852Y0091*
X01848Y00914*
X01842Y00917*
G37*
G36*
X00757Y00896D02*
X00741D01*
Y00879*
X00748Y00883*
X00754Y00889*
X00757Y00896*
G37*
G36*
X00731D02*
X00714D01*
X00717Y00889*
X00724Y00883*
X00731Y00879*
Y00896*
G37*
G36*
X02742Y00908D02*
X02736D01*
X02731Y00905*
X02726Y00901*
X02724Y00895*
Y00889*
X02726Y00883*
X02731Y00879*
X02736Y00876*
X02742*
X02748Y00879*
X02753Y00883*
X02755Y00889*
Y00895*
X02753Y00901*
X02748Y00905*
X02742Y00908*
G37*
G36*
X02528Y00891D02*
Y00875D01*
X02545*
X02542Y00882*
X02535Y00888*
X02528Y00891*
G37*
G36*
X02518D02*
X02511Y00888D01*
X02505Y00882*
X02501Y00875*
X02518*
Y00891*
G37*
G36*
X00851D02*
Y00875D01*
X00868*
X00864Y00882*
X00858Y00888*
X00851Y00891*
G37*
G36*
X00841D02*
X00834Y00888D01*
X00827Y00882*
X00824Y00875*
X00841*
Y00891*
G37*
G36*
X02703Y00906D02*
X02697D01*
X02692Y00903*
X02687Y00899*
X02685Y00893*
Y00887*
X02687Y00881*
X02692Y00877*
X02697Y00874*
X02703*
X02709Y00877*
X02714Y00881*
X02716Y00887*
Y00893*
X02714Y00899*
X02709Y00903*
X02703Y00906*
G37*
G36*
X02222Y00887D02*
X02205D01*
Y00871*
X02212Y00874*
X02219Y0088*
X02222Y00887*
G37*
G36*
X02195D02*
X02179D01*
X02182Y0088*
X02188Y00874*
X02195Y00871*
Y00887*
G37*
G36*
X00044Y00874D02*
X00037D01*
X00031Y00871*
X00027Y00866*
X00025Y00861*
Y00855*
X00027Y00849*
X00031Y00844*
X00037Y00842*
X00044*
X00049Y00844*
X00054Y00849*
X00056Y00855*
Y00861*
X00054Y00866*
X00049Y00871*
X00044Y00874*
G37*
G36*
X00745Y00856D02*
Y00839D01*
X00761*
X00758Y00846*
X00752Y00853*
X00745Y00856*
G37*
G36*
X00735D02*
X00727Y00853D01*
X00721Y00846*
X00718Y00839*
X00735*
Y00856*
G37*
G36*
X02011Y0098D02*
X02004D01*
X01998Y00977*
X01994Y00973*
X01992Y00967*
Y00961*
X01994Y00955*
X01998Y00951*
X02001Y0095*
X02Y00945*
X02*
X01994Y00942*
X0199Y00938*
X01987Y00932*
Y00926*
X0199Y0092*
X01991Y00919*
X01993Y00915*
X01991Y00912*
X01989Y0091*
X01987Y00905*
Y00898*
X01989Y00892*
X0199Y00891*
X01992Y00887*
X01988Y00883*
X01985Y00877*
Y0087*
X01988Y00864*
X01992Y0086*
X01996Y00859*
X01999Y00853*
Y00853*
Y00846*
X02001Y0084*
X02005Y00836*
X02011Y00834*
X02018*
X02023Y00836*
X02028Y0084*
X0203Y00846*
Y00853*
X02028Y00859*
X02023Y00863*
X02019Y00865*
X02016Y0087*
X02017Y0087*
Y00877*
X02014Y00883*
X02013Y00883*
X02011Y00888*
X02016Y00892*
X02018Y00898*
Y00905*
X02016Y0091*
X02014Y00911*
X02012Y00915*
X02014Y00918*
X02016Y0092*
X02019Y00926*
Y00932*
X02016Y00938*
X02012Y00942*
X02009Y00943*
X0201Y00948*
X02011*
X02016Y00951*
X02021Y00955*
X02023Y00961*
Y00967*
X02021Y00973*
X02016Y00977*
X02011Y0098*
G37*
G36*
X00868Y00864D02*
X00824D01*
X00827Y00857*
X00834Y00851*
X00837Y0085*
X00837Y00847*
X00837Y00844*
X00831Y00838*
X00828Y00831*
X00872*
X00868Y00838*
X00862Y00845*
X00859Y00846*
X00859Y00849*
X00859Y00851*
X00864Y00857*
X00868Y00864*
G37*
G36*
X01696Y0086D02*
X01689D01*
X01683Y00857*
X01679Y00853*
X01677Y00847*
Y00841*
X01679Y00835*
X01683Y00831*
X01689Y00828*
X01696*
X01701Y00831*
X01706Y00835*
X01708Y00841*
Y00847*
X01706Y00853*
X01701Y00857*
X01696Y0086*
G37*
G36*
X01085Y0085D02*
X01079D01*
X01073Y00848*
X01069Y00843*
X01066Y00837*
Y00831*
X01069Y00825*
X01073Y00821*
X01079Y00818*
X01085*
X01091Y00821*
X01096Y00825*
X01098Y00831*
Y00837*
X01096Y00843*
X01091Y00848*
X01085Y0085*
G37*
G36*
X00761Y00829D02*
X00745D01*
Y00812*
X00752Y00816*
X00758Y00822*
X00761Y00829*
G37*
G36*
X00735D02*
X00718D01*
X00721Y00822*
X00727Y00816*
X00735Y00812*
Y00829*
G37*
G36*
X03837Y00838D02*
X03831D01*
X03825Y00836*
X03821Y00831*
X03818Y00825*
Y00819*
X03821Y00813*
X03825Y00809*
X03831Y00807*
X03837*
X03843Y00809*
X03848Y00813*
X0385Y00819*
Y00825*
X03848Y00831*
X03843Y00836*
X03837Y00838*
G37*
G36*
X00324Y0082D02*
Y00804D01*
X0034*
X00337Y00811*
X00331Y00817*
X00324Y0082*
G37*
G36*
X00313D02*
X00306Y00817D01*
X003Y00811*
X00297Y00804*
X00313*
Y0082*
G37*
G36*
X00872Y00821D02*
X00828D01*
X00829Y00821*
X00826Y00816*
X00818Y00813*
X00812Y00807*
X00809Y008*
X00852*
X00851Y008*
X00854Y00805*
X00862Y00808*
X00868Y00814*
X00872Y00821*
G37*
G36*
X01125Y0083D02*
X01118D01*
X01112Y00828*
X01108Y00824*
X01106Y00818*
Y00811*
X01108Y00805*
X01112Y00801*
X01118Y00799*
X01125*
X01131Y00801*
X01135Y00805*
X01137Y00811*
Y00818*
X01135Y00824*
X01131Y00828*
X01125Y0083*
G37*
G36*
X00615Y00812D02*
Y00796D01*
X00631*
X00628Y00803*
X00622Y00809*
X00615Y00812*
G37*
G36*
X00605D02*
X00598Y00809D01*
X00591Y00803*
X00588Y00796*
X00605*
Y00812*
G37*
G36*
X00552Y00809D02*
Y00792D01*
X00568*
X00565Y00799*
X00559Y00805*
X00552Y00809*
G37*
G36*
X00542D02*
X00535Y00805D01*
X00528Y00799*
X00525Y00792*
X00542*
Y00809*
G37*
G36*
X00481Y00805D02*
Y00788D01*
X00498*
X00494Y00795*
X00488Y00801*
X00481Y00805*
G37*
G36*
X00471D02*
X00464Y00801D01*
X00457Y00795*
X00454Y00788*
X00471*
Y00805*
G37*
G36*
X0154Y00797D02*
Y0078D01*
X01557*
X01553Y00787*
X01547Y00794*
X0154Y00797*
G37*
G36*
X0153D02*
X01523Y00794D01*
X01516Y00787*
X01513Y0078*
X0153*
Y00797*
G37*
G36*
X00742Y00793D02*
X00735Y0079D01*
X00729Y00783*
X00727Y00778*
X00721*
X00719Y00783*
X00712Y0079*
X00705Y00793*
Y00771*
Y0075*
X00712Y00753*
X00719Y00759*
X00721Y00764*
X00727*
X00729Y00759*
X00735Y00753*
X00742Y0075*
Y00771*
Y00793*
G37*
G36*
X0034Y00794D02*
X00324D01*
Y00777*
X00331Y0078*
X00337Y00787*
X0034Y00794*
G37*
G36*
X00313D02*
X00297D01*
X003Y00787*
X00306Y0078*
X00313Y00777*
Y00794*
G37*
G36*
X00753Y00793D02*
Y00776D01*
X00769*
X00766Y00783*
X0076Y0079*
X00753Y00793*
G37*
G36*
X00695D02*
X00688Y0079D01*
X00682Y00783*
X00679Y00776*
X00695*
Y00793*
G37*
G36*
X00542Y00782D02*
X00525D01*
X00526Y0078*
X00522Y00776*
X0052Y00777*
Y00761*
X00537*
X00536Y00762*
X0054Y00766*
X00542Y00765*
Y00782*
G37*
G36*
X00852Y0079D02*
X00835D01*
Y00773*
X00842Y00776*
X00849Y00783*
X00852Y0079*
G37*
G36*
X00825D02*
X00809D01*
X00812Y00783*
X00818Y00776*
X00825Y00773*
Y0079*
G37*
G36*
X00605Y00786D02*
X00588D01*
X00591Y00779*
X00598Y00772*
X00605Y00769*
Y00786*
G37*
G36*
X00631D02*
X00615D01*
Y00769*
X00622Y00772*
X00628Y00779*
X00631Y00786*
G37*
G36*
X00568Y00782D02*
X00552D01*
Y00765*
X00559Y00768*
X00565Y00775*
X00568Y00782*
G37*
G36*
X01221Y00777D02*
Y00761D01*
X01238*
X01235Y00768*
X01228Y00774*
X01221Y00777*
G37*
G36*
X01211D02*
X01204Y00774D01*
X01198Y00768*
X01194Y00761*
X01211*
Y00777*
G37*
G36*
X01557Y0077D02*
X0154D01*
Y00753*
X01547Y00757*
X01553Y00763*
X01557Y0077*
G37*
G36*
X0153D02*
X01513D01*
X01516Y00763*
X01523Y00757*
X0153Y00753*
Y0077*
G37*
G36*
X00769Y00766D02*
X00753D01*
Y0075*
X0076Y00753*
X00766Y00759*
X00769Y00766*
G37*
G36*
X00695D02*
X00679D01*
X00682Y00759*
X00688Y00753*
X00695Y0075*
Y00766*
G37*
G36*
X00377Y00771D02*
X0037D01*
X00364Y00769*
X0036Y00764*
X00358Y00759*
Y00752*
X0036Y00746*
X00364Y00742*
X0037Y0074*
X00377*
X00383Y00742*
X00387Y00746*
X00389Y00752*
Y00759*
X00387Y00764*
X00383Y00769*
X00377Y00771*
G37*
G36*
X01238Y0075D02*
X01221D01*
Y00734*
X01228Y00737*
X01235Y00743*
X01238Y0075*
G37*
G36*
X01211D02*
X01194D01*
X01198Y00743*
X01204Y00737*
X01211Y00734*
Y0075*
G37*
G36*
X00537D02*
X0052D01*
Y00734*
X00527Y00737*
X00534Y00743*
X00537Y0075*
G37*
G36*
X00498Y00778D02*
X00454D01*
X00457Y00771*
X00459Y00769*
X00453Y00764*
X0045Y00757*
X00472*
Y00751*
X00477*
Y0073*
X00484Y00733*
X0049Y00739*
X00492Y00742*
X00494Y00743*
X00497Y00742*
X00503Y00737*
X0051Y00734*
Y00755*
Y00777*
X00503Y00774*
X005Y00771*
X00496Y00774*
X00498Y00778*
G37*
G36*
X00467Y00746D02*
X0045D01*
X00453Y00739*
X0046Y00733*
X00467Y0073*
Y00746*
G37*
G36*
X01915Y0074D02*
Y00724D01*
X01931*
X01928Y00731*
X01922Y00737*
X01915Y0074*
G37*
G36*
X01905D02*
X01898Y00737D01*
X01892Y00731*
X01888Y00724*
X01905*
Y0074*
G37*
G36*
X02068Y00735D02*
X02061D01*
X02055Y00732*
X02051Y00728*
X02049Y00722*
Y00716*
X02051Y0071*
X02055Y00706*
X02061Y00703*
X02068*
X02074Y00706*
X02078Y0071*
X0208Y00716*
Y00722*
X02078Y00728*
X02074Y00732*
X02068Y00735*
G37*
G36*
X01931Y00714D02*
X01888D01*
X01892Y00707*
X01898Y00701*
X01905Y00697*
X01907*
X01908Y00692*
X01905Y00691*
X01901Y00687*
X01898Y00681*
Y0068*
X01893Y00677*
X0189Y00678*
X01884*
X01878Y00675*
X01874Y00671*
X01872Y00665*
Y00659*
X01874Y00653*
X01878Y00649*
X01884Y00646*
X0189*
X01894Y00648*
X01898Y00644*
X01895Y00638*
X01912*
Y00655*
X01907Y00653*
X01903Y00656*
X01903Y00659*
Y0066*
X01908Y00663*
X01911Y00662*
X01917*
X01923Y00664*
X01927Y00669*
X0193Y00675*
Y00681*
X01927Y00687*
X01923Y00691*
X01918Y00693*
X01917Y00695*
Y00698*
X01922Y00701*
X01928Y00707*
X01931Y00714*
G37*
G36*
X03944Y00684D02*
X03937D01*
X0393Y00682*
X03924Y00678*
X03919Y00673*
X03918Y00672*
X03912*
X03912Y00673*
X03907Y00678*
X03901Y00682*
X03894Y00684*
X03887*
X0388Y00682*
X03874Y00678*
X03869Y00673*
X03866Y00667*
X03864Y00661*
Y00653*
X03866Y00647*
X03869Y00641*
X03874Y00636*
X03875Y00635*
Y00629*
X03874Y00628*
X03869Y00623*
X03866Y00617*
X03864Y00611*
Y00603*
X03866Y00597*
X03869Y00591*
X03874Y00586*
X03875Y00585*
Y00579*
X03874Y00578*
X03869Y00573*
X03866Y00567*
X03864Y00561*
Y00553*
X03866Y00547*
X03869Y00541*
X03874Y00536*
X03875Y00535*
Y00529*
X03874Y00528*
X03869Y00523*
X03866Y00517*
X03864Y00511*
Y00503*
X03866Y00497*
X03869Y00491*
X03874Y00486*
X03875Y00485*
Y00479*
X03874Y00478*
X03869Y00473*
X03866Y00467*
X03864Y00461*
Y00453*
X03866Y00447*
X03869Y00441*
X03874Y00436*
X0388Y00432*
X03887Y0043*
X03894*
X03901Y00432*
X03907Y00436*
X03909Y00438*
X03914Y00436*
Y0043*
X03967*
Y00484*
Y00488*
X03971Y00494*
X03973Y00502*
X0394*
Y00512*
X03973*
X03971Y0052*
X03966Y00527*
X03962Y00532*
X03966Y00537*
X03971Y00544*
X03973Y00552*
X0394*
Y00562*
X03973*
X03971Y0057*
X03966Y00577*
X03961Y00583*
X0396Y00589*
X03962Y00591*
X03965Y00597*
X03967Y00603*
Y00611*
X03965Y00617*
X03962Y00623*
X03957Y00628*
X03955Y00629*
Y00635*
X03957Y00636*
X03962Y00641*
X03965Y00647*
X03967Y00653*
Y00661*
X03965Y00667*
X03962Y00673*
X03957Y00678*
X03951Y00682*
X03944Y00684*
G37*
G36*
X01922Y00655D02*
Y00638D01*
X01938*
X01935Y00646*
X01929Y00652*
X01922Y00655*
G37*
G36*
X01938Y00628D02*
X01922D01*
Y00612*
X01929Y00615*
X01935Y00621*
X01938Y00628*
G37*
G36*
X01912D02*
X01895D01*
X01898Y00621*
X01905Y00615*
X01912Y00612*
Y00628*
G37*
G36*
X0092Y00641D02*
X00911Y00638D01*
X00903Y00634*
X00897Y00627*
X00892Y00619*
X0089Y00611*
X0092*
Y00641*
G37*
G36*
X01126Y00621D02*
Y00605D01*
X01143*
X0114Y00612*
X01133Y00618*
X01126Y00621*
G37*
G36*
X01116D02*
X01109Y00618D01*
X01103Y00612*
X011Y00605*
X01116*
Y00621*
G37*
G36*
X00997Y00633D02*
Y00603D01*
X01027*
X01025Y00611*
X0102Y0062*
X01014Y00626*
X01006Y00631*
X00997Y00633*
G37*
G36*
X0154Y00633D02*
X01534D01*
X01528Y00631*
X01524Y00627*
X01521Y00621*
Y00614*
X01524Y00609*
X01528Y00604*
X01534Y00602*
X0154*
X01546Y00604*
X0155Y00609*
X01553Y00614*
Y00621*
X0155Y00627*
X01546Y00631*
X0154Y00633*
G37*
G36*
X01143Y00594D02*
X01126D01*
Y00578*
X01133Y00581*
X0114Y00587*
X01143Y00594*
G37*
G36*
X01116D02*
X011D01*
X01103Y00587*
X01109Y00581*
X01116Y00578*
Y00594*
G37*
G36*
X00851Y00601D02*
Y00572D01*
X00881*
X00879Y0058*
X00874Y00588*
X00868Y00594*
X00859Y00599*
X00851Y00601*
G37*
G36*
X00841D02*
X00833Y00599D01*
X00824Y00594*
X00818Y00588*
X00813Y0058*
X00811Y00572*
X00841*
Y00601*
G37*
G36*
X01027Y00593D02*
X00997D01*
Y00563*
X01006Y00565*
X01014Y0057*
X0102Y00576*
X01025Y00585*
X01027Y00593*
G37*
G36*
X0093Y00641D02*
Y00606D01*
X00925*
Y00601*
X0089*
X00892Y00592*
X00897Y00584*
X00903Y00578*
X00911Y00573*
X0092Y00571*
X00923*
X00923Y00566*
X00915Y00564*
X00907Y00559*
X00901Y00553*
X00896Y00544*
X00894Y00536*
X00964*
X00961Y00544*
X00957Y00553*
X0095Y00559*
X00942Y00564*
X00933Y00566*
X00931*
X0093Y00571*
X00938Y00573*
X00946Y00578*
X00953Y00584*
X00954Y00587*
X00959Y00586*
X0096Y00585*
X00964Y00576*
X00971Y0057*
X00979Y00565*
X00987Y00563*
Y00598*
Y00633*
X00979Y00631*
X00971Y00626*
X00964Y0062*
X00963Y00617*
X00958Y00618*
X00957Y00619*
X00953Y00627*
X00946Y00634*
X00938Y00638*
X0093Y00641*
G37*
G36*
X03539Y00553D02*
Y00537D01*
X03555*
X03553Y00544*
X03546Y00551*
X03539Y00553*
G37*
G36*
X03555Y00527D02*
X03539D01*
Y00511*
X03546Y00514*
X03553Y0052*
X03555Y00527*
G37*
G36*
X00881Y00561D02*
X00811D01*
X00813Y00553*
X00818Y00545*
X00824Y00538*
X00826Y00537*
X00825Y00533*
X00825Y00532*
X00816Y00527*
X0081Y00521*
X00805Y00513*
X00803Y00505*
X00873*
X00871Y00513*
X00866Y00521*
X0086Y00527*
X00858Y00529*
X00859Y00533*
X00859Y00534*
X00868Y00538*
X00874Y00545*
X00879Y00553*
X00881Y00561*
G37*
G36*
X00725Y00527D02*
Y00497D01*
X00755*
X00753Y00505*
X00748Y00513*
X00742Y0052*
X00733Y00524*
X00725Y00527*
G37*
G36*
X00715D02*
X00707Y00524D01*
X00698Y0052*
X00692Y00513*
X00687Y00505*
X00685Y00497*
X00715*
Y00527*
G37*
G36*
X00964Y00526D02*
X00934D01*
Y00496*
X00942Y00498*
X0095Y00503*
X00957Y00509*
X00961Y00518*
X00964Y00526*
G37*
G36*
X00924D02*
X00894D01*
X00896Y00518*
X00901Y00509*
X00907Y00503*
X00915Y00498*
X00924Y00496*
Y00526*
G37*
G36*
X00558Y00517D02*
X00551D01*
X00546Y00515*
X00541Y00511*
X00539Y00505*
Y00498*
X00541Y00492*
X00546Y00488*
X00551Y00486*
X00558*
X00564Y00488*
X00568Y00492*
X0057Y00498*
Y00505*
X00568Y00511*
X00564Y00515*
X00558Y00517*
G37*
G36*
X00896Y00495D02*
X00888Y00493D01*
X00879Y00488*
X00876Y00485*
X00871Y00486*
X00871Y00487*
X00873Y00494*
X00803*
X00805Y00486*
X0081Y00478*
X00812Y00476*
X00809Y00472*
X00802*
X00793Y00469*
X00785Y00464*
X00779Y00458*
X00774Y0045*
X00772Y00442*
X00807*
Y00437*
X00812*
Y00401*
X0082Y00404*
X00822Y00405*
X00827Y00402*
Y00396*
X00829Y00388*
X00834Y00379*
X0084Y00373*
X00848Y00368*
X00857Y00366*
Y00401*
X00862*
Y00406*
X00897*
X00894Y00414*
X0089Y00422*
X00892Y00425*
X00893Y00426*
X00896Y00425*
Y0046*
Y00495*
G37*
G36*
X00644Y00503D02*
X00636Y00501D01*
X00627Y00496*
X00621Y0049*
X00616Y00481*
X00614Y00473*
Y00469*
X00609Y00467*
X00608Y00468*
X006Y00473*
X00591Y00475*
Y0044*
Y00405*
X006Y00408*
X00608Y00412*
X00614Y00419*
X00619Y00427*
X00621Y00436*
Y00439*
X00626Y00442*
X00627Y0044*
X00636Y00435*
X00644Y00433*
Y00468*
Y00503*
G37*
G36*
X00906Y00495D02*
Y00465D01*
X00936*
X00934Y00474*
X00929Y00482*
X00923Y00488*
X00914Y00493*
X00906Y00495*
G37*
G36*
X00755Y00487D02*
X00725D01*
Y00457*
X00733Y00459*
X00742Y00464*
X00748Y0047*
X00753Y00478*
X00755Y00487*
G37*
G36*
X00654Y00503D02*
Y00473D01*
X00684*
X00683Y00475*
X00688Y00477*
X00692Y0047*
X00698Y00464*
X00707Y00459*
X00715Y00457*
Y00487*
X00685*
X00686Y00485*
X00681Y00483*
X00677Y0049*
X00671Y00496*
X00662Y00501*
X00654Y00503*
G37*
G36*
X00305Y00483D02*
X00297Y00481D01*
X00289Y00476*
X00283Y0047*
X00278Y00462*
X00275Y00453*
X00305*
Y00483*
G37*
G36*
X02115Y0045D02*
Y00434D01*
X02131*
X02128Y00441*
X02122Y00447*
X02115Y0045*
G37*
G36*
X02105D02*
X02098Y00447D01*
X02091Y00441*
X02088Y00434*
X02105*
Y0045*
G37*
G36*
X01709D02*
Y00434D01*
X01726*
X01723Y00441*
X01716Y00447*
X01709Y0045*
G37*
G36*
X01699D02*
X01692Y00447D01*
X01686Y00441*
X01683Y00434*
X01699*
Y0045*
G37*
G36*
X00684Y00463D02*
X00654D01*
Y00433*
X00662Y00435*
X00671Y0044*
X00677Y00446*
X00682Y00455*
X00684Y00463*
G37*
G36*
X02885Y00447D02*
X02868D01*
Y00431*
X02876Y00433*
X02882Y0044*
X02885Y00447*
G37*
G36*
X02859D02*
X02842D01*
X02845Y0044*
X02851Y00433*
X02859Y00431*
Y00447*
G37*
G36*
X00801Y00431D02*
X00772D01*
X00773Y00427*
X00769Y00424*
X00765Y00426*
X00757Y00428*
Y00398*
X00787*
X00785Y00403*
X00789Y00406*
X00793Y00404*
X00801Y00401*
Y00431*
G37*
G36*
X02976Y00439D02*
X0296D01*
Y00423*
X02967Y00425*
X02973Y00432*
X02976Y00439*
G37*
G36*
X0295D02*
X02933D01*
X02936Y00432*
X02942Y00425*
X0295Y00423*
Y00439*
G37*
G36*
X02414Y00438D02*
Y00422D01*
X02431*
X02427Y00429*
X02421Y00435*
X02414Y00438*
G37*
G36*
X02404D02*
X02397Y00435D01*
X0239Y00429*
X02387Y00422*
X02404*
Y00438*
G37*
G36*
X02647Y00435D02*
Y00419D01*
X02663*
X0266Y00426*
X02654Y00432*
X02647Y00435*
G37*
G36*
X02637D02*
X02629Y00432D01*
X02623Y00426*
X0262Y00419*
X02637*
Y00435*
G37*
G36*
X0095Y00444D02*
Y00414D01*
X00979*
X00977Y00422*
X00972Y00431*
X00966Y00437*
X00958Y00442*
X0095Y00444*
G37*
G36*
X00936Y00455D02*
X00906D01*
Y00425*
X00908Y00426*
X0091Y00424*
X00912Y00422*
X00909Y00414*
X00939*
Y00444*
X00938Y00443*
X00936Y00445*
X00934Y00448*
X00936Y00455*
G37*
G36*
X00305Y00443D02*
X00275D01*
X00278Y00435*
X00283Y00427*
X00289Y0042*
X00297Y00416*
X00305Y00413*
Y00443*
G37*
G36*
X00127Y0044D02*
Y0041D01*
X00157*
X00154Y00418*
X0015Y00427*
X00143Y00433*
X00135Y00438*
X00127Y0044*
G37*
G36*
X02131Y00424D02*
X02115D01*
Y00407*
X02122Y0041*
X02128Y00416*
X02131Y00424*
G37*
G36*
X02105D02*
X02088D01*
X02091Y00416*
X02098Y0041*
X02105Y00407*
Y00424*
G37*
G36*
X01726D02*
X01709D01*
Y00407*
X01716Y0041*
X01723Y00416*
X01726Y00424*
G37*
G36*
X01699D02*
X01683D01*
X01686Y00416*
X01692Y0041*
X01699Y00407*
Y00424*
G37*
G36*
X0005Y00436D02*
X00041Y00434D01*
X00033Y00429*
X00027Y00423*
X00022Y00414*
X0002Y00406*
X0005*
Y00436*
G37*
G36*
X00316Y00483D02*
Y00448D01*
Y00413*
X00324Y00416*
X00332Y0042*
X00338Y00427*
X00341Y00432*
X00344*
X00347Y00431*
X00349Y00423*
X00353Y00415*
X00359Y0041*
Y00404*
X00357Y00403*
X00353Y00395*
X0035Y00387*
X00385*
Y00381*
X0039*
Y00346*
X00399Y00349*
X00407Y00353*
X00413Y0036*
X00414Y0036*
X00418Y00359*
X00417Y00351*
Y00349*
X00549*
Y00351*
X00546Y00363*
X00541Y00375*
X00534Y00386*
X00525Y00395*
X00523Y00396*
X00525Y00401*
X00528*
X00537Y00404*
X00545Y00409*
X00551Y00415*
X00553Y00418*
X00555Y00418*
X00559*
X00564Y00412*
X00573Y00408*
X00581Y00405*
Y0044*
Y00475*
X00573Y00473*
X00564Y00468*
X00558Y00462*
X00556Y00459*
X00554Y00459*
X0055*
X00545Y00464*
X00537Y00469*
X00528Y00472*
Y00437*
X00518*
Y00472*
X0051Y00469*
X00501Y00464*
X00495Y00458*
X00494Y00455*
X00492Y00455*
X00488Y00455*
X00484Y00462*
X00478Y00468*
X0047Y00473*
X00461Y00475*
Y0044*
X00451*
Y00475*
X00443Y00473*
X00435Y00468*
X00428Y00462*
X00424Y00454*
X00421Y00445*
Y00442*
X00416Y00442*
X00414Y0045*
X00409Y00458*
X00403Y00464*
X00395Y00469*
X00387Y00472*
Y00437*
X00376*
Y00472*
X00368Y00469*
X0036Y00464*
X00353Y00458*
X00351Y00453*
X00348*
X00345Y00454*
X00343Y00462*
X00338Y0047*
X00332Y00476*
X00324Y00481*
X00316Y00483*
G37*
G36*
X00746Y00428D02*
X00738Y00426D01*
X0073Y00421*
X00724Y00415*
X00719Y00407*
X00717Y00401*
X00715Y004*
X00712Y004*
X00706Y00405*
X00698Y0041*
X0069Y00412*
Y00377*
Y00342*
X00691Y00343*
X00693Y00342*
X00695Y00339*
X00693Y00331*
X00763*
X00761Y0034*
X00756Y00348*
X0075Y00353*
X00752Y00358*
X00752Y00358*
X00756*
X00765Y00361*
X00773Y00365*
X00779Y00372*
X00784Y0038*
X00787Y00388*
X00751*
Y00393*
X00746*
Y00428*
G37*
G36*
X02431Y00412D02*
X02414D01*
Y00395*
X02421Y00398*
X02427Y00405*
X02431Y00412*
G37*
G36*
X02404D02*
X02387D01*
X0239Y00405*
X02397Y00398*
X02404Y00395*
Y00412*
G37*
G36*
X02663Y00409D02*
X02647D01*
Y00392*
X02654Y00395*
X0266Y00401*
X02663Y00409*
G37*
G36*
X02637D02*
X0262D01*
X02623Y00401*
X02629Y00395*
X02637Y00392*
Y00409*
G37*
G36*
X02775Y00422D02*
X02769D01*
X02764Y0042*
X02759Y00415*
X02757Y00409*
Y00403*
X02759Y00398*
X02764Y00393*
X02769Y0039*
X02775*
X02781Y00393*
X02786Y00398*
X02788Y00403*
Y00409*
X02786Y00415*
X02781Y0042*
X02775Y00422*
G37*
G36*
X03601Y00417D02*
X03595D01*
X03589Y00415*
X03585Y00411*
X03583Y00405*
Y00398*
X03585Y00392*
X03589Y00388*
X03595Y00386*
X03601*
X03607Y00388*
X03612Y00392*
X03614Y00398*
Y00405*
X03612Y00411*
X03607Y00415*
X03601Y00417*
G37*
G36*
X00679Y00412D02*
X00671Y0041D01*
X00663Y00405*
X00657Y00399*
X00652Y00391*
X0065Y00383*
X00679*
Y00412*
G37*
G36*
X00939Y00404D02*
X00909D01*
X00912Y00396*
X00916Y00387*
X00923Y00381*
X00924Y00381*
X00922Y00376*
X00918Y00377*
Y00347*
X00948*
X00946Y00355*
X00941Y00364*
X00935Y0037*
X00934Y0037*
X00936Y00375*
X00939Y00374*
Y00404*
G37*
G36*
X00979D02*
X0095D01*
Y00374*
X00958Y00376*
X00966Y00381*
X00972Y00387*
X00977Y00396*
X00979Y00404*
G37*
G36*
X02418Y00387D02*
Y00371D01*
X02435*
X02431Y00378*
X02425Y00384*
X02418Y00387*
G37*
G36*
X02408D02*
X02401Y00384D01*
X02394Y00378*
X02391Y00371*
X02408*
Y00387*
G37*
G36*
X00897Y00396D02*
X00867D01*
Y00366*
X00875Y00368*
X00883Y00373*
X0089Y00379*
X00894Y00388*
X00897Y00396*
G37*
G36*
X0353Y00396D02*
X03524D01*
X03518Y00393*
X03514Y00389*
X03511Y00383*
Y00377*
X03514Y00371*
X03518Y00366*
X03524Y00364*
X0353*
X03536Y00366*
X0354Y00371*
X03543Y00377*
Y00383*
X0354Y00389*
X03536Y00393*
X0353Y00396*
G37*
G36*
X00287Y0041D02*
X00285D01*
Y00349*
X00346*
Y00351*
X00344Y00363*
X00338Y00375*
X00331Y00386*
X00322Y00395*
X00311Y00403*
X00299Y00407*
X00287Y0041*
G37*
G36*
X02979Y00379D02*
X02972D01*
X02966Y00376*
X02962Y00372*
X0296Y00366*
Y0036*
X02962Y00354*
X02966Y0035*
X02972Y00347*
X02979*
X02984Y0035*
X02989Y00354*
X02991Y0036*
Y00366*
X02989Y00372*
X02984Y00376*
X02979Y00379*
G37*
G36*
X00908Y00377D02*
X009Y00375D01*
X00891Y0037*
X00885Y00364*
X0088Y00355*
X00878Y00347*
X00908*
Y00377*
G37*
G36*
X00816D02*
Y00347D01*
X00846*
X00843Y00355*
X00838Y00364*
X00832Y0037*
X00824Y00375*
X00816Y00377*
G37*
G36*
X00805D02*
X00797Y00375D01*
X00789Y0037*
X00783Y00364*
X00778Y00355*
X00775Y00347*
X00805*
Y00377*
G37*
G36*
X0038Y00376D02*
X0035D01*
X00353Y00368*
X00357Y0036*
X00364Y00353*
X00372Y00349*
X0038Y00346*
Y00376*
G37*
G36*
X02435Y00361D02*
X02418D01*
Y00344*
X02425Y00347*
X02431Y00353*
X02435Y00361*
G37*
G36*
X02408D02*
X02391D01*
X02394Y00353*
X02401Y00347*
X02408Y00344*
Y00361*
G37*
G36*
X00624Y00373D02*
X00616Y00371D01*
X00608Y00366*
X00601Y0036*
X00597Y00351*
X00594Y00343*
X00624*
Y00373*
G37*
G36*
X00635D02*
Y00343D01*
X00664*
X00669Y00346*
X00671Y00345*
X00679Y00342*
Y00372*
X0065*
X00645Y00369*
X00643Y00371*
X00635Y00373*
G37*
G36*
X03277Y00374D02*
X0327D01*
X03264Y00371*
X0326Y00367*
X03258Y00361*
Y00355*
X0326Y00349*
X03264Y00345*
X0327Y00342*
X03277*
X03282Y00345*
X03287Y00349*
X03289Y00355*
Y00361*
X03287Y00367*
X03282Y00371*
X03277Y00374*
G37*
G36*
X00908Y00337D02*
X00878D01*
X00879Y00333*
X00875Y00329*
X00871Y00331*
X00863Y00334*
Y00304*
X00893*
X00892Y00308*
X00896Y00311*
X009Y00309*
X00908Y00307*
Y00337*
G37*
G36*
X00846D02*
X00775D01*
X00778Y00329*
X00783Y0032*
X00785Y00318*
X00783Y00313*
X0078Y00314*
Y00279*
Y00244*
X00788Y00246*
X0079Y00244*
X00792Y00242*
X00791Y00241*
X00861*
X00859Y00249*
X00854Y00257*
X00853Y00259*
X00855Y00264*
X00862*
X00871Y00266*
X00879Y00271*
X00886Y00277*
X0089Y00285*
X00893Y00294*
X00858*
Y00299*
X00853*
Y00334*
X0085Y00333*
X00845Y00337*
X00846*
G37*
G36*
X00948D02*
X00918D01*
Y00307*
X00926Y00309*
X00935Y00314*
X00941Y0032*
X00946Y00329*
X00948Y00337*
G37*
G36*
X00664Y00333D02*
X00635D01*
Y00303*
X00643Y00305*
X00651Y0031*
X00657Y00316*
X00662Y00325*
X00664Y00333*
G37*
G36*
X00624D02*
X00594D01*
X00597Y00325*
X00601Y00316*
X00608Y0031*
X00616Y00305*
X00624Y00303*
Y00333*
G37*
G36*
X00723Y00321D02*
X00693D01*
X00695Y00313*
X007Y00305*
X00706Y00298*
X00714Y00294*
X00723Y00291*
Y00321*
G37*
G36*
X00763D02*
X00733D01*
Y00291*
X00737Y00292*
X00741Y00288*
X0074Y00284*
X0077*
Y00314*
X00766Y00313*
X00762Y00317*
X00763Y00321*
G37*
G36*
X00549Y00339D02*
X00488D01*
Y00278*
X00489*
X00502Y00281*
X00514Y00285*
X00525Y00293*
X00534Y00302*
X00541Y00312*
X00546Y00325*
X00549Y00337*
Y00339*
G37*
G36*
X00478D02*
X00417D01*
Y00337*
X00419Y00325*
X00424Y00312*
X00431Y00302*
X0044Y00293*
X00451Y00285*
X00464Y00281*
X00476Y00278*
X00478*
Y00339*
G37*
G36*
X00346D02*
X00285D01*
Y00278*
X00287*
X00299Y00281*
X00311Y00285*
X00322Y00293*
X00331Y00302*
X00338Y00312*
X00344Y00325*
X00346Y00337*
Y00339*
G37*
G36*
X01355Y00293D02*
Y00276D01*
X01372*
X01368Y00283*
X01362Y0029*
X01355Y00293*
G37*
G36*
X01345D02*
X01338Y0029D01*
X01331Y00283*
X01328Y00276*
X01345*
Y00293*
G37*
G36*
X00946Y00302D02*
Y00272D01*
X00975*
X00973Y00281*
X00968Y00289*
X00962Y00295*
X00954Y003*
X00946Y00302*
G37*
G36*
X00935D02*
X00927Y003D01*
X00919Y00295*
X00912Y00289*
X00908Y00281*
X00905Y00272*
X00935*
Y00302*
G37*
G36*
X00682D02*
Y00272D01*
X00712*
X00709Y00281*
X00705Y00289*
X00698Y00295*
X0069Y003*
X00682Y00302*
G37*
G36*
X00605Y00298D02*
X00596Y00296D01*
X00588Y00291*
X00582Y00285*
X00577Y00277*
X00575Y00268*
X00605*
Y00298*
G37*
G36*
X00119Y00287D02*
Y00257D01*
X00149*
X00146Y00265*
X00142Y00273*
X00135Y00279*
X00127Y00284*
X00119Y00287*
G37*
G36*
X01372Y00266D02*
X01355D01*
Y0025*
X01362Y00253*
X01368Y00259*
X01372Y00266*
G37*
G36*
X01345D02*
X01328D01*
X01331Y00259*
X01338Y00253*
X01345Y0025*
Y00266*
G37*
G36*
X0077Y00274D02*
X0074D01*
X00742Y00266*
X00747Y00257*
X00753Y00251*
X00762Y00246*
X0077Y00244*
Y00274*
G37*
G36*
X00605Y00258D02*
X00575D01*
X00577Y0025*
X00582Y00242*
X00588Y00235*
X00596Y00231*
X00605Y00228*
Y00258*
G37*
G36*
X00224Y00282D02*
X00153D01*
X00156Y00274*
X00161Y00265*
X00167Y00259*
X0017Y00257*
X0017Y00256*
X0017Y00252*
X00163Y00248*
X00157Y00242*
X00152Y00233*
X0015Y00225*
X0022*
X00217Y00233*
X00212Y00242*
X00206Y00248*
X00203Y0025*
X00203Y00251*
X00203Y00255*
X0021Y00259*
X00216Y00265*
X00221Y00274*
X00224Y00282*
G37*
G36*
X03736Y00238D02*
Y00221D01*
X03752*
X03749Y00228*
X03743Y00235*
X03736Y00238*
G37*
G36*
X03726D02*
X03718Y00235D01*
X03712Y00228*
X03709Y00221*
X03726*
Y00238*
G37*
G36*
X01785Y00248D02*
X01778D01*
X01772Y00245*
X01768Y00241*
X01766Y00235*
Y00229*
X01768Y00223*
X01772Y00218*
X01778Y00216*
X01785*
X0179Y00218*
X01795Y00223*
X01797Y00229*
Y00235*
X01795Y00241*
X0179Y00245*
X01785Y00248*
G37*
G36*
X00975Y00262D02*
X00905D01*
X00908Y00254*
X00912Y00246*
X00914Y00244*
X00912Y00239*
X00904*
X00896Y00237*
X00887Y00232*
X00881Y00226*
X00876Y00218*
X00874Y00209*
X00944*
X00942Y00218*
X00937Y00226*
X00935Y00227*
X00938Y00232*
X00945*
X00954Y00235*
X00962Y00239*
X00968Y00246*
X00973Y00254*
X00975Y00262*
G37*
G36*
X00749Y00239D02*
Y00209D01*
X00779*
X00776Y00218*
X00772Y00226*
X00765Y00232*
X00757Y00237*
X00749Y00239*
G37*
G36*
X00738D02*
X0073Y00237D01*
X00722Y00232*
X00716Y00226*
X00711Y00218*
X00709Y00209*
X00738*
Y00239*
G37*
G36*
X00861Y00231D02*
X00791D01*
X00794Y00222*
X00798Y00214*
X00804Y00209*
X00802Y00204*
X00802Y00204*
X00798*
X00789Y00201*
X00783Y00198*
X00782Y00199*
X00781Y00199*
X00749*
Y00169*
X00757Y00172*
X00763Y00175*
X00764Y00174*
X00765Y00174*
X00838*
X00835Y00182*
X00831Y0019*
X00825Y00196*
X00827Y002*
X00827Y00201*
X00831*
X0084Y00203*
X00848Y00208*
X00854Y00214*
X00859Y00222*
X00861Y00231*
G37*
G36*
X0365Y00244D02*
X0364D01*
X03631Y00241*
X03624Y00234*
X0362Y00225*
Y00215*
X03624Y00206*
X03631Y00199*
X0364Y00195*
X0365*
X03659Y00199*
X03666Y00206*
X0367Y00215*
Y00225*
X03666Y00234*
X03659Y00241*
X0365Y00244*
G37*
G36*
X03492D02*
X03483D01*
X03474Y00241*
X03467Y00234*
X03463Y00225*
Y00215*
X03467Y00206*
X03474Y00199*
X03483Y00195*
X03492*
X03501Y00199*
X03509Y00206*
X03512Y00215*
Y00225*
X03509Y00234*
X03501Y00241*
X03492Y00244*
G37*
G36*
X03752Y00211D02*
X03736D01*
Y00194*
X03743Y00198*
X03749Y00204*
X03752Y00211*
G37*
G36*
X03726D02*
X03709D01*
X03712Y00204*
X03718Y00198*
X03726Y00194*
Y00211*
G37*
G36*
X00388Y00294D02*
X00375D01*
X00362Y0029*
X0035Y00284*
X0034Y00274*
X00334Y00262*
X0033Y0025*
Y00236*
X00334Y00223*
X0034Y00211*
X0035Y00201*
X00362Y00195*
X00375Y00192*
X00388*
X00401Y00195*
X00413Y00201*
X00422Y00211*
X00429Y00223*
X00433Y00236*
Y0025*
X00429Y00262*
X00422Y00274*
X00413Y00284*
X00401Y0029*
X00388Y00294*
G37*
G36*
X00597Y0022D02*
X00588Y00217D01*
X0058Y00212*
X00574Y00206*
X00569Y00198*
X00567Y0019*
X00597*
Y0022*
G37*
G36*
X00944Y00199D02*
X00914D01*
Y00169*
X00922Y00172*
X00931Y00176*
X00937Y00183*
X00942Y00191*
X00944Y00199*
G37*
G36*
X00904D02*
X00874D01*
X00876Y00191*
X00881Y00183*
X00887Y00176*
X00896Y00172*
X00904Y00169*
Y00199*
G37*
G36*
X00738D02*
X00709D01*
X00711Y00191*
X00716Y00183*
X00722Y00176*
X0073Y00172*
X00738Y00169*
Y00199*
G37*
G36*
X00704Y00187D02*
X00674D01*
Y00157*
X00682Y0016*
X0069Y00164*
X00697Y00171*
X00701Y00179*
X00704Y00187*
G37*
G36*
X00489Y00207D02*
X00488D01*
Y00146*
X00549*
Y00148*
X00546Y00161*
X00541Y00173*
X00534Y00183*
X00525Y00192*
X00514Y002*
X00502Y00205*
X00489Y00207*
G37*
G36*
X00478D02*
X00476D01*
X00464Y00205*
X00451Y002*
X0044Y00192*
X00431Y00183*
X00424Y00173*
X00419Y00161*
X00417Y00148*
Y00146*
X00478*
Y00207*
G37*
G36*
X00287D02*
X00285D01*
Y00146*
X00346*
Y00148*
X00344Y00161*
X00338Y00173*
X00331Y00183*
X00322Y00192*
X00311Y002*
X00299Y00205*
X00287Y00207*
G37*
G36*
X00376Y00153D02*
X00368Y0015D01*
X0036Y00146*
X00353Y00139*
X00351Y00135*
X00347Y00136*
X00285*
Y00075*
X00287*
X00299Y00078*
X00311Y00083*
X00322Y0009*
X00331Y00099*
X00338Y0011*
X00341Y00117*
X00346Y00116*
Y00113*
X00349Y00104*
X00353Y00096*
X0036Y0009*
X00368Y00085*
X00376Y00083*
Y00118*
Y00153*
G37*
G36*
X00898Y00161D02*
Y00131D01*
X00928*
X00926Y00139*
X00921Y00147*
X00915Y00153*
X00907Y00158*
X00898Y00161*
G37*
G36*
X00888D02*
X0088Y00158D01*
X00872Y00153*
X00865Y00147*
X00861Y00139*
X00858Y00131*
X00888*
Y00161*
G37*
G36*
X00745Y00157D02*
Y00127D01*
X00775*
X00772Y00135*
X00768Y00143*
X00761Y0015*
X00753Y00154*
X00745Y00157*
G37*
G36*
X00973Y00149D02*
Y00119D01*
X01003*
X01001Y00127*
X00996Y00135*
X0099Y00142*
X00981Y00146*
X00973Y00149*
G37*
G36*
X00963D02*
X00955Y00146D01*
X00946Y00142*
X0094Y00135*
X00935Y00127*
X00933Y00119*
X00963*
Y00149*
G37*
G36*
X01371Y00131D02*
Y00115D01*
X01387*
X01384Y00122*
X01378Y00128*
X01371Y00131*
G37*
G36*
X01361D02*
X01353Y00128D01*
X01347Y00122*
X01344Y00115*
X01361*
Y00131*
G37*
G36*
X00838Y00164D02*
X00768D01*
X0077Y00155*
X00775Y00147*
X00781Y00141*
X00789Y00136*
X00792Y00135*
X00793Y0013*
X00793*
X00787Y00124*
X00782Y00115*
X00779Y00107*
X0085*
X00847Y00115*
X00842Y00124*
X00836Y0013*
X00828Y00135*
X00825Y00135*
X00824Y00141*
X00824*
X00831Y00147*
X00835Y00155*
X00838Y00164*
G37*
G36*
X00928Y0012D02*
X00898D01*
Y0009*
X00907Y00093*
X00915Y00098*
X00921Y00104*
X00926Y00112*
X00928Y0012*
G37*
G36*
X00888D02*
X00858D01*
X00861Y00112*
X00865Y00104*
X00872Y00098*
X0088Y00093*
X00888Y0009*
Y0012*
G37*
G36*
X01387Y00105D02*
X01371D01*
Y00088*
X01378Y00091*
X01384Y00098*
X01387Y00105*
G37*
G36*
X01361D02*
X01344D01*
X01347Y00098*
X01353Y00091*
X01361Y00088*
Y00105*
G37*
G36*
X00775Y00116D02*
X00745D01*
Y00087*
X00753Y00089*
X00761Y00094*
X00768Y001*
X00772Y00108*
X00775Y00116*
G37*
G36*
X0325Y00155D02*
X0324D01*
X03231Y00153*
X03224Y00148*
X03217Y00142*
X03212Y00134*
X03211Y00125*
Y00116*
X03212Y00107*
X03217Y001*
X03224Y00093*
X03231Y00088*
X0324Y00086*
X0325*
X03258Y00088*
X03266Y00093*
X03272Y001*
X03277Y00107*
X03279Y00116*
Y00125*
X03277Y00134*
X03272Y00142*
X03266Y00148*
X03258Y00153*
X0325Y00155*
G37*
G36*
X0315D02*
X0314D01*
X03131Y00153*
X03124Y00148*
X03117Y00142*
X03112Y00134*
X0311Y00125*
Y00116*
X03112Y00107*
X03117Y001*
X03124Y00093*
X03131Y00088*
X0314Y00086*
X0315*
X03158Y00088*
X03166Y00093*
X03172Y001*
X03177Y00107*
X03179Y00116*
Y00125*
X03177Y00134*
X03172Y00142*
X03166Y00148*
X03158Y00153*
X0315Y00155*
G37*
G36*
X0305D02*
X0304D01*
X03031Y00153*
X03024Y00148*
X03017Y00142*
X03012Y00134*
X0301Y00125*
Y00116*
X03012Y00107*
X03017Y001*
X03024Y00093*
X03031Y00088*
X0304Y00086*
X0305*
X03058Y00088*
X03066Y00093*
X03072Y001*
X03077Y00107*
X03079Y00116*
Y00125*
X03077Y00134*
X03072Y00142*
X03066Y00148*
X03058Y00153*
X0305Y00155*
G37*
G36*
X0295D02*
X0294D01*
X02931Y00153*
X02924Y00148*
X02917Y00142*
X02912Y00134*
X0291Y00125*
Y00116*
X02912Y00107*
X02917Y001*
X02924Y00093*
X02931Y00088*
X0294Y00086*
X0295*
X02958Y00088*
X02966Y00093*
X02972Y001*
X02977Y00107*
X02979Y00116*
Y00125*
X02977Y00134*
X02972Y00142*
X02966Y00148*
X02958Y00153*
X0295Y00155*
G37*
G36*
X0285D02*
X0284D01*
X02831Y00153*
X02824Y00148*
X02817Y00142*
X02812Y00134*
X0281Y00125*
Y00116*
X02812Y00107*
X02817Y001*
X02824Y00093*
X02831Y00088*
X0284Y00086*
X0285*
X02858Y00088*
X02866Y00093*
X02872Y001*
X02877Y00107*
X02879Y00116*
Y00125*
X02877Y00134*
X02872Y00142*
X02866Y00148*
X02858Y00153*
X0285Y00155*
G37*
G36*
X0275D02*
X0274D01*
X02731Y00153*
X02724Y00148*
X02717Y00142*
X02712Y00134*
X02711Y00125*
Y00116*
X02712Y00107*
X02717Y001*
X02724Y00093*
X02731Y00088*
X0274Y00086*
X0275*
X02758Y00088*
X02766Y00093*
X02772Y001*
X02777Y00107*
X02779Y00116*
Y00125*
X02777Y00134*
X02772Y00142*
X02766Y00148*
X02758Y00153*
X0275Y00155*
G37*
G36*
X0265D02*
X0264D01*
X02631Y00153*
X02624Y00148*
X02617Y00142*
X02612Y00134*
X02611Y00125*
Y00116*
X02612Y00107*
X02617Y001*
X02624Y00093*
X02631Y00088*
X0264Y00086*
X0265*
X02658Y00088*
X02666Y00093*
X02672Y001*
X02677Y00107*
X02679Y00116*
Y00125*
X02677Y00134*
X02672Y00142*
X02666Y00148*
X02658Y00153*
X0265Y00155*
G37*
G36*
X0255D02*
X0254D01*
X02531Y00153*
X02524Y00148*
X02517Y00142*
X02512Y00134*
X02511Y00125*
Y00116*
X02512Y00107*
X02517Y001*
X02524Y00093*
X02531Y00088*
X0254Y00086*
X0255*
X02558Y00088*
X02566Y00093*
X02572Y001*
X02577Y00107*
X02579Y00116*
Y00125*
X02577Y00134*
X02572Y00142*
X02566Y00148*
X02558Y00153*
X0255Y00155*
G37*
G36*
X0245D02*
X0244D01*
X02431Y00153*
X02424Y00148*
X02417Y00142*
X02412Y00134*
X02411Y00125*
Y00116*
X02412Y00107*
X02417Y001*
X02424Y00093*
X02431Y00088*
X0244Y00086*
X0245*
X02458Y00088*
X02466Y00093*
X02472Y001*
X02477Y00107*
X02479Y00116*
Y00125*
X02477Y00134*
X02472Y00142*
X02466Y00148*
X02458Y00153*
X0245Y00155*
G37*
G36*
X0235D02*
X0234D01*
X02331Y00153*
X02324Y00148*
X02317Y00142*
X02312Y00134*
X0231Y00125*
Y00116*
X02312Y00107*
X02317Y001*
X02324Y00093*
X02331Y00088*
X0234Y00086*
X0235*
X02358Y00088*
X02366Y00093*
X02372Y001*
X02377Y00107*
X02379Y00116*
Y00125*
X02377Y00134*
X02372Y00142*
X02366Y00148*
X02358Y00153*
X0235Y00155*
G37*
G36*
X0225D02*
X0224D01*
X02231Y00153*
X02224Y00148*
X02217Y00142*
X02212Y00134*
X0221Y00125*
Y00116*
X02212Y00107*
X02217Y001*
X02224Y00093*
X02231Y00088*
X0224Y00086*
X0225*
X02258Y00088*
X02266Y00093*
X02272Y001*
X02277Y00107*
X02279Y00116*
Y00125*
X02277Y00134*
X02272Y00142*
X02266Y00148*
X02258Y00153*
X0225Y00155*
G37*
G36*
X0215D02*
X0214D01*
X02131Y00153*
X02124Y00148*
X02117Y00142*
X02112Y00134*
X02111Y00125*
Y00116*
X02112Y00107*
X02117Y001*
X02124Y00093*
X02131Y00088*
X0214Y00086*
X0215*
X02158Y00088*
X02166Y00093*
X02172Y001*
X02177Y00107*
X02179Y00116*
Y00125*
X02177Y00134*
X02172Y00142*
X02166Y00148*
X02158Y00153*
X0215Y00155*
G37*
G36*
X0205D02*
X0204D01*
X02031Y00153*
X02024Y00148*
X02017Y00142*
X02012Y00134*
X02011Y00125*
Y00116*
X02012Y00107*
X02017Y001*
X02024Y00093*
X02031Y00088*
X0204Y00086*
X0205*
X02058Y00088*
X02066Y00093*
X02072Y001*
X02077Y00107*
X02079Y00116*
Y00125*
X02077Y00134*
X02072Y00142*
X02066Y00148*
X02058Y00153*
X0205Y00155*
G37*
G36*
X0195D02*
X0194D01*
X01931Y00153*
X01924Y00148*
X01917Y00142*
X01912Y00134*
X0191Y00125*
Y00116*
X01912Y00107*
X01917Y001*
X01924Y00093*
X01931Y00088*
X0194Y00086*
X0195*
X01958Y00088*
X01966Y00093*
X01972Y001*
X01977Y00107*
X01979Y00116*
Y00125*
X01977Y00134*
X01972Y00142*
X01966Y00148*
X01958Y00153*
X0195Y00155*
G37*
G36*
X03969Y00143D02*
X03967D01*
X03953Y0014*
X03939Y00135*
X03927Y00127*
X03917Y00117*
X03909Y00105*
X03904Y00092*
X03901Y00077*
Y00075*
X03969*
Y00143*
G37*
G36*
X00549Y00136D02*
X00488D01*
Y00075*
X00489*
X00502Y00078*
X00514Y00083*
X00525Y0009*
X00534Y00099*
X00541Y0011*
X00546Y00122*
X00549Y00135*
Y00136*
G37*
G36*
X00387Y00153D02*
Y00118D01*
Y00083*
X00395Y00085*
X00403Y0009*
X00409Y00096*
X00414Y00104*
X00416Y00113*
Y00116*
X00422Y00117*
X00424Y0011*
X00431Y00099*
X0044Y0009*
X00451Y00083*
X00464Y00078*
X00476Y00075*
X00478*
Y00136*
X00416*
X00412Y00135*
X00409Y00139*
X00403Y00146*
X00395Y0015*
X00387Y00153*
G37*
G36*
X00754Y00074D02*
X00746Y00072D01*
X00738Y00067*
X00731Y00061*
X00727Y00052*
X00724Y00044*
X00754*
Y00074*
G37*
G36*
X00538D02*
X00529Y00072D01*
X00521Y00067*
X00515Y00061*
X0051Y00052*
X00508Y00044*
X00538*
Y00074*
G37*
%LNshm_pcb-3*%
%LPD*%
G36*
X03492Y00937D02*
X03488D01*
X03483Y00934*
X03478Y0093*
X03476Y00924*
Y00918*
X03478Y00912*
X03483Y00907*
X03488Y00905*
X03492*
Y00806*
X03442*
X03438Y00809*
X03433Y00812*
X03426*
X0342Y00809*
X03416Y00805*
X03414Y00799*
Y00793*
X03416Y00787*
X0342Y00783*
X03426Y0078*
X03433*
X03438Y00783*
X03442Y00786*
X03492*
Y00503*
X02456*
X02453Y00508*
X02454Y0051*
X02411*
X02412Y00508*
X02409Y00503*
X02232*
Y00689*
X02237Y00691*
X02241Y00695*
X02244Y00701*
Y00707*
X02241Y00713*
X02237Y00718*
X02232Y0072*
Y00818*
X02706*
Y00721*
X02703Y00718*
X02701Y00712*
Y00706*
X02703Y007*
X02707Y00696*
X02713Y00693*
X0272*
X02725Y00696*
X0273Y007*
X02732Y00706*
Y00712*
X0273Y00718*
X02726Y00721*
Y00818*
X0298*
Y01078*
X02983*
X02989Y01081*
X02993Y01085*
X02996Y01091*
Y01097*
X02993Y01103*
X02989Y01107*
X02983Y0111*
X0298*
Y01118*
X02983Y01121*
X02985Y01127*
Y01133*
X02983Y01139*
X0298Y01142*
Y0135*
X03492*
Y00937*
G37*
%LNshm_pcb-4*%
%LPC*%
G36*
X03457Y01293D02*
Y01276D01*
X03474*
X03471Y01283*
X03464Y0129*
X03457Y01293*
G37*
G36*
X03447D02*
X0344Y0129D01*
X03434Y01283*
X03431Y01276*
X03447*
Y01293*
G37*
G36*
X03095Y01291D02*
X03088D01*
X03083Y01288*
X03078Y01284*
X03076Y01278*
Y01272*
X03078Y01266*
X03083Y01262*
X03088Y01259*
X03095*
X031Y01262*
X03105Y01266*
X03107Y01272*
Y01278*
X03105Y01284*
X031Y01288*
X03095Y01291*
G37*
G36*
X03007D02*
X03D01*
X02994Y01288*
X0299Y01284*
X02988Y01278*
Y01272*
X0299Y01266*
X02994Y01262*
X03Y01259*
X03007*
X03012Y01262*
X03017Y01266*
X03019Y01272*
Y01278*
X03017Y01284*
X03012Y01288*
X03007Y01291*
G37*
G36*
X03474Y01266D02*
X03457D01*
Y0125*
X03464Y01253*
X03471Y01259*
X03474Y01266*
G37*
G36*
X03447D02*
X03431D01*
X03434Y01259*
X0344Y01253*
X03447Y0125*
Y01266*
G37*
G36*
X03329Y01086D02*
X03323D01*
X03317Y01084*
X03313Y01079*
X03311Y01074*
Y01067*
X03313Y01061*
X03316Y01058*
X03316Y01054*
X03315Y01053*
X0331*
X03302Y0105*
X03296Y01043*
X03293Y01036*
X03336*
X03333Y01043*
X03327Y0105*
X03327Y01055*
X03329*
X03335Y01057*
X0334Y01061*
X03342Y01067*
Y01074*
X0334Y01079*
X03335Y01084*
X03329Y01086*
G37*
G36*
X03336Y01026D02*
X0332D01*
Y01009*
X03327Y01012*
X03333Y01019*
X03336Y01026*
G37*
G36*
X03309D02*
X03293D01*
X03296Y01019*
X03302Y01012*
X03309Y01009*
Y01026*
G37*
G36*
X03463Y00999D02*
X03457D01*
X03451Y00997*
X03447Y00992*
X03444Y00987*
X03443Y00987*
X03439Y00986*
X03438Y00989*
X03434Y00993*
X03428Y00996*
X03422*
X03416Y00993*
X03411Y00989*
X03409Y00983*
Y00977*
X03411Y00971*
X03416Y00966*
X03422Y00964*
X03428*
X03434Y00966*
X03438Y00971*
X0344Y00976*
X03441Y00977*
X03446Y00977*
X03447Y00974*
X03451Y0097*
X03457Y00968*
X03463*
X03469Y0097*
X03473Y00974*
X03475Y0098*
Y00987*
X03473Y00992*
X03469Y00997*
X03463Y00999*
G37*
G36*
X03041Y00956D02*
X03035D01*
X03029Y00954*
X03025Y0095*
X03022Y00944*
Y00937*
X03025Y00932*
X03029Y00927*
X03035Y00925*
X03041*
X03047Y00927*
X03051Y00932*
X03054Y00937*
Y00944*
X03051Y0095*
X03047Y00954*
X03041Y00956*
G37*
G36*
X03298Y00941D02*
X03291D01*
X03286Y00938*
X03281Y00934*
X03279Y00928*
Y00922*
X03281Y00916*
X03286Y00912*
X03291Y00909*
X03298*
X03303Y00912*
X03308Y00916*
X0331Y00922*
Y00928*
X03308Y00934*
X03303Y00938*
X03298Y00941*
G37*
G36*
X03391Y00972D02*
X03385D01*
X03379Y0097*
X03374Y00966*
X03372Y0096*
Y00954*
X03374Y00948*
X03379Y00944*
X03385Y00941*
X0339*
X03391Y00936*
X03386Y00934*
X03382Y0093*
X03379Y00924*
Y00918*
X03382Y00912*
X03386Y00907*
X03392Y00905*
X03398*
X03404Y00907*
X03409Y00912*
X03411Y00918*
Y00924*
X03409Y0093*
X03404Y00934*
X03398Y00937*
X03393*
X03392Y00942*
X03397Y00944*
X03401Y00948*
X03403Y00954*
Y0096*
X03401Y00966*
X03397Y0097*
X03391Y00972*
G37*
G36*
X03092Y00927D02*
X03085D01*
X0308Y00925*
X03075Y0092*
X03073Y00914*
Y00909*
X03075Y00903*
X0308Y00898*
X03085Y00896*
X03092*
X03098Y00898*
X03102Y00903*
X03104Y00909*
Y00914*
X03102Y0092*
X03098Y00925*
X03092Y00927*
G37*
G36*
X03372Y00891D02*
X03366D01*
X03361Y00889*
X03356Y00884*
X03355Y00881*
X03349*
X03348Y00884*
X03343Y00889*
X03338Y00891*
X03331*
X03325Y00889*
X03321Y00884*
X03319Y00879*
Y00872*
X03321Y00866*
X03325Y00862*
X03331Y0086*
X03338*
X03343Y00862*
X03348Y00866*
X03349Y0087*
X03355*
X03356Y00866*
X03361Y00862*
X03366Y0086*
X03372*
X03378Y00862*
X03383Y00866*
X03385Y00872*
Y00879*
X03383Y00884*
X03378Y00889*
X03372Y00891*
G37*
G36*
X03006Y00905D02*
X03D01*
X02994Y00903*
X0299Y00899*
X02987Y00893*
Y00887*
X0299Y00881*
X02994Y00877*
X03Y00874*
X03006*
X03012Y00877*
X03016Y00881*
X03019Y00887*
Y00893*
X03016Y00899*
X03012Y00903*
X03006Y00905*
G37*
G36*
X03192Y00895D02*
X03185D01*
X03179Y00893*
X03175Y00888*
X03173Y00883*
Y00876*
X03175Y0087*
X03179Y00866*
X03185Y00864*
X03192*
X03198Y00866*
X03202Y0087*
X03204Y00876*
Y00883*
X03202Y00888*
X03198Y00893*
X03192Y00895*
G37*
G36*
X0344Y00886D02*
X03433D01*
X03427Y00883*
X03423Y00879*
X03421Y00873*
Y00867*
X03423Y00861*
X03427Y00857*
X03433Y00854*
X0344*
X03445Y00857*
X0345Y00861*
X03452Y00867*
Y00873*
X0345Y00879*
X03445Y00883*
X0344Y00886*
G37*
G36*
X03163Y00861D02*
X03157D01*
X03151Y00858*
X03147Y00854*
X03144Y00848*
Y00842*
X03147Y00836*
X03151Y00832*
X03157Y00829*
X03163*
X03169Y00832*
X03173Y00836*
X03176Y00842*
Y00848*
X03173Y00854*
X03169Y00858*
X03163Y00861*
G37*
G36*
X02839Y00764D02*
X02833D01*
X02827Y00762*
X02822Y00757*
X0282Y00751*
Y00746*
X02822Y0074*
X02827Y00735*
X02833Y00733*
X02839*
X02845Y00735*
X02849Y0074*
X02851Y00746*
Y00751*
X02849Y00757*
X02845Y00762*
X02839Y00764*
G37*
G36*
X03192Y00753D02*
X03185D01*
X03179Y00751*
X03175Y00747*
X03173Y00741*
Y00735*
X03175Y00729*
X03179Y00724*
X03185Y00722*
X03192*
X03198Y00724*
X03202Y00729*
X03204Y00735*
Y00741*
X03202Y00747*
X03198Y00751*
X03192Y00753*
G37*
G36*
X02792Y00743D02*
X02786D01*
X0278Y0074*
X02775Y00736*
X02773Y0073*
Y00724*
X02775Y00718*
X0278Y00714*
X02786Y00711*
X02792*
X02798Y00714*
X02802Y00718*
X02805Y00724*
Y0073*
X02802Y00736*
X02798Y0074*
X02792Y00743*
G37*
G36*
X03089Y00736D02*
X03083D01*
X03077Y00734*
X03072Y00729*
X0307Y00724*
Y00717*
X03072Y00711*
X03077Y00707*
X03083Y00705*
X03089*
X03095Y00707*
X03099Y00711*
X03101Y00717*
Y00724*
X03099Y00729*
X03095Y00734*
X03089Y00736*
G37*
G36*
X02935Y00732D02*
X02929D01*
X02924Y00729*
X02919Y00725*
X02917Y00719*
Y00713*
X02919Y00707*
X02924Y00703*
X02929Y007*
X02935*
X02941Y00703*
X02946Y00707*
X02948Y00713*
Y00719*
X02946Y00725*
X02941Y00729*
X02935Y00732*
G37*
G36*
X03448D02*
X03441D01*
X03434Y0073*
X03428Y00727*
X03423Y00722*
X0342Y00716*
X03418Y00709*
Y00702*
X0342Y00695*
X03423Y00689*
X03428Y00684*
X03434Y00681*
X03441Y00679*
X03448*
X03455Y00681*
X03461Y00684*
X03466Y00689*
X03469Y00695*
X03471Y00702*
Y00709*
X03469Y00716*
X03466Y00722*
X03461Y00727*
X03455Y0073*
X03448Y00732*
G37*
G36*
X02999Y00706D02*
X02992D01*
X02987Y00704*
X02982Y007*
X0298Y00694*
Y00687*
X02982Y00681*
X02987Y00677*
X02992Y00675*
X02999*
X03005Y00677*
X03009Y00681*
X03011Y00687*
Y00694*
X03009Y007*
X03005Y00704*
X02999Y00706*
G37*
G36*
X03137Y00704D02*
X0313D01*
X03124Y00702*
X0312Y00698*
X03118Y00692*
Y00685*
X0312Y00679*
X03124Y00675*
X0313Y00673*
X03137*
X03142Y00675*
X03147Y00679*
X03149Y00685*
Y00692*
X03147Y00698*
X03142Y00702*
X03137Y00704*
G37*
G36*
X02662Y00742D02*
X02652D01*
X02643Y00739*
X02635Y00735*
X02628Y00727*
X02623Y00719*
X0262Y0071*
Y007*
X02623Y00691*
X02628Y00683*
X02635Y00676*
X02643Y00671*
X02652Y00669*
X02662*
X02671Y00671*
X02679Y00676*
X02686Y00683*
X02691Y00691*
X02694Y007*
Y0071*
X02691Y00719*
X02686Y00727*
X02679Y00735*
X02671Y00739*
X02662Y00742*
G37*
G36*
X03074Y00685D02*
X03067D01*
X03061Y00682*
X03057Y00678*
X03055Y00672*
Y00666*
X03057Y00661*
X03057Y0066*
X03053Y00657*
X03053Y00657*
X03052Y00659*
X03046Y00661*
X0304*
X03034Y00659*
X03029Y00654*
X03027Y00648*
Y00642*
X03029Y00636*
X03034Y00632*
X0304Y00629*
X03046*
X03052Y00632*
X03056Y00636*
X03059Y00642*
Y00648*
X03057Y00653*
X03056Y00654*
X0306Y00657*
X03061Y00657*
X03061Y00655*
X03067Y00653*
X03074*
X03079Y00655*
X03084Y0066*
X03086Y00666*
Y00672*
X03084Y00678*
X03079Y00682*
X03074Y00685*
G37*
G36*
X02803Y00677D02*
X02796D01*
X0279Y00674*
X02786Y0067*
X02784Y00664*
Y00658*
X02786Y00652*
X0279Y00648*
X02796Y00645*
X02803*
X02809Y00648*
X02813Y00652*
X02815Y00658*
Y00664*
X02813Y0067*
X02809Y00674*
X02803Y00677*
G37*
G36*
X02381Y00673D02*
X02374D01*
X02368Y0067*
X02364Y00666*
X02362Y0066*
Y00654*
X02364Y00648*
X02368Y00644*
X02374Y00641*
X02381*
X02387Y00644*
X02391Y00648*
X02393Y00654*
Y0066*
X02391Y00666*
X02387Y0067*
X02381Y00673*
G37*
G36*
X02499Y00634D02*
Y00617D01*
X02516*
X02512Y00625*
X02506Y00631*
X02499Y00634*
G37*
G36*
X02489D02*
X02482Y00631D01*
X02475Y00625*
X02472Y00617*
X02489*
Y00634*
G37*
G36*
X02815Y00626D02*
X02809D01*
X02803Y00624*
X02798Y00619*
X02796Y00614*
Y00607*
X02798Y00601*
X02803Y00597*
X02809Y00595*
X02815*
X02821Y00597*
X02825Y00601*
X02827Y00607*
Y00614*
X02825Y00619*
X02821Y00624*
X02815Y00626*
G37*
G36*
X02516Y00607D02*
X02499D01*
Y0059*
X02506Y00594*
X02512Y006*
X02516Y00607*
G37*
G36*
X02489D02*
X02472D01*
X02475Y006*
X02482Y00594*
X02489Y0059*
Y00607*
G37*
G36*
X02325Y00582D02*
X02319D01*
X02313Y0058*
X02309Y00575*
X02307Y0057*
Y00563*
X02309Y00557*
X02313Y00553*
X02319Y00551*
X02325*
X02331Y00553*
X02336Y00557*
X02338Y00563*
Y0057*
X02336Y00575*
X02331Y0058*
X02325Y00582*
G37*
G36*
X03275Y00581D02*
X03269D01*
X03263Y00579*
X03259Y00574*
X03256Y00568*
Y00562*
X03259Y00557*
X03263Y00552*
X03269Y0055*
X03275*
X03281Y00552*
X03285Y00557*
X03288Y00562*
Y00568*
X03285Y00574*
X03281Y00579*
X03275Y00581*
G37*
G36*
X02386Y00575D02*
X02379D01*
X02374Y00573*
X02369Y00569*
X02367Y00563*
Y00557*
X02369Y00551*
X02374Y00546*
X02379Y00544*
X02386*
X02392Y00546*
X02396Y00551*
X02398Y00557*
Y00563*
X02396Y00569*
X02392Y00573*
X02386Y00575*
G37*
G36*
X0255Y00562D02*
X02544D01*
X02538Y0056*
X02533Y00556*
X02531Y0055*
Y00544*
X02533Y00538*
X02538Y00533*
X02544Y00531*
X0255*
X02556Y00533*
X0256Y00538*
X02562Y00544*
Y0055*
X0256Y00556*
X02556Y0056*
X0255Y00562*
G37*
G36*
X02431Y00561D02*
X02424D01*
X02419Y00559*
X02414Y00555*
X02412Y00549*
Y00542*
X02414Y00537*
X02415Y00536*
Y00529*
X02414Y00527*
X02411Y0052*
X02454*
X02451Y00527*
X02445Y00534*
X02444*
X02442Y0054*
X02443Y00542*
Y00549*
X02441Y00555*
X02437Y00559*
X02431Y00561*
G37*
%LNshm_pcb-5*%
%LPD*%
G54D10*
X01055Y0079D02*
D01*
X01055Y0079*
X01055Y00791*
X01055Y00791*
X01054Y00791*
X01054Y00791*
X01054Y00792*
X01054Y00792*
X01054Y00792*
X01054Y00792*
X01054Y00793*
X01054Y00793*
X01053Y00793*
X01053Y00793*
X01053Y00793*
X01053Y00793*
X01052Y00794*
X01052Y00794*
X01052Y00794*
X01052Y00794*
X01051Y00794*
X01051Y00794*
X01051Y00794*
X01051*
X0105Y00794*
X0105Y00794*
X0105Y00794*
X01049Y00794*
X01049Y00794*
X01049Y00794*
X01049Y00793*
X01048Y00793*
X01048Y00793*
X01048Y00793*
X01048Y00793*
X01048Y00793*
X01047Y00792*
X01047Y00792*
X01047Y00792*
X01047Y00792*
X01047Y00791*
X01047Y00791*
X01047Y00791*
X01047Y00791*
X01047Y0079*
X01047Y0079*
X01047Y0079*
X01047Y0079*
X01047Y00789*
X01047Y00789*
X01047Y00789*
X01047Y00788*
X01047Y00788*
X01047Y00788*
X01047Y00788*
X01048Y00788*
X01048Y00787*
X01048Y00787*
X01048Y00787*
X01048Y00787*
X01049Y00787*
X01049Y00787*
X01049Y00786*
X01049Y00786*
X0105Y00786*
X0105Y00786*
X0105Y00786*
X01051Y00786*
X01051*
X01051Y00786*
X01051Y00786*
X01052Y00786*
X01052Y00786*
X01052Y00786*
X01052Y00787*
X01053Y00787*
X01053Y00787*
X01053Y00787*
X01053Y00787*
X01054Y00787*
X01054Y00788*
X01054Y00788*
X01054Y00788*
X01054Y00788*
X01054Y00788*
X01054Y00789*
X01054Y00789*
X01055Y00789*
X01055Y0079*
X01055Y0079*
X01055Y0079*
X01009Y01156D02*
D01*
X01009Y01156*
X01009Y01157*
X01009Y01157*
X01009Y01157*
X01009Y01158*
X01009Y01158*
X01009Y01158*
X01009Y01158*
X01009Y01159*
X01008Y01159*
X01008Y01159*
X01008Y01159*
X01008Y01159*
X01008Y01159*
X01007Y0116*
X01007Y0116*
X01007Y0116*
X01007Y0116*
X01006Y0116*
X01006Y0116*
X01006Y0116*
X01006Y0116*
X01005*
X01005Y0116*
X01005Y0116*
X01004Y0116*
X01004Y0116*
X01004Y0116*
X01004Y0116*
X01003Y0116*
X01003Y01159*
X01003Y01159*
X01003Y01159*
X01003Y01159*
X01002Y01159*
X01002Y01159*
X01002Y01158*
X01002Y01158*
X01002Y01158*
X01002Y01158*
X01002Y01157*
X01002Y01157*
X01002Y01157*
X01001Y01156*
X01001Y01156*
X01001Y01156*
X01002Y01156*
X01002Y01155*
X01002Y01155*
X01002Y01155*
X01002Y01155*
X01002Y01154*
X01002Y01154*
X01002Y01154*
X01002Y01154*
X01003Y01153*
X01003Y01153*
X01003Y01153*
X01003Y01153*
X01003Y01153*
X01004Y01153*
X01004Y01153*
X01004Y01152*
X01004Y01152*
X01005Y01152*
X01005Y01152*
X01005Y01152*
X01006*
X01006Y01152*
X01006Y01152*
X01006Y01152*
X01007Y01152*
X01007Y01153*
X01007Y01153*
X01007Y01153*
X01008Y01153*
X01008Y01153*
X01008Y01153*
X01008Y01153*
X01008Y01154*
X01009Y01154*
X01009Y01154*
X01009Y01154*
X01009Y01155*
X01009Y01155*
X01009Y01155*
X01009Y01155*
X01009Y01156*
X01009Y01156*
X01009Y01156*
X02133Y01883D02*
D01*
X02133Y01883*
X02133Y01884*
X02132Y01884*
X02132Y01884*
X02132Y01884*
X02132Y01885*
X02132Y01885*
X02132Y01885*
X02132Y01885*
X02132Y01885*
X02131Y01886*
X02131Y01886*
X02131Y01886*
X02131Y01886*
X02131Y01886*
X0213Y01887*
X0213Y01887*
X0213Y01887*
X0213Y01887*
X02129Y01887*
X02129Y01887*
X02129Y01887*
X02128*
X02128Y01887*
X02128Y01887*
X02128Y01887*
X02127Y01887*
X02127Y01887*
X02127Y01887*
X02127Y01886*
X02126Y01886*
X02126Y01886*
X02126Y01886*
X02126Y01886*
X02126Y01885*
X02125Y01885*
X02125Y01885*
X02125Y01885*
X02125Y01885*
X02125Y01884*
X02125Y01884*
X02125Y01884*
X02125Y01884*
X02125Y01883*
X02125Y01883*
X02125Y01883*
X02125Y01882*
X02125Y01882*
X02125Y01882*
X02125Y01882*
X02125Y01881*
X02125Y01881*
X02125Y01881*
X02125Y01881*
X02126Y0188*
X02126Y0188*
X02126Y0188*
X02126Y0188*
X02126Y0188*
X02127Y0188*
X02127Y01879*
X02127Y01879*
X02127Y01879*
X02128Y01879*
X02128Y01879*
X02128Y01879*
X02128Y01879*
X02129*
X02129Y01879*
X02129Y01879*
X0213Y01879*
X0213Y01879*
X0213Y01879*
X0213Y01879*
X02131Y0188*
X02131Y0188*
X02131Y0188*
X02131Y0188*
X02131Y0188*
X02132Y0188*
X02132Y01881*
X02132Y01881*
X02132Y01881*
X02132Y01881*
X02132Y01882*
X02132Y01882*
X02132Y01882*
X02133Y01882*
X02133Y01883*
X02133Y01883*
X02298D02*
D01*
X02298Y01883*
X02298Y01884*
X02298Y01884*
X02298Y01884*
X02298Y01884*
X02298Y01885*
X02297Y01885*
X02297Y01885*
X02297Y01885*
X02297Y01885*
X02297Y01886*
X02297Y01886*
X02296Y01886*
X02296Y01886*
X02296Y01886*
X02296Y01887*
X02295Y01887*
X02295Y01887*
X02295Y01887*
X02295Y01887*
X02294Y01887*
X02294Y01887*
X02294*
X02294Y01887*
X02293Y01887*
X02293Y01887*
X02293Y01887*
X02293Y01887*
X02292Y01887*
X02292Y01886*
X02292Y01886*
X02292Y01886*
X02291Y01886*
X02291Y01886*
X02291Y01885*
X02291Y01885*
X02291Y01885*
X02291Y01885*
X0229Y01885*
X0229Y01884*
X0229Y01884*
X0229Y01884*
X0229Y01884*
X0229Y01883*
X0229Y01883*
X0229Y01883*
X0229Y01882*
X0229Y01882*
X0229Y01882*
X0229Y01882*
X0229Y01881*
X02291Y01881*
X02291Y01881*
X02291Y01881*
X02291Y0188*
X02291Y0188*
X02291Y0188*
X02292Y0188*
X02292Y0188*
X02292Y0188*
X02292Y01879*
X02293Y01879*
X02293Y01879*
X02293Y01879*
X02293Y01879*
X02294Y01879*
X02294Y01879*
X02294*
X02294Y01879*
X02295Y01879*
X02295Y01879*
X02295Y01879*
X02295Y01879*
X02296Y01879*
X02296Y0188*
X02296Y0188*
X02296Y0188*
X02297Y0188*
X02297Y0188*
X02297Y0188*
X02297Y01881*
X02297Y01881*
X02297Y01881*
X02298Y01881*
X02298Y01882*
X02298Y01882*
X02298Y01882*
X02298Y01882*
X02298Y01883*
X02298Y01883*
X02473D02*
D01*
X02473Y01883*
X02473Y01884*
X02473Y01884*
X02473Y01884*
X02473Y01884*
X02473Y01885*
X02473Y01885*
X02473Y01885*
X02472Y01885*
X02472Y01885*
X02472Y01886*
X02472Y01886*
X02472Y01886*
X02471Y01886*
X02471Y01886*
X02471Y01887*
X02471Y01887*
X0247Y01887*
X0247Y01887*
X0247Y01887*
X0247Y01887*
X02469Y01887*
X02469*
X02469Y01887*
X02469Y01887*
X02468Y01887*
X02468Y01887*
X02468Y01887*
X02467Y01887*
X02467Y01886*
X02467Y01886*
X02467Y01886*
X02467Y01886*
X02466Y01886*
X02466Y01885*
X02466Y01885*
X02466Y01885*
X02466Y01885*
X02466Y01885*
X02465Y01884*
X02465Y01884*
X02465Y01884*
X02465Y01884*
X02465Y01883*
X02465Y01883*
X02465Y01883*
X02465Y01882*
X02465Y01882*
X02465Y01882*
X02465Y01882*
X02466Y01881*
X02466Y01881*
X02466Y01881*
X02466Y01881*
X02466Y0188*
X02466Y0188*
X02467Y0188*
X02467Y0188*
X02467Y0188*
X02467Y0188*
X02467Y01879*
X02468Y01879*
X02468Y01879*
X02468Y01879*
X02469Y01879*
X02469Y01879*
X02469Y01879*
X02469*
X0247Y01879*
X0247Y01879*
X0247Y01879*
X0247Y01879*
X02471Y01879*
X02471Y01879*
X02471Y0188*
X02471Y0188*
X02472Y0188*
X02472Y0188*
X02472Y0188*
X02472Y0188*
X02472Y01881*
X02473Y01881*
X02473Y01881*
X02473Y01881*
X02473Y01882*
X02473Y01882*
X02473Y01882*
X02473Y01882*
X02473Y01883*
X02473Y01883*
X02626D02*
D01*
X02626Y01883*
X02626Y01884*
X02626Y01884*
X02626Y01884*
X02626Y01884*
X02626Y01885*
X02625Y01885*
X02625Y01885*
X02625Y01885*
X02625Y01885*
X02625Y01886*
X02625Y01886*
X02624Y01886*
X02624Y01886*
X02624Y01886*
X02624Y01887*
X02623Y01887*
X02623Y01887*
X02623Y01887*
X02623Y01887*
X02622Y01887*
X02622Y01887*
X02622*
X02622Y01887*
X02621Y01887*
X02621Y01887*
X02621Y01887*
X0262Y01887*
X0262Y01887*
X0262Y01886*
X0262Y01886*
X0262Y01886*
X02619Y01886*
X02619Y01886*
X02619Y01885*
X02619Y01885*
X02619Y01885*
X02618Y01885*
X02618Y01885*
X02618Y01884*
X02618Y01884*
X02618Y01884*
X02618Y01884*
X02618Y01883*
X02618Y01883*
X02618Y01883*
X02618Y01882*
X02618Y01882*
X02618Y01882*
X02618Y01882*
X02618Y01881*
X02618Y01881*
X02619Y01881*
X02619Y01881*
X02619Y0188*
X02619Y0188*
X02619Y0188*
X0262Y0188*
X0262Y0188*
X0262Y0188*
X0262Y01879*
X0262Y01879*
X02621Y01879*
X02621Y01879*
X02621Y01879*
X02622Y01879*
X02622Y01879*
X02622*
X02622Y01879*
X02623Y01879*
X02623Y01879*
X02623Y01879*
X02623Y01879*
X02624Y01879*
X02624Y0188*
X02624Y0188*
X02624Y0188*
X02625Y0188*
X02625Y0188*
X02625Y0188*
X02625Y01881*
X02625Y01881*
X02625Y01881*
X02626Y01881*
X02626Y01882*
X02626Y01882*
X02626Y01882*
X02626Y01882*
X02626Y01883*
X02626Y01883*
X00381Y00529D02*
Y00578D01*
X0046*
Y00529D02*
Y00578D01*
X00381Y00529D02*
X0046D01*
X03752Y00083D02*
X03784D01*
X03752D02*
Y00146D01*
X03784*
Y00083D02*
Y00146D01*
X03274Y00208D02*
X03305D01*
X03274D02*
Y00271D01*
X03305*
Y00208D02*
Y00271D01*
X03261Y00823D02*
Y00855D01*
X03198Y00823D02*
X03261D01*
X03198D02*
Y00855D01*
X03261*
X02816Y00843D02*
X02847D01*
X02816D02*
Y00906D01*
X02847*
Y00843D02*
Y00906D01*
X0382Y00393D02*
X03945D01*
X0382Y00295D02*
Y00393D01*
Y00295D02*
X03945D01*
Y00393*
X02375Y02651D02*
X02501D01*
X02375Y02553D02*
Y02651D01*
Y02553D02*
X02501D01*
Y02651*
X02375Y02513D02*
X02501D01*
X02375Y02415D02*
Y02513D01*
Y02415D02*
X02501D01*
Y02513*
X01895Y0007D02*
X03295D01*
X01895D02*
Y0017D01*
X03295*
Y0007D02*
Y0017D01*
X02446Y02789D02*
X03846D01*
X02446D02*
Y02889D01*
X03846*
Y02789D02*
Y02889D01*
X0262Y00803D02*
X03482D01*
X0262Y00499D02*
Y00803D01*
Y00499D02*
X03482D01*
Y00803*
X02311Y01485D02*
Y01548D01*
X0228D02*
X02311D01*
X0228Y01485D02*
Y01548D01*
Y01485D02*
X02311D01*
X02331Y01345D02*
Y01408D01*
Y01345D02*
X02363D01*
Y01408*
X02331D02*
X02363D01*
X00257Y-00213D02*
Y00105D01*
Y-00213D02*
X00507D01*
Y00105*
X00244D02*
Y00381D01*
X00519*
Y00105D02*
Y00381D01*
X00244Y00105D02*
X00519D01*
X03776Y00096D02*
Y00344D01*
X03357Y00096D02*
X03776D01*
X03357D02*
Y00344D01*
X03776*
X03881Y00795D02*
X03944D01*
Y00826*
X03881D02*
X03944D01*
X03881Y00795D02*
Y00826D01*
X03613Y01846D02*
X03692D01*
X03613Y01767D02*
Y01846D01*
Y01767D02*
X03692D01*
Y01846*
X03673Y01633D02*
X03704D01*
Y01696*
X03673D02*
X03704D01*
X03673Y01633D02*
Y01696D01*
X0122Y00318D02*
X01456D01*
Y00082D02*
Y00318D01*
X0122Y00082D02*
X01456D01*
X0122D02*
Y00318D01*
X03807Y02133D02*
Y02448D01*
X04003*
Y02133D02*
Y02448D01*
X03807Y02133D02*
X04003D01*
X03187Y02421D02*
X03206D01*
Y02381D02*
Y02421D01*
X03187Y02381D02*
X03206D01*
X03187D02*
Y02421D01*
X00687Y0227D02*
Y02877D01*
X00246D02*
X00687D01*
X00246Y0227D02*
Y02877D01*
Y0227D02*
X00687D01*
X0095Y02607D02*
Y02843D01*
X01186*
Y02607D02*
Y02843D01*
X0095Y02607D02*
X01186D01*
X0093Y02478D02*
X00993D01*
Y02446D02*
Y02478D01*
X0093Y02446D02*
X00993D01*
X0093D02*
Y02478D01*
X03383Y02401D02*
Y02433D01*
X0332D02*
X03383D01*
X0332Y02401D02*
Y02433D01*
Y02401D02*
X03383D01*
X00849Y01163D02*
Y01195D01*
X00786Y01163D02*
X00849D01*
X00786D02*
Y01195D01*
X00849*
X01185Y0063D02*
X01736D01*
Y00031D02*
Y0063D01*
X01185Y00031D02*
X01736D01*
X01185D02*
Y0063D01*
X0075Y01487D02*
X00812D01*
Y01518*
X0075D02*
X00812D01*
X0075Y01487D02*
Y01518D01*
X00125Y01117D02*
X00156D01*
X00125D02*
Y0118D01*
X00156*
Y01117D02*
Y0118D01*
X00619Y01374D02*
Y01405D01*
X00555Y01374D02*
X00619D01*
X00555D02*
Y01405D01*
X00619*
X02607Y00316D02*
X0267D01*
Y00348*
X02607D02*
X0267D01*
X02607Y00316D02*
Y00348D01*
X01627Y00681D02*
Y00744D01*
Y00681D02*
X01659D01*
Y00744*
X01627D02*
X01659D01*
X01683D02*
X01714D01*
Y00681D02*
Y00744D01*
X01683Y00681D02*
X01714D01*
X01683D02*
Y00744D01*
X01364D02*
X01395D01*
Y00681D02*
Y00744D01*
X01364Y00681D02*
X01395D01*
X01364D02*
Y00744D01*
X01576D02*
X01608D01*
Y00681D02*
Y00744D01*
X01576Y00681D02*
X01608D01*
X01576D02*
Y00744D01*
X02644Y0116D02*
X02762D01*
X02644Y01062D02*
Y0116D01*
Y01062D02*
X02762D01*
Y0116*
X01651Y00616D02*
X01714D01*
Y00576D02*
Y00616D01*
X01651Y00576D02*
X01714D01*
X01651D02*
Y00616D01*
X03451Y01063D02*
X03502D01*
X03451D02*
Y01111D01*
X03502*
Y01063D02*
Y01111D01*
X0147Y00681D02*
Y00744D01*
Y00681D02*
X01501D01*
Y00744*
X0147D02*
X01501D01*
X01415Y00681D02*
Y00744D01*
Y00681D02*
X01446D01*
Y00744*
X01415D02*
X01446D01*
G54D14*
X02713Y01596D02*
D01*
X02713Y01597*
X02713Y01599*
X02713Y016*
X02713Y01601*
X02712Y01603*
X02712Y01604*
X02711Y01605*
X0271Y01606*
X0271Y01608*
X02709Y01609*
X02708Y0161*
X02707Y01611*
X02706Y01611*
X02705Y01612*
X02703Y01613*
X02702Y01614*
X02701Y01614*
X027Y01615*
X02698Y01615*
X02697Y01615*
X02696Y01616*
X02694Y01616*
X02693*
X02692Y01616*
X0269Y01615*
X02689Y01615*
X02688Y01615*
X02686Y01614*
X02685Y01614*
X02684Y01613*
X02683Y01612*
X02681Y01611*
X0268Y01611*
X02679Y0161*
X02679Y01609*
X02678Y01608*
X02677Y01606*
X02676Y01605*
X02676Y01604*
X02675Y01603*
X02675Y01601*
X02674Y016*
X02674Y01599*
X02674Y01597*
X02674Y01596*
X02674Y01595*
X02674Y01593*
X02674Y01592*
X02675Y01591*
X02675Y01589*
X02676Y01588*
X02676Y01587*
X02677Y01586*
X02678Y01584*
X02679Y01583*
X02679Y01582*
X0268Y01581*
X02681Y0158*
X02683Y0158*
X02684Y01579*
X02685Y01578*
X02686Y01578*
X02688Y01577*
X02689Y01577*
X0269Y01577*
X02692Y01576*
X02693Y01576*
X02694*
X02696Y01576*
X02697Y01577*
X02698Y01577*
X027Y01577*
X02701Y01578*
X02702Y01578*
X02703Y01579*
X02705Y0158*
X02706Y0158*
X02707Y01581*
X02708Y01582*
X02709Y01583*
X0271Y01584*
X0271Y01586*
X02711Y01587*
X02712Y01588*
X02712Y01589*
X02713Y01591*
X02713Y01592*
X02713Y01593*
X02713Y01595*
X02713Y01596*
X01213Y00972D02*
X01276D01*
Y0094D02*
Y00972D01*
X01213Y0094D02*
X01276D01*
X01213D02*
Y00972D01*
X02992Y00811D02*
Y00874D01*
X03118*
Y00811D02*
Y00874D01*
X02992Y00811D02*
X03118D01*
X01826Y02035D02*
X0198D01*
Y01842D02*
Y02035D01*
X01826Y01842D02*
X0198D01*
X01826D02*
Y02035D01*
Y01985D02*
X01876Y02035D01*
X02527Y01886D02*
Y01918D01*
Y01886D02*
X0259D01*
Y01918*
X02527D02*
X0259D01*
X02577Y01936D02*
X02592Y01951D01*
Y01936D02*
Y01967D01*
X02529D02*
X02592D01*
X02529Y01936D02*
Y01967D01*
Y01936D02*
X02592D01*
X02409D02*
X02472D01*
X02409D02*
Y01967D01*
X02472*
Y01936D02*
Y01967D01*
X02456Y01936D02*
X02472Y01951D01*
X01541Y00844D02*
X01561Y00824D01*
X01541D02*
X02328D01*
Y01612*
X01541D02*
X02328D01*
X01541Y00824D02*
Y01612D01*
X02852Y01694D02*
X02883D01*
Y0163D02*
Y01694D01*
X02852Y0163D02*
X02883D01*
X02852D02*
Y01694D01*
X02915D02*
X02946D01*
Y0163D02*
Y01694D01*
X02915Y0163D02*
X02946D01*
X02915D02*
Y01694D01*
X0294Y01551D02*
Y01582D01*
X02877Y01551D02*
X0294D01*
X02877D02*
Y01582D01*
X0294*
X02942Y01492D02*
Y01523D01*
X02879Y01492D02*
X02942D01*
X02879D02*
Y01523D01*
X02942*
X02377Y01556D02*
Y01587D01*
X0244*
Y01556D02*
Y01587D01*
X02377Y01556D02*
X0244D01*
X02377Y01494D02*
Y01526D01*
X0244*
Y01494D02*
Y01526D01*
X02377Y01494D02*
X0244D01*
X0239Y01413D02*
X02422D01*
Y0135D02*
Y01413D01*
X0239Y0135D02*
X02422D01*
X0239D02*
Y01413D01*
X02677Y01358D02*
Y01389D01*
X02614Y01358D02*
X02677D01*
X02614D02*
Y01389D01*
X02677*
X02724Y00622D02*
X02787D01*
Y00496D02*
Y00622D01*
X02724Y00496D02*
X02787D01*
X02724D02*
Y00622D01*
X02792Y01435D02*
Y01623D01*
X02595Y01435D02*
X02792D01*
X02783Y01631D02*
X02792Y01623D01*
X02595Y01435D02*
Y01631D01*
X02783*
X03798Y00147D02*
X04027D01*
X03798D02*
Y00987D01*
X04027*
Y00147D02*
Y00987D01*
X03791Y00433D02*
Y00496D01*
X03665Y00433D02*
X03791D01*
X03665D02*
Y00496D01*
X03791*
Y00515D02*
Y00578D01*
X03665Y00515D02*
X03791D01*
X03665D02*
Y00578D01*
X03791*
Y00594D02*
Y00657D01*
X03665Y00594D02*
X03791D01*
X03665D02*
Y00657D01*
X03791*
Y00673D02*
Y00736D01*
X03665Y00673D02*
X03791D01*
X03665D02*
Y00736D01*
X03791*
Y00751D02*
Y00814D01*
X03665Y00751D02*
X03791D01*
X03665D02*
Y00814D01*
X03791*
X03664Y02393D02*
X03727D01*
X03664D02*
Y02424D01*
X03727*
Y02393D02*
Y02424D01*
X03669Y00775D02*
Y00874D01*
X0359Y00775D02*
X03669D01*
X0359D02*
Y00874D01*
X03669*
X03785Y01767D02*
Y01807D01*
X03805*
Y01767D02*
Y01807D01*
X03785Y01767D02*
X03805D01*
X03541Y01141D02*
Y01181D01*
X03561*
Y01141D02*
Y01181D01*
X03541Y01141D02*
X03561D01*
X0321Y02629D02*
X0323D01*
X0321Y0259D02*
Y02629D01*
Y0259D02*
X0323D01*
Y02629*
X03179D02*
X03198D01*
X03179Y0259D02*
Y02629D01*
Y0259D02*
X03198D01*
Y02629*
X01211Y00384D02*
X01274D01*
Y00353D02*
Y00384D01*
X01211Y00353D02*
X01274D01*
X01211D02*
Y00384D01*
X01206Y00468D02*
X01269D01*
Y00437D02*
Y00468D01*
X01206Y00437D02*
X01269D01*
X01206D02*
Y00468D01*
X03631Y01049D02*
Y01092D01*
X03687*
Y01049D02*
Y01092D01*
X03631Y01049D02*
X03687D01*
X03622Y01616D02*
Y01714D01*
X03543Y01616D02*
X03622D01*
X03543D02*
Y01714D01*
X03622*
X03545Y01909D02*
X03564D01*
X03545Y0187D02*
Y01909D01*
Y0187D02*
X03564D01*
Y01909*
Y0096D02*
X03584D01*
X03564Y00921D02*
Y0096D01*
Y00921D02*
X03584D01*
Y0096*
X03525Y00929D02*
X03545D01*
X03525Y00889D02*
Y00929D01*
Y00889D02*
X03545D01*
Y00929*
X03161Y02582D02*
Y02622D01*
X03141Y02582D02*
X03161D01*
X03141D02*
Y02622D01*
X03161*
X03531Y02448D02*
X03594D01*
X03531D02*
Y0248D01*
X03594*
Y02448D02*
Y0248D01*
X03538Y02114D02*
X03587D01*
Y02192*
X03538D02*
X03587D01*
X03538Y02114D02*
Y02192D01*
X03657Y02118D02*
Y02181D01*
X03625Y02118D02*
X03657D01*
X03625D02*
Y02181D01*
X03657*
X0087Y01968D02*
Y02031D01*
X00901*
Y01968D02*
Y02031D01*
X0087Y01968D02*
X00901D01*
X00814D02*
Y02031D01*
X00846*
Y01968D02*
Y02031D01*
X00814Y01968D02*
X00846D01*
X00791D02*
Y02031D01*
X00759Y01968D02*
X00791D01*
X00759D02*
Y02031D01*
X00791*
X00637Y01909D02*
X00669D01*
Y01972*
X00637D02*
X00669D01*
X00637Y01909D02*
Y01972D01*
X02848Y02339D02*
X02898Y02289D01*
X02848D02*
Y02482D01*
X03001*
Y02289D02*
Y02482D01*
X02848Y02289D02*
X03001D01*
X02893Y02551D02*
X02956D01*
Y02582*
X02893D02*
X02956D01*
X02893Y02551D02*
Y02582D01*
X02951Y02301D02*
Y02474D01*
X03207*
Y02301D02*
Y02474D01*
X02951Y02301D02*
X03207D01*
X02951Y02326D02*
X02977Y02301D01*
X0296Y02582D02*
X0298D01*
Y02622*
X0296D02*
X0298D01*
X0296Y02582D02*
Y02622D01*
X02915Y02581D02*
X02935D01*
Y0262*
X02915D02*
X02935D01*
X02915Y02581D02*
Y0262D01*
X03007Y02582D02*
X03027D01*
Y02622*
X03007D02*
X03027D01*
X03007Y02582D02*
Y02622D01*
X03052D02*
X03072D01*
X03052Y02582D02*
Y02622D01*
Y02582D02*
X03072D01*
Y02622*
X03097D02*
X03117D01*
X03097Y02582D02*
Y02622D01*
Y02582D02*
X03117D01*
Y02622*
X02409Y00456D02*
Y00488D01*
Y00456D02*
X02472D01*
Y00488*
X02409D02*
X02472D01*
X03326Y0224D02*
Y02271D01*
Y0224D02*
X03389D01*
Y02271*
X03326D02*
X03389D01*
X0372Y02118D02*
Y02181D01*
X03688Y02118D02*
X0372D01*
X03688D02*
Y02181D01*
X0372*
X03661Y02298D02*
X03724D01*
Y02267D02*
Y02298D01*
X03661Y02267D02*
X03724D01*
X03661D02*
Y02298D01*
X0366Y02362D02*
X03723D01*
Y02331D02*
Y02362D01*
X0366Y02331D02*
X03723D01*
X0366D02*
Y02362D01*
X03442Y02144D02*
X03458Y02128D01*
X03427Y02144D02*
X03458D01*
X03427Y02081D02*
Y02144D01*
Y02081D02*
X03458D01*
Y02144*
X03536Y02259D02*
X03565Y02288D01*
X03447Y02259D02*
X03565D01*
X03447D02*
Y02377D01*
X03565*
Y02259D02*
Y02377D01*
X02083Y01727D02*
X02146D01*
Y01696D02*
Y01727D01*
X02083Y01696D02*
X02146D01*
X02083D02*
Y01727D01*
X03338Y02541D02*
X03375Y02578D01*
X03261Y02541D02*
X03375D01*
X03261D02*
Y02592D01*
X03375*
Y02541D02*
Y02592D01*
X0079Y01092D02*
X00853D01*
Y01124*
X0079D02*
X00853D01*
X0079Y01092D02*
Y01124D01*
X00463Y00985D02*
X00489Y00959D01*
X00463D02*
Y01156D01*
X00637*
Y00959D02*
Y01156D01*
X00463Y00959D02*
X00637D01*
X00792Y00958D02*
Y00978D01*
X00831*
Y00958D02*
Y00978D01*
X00792Y00958D02*
X00831D01*
X01605Y01814D02*
Y01846D01*
X01542D02*
X01605D01*
X01542Y01814D02*
Y01846D01*
Y01814D02*
X01605D01*
X01622Y01874D02*
Y01924D01*
X01543D02*
X01622D01*
X01543Y01874D02*
Y01924D01*
Y01874D02*
X01622D01*
X01445Y00724D02*
Y00787D01*
X01319D02*
X01445D01*
X01319Y00724D02*
Y00787D01*
Y00724D02*
X01445D01*
X03326Y02362D02*
X03389D01*
Y0233D02*
Y02362D01*
X03326Y0233D02*
X03389D01*
X03326D02*
Y02362D01*
X00323Y01331D02*
Y01394D01*
X00291D02*
X00323D01*
X00291Y01331D02*
Y01394D01*
Y01331D02*
X00323D01*
X00355Y01396D02*
X00387D01*
Y01333D02*
Y01396D01*
X00355Y01333D02*
X00387D01*
X00355D02*
Y01396D01*
X00149Y00496D02*
Y00528D01*
X00212*
Y00496D02*
Y00528D01*
X00149Y00496D02*
X00212D01*
X00149Y00596D02*
X00212D01*
X00149Y00564D02*
Y00596D01*
Y00564D02*
X00212D01*
Y00596*
X00149Y00624D02*
X00212D01*
Y00655*
X00149D02*
X00212D01*
X00149Y00624D02*
Y00655D01*
X01124Y01373D02*
Y01404D01*
X01061Y01373D02*
X01124D01*
X01061D02*
Y01404D01*
X01124*
X02001Y02067D02*
Y02098D01*
X01938D02*
X02001D01*
X01938Y02067D02*
Y02098D01*
Y02067D02*
X02001D01*
X0233Y01936D02*
X02346Y01951D01*
Y01936D02*
Y01967D01*
X02283D02*
X02346D01*
X02283Y01936D02*
Y01967D01*
Y01936D02*
X02346D01*
X01118Y01307D02*
Y01339D01*
X01056Y01307D02*
X01118D01*
X01056D02*
Y01339D01*
X01118*
X02405Y00633D02*
X02484D01*
X02405D02*
Y00683D01*
X02484*
Y00633D02*
Y00683D01*
X0247Y00718D02*
Y0075D01*
X02407D02*
X0247D01*
X02407Y00718D02*
Y0075D01*
Y00718D02*
X0247D01*
X02406Y00777D02*
Y00809D01*
Y00777D02*
X02469D01*
Y00809*
X02406D02*
X02469D01*
X04003Y01641D02*
Y01673D01*
X0394D02*
X04003D01*
X0394Y01641D02*
Y01673D01*
Y01641D02*
X04003D01*
X02444Y0135D02*
Y01381D01*
Y0135D02*
X02507D01*
Y01381*
X02444D02*
X02507D01*
X0261Y00407D02*
X02673D01*
X0261Y00375D02*
Y00407D01*
Y00375D02*
X02673D01*
Y00407*
X02645Y01651D02*
Y01682D01*
X02582Y01651D02*
X02645D01*
X02582D02*
Y01682D01*
X02645*
X02266Y02663D02*
Y02892D01*
X01427Y02663D02*
X02266D01*
X01427D02*
Y02892D01*
X02266*
X0392Y0145D02*
X03998D01*
X0392D02*
Y01608D01*
X03998*
Y0145D02*
Y01608D01*
X00795Y01048D02*
X00835D01*
Y01067*
X00795D02*
X00835D01*
X00795Y01048D02*
Y01067D01*
X03944Y01736D02*
X04007D01*
Y01704D02*
Y01736D01*
X03944Y01704D02*
X04007D01*
X03944D02*
Y01736D01*
Y0172D02*
X0396Y01736D01*
X04013Y01769D02*
Y01789D01*
X03974D02*
X04013D01*
X03974Y01769D02*
Y01789D01*
Y01769D02*
X04013D01*
X00792Y01004D02*
X00831D01*
Y01024*
X00792D02*
X00831D01*
X00792Y01004D02*
Y01024D01*
X02405Y01887D02*
Y01918D01*
Y01887D02*
X02468D01*
Y01918*
X02405D02*
X02468D01*
X02158Y0192D02*
X02221D01*
Y01889D02*
Y0192D01*
X02158Y01889D02*
X02221D01*
X02158D02*
Y0192D01*
X02281Y01919D02*
X02344D01*
Y01888D02*
Y01919D01*
X02281Y01888D02*
X02344D01*
X02281D02*
Y01919D01*
X01688Y00524D02*
X0172D01*
X01688Y00461D02*
Y00524D01*
Y00461D02*
X0172D01*
Y00524*
X0161D02*
X01641D01*
X0161Y00461D02*
Y00524D01*
Y00461D02*
X01641D01*
Y00524*
X01872Y00475D02*
Y00538D01*
X01841Y00475D02*
X01872D01*
X01841D02*
Y00538D01*
X01872*
X03455Y01196D02*
Y01235D01*
Y01196D02*
X03474D01*
Y01235*
X03455D02*
X03474D01*
X03355Y01152D02*
Y01192D01*
Y01152D02*
X03375D01*
Y01192*
X03355D02*
X03375D01*
X03575Y01084D02*
Y01124D01*
X03555D02*
X03575D01*
X03555Y01084D02*
Y01124D01*
Y01084D02*
X03575D01*
X03354Y01031D02*
X03374D01*
X03354D02*
Y0107D01*
X03374*
Y01031D02*
Y0107D01*
X01261Y01109D02*
Y01121D01*
X01284*
Y01109D02*
Y01121D01*
X01261Y01109D02*
X01284D01*
X01261Y01152D02*
Y01164D01*
X01284*
Y01152D02*
Y01164D01*
X01261Y01152D02*
X01284D01*
X02829Y012D02*
Y01232D01*
X02892*
Y012D02*
Y01232D01*
X02829Y012D02*
X02892D01*
X01261Y01198D02*
Y0121D01*
X01285*
Y01198D02*
Y0121D01*
X01261Y01198D02*
X01285D01*
X01261Y01057D02*
Y01068D01*
X01285*
Y01057D02*
Y01068D01*
X01261Y01057D02*
X01285D01*
X02868Y01059D02*
Y01122D01*
Y01059D02*
X02899D01*
Y01122*
X02868D02*
X02899D01*
X02814Y01058D02*
Y01121D01*
Y01058D02*
X02845D01*
Y01121*
X02814D02*
X02845D01*
X03137Y02334D02*
X032D01*
X03137Y02303D02*
Y02334D01*
Y02303D02*
X032D01*
Y02334*
X00731Y01431D02*
X0078D01*
X00731Y01352D02*
Y01431D01*
Y01352D02*
X0078D01*
Y01431*
X00754D02*
X0078Y01405D01*
X00591Y01462D02*
X0064D01*
Y01541*
X00591D02*
X0064D01*
X00591Y01462D02*
Y01541D01*
Y01488D02*
X00617Y01462D01*
X04025Y01111D02*
Y01311D01*
X03892D02*
X04025D01*
X03892Y01111D02*
Y01311D01*
Y01111D02*
X04025D01*
X00125Y00982D02*
X00157D01*
Y00919D02*
Y00982D01*
X00125Y00919D02*
X00157D01*
X00125D02*
Y00982D01*
X00786Y00896D02*
Y00928D01*
X00849*
Y00896D02*
Y00928D01*
X00786Y00896D02*
X00849D01*
X00151Y00695D02*
X00277D01*
Y00758*
X00151D02*
X00277D01*
X00151Y00695D02*
Y00758D01*
X01521Y00681D02*
X01553D01*
X01521D02*
Y00744D01*
X01553*
Y00681D02*
Y00744D01*
X02168Y01936D02*
X02231D01*
X02168D02*
Y01967D01*
X02231*
Y01936D02*
Y01967D01*
X02215Y01936D02*
X02231Y01951D01*
X02169Y00523D02*
Y00586D01*
X022*
Y00523D02*
Y00586D01*
X02169Y00523D02*
X022D01*
X01842Y01763D02*
X01905D01*
Y01732D02*
Y01763D01*
X01842Y01732D02*
X01905D01*
X01842D02*
Y01763D01*
X02413Y01633D02*
X02476D01*
Y01602D02*
Y01633D01*
X02413Y01602D02*
X02476D01*
X02413D02*
Y01633D01*
X0244Y01177D02*
X02503D01*
Y01145D02*
Y01177D01*
X0244Y01145D02*
X02503D01*
X0244D02*
Y01177D01*
X01994Y00667D02*
Y0073D01*
X01963Y00667D02*
X01994D01*
X01963D02*
Y0073D01*
X01994*
X02466Y00916D02*
X02529D01*
Y00885D02*
Y00916D01*
X02466Y00885D02*
X02529D01*
X02466D02*
Y00916D01*
X01542Y01735D02*
Y01766D01*
Y01735D02*
X01605D01*
Y01766*
X01542D02*
X01605D01*
X01421Y01311D02*
Y01342D01*
X01358D02*
X01421D01*
X01358Y01311D02*
Y01342D01*
Y01311D02*
X01421D01*
X0142Y01116D02*
Y01148D01*
X01357D02*
X0142D01*
X01357Y01116D02*
Y01148D01*
Y01116D02*
X0142D01*
X01421Y00858D02*
Y00889D01*
X01358D02*
X01421D01*
X01358Y00858D02*
Y00889D01*
Y00858D02*
X01421D01*
X02879Y01444D02*
X02942D01*
X02879Y01413D02*
Y01444D01*
Y01413D02*
X02942D01*
Y01444*
Y01354D02*
Y01385D01*
X02879Y01354D02*
X02942D01*
X02879D02*
Y01385D01*
X02942*
X02444Y00627D02*
X02476D01*
X02444D02*
Y00689D01*
X02476*
Y00627D02*
Y00689D01*
X02393Y00625D02*
X02425D01*
X02393D02*
Y00688D01*
X02425*
Y00625D02*
Y00688D01*
X0233Y00625D02*
X02362D01*
X0233D02*
Y00688D01*
X02362*
Y00625D02*
Y00688D01*
X0269Y0049D02*
Y00553D01*
X02659D02*
X0269D01*
X02659Y0049D02*
Y00553D01*
Y0049D02*
X0269D01*
X02597Y00553D02*
X02629D01*
Y0049D02*
Y00553D01*
X02597Y0049D02*
X02629D01*
X02597D02*
Y00553D01*
X0258Y00366D02*
X03521D01*
X0258D02*
Y00865D01*
X03521*
Y00366D02*
Y00865D01*
X02674Y01533D02*
X02713D01*
X02699Y01511D02*
Y01551D01*
X00185Y-00253D02*
Y0044D01*
X00578*
Y-00253D02*
Y0044D01*
X00185Y-00253D02*
X00578D01*
X03816Y00015D02*
Y00397D01*
X03318Y00015D02*
X03816D01*
X03318D02*
Y00397D01*
X03816*
X03548Y01885D02*
X03744D01*
X03548Y01728D02*
Y01885D01*
Y01728D02*
X03744D01*
Y01885*
X01122Y00358D02*
X01525D01*
Y00043D02*
Y00358D01*
X01122Y00043D02*
X01525D01*
X01122D02*
Y00358D01*
X03592Y01009D02*
Y01131D01*
X03726*
Y01009D02*
Y01131D01*
X03592Y01009D02*
X03726D01*
X00766Y02214D02*
Y02917D01*
X00167D02*
X00766D01*
X00167Y02214D02*
Y02917D01*
Y02214D02*
X00766D01*
X00911Y02508D02*
Y02912D01*
X01225*
Y02508D02*
Y02912D01*
X00911Y02508D02*
X01225D01*
X01135Y-00019D02*
X01787D01*
Y00705*
X01135D02*
X01787D01*
X01135Y-00019D02*
Y00705D01*
X01588Y00655D02*
X01753D01*
Y00537D02*
Y00655D01*
X01588Y00537D02*
X01753D01*
X01588D02*
Y00655D01*
X03396Y01024D02*
X03541D01*
X03396D02*
Y0115D01*
X03541*
Y01024D02*
Y0115D01*
G54D15*
X00184Y00669D02*
X00973D01*
X00184D02*
Y01604D01*
X00973*
Y00669D02*
Y01604D01*
X01072Y01251D02*
X01131D01*
Y01137D02*
Y01251D01*
X01072Y01137D02*
X01131D01*
X01072D02*
Y01251D01*
X00694Y02028D02*
X00731D01*
X00694Y01963D02*
X00731D01*
Y02028*
X00694Y01963D02*
Y02028D01*
X02034Y01946D02*
X02149D01*
X02034D02*
Y01997D01*
X02149*
Y01946D02*
Y01997D01*
X02314Y01946D02*
Y01997D01*
X02199D02*
X02314D01*
X02199Y01946D02*
Y01997D01*
Y01946D02*
X02314D01*
X02489D02*
Y01997D01*
X02374D02*
X02489D01*
X02374Y01946D02*
Y01997D01*
Y01946D02*
X02489D01*
X02642D02*
Y01997D01*
X02527D02*
X02642D01*
X02527Y01946D02*
Y01997D01*
Y01946D02*
X02642D01*
G54D16*
X01904Y0058D02*
D01*
X01905Y0058*
X01906Y0058*
X01907Y0058*
X01908Y0058*
X0191Y00581*
X01911Y00581*
X01912Y00582*
X01913Y00582*
X01914Y00583*
X01915Y00584*
X01916Y00585*
X01916Y00585*
X01917Y00586*
X01918Y00587*
X01918Y00588*
X01919Y00589*
X0192Y0059*
X0192Y00592*
X0192Y00593*
X01921Y00594*
X01921Y00595*
X01921Y00596*
X0192Y00597*
X02115D02*
D01*
X02115Y00596*
X02115Y00594*
X02116Y00593*
X02116Y00592*
X02116Y00591*
X02117Y0059*
X02117Y00589*
X02118Y00588*
X02118Y00587*
X02119Y00586*
X0212Y00585*
X02121Y00584*
X02122Y00583*
X02123Y00583*
X02124Y00582*
X02125Y00582*
X02126Y00581*
X02127Y00581*
X02128Y0058*
X02129Y0058*
X0213Y0058*
X02132Y0058*
X02132Y0058*
Y00483D02*
D01*
X02131Y00483*
X0213Y00483*
X02129Y00483*
X02128Y00483*
X02126Y00482*
X02125Y00482*
X02124Y00481*
X02123Y00481*
X02122Y0048*
X02121Y00479*
X0212Y00479*
X0212Y00478*
X02119Y00477*
X02118Y00476*
X02118Y00475*
X02117Y00474*
X02116Y00473*
X02116Y00472*
X02116Y00471*
X02116Y00469*
X02115Y00468*
X02115Y00467*
X02115Y00467*
X0192D02*
D01*
X0192Y00468*
X0192Y00469*
X0192Y0047*
X0192Y00471*
X01919Y00473*
X01919Y00474*
X01918Y00475*
X01918Y00476*
X01917Y00477*
X01916Y00478*
X01916Y00479*
X01915Y00479*
X01914Y0048*
X01913Y00481*
X01912Y00481*
X01911Y00482*
X0191Y00483*
X01909Y00483*
X01908Y00483*
X01906Y00483*
X01905Y00484*
X01904Y00484*
X01904Y00483*
X0192Y00597D02*
X01977D01*
X02059D02*
X02115D01*
X02132Y00544D02*
Y0058D01*
Y00483D02*
Y0052D01*
X02059Y00467D02*
X02115D01*
X0192D02*
X01977D01*
X01904Y00483D02*
Y0052D01*
Y00544D02*
Y0058D01*
G54D18*
X0234Y00321D02*
X02504D01*
Y00485*
X0234D02*
X02504D01*
X0234Y00321D02*
Y00485D01*
X02454D02*
X02466D01*
X02429D02*
X02441D01*
X02403D02*
X02415D01*
X02378D02*
X0239D01*
X0234Y00435D02*
Y00447D01*
Y0041D02*
Y00422D01*
Y00384D02*
Y00396D01*
Y00359D02*
Y00371D01*
X02378Y00321D02*
X0239D01*
X02403D02*
X02415D01*
X02429D02*
X02441D01*
X02454D02*
X02466D01*
X02504Y00359D02*
Y00371D01*
Y00384D02*
Y00396D01*
Y0041D02*
Y00422D01*
Y00435D02*
Y00447D01*
X02454Y00321D02*
X02504Y00371D01*
G54D19*
X00298Y00482D02*
Y00625D01*
X00529*
Y00482D02*
Y00625D01*
X00298Y00482D02*
X00529D01*
X01187Y00986D02*
X01302D01*
Y00927D02*
Y00986D01*
X01187Y00927D02*
X01302D01*
X01187D02*
Y00986D01*
X02964Y00797D02*
Y00887D01*
X03145*
Y00797D02*
Y00887D01*
X02964Y00797D02*
X03145D01*
X03713Y00017D02*
X03823D01*
X03713D02*
Y00188D01*
X03823*
Y00017D02*
Y00188D01*
X03235Y00142D02*
X03345D01*
X03235D02*
Y00312D01*
X03345*
Y00142D02*
Y00312D01*
X03327Y00784D02*
Y00894D01*
X03157Y00784D02*
X03327D01*
X03157D02*
Y00894D01*
X03327*
X02776Y00777D02*
X02886D01*
X02776D02*
Y00948D01*
X02886*
Y00777D02*
Y00948D01*
X03758Y00433D02*
X04029D01*
X03758Y00255D02*
Y00433D01*
Y00255D02*
X04029D01*
Y00433*
X02314Y0269D02*
X02584D01*
X02314Y02513D02*
Y0269D01*
Y02513D02*
X02584D01*
Y0269*
X02314Y02553D02*
X02584D01*
X02314Y02375D02*
Y02553D01*
Y02375D02*
X02584D01*
Y02553*
X01756Y02047D02*
X0205D01*
Y0183D02*
Y02047D01*
X01756Y0183D02*
X0205D01*
X01756D02*
Y02047D01*
X02501Y01872D02*
Y01931D01*
Y01872D02*
X02616D01*
Y01931*
X02501D02*
X02616D01*
X02624Y01924D02*
Y01979D01*
X02498D02*
X02624D01*
X02498Y01924D02*
Y01979D01*
Y01924D02*
X02624D01*
X02377D02*
X02503D01*
X02377D02*
Y01979D01*
X02503*
Y01924D02*
Y01979D01*
X01848Y00024D02*
X03361D01*
X01848D02*
Y00218D01*
X03361*
Y00024D02*
Y00218D01*
X02399Y02742D02*
X03912D01*
X02399D02*
Y02937D01*
X03912*
Y02742D02*
Y02937D01*
X01473Y00757D02*
X02396D01*
Y01679*
X01473D02*
X02396D01*
X01473Y00757D02*
Y01679D01*
X02838Y01719D02*
X02897D01*
Y01605D02*
Y01719D01*
X02838Y01605D02*
X02897D01*
X02838D02*
Y01719D01*
X02901D02*
X0296D01*
Y01605D02*
Y01719D01*
X02901Y01605D02*
X0296D01*
X02901D02*
Y01719D01*
X02966Y01537D02*
Y01596D01*
X02852Y01537D02*
X02966D01*
X02852D02*
Y01596D01*
X02966*
X02968Y01478D02*
Y01537D01*
X02854Y01478D02*
X02968D01*
X02854D02*
Y01537D01*
X02968*
X02352Y01542D02*
Y01601D01*
X02466*
Y01542D02*
Y01601D01*
X02352Y01542D02*
X02466D01*
X02352Y01481D02*
Y0154D01*
X02466*
Y01481D02*
Y0154D01*
X02352Y01481D02*
X02466D01*
X02351Y01419D02*
Y01589D01*
X0224D02*
X02351D01*
X0224Y01419D02*
Y01589D01*
Y01419D02*
X02351D01*
X02292Y01303D02*
Y01474D01*
Y01303D02*
X02402D01*
Y01474*
X02292D02*
X02402D01*
X02377Y01438D02*
X02436D01*
Y01324D02*
Y01438D01*
X02377Y01324D02*
X02436D01*
X02377D02*
Y01438D01*
X02702Y01344D02*
Y01403D01*
X02588Y01344D02*
X02702D01*
X02588D02*
Y01403D01*
X02702*
X0271Y0065D02*
X02801D01*
Y00468D02*
Y0065D01*
X0271Y00468D02*
X02801D01*
X0271D02*
Y0065D01*
X01149Y00493D02*
Y0178D01*
X00007D02*
X01149D01*
X00007Y00493D02*
Y0178D01*
Y00493D02*
X01149D01*
X02827Y01399D02*
Y01667D01*
X0256Y01399D02*
Y01667D01*
X02827*
X0256Y01399D02*
X02827D01*
X03788Y00137D02*
X04037D01*
X03788D02*
Y00997D01*
X04037*
Y00137D02*
Y00997D01*
X03818Y00419D02*
Y00509D01*
X03637Y00419D02*
X03818D01*
X03637D02*
Y00509D01*
X03818*
Y00501D02*
Y00592D01*
X03637Y00501D02*
X03818D01*
X03637D02*
Y00592D01*
X03818*
Y0058D02*
Y00671D01*
X03637Y0058D02*
X03818D01*
X03637D02*
Y00671D01*
X03818*
Y00659D02*
Y0075D01*
X03637Y00659D02*
X03818D01*
X03637D02*
Y0075D01*
X03818*
X03816Y00755D02*
X03986D01*
Y00866*
X03816D02*
X03986D01*
X03816Y00755D02*
Y00866D01*
X03818Y00738D02*
Y00828D01*
X03637Y00738D02*
X03818D01*
X03637D02*
Y00828D01*
X03818*
X01018Y01127D02*
X01184D01*
Y01261*
X01018D02*
X01184D01*
X01018Y01127D02*
Y01261D01*
X03639Y02379D02*
X03753D01*
X03639D02*
Y02438D01*
X03753*
Y02379D02*
Y02438D01*
X03683Y00747D02*
Y00902D01*
X03576Y00747D02*
X03683D01*
X03576D02*
Y00902D01*
X03683*
X03775Y01749D02*
Y01824D01*
X03815*
Y01749D02*
Y01824D01*
X03775Y01749D02*
X03815D01*
X03531Y01124D02*
Y01198D01*
X03571*
Y01124D02*
Y01198D01*
X03531Y01124D02*
X03571D01*
X03625Y01559D02*
X03751D01*
Y01746*
X03625D02*
X03751D01*
X03625Y01559D02*
Y01746D01*
X03198Y02656D02*
X03242D01*
X03198Y02563D02*
Y02656D01*
Y02563D02*
X03242D01*
Y02656*
X03167D02*
X0321D01*
X03167Y02563D02*
Y02656D01*
Y02563D02*
X0321D01*
Y02656*
X01185Y00398D02*
X013D01*
Y00339D02*
Y00398D01*
X01185Y00339D02*
X013D01*
X01185D02*
Y00398D01*
X0119Y00477D02*
X01286D01*
Y00428D02*
Y00477D01*
X0119Y00428D02*
X01286D01*
X0119D02*
Y00477D01*
X03635Y01587D02*
Y01743D01*
X03529Y01587D02*
X03635D01*
X03529D02*
Y01743D01*
X03635*
X03535Y01927D02*
X03575D01*
X03535Y01851D02*
Y01927D01*
Y01851D02*
X03575D01*
Y01927*
X03553Y00987D02*
X03596D01*
X03553Y00894D02*
Y00987D01*
Y00894D02*
X03596D01*
Y00987*
X03515Y00947D02*
X03555D01*
X03515Y00872D02*
Y00947D01*
Y00872D02*
X03555D01*
Y00947*
X03173Y02556D02*
Y02648D01*
X03129Y02556D02*
X03173D01*
X03129D02*
Y02648D01*
X03173*
X03514Y0244D02*
X03611D01*
X03514D02*
Y02488D01*
X03611*
Y0244D02*
Y02488D01*
X03525Y02086D02*
X036D01*
Y0222*
X03525D02*
X036D01*
X03525Y02086D02*
Y0222D01*
X03671Y02092D02*
Y02206D01*
X03612Y02092D02*
X03671D01*
X03612D02*
Y02206D01*
X03671*
X00861Y01951D02*
Y02048D01*
X0091*
Y01951D02*
Y02048D01*
X00861Y01951D02*
X0091D01*
X00806D02*
Y02048D01*
X00855*
Y01951D02*
Y02048D01*
X00806Y01951D02*
X00855D01*
X008D02*
Y02048D01*
X00751Y01951D02*
X008D01*
X00751D02*
Y02048D01*
X008*
X00683Y01939D02*
X00741D01*
X00683Y02052D02*
X00741D01*
Y01939D02*
Y02052D01*
X00683Y01939D02*
Y02052D01*
X00629Y01892D02*
X00677D01*
Y01988*
X00629D02*
X00677D01*
X00629Y01892D02*
Y01988D01*
X02778Y02277D02*
Y02494D01*
X03072*
Y02277D02*
Y02494D01*
X02778Y02277D02*
X03072D01*
X02877Y02542D02*
X02973D01*
Y02591*
X02877D02*
X02973D01*
X02877Y02542D02*
Y02591D01*
X03139Y02488D02*
X03253D01*
Y02332D02*
Y02488D01*
X03139Y02332D02*
X03253D01*
X03139D02*
Y02488D01*
X0294Y02233D02*
Y02542D01*
X03219*
Y02233D02*
Y02542D01*
X0294Y02233D02*
X03219D01*
X02948Y02556D02*
X02992D01*
Y02648*
X02948D02*
X02992D01*
X02948Y02556D02*
Y02648D01*
X02903Y02555D02*
X02946D01*
Y02647*
X02903D02*
X02946D01*
X02903Y02555D02*
Y02647D01*
X02996Y02556D02*
X03039D01*
Y02648*
X02996D02*
X03039D01*
X02996Y02556D02*
Y02648D01*
X0304D02*
X03083D01*
X0304Y02556D02*
Y02648D01*
Y02556D02*
X03083D01*
Y02648*
X03085D02*
X03128D01*
X03085Y02556D02*
Y02648D01*
Y02556D02*
X03128D01*
Y02648*
X00864Y02517D02*
X01035D01*
Y02407D02*
Y02517D01*
X00864Y02407D02*
X01035D01*
X00864D02*
Y02517D01*
X02383Y00442D02*
Y00501D01*
Y00442D02*
X02498D01*
Y00501*
X02383D02*
X02498D01*
X03301Y02226D02*
Y02285D01*
Y02226D02*
X03415D01*
Y02285*
X03301D02*
X03415D01*
X03457Y02354D02*
Y0248D01*
X03271D02*
X03457D01*
X03271Y02354D02*
Y0248D01*
Y02354D02*
X03457D01*
X03729Y02101D02*
Y02198D01*
X0368Y02101D02*
X03729D01*
X0368D02*
Y02198D01*
X03729*
X03645Y02307D02*
X03741D01*
Y02258D02*
Y02307D01*
X03645Y02258D02*
X03741D01*
X03645D02*
Y02307D01*
X03643Y02371D02*
X0374D01*
Y02322D02*
Y02371D01*
X03643Y02322D02*
X0374D01*
X03643D02*
Y02371D01*
X03415Y02175D02*
X0347D01*
X03415Y02049D02*
Y02175D01*
Y02049D02*
X0347D01*
Y02175*
X03434Y02233D02*
X03578D01*
X03434D02*
Y02403D01*
X03578*
Y02233D02*
Y02403D01*
X02067Y01736D02*
X02162D01*
Y01687D02*
Y01736D01*
X02067Y01687D02*
X02162D01*
X02067D02*
Y01736D01*
X02024Y01896D02*
X02159D01*
X02024D02*
Y02047D01*
X02159*
Y01896D02*
Y02047D01*
X0325Y02493D02*
X03387D01*
X0325D02*
Y0264D01*
X03387*
Y02493D02*
Y0264D01*
X00764Y01079D02*
X00878D01*
Y01138*
X00764D02*
X00878D01*
X00764Y01079D02*
Y01138D01*
X00396Y00947D02*
Y01168D01*
X00705*
Y00947D02*
Y01168D01*
X00396Y00947D02*
X00705D01*
X00915Y01124D02*
Y01234D01*
X00745Y01124D02*
X00915D01*
X00745D02*
Y01234D01*
X00915*
X00765Y00946D02*
Y0099D01*
X00858*
Y00946D02*
Y0099D01*
X00765Y00946D02*
X00858D01*
X01621Y01806D02*
Y01855D01*
X01525D02*
X01621D01*
X01525Y01806D02*
Y01855D01*
Y01806D02*
X01621D01*
X0164Y01864D02*
Y01934D01*
X01525D02*
X0164D01*
X01525Y01864D02*
Y01934D01*
Y01864D02*
X0164D01*
X01463Y00714D02*
Y00798D01*
X01301D02*
X01463D01*
X01301Y00714D02*
Y00798D01*
Y00714D02*
X01463D01*
X03301Y02375D02*
X03415D01*
Y02316D02*
Y02375D01*
X03301Y02316D02*
X03415D01*
X03301D02*
Y02375D01*
X00684Y01448D02*
X00854D01*
Y01558*
X00684D02*
X00854D01*
X00684Y01448D02*
Y01558D01*
X00331Y01314D02*
Y01411D01*
X00283D02*
X00331D01*
X00283Y01314D02*
Y01411D01*
Y01314D02*
X00331D01*
X00346Y01412D02*
X00395D01*
Y01316D02*
Y01412D01*
X00346Y01316D02*
X00395D01*
X00346D02*
Y01412D01*
X00085Y01051D02*
X00196D01*
X00085D02*
Y01222D01*
X00196*
Y01051D02*
Y01222D01*
X00685Y01334D02*
Y01444D01*
X00514Y01334D02*
X00685D01*
X00514D02*
Y01444D01*
X00685*
X00133Y00488D02*
Y00537D01*
X00229*
Y00488D02*
Y00537D01*
X00133Y00488D02*
X00229D01*
X00133Y00605D02*
X00229D01*
X00133Y00556D02*
Y00605D01*
Y00556D02*
X00229D01*
Y00605*
X00133Y00615D02*
X00229D01*
Y00664*
X00133D02*
X00229D01*
X00133Y00615D02*
Y00664D01*
X0114Y01364D02*
Y01413D01*
X01044Y01364D02*
X0114D01*
X01044D02*
Y01413D01*
X0114*
X02018Y02058D02*
Y02107D01*
X01922D02*
X02018D01*
X01922Y02058D02*
Y02107D01*
Y02058D02*
X02018D01*
X02377Y01924D02*
Y01979D01*
X02251D02*
X02377D01*
X02251Y01924D02*
Y01979D01*
Y01924D02*
X02377D01*
X01144Y01294D02*
Y01353D01*
X0103Y01294D02*
X01144D01*
X0103D02*
Y01353D01*
X01144*
X02387Y00623D02*
X02502D01*
X02387D02*
Y00693D01*
X02502*
Y00623D02*
Y00693D01*
X02487Y00709D02*
Y00758D01*
X0239D02*
X02487D01*
X0239Y00709D02*
Y00758D01*
Y00709D02*
X02487D01*
X0239Y00768D02*
Y00817D01*
Y00768D02*
X02486D01*
Y00817*
X0239D02*
X02486D01*
X02541Y00277D02*
X02711D01*
Y00387*
X02541D02*
X02711D01*
X02541Y00277D02*
Y00387D01*
X01588Y0064D02*
Y0081D01*
Y0064D02*
X01698D01*
Y0081*
X01588D02*
X01698D01*
X01643D02*
X01753D01*
Y0064D02*
Y0081D01*
X01643Y0064D02*
X01753D01*
X01643D02*
Y0081D01*
X01324D02*
X01435D01*
Y0064D02*
Y0081D01*
X01324Y0064D02*
X01435D01*
X01324D02*
Y0081D01*
X01537D02*
X01647D01*
Y0064D02*
Y0081D01*
X01537Y0064D02*
X01647D01*
X01537D02*
Y0081D01*
X04029Y01627D02*
Y01687D01*
X03915D02*
X04029D01*
X03915Y01627D02*
Y01687D01*
Y01627D02*
X04029D01*
X02428Y01341D02*
Y0139D01*
Y01341D02*
X02524D01*
Y0139*
X02428D02*
X02524D01*
X02584Y00421D02*
X02698D01*
X02584Y00362D02*
Y00421D01*
Y00362D02*
X02698D01*
Y00421*
X02671Y01637D02*
Y01696D01*
X02557Y01637D02*
X02671D01*
X02557D02*
Y01696D01*
X02671*
X02276Y02653D02*
Y02901D01*
X01417Y02653D02*
X02276D01*
X01417D02*
Y02901D01*
X02276*
X0391Y0144D02*
X04008D01*
X0391D02*
Y01618D01*
X04008*
Y0144D02*
Y01618D01*
X00768Y01036D02*
X00861D01*
Y01079*
X00768D02*
X00861D01*
X00768Y01036D02*
Y01079D01*
X03913Y01748D02*
X04039D01*
Y01692D02*
Y01748D01*
X03913Y01692D02*
X04039D01*
X03913D02*
Y01748D01*
X0404Y01757D02*
Y01801D01*
X03948D02*
X0404D01*
X03948Y01757D02*
Y01801D01*
Y01757D02*
X0404D01*
X00765Y00992D02*
X00858D01*
Y01035*
X00765D02*
X00858D01*
X00765Y00992D02*
Y01035D01*
X02379Y01873D02*
Y01932D01*
Y01873D02*
X02493D01*
Y01932*
X02379D02*
X02493D01*
X02133Y01934D02*
X02247D01*
Y01875D02*
Y01934D01*
X02133Y01875D02*
X02247D01*
X02133D02*
Y01934D01*
X02255Y01933D02*
X0237D01*
Y01874D02*
Y01933D01*
X02255Y01874D02*
X0237D01*
X02255D02*
Y01933D01*
X0168Y0054D02*
X01729D01*
X0168Y00445D02*
Y0054D01*
Y00445D02*
X01729D01*
Y0054*
X01601D02*
X0165D01*
X01601Y00445D02*
Y0054D01*
Y00445D02*
X0165D01*
Y0054*
X01881Y00459D02*
Y00555D01*
X01832Y00459D02*
X01881D01*
X01832D02*
Y00555D01*
X01881*
X03443Y01169D02*
Y01261D01*
Y01169D02*
X03486D01*
Y01261*
X03443D02*
X03486D01*
X03344Y01126D02*
Y01218D01*
Y01126D02*
X03387D01*
Y01218*
X03344D02*
X03387D01*
X03584Y01068D02*
Y0114D01*
X03547D02*
X03584D01*
X03547Y01068D02*
Y0114D01*
Y01068D02*
X03584D01*
X03346Y01015D02*
X03382D01*
X03346D02*
Y01087D01*
X03382*
Y01015D02*
Y01087D01*
X01234Y01097D02*
Y01132D01*
X01311*
Y01097D02*
Y01132D01*
X01234Y01097D02*
X01311D01*
X01234Y0114D02*
Y01176D01*
X01311*
Y0114D02*
Y01176D01*
X01234Y0114D02*
X01311D01*
X02804Y01187D02*
Y01246D01*
X02918*
Y01187D02*
Y01246D01*
X02804Y01187D02*
X02918D01*
X01235D02*
Y01222D01*
X01312*
Y01187D02*
Y01222D01*
X01235Y01187D02*
X01312D01*
X01234Y01045D02*
Y0108D01*
X01311*
Y01045D02*
Y0108D01*
X01234Y01045D02*
X01311D01*
X02324Y01896D02*
Y02047D01*
X02189D02*
X02324D01*
X02189Y01896D02*
Y02047D01*
Y01896D02*
X02324D01*
X02499D02*
Y02047D01*
X02364D02*
X02499D01*
X02364Y01896D02*
Y02047D01*
Y01896D02*
X02499D01*
X02652D02*
Y02047D01*
X02517D02*
X02652D01*
X02517Y01896D02*
Y02047D01*
Y01896D02*
X02652D01*
X02859Y01043D02*
Y01139D01*
Y01043D02*
X02908D01*
Y01139*
X02859D02*
X02908D01*
X02805Y01042D02*
Y01138D01*
Y01042D02*
X02854D01*
Y01138*
X02805D02*
X02854D01*
X03112Y02348D02*
X03226D01*
X03112Y02289D02*
Y02348D01*
Y02289D02*
X03226D01*
Y02348*
X00688Y01444D02*
X00822D01*
X00688Y01338D02*
Y01444D01*
Y01338D02*
X00822D01*
Y01444*
X00549Y01448D02*
X00683D01*
Y01555*
X00549D02*
X00683D01*
X00549Y01448D02*
Y01555D01*
X04035Y01101D02*
Y01321D01*
X03882D02*
X04035D01*
X03882Y01101D02*
Y01321D01*
Y01101D02*
X04035D01*
X00117Y00999D02*
X00166D01*
Y00902D02*
Y00999D01*
X00117Y00902D02*
X00166D01*
X00117D02*
Y00999D01*
X00769Y00888D02*
Y00937D01*
X00865*
Y00888D02*
Y00937D01*
X00769Y00888D02*
X00865D01*
X00133Y00685D02*
X00295D01*
Y00768*
X00133D02*
X00295D01*
X00133Y00685D02*
Y00768D01*
X01512Y00664D02*
X01561D01*
X01512D02*
Y00761D01*
X01561*
Y00664D02*
Y00761D01*
X01431Y0064D02*
Y0081D01*
Y0064D02*
X01541D01*
Y0081*
X01431D02*
X01541D01*
X01375Y0064D02*
Y0081D01*
Y0064D02*
X01486D01*
Y0081*
X01375D02*
X01486D01*
X02136Y01924D02*
X02262D01*
X02136D02*
Y01979D01*
X02262*
Y01924D02*
Y01979D01*
X0216Y00507D02*
Y00603D01*
X02209*
Y00507D02*
Y00603D01*
X0216Y00507D02*
X02209D01*
X01825Y01772D02*
X01922D01*
Y01723D02*
Y01772D01*
X01825Y01723D02*
X01922D01*
X01825D02*
Y01772D01*
X02396Y01642D02*
X02492D01*
Y01593D02*
Y01642D01*
X02396Y01593D02*
X02492D01*
X02396D02*
Y01642D01*
X02424Y01185D02*
X0252D01*
Y01137D02*
Y01185D01*
X02424Y01137D02*
X0252D01*
X02424D02*
Y01185D01*
X02003Y0065D02*
Y00746D01*
X01954Y0065D02*
X02003D01*
X01954D02*
Y00746D01*
X02003*
X0245Y00925D02*
X02546D01*
Y00876D02*
Y00925D01*
X0245Y00876D02*
X02546D01*
X0245D02*
Y00925D01*
X01525Y01726D02*
Y01775D01*
Y01726D02*
X01621D01*
Y01775*
X01525D02*
X01621D01*
X01437Y01302D02*
Y01351D01*
X01341D02*
X01437D01*
X01341Y01302D02*
Y01351D01*
Y01302D02*
X01437D01*
X01436Y01108D02*
Y01157D01*
X0134D02*
X01436D01*
X0134Y01108D02*
Y01157D01*
Y01108D02*
X01436D01*
X01437Y00849D02*
Y00898D01*
X01341D02*
X01437D01*
X01341Y00849D02*
Y00898D01*
Y00849D02*
X01437D01*
X02863Y01453D02*
X02959D01*
X02863Y01404D02*
Y01453D01*
Y01404D02*
X02959D01*
Y01453*
X02961Y01344D02*
Y01396D01*
X02861Y01344D02*
X02961D01*
X02861D02*
Y01396D01*
X02961*
X02436Y0061D02*
X02485D01*
X02436D02*
Y00706D01*
X02485*
Y0061D02*
Y00706D01*
X02385Y00609D02*
X02433D01*
X02385D02*
Y00705D01*
X02433*
Y00609D02*
Y00705D01*
X02322Y00609D02*
X0237D01*
X02322D02*
Y00705D01*
X0237*
Y00609D02*
Y00705D01*
X02699Y00473D02*
Y00569D01*
X0265D02*
X02699D01*
X0265Y00473D02*
Y00569D01*
Y00473D02*
X02699D01*
X02587Y00571D02*
X02639D01*
Y00471D02*
Y00571D01*
X02587Y00471D02*
X02639D01*
X02587D02*
Y00571D01*
G54D117*
X02716Y00709D02*
Y00858D01*
X02723Y00865*
X02796*
X03429Y00796D02*
X03603D01*
G54D124*
X03048Y01812D03*
G54D125*
X03696Y02839D03*
G54D129*
X00483Y00141D03*
Y00344D03*
X0028D03*
Y00141D03*
G54D132*
X0394Y00507D03*
Y00557D03*
X01907Y02805D03*
X01857D03*
G54D135*
X00075Y02847D03*
X00086Y0007D03*
X03974D03*
X03976Y0285D03*
G54D137*
X03959Y0149D03*
G54D141*
X02993Y01961D03*
X00992Y00598D03*
X00893Y00125D03*
X03024Y0165D03*
X03154Y01697D03*
X03091Y01658D03*
X03079Y01961D03*
X03154Y01925D03*
X03166Y01855D03*
Y01776D03*
X00952Y00043D03*
X00968Y00114D03*
X0094Y00267D03*
X00909Y00204D03*
X00885Y00043D03*
X00759Y00039D03*
X00181Y00354D03*
X00188Y00287D03*
X00185Y0022D03*
X00173Y00094D03*
X0024Y00031D03*
X00311Y00039D03*
X00381Y00118D03*
X00377Y00035D03*
X00464D03*
X00543Y00039D03*
X00681Y00043D03*
X00043Y00181D03*
X00055Y00401D03*
X00456Y0044D03*
X00385Y00381D03*
X00381Y00437D03*
X00114Y00181D03*
Y00251D03*
Y0033D03*
X00122Y00405D03*
X00311Y00448D03*
X00925Y00606D03*
X00929Y00531D03*
X00901Y0046D03*
X00944Y00409D03*
X00814Y00102D03*
X0074Y00122D03*
X00803Y00169D03*
X00744Y00204D03*
X00826Y00236D03*
X00775Y00279D03*
X00858Y00299D03*
X00913Y00342D03*
X00862Y00401D03*
X00811Y00342D03*
X00728Y00326D03*
X00677Y00267D03*
X00669Y00192D03*
X00665Y00114D03*
X00602D03*
Y00185D03*
X0061Y00263D03*
X00629Y00338D03*
X00685Y00377D03*
X00751Y00393D03*
X00807Y00437D03*
X00838Y005D03*
X00846Y00566D03*
X00523Y00437D03*
X00586Y0044D03*
X00649Y00468D03*
X0072Y00492D03*
G54D142*
X03314Y01031D03*
X03731Y00216D03*
X02955Y00444D03*
X02434Y01302D03*
X02713Y01544D03*
X03Y01427D03*
X02074Y01763D03*
X0191Y00719D03*
X02477Y01333D03*
X0211Y00429D03*
X00608Y01576D03*
X02931Y01066D03*
X03452Y01271D03*
X007Y00771D03*
X00748D03*
X00846Y0087D03*
X0085Y00826D03*
X0083Y00795D03*
X00736Y00901D03*
X0074Y00834D03*
X00476Y00783D03*
X00547Y00787D03*
X00472Y00751D03*
X00515Y00755D03*
X0061Y00791D03*
X00551Y00964D03*
X0061Y0096D03*
X022Y00892D03*
X03538Y01018D03*
X03534Y00532D03*
X02523Y0087D03*
X02863Y00452D03*
X03429Y00796D03*
X02716Y00709D03*
X03806Y01724D03*
X01121Y006D03*
X03529Y02527D03*
X02511Y01661D03*
X01724Y01893D03*
X02409Y00417D03*
X01586Y01346D03*
X03594Y011D03*
X03625Y01145D03*
X03677Y011D03*
X01318Y01314D03*
X02413Y00366D03*
X02685Y01102D03*
X01366Y0011D03*
X0135Y00271D03*
X00279Y00925D03*
X00318Y00799D03*
X0159Y01566D03*
X02535Y01161D03*
X02283Y01149D03*
X03909Y02531D03*
X03318Y02665D03*
X02893Y0233D03*
X02062Y02082D03*
X01956Y01787D03*
X01582Y01169D03*
X01326Y01133D03*
X03326Y02212D03*
X02642Y00414D03*
X01917Y00633D03*
X01704Y00429D03*
X03649Y01748D03*
X0374Y01637D03*
X03972Y0185D03*
X03555Y0194D03*
X03744Y02125D03*
X0372Y0224D03*
X03429Y02338D03*
X00933Y02405D03*
X01362Y00909D03*
X01535Y00775D03*
X01448Y00913D03*
X03242Y02299D03*
X03228Y02503D03*
X01216Y00755D03*
X00429Y01476D03*
X00582Y01275D03*
X00645Y01287D03*
X00677Y01318D03*
X0061D03*
X00519Y01322D03*
X00433Y01437D03*
X00881Y01385D03*
X00862Y01303D03*
Y0124D03*
X00488Y01204D03*
X00295Y01303D03*
X00476Y01311D03*
X00295Y01236D03*
X02494Y00612D03*
X02433Y00515D03*
M02*