%FSTAX23Y23*%
%MOIN*%
%SFA1B1*%

%IPPOS*%
%ADD10C,0.007874*%
%ADD11C,0.009843*%
%ADD12C,0.005905*%
%ADD13C,0.009843*%
%ADD14C,0.003937*%
%ADD15C,0.005118*%
%ADD16C,0.007874*%
%ADD18C,0.000000*%
%ADD19C,0.001969*%
%ADD203C,0.005905*%
%ADD204C,0.005512*%
%LNshm_pcb-1*%
%LPD*%
G54D10*
X00343Y00553D02*
D01*
X00343Y00554*
X00343Y00554*
X00343Y00554*
X00343Y00554*
X00343Y00554*
X00343Y00554*
X00343Y00554*
X00343Y00554*
X00343Y00555*
X00343Y00555*
X00343Y00555*
X00343Y00555*
X00342Y00555*
X00342Y00555*
X00342Y00555*
X00342Y00555*
X00342Y00555*
X00342Y00555*
X00342Y00555*
X00342Y00555*
X00341Y00555*
X00341Y00555*
X00341*
X00341Y00555*
X00341Y00555*
X00341Y00555*
X00341Y00555*
X0034Y00555*
X0034Y00555*
X0034Y00555*
X0034Y00555*
X0034Y00555*
X0034Y00555*
X0034Y00555*
X0034Y00555*
X0034Y00555*
X0034Y00554*
X00339Y00554*
X00339Y00554*
X00339Y00554*
X00339Y00554*
X00339Y00554*
X00339Y00554*
X00339Y00554*
X00339Y00553*
X00339Y00553*
X00339Y00553*
X00339Y00553*
X00339Y00553*
X00339Y00553*
X00339Y00553*
X00339Y00553*
X0034Y00552*
X0034Y00552*
X0034Y00552*
X0034Y00552*
X0034Y00552*
X0034Y00552*
X0034Y00552*
X0034Y00552*
X0034Y00552*
X0034Y00552*
X00341Y00552*
X00341Y00552*
X00341Y00551*
X00341Y00551*
X00341Y00551*
X00341*
X00341Y00551*
X00342Y00551*
X00342Y00552*
X00342Y00552*
X00342Y00552*
X00342Y00552*
X00342Y00552*
X00342Y00552*
X00342Y00552*
X00343Y00552*
X00343Y00552*
X00343Y00552*
X00343Y00552*
X00343Y00552*
X00343Y00553*
X00343Y00553*
X00343Y00553*
X00343Y00553*
X00343Y00553*
X00343Y00553*
X00343Y00553*
X00343Y00553*
X0377Y00053D02*
D01*
X0377Y00053*
X0377Y00053*
X0377Y00053*
X0377Y00053*
X0377Y00053*
X0377Y00053*
X0377Y00054*
X0377Y00054*
X0377Y00054*
X0377Y00054*
X0377Y00054*
X0377Y00054*
X0377Y00054*
X03769Y00054*
X03769Y00054*
X03769Y00054*
X03769Y00054*
X03769Y00055*
X03769Y00055*
X03769Y00055*
X03769Y00055*
X03768Y00055*
X03768*
X03768Y00055*
X03768Y00055*
X03768Y00055*
X03768Y00055*
X03768Y00054*
X03768Y00054*
X03767Y00054*
X03767Y00054*
X03767Y00054*
X03767Y00054*
X03767Y00054*
X03767Y00054*
X03767Y00054*
X03767Y00054*
X03767Y00054*
X03767Y00053*
X03767Y00053*
X03767Y00053*
X03766Y00053*
X03766Y00053*
X03766Y00053*
X03766Y00053*
X03766Y00053*
X03766Y00052*
X03766Y00052*
X03767Y00052*
X03767Y00052*
X03767Y00052*
X03767Y00052*
X03767Y00052*
X03767Y00051*
X03767Y00051*
X03767Y00051*
X03767Y00051*
X03767Y00051*
X03767Y00051*
X03767Y00051*
X03768Y00051*
X03768Y00051*
X03768Y00051*
X03768Y00051*
X03768Y00051*
X03768Y00051*
X03768Y00051*
X03768*
X03769Y00051*
X03769Y00051*
X03769Y00051*
X03769Y00051*
X03769Y00051*
X03769Y00051*
X03769Y00051*
X03769Y00051*
X0377Y00051*
X0377Y00051*
X0377Y00051*
X0377Y00051*
X0377Y00051*
X0377Y00052*
X0377Y00052*
X0377Y00052*
X0377Y00052*
X0377Y00052*
X0377Y00052*
X0377Y00052*
X0377Y00053*
X0377Y00053*
X03292Y00178D02*
D01*
X03292Y00178*
X03292Y00178*
X03292Y00178*
X03292Y00178*
X03292Y00179*
X03291Y00179*
X03291Y00179*
X03291Y00179*
X03291Y00179*
X03291Y00179*
X03291Y00179*
X03291Y00179*
X03291Y00179*
X03291Y00179*
X03291Y0018*
X03291Y0018*
X0329Y0018*
X0329Y0018*
X0329Y0018*
X0329Y0018*
X0329Y0018*
X0329Y0018*
X0329*
X03289Y0018*
X03289Y0018*
X03289Y0018*
X03289Y0018*
X03289Y0018*
X03289Y0018*
X03289Y0018*
X03289Y00179*
X03288Y00179*
X03288Y00179*
X03288Y00179*
X03288Y00179*
X03288Y00179*
X03288Y00179*
X03288Y00179*
X03288Y00179*
X03288Y00179*
X03288Y00178*
X03288Y00178*
X03288Y00178*
X03288Y00178*
X03288Y00178*
X03288Y00178*
X03288Y00178*
X03288Y00177*
X03288Y00177*
X03288Y00177*
X03288Y00177*
X03288Y00177*
X03288Y00177*
X03288Y00177*
X03288Y00177*
X03288Y00176*
X03288Y00176*
X03288Y00176*
X03289Y00176*
X03289Y00176*
X03289Y00176*
X03289Y00176*
X03289Y00176*
X03289Y00176*
X03289Y00176*
X03289Y00176*
X0329Y00176*
X0329*
X0329Y00176*
X0329Y00176*
X0329Y00176*
X0329Y00176*
X0329Y00176*
X03291Y00176*
X03291Y00176*
X03291Y00176*
X03291Y00176*
X03291Y00176*
X03291Y00176*
X03291Y00177*
X03291Y00177*
X03291Y00177*
X03291Y00177*
X03291Y00177*
X03292Y00177*
X03292Y00177*
X03292Y00177*
X03292Y00178*
X03292Y00178*
X03292Y00178*
X03294Y00839D02*
D01*
X03294Y00839*
X03294Y0084*
X03294Y0084*
X03294Y0084*
X03294Y0084*
X03294Y0084*
X03294Y0084*
X03294Y0084*
X03294Y0084*
X03294Y00841*
X03293Y00841*
X03293Y00841*
X03293Y00841*
X03293Y00841*
X03293Y00841*
X03293Y00841*
X03293Y00841*
X03293Y00841*
X03292Y00841*
X03292Y00841*
X03292Y00841*
X03292Y00841*
X03292*
X03292Y00841*
X03292Y00841*
X03292Y00841*
X03291Y00841*
X03291Y00841*
X03291Y00841*
X03291Y00841*
X03291Y00841*
X03291Y00841*
X03291Y00841*
X03291Y00841*
X03291Y00841*
X0329Y0084*
X0329Y0084*
X0329Y0084*
X0329Y0084*
X0329Y0084*
X0329Y0084*
X0329Y0084*
X0329Y0084*
X0329Y00839*
X0329Y00839*
X0329Y00839*
X0329Y00839*
X0329Y00839*
X0329Y00839*
X0329Y00839*
X0329Y00838*
X0329Y00838*
X0329Y00838*
X0329Y00838*
X03291Y00838*
X03291Y00838*
X03291Y00838*
X03291Y00838*
X03291Y00838*
X03291Y00838*
X03291Y00837*
X03291Y00837*
X03291Y00837*
X03292Y00837*
X03292Y00837*
X03292Y00837*
X03292Y00837*
X03292*
X03292Y00837*
X03292Y00837*
X03292Y00837*
X03293Y00837*
X03293Y00837*
X03293Y00837*
X03293Y00838*
X03293Y00838*
X03293Y00838*
X03293Y00838*
X03293Y00838*
X03294Y00838*
X03294Y00838*
X03294Y00838*
X03294Y00838*
X03294Y00838*
X03294Y00839*
X03294Y00839*
X03294Y00839*
X03294Y00839*
X03294Y00839*
X03294Y00839*
X02833Y00812D02*
D01*
X02833Y00813*
X02833Y00813*
X02833Y00813*
X02833Y00813*
X02833Y00813*
X02833Y00813*
X02833Y00813*
X02833Y00814*
X02833Y00814*
X02833Y00814*
X02832Y00814*
X02832Y00814*
X02832Y00814*
X02832Y00814*
X02832Y00814*
X02832Y00814*
X02832Y00814*
X02832Y00814*
X02831Y00814*
X02831Y00814*
X02831Y00814*
X02831Y00814*
X02831*
X02831Y00814*
X02831Y00814*
X02831Y00814*
X0283Y00814*
X0283Y00814*
X0283Y00814*
X0283Y00814*
X0283Y00814*
X0283Y00814*
X0283Y00814*
X0283Y00814*
X02829Y00814*
X02829Y00814*
X02829Y00814*
X02829Y00813*
X02829Y00813*
X02829Y00813*
X02829Y00813*
X02829Y00813*
X02829Y00813*
X02829Y00813*
X02829Y00812*
X02829Y00812*
X02829Y00812*
X02829Y00812*
X02829Y00812*
X02829Y00812*
X02829Y00812*
X02829Y00812*
X02829Y00811*
X02829Y00811*
X02829Y00811*
X0283Y00811*
X0283Y00811*
X0283Y00811*
X0283Y00811*
X0283Y00811*
X0283Y00811*
X0283Y00811*
X0283Y00811*
X02831Y00811*
X02831Y00811*
X02831Y00811*
X02831Y00811*
X02831*
X02831Y00811*
X02831Y00811*
X02831Y00811*
X02832Y00811*
X02832Y00811*
X02832Y00811*
X02832Y00811*
X02832Y00811*
X02832Y00811*
X02832Y00811*
X02832Y00811*
X02833Y00811*
X02833Y00811*
X02833Y00811*
X02833Y00812*
X02833Y00812*
X02833Y00812*
X02833Y00812*
X02833Y00812*
X02833Y00812*
X02833Y00812*
X02833Y00812*
X03996Y00344D02*
D01*
X03996Y00344*
X03996Y00344*
X03996Y00344*
X03995Y00345*
X03995Y00345*
X03995Y00345*
X03995Y00345*
X03995Y00345*
X03995Y00345*
X03995Y00345*
X03995Y00345*
X03995Y00345*
X03995Y00346*
X03995Y00346*
X03995Y00346*
X03994Y00346*
X03994Y00346*
X03994Y00346*
X03994Y00346*
X03994Y00346*
X03994Y00346*
X03994Y00346*
X03994*
X03993Y00346*
X03993Y00346*
X03993Y00346*
X03993Y00346*
X03993Y00346*
X03993Y00346*
X03993Y00346*
X03992Y00346*
X03992Y00346*
X03992Y00345*
X03992Y00345*
X03992Y00345*
X03992Y00345*
X03992Y00345*
X03992Y00345*
X03992Y00345*
X03992Y00345*
X03992Y00345*
X03992Y00344*
X03992Y00344*
X03992Y00344*
X03992Y00344*
X03992Y00344*
X03992Y00344*
X03992Y00344*
X03992Y00343*
X03992Y00343*
X03992Y00343*
X03992Y00343*
X03992Y00343*
X03992Y00343*
X03992Y00343*
X03992Y00343*
X03992Y00343*
X03992Y00342*
X03992Y00342*
X03993Y00342*
X03993Y00342*
X03993Y00342*
X03993Y00342*
X03993Y00342*
X03993Y00342*
X03993Y00342*
X03994Y00342*
X03994*
X03994Y00342*
X03994Y00342*
X03994Y00342*
X03994Y00342*
X03994Y00342*
X03994Y00342*
X03995Y00342*
X03995Y00342*
X03995Y00342*
X03995Y00343*
X03995Y00343*
X03995Y00343*
X03995Y00343*
X03995Y00343*
X03995Y00343*
X03995Y00343*
X03995Y00343*
X03995Y00343*
X03996Y00344*
X03996Y00344*
X03996Y00344*
X03996Y00344*
X02551Y02602D02*
D01*
X02551Y02602*
X02551Y02602*
X02551Y02602*
X02551Y02602*
X02551Y02603*
X02551Y02603*
X0255Y02603*
X0255Y02603*
X0255Y02603*
X0255Y02603*
X0255Y02603*
X0255Y02603*
X0255Y02603*
X0255Y02603*
X0255Y02604*
X0255Y02604*
X02549Y02604*
X02549Y02604*
X02549Y02604*
X02549Y02604*
X02549Y02604*
X02549Y02604*
X02549*
X02549Y02604*
X02548Y02604*
X02548Y02604*
X02548Y02604*
X02548Y02604*
X02548Y02604*
X02548Y02604*
X02548Y02603*
X02548Y02603*
X02547Y02603*
X02547Y02603*
X02547Y02603*
X02547Y02603*
X02547Y02603*
X02547Y02603*
X02547Y02603*
X02547Y02603*
X02547Y02602*
X02547Y02602*
X02547Y02602*
X02547Y02602*
X02547Y02602*
X02547Y02602*
X02547Y02602*
X02547Y02601*
X02547Y02601*
X02547Y02601*
X02547Y02601*
X02547Y02601*
X02547Y02601*
X02547Y02601*
X02547Y02601*
X02547Y026*
X02547Y026*
X02548Y026*
X02548Y026*
X02548Y026*
X02548Y026*
X02548Y026*
X02548Y026*
X02548Y026*
X02548Y026*
X02549Y026*
X02549Y026*
X02549*
X02549Y026*
X02549Y026*
X02549Y026*
X02549Y026*
X02549Y026*
X0255Y026*
X0255Y026*
X0255Y026*
X0255Y026*
X0255Y026*
X0255Y026*
X0255Y02601*
X0255Y02601*
X0255Y02601*
X0255Y02601*
X02551Y02601*
X02551Y02601*
X02551Y02601*
X02551Y02601*
X02551Y02602*
X02551Y02602*
X02551Y02602*
Y02464D02*
D01*
X02551Y02464*
X02551Y02464*
X02551Y02464*
X02551Y02465*
X02551Y02465*
X02551Y02465*
X0255Y02465*
X0255Y02465*
X0255Y02465*
X0255Y02465*
X0255Y02465*
X0255Y02466*
X0255Y02466*
X0255Y02466*
X0255Y02466*
X0255Y02466*
X02549Y02466*
X02549Y02466*
X02549Y02466*
X02549Y02466*
X02549Y02466*
X02549Y02466*
X02549*
X02549Y02466*
X02548Y02466*
X02548Y02466*
X02548Y02466*
X02548Y02466*
X02548Y02466*
X02548Y02466*
X02548Y02466*
X02548Y02466*
X02547Y02466*
X02547Y02465*
X02547Y02465*
X02547Y02465*
X02547Y02465*
X02547Y02465*
X02547Y02465*
X02547Y02465*
X02547Y02465*
X02547Y02464*
X02547Y02464*
X02547Y02464*
X02547Y02464*
X02547Y02464*
X02547Y02464*
X02547Y02464*
X02547Y02464*
X02547Y02463*
X02547Y02463*
X02547Y02463*
X02547Y02463*
X02547Y02463*
X02547Y02463*
X02547Y02463*
X02547Y02463*
X02548Y02463*
X02548Y02462*
X02548Y02462*
X02548Y02462*
X02548Y02462*
X02548Y02462*
X02548Y02462*
X02548Y02462*
X02549Y02462*
X02549Y02462*
X02549*
X02549Y02462*
X02549Y02462*
X02549Y02462*
X02549Y02462*
X02549Y02462*
X0255Y02462*
X0255Y02462*
X0255Y02462*
X0255Y02463*
X0255Y02463*
X0255Y02463*
X0255Y02463*
X0255Y02463*
X0255Y02463*
X0255Y02463*
X02551Y02463*
X02551Y02463*
X02551Y02464*
X02551Y02464*
X02551Y02464*
X02551Y02464*
X02551Y02464*
X02298Y01454D02*
D01*
X02298Y01454*
X02298Y01454*
X02298Y01455*
X02298Y01455*
X02298Y01455*
X02298Y01455*
X02298Y01455*
X02298Y01455*
X02298Y01455*
X02297Y01455*
X02297Y01456*
X02297Y01456*
X02297Y01456*
X02297Y01456*
X02297Y01456*
X02297Y01456*
X02297Y01456*
X02297Y01456*
X02296Y01456*
X02296Y01456*
X02296Y01456*
X02296Y01456*
X02296*
X02296Y01456*
X02296Y01456*
X02295Y01456*
X02295Y01456*
X02295Y01456*
X02295Y01456*
X02295Y01456*
X02295Y01456*
X02295Y01456*
X02295Y01456*
X02295Y01456*
X02294Y01455*
X02294Y01455*
X02294Y01455*
X02294Y01455*
X02294Y01455*
X02294Y01455*
X02294Y01455*
X02294Y01455*
X02294Y01454*
X02294Y01454*
X02294Y01454*
X02294Y01454*
X02294Y01454*
X02294Y01454*
X02294Y01454*
X02294Y01454*
X02294Y01453*
X02294Y01453*
X02294Y01453*
X02294Y01453*
X02294Y01453*
X02295Y01453*
X02295Y01453*
X02295Y01453*
X02295Y01453*
X02295Y01453*
X02295Y01452*
X02295Y01452*
X02295Y01452*
X02295Y01452*
X02296Y01452*
X02296Y01452*
X02296Y01452*
X02296*
X02296Y01452*
X02296Y01452*
X02296Y01452*
X02297Y01452*
X02297Y01452*
X02297Y01452*
X02297Y01453*
X02297Y01453*
X02297Y01453*
X02297Y01453*
X02297Y01453*
X02297Y01453*
X02298Y01453*
X02298Y01453*
X02298Y01453*
X02298Y01453*
X02298Y01454*
X02298Y01454*
X02298Y01454*
X02298Y01454*
X02298Y01454*
X02298Y01454*
X02349Y01438D02*
D01*
X02349Y01439*
X02349Y01439*
X02349Y01439*
X02349Y01439*
X02349Y01439*
X02349Y01439*
X02348Y01439*
X02348Y0144*
X02348Y0144*
X02348Y0144*
X02348Y0144*
X02348Y0144*
X02348Y0144*
X02348Y0144*
X02348Y0144*
X02348Y0144*
X02347Y0144*
X02347Y0144*
X02347Y0144*
X02347Y0144*
X02347Y0144*
X02347Y0144*
X02347*
X02347Y0144*
X02346Y0144*
X02346Y0144*
X02346Y0144*
X02346Y0144*
X02346Y0144*
X02346Y0144*
X02346Y0144*
X02346Y0144*
X02345Y0144*
X02345Y0144*
X02345Y0144*
X02345Y0144*
X02345Y0144*
X02345Y01439*
X02345Y01439*
X02345Y01439*
X02345Y01439*
X02345Y01439*
X02345Y01439*
X02345Y01439*
X02345Y01438*
X02345Y01438*
X02345Y01438*
X02345Y01438*
X02345Y01438*
X02345Y01438*
X02345Y01438*
X02345Y01438*
X02345Y01437*
X02345Y01437*
X02345Y01437*
X02345Y01437*
X02345Y01437*
X02346Y01437*
X02346Y01437*
X02346Y01437*
X02346Y01437*
X02346Y01437*
X02346Y01437*
X02346Y01437*
X02346Y01437*
X02347Y01437*
X02347Y01437*
X02347*
X02347Y01437*
X02347Y01437*
X02347Y01437*
X02347Y01437*
X02347Y01437*
X02348Y01437*
X02348Y01437*
X02348Y01437*
X02348Y01437*
X02348Y01437*
X02348Y01437*
X02348Y01437*
X02348Y01437*
X02348Y01437*
X02348Y01438*
X02349Y01438*
X02349Y01438*
X02349Y01438*
X02349Y01438*
X02349Y01438*
X02349Y01438*
X02349Y01438*
X03685Y00062D02*
D01*
X03684Y00062*
X03684Y00062*
X03684Y00062*
X03683Y00062*
X03683Y00062*
X03683Y00062*
X03683Y00062*
X03682Y00062*
X03682Y00062*
X03682Y00062*
X03682Y00061*
X03682Y00061*
X03681Y00061*
X03681Y00061*
X03681Y00061*
X03681Y0006*
X03681Y0006*
X03681Y0006*
X03681Y0006*
X03681Y00059*
X03681Y00059*
X03681Y00059*
Y00058*
X03681Y00058*
X03681Y00058*
X03681Y00058*
X03681Y00057*
X03681Y00057*
X03681Y00057*
X03681Y00057*
X03681Y00056*
X03681Y00056*
X03682Y00056*
X03682Y00056*
X03682Y00056*
X03682Y00055*
X03682Y00055*
X03683Y00055*
X03683Y00055*
X03683Y00055*
X03683Y00055*
X03684Y00055*
X03684Y00055*
X03684Y00055*
X03685Y00055*
D01*
X03685Y00055*
X03685Y00055*
X03685Y00055*
X03686Y00055*
X03686Y00055*
X03686Y00055*
X03686Y00055*
X03687Y00055*
X03687Y00055*
X03687Y00056*
X03687Y00056*
X03687Y00056*
X03688Y00056*
X03688Y00056*
X03688Y00057*
X03688Y00057*
X03688Y00057*
X03688Y00057*
X03688Y00058*
X03688Y00058*
X03688Y00058*
X03688Y00058*
Y00059*
X03688Y00059*
X03688Y00059*
X03688Y0006*
X03688Y0006*
X03688Y0006*
X03688Y0006*
X03688Y00061*
X03688Y00061*
X03688Y00061*
X03687Y00061*
X03687Y00061*
X03687Y00062*
X03687Y00062*
X03687Y00062*
X03686Y00062*
X03686Y00062*
X03686Y00062*
X03686Y00062*
X03685Y00062*
X03685Y00062*
X03685Y00062*
X03685Y00062*
X03853Y00811D02*
D01*
X03853Y00811*
X03853Y00811*
X03853Y00811*
X03853Y00811*
X03853Y00811*
X03853Y00811*
X03853Y00811*
X03853Y00812*
X03853Y00812*
X03853Y00812*
X03852Y00812*
X03852Y00812*
X03852Y00812*
X03852Y00812*
X03852Y00812*
X03852Y00812*
X03852Y00812*
X03852Y00812*
X03852Y00812*
X03851Y00812*
X03851Y00812*
X03851Y00812*
X03851*
X03851Y00812*
X03851Y00812*
X03851Y00812*
X0385Y00812*
X0385Y00812*
X0385Y00812*
X0385Y00812*
X0385Y00812*
X0385Y00812*
X0385Y00812*
X0385Y00812*
X0385Y00812*
X03849Y00812*
X03849Y00812*
X03849Y00811*
X03849Y00811*
X03849Y00811*
X03849Y00811*
X03849Y00811*
X03849Y00811*
X03849Y00811*
X03849Y00811*
X03849Y0081*
X03849Y0081*
X03849Y0081*
X03849Y0081*
X03849Y0081*
X03849Y0081*
X03849Y0081*
X03849Y00809*
X03849Y00809*
X0385Y00809*
X0385Y00809*
X0385Y00809*
X0385Y00809*
X0385Y00809*
X0385Y00809*
X0385Y00809*
X0385Y00809*
X0385Y00809*
X03851Y00809*
X03851Y00809*
X03851Y00809*
X03851Y00809*
X03851*
X03851Y00809*
X03851Y00809*
X03852Y00809*
X03852Y00809*
X03852Y00809*
X03852Y00809*
X03852Y00809*
X03852Y00809*
X03852Y00809*
X03852Y00809*
X03852Y00809*
X03853Y00809*
X03853Y00809*
X03853Y00809*
X03853Y0081*
X03853Y0081*
X03853Y0081*
X03853Y0081*
X03853Y0081*
X03853Y0081*
X03853Y0081*
X03853Y00811*
X01009Y01156D02*
D01*
X01009Y01156*
X01009Y01157*
X01009Y01157*
X01009Y01157*
X01009Y01158*
X01009Y01158*
X01009Y01158*
X01009Y01158*
X01009Y01159*
X01008Y01159*
X01008Y01159*
X01008Y01159*
X01008Y01159*
X01008Y01159*
X01007Y0116*
X01007Y0116*
X01007Y0116*
X01007Y0116*
X01006Y0116*
X01006Y0116*
X01006Y0116*
X01006Y0116*
X01005*
X01005Y0116*
X01005Y0116*
X01004Y0116*
X01004Y0116*
X01004Y0116*
X01004Y0116*
X01003Y0116*
X01003Y01159*
X01003Y01159*
X01003Y01159*
X01003Y01159*
X01002Y01159*
X01002Y01159*
X01002Y01158*
X01002Y01158*
X01002Y01158*
X01002Y01158*
X01002Y01157*
X01002Y01157*
X01002Y01157*
X01001Y01156*
X01001Y01156*
X01001Y01156*
X01002Y01156*
X01002Y01155*
X01002Y01155*
X01002Y01155*
X01002Y01155*
X01002Y01154*
X01002Y01154*
X01002Y01154*
X01002Y01154*
X01003Y01153*
X01003Y01153*
X01003Y01153*
X01003Y01153*
X01003Y01153*
X01004Y01153*
X01004Y01153*
X01004Y01152*
X01004Y01152*
X01005Y01152*
X01005Y01152*
X01005Y01152*
X01006*
X01006Y01152*
X01006Y01152*
X01006Y01152*
X01007Y01152*
X01007Y01153*
X01007Y01153*
X01007Y01153*
X01008Y01153*
X01008Y01153*
X01008Y01153*
X01008Y01153*
X01008Y01154*
X01009Y01154*
X01009Y01154*
X01009Y01154*
X01009Y01155*
X01009Y01155*
X01009Y01155*
X01009Y01155*
X01009Y01156*
X01009Y01156*
X01009Y01156*
X03198Y02445D02*
D01*
X03198Y02445*
X03198Y02445*
X03198Y02445*
X03198Y02445*
X03198Y02445*
X03198Y02446*
X03198Y02446*
X03198Y02446*
X03198Y02446*
X03198Y02446*
X03198Y02446*
X03198Y02446*
X03198Y02446*
X03197Y02446*
X03197Y02446*
X03197Y02447*
X03197Y02447*
X03197Y02447*
X03197Y02447*
X03197Y02447*
X03197Y02447*
X03196Y02447*
X03196*
X03196Y02447*
X03196Y02447*
X03196Y02447*
X03196Y02447*
X03196Y02447*
X03195Y02447*
X03195Y02446*
X03195Y02446*
X03195Y02446*
X03195Y02446*
X03195Y02446*
X03195Y02446*
X03195Y02446*
X03195Y02446*
X03195Y02446*
X03195Y02446*
X03195Y02445*
X03194Y02445*
X03194Y02445*
X03194Y02445*
X03194Y02445*
X03194Y02445*
X03194Y02445*
X03194Y02445*
X03194Y02444*
X03194Y02444*
X03195Y02444*
X03195Y02444*
X03195Y02444*
X03195Y02444*
X03195Y02444*
X03195Y02444*
X03195Y02443*
X03195Y02443*
X03195Y02443*
X03195Y02443*
X03195Y02443*
X03195Y02443*
X03196Y02443*
X03196Y02443*
X03196Y02443*
X03196Y02443*
X03196Y02443*
X03196Y02443*
X03196*
X03197Y02443*
X03197Y02443*
X03197Y02443*
X03197Y02443*
X03197Y02443*
X03197Y02443*
X03197Y02443*
X03197Y02443*
X03198Y02443*
X03198Y02443*
X03198Y02443*
X03198Y02444*
X03198Y02444*
X03198Y02444*
X03198Y02444*
X03198Y02444*
X03198Y02444*
X03198Y02444*
X03198Y02444*
X03198Y02445*
X03198Y02445*
X03198Y02445*
X02133Y01883D02*
D01*
X02133Y01883*
X02133Y01884*
X02132Y01884*
X02132Y01884*
X02132Y01884*
X02132Y01885*
X02132Y01885*
X02132Y01885*
X02132Y01885*
X02132Y01885*
X02131Y01886*
X02131Y01886*
X02131Y01886*
X02131Y01886*
X02131Y01886*
X0213Y01887*
X0213Y01887*
X0213Y01887*
X0213Y01887*
X02129Y01887*
X02129Y01887*
X02129Y01887*
X02128*
X02128Y01887*
X02128Y01887*
X02128Y01887*
X02127Y01887*
X02127Y01887*
X02127Y01887*
X02127Y01886*
X02126Y01886*
X02126Y01886*
X02126Y01886*
X02126Y01886*
X02126Y01885*
X02125Y01885*
X02125Y01885*
X02125Y01885*
X02125Y01885*
X02125Y01884*
X02125Y01884*
X02125Y01884*
X02125Y01884*
X02125Y01883*
X02125Y01883*
X02125Y01883*
X02125Y01882*
X02125Y01882*
X02125Y01882*
X02125Y01882*
X02125Y01881*
X02125Y01881*
X02125Y01881*
X02125Y01881*
X02126Y0188*
X02126Y0188*
X02126Y0188*
X02126Y0188*
X02126Y0188*
X02127Y0188*
X02127Y01879*
X02127Y01879*
X02127Y01879*
X02128Y01879*
X02128Y01879*
X02128Y01879*
X02128Y01879*
X02129*
X02129Y01879*
X02129Y01879*
X0213Y01879*
X0213Y01879*
X0213Y01879*
X0213Y01879*
X02131Y0188*
X02131Y0188*
X02131Y0188*
X02131Y0188*
X02131Y0188*
X02132Y0188*
X02132Y01881*
X02132Y01881*
X02132Y01881*
X02132Y01881*
X02132Y01882*
X02132Y01882*
X02132Y01882*
X02133Y01882*
X02133Y01883*
X02133Y01883*
X00881Y01179D02*
D01*
X00881Y01179*
X00881Y01179*
X00881Y01179*
X00881Y0118*
X00881Y0118*
X00881Y0118*
X00881Y0118*
X00881Y0118*
X00881Y0118*
X00881Y0118*
X00881Y0118*
X00881Y0118*
X00881Y01181*
X00881Y01181*
X0088Y01181*
X0088Y01181*
X0088Y01181*
X0088Y01181*
X0088Y01181*
X0088Y01181*
X0088Y01181*
X00879Y01181*
X00879*
X00879Y01181*
X00879Y01181*
X00879Y01181*
X00879Y01181*
X00879Y01181*
X00879Y01181*
X00878Y01181*
X00878Y01181*
X00878Y01181*
X00878Y0118*
X00878Y0118*
X00878Y0118*
X00878Y0118*
X00878Y0118*
X00878Y0118*
X00878Y0118*
X00878Y0118*
X00878Y0118*
X00877Y01179*
X00877Y01179*
X00877Y01179*
X00877Y01179*
X00877Y01179*
X00877Y01179*
X00877Y01179*
X00878Y01178*
X00878Y01178*
X00878Y01178*
X00878Y01178*
X00878Y01178*
X00878Y01178*
X00878Y01178*
X00878Y01178*
X00878Y01178*
X00878Y01177*
X00878Y01177*
X00878Y01177*
X00879Y01177*
X00879Y01177*
X00879Y01177*
X00879Y01177*
X00879Y01177*
X00879Y01177*
X00879Y01177*
X00879*
X0088Y01177*
X0088Y01177*
X0088Y01177*
X0088Y01177*
X0088Y01177*
X0088Y01177*
X0088Y01177*
X00881Y01177*
X00881Y01177*
X00881Y01178*
X00881Y01178*
X00881Y01178*
X00881Y01178*
X00881Y01178*
X00881Y01178*
X00881Y01178*
X00881Y01178*
X00881Y01178*
X00881Y01179*
X00881Y01179*
X00881Y01179*
X00881Y01179*
X01537Y00665D02*
D01*
X01536Y00665*
X01536Y00665*
X01536Y00665*
X01536Y00665*
X01536Y00665*
X01536Y00665*
X01536Y00665*
X01535Y00665*
X01535Y00665*
X01535Y00665*
X01535Y00665*
X01535Y00665*
X01535Y00664*
X01535Y00664*
X01535Y00664*
X01535Y00664*
X01535Y00664*
X01535Y00664*
X01535Y00664*
X01535Y00664*
X01535Y00663*
X01535Y00663*
Y00663*
X01535Y00663*
X01535Y00663*
X01535Y00663*
X01535Y00663*
X01535Y00663*
X01535Y00662*
X01535Y00662*
X01535Y00662*
X01535Y00662*
X01535Y00662*
X01535Y00662*
X01535Y00662*
X01535Y00662*
X01535Y00662*
X01536Y00662*
X01536Y00661*
X01536Y00661*
X01536Y00661*
X01536Y00661*
X01536Y00661*
X01536Y00661*
X01537Y00661*
D01*
X01537Y00661*
X01537Y00661*
X01537Y00661*
X01537Y00661*
X01537Y00661*
X01537Y00661*
X01537Y00662*
X01538Y00662*
X01538Y00662*
X01538Y00662*
X01538Y00662*
X01538Y00662*
X01538Y00662*
X01538Y00662*
X01538Y00662*
X01538Y00662*
X01538Y00663*
X01538Y00663*
X01538Y00663*
X01538Y00663*
X01538Y00663*
X01538Y00663*
Y00663*
X01538Y00663*
X01538Y00664*
X01538Y00664*
X01538Y00664*
X01538Y00664*
X01538Y00664*
X01538Y00664*
X01538Y00664*
X01538Y00664*
X01538Y00665*
X01538Y00665*
X01538Y00665*
X01538Y00665*
X01538Y00665*
X01537Y00665*
X01537Y00665*
X01537Y00665*
X01537Y00665*
X01537Y00665*
X01537Y00665*
X01537Y00665*
X01537Y00665*
D01*
X01536Y00665*
X01536Y00665*
X01536Y00665*
X01536Y00665*
X01536Y00665*
X01536Y00665*
X01536Y00665*
X01535Y00665*
X01535Y00665*
X01535Y00665*
X01535Y00665*
X01535Y00665*
X01535Y00664*
X01535Y00664*
X01535Y00664*
X01535Y00664*
X01535Y00664*
X01535Y00664*
X01535Y00664*
X01535Y00664*
X01535Y00663*
X01535Y00663*
Y00663*
X01535Y00663*
X01535Y00663*
X01535Y00663*
X01535Y00663*
X01535Y00663*
X01535Y00662*
X01535Y00662*
X01535Y00662*
X01535Y00662*
X01535Y00662*
X01535Y00662*
X01535Y00662*
X01535Y00662*
X01535Y00662*
X01536Y00662*
X01536Y00661*
X01536Y00661*
X01536Y00661*
X01536Y00661*
X01536Y00661*
X01536Y00661*
X01537Y00661*
X00721Y01502D02*
D01*
X00721Y01502*
X00721Y01503*
X00721Y01503*
X00721Y01503*
X00721Y01503*
X00721Y01503*
X00721Y01503*
X00721Y01503*
X00721Y01503*
X00721Y01504*
X00721Y01504*
X00721Y01504*
X0072Y01504*
X0072Y01504*
X0072Y01504*
X0072Y01504*
X0072Y01504*
X0072Y01504*
X0072Y01504*
X0072Y01504*
X00719Y01504*
X00719Y01504*
X00719*
X00719Y01504*
X00719Y01504*
X00719Y01504*
X00719Y01504*
X00718Y01504*
X00718Y01504*
X00718Y01504*
X00718Y01504*
X00718Y01504*
X00718Y01504*
X00718Y01504*
X00718Y01504*
X00718Y01503*
X00718Y01503*
X00717Y01503*
X00717Y01503*
X00717Y01503*
X00717Y01503*
X00717Y01503*
X00717Y01503*
X00717Y01502*
X00717Y01502*
X00717Y01502*
X00717Y01502*
X00717Y01502*
X00717Y01502*
X00717Y01502*
X00717Y01501*
X00717Y01501*
X00718Y01501*
X00718Y01501*
X00718Y01501*
X00718Y01501*
X00718Y01501*
X00718Y01501*
X00718Y01501*
X00718Y01501*
X00718Y015*
X00718Y015*
X00719Y015*
X00719Y015*
X00719Y015*
X00719Y015*
X00719Y015*
X00719*
X00719Y015*
X0072Y015*
X0072Y015*
X0072Y015*
X0072Y015*
X0072Y015*
X0072Y01501*
X0072Y01501*
X0072Y01501*
X00721Y01501*
X00721Y01501*
X00721Y01501*
X00721Y01501*
X00721Y01501*
X00721Y01501*
X00721Y01501*
X00721Y01502*
X00721Y01502*
X00721Y01502*
X00721Y01502*
X00721Y01502*
X00721Y01502*
X00142Y01087D02*
D01*
X00142Y01087*
X00142Y01087*
X00142Y01087*
X00142Y01087*
X00142Y01087*
X00142Y01087*
X00142Y01087*
X00142Y01088*
X00142Y01088*
X00142Y01088*
X00142Y01088*
X00142Y01088*
X00142Y01088*
X00142Y01088*
X00141Y01088*
X00141Y01088*
X00141Y01088*
X00141Y01088*
X00141Y01088*
X00141Y01088*
X00141Y01088*
X00141Y01088*
X0014*
X0014Y01088*
X0014Y01088*
X0014Y01088*
X0014Y01088*
X0014Y01088*
X0014Y01088*
X00139Y01088*
X00139Y01088*
X00139Y01088*
X00139Y01088*
X00139Y01088*
X00139Y01088*
X00139Y01088*
X00139Y01088*
X00139Y01087*
X00139Y01087*
X00139Y01087*
X00139Y01087*
X00139Y01087*
X00138Y01087*
X00138Y01087*
X00138Y01087*
X00138Y01086*
X00138Y01086*
X00139Y01086*
X00139Y01086*
X00139Y01086*
X00139Y01086*
X00139Y01086*
X00139Y01085*
X00139Y01085*
X00139Y01085*
X00139Y01085*
X00139Y01085*
X00139Y01085*
X00139Y01085*
X00139Y01085*
X0014Y01085*
X0014Y01085*
X0014Y01085*
X0014Y01085*
X0014Y01085*
X0014Y01085*
X0014Y01085*
X00141*
X00141Y01085*
X00141Y01085*
X00141Y01085*
X00141Y01085*
X00141Y01085*
X00141Y01085*
X00141Y01085*
X00142Y01085*
X00142Y01085*
X00142Y01085*
X00142Y01085*
X00142Y01085*
X00142Y01085*
X00142Y01085*
X00142Y01086*
X00142Y01086*
X00142Y01086*
X00142Y01086*
X00142Y01086*
X00142Y01086*
X00142Y01086*
X00142Y01087*
X00651Y01389D02*
D01*
X00651Y01389*
X00651Y0139*
X00651Y0139*
X00651Y0139*
X00651Y0139*
X00651Y0139*
X00651Y0139*
X00651Y0139*
X00651Y0139*
X00651Y01391*
X00651Y01391*
X0065Y01391*
X0065Y01391*
X0065Y01391*
X0065Y01391*
X0065Y01391*
X0065Y01391*
X0065Y01391*
X0065Y01391*
X00649Y01391*
X00649Y01391*
X00649Y01391*
X00649*
X00649Y01391*
X00649Y01391*
X00649Y01391*
X00648Y01391*
X00648Y01391*
X00648Y01391*
X00648Y01391*
X00648Y01391*
X00648Y01391*
X00648Y01391*
X00648Y01391*
X00648Y01391*
X00648Y0139*
X00647Y0139*
X00647Y0139*
X00647Y0139*
X00647Y0139*
X00647Y0139*
X00647Y0139*
X00647Y0139*
X00647Y01389*
X00647Y01389*
X00647Y01389*
X00647Y01389*
X00647Y01389*
X00647Y01389*
X00647Y01389*
X00647Y01388*
X00647Y01388*
X00647Y01388*
X00648Y01388*
X00648Y01388*
X00648Y01388*
X00648Y01388*
X00648Y01388*
X00648Y01388*
X00648Y01388*
X00648Y01387*
X00648Y01387*
X00648Y01387*
X00649Y01387*
X00649Y01387*
X00649Y01387*
X00649Y01387*
X00649*
X00649Y01387*
X00649Y01387*
X0065Y01387*
X0065Y01387*
X0065Y01387*
X0065Y01387*
X0065Y01388*
X0065Y01388*
X0065Y01388*
X0065Y01388*
X00651Y01388*
X00651Y01388*
X00651Y01388*
X00651Y01388*
X00651Y01388*
X00651Y01388*
X00651Y01389*
X00651Y01389*
X00651Y01389*
X00651Y01389*
X00651Y01389*
X00651Y01389*
X02578Y00332D02*
D01*
X02578Y00332*
X02578Y00332*
X02578Y00333*
X02578Y00333*
X02578Y00333*
X02578Y00333*
X02578Y00333*
X02578Y00333*
X02578Y00333*
X02578Y00333*
X02578Y00334*
X02578Y00334*
X02577Y00334*
X02577Y00334*
X02577Y00334*
X02577Y00334*
X02577Y00334*
X02577Y00334*
X02577Y00334*
X02577Y00334*
X02576Y00334*
X02576Y00334*
X02576*
X02576Y00334*
X02576Y00334*
X02576Y00334*
X02576Y00334*
X02576Y00334*
X02575Y00334*
X02575Y00334*
X02575Y00334*
X02575Y00334*
X02575Y00334*
X02575Y00334*
X02575Y00333*
X02575Y00333*
X02575Y00333*
X02575Y00333*
X02574Y00333*
X02574Y00333*
X02574Y00333*
X02574Y00333*
X02574Y00332*
X02574Y00332*
X02574Y00332*
X02574Y00332*
X02574Y00332*
X02574Y00332*
X02574Y00332*
X02574Y00332*
X02574Y00331*
X02575Y00331*
X02575Y00331*
X02575Y00331*
X02575Y00331*
X02575Y00331*
X02575Y00331*
X02575Y00331*
X02575Y00331*
X02575Y0033*
X02575Y0033*
X02576Y0033*
X02576Y0033*
X02576Y0033*
X02576Y0033*
X02576Y0033*
X02576Y0033*
X02576*
X02576Y0033*
X02577Y0033*
X02577Y0033*
X02577Y0033*
X02577Y0033*
X02577Y0033*
X02577Y0033*
X02577Y00331*
X02577Y00331*
X02578Y00331*
X02578Y00331*
X02578Y00331*
X02578Y00331*
X02578Y00331*
X02578Y00331*
X02578Y00331*
X02578Y00332*
X02578Y00332*
X02578Y00332*
X02578Y00332*
X02578Y00332*
X02578Y00332*
X01645Y00774D02*
D01*
X01645Y00774*
X01645Y00775*
X01645Y00775*
X01645Y00775*
X01645Y00775*
X01645Y00775*
X01645Y00775*
X01645Y00775*
X01645Y00775*
X01645Y00776*
X01645Y00776*
X01645Y00776*
X01644Y00776*
X01644Y00776*
X01644Y00776*
X01644Y00776*
X01644Y00776*
X01644Y00776*
X01644Y00776*
X01644Y00776*
X01643Y00776*
X01643Y00776*
X01643*
X01643Y00776*
X01643Y00776*
X01643Y00776*
X01643Y00776*
X01642Y00776*
X01642Y00776*
X01642Y00776*
X01642Y00776*
X01642Y00776*
X01642Y00776*
X01642Y00776*
X01642Y00776*
X01642Y00775*
X01642Y00775*
X01641Y00775*
X01641Y00775*
X01641Y00775*
X01641Y00775*
X01641Y00775*
X01641Y00775*
X01641Y00774*
X01641Y00774*
X01641Y00774*
X01641Y00774*
X01641Y00774*
X01641Y00774*
X01641Y00774*
X01641Y00774*
X01641Y00773*
X01642Y00773*
X01642Y00773*
X01642Y00773*
X01642Y00773*
X01642Y00773*
X01642Y00773*
X01642Y00773*
X01642Y00773*
X01642Y00773*
X01642Y00772*
X01643Y00772*
X01643Y00772*
X01643Y00772*
X01643Y00772*
X01643Y00772*
X01643*
X01643Y00772*
X01644Y00772*
X01644Y00772*
X01644Y00772*
X01644Y00772*
X01644Y00773*
X01644Y00773*
X01644Y00773*
X01644Y00773*
X01645Y00773*
X01645Y00773*
X01645Y00773*
X01645Y00773*
X01645Y00773*
X01645Y00773*
X01645Y00774*
X01645Y00774*
X01645Y00774*
X01645Y00774*
X01645Y00774*
X01645Y00774*
X01645Y00774*
X017D02*
D01*
X017Y00774*
X017Y00775*
X017Y00775*
X017Y00775*
X017Y00775*
X017Y00775*
X017Y00775*
X017Y00775*
X017Y00775*
X017Y00776*
X017Y00776*
X017Y00776*
X017Y00776*
X01699Y00776*
X01699Y00776*
X01699Y00776*
X01699Y00776*
X01699Y00776*
X01699Y00776*
X01699Y00776*
X01699Y00776*
X01698Y00776*
X01698*
X01698Y00776*
X01698Y00776*
X01698Y00776*
X01698Y00776*
X01698Y00776*
X01697Y00776*
X01697Y00776*
X01697Y00776*
X01697Y00776*
X01697Y00776*
X01697Y00776*
X01697Y00776*
X01697Y00775*
X01697Y00775*
X01697Y00775*
X01697Y00775*
X01696Y00775*
X01696Y00775*
X01696Y00775*
X01696Y00775*
X01696Y00774*
X01696Y00774*
X01696Y00774*
X01696Y00774*
X01696Y00774*
X01696Y00774*
X01696Y00774*
X01697Y00774*
X01697Y00773*
X01697Y00773*
X01697Y00773*
X01697Y00773*
X01697Y00773*
X01697Y00773*
X01697Y00773*
X01697Y00773*
X01697Y00773*
X01697Y00773*
X01698Y00772*
X01698Y00772*
X01698Y00772*
X01698Y00772*
X01698Y00772*
X01698Y00772*
X01698*
X01699Y00772*
X01699Y00772*
X01699Y00772*
X01699Y00772*
X01699Y00772*
X01699Y00773*
X01699Y00773*
X01699Y00773*
X017Y00773*
X017Y00773*
X017Y00773*
X017Y00773*
X017Y00773*
X017Y00773*
X017Y00773*
X017Y00774*
X017Y00774*
X017Y00774*
X017Y00774*
X017Y00774*
X017Y00774*
X017Y00774*
X01381D02*
D01*
X01381Y00774*
X01381Y00775*
X01381Y00775*
X01381Y00775*
X01381Y00775*
X01381Y00775*
X01381Y00775*
X01381Y00775*
X01381Y00775*
X01381Y00776*
X01381Y00776*
X01381Y00776*
X01381Y00776*
X01381Y00776*
X0138Y00776*
X0138Y00776*
X0138Y00776*
X0138Y00776*
X0138Y00776*
X0138Y00776*
X0138Y00776*
X01379Y00776*
X01379*
X01379Y00776*
X01379Y00776*
X01379Y00776*
X01379Y00776*
X01379Y00776*
X01379Y00776*
X01378Y00776*
X01378Y00776*
X01378Y00776*
X01378Y00776*
X01378Y00776*
X01378Y00776*
X01378Y00775*
X01378Y00775*
X01378Y00775*
X01378Y00775*
X01378Y00775*
X01378Y00775*
X01377Y00775*
X01377Y00775*
X01377Y00774*
X01377Y00774*
X01377Y00774*
X01377Y00774*
X01377Y00774*
X01378Y00774*
X01378Y00774*
X01378Y00774*
X01378Y00773*
X01378Y00773*
X01378Y00773*
X01378Y00773*
X01378Y00773*
X01378Y00773*
X01378Y00773*
X01378Y00773*
X01378Y00773*
X01379Y00773*
X01379Y00772*
X01379Y00772*
X01379Y00772*
X01379Y00772*
X01379Y00772*
X01379Y00772*
X01379*
X0138Y00772*
X0138Y00772*
X0138Y00772*
X0138Y00772*
X0138Y00772*
X0138Y00773*
X0138Y00773*
X01381Y00773*
X01381Y00773*
X01381Y00773*
X01381Y00773*
X01381Y00773*
X01381Y00773*
X01381Y00773*
X01381Y00773*
X01381Y00774*
X01381Y00774*
X01381Y00774*
X01381Y00774*
X01381Y00774*
X01381Y00774*
X01381Y00774*
X01594D02*
D01*
X01594Y00774*
X01594Y00775*
X01594Y00775*
X01594Y00775*
X01594Y00775*
X01594Y00775*
X01594Y00775*
X01594Y00775*
X01594Y00775*
X01594Y00776*
X01593Y00776*
X01593Y00776*
X01593Y00776*
X01593Y00776*
X01593Y00776*
X01593Y00776*
X01593Y00776*
X01593Y00776*
X01592Y00776*
X01592Y00776*
X01592Y00776*
X01592Y00776*
X01592*
X01592Y00776*
X01592Y00776*
X01592Y00776*
X01591Y00776*
X01591Y00776*
X01591Y00776*
X01591Y00776*
X01591Y00776*
X01591Y00776*
X01591Y00776*
X01591Y00776*
X01591Y00776*
X0159Y00775*
X0159Y00775*
X0159Y00775*
X0159Y00775*
X0159Y00775*
X0159Y00775*
X0159Y00775*
X0159Y00775*
X0159Y00774*
X0159Y00774*
X0159Y00774*
X0159Y00774*
X0159Y00774*
X0159Y00774*
X0159Y00774*
X0159Y00774*
X0159Y00773*
X0159Y00773*
X0159Y00773*
X01591Y00773*
X01591Y00773*
X01591Y00773*
X01591Y00773*
X01591Y00773*
X01591Y00773*
X01591Y00773*
X01591Y00772*
X01591Y00772*
X01592Y00772*
X01592Y00772*
X01592Y00772*
X01592Y00772*
X01592*
X01592Y00772*
X01592Y00772*
X01592Y00772*
X01593Y00772*
X01593Y00772*
X01593Y00773*
X01593Y00773*
X01593Y00773*
X01593Y00773*
X01593Y00773*
X01593Y00773*
X01594Y00773*
X01594Y00773*
X01594Y00773*
X01594Y00773*
X01594Y00774*
X01594Y00774*
X01594Y00774*
X01594Y00774*
X01594Y00774*
X01594Y00774*
X01594Y00774*
X02779Y01149D02*
D01*
X02779Y01149*
X02779Y01149*
X02779Y01149*
X02779Y01149*
X02779Y0115*
X02779Y0115*
X02779Y0115*
X02779Y0115*
X02779Y0115*
X02779Y0115*
X02779Y0115*
X02779Y0115*
X02779Y0115*
X02779Y0115*
X02779Y0115*
X02779Y0115*
X02779Y0115*
X02779Y0115*
X02779Y0115*
X02778Y0115*
X02778Y0115*
X02778Y0115*
X02778*
X02778Y0115*
X02778Y0115*
X02778Y0115*
X02778Y0115*
X02778Y0115*
X02778Y0115*
X02778Y0115*
X02778Y0115*
X02778Y0115*
X02777Y0115*
X02777Y0115*
X02777Y0115*
X02777Y0115*
X02777Y0115*
X02777Y0115*
X02777Y0115*
X02777Y0115*
X02777Y01149*
X02777Y01149*
X02777Y01149*
X02777Y01149*
X02777Y01149*
X02777Y01149*
X02777Y01149*
X02777Y01149*
X02777Y01149*
X02777Y01149*
X02777Y01149*
X02777Y01149*
X02777Y01148*
X02777Y01148*
X02777Y01148*
X02777Y01148*
X02777Y01148*
X02778Y01148*
X02778Y01148*
X02778Y01148*
X02778Y01148*
X02778Y01148*
X02778Y01148*
X02778Y01148*
X02778Y01148*
X02778Y01148*
X02778Y01148*
X02778*
X02778Y01148*
X02778Y01148*
X02779Y01148*
X02779Y01148*
X02779Y01148*
X02779Y01148*
X02779Y01148*
X02779Y01148*
X02779Y01148*
X02779Y01148*
X02779Y01148*
X02779Y01148*
X02779Y01148*
X02779Y01148*
X02779Y01149*
X02779Y01149*
X02779Y01149*
X02779Y01149*
X02779Y01149*
X02779Y01149*
X02779Y01149*
X02779Y01149*
X02298Y01883D02*
D01*
X02298Y01883*
X02298Y01884*
X02298Y01884*
X02298Y01884*
X02298Y01884*
X02298Y01885*
X02297Y01885*
X02297Y01885*
X02297Y01885*
X02297Y01885*
X02297Y01886*
X02297Y01886*
X02296Y01886*
X02296Y01886*
X02296Y01886*
X02296Y01887*
X02295Y01887*
X02295Y01887*
X02295Y01887*
X02295Y01887*
X02294Y01887*
X02294Y01887*
X02294*
X02294Y01887*
X02293Y01887*
X02293Y01887*
X02293Y01887*
X02293Y01887*
X02292Y01887*
X02292Y01886*
X02292Y01886*
X02292Y01886*
X02291Y01886*
X02291Y01886*
X02291Y01885*
X02291Y01885*
X02291Y01885*
X02291Y01885*
X0229Y01885*
X0229Y01884*
X0229Y01884*
X0229Y01884*
X0229Y01884*
X0229Y01883*
X0229Y01883*
X0229Y01883*
X0229Y01882*
X0229Y01882*
X0229Y01882*
X0229Y01882*
X0229Y01881*
X02291Y01881*
X02291Y01881*
X02291Y01881*
X02291Y0188*
X02291Y0188*
X02291Y0188*
X02292Y0188*
X02292Y0188*
X02292Y0188*
X02292Y01879*
X02293Y01879*
X02293Y01879*
X02293Y01879*
X02293Y01879*
X02294Y01879*
X02294Y01879*
X02294*
X02294Y01879*
X02295Y01879*
X02295Y01879*
X02295Y01879*
X02295Y01879*
X02296Y01879*
X02296Y0188*
X02296Y0188*
X02296Y0188*
X02297Y0188*
X02297Y0188*
X02297Y0188*
X02297Y01881*
X02297Y01881*
X02297Y01881*
X02298Y01881*
X02298Y01882*
X02298Y01882*
X02298Y01882*
X02298Y01882*
X02298Y01883*
X02298Y01883*
X02473D02*
D01*
X02473Y01883*
X02473Y01884*
X02473Y01884*
X02473Y01884*
X02473Y01884*
X02473Y01885*
X02473Y01885*
X02473Y01885*
X02472Y01885*
X02472Y01885*
X02472Y01886*
X02472Y01886*
X02472Y01886*
X02471Y01886*
X02471Y01886*
X02471Y01887*
X02471Y01887*
X0247Y01887*
X0247Y01887*
X0247Y01887*
X0247Y01887*
X02469Y01887*
X02469*
X02469Y01887*
X02469Y01887*
X02468Y01887*
X02468Y01887*
X02468Y01887*
X02467Y01887*
X02467Y01886*
X02467Y01886*
X02467Y01886*
X02467Y01886*
X02466Y01886*
X02466Y01885*
X02466Y01885*
X02466Y01885*
X02466Y01885*
X02466Y01885*
X02465Y01884*
X02465Y01884*
X02465Y01884*
X02465Y01884*
X02465Y01883*
X02465Y01883*
X02465Y01883*
X02465Y01882*
X02465Y01882*
X02465Y01882*
X02465Y01882*
X02466Y01881*
X02466Y01881*
X02466Y01881*
X02466Y01881*
X02466Y0188*
X02466Y0188*
X02467Y0188*
X02467Y0188*
X02467Y0188*
X02467Y0188*
X02467Y01879*
X02468Y01879*
X02468Y01879*
X02468Y01879*
X02469Y01879*
X02469Y01879*
X02469Y01879*
X02469*
X0247Y01879*
X0247Y01879*
X0247Y01879*
X0247Y01879*
X02471Y01879*
X02471Y01879*
X02471Y0188*
X02471Y0188*
X02472Y0188*
X02472Y0188*
X02472Y0188*
X02472Y0188*
X02472Y01881*
X02473Y01881*
X02473Y01881*
X02473Y01881*
X02473Y01882*
X02473Y01882*
X02473Y01882*
X02473Y01882*
X02473Y01883*
X02473Y01883*
X02626D02*
D01*
X02626Y01883*
X02626Y01884*
X02626Y01884*
X02626Y01884*
X02626Y01884*
X02626Y01885*
X02625Y01885*
X02625Y01885*
X02625Y01885*
X02625Y01885*
X02625Y01886*
X02625Y01886*
X02624Y01886*
X02624Y01886*
X02624Y01886*
X02624Y01887*
X02623Y01887*
X02623Y01887*
X02623Y01887*
X02623Y01887*
X02622Y01887*
X02622Y01887*
X02622*
X02622Y01887*
X02621Y01887*
X02621Y01887*
X02621Y01887*
X0262Y01887*
X0262Y01887*
X0262Y01886*
X0262Y01886*
X0262Y01886*
X02619Y01886*
X02619Y01886*
X02619Y01885*
X02619Y01885*
X02619Y01885*
X02618Y01885*
X02618Y01885*
X02618Y01884*
X02618Y01884*
X02618Y01884*
X02618Y01884*
X02618Y01883*
X02618Y01883*
X02618Y01883*
X02618Y01882*
X02618Y01882*
X02618Y01882*
X02618Y01882*
X02618Y01881*
X02618Y01881*
X02619Y01881*
X02619Y01881*
X02619Y0188*
X02619Y0188*
X02619Y0188*
X0262Y0188*
X0262Y0188*
X0262Y0188*
X0262Y01879*
X0262Y01879*
X02621Y01879*
X02621Y01879*
X02621Y01879*
X02622Y01879*
X02622Y01879*
X02622*
X02622Y01879*
X02623Y01879*
X02623Y01879*
X02623Y01879*
X02623Y01879*
X02624Y01879*
X02624Y0188*
X02624Y0188*
X02624Y0188*
X02625Y0188*
X02625Y0188*
X02625Y0188*
X02625Y01881*
X02625Y01881*
X02625Y01881*
X02626Y01881*
X02626Y01882*
X02626Y01882*
X02626Y01882*
X02626Y01882*
X02626Y01883*
X02626Y01883*
X01488Y00774D02*
D01*
X01488Y00774*
X01488Y00775*
X01488Y00775*
X01488Y00775*
X01488Y00775*
X01488Y00775*
X01487Y00775*
X01487Y00775*
X01487Y00775*
X01487Y00776*
X01487Y00776*
X01487Y00776*
X01487Y00776*
X01487Y00776*
X01487Y00776*
X01487Y00776*
X01486Y00776*
X01486Y00776*
X01486Y00776*
X01486Y00776*
X01486Y00776*
X01486Y00776*
X01486*
X01486Y00776*
X01485Y00776*
X01485Y00776*
X01485Y00776*
X01485Y00776*
X01485Y00776*
X01485Y00776*
X01485Y00776*
X01485Y00776*
X01484Y00776*
X01484Y00776*
X01484Y00776*
X01484Y00775*
X01484Y00775*
X01484Y00775*
X01484Y00775*
X01484Y00775*
X01484Y00775*
X01484Y00775*
X01484Y00775*
X01484Y00774*
X01484Y00774*
X01484Y00774*
X01484Y00774*
X01484Y00774*
X01484Y00774*
X01484Y00774*
X01484Y00774*
X01484Y00773*
X01484Y00773*
X01484Y00773*
X01484Y00773*
X01484Y00773*
X01484Y00773*
X01485Y00773*
X01485Y00773*
X01485Y00773*
X01485Y00773*
X01485Y00772*
X01485Y00772*
X01485Y00772*
X01485Y00772*
X01486Y00772*
X01486Y00772*
X01486*
X01486Y00772*
X01486Y00772*
X01486Y00772*
X01486Y00772*
X01486Y00772*
X01487Y00773*
X01487Y00773*
X01487Y00773*
X01487Y00773*
X01487Y00773*
X01487Y00773*
X01487Y00773*
X01487Y00773*
X01487Y00773*
X01487Y00773*
X01488Y00774*
X01488Y00774*
X01488Y00774*
X01488Y00774*
X01488Y00774*
X01488Y00774*
X01488Y00774*
X01433D02*
D01*
X01433Y00774*
X01433Y00775*
X01433Y00775*
X01432Y00775*
X01432Y00775*
X01432Y00775*
X01432Y00775*
X01432Y00775*
X01432Y00775*
X01432Y00776*
X01432Y00776*
X01432Y00776*
X01432Y00776*
X01432Y00776*
X01432Y00776*
X01431Y00776*
X01431Y00776*
X01431Y00776*
X01431Y00776*
X01431Y00776*
X01431Y00776*
X01431Y00776*
X01431*
X0143Y00776*
X0143Y00776*
X0143Y00776*
X0143Y00776*
X0143Y00776*
X0143Y00776*
X0143Y00776*
X0143Y00776*
X01429Y00776*
X01429Y00776*
X01429Y00776*
X01429Y00776*
X01429Y00775*
X01429Y00775*
X01429Y00775*
X01429Y00775*
X01429Y00775*
X01429Y00775*
X01429Y00775*
X01429Y00775*
X01429Y00774*
X01429Y00774*
X01429Y00774*
X01429Y00774*
X01429Y00774*
X01429Y00774*
X01429Y00774*
X01429Y00774*
X01429Y00773*
X01429Y00773*
X01429Y00773*
X01429Y00773*
X01429Y00773*
X01429Y00773*
X01429Y00773*
X0143Y00773*
X0143Y00773*
X0143Y00773*
X0143Y00772*
X0143Y00772*
X0143Y00772*
X0143Y00772*
X0143Y00772*
X01431Y00772*
X01431*
X01431Y00772*
X01431Y00772*
X01431Y00772*
X01431Y00772*
X01431Y00772*
X01431Y00773*
X01432Y00773*
X01432Y00773*
X01432Y00773*
X01432Y00773*
X01432Y00773*
X01432Y00773*
X01432Y00773*
X01432Y00773*
X01432Y00773*
X01432Y00774*
X01432Y00774*
X01432Y00774*
X01433Y00774*
X01433Y00774*
X01433Y00774*
X01433Y00774*
X03055Y00814D02*
Y0087D01*
X02856Y01662D02*
X02879D01*
X02919D02*
X02942D01*
X02909Y01555D02*
Y01578D01*
X02911Y01496D02*
Y01519D01*
X02409Y01559D02*
Y01583D01*
Y01499D02*
Y01522D01*
X02394Y01381D02*
X02418D01*
X02645Y01362D02*
Y01385D01*
X02728Y00559D02*
X02783D01*
X02796Y01618D02*
Y01627D01*
X02779Y01635D02*
X02787D01*
X02796Y01627*
X02591Y01618D02*
Y01635D01*
X02608*
X02796Y01431D02*
Y01448D01*
X02779Y01431D02*
X02796D01*
X02591D02*
Y01448D01*
Y01431D02*
X02608D01*
X03728Y00437D02*
Y00492D01*
Y00519D02*
Y00574D01*
Y00598D02*
Y00653D01*
Y00677D02*
Y00732D01*
Y00755D02*
Y00811D01*
X02788Y02284D02*
X02848D01*
X02862Y02289D02*
Y02482D01*
X02988*
Y02289D02*
Y02482D01*
X02862Y02289D02*
X02988D01*
X03377Y02503D02*
Y02544D01*
X03261Y02557D02*
X03375D01*
X03261D02*
Y02575D01*
X03375*
Y02557D02*
Y02575D01*
X00821Y01096D02*
Y0112D01*
X00405Y00958D02*
X00463D01*
X00477Y00959D02*
Y01156D01*
X00623*
Y00959D02*
Y01156D01*
X00477Y00959D02*
X00623D01*
X01087Y01312D02*
Y01335D01*
X02641Y00379D02*
Y00403D01*
X02614Y01655D02*
Y01678D01*
X02861Y01204D02*
Y01228D01*
X03169Y02307D02*
Y0233D01*
X00751Y01431D02*
X00759D01*
X00751Y01352D02*
Y01431D01*
Y01352D02*
X00759D01*
Y01431*
X00773Y01438D02*
X00812D01*
X00612Y01462D02*
X0062D01*
Y01541*
X00612D02*
X0062D01*
X00612Y01462D02*
Y01541D01*
X00559Y01455D02*
X00598D01*
X00214Y00699D02*
Y00754D01*
X01055Y0079D02*
D01*
X01055Y0079*
X01055Y00791*
X01055Y00791*
X01054Y00791*
X01054Y00791*
X01054Y00792*
X01054Y00792*
X01054Y00792*
X01054Y00792*
X01054Y00793*
X01054Y00793*
X01053Y00793*
X01053Y00793*
X01053Y00793*
X01053Y00793*
X01052Y00794*
X01052Y00794*
X01052Y00794*
X01052Y00794*
X01051Y00794*
X01051Y00794*
X01051Y00794*
X01051*
X0105Y00794*
X0105Y00794*
X0105Y00794*
X01049Y00794*
X01049Y00794*
X01049Y00794*
X01049Y00793*
X01048Y00793*
X01048Y00793*
X01048Y00793*
X01048Y00793*
X01048Y00793*
X01047Y00792*
X01047Y00792*
X01047Y00792*
X01047Y00792*
X01047Y00791*
X01047Y00791*
X01047Y00791*
X01047Y00791*
X01047Y0079*
X01047Y0079*
X01047Y0079*
X01047Y0079*
X01047Y00789*
X01047Y00789*
X01047Y00789*
X01047Y00788*
X01047Y00788*
X01047Y00788*
X01047Y00788*
X01048Y00788*
X01048Y00787*
X01048Y00787*
X01048Y00787*
X01048Y00787*
X01049Y00787*
X01049Y00787*
X01049Y00786*
X01049Y00786*
X0105Y00786*
X0105Y00786*
X0105Y00786*
X01051Y00786*
X01051*
X01051Y00786*
X01051Y00786*
X01052Y00786*
X01052Y00786*
X01052Y00786*
X01052Y00787*
X01053Y00787*
X01053Y00787*
X01053Y00787*
X01053Y00787*
X01054Y00787*
X01054Y00788*
X01054Y00788*
X01054Y00788*
X01054Y00788*
X01054Y00788*
X01054Y00789*
X01054Y00789*
X01055Y00789*
X01055Y0079*
X01055Y0079*
X01055Y0079*
X01009Y01156D02*
D01*
X01009Y01156*
X01009Y01157*
X01009Y01157*
X01009Y01157*
X01009Y01158*
X01009Y01158*
X01009Y01158*
X01009Y01158*
X01009Y01159*
X01008Y01159*
X01008Y01159*
X01008Y01159*
X01008Y01159*
X01008Y01159*
X01007Y0116*
X01007Y0116*
X01007Y0116*
X01007Y0116*
X01006Y0116*
X01006Y0116*
X01006Y0116*
X01006Y0116*
X01005*
X01005Y0116*
X01005Y0116*
X01004Y0116*
X01004Y0116*
X01004Y0116*
X01004Y0116*
X01003Y0116*
X01003Y01159*
X01003Y01159*
X01003Y01159*
X01003Y01159*
X01002Y01159*
X01002Y01159*
X01002Y01158*
X01002Y01158*
X01002Y01158*
X01002Y01158*
X01002Y01157*
X01002Y01157*
X01002Y01157*
X01001Y01156*
X01001Y01156*
X01001Y01156*
X01002Y01156*
X01002Y01155*
X01002Y01155*
X01002Y01155*
X01002Y01155*
X01002Y01154*
X01002Y01154*
X01002Y01154*
X01002Y01154*
X01003Y01153*
X01003Y01153*
X01003Y01153*
X01003Y01153*
X01003Y01153*
X01004Y01153*
X01004Y01153*
X01004Y01152*
X01004Y01152*
X01005Y01152*
X01005Y01152*
X01005Y01152*
X01006*
X01006Y01152*
X01006Y01152*
X01006Y01152*
X01007Y01152*
X01007Y01153*
X01007Y01153*
X01007Y01153*
X01008Y01153*
X01008Y01153*
X01008Y01153*
X01008Y01153*
X01008Y01154*
X01009Y01154*
X01009Y01154*
X01009Y01154*
X01009Y01155*
X01009Y01155*
X01009Y01155*
X01009Y01155*
X01009Y01156*
X01009Y01156*
X01009Y01156*
X02133Y01883D02*
D01*
X02133Y01883*
X02133Y01884*
X02132Y01884*
X02132Y01884*
X02132Y01884*
X02132Y01885*
X02132Y01885*
X02132Y01885*
X02132Y01885*
X02132Y01885*
X02131Y01886*
X02131Y01886*
X02131Y01886*
X02131Y01886*
X02131Y01886*
X0213Y01887*
X0213Y01887*
X0213Y01887*
X0213Y01887*
X02129Y01887*
X02129Y01887*
X02129Y01887*
X02128*
X02128Y01887*
X02128Y01887*
X02128Y01887*
X02127Y01887*
X02127Y01887*
X02127Y01887*
X02127Y01886*
X02126Y01886*
X02126Y01886*
X02126Y01886*
X02126Y01886*
X02126Y01885*
X02125Y01885*
X02125Y01885*
X02125Y01885*
X02125Y01885*
X02125Y01884*
X02125Y01884*
X02125Y01884*
X02125Y01884*
X02125Y01883*
X02125Y01883*
X02125Y01883*
X02125Y01882*
X02125Y01882*
X02125Y01882*
X02125Y01882*
X02125Y01881*
X02125Y01881*
X02125Y01881*
X02125Y01881*
X02126Y0188*
X02126Y0188*
X02126Y0188*
X02126Y0188*
X02126Y0188*
X02127Y0188*
X02127Y01879*
X02127Y01879*
X02127Y01879*
X02128Y01879*
X02128Y01879*
X02128Y01879*
X02128Y01879*
X02129*
X02129Y01879*
X02129Y01879*
X0213Y01879*
X0213Y01879*
X0213Y01879*
X0213Y01879*
X02131Y0188*
X02131Y0188*
X02131Y0188*
X02131Y0188*
X02131Y0188*
X02132Y0188*
X02132Y01881*
X02132Y01881*
X02132Y01881*
X02132Y01881*
X02132Y01882*
X02132Y01882*
X02132Y01882*
X02133Y01882*
X02133Y01883*
X02133Y01883*
X02298D02*
D01*
X02298Y01883*
X02298Y01884*
X02298Y01884*
X02298Y01884*
X02298Y01884*
X02298Y01885*
X02297Y01885*
X02297Y01885*
X02297Y01885*
X02297Y01885*
X02297Y01886*
X02297Y01886*
X02296Y01886*
X02296Y01886*
X02296Y01886*
X02296Y01887*
X02295Y01887*
X02295Y01887*
X02295Y01887*
X02295Y01887*
X02294Y01887*
X02294Y01887*
X02294*
X02294Y01887*
X02293Y01887*
X02293Y01887*
X02293Y01887*
X02293Y01887*
X02292Y01887*
X02292Y01886*
X02292Y01886*
X02292Y01886*
X02291Y01886*
X02291Y01886*
X02291Y01885*
X02291Y01885*
X02291Y01885*
X02291Y01885*
X0229Y01885*
X0229Y01884*
X0229Y01884*
X0229Y01884*
X0229Y01884*
X0229Y01883*
X0229Y01883*
X0229Y01883*
X0229Y01882*
X0229Y01882*
X0229Y01882*
X0229Y01882*
X0229Y01881*
X02291Y01881*
X02291Y01881*
X02291Y01881*
X02291Y0188*
X02291Y0188*
X02291Y0188*
X02292Y0188*
X02292Y0188*
X02292Y0188*
X02292Y01879*
X02293Y01879*
X02293Y01879*
X02293Y01879*
X02293Y01879*
X02294Y01879*
X02294Y01879*
X02294*
X02294Y01879*
X02295Y01879*
X02295Y01879*
X02295Y01879*
X02295Y01879*
X02296Y01879*
X02296Y0188*
X02296Y0188*
X02296Y0188*
X02297Y0188*
X02297Y0188*
X02297Y0188*
X02297Y01881*
X02297Y01881*
X02297Y01881*
X02298Y01881*
X02298Y01882*
X02298Y01882*
X02298Y01882*
X02298Y01882*
X02298Y01883*
X02298Y01883*
X02473D02*
D01*
X02473Y01883*
X02473Y01884*
X02473Y01884*
X02473Y01884*
X02473Y01884*
X02473Y01885*
X02473Y01885*
X02473Y01885*
X02472Y01885*
X02472Y01885*
X02472Y01886*
X02472Y01886*
X02472Y01886*
X02471Y01886*
X02471Y01886*
X02471Y01887*
X02471Y01887*
X0247Y01887*
X0247Y01887*
X0247Y01887*
X0247Y01887*
X02469Y01887*
X02469*
X02469Y01887*
X02469Y01887*
X02468Y01887*
X02468Y01887*
X02468Y01887*
X02467Y01887*
X02467Y01886*
X02467Y01886*
X02467Y01886*
X02467Y01886*
X02466Y01886*
X02466Y01885*
X02466Y01885*
X02466Y01885*
X02466Y01885*
X02466Y01885*
X02465Y01884*
X02465Y01884*
X02465Y01884*
X02465Y01884*
X02465Y01883*
X02465Y01883*
X02465Y01883*
X02465Y01882*
X02465Y01882*
X02465Y01882*
X02465Y01882*
X02466Y01881*
X02466Y01881*
X02466Y01881*
X02466Y01881*
X02466Y0188*
X02466Y0188*
X02467Y0188*
X02467Y0188*
X02467Y0188*
X02467Y0188*
X02467Y01879*
X02468Y01879*
X02468Y01879*
X02468Y01879*
X02469Y01879*
X02469Y01879*
X02469Y01879*
X02469*
X0247Y01879*
X0247Y01879*
X0247Y01879*
X0247Y01879*
X02471Y01879*
X02471Y01879*
X02471Y0188*
X02471Y0188*
X02472Y0188*
X02472Y0188*
X02472Y0188*
X02472Y0188*
X02472Y01881*
X02473Y01881*
X02473Y01881*
X02473Y01881*
X02473Y01882*
X02473Y01882*
X02473Y01882*
X02473Y01882*
X02473Y01883*
X02473Y01883*
X02626D02*
D01*
X02626Y01883*
X02626Y01884*
X02626Y01884*
X02626Y01884*
X02626Y01884*
X02626Y01885*
X02625Y01885*
X02625Y01885*
X02625Y01885*
X02625Y01885*
X02625Y01886*
X02625Y01886*
X02624Y01886*
X02624Y01886*
X02624Y01886*
X02624Y01887*
X02623Y01887*
X02623Y01887*
X02623Y01887*
X02623Y01887*
X02622Y01887*
X02622Y01887*
X02622*
X02622Y01887*
X02621Y01887*
X02621Y01887*
X02621Y01887*
X0262Y01887*
X0262Y01887*
X0262Y01886*
X0262Y01886*
X0262Y01886*
X02619Y01886*
X02619Y01886*
X02619Y01885*
X02619Y01885*
X02619Y01885*
X02618Y01885*
X02618Y01885*
X02618Y01884*
X02618Y01884*
X02618Y01884*
X02618Y01884*
X02618Y01883*
X02618Y01883*
X02618Y01883*
X02618Y01882*
X02618Y01882*
X02618Y01882*
X02618Y01882*
X02618Y01881*
X02618Y01881*
X02619Y01881*
X02619Y01881*
X02619Y0188*
X02619Y0188*
X02619Y0188*
X0262Y0188*
X0262Y0188*
X0262Y0188*
X0262Y01879*
X0262Y01879*
X02621Y01879*
X02621Y01879*
X02621Y01879*
X02622Y01879*
X02622Y01879*
X02622*
X02622Y01879*
X02623Y01879*
X02623Y01879*
X02623Y01879*
X02623Y01879*
X02624Y01879*
X02624Y0188*
X02624Y0188*
X02624Y0188*
X02625Y0188*
X02625Y0188*
X02625Y0188*
X02625Y01881*
X02625Y01881*
X02625Y01881*
X02626Y01881*
X02626Y01882*
X02626Y01882*
X02626Y01882*
X02626Y01882*
X02626Y01883*
X02626Y01883*
X00381Y00529D02*
Y00578D01*
X0046*
Y00529D02*
Y00578D01*
X00381Y00529D02*
X0046D01*
X03752Y00083D02*
X03784D01*
X03752D02*
Y00146D01*
X03784*
Y00083D02*
Y00146D01*
X03274Y00208D02*
X03305D01*
X03274D02*
Y00271D01*
X03305*
Y00208D02*
Y00271D01*
X03261Y00823D02*
Y00855D01*
X03198Y00823D02*
X03261D01*
X03198D02*
Y00855D01*
X03261*
X02816Y00843D02*
X02847D01*
X02816D02*
Y00906D01*
X02847*
Y00843D02*
Y00906D01*
X0382Y00393D02*
X03945D01*
X0382Y00295D02*
Y00393D01*
Y00295D02*
X03945D01*
Y00393*
X02375Y02651D02*
X02501D01*
X02375Y02553D02*
Y02651D01*
Y02553D02*
X02501D01*
Y02651*
X02375Y02513D02*
X02501D01*
X02375Y02415D02*
Y02513D01*
Y02415D02*
X02501D01*
Y02513*
X01895Y0007D02*
X03295D01*
X01895D02*
Y0017D01*
X03295*
Y0007D02*
Y0017D01*
X02446Y02789D02*
X03846D01*
X02446D02*
Y02889D01*
X03846*
Y02789D02*
Y02889D01*
X0262Y00803D02*
X03482D01*
X0262Y00499D02*
Y00803D01*
Y00499D02*
X03482D01*
Y00803*
X02311Y01485D02*
Y01548D01*
X0228D02*
X02311D01*
X0228Y01485D02*
Y01548D01*
Y01485D02*
X02311D01*
X02331Y01345D02*
Y01408D01*
Y01345D02*
X02363D01*
Y01408*
X02331D02*
X02363D01*
X00257Y-00213D02*
Y00105D01*
Y-00213D02*
X00507D01*
Y00105*
X00244D02*
Y00381D01*
X00519*
Y00105D02*
Y00381D01*
X00244Y00105D02*
X00519D01*
X03776Y00096D02*
Y00344D01*
X03357Y00096D02*
X03776D01*
X03357D02*
Y00344D01*
X03776*
X03881Y00795D02*
X03944D01*
Y00826*
X03881D02*
X03944D01*
X03881Y00795D02*
Y00826D01*
X03613Y01846D02*
X03692D01*
X03613Y01767D02*
Y01846D01*
Y01767D02*
X03692D01*
Y01846*
X03673Y01633D02*
X03704D01*
Y01696*
X03673D02*
X03704D01*
X03673Y01633D02*
Y01696D01*
X0122Y00318D02*
X01456D01*
Y00082D02*
Y00318D01*
X0122Y00082D02*
X01456D01*
X0122D02*
Y00318D01*
X03807Y02133D02*
Y02448D01*
X04003*
Y02133D02*
Y02448D01*
X03807Y02133D02*
X04003D01*
X03187Y02421D02*
X03206D01*
Y02381D02*
Y02421D01*
X03187Y02381D02*
X03206D01*
X03187D02*
Y02421D01*
X00687Y0227D02*
Y02877D01*
X00246D02*
X00687D01*
X00246Y0227D02*
Y02877D01*
Y0227D02*
X00687D01*
X0095Y02607D02*
Y02843D01*
X01186*
Y02607D02*
Y02843D01*
X0095Y02607D02*
X01186D01*
X0093Y02478D02*
X00993D01*
Y02446D02*
Y02478D01*
X0093Y02446D02*
X00993D01*
X0093D02*
Y02478D01*
X03383Y02401D02*
Y02433D01*
X0332D02*
X03383D01*
X0332Y02401D02*
Y02433D01*
Y02401D02*
X03383D01*
X00849Y01163D02*
Y01195D01*
X00786Y01163D02*
X00849D01*
X00786D02*
Y01195D01*
X00849*
X01185Y0063D02*
X01736D01*
Y00031D02*
Y0063D01*
X01185Y00031D02*
X01736D01*
X01185D02*
Y0063D01*
X0075Y01487D02*
X00812D01*
Y01518*
X0075D02*
X00812D01*
X0075Y01487D02*
Y01518D01*
X00125Y01117D02*
X00156D01*
X00125D02*
Y0118D01*
X00156*
Y01117D02*
Y0118D01*
X00619Y01374D02*
Y01405D01*
X00555Y01374D02*
X00619D01*
X00555D02*
Y01405D01*
X00619*
X02607Y00316D02*
X0267D01*
Y00348*
X02607D02*
X0267D01*
X02607Y00316D02*
Y00348D01*
X01627Y00681D02*
Y00744D01*
Y00681D02*
X01659D01*
Y00744*
X01627D02*
X01659D01*
X01683D02*
X01714D01*
Y00681D02*
Y00744D01*
X01683Y00681D02*
X01714D01*
X01683D02*
Y00744D01*
X01364D02*
X01395D01*
Y00681D02*
Y00744D01*
X01364Y00681D02*
X01395D01*
X01364D02*
Y00744D01*
X01576D02*
X01608D01*
Y00681D02*
Y00744D01*
X01576Y00681D02*
X01608D01*
X01576D02*
Y00744D01*
X02644Y0116D02*
X02762D01*
X02644Y01062D02*
Y0116D01*
Y01062D02*
X02762D01*
Y0116*
X01651Y00616D02*
X01714D01*
Y00576D02*
Y00616D01*
X01651Y00576D02*
X01714D01*
X01651D02*
Y00616D01*
X03451Y01063D02*
X03502D01*
X03451D02*
Y01111D01*
X03502*
Y01063D02*
Y01111D01*
X0147Y00681D02*
Y00744D01*
Y00681D02*
X01501D01*
Y00744*
X0147D02*
X01501D01*
X01415Y00681D02*
Y00744D01*
Y00681D02*
X01446D01*
Y00744*
X01415D02*
X01446D01*
G54D11*
X01033Y01053D02*
Y01103D01*
X01043Y01113*
X01063*
X01073Y01103*
Y01053*
X01093Y01063D02*
X01103Y01053D01*
X01123*
X01133Y01063*
Y01073*
X01123Y01083*
X01113*
X01123*
X01133Y01093*
Y01103*
X01123Y01113*
X01103*
X01093Y01103*
X0052Y00656D02*
Y00716D01*
X0049*
X0048Y00706*
Y00686*
X0049Y00676*
X0052*
X005D02*
X0048Y00656D01*
X0043D02*
Y00716D01*
X0046Y00686*
X0042*
X004Y00666D02*
X0039Y00656D01*
X0037*
X0036Y00666*
Y00706*
X0037Y00716*
X0039*
X004Y00706*
Y00696*
X0039Y00686*
X0036*
X01088Y00344D02*
Y00364D01*
Y00354*
X01138*
X01148Y00364*
Y00374*
X01138Y00384*
X01148Y00284D02*
Y00324D01*
X01108Y00284*
X01098*
X01088Y00294*
Y00314*
X01098Y00324*
X02771Y02499D02*
X02751D01*
X02761*
Y02439*
X02771*
X02751*
X02681Y02489D02*
X02691Y02499D01*
X02711*
X02721Y02489*
Y02449*
X02711Y02439*
X02691*
X02681Y02449*
X02661Y02439D02*
X02641D01*
X02651*
Y02499*
X02661Y02489*
G54D12*
X0279Y01145D02*
D01*
X0279Y01146*
X0279Y01147*
X0279Y01148*
X0279Y01148*
X02789Y01149*
X02789Y0115*
X02789Y01151*
X02788Y01151*
X02788Y01152*
X02787Y01153*
X02787Y01153*
X02786Y01154*
X02786Y01154*
X02785Y01155*
X02784Y01155*
X02784Y01155*
X02783Y01156*
X02782Y01156*
X02781Y01156*
X02781Y01156*
X0278Y01157*
X02779Y01157*
X02778*
X02777Y01157*
X02777Y01156*
X02776Y01156*
X02775Y01156*
X02774Y01156*
X02774Y01155*
X02773Y01155*
X02772Y01155*
X02772Y01154*
X02771Y01154*
X0277Y01153*
X0277Y01153*
X02769Y01152*
X02769Y01151*
X02769Y01151*
X02768Y0115*
X02768Y01149*
X02768Y01148*
X02767Y01148*
X02767Y01147*
X02767Y01146*
X02767Y01145*
X02767Y01144*
X02767Y01144*
X02767Y01143*
X02768Y01142*
X02768Y01141*
X02768Y01141*
X02769Y0114*
X02769Y01139*
X02769Y01138*
X0277Y01138*
X0277Y01137*
X02771Y01137*
X02772Y01136*
X02772Y01136*
X02773Y01135*
X02774Y01135*
X02774Y01135*
X02775Y01134*
X02776Y01134*
X02777Y01134*
X02777Y01134*
X02778Y01134*
X02779*
X0278Y01134*
X02781Y01134*
X02781Y01134*
X02782Y01134*
X02783Y01135*
X02784Y01135*
X02784Y01135*
X02785Y01136*
X02786Y01136*
X02786Y01137*
X02787Y01137*
X02787Y01138*
X02788Y01138*
X02788Y01139*
X02789Y0114*
X02789Y01141*
X02789Y01141*
X0279Y01142*
X0279Y01143*
X0279Y01144*
X0279Y01144*
X0279Y01145*
X02727Y01653D02*
D01*
X02727Y01654*
X02727Y01655*
X02727Y01656*
X02726Y01657*
X02726Y01658*
X02726Y01659*
X02725Y0166*
X02725Y01661*
X02724Y01662*
X02723Y01663*
X02723Y01664*
X02722Y01664*
X02721Y01665*
X0272Y01666*
X02719Y01666*
X02718Y01667*
X02717Y01667*
X02716Y01668*
X02715Y01668*
X02714Y01668*
X02713Y01668*
X02712Y01668*
X02711*
X0271Y01668*
X02709Y01668*
X02708Y01668*
X02707Y01668*
X02706Y01667*
X02705Y01667*
X02704Y01666*
X02703Y01666*
X02702Y01665*
X02701Y01664*
X02701Y01664*
X027Y01663*
X02699Y01662*
X02699Y01661*
X02698Y0166*
X02698Y01659*
X02697Y01658*
X02697Y01657*
X02697Y01656*
X02696Y01655*
X02696Y01654*
X02696Y01653*
X02696Y01652*
X02696Y01651*
X02697Y0165*
X02697Y01649*
X02697Y01648*
X02698Y01647*
X02698Y01646*
X02699Y01645*
X02699Y01644*
X027Y01643*
X02701Y01642*
X02701Y01642*
X02702Y01641*
X02703Y0164*
X02704Y0164*
X02705Y01639*
X02706Y01639*
X02707Y01638*
X02708Y01638*
X02709Y01638*
X0271Y01638*
X02711Y01638*
X02712*
X02713Y01638*
X02714Y01638*
X02715Y01638*
X02716Y01638*
X02717Y01639*
X02718Y01639*
X02719Y0164*
X0272Y0164*
X02721Y01641*
X02722Y01642*
X02723Y01642*
X02723Y01643*
X02724Y01644*
X02725Y01645*
X02725Y01646*
X02726Y01647*
X02726Y01648*
X02726Y01649*
X02727Y0165*
X02727Y01651*
X02727Y01652*
X02727Y01653*
X02476Y00291D02*
D01*
X02476Y00292*
X02476Y00292*
X02476Y00293*
X02475Y00294*
X02475Y00295*
X02475Y00296*
X02474Y00296*
X02474Y00297*
X02474Y00298*
X02473Y00298*
X02473Y00299*
X02472Y003*
X02471Y003*
X02471Y00301*
X0247Y00301*
X02469Y00301*
X02468Y00302*
X02468Y00302*
X02467Y00302*
X02466Y00302*
X02465Y00303*
X02464Y00303*
X02464*
X02463Y00303*
X02462Y00302*
X02461Y00302*
X0246Y00302*
X0246Y00302*
X02459Y00301*
X02458Y00301*
X02457Y00301*
X02457Y003*
X02456Y003*
X02456Y00299*
X02455Y00298*
X02455Y00298*
X02454Y00297*
X02454Y00296*
X02453Y00296*
X02453Y00295*
X02453Y00294*
X02453Y00293*
X02452Y00292*
X02452Y00292*
X02452Y00291*
X02452Y0029*
X02452Y00289*
X02453Y00288*
X02453Y00288*
X02453Y00287*
X02453Y00286*
X02454Y00285*
X02454Y00285*
X02455Y00284*
X02455Y00283*
X02456Y00283*
X02456Y00282*
X02457Y00282*
X02457Y00281*
X02458Y00281*
X02459Y0028*
X0246Y0028*
X0246Y0028*
X02461Y00279*
X02462Y00279*
X02463Y00279*
X02464Y00279*
X02464*
X02465Y00279*
X02466Y00279*
X02467Y00279*
X02468Y0028*
X02468Y0028*
X02469Y0028*
X0247Y00281*
X02471Y00281*
X02471Y00282*
X02472Y00282*
X02473Y00283*
X02473Y00283*
X02474Y00284*
X02474Y00285*
X02474Y00285*
X02475Y00286*
X02475Y00287*
X02475Y00288*
X02476Y00288*
X02476Y00289*
X02476Y0029*
X02476Y00291*
X02659Y01041D02*
X02668D01*
X02664*
Y01013*
X02659*
X02668*
X02682D02*
Y01041D01*
X02691Y01032*
X027Y01041*
Y01013*
X02709Y01041D02*
Y01018D01*
X02714Y01013*
X02723*
X02728Y01018*
Y01041*
X02297Y00356D02*
X02278D01*
X02269Y00365*
X02278Y00374*
X02297*
X02283*
Y00356*
X02278Y00402D02*
Y00388D01*
X02283Y00383*
X02292*
X02297Y00388*
Y00402*
X02278Y00429D02*
Y00416D01*
X02283Y00411*
X02292*
X02297Y00416*
Y00429*
Y00438D02*
Y00448D01*
Y00443*
X02269*
Y00438*
X02297Y00461D02*
X02292D01*
Y00466*
X02297*
Y00461*
X02252Y00332D02*
X02234D01*
X02225Y00341*
X02234Y00351*
X02252*
X02238*
Y00332*
X02252Y0036D02*
X02234D01*
Y00374*
X02238Y00378*
X02252*
X02234Y00392D02*
Y00401D01*
X02238Y00406*
X02252*
Y00392*
X02248Y00387*
X02243Y00392*
Y00406*
X02252Y00415D02*
Y00424D01*
Y0042*
X02225*
Y00415*
X02252Y00442D02*
Y00451D01*
X02248Y00456*
X02238*
X02234Y00451*
Y00442*
X02238Y00438*
X02248*
X02252Y00442*
X02261Y00475D02*
Y00479D01*
X02257Y00484*
X02234*
Y0047*
X02238Y00465*
X02248*
X02252Y0047*
Y00484*
X01801Y02165D02*
Y02183D01*
X01815*
Y02174*
Y02183*
X01829*
Y02155D02*
Y02146D01*
Y02151*
X01801*
Y02155*
X01811Y02128D02*
Y02119D01*
X01815Y02114*
X01829*
Y02128*
X01824Y02133*
X0182Y02128*
Y02114*
X01829Y02105D02*
Y02091D01*
X01824Y02087*
X0182Y02091*
Y021*
X01815Y02105*
X01811Y021*
Y02087*
X01801Y02077D02*
X01829D01*
X01815*
X01811Y02073*
Y02064*
X01815Y02059*
X01829*
X01833Y0205D02*
Y02031D01*
X01806Y02004D02*
X01801Y02009D01*
Y02018*
X01806Y02022*
X01824*
X01829Y02018*
Y02009*
X01824Y02004*
X01801Y01995D02*
X01829D01*
Y01976*
X01801Y01967D02*
X01829D01*
X0182*
X01801Y01949*
X01815Y01963*
X01829Y01949*
X01902Y02151D02*
Y02169D01*
X01916*
Y0216*
Y02169*
X0193*
Y02142D02*
Y02132D01*
Y02137*
X01902*
Y02142*
X01912Y02114D02*
Y02105D01*
X01916Y021*
X0193*
Y02114*
X01925Y02118*
X01921Y02114*
Y021*
X0193Y02091D02*
Y02077D01*
X01925Y02073*
X01921Y02077*
Y02087*
X01916Y02091*
X01912Y02087*
Y02073*
X01902Y02064D02*
X0193D01*
X01916*
X01912Y02059*
Y0205*
X01916Y02045*
X0193*
X01935Y02036D02*
Y02018D01*
X01902Y02009D02*
Y01999D01*
Y02004*
X0193*
Y02009*
Y01999*
X01902Y01972D02*
Y01981D01*
X01907Y01985*
X01925*
X0193Y01981*
Y01972*
X01925Y01967*
X01907*
X01902Y01972*
X0193Y01944D02*
X01902D01*
X01916Y01958*
Y0194*
X01556Y0197D02*
X01574D01*
Y01956*
X01565*
X01574*
Y01942*
X01547D02*
X01538D01*
X01542*
Y0197*
X01547*
X01519Y01961D02*
X0151D01*
X01505Y01956*
Y01942*
X01519*
X01524Y01947*
X01519Y01952*
X01505*
X01496Y01942D02*
X01483D01*
X01478Y01947*
X01483Y01952*
X01492*
X01496Y01956*
X01492Y01961*
X01478*
X01469Y0197D02*
Y01942D01*
Y01956*
X01464Y01961*
X01455*
X01451Y01956*
Y01942*
X01441Y01938D02*
X01423D01*
X01414Y0197D02*
X01405D01*
X01409*
Y01942*
X01414*
X01405*
X01377Y0197D02*
X01386D01*
X01391Y01966*
Y01947*
X01386Y01942*
X01377*
X01372Y01947*
Y01966*
X01377Y0197*
X01345D02*
X01363D01*
Y01956*
X01354Y01961*
X0135*
X01345Y01956*
Y01947*
X0135Y01942*
X01359*
X01363Y01947*
X01632Y02138D02*
X0165D01*
Y02124*
X01641*
X0165*
Y02111*
X01623D02*
X01614D01*
X01618*
Y02138*
X01623*
X01596Y02129D02*
X01586D01*
X01582Y02124*
Y02111*
X01596*
X016Y02115*
X01596Y0212*
X01582*
X01572Y02111D02*
X01559D01*
X01554Y02115*
X01559Y0212*
X01568*
X01572Y02124*
X01568Y02129*
X01554*
X01545Y02138D02*
Y02111D01*
Y02124*
X0154Y02129*
X01531*
X01527Y02124*
Y02111*
X01517Y02106D02*
X01499D01*
X01472Y02133D02*
X01476Y02138D01*
X01485*
X0149Y02133*
Y02115*
X01485Y02111*
X01476*
X01472Y02115*
X01444Y02133D02*
X01448Y02138D01*
X01458*
X01462Y02133*
Y02129*
X01458Y02124*
X01448*
X01444Y0212*
Y02115*
X01448Y02111*
X01458*
X01462Y02115*
X03262Y01171D02*
Y01192D01*
X03242Y01171*
X03236*
X03231Y01176*
Y01187*
X03236Y01192*
X03262Y01161D02*
X03257D01*
Y01155*
X03262*
Y01161*
X03231Y01135D02*
Y01113D01*
X03236*
X03257Y01135*
X03262*
X03231Y01103D02*
X03252D01*
X03262Y01092*
X03252Y01082*
X03231*
X02847Y01002D02*
Y00974D01*
Y01002D02*
X02835D01*
X02831Y01*
X0283Y00999*
X02829Y00996*
Y00994*
X0283Y00991*
X02831Y0099*
X02835Y00988*
X02847*
X02838D02*
X02829Y00974D01*
X02804Y01002D02*
X02817Y00974D01*
X02823Y01002D02*
X02804D01*
X02781Y00992D02*
X02782Y00988D01*
X02785Y00986*
X02789Y00985*
X0279*
X02794Y00986*
X02797Y00988*
X02798Y00992*
Y00994*
X02797Y00998*
X02794Y01*
X0279Y01002*
X02789*
X02785Y01*
X02782Y00998*
X02781Y00992*
Y00986*
X02782Y00979*
X02785Y00975*
X02789Y00974*
X02792*
X02796Y00975*
X02797Y00978*
X03229Y00949D02*
Y00921D01*
Y00949D02*
X03217D01*
X03213Y00948*
X03212Y00946*
X03211Y00944*
Y00941*
X03212Y00938*
X03213Y00937*
X03217Y00936*
X03229*
X0322D02*
X03211Y00921D01*
X03186Y00949D02*
X032Y00921D01*
X03205Y00949D02*
X03186D01*
X03174D02*
X03177Y00948D01*
X03179Y00945*
Y00942*
X03177Y0094*
X03175Y00938*
X0317Y00937*
X03166Y00936*
X03163Y00933*
X03162Y0093*
Y00926*
X03163Y00924*
X03164Y00922*
X03168Y00921*
X03174*
X03177Y00922*
X03179Y00924*
X0318Y00926*
Y0093*
X03179Y00933*
X03176Y00936*
X03172Y00937*
X03167Y00938*
X03164Y0094*
X03163Y00942*
Y00945*
X03164Y00948*
X03168Y00949*
X03174*
X03831Y00487D02*
Y00459D01*
Y00487D02*
X03819D01*
X03815Y00485*
X03814Y00484*
X03813Y00481*
Y00479*
X03814Y00476*
X03815Y00475*
X03819Y00474*
X03831*
X03822D02*
X03813Y00459D01*
X03788Y00487D02*
X03801Y00459D01*
X03807Y00487D02*
X03788D01*
X03764D02*
X03777Y00459D01*
X03782Y00487D02*
X03764D01*
X03785Y00242D02*
Y00214D01*
Y00242D02*
X03773D01*
X03769Y0024*
X03768Y00239*
X03767Y00237*
Y00234*
X03768Y00231*
X03769Y0023*
X03773Y00229*
X03785*
X03776D02*
X03767Y00214D01*
X03742Y00242D02*
X03755Y00214D01*
X03761Y00242D02*
X03742D01*
X0372D02*
X03733D01*
X03735Y0023*
X03733Y00231*
X03729Y00233*
X03725*
X03722Y00231*
X03719Y00229*
X03718Y00225*
Y00222*
X03719Y00218*
X03722Y00216*
X03725Y00214*
X03729*
X03733Y00216*
X03735Y00217*
X03736Y0022*
X03308Y00367D02*
Y00339D01*
Y00367D02*
X03296D01*
X03292Y00365*
X03291Y00364*
X0329Y00361*
Y00359*
X03291Y00356*
X03292Y00355*
X03296Y00353*
X03308*
X03299D02*
X0329Y00339D01*
X03265Y00367D02*
X03278Y00339D01*
X03284Y00367D02*
X03265D01*
X03246D02*
X03259Y00348D01*
X03239*
X03246Y00367D02*
Y00339D01*
X02327Y02577D02*
X023D01*
X02327D02*
Y02588D01*
X02326Y02592*
X02325Y02594*
X02322Y02595*
X02319*
X02317Y02594*
X02315Y02592*
X02314Y02588*
Y02577*
Y02586D02*
X023Y02595D01*
X02323Y02617D02*
X02326Y02616D01*
X02327Y02612*
Y02609*
X02326Y02605*
X02322Y02603*
X02315Y02601*
X02309*
X02304Y02603*
X02301Y02605*
X023Y02609*
Y02611*
X02301Y02614*
X02304Y02617*
X02308Y02618*
X02309*
X02313Y02617*
X02315Y02614*
X02317Y02611*
Y02609*
X02315Y02605*
X02313Y02603*
X02309Y02601*
X02322Y02624D02*
X02323Y02627D01*
X02327Y02631*
X023*
X02781Y00704D02*
Y00676D01*
Y00704D02*
X02769D01*
X02765Y00702*
X02764Y00701*
X02763Y00698*
Y00696*
X02764Y00693*
X02765Y00692*
X02769Y0069*
X02781*
X02772D02*
X02763Y00676D01*
X02741Y00704D02*
X02754D01*
X02755Y00692*
X02754Y00693*
X0275Y00694*
X02746*
X02742Y00693*
X0274Y0069*
X02738Y00687*
Y00684*
X0274Y0068*
X02742Y00677*
X02746Y00676*
X0275*
X02754Y00677*
X02755Y00679*
X02757Y00681*
X02715Y00694D02*
X02716Y0069D01*
X02719Y00688*
X02723Y00687*
X02724*
X02728Y00688*
X02731Y0069*
X02732Y00694*
Y00696*
X02731Y007*
X02728Y00702*
X02724Y00704*
X02723*
X02719Y00702*
X02716Y007*
X02715Y00694*
Y00688*
X02716Y00681*
X02719Y00677*
X02723Y00676*
X02725*
X02729Y00677*
X02731Y0068*
X0314Y00942D02*
Y00914D01*
Y00942D02*
X03128D01*
X03124Y0094*
X03123Y00939*
X03122Y00937*
Y00934*
X03123Y00931*
X03124Y0093*
X03128Y00929*
X0314*
X03131D02*
X03122Y00914D01*
X031Y00942D02*
X03113D01*
X03114Y0093*
X03113Y00931*
X03109Y00933*
X03105*
X03101Y00931*
X03099Y00929*
X03097Y00925*
Y00922*
X03099Y00918*
X03101Y00916*
X03105Y00914*
X03109*
X03113Y00916*
X03114Y00917*
X03116Y0092*
X03085Y00942D02*
X03088Y0094D01*
X0309Y00938*
Y00935*
X03088Y00933*
X03086Y00931*
X03081Y0093*
X03077Y00929*
X03074Y00926*
X03073Y00924*
Y0092*
X03074Y00917*
X03075Y00916*
X03079Y00914*
X03085*
X03088Y00916*
X0309Y00917*
X03091Y0092*
Y00924*
X0309Y00926*
X03087Y00929*
X03083Y0093*
X03078Y00931*
X03075Y00933*
X03074Y00935*
Y00938*
X03075Y0094*
X03079Y00942*
X03085*
X03933Y00878D02*
Y0085D01*
Y00878D02*
X03921D01*
X03917Y00876*
X03916Y00875*
X03915Y00872*
Y0087*
X03916Y00867*
X03917Y00866*
X03921Y00864*
X03933*
X03924D02*
X03915Y0085D01*
X03893Y00878D02*
X03906D01*
X03907Y00866*
X03906Y00867*
X03902Y00868*
X03898*
X03894Y00867*
X03892Y00864*
X0389Y00861*
Y00858*
X03892Y00854*
X03894Y00851*
X03898Y0085*
X03902*
X03906Y00851*
X03907Y00853*
X03909Y00855*
X03866Y00878D02*
X03879Y0085D01*
X03884Y00878D02*
X03866D01*
X03618Y00773D02*
Y00745D01*
Y00773D02*
X03606D01*
X03602Y00772*
X03601Y0077*
X036Y00768*
Y00765*
X03601Y00762*
X03602Y00761*
X03606Y0076*
X03618*
X03609D02*
X036Y00745D01*
X03578Y00773D02*
X03591D01*
X03592Y00761*
X03591Y00762*
X03587Y00764*
X03583*
X03579Y00762*
X03577Y0076*
X03575Y00756*
Y00753*
X03577Y00749*
X03579Y00746*
X03583Y00745*
X03587*
X03591Y00746*
X03592Y00748*
X03594Y0075*
X03553Y00769D02*
X03555Y00772D01*
X03559Y00773*
X03561*
X03565Y00772*
X03568Y00768*
X03569Y00761*
Y00754*
X03568Y00749*
X03565Y00746*
X03561Y00745*
X0356*
X03556Y00746*
X03553Y00749*
X03552Y00753*
Y00754*
X03553Y00758*
X03556Y00761*
X0356Y00762*
X03561*
X03565Y00761*
X03568Y00758*
X03569Y00754*
X03618Y00727D02*
Y00699D01*
Y00727D02*
X03606D01*
X03602Y00725*
X03601Y00724*
X036Y00722*
Y00719*
X03601Y00716*
X03602Y00715*
X03606Y00714*
X03618*
X03609D02*
X036Y00699D01*
X03578Y00727D02*
X03591D01*
X03592Y00715*
X03591Y00716*
X03587Y00718*
X03583*
X03579Y00716*
X03577Y00714*
X03575Y0071*
Y00707*
X03577Y00703*
X03579Y00701*
X03583Y00699*
X03587*
X03591Y00701*
X03592Y00702*
X03594Y00705*
X03553Y00727D02*
X03566D01*
X03568Y00715*
X03566Y00716*
X03562Y00718*
X03559*
X03555Y00716*
X03552Y00714*
X03551Y0071*
Y00707*
X03552Y00703*
X03555Y00701*
X03559Y00699*
X03562*
X03566Y00701*
X03568Y00702*
X03569Y00705*
X03618Y00682D02*
Y00654D01*
Y00682D02*
X03606D01*
X03602Y00681*
X03601Y00679*
X036Y00677*
Y00674*
X03601Y00671*
X03602Y0067*
X03606Y00669*
X03618*
X03609D02*
X036Y00654D01*
X03578Y00682D02*
X03591D01*
X03592Y0067*
X03591Y00671*
X03587Y00673*
X03583*
X03579Y00671*
X03577Y00669*
X03575Y00665*
Y00662*
X03577Y00658*
X03579Y00655*
X03583Y00654*
X03587*
X03591Y00655*
X03592Y00657*
X03594Y00659*
X03556Y00682D02*
X03569Y00663D01*
X0355*
X03556Y00682D02*
Y00654D01*
X03618Y00638D02*
Y0061D01*
Y00638D02*
X03606D01*
X03602Y00637*
X03601Y00635*
X036Y00633*
Y0063*
X03601Y00627*
X03602Y00626*
X03606Y00625*
X03618*
X03609D02*
X036Y0061D01*
X03578Y00638D02*
X03591D01*
X03592Y00626*
X03591Y00627*
X03587Y00629*
X03583*
X03579Y00627*
X03577Y00625*
X03575Y00621*
Y00618*
X03577Y00614*
X03579Y00612*
X03583Y0061*
X03587*
X03591Y00612*
X03592Y00613*
X03594Y00616*
X03566Y00638D02*
X03552D01*
X0356Y00627*
X03556*
X03553Y00626*
X03552Y00625*
X03551Y00621*
Y00618*
X03552Y00614*
X03555Y00612*
X03559Y0061*
X03562*
X03566Y00612*
X03568Y00613*
X03569Y00616*
X03618Y00591D02*
Y00563D01*
Y00591D02*
X03606D01*
X03602Y00589*
X03601Y00588*
X036Y00586*
Y00583*
X03601Y0058*
X03602Y00579*
X03606Y00578*
X03618*
X03609D02*
X036Y00563D01*
X03578Y00591D02*
X03591D01*
X03592Y00579*
X03591Y0058*
X03587Y00582*
X03583*
X03579Y0058*
X03577Y00578*
X03575Y00574*
Y00571*
X03577Y00567*
X03579Y00564*
X03583Y00563*
X03587*
X03591Y00564*
X03592Y00566*
X03594Y00568*
X03568Y00584D02*
Y00586D01*
X03566Y00588*
X03565Y00589*
X03562Y00591*
X03557*
X03555Y00589*
X03553Y00588*
X03552Y00586*
Y00583*
X03553Y0058*
X03556Y00576*
X03569Y00563*
X03551*
X0382Y00316D02*
X03799D01*
X03795Y00315*
X03794Y00314*
X03792Y00311*
Y00308*
X03794Y00306*
X03795Y00304*
X03799Y00303*
X03802*
X0382Y00337D02*
X03802Y00323D01*
Y00343*
X0382Y00337D02*
X03792D01*
X03495Y02442D02*
X03483D01*
X03479Y02444*
X03478Y02445*
X03477Y02448*
Y02451*
X03478Y02454*
X03479Y02455*
X03483Y02457*
X03495*
Y02429*
X03452Y02453D02*
X03455Y02455D01*
X03459Y02457*
X03464*
X03468Y02455*
X03471Y02453*
Y0245*
X03469Y02448*
X03468Y02446*
X03465Y02445*
X03457Y02442*
X03455Y02441*
X03453Y0244*
X03452Y02437*
Y02433*
X03455Y02431*
X03459Y02429*
X03464*
X03468Y02431*
X03471Y02433*
X03446Y02451D02*
X03444Y02453D01*
X0344Y02457*
Y02429*
X00234Y00442D02*
X00216Y00414D01*
Y00442D02*
X00234Y00414D01*
X00207Y00442D02*
X00192D01*
X002Y00431*
X00196*
X00194Y0043*
X00192Y00429*
X00191Y00425*
Y00422*
X00192Y00418*
X00195Y00416*
X00199Y00414*
X00203*
X00207Y00416*
X00208Y00417*
X00209Y0042*
X02568Y0162D02*
Y016D01*
X02566Y01596*
X02564Y01594*
X0256Y01592*
X02557*
X02553Y01594*
X02551Y01596*
X02549Y016*
Y0162*
X0254Y01613D02*
Y01614D01*
X02539Y01617*
X02538Y01618*
X02535Y0162*
X0253*
X02527Y01618*
X02526Y01617*
X02525Y01614*
Y01612*
X02526Y01609*
X02529Y01605*
X02542Y01592*
X02523*
X00652Y01203D02*
Y01176D01*
X00627Y01197D02*
X00628Y012D01*
X00631Y01202*
X00633Y01203*
X00639*
X00641Y01202*
X00644Y012*
X00645Y01197*
X00647Y01193*
Y01187*
X00645Y01183*
X00644Y0118*
X00641Y01177*
X00639Y01176*
X00633*
X00631Y01177*
X00628Y0118*
X00627Y01183*
X00618Y01197D02*
Y01198D01*
X00616Y01201*
X00615Y01202*
X00612Y01203*
X00607*
X00605Y01202*
X00603Y01201*
X00602Y01198*
Y01196*
X00603Y01193*
X00606Y01189*
X00619Y01176*
X00601*
X03141Y02428D02*
X03169D01*
X03141D02*
Y02416D01*
X03142Y02412*
X03144Y02411*
X03146Y0241*
X03149*
X03152Y02411*
X03153Y02412*
X03154Y02416*
Y02428*
Y02419D02*
X03169Y0241D01*
X03141Y02397D02*
X03142Y02401D01*
X03145Y02402*
X03148*
X0315Y02401*
X03152Y02398*
X03153Y02393*
X03154Y02389*
X03157Y02387*
X0316Y02385*
X03164*
X03166Y02387*
X03168Y02388*
X03169Y02392*
Y02397*
X03168Y02401*
X03166Y02402*
X03164Y02403*
X0316*
X03157Y02402*
X03154Y024*
X03153Y02396*
X03152Y0239*
X0315Y02388*
X03148Y02387*
X03145*
X03142Y02388*
X03141Y02392*
Y02397*
X02837Y01202D02*
Y01179D01*
X02833Y01175*
X02823*
X02819Y01179*
Y01202*
X02809Y01175D02*
X028D01*
X02805*
Y01202*
X02809Y01198*
X02787D02*
X02782Y01202D01*
X02773*
X02768Y01198*
Y01179*
X02773Y01175*
X02782*
X02787Y01179*
Y01198*
X00836Y01351D02*
X00854D01*
X00859Y01347*
Y01337*
X00854Y01333*
X00836*
X00831Y01337*
Y01347*
X0084Y01342D02*
X00831Y01351D01*
Y01347D02*
X00836Y01351D01*
Y01361D02*
X00831Y01365D01*
Y01374*
X00836Y01379*
X00854*
X00859Y01374*
Y01365*
X00854Y01361*
X0085*
X00845Y01365*
Y01379*
X00534Y01517D02*
X00516D01*
X00511Y01522*
Y01531*
X00516Y01535*
X00534*
X00539Y01531*
Y01522*
X0053Y01526D02*
X00539Y01517D01*
Y01522D02*
X00534Y01517D01*
X00511Y01489D02*
Y01508D01*
X00525*
X0052Y01499*
Y01494*
X00525Y01489*
X00534*
X00539Y01494*
Y01503*
X00534Y01508*
X00111Y00713D02*
X00115Y00709D01*
Y007*
X00111Y00695*
X00092*
X00088Y007*
Y00709*
X00092Y00713*
X00088Y00737D02*
X00115D01*
X00102Y00723*
Y00741*
X00115Y00768D02*
Y0075D01*
X00102*
X00106Y00759*
Y00764*
X00102Y00768*
X00092*
X00088Y00764*
Y00755*
X00092Y0075*
X02505Y00269D02*
Y00292D01*
X02509Y00297*
X02518*
X02523Y00292*
Y00269*
X02532Y00297D02*
X02542D01*
X02537*
Y00269*
X02532Y00274*
G54D13*
X02718Y01647D02*
D01*
X02718Y01647*
X02718Y01647*
X02718Y01648*
X02718Y01648*
X02718Y01648*
X02718Y01649*
X02717Y01649*
X02717Y01649*
X02717Y0165*
X02717Y0165*
X02717Y0165*
X02716Y0165*
X02716Y0165*
X02716Y01651*
X02716Y01651*
X02715Y01651*
X02715Y01651*
X02715Y01651*
X02714Y01651*
X02714Y01651*
X02714Y01651*
X02713Y01651*
X02713*
X02713Y01651*
X02712Y01651*
X02712Y01651*
X02712Y01651*
X02712Y01651*
X02711Y01651*
X02711Y01651*
X02711Y01651*
X0271Y0165*
X0271Y0165*
X0271Y0165*
X0271Y0165*
X02709Y0165*
X02709Y01649*
X02709Y01649*
X02709Y01649*
X02709Y01648*
X02709Y01648*
X02709Y01648*
X02709Y01647*
X02709Y01647*
X02709Y01647*
X02709Y01646*
X02709Y01646*
X02709Y01646*
X02709Y01645*
X02709Y01645*
X02709Y01645*
X02709Y01645*
X02709Y01644*
X02709Y01644*
X0271Y01644*
X0271Y01643*
X0271Y01643*
X0271Y01643*
X02711Y01643*
X02711Y01643*
X02711Y01642*
X02712Y01642*
X02712Y01642*
X02712Y01642*
X02712Y01642*
X02713Y01642*
X02713Y01642*
X02713*
X02714Y01642*
X02714Y01642*
X02714Y01642*
X02715Y01642*
X02715Y01642*
X02715Y01642*
X02716Y01643*
X02716Y01643*
X02716Y01643*
X02716Y01643*
X02717Y01643*
X02717Y01644*
X02717Y01644*
X02717Y01644*
X02717Y01645*
X02718Y01645*
X02718Y01645*
X02718Y01645*
X02718Y01646*
X02718Y01646*
X02718Y01646*
X02718Y01647*
X0358Y02243D02*
D01*
X0358Y02244*
X0358Y02244*
X0358Y02244*
X0358Y02245*
X0358Y02245*
X03579Y02245*
X03579Y02245*
X03579Y02246*
X03579Y02246*
X03579Y02246*
X03578Y02246*
X03578Y02247*
X03578Y02247*
X03578Y02247*
X03577Y02247*
X03577Y02247*
X03577Y02248*
X03577Y02248*
X03576Y02248*
X03576Y02248*
X03576Y02248*
X03575Y02248*
X03575*
X03575Y02248*
X03574Y02248*
X03574Y02248*
X03574Y02248*
X03573Y02248*
X03573Y02247*
X03573Y02247*
X03572Y02247*
X03572Y02247*
X03572Y02247*
X03572Y02246*
X03571Y02246*
X03571Y02246*
X03571Y02246*
X03571Y02245*
X03571Y02245*
X03571Y02245*
X03571Y02245*
X0357Y02244*
X0357Y02244*
X0357Y02244*
X0357Y02243*
X0357Y02243*
X0357Y02243*
X0357Y02242*
X03571Y02242*
X03571Y02242*
X03571Y02241*
X03571Y02241*
X03571Y02241*
X03571Y0224*
X03571Y0224*
X03572Y0224*
X03572Y0224*
X03572Y02239*
X03572Y02239*
X03573Y02239*
X03573Y02239*
X03573Y02239*
X03574Y02239*
X03574Y02239*
X03574Y02239*
X03575Y02239*
X03575Y02238*
X03575*
X03576Y02239*
X03576Y02239*
X03576Y02239*
X03577Y02239*
X03577Y02239*
X03577Y02239*
X03577Y02239*
X03578Y02239*
X03578Y02239*
X03578Y0224*
X03578Y0224*
X03579Y0224*
X03579Y0224*
X03579Y02241*
X03579Y02241*
X03579Y02241*
X0358Y02242*
X0358Y02242*
X0358Y02242*
X0358Y02243*
X0358Y02243*
X0358Y02243*
G54D14*
X03437Y01072D02*
D01*
X03437Y01072*
X03438Y01072*
X03438Y01072*
X03438Y01072*
X03438Y01072*
X03438Y01072*
X03438Y01072*
X03438Y01072*
X03438Y01072*
X03439Y01072*
X03439Y01072*
X03439Y01072*
X03439Y01072*
X03439Y01072*
X03439Y01073*
X03439Y01073*
X03439Y01073*
X03439Y01073*
X03439Y01073*
X03439Y01073*
X03439Y01073*
X03439Y01073*
Y01074*
X03439Y01074*
X03439Y01074*
X03439Y01074*
X03439Y01074*
X03439Y01074*
X03439Y01074*
X03439Y01075*
X03439Y01075*
X03439Y01075*
X03439Y01075*
X03439Y01075*
X03439Y01075*
X03438Y01075*
X03438Y01075*
X03438Y01075*
X03438Y01075*
X03438Y01075*
X03438Y01075*
X03438Y01075*
X03438Y01075*
X03437Y01075*
X03437Y01075*
D01*
X03437Y01075*
X03437Y01075*
X03437Y01075*
X03437Y01075*
X03437Y01075*
X03436Y01075*
X03436Y01075*
X03436Y01075*
X03436Y01075*
X03436Y01075*
X03436Y01075*
X03436Y01075*
X03436Y01075*
X03436Y01075*
X03436Y01075*
X03436Y01074*
X03435Y01074*
X03435Y01074*
X03435Y01074*
X03435Y01074*
X03435Y01074*
X03435Y01074*
Y01073*
X03435Y01073*
X03435Y01073*
X03435Y01073*
X03435Y01073*
X03435Y01073*
X03436Y01073*
X03436Y01073*
X03436Y01072*
X03436Y01072*
X03436Y01072*
X03436Y01072*
X03436Y01072*
X03436Y01072*
X03436Y01072*
X03436Y01072*
X03436Y01072*
X03437Y01072*
X03437Y01072*
X03437Y01072*
X03437Y01072*
X03437Y01072*
X03437Y01072*
X02771Y01137D02*
X02787Y01153D01*
X02767Y01145D02*
X02791D01*
X02779Y01133D02*
Y01157D01*
X02771Y01153D02*
X02787Y01137D01*
X02696Y01653D02*
X02727D01*
X02712Y01637D02*
Y01669D01*
X027Y01641D02*
X02722Y01663D01*
X02702Y01662D02*
X02722Y01643D01*
X02456Y00299D02*
X02472Y00283D01*
X02456D02*
X02472Y00299D01*
X02464Y00279D02*
Y00303D01*
X02452Y00291D02*
X02476D01*
X02216Y0131D02*
X02427D01*
X02812Y01748D02*
X02833D01*
X02811Y01746D02*
X02812Y01748D01*
X02811Y01704D02*
Y01746D01*
Y01603D02*
Y01615D01*
Y0158D02*
Y01597D01*
Y01663D02*
Y01704D01*
Y01597D02*
Y01603D01*
Y01558D02*
Y0158D01*
Y01615D02*
Y01663D01*
X02216Y0131D02*
Y01561D01*
X0224Y01586*
X02348*
X00334Y00105D02*
X00429D01*
X00519Y00195D02*
Y0029D01*
X00334Y00381D02*
X00429D01*
X00244Y00195D02*
Y0029D01*
X03301Y00299D02*
X03355D01*
X03333Y00658D02*
X03374D01*
X03662Y0037*
X03235Y00299D02*
X03301D01*
X0318Y00354D02*
X03235Y00299D01*
X0318Y00354D02*
Y00658D01*
X03333*
X03535Y00792D02*
Y00842D01*
X038*
X03825Y00816*
Y00409D02*
Y00816D01*
X03635Y00409D02*
X03825D01*
X03535Y0051D02*
X03635Y00409D01*
X03535Y0051D02*
Y00823D01*
X03357Y00102D02*
Y00344D01*
X03776Y00096D02*
Y00344D01*
X0135Y01019D02*
Y01035D01*
Y01244*
X00767Y00925D02*
Y01027D01*
X00791Y01232D02*
X0098D01*
X00767Y01208D02*
X00791Y01232D01*
X00767Y01173D02*
Y01208D01*
X00893Y00952D02*
X00968D01*
X0098Y00964*
Y01232*
X00767Y01027D02*
Y01173D01*
X00872Y00923D02*
X00893Y00952D01*
X01185Y0063D02*
X01667D01*
X01185D02*
X01667D01*
X01185Y00031D02*
Y00498D01*
Y00031D02*
Y00498D01*
Y00031D02*
X01204D01*
X01185D02*
X01204D01*
X01322D02*
X01431D01*
X01322D02*
X01431D01*
X01549D02*
X01736D01*
X01549D02*
X01736D01*
Y00547*
Y00031D02*
Y00547D01*
X02926Y018D02*
X02923Y01796D01*
Y0179*
X02926Y01787*
X02929*
X02933Y0179*
Y01796*
X02936Y018*
X02939*
X02943Y01796*
Y0179*
X02939Y01787*
X02943Y01806D02*
X02923D01*
Y01816*
X02926Y01819*
X02933*
X02936Y01816*
Y01806*
X02923Y01826D02*
Y01832D01*
Y01829*
X02943*
Y01826*
Y01832*
X02926Y01842D02*
X02923Y01846D01*
Y01852*
X02926Y01855*
X02929*
X02933Y01852*
Y01849*
Y01852*
X02936Y01855*
X02939*
X02943Y01852*
Y01846*
X02939Y01842*
X03031Y015D02*
X03035Y01497D01*
X03041*
X03044Y015*
Y01504*
X03041Y01507*
X03035*
X03031Y0151*
Y01514*
X03035Y01517*
X03041*
X03044Y01514*
X03025Y01517D02*
Y01497D01*
X03015*
X03012Y015*
Y01507*
X03015Y0151*
X03025*
X03005Y01497D02*
X02999D01*
X03002*
Y01517*
X03005*
X02999*
X02989Y015D02*
X02985Y01497D01*
X02979*
X02975Y015*
Y01504*
X02979Y01507*
X02982*
X02979*
X02975Y0151*
Y01514*
X02979Y01517*
X02985*
X02989Y01514*
X0285Y01728D02*
Y01735D01*
Y01731*
X0287*
Y01728*
Y01735*
Y01757D02*
Y01744D01*
X02857Y01757*
X02853*
X0285Y01754*
Y01748*
X02853Y01744*
Y01777D02*
X0285Y01774D01*
Y01767*
X02853Y01764*
X02866*
X0287Y01767*
Y01774*
X02866Y01777*
X02618Y01304D02*
X02614Y01307D01*
X02608*
X02605Y01304*
Y01301*
X02608Y01298*
X02614*
X02618Y01294*
Y01291*
X02614Y01288*
X02608*
X02605Y01291*
X02624Y01288D02*
Y01307D01*
X02634*
X02638Y01304*
Y01298*
X02634Y01294*
X02624*
X02644Y01307D02*
X02651D01*
X02648*
Y01288*
X02644*
X02651*
X02661Y01304D02*
X02664Y01307D01*
X0267*
X02674Y01304*
Y01301*
X0267Y01298*
X02667*
X0267*
X02674Y01294*
Y01291*
X0267Y01288*
X02664*
X02661Y01291*
X02514Y01487D02*
X02511Y01484D01*
Y01477*
X02514Y01474*
X02518*
X02521Y01477*
Y01484*
X02524Y01487*
X02528*
X02531Y01484*
Y01477*
X02528Y01474*
X02531Y01494D02*
X02511D01*
Y01503*
X02514Y01507*
X02521*
X02524Y01503*
Y01494*
X02511Y01513D02*
Y0152D01*
Y01516*
X02531*
Y01513*
Y0152*
X02514Y0153D02*
X02511Y01533D01*
Y0154*
X02514Y01543*
X02518*
X02521Y0154*
Y01536*
Y0154*
X02524Y01543*
X02528*
X02531Y0154*
Y01533*
X02528Y0153*
X03334Y00642D02*
X03353D01*
Y00632*
X0335Y00628*
X03344*
X0334Y00632*
Y00642*
Y00635D02*
X03334Y00628D01*
X0335Y00609D02*
X03353Y00612D01*
Y00618*
X0335Y00622*
X03347*
X03344Y00618*
Y00612*
X0334Y00609*
X03337*
X03334Y00612*
Y00618*
X03337Y00622*
X03353Y00602D02*
Y00589D01*
Y00596*
X03334*
X0333Y00583D02*
Y00569D01*
X0335Y0055D02*
X03353Y00553D01*
Y00559*
X0335Y00563*
X03337*
X03334Y00559*
Y00553*
X03337Y0055*
X03344*
Y00556*
X03334Y00543D02*
X03347D01*
X03353Y00537*
X03347Y0053*
X03334*
X03344*
Y00543*
X03334Y00524D02*
X03353D01*
Y00514*
X0335Y0051*
X03344*
X0334Y00514*
Y00524*
X0331Y00642D02*
X03294D01*
X0329Y00638*
Y00632*
X03294Y00628*
X0331*
X0329Y00622D02*
X03304D01*
X0331Y00615*
X03304Y00609*
X0329*
X033*
Y00622*
X0329Y00602D02*
X0331D01*
Y00592*
X03307Y00589*
X033*
X03297Y00592*
Y00602*
Y00596D02*
X0329Y00589D01*
X0331Y00583D02*
Y00569D01*
Y00576*
X0329*
X03307Y00563D02*
X0331Y00559D01*
Y00553*
X03307Y0055*
X03294*
X0329Y00553*
Y00559*
X03294Y00563*
X03307*
X03287Y00543D02*
Y0053D01*
X0329Y00524D02*
X0331D01*
Y00514*
X03307Y0051*
X033*
X03297Y00514*
Y00524*
Y00517D02*
X0329Y0051D01*
X03304Y00504D02*
X0329Y0049D01*
X03297Y00497*
X03304Y0049*
X0329Y00504*
X03268Y00642D02*
X03252D01*
X03249Y00638*
Y00632*
X03252Y00628*
X03268*
X03249Y00622D02*
X03262D01*
X03268Y00615*
X03262Y00609*
X03249*
X03259*
Y00622*
X03249Y00602D02*
X03268D01*
Y00592*
X03265Y00589*
X03259*
X03255Y00592*
Y00602*
Y00596D02*
X03249Y00589D01*
X03268Y00583D02*
Y00569D01*
Y00576*
X03249*
X03265Y00563D02*
X03268Y00559D01*
Y00553*
X03265Y0055*
X03252*
X03249Y00553*
Y00559*
X03252Y00563*
X03265*
X03245Y00543D02*
Y0053D01*
X03268Y00524D02*
Y0051D01*
Y00517*
X03249*
X03262Y00504D02*
X03249Y0049D01*
X03255Y00497*
X03262Y0049*
X03249Y00504*
X03219Y00628D02*
X03222Y00632D01*
Y00638*
X03219Y00642*
X03206*
X03203Y00638*
Y00632*
X03206Y00628*
X03212*
Y00635*
X03203Y00622D02*
X03222D01*
Y00612*
X03219Y00609*
X03212*
X03209Y00612*
Y00622*
X03222Y00602D02*
Y00596D01*
Y00599*
X03203*
Y00602*
Y00596*
X03222Y00576D02*
Y00583D01*
X03219Y00586*
X03206*
X03203Y00583*
Y00576*
X03206Y00573*
X03219*
X03222Y00576*
X032Y00566D02*
Y00553D01*
X03203Y00537D02*
X03222D01*
X03212Y00546*
Y00533*
X03203Y00517D02*
X03222D01*
X03212Y00527*
Y00514*
X03326Y00437D02*
X03323Y00434D01*
Y00427*
X03326Y00424*
X03339*
X03342Y00427*
Y00434*
X03339Y00437*
X03333*
Y0043*
X03342Y00444D02*
X03323D01*
X03342Y00457*
X03323*
Y00463D02*
X03342D01*
Y00473*
X03339Y00476*
X03326*
X03323Y00473*
Y00463*
X03283Y00332D02*
Y00338D01*
Y00335*
X03303*
Y00332*
Y00338*
Y00361D02*
Y00348D01*
X0329Y00361*
X03287*
X03283Y00358*
Y00351*
X03287Y00348*
Y00381D02*
X03283Y00378D01*
Y00371*
X03287Y00368*
X033*
X03303Y00371*
Y00378*
X033Y00381*
X03303Y00388D02*
Y00394D01*
Y00391*
X03283*
X03287Y00388*
X03307Y00404D02*
Y00417D01*
X03287Y00437D02*
X03283Y00434D01*
Y00427*
X03287Y00424*
X0329*
X03293Y00427*
Y00434*
X03297Y00437*
X033*
X03303Y00434*
Y00427*
X033Y00424*
X03283Y00444D02*
X03303D01*
Y00453*
X033Y00457*
X03287*
X03283Y00453*
Y00444*
X03303Y00463D02*
X0329D01*
X03283Y0047*
X0329Y00476*
X03303*
X03293*
Y00463*
X03244Y00332D02*
Y00338D01*
Y00335*
X03264*
Y00332*
Y00338*
Y00361D02*
Y00348D01*
X03251Y00361*
X03248*
X03244Y00358*
Y00351*
X03248Y00348*
Y00381D02*
X03244Y00378D01*
Y00371*
X03248Y00368*
X03261*
X03264Y00371*
Y00378*
X03261Y00381*
X03264Y00388D02*
Y00394D01*
Y00391*
X03244*
X03248Y00388*
X03268Y00404D02*
Y00417D01*
X03248Y00437D02*
X03244Y00434D01*
Y00427*
X03248Y00424*
X03251*
X03254Y00427*
Y00434*
X03258Y00437*
X03261*
X03264Y00434*
Y00427*
X03261Y00424*
X03248Y00457D02*
X03244Y00453D01*
Y00447*
X03248Y00444*
X03261*
X03264Y00447*
Y00453*
X03261Y00457*
X03244Y00463D02*
X03264D01*
Y00476*
X03207Y00361D02*
X03203Y00358D01*
Y00351*
X03207Y00348*
X0322*
X03223Y00351*
Y00358*
X0322Y00361*
X03213*
Y00355*
X03223Y00368D02*
X03203D01*
Y00378*
X03207Y00381*
X03213*
X03216Y00378*
Y00368*
X03203Y00388D02*
Y00394D01*
Y00391*
X03223*
Y00388*
Y00394*
X03203Y00414D02*
Y00407D01*
X03207Y00404*
X0322*
X03223Y00407*
Y00414*
X0322Y00417*
X03207*
X03203Y00414*
X03226Y00424D02*
Y00437D01*
X03223Y00453D02*
X03203D01*
X03213Y00444*
Y00457*
X03203Y00476D02*
Y00463D01*
X03213*
X0321Y0047*
Y00473*
X03213Y00476*
X0322*
X03223Y00473*
Y00466*
X0322Y00463*
X02645Y01742D02*
Y01727D01*
X02653*
X02656Y01729*
Y01732*
X02653Y01735*
X02645*
X02653*
X02656Y01737*
Y0174*
X02653Y01742*
X02645*
X02672D02*
X02661D01*
Y01727*
X02672*
X02661Y01735D02*
X02666D01*
X02677Y01727D02*
Y01742D01*
X02685*
X02687Y0174*
Y01735*
X02685Y01732*
X02677*
X02682D02*
X02687Y01727D01*
X02692Y01742D02*
Y01727D01*
Y01732*
X02703Y01742*
X02695Y01735*
X02703Y01727*
X02708Y01724D02*
X02719D01*
X02724Y0174D02*
X02727Y01742D01*
X02732*
X02735Y0174*
Y01737*
X02732Y01735*
X02729*
X02732*
X02735Y01732*
Y01729*
X02732Y01727*
X02727*
X02724Y01729*
X0274Y01742D02*
Y01732D01*
X02745Y01727*
X0275Y01732*
Y01742*
X02755Y0174D02*
X02758Y01742D01*
X02763*
X02766Y0174*
Y01737*
X02763Y01735*
X02761*
X02763*
X02766Y01732*
Y01729*
X02763Y01727*
X02758*
X02755Y01729*
X02698Y01818D02*
X02695Y01821D01*
X0269*
X02688Y01818*
Y01808*
X0269Y01805*
X02695*
X02698Y01808*
X02714Y01818D02*
X02711Y01821D01*
X02706*
X02703Y01818*
Y01816*
X02706Y01813*
X02711*
X02714Y01811*
Y01808*
X02711Y01805*
X02706*
X02703Y01808*
X02719Y01803D02*
X02729D01*
X02735Y01821D02*
Y01805D01*
X02742*
X02745Y01808*
Y01811*
X02742Y01813*
X02735*
X02742*
X02745Y01816*
Y01818*
X02742Y01821*
X02735*
X02761D02*
X0275D01*
Y01805*
X02761*
X0275Y01813D02*
X02756D01*
X02766Y01805D02*
Y01821D01*
X02774*
X02777Y01818*
Y01813*
X02774Y01811*
X02766*
X02772D02*
X02777Y01805D01*
X02782Y01821D02*
Y01805D01*
Y01811*
X02792Y01821*
X02785Y01813*
X02792Y01805*
X02503Y01082D02*
X02509D01*
X02506*
Y01066*
X02503*
X02509*
X02516D02*
Y01082D01*
X02527Y01066*
Y01082*
X02532D02*
X02543D01*
X02538*
Y01066*
X02559Y01343D02*
X02557Y0134D01*
Y01335*
X02559Y01333*
X02562*
X02564Y01335*
Y0134*
X02567Y01343*
X0257*
X02572Y0134*
Y01335*
X0257Y01333*
X02572Y01348D02*
X02557D01*
Y01356*
X02559Y01359*
X02564*
X02567Y01356*
Y01348*
X02557Y01364D02*
Y01369D01*
Y01367*
X02572*
Y01364*
Y01369*
X02559Y01377D02*
X02557Y0138D01*
Y01385*
X02559Y01388*
X02562*
X02564Y01385*
Y01383*
Y01385*
X02567Y01388*
X0257*
X02572Y01385*
Y0138*
X0257Y01377*
X02575Y01393D02*
Y01403D01*
X02572Y01409D02*
X02557D01*
X02562Y01414*
X02557Y01419*
X02572*
X02557Y01432D02*
Y01427D01*
X02559Y01424*
X0257*
X02572Y01427*
Y01432*
X0257Y01435*
X02559*
X02557Y01432*
X02559Y01451D02*
X02557Y01448D01*
Y01443*
X02559Y0144*
X02562*
X02564Y01443*
Y01448*
X02567Y01451*
X0257*
X02572Y01448*
Y01443*
X0257Y0144*
X02557Y01456D02*
Y01461D01*
Y01459*
X02572*
Y01456*
Y01461*
X02059Y01305D02*
X02057Y01307D01*
X02051*
X02049Y01305*
Y01302*
X02051Y013*
X02057*
X02059Y01297*
Y01294*
X02057Y01292*
X02051*
X02049Y01294*
X02064Y01292D02*
Y01307D01*
X02072*
X02075Y01305*
Y013*
X02072Y01297*
X02064*
X0208Y01307D02*
X02085D01*
X02083*
Y01292*
X0208*
X02085*
X02093Y01305D02*
X02096Y01307D01*
X02101*
X02104Y01305*
Y01302*
X02101Y013*
X02099*
X02101*
X02104Y01297*
Y01294*
X02101Y01292*
X02096*
X02093Y01294*
X02109Y01289D02*
X0212D01*
X02135Y01305D02*
X02133Y01307D01*
X02127*
X02125Y01305*
Y01294*
X02127Y01292*
X02133*
X02135Y01294*
X0214Y01307D02*
Y01292D01*
X02151*
X02156Y01307D02*
Y01292D01*
Y01297*
X02167Y01307*
X02159Y013*
X02167Y01292*
X02766Y01287D02*
X02763Y01284D01*
Y01279*
X02766Y01276*
X02769*
X02771Y01279*
Y01284*
X02774Y01287*
X02777*
X02779Y01284*
Y01279*
X02777Y01276*
X02779Y01292D02*
X02763D01*
Y013*
X02766Y01303*
X02771*
X02774Y013*
Y01292*
X02763Y01308D02*
Y01313D01*
Y01311*
X02779*
Y01308*
Y01313*
X02766Y01321D02*
X02763Y01324D01*
Y01329*
X02766Y01331*
X02769*
X02771Y01329*
Y01326*
Y01329*
X02774Y01331*
X02777*
X02779Y01329*
Y01324*
X02777Y01321*
X02782Y01337D02*
Y01347D01*
X02779Y01352D02*
X02763D01*
X02769Y01358*
X02763Y01363*
X02779*
X02763Y01368D02*
Y01374D01*
Y01371*
X02779*
Y01368*
Y01374*
X02766Y01392D02*
X02763Y01389D01*
Y01384*
X02766Y01381*
X02769*
X02771Y01384*
Y01389*
X02774Y01392*
X02777*
X02779Y01389*
Y01384*
X02777Y01381*
X02763Y01405D02*
Y014D01*
X02766Y01397*
X02777*
X02779Y014*
Y01405*
X02777Y01407*
X02766*
X02763Y01405*
X02827Y01592D02*
X02847D01*
X02827D02*
Y01584D01*
X02828Y01581*
X02829Y0158*
X02831Y01579*
X02833*
X02835Y0158*
X02836Y01581*
X02837Y01584*
Y01592*
Y01586D02*
X02847Y01579D01*
X02827Y01562D02*
X02847Y01571D01*
X02827Y01575D02*
Y01562D01*
Y01555D02*
Y01545D01*
X02835Y01551*
Y01548*
X02836Y01546*
X02837Y01545*
X02839Y01544*
X02841*
X02844Y01545*
X02846Y01547*
X02847Y0155*
Y01553*
X02846Y01555*
X02845Y01557*
X02843Y01557*
X02444Y01416D02*
X02463D01*
X02444D02*
Y01408D01*
X02444Y01405*
X02445Y01404*
X02447Y01403*
X02449*
X02451Y01404*
X02452Y01405*
X02453Y01408*
Y01416*
Y0141D02*
X02463Y01403D01*
X02444Y01386D02*
X02463Y01395D01*
X02444Y01399D02*
Y01386D01*
X02448Y0138D02*
X02447D01*
X02445Y01379*
X02444Y01379*
X02444Y01377*
Y01373*
X02444Y01371*
X02445Y0137*
X02447Y01369*
X02449*
X02451Y0137*
X02454Y01372*
X02463Y01381*
Y01368*
X02481Y01599D02*
X025D01*
X02481D02*
Y01591D01*
X02482Y01588*
X02483Y01587*
X02485Y01586*
X02487*
X02488Y01587*
X02489Y01588*
X0249Y01591*
Y01599*
Y01592D02*
X025Y01586D01*
X02481Y01568D02*
X025Y01578D01*
X02481Y01581D02*
Y01568D01*
X02485Y01564D02*
X02484Y01562D01*
X02481Y01559*
X025*
X02822Y01694D02*
X02841D01*
X02822D02*
Y01685D01*
X02822Y01683*
X02823Y01682*
X02825Y01681*
X02827*
X02829Y01682*
X0283Y01683*
X02831Y01685*
Y01694*
Y01687D02*
X02841Y01681D01*
X02822Y01663D02*
X02841Y01673D01*
X02822Y01676D02*
Y01663D01*
Y01653D02*
X02822Y01656D01*
X02825Y01658*
X0283Y01659*
X02833*
X02837Y01658*
X0284Y01656*
X02841Y01653*
Y01651*
X0284Y01648*
X02837Y01647*
X02833Y01646*
X0283*
X02825Y01647*
X02822Y01648*
X02822Y01651*
Y01653*
X02247Y01541D02*
X02266D01*
X02247D02*
Y01533D01*
X02248Y0153*
X02248Y01529*
X0225Y01528*
X02252*
X02254Y01529*
X02255Y0153*
X02256Y01533*
Y01541*
Y01535D02*
X02266Y01528D01*
X0225Y01512D02*
X02248Y01513D01*
X02247Y01516*
Y01518*
X02248Y01521*
X0225Y01523*
X02255Y01524*
X0226*
X02263Y01523*
X02265Y01521*
X02266Y01518*
Y01517*
X02265Y01514*
X02263Y01512*
X02261Y01512*
X0226*
X02257Y01512*
X02255Y01514*
X02254Y01517*
Y01518*
X02255Y01521*
X02257Y01523*
X0226Y01524*
X02253Y01495D02*
X02256Y01496D01*
X02258Y01498*
X02259Y01501*
Y01501*
X02258Y01505*
X02256Y01506*
X02253Y01507*
X02252*
X0225Y01506*
X02248Y01505*
X02247Y01501*
Y01501*
X02248Y01498*
X0225Y01496*
X02253Y01495*
X02258*
X02262Y01496*
X02265Y01498*
X02266Y01501*
Y01503*
X02265Y01505*
X02263Y01506*
X02285Y01413D02*
X02305D01*
X02285D02*
Y01404D01*
X02286Y01401*
X02287Y01401*
X02289Y014*
X0229*
X02292Y01401*
X02293Y01401*
X02294Y01404*
Y01413*
Y01406D02*
X02305Y014D01*
X02288Y01384D02*
X02286Y01385D01*
X02285Y01388*
Y0139*
X02286Y01392*
X02289Y01394*
X02293Y01395*
X02298*
X02302Y01394*
X02304Y01392*
X02305Y0139*
Y01389*
X02304Y01386*
X02302Y01384*
X02299Y01383*
X02298*
X02295Y01384*
X02293Y01386*
X02292Y01389*
Y0139*
X02293Y01392*
X02295Y01394*
X02298Y01395*
X02285Y01374D02*
X02286Y01377D01*
X02288Y01378*
X0229*
X02292Y01377*
X02292Y01375*
X02293Y01371*
X02294Y01368*
X02296Y01367*
X02298Y01366*
X02301*
X02303Y01367*
X02304Y01368*
X02305Y0137*
Y01374*
X02304Y01377*
X02303Y01378*
X02301Y01379*
X02298*
X02296Y01378*
X02294Y01376*
X02293Y01373*
X02292Y0137*
X02292Y01368*
X0229Y01367*
X02288*
X02286Y01368*
X02285Y0137*
Y01374*
X02828Y01527D02*
X02848D01*
X02828D02*
Y01519D01*
X02829Y01516*
X0283Y01515*
X02832Y01514*
X02834*
X02836Y01515*
X02837Y01516*
X02838Y01519*
Y01527*
Y01521D02*
X02848Y01514D01*
X02831Y01499D02*
X02829Y015D01*
X02828Y01503*
Y01504*
X02829Y01507*
X02832Y01509*
X02837Y0151*
X02841*
X02845Y01509*
X02847Y01507*
X02848Y01504*
Y01503*
X02847Y01501*
X02845Y01499*
X02842Y01498*
X02841*
X02838Y01499*
X02837Y01501*
X02836Y01503*
Y01504*
X02837Y01507*
X02838Y01509*
X02841Y0151*
X02831Y01482D02*
X02829Y01483D01*
X02828Y01486*
Y01488*
X02829Y01491*
X02832Y01492*
X02837Y01494*
X02841*
X02845Y01492*
X02847Y01491*
X02848Y01488*
Y01487*
X02847Y01484*
X02845Y01482*
X02842Y01481*
X02841*
X02838Y01482*
X02837Y01484*
X02836Y01487*
Y01488*
X02837Y01491*
X02838Y01492*
X02841Y01494*
X02477Y0153D02*
X02496D01*
X02477D02*
Y01522D01*
X02478Y01519*
X02479Y01518*
X02481Y01517*
X02483*
X02485Y01518*
X02485Y01519*
X02486Y01522*
Y0153*
Y01524D02*
X02496Y01517D01*
X0248Y01501D02*
X02478Y01502D01*
X02477Y01505*
Y01507*
X02478Y0151*
X02481Y01511*
X02485Y01512*
X0249*
X02494Y01511*
X02496Y0151*
X02496Y01507*
Y01506*
X02496Y01503*
X02494Y01501*
X02491Y015*
X0249*
X02487Y01501*
X02485Y01503*
X02485Y01506*
Y01507*
X02485Y0151*
X02487Y01511*
X0249Y01512*
X02477Y01485D02*
Y01494D01*
X02485Y01495*
X02485Y01494*
X02483Y01491*
Y01488*
X02485Y01486*
X02486Y01484*
X02489Y01483*
X02491*
X02494Y01484*
X02496Y01486*
X02496Y01488*
Y01491*
X02496Y01494*
X02495Y01495*
X02493Y01496*
X0261Y01322D02*
Y01342D01*
Y01322D02*
X02619D01*
X02622Y01323*
X02622Y01324*
X02624Y01326*
Y01328*
X02622Y0133*
X02622Y01331*
X02619Y01332*
X0261*
X02617D02*
X02624Y01342D01*
X02639Y01325D02*
X02638Y01323D01*
X02635Y01322*
X02633*
X02631Y01323*
X02629Y01326*
X02628Y01331*
Y01335*
X02629Y01339*
X02631Y01341*
X02633Y01342*
X02635*
X02637Y01341*
X02639Y01339*
X0264Y01337*
Y01335*
X02639Y01333*
X02637Y01331*
X02635Y0133*
X02633*
X02631Y01331*
X02629Y01333*
X02628Y01335*
X02654Y01322D02*
X02644Y01335D01*
X02659*
X02654Y01322D02*
Y01342D01*
X02921Y01771D02*
X0294D01*
X02921D02*
Y01762D01*
X02922Y0176*
X02923Y01759*
X02925Y01758*
X02926*
X02928Y01759*
X02929Y0176*
X0293Y01762*
Y01771*
Y01764D02*
X0294Y01758D01*
X02924Y01742D02*
X02922Y01743D01*
X02921Y01746*
Y01748*
X02922Y01751*
X02925Y01753*
X02929Y01753*
X02934*
X02938Y01753*
X0294Y01751*
X0294Y01748*
Y01747*
X0294Y01744*
X02938Y01742*
X02935Y01741*
X02934*
X02931Y01742*
X02929Y01744*
X02928Y01747*
Y01748*
X02929Y01751*
X02931Y01753*
X02934Y01753*
X02925Y01736D02*
X02925D01*
X02923Y01735*
X02922Y01734*
X02921Y01733*
Y01729*
X02922Y01727*
X02923Y01726*
X02925Y01725*
X02926*
X02928Y01726*
X02931Y01728*
X0294Y01737*
Y01724*
X0233Y02442D02*
X02311D01*
X0233D02*
Y0245D01*
X02329Y02453*
X02328Y02454*
X02326Y02455*
X02325*
X02323Y02454*
X02322Y02453*
X02321Y0245*
Y02442*
Y02448D02*
X02311Y02455D01*
X02327Y0247D02*
X02329Y02469D01*
X0233Y02466*
Y02464*
X02329Y02462*
X02326Y0246*
X02322Y02459*
X02317*
X02313Y0246*
X02311Y02462*
X02311Y02464*
Y02466*
X02311Y02468*
X02313Y0247*
X02316Y02471*
X02317*
X0232Y0247*
X02322Y02468*
X02323Y02466*
Y02464*
X02322Y02462*
X0232Y0246*
X02317Y02459*
X0233Y02481D02*
X02329Y02478D01*
X02326Y02476*
X02322Y02475*
X02319*
X02314Y02476*
X02311Y02478*
X02311Y02481*
Y02483*
X02311Y02486*
X02314Y02488*
X02319Y02488*
X02322*
X02326Y02488*
X02329Y02486*
X0233Y02483*
Y02481*
X00959Y01155D02*
Y01135D01*
Y01155D02*
X0095D01*
X00948Y01154*
X00947Y01153*
X00946Y01151*
Y0115*
X00947Y01148*
X00948Y01147*
X0095Y01146*
X00959*
X00952D02*
X00946Y01135D01*
X00939Y01155D02*
X00929D01*
X00935Y01148*
X00932*
X0093Y01147*
X00929Y01146*
X00928Y01143*
Y01141*
X00929Y01138*
X00931Y01136*
X00934Y01135*
X00937*
X00939Y01136*
X0094Y01137*
X00941Y01139*
X00923Y0115D02*
Y01151D01*
X00922Y01153*
X00921Y01154*
X00919Y01155*
X00915*
X00913Y01154*
X00912Y01153*
X00912Y01151*
Y0115*
X00912Y01148*
X00914Y01145*
X00924Y01135*
X00911*
X00959Y01194D02*
Y01175D01*
Y01194D02*
X0095D01*
X00948Y01194*
X00947Y01192*
X00946Y0119*
Y01189*
X00947Y01187*
X00948Y01186*
X0095Y01185*
X00959*
X00952D02*
X00946Y01175D01*
X00939Y01194D02*
X00929D01*
X00935Y01187*
X00932*
X0093Y01186*
X00929Y01185*
X00928Y01182*
Y0118*
X00929Y01177*
X00931Y01175*
X00934Y01175*
X00937*
X00939Y01175*
X0094Y01177*
X00941Y01179*
X00922Y01194D02*
X00912D01*
X00917Y01187*
X00914*
X00912Y01186*
X00912Y01185*
X00911Y01182*
Y0118*
X00912Y01177*
X00913Y01175*
X00916Y01175*
X00919*
X00922Y01175*
X00923Y01177*
X00924Y01179*
X00112Y00493D02*
X00115Y0049D01*
Y00483*
X00112Y0048*
X00099*
X00096Y00483*
Y0049*
X00099Y00493*
X00096Y00509D02*
X00115D01*
X00105Y005*
Y00512*
X00096Y00532D02*
Y00519D01*
X00109Y00532*
X00112*
X00115Y00529*
Y00522*
X00112Y00519*
X00959Y01096D02*
Y01116D01*
X00949*
X00946Y01112*
Y01106*
X00949Y01103*
X00959*
X00952D02*
X00946Y01096D01*
X00939D02*
X00933D01*
X00936*
Y01116*
X00939Y01112*
X0091Y01116D02*
X00916Y01112D01*
X00923Y01106*
Y01099*
X0092Y01096*
X00913*
X0091Y01099*
Y01103*
X00913Y01106*
X00923*
X00959Y01061D02*
Y0108D01*
X00949*
X00946Y01077*
Y0107*
X00949Y01067*
X00959*
X00952D02*
X00946Y01061D01*
X00939D02*
X00933D01*
X00936*
Y0108*
X00939Y01077*
X0091Y0108D02*
X00923D01*
Y0107*
X00916Y01074*
X00913*
X0091Y0107*
Y01064*
X00913Y01061*
X0092*
X00923Y01064*
X00959Y01025D02*
Y01045D01*
X00949*
X00946Y01042*
Y01035*
X00949Y01032*
X00959*
X00952D02*
X00946Y01025D01*
X00939D02*
X00933D01*
X00936*
Y01045*
X00939Y01042*
X00923D02*
X0092Y01045D01*
X00913*
X0091Y01042*
Y01028*
X00913Y01025*
X0092*
X00923Y01028*
Y01042*
X01603Y00846D02*
X01583D01*
Y00836*
X01587Y00833*
X01593*
X01596Y00836*
Y00846*
Y00839D02*
X01603Y00833D01*
Y00816D02*
X01583D01*
X01593Y00826*
Y00813*
X01603Y00794D02*
Y00807D01*
X0159Y00794*
X01587*
X01583Y00797*
Y00803*
X01587Y00807*
X03486Y01144D02*
Y01127D01*
X03483Y01124*
X03476*
X03473Y01127*
Y01144*
X03466Y01124D02*
X0346D01*
X03463*
Y01144*
X03466Y0114*
X03437Y01144D02*
X0345D01*
Y01134*
X03443Y01137*
X0344*
X03437Y01134*
Y01127*
X0344Y01124*
X03447*
X0345Y01127*
X03507Y01234D02*
X03488D01*
Y01224*
X03491Y01221*
X03498*
X03501Y01224*
Y01234*
Y01228D02*
X03507Y01221D01*
Y01201D02*
Y01214D01*
X03494Y01201*
X03491*
X03488Y01205*
Y01211*
X03491Y01214*
Y01195D02*
X03488Y01192D01*
Y01185*
X03491Y01182*
X03494*
X03498Y01185*
X03501Y01182*
X03504*
X03507Y01185*
Y01192*
X03504Y01195*
X03501*
X03498Y01192*
X03494Y01195*
X03491*
X03498Y01192D02*
Y01185D01*
X03375Y01273D02*
X03355D01*
Y01263*
X03359Y0126*
X03365*
X03369Y01263*
Y01273*
Y01267D02*
X03375Y0126D01*
Y0124D02*
Y01253D01*
X03362Y0124*
X03359*
X03355Y01244*
Y0125*
X03359Y01253*
X03355Y01234D02*
Y01221D01*
X03359*
X03372Y01234*
X03375*
X03558Y0105D02*
X03556Y01051D01*
X03555Y01053*
X03553Y01055*
Y01059*
X03555Y01061*
X03556Y01062*
X03558Y01063*
X03561Y01064*
X03566*
X03568Y01063*
X0357Y01062*
X03572Y01061*
X03573Y01059*
Y01055*
X03572Y01053*
X0357Y01051*
X03568Y0105*
X03553Y01033D02*
Y01043D01*
X03562Y01044*
X03561Y01043*
X0356Y0104*
Y01037*
X03561Y01034*
X03563Y01032*
X03566Y01031*
X03568*
X0357Y01032*
X03572Y01034*
X03573Y01037*
Y0104*
X03572Y01043*
X03571Y01044*
X0357Y01044*
X03553Y01016D02*
Y01025D01*
X03562Y01026*
X03561Y01025*
X0356Y01022*
Y0102*
X03561Y01017*
X03563Y01015*
X03566Y01014*
X03568*
X0357Y01015*
X03572Y01017*
X03573Y0102*
Y01022*
X03572Y01025*
X03571Y01026*
X0357Y01027*
X03355Y0101D02*
X03359Y01013D01*
X03365*
X03369Y0101*
Y00996*
X03365Y00993*
X03359*
X03355Y00996*
X03336Y01013D02*
X03349D01*
Y01003*
X03342Y01006*
X03339*
X03336Y01003*
Y00996*
X03339Y00993*
X03346*
X03349Y00996*
X0332Y00993D02*
Y01013D01*
X03329Y01003*
X03316*
X01171Y01353D02*
X01151D01*
Y01343*
X01154Y01339*
X01161*
X01164Y01343*
Y01353*
Y01346D02*
X01171Y01339D01*
Y0132D02*
Y01333D01*
X01158Y0132*
X01154*
X01151Y01323*
Y01329*
X01154Y01333*
Y01313D02*
X01151Y0131D01*
Y01303*
X01154Y013*
X01168*
X01171Y01303*
Y0131*
X01168Y01313*
X01154*
X01312Y01066D02*
X01332D01*
Y01075*
X01329Y01079*
X01322*
X01319Y01075*
Y01066*
Y01072D02*
X01312Y01079D01*
Y01085D02*
Y01092D01*
Y01088*
X01332*
X01329Y01085*
X01316Y01101D02*
X01312Y01105D01*
Y01111*
X01316Y01114*
X01329*
X01332Y01111*
Y01105*
X01329Y01101*
X01325*
X01322Y01105*
Y01114*
X01312Y01133D02*
X01332D01*
Y01142*
X01329Y01146*
X01322*
X01319Y01142*
Y01133*
Y01139D02*
X01312Y01146D01*
Y01152D02*
Y01159D01*
Y01155*
X01332*
X01329Y01152*
X01312Y01181D02*
Y01168D01*
X01325Y01181*
X01329*
X01332Y01178*
Y01172*
X01329Y01168*
X02877Y01246D02*
Y01266D01*
X02868*
X02864Y01262*
Y01256*
X02868Y01253*
X02877*
X02871D02*
X02864Y01246D01*
X02845D02*
X02858D01*
X02845Y01259*
Y01262*
X02848Y01266*
X02855*
X02858Y01262*
X02825Y01246D02*
X02838D01*
X02825Y01259*
Y01262*
X02828Y01266*
X02835*
X02838Y01262*
X01312Y01199D02*
X01332D01*
Y01209*
X01329Y01212*
X01322*
X01319Y01209*
Y01199*
Y01205D02*
X01312Y01212D01*
Y01218D02*
Y01225D01*
Y01222*
X01332*
X01329Y01218*
X01312Y01235D02*
Y01241D01*
Y01238*
X01332*
X01329Y01235*
X01312Y01018D02*
X01332D01*
Y01028*
X01329Y01032*
X01322*
X01319Y01028*
Y01018*
Y01025D02*
X01312Y01032D01*
X01316Y01038D02*
X01312Y01042D01*
Y01048*
X01316Y01051*
X01329*
X01332Y01048*
Y01042*
X01329Y01038*
X01325*
X01322Y01042*
Y01051*
X02192Y02044D02*
X02172D01*
X02178Y02037*
X02172Y02031*
X02192*
X02175Y02024D02*
X02172Y02021D01*
Y02014*
X02175Y02011*
X02178*
X02182Y02014*
Y02018*
Y02014*
X02185Y02011*
X02188*
X02192Y02014*
Y02021*
X02188Y02024*
X02368Y02048D02*
X02348D01*
X02355Y02041*
X02348Y02035*
X02368*
Y02015D02*
Y02028D01*
X02355Y02015*
X02351*
X02348Y02018*
Y02025*
X02351Y02028*
X02521Y02043D02*
X02501D01*
X02507Y02037*
X02501Y0203*
X02521*
Y02024D02*
Y02017D01*
Y0202*
X02501*
X02504Y02024*
X02045Y02062D02*
X02025D01*
X02032Y02056*
X02025Y02049*
X02045*
Y02033D02*
X02025D01*
X02035Y02043*
Y02029*
X01161Y01392D02*
X01158Y01395D01*
Y01401*
X01161Y01405*
X01174*
X01177Y01401*
Y01395*
X01174Y01392*
X01161Y01385D02*
X01158Y01382D01*
Y01375*
X01161Y01372*
X01164*
X01168Y01375*
X01171Y01372*
X01174*
X01177Y01375*
Y01382*
X01174Y01385*
X01171*
X01168Y01382*
X01164Y01385*
X01161*
X01168Y01382D02*
Y01375D01*
X0293Y01105D02*
X02933Y01101D01*
Y01095*
X0293Y01092*
X02917*
X02914Y01095*
Y01101*
X02917Y01105*
Y01111D02*
X02914Y01114D01*
Y01121*
X02917Y01124*
X0293*
X02933Y01121*
Y01114*
X0293Y01111*
X02927*
X02924Y01114*
Y01124*
X02801Y01068D02*
X02804Y01065D01*
Y01059*
X02801Y01055*
X02788*
X02785Y01059*
Y01065*
X02788Y01068*
X02785Y01075D02*
Y01082D01*
Y01078*
X02804*
X02801Y01075*
Y01092D02*
X02804Y01095D01*
Y01101*
X02801Y01105*
X02788*
X02785Y01101*
Y01095*
X02788Y01092*
X02801*
X00173Y01122D02*
X00192D01*
Y01132*
X00189Y01135*
X00182*
X00179Y01132*
Y01122*
Y01128D02*
X00173Y01135D01*
X00192Y01142D02*
Y01155D01*
X00189*
X00176Y01142*
X00173*
X00192Y01174D02*
X00189Y01168D01*
X00182Y01161*
X00176*
X00173Y01164*
Y01171*
X00176Y01174*
X00179*
X00182Y01171*
Y01161*
X00617Y01345D02*
Y01364D01*
X00607*
X00604Y01361*
Y01355*
X00607Y01351*
X00617*
X00611D02*
X00604Y01345D01*
X00585Y01364D02*
X00591Y01361D01*
X00598Y01355*
Y01348*
X00594Y01345*
X00588*
X00585Y01348*
Y01351*
X00588Y01355*
X00598*
X00578Y01364D02*
X00565D01*
Y01361*
X00578Y01348*
Y01345*
X00864Y0151D02*
Y01491D01*
X00874*
X00877Y01494*
Y015*
X00874Y01504*
X00864*
X00871D02*
X00877Y0151D01*
X00897Y01491D02*
X0089Y01494D01*
X00884Y015*
Y01507*
X00887Y0151*
X00894*
X00897Y01507*
Y01504*
X00894Y015*
X00884*
X00903Y01494D02*
X00907Y01491D01*
X00913*
X00916Y01494*
Y01497*
X00913Y015*
X0091*
X00913*
X00916Y01504*
Y01507*
X00913Y0151*
X00907*
X00903Y01507*
X03138Y02286D02*
Y02266D01*
X03148*
X03151Y0227*
Y02276*
X03148Y02279*
X03138*
X03144D02*
X03151Y02286D01*
X03167D02*
Y02266D01*
X03157Y02276*
X0317*
X0319Y02266D02*
X03183Y0227D01*
X03177Y02276*
Y02283*
X0318Y02286*
X03187*
X0319Y02283*
Y02279*
X03187Y02276*
X03177*
X03238Y0257D02*
Y0255D01*
X03229*
X03225Y02553*
Y02566*
X03229Y0257*
X03238*
X03219Y0255D02*
X03212D01*
X03216*
Y0257*
X03219Y02566*
X00174Y00981D02*
X00171Y00985D01*
Y00991*
X00174Y00994*
X00187*
X0019Y00991*
Y00985*
X00187Y00981*
X0019Y00965D02*
X00171D01*
X00181Y00975*
Y00962*
X00187Y00955D02*
X0019Y00952D01*
Y00945*
X00187Y00942*
X00174*
X00171Y00945*
Y00952*
X00174Y00955*
X00177*
X00181Y00952*
Y00942*
X00946Y01006D02*
X00949Y01009D01*
X00955*
X00959Y01006*
Y00993*
X00955Y0099*
X00949*
X00946Y00993*
X00929Y0099D02*
Y01009D01*
X00939Y01*
X00926*
X0092Y01006D02*
X00916Y01009D01*
X0091*
X00906Y01006*
Y01003*
X0091Y01*
X00906Y00996*
Y00993*
X0091Y0099*
X00916*
X0092Y00993*
Y00996*
X00916Y01*
X0092Y01003*
Y01006*
X00916Y01D02*
X0091D01*
X003Y01268D02*
X00296Y01272D01*
Y01278*
X003Y01281*
X00312*
X00316Y01278*
Y01272*
X00312Y01268*
X00316Y01252D02*
X00296D01*
X00306Y01262*
Y01248*
X00296Y01242D02*
Y01229D01*
X003*
X00312Y01242*
X00316*
X00363Y0127D02*
X0036Y01273D01*
Y0128*
X00363Y01283*
X00376*
X0038Y0128*
Y01273*
X00376Y0127*
X0038Y01253D02*
X0036D01*
X0037Y01263*
Y0125*
X0036Y01231D02*
X00363Y01237D01*
X0037Y01244*
X00376*
X0038Y0124*
Y01234*
X00376Y01231*
X00373*
X0037Y01234*
Y01244*
X00113Y00562D02*
X00116Y00559D01*
Y00552*
X00113Y00549*
X001*
X00096Y00552*
Y00559*
X001Y00562*
X00096Y00578D02*
X00116D01*
X00106Y00568*
Y00581*
X00096Y00598D02*
X00116D01*
X00106Y00588*
Y00601*
X00115Y00633D02*
X00118Y0063D01*
Y00623*
X00115Y0062*
X00102*
X00099Y00623*
Y0063*
X00102Y00633*
X00099Y0065D02*
X00118D01*
X00109Y0064*
Y00653*
X00115Y00659D02*
X00118Y00662D01*
Y00669*
X00115Y00672*
X00112*
X00109Y00669*
Y00666*
Y00669*
X00105Y00672*
X00102*
X00099Y00669*
Y00662*
X00102Y00659*
X02936Y02626D02*
X02939Y02629D01*
X02946*
X02949Y02626*
Y02613*
X02946Y0261*
X02939*
X02936Y02613*
X02929Y02626D02*
X02926Y02629D01*
X0292*
X02916Y02626*
Y02623*
X0292Y0262*
X02923*
X0292*
X02916Y02616*
Y02613*
X0292Y0261*
X02926*
X02929Y02613*
X0291Y02629D02*
X02897D01*
Y02626*
X0291Y02613*
Y0261*
X01544Y0079D02*
X01547Y00787D01*
Y0078*
X01544Y00777*
X0153*
X01527Y0078*
Y00787*
X0153Y0079*
X01544Y00796D02*
X01547Y008D01*
Y00806*
X01544Y0081*
X0154*
X01537Y00806*
Y00803*
Y00806*
X01534Y0081*
X0153*
X01527Y00806*
Y008*
X0153Y00796*
X01547Y00829D02*
X01544Y00823D01*
X01537Y00816*
X0153*
X01527Y0082*
Y00826*
X0153Y00829*
X01534*
X01537Y00826*
Y00816*
X01498Y00849D02*
X01478D01*
Y00839*
X01481Y00836*
X01488*
X01491Y00839*
Y00849*
Y00842D02*
X01498Y00836D01*
Y0082D02*
X01478D01*
X01488Y00829*
Y00816*
X01498Y0081D02*
Y00803D01*
Y00806*
X01478*
X01481Y0081*
X01655Y00845D02*
X01635D01*
Y00835*
X01638Y00832*
X01645*
X01648Y00835*
Y00845*
Y00838D02*
X01655Y00832D01*
Y00816D02*
X01635D01*
X01645Y00825*
Y00812*
X01638Y00806D02*
X01635Y00802D01*
Y00796*
X01638Y00792*
X01652*
X01655Y00796*
Y00802*
X01652Y00806*
X01638*
X01708Y00845D02*
X01688D01*
Y00835*
X01692Y00832*
X01698*
X01701Y00835*
Y00845*
Y00838D02*
X01708Y00832D01*
X01692Y00825D02*
X01688Y00822D01*
Y00816*
X01692Y00812*
X01695*
X01698Y00816*
Y00819*
Y00816*
X01701Y00812*
X01705*
X01708Y00816*
Y00822*
X01705Y00825*
Y00806D02*
X01708Y00802D01*
Y00796*
X01705Y00792*
X01692*
X01688Y00796*
Y00802*
X01692Y00806*
X01695*
X01698Y00802*
Y00792*
X01389Y00853D02*
X0137D01*
Y00843*
X01373Y0084*
X01379*
X01383Y00843*
Y00853*
Y00846D02*
X01389Y0084D01*
X01373Y00833D02*
X0137Y0083D01*
Y00824*
X01373Y0082*
X01376*
X01379Y00824*
Y00827*
Y00824*
X01383Y0082*
X01386*
X01389Y00824*
Y0083*
X01386Y00833*
X01373Y00814D02*
X0137Y0081D01*
Y00804*
X01373Y008*
X01376*
X01379Y00804*
X01383Y008*
X01386*
X01389Y00804*
Y0081*
X01386Y00814*
X01383*
X01379Y0081*
X01376Y00814*
X01373*
X01379Y0081D02*
Y00804D01*
X01446Y0085D02*
X01427D01*
Y0084*
X0143Y00837*
X01437*
X0144Y0084*
Y0085*
Y00843D02*
X01446Y00837D01*
X0143Y0083D02*
X01427Y00827D01*
Y0082*
X0143Y00817*
X01433*
X01437Y0082*
Y00824*
Y0082*
X0144Y00817*
X01443*
X01446Y0082*
Y00827*
X01443Y0083*
X01427Y00811D02*
Y00798D01*
X0143*
X01443Y00811*
X01446*
X02532Y01653D02*
X02551D01*
Y01663*
X02548Y01666*
X02542*
X02538Y01663*
Y01653*
Y0166D02*
X02532Y01666D01*
X02548Y01673D02*
X02551Y01676D01*
Y01683*
X02548Y01686*
X02545*
X02542Y01683*
Y0168*
Y01683*
X02538Y01686*
X02535*
X02532Y01683*
Y01676*
X02535Y01673*
X02709Y0035D02*
X0269D01*
Y0034*
X02693Y00337*
X02699*
X02703Y0034*
Y0035*
Y00343D02*
X02709Y00337D01*
Y00317D02*
Y0033D01*
X02696Y00317*
X02693*
X0269Y0032*
Y00327*
X02693Y0033*
X02564Y00377D02*
X02584D01*
Y00387*
X02581Y0039*
X02574*
X02571Y00387*
Y00377*
Y00384D02*
X02564Y0039D01*
Y00397D02*
Y00403D01*
Y004*
X02584*
X02581Y00397*
X02854Y0143D02*
X02857Y01427D01*
Y0142*
X02854Y01417*
X02841*
X02838Y0142*
Y01427*
X02841Y0143*
X02857Y01437D02*
Y0145D01*
X02854*
X02841Y01437*
X02838*
X0285Y01371D02*
X02853Y01368D01*
Y01361*
X0285Y01358*
X02837*
X02834Y01361*
Y01368*
X02837Y01371*
X02853Y0139D02*
X0285Y01384D01*
X02844Y01377*
X02837*
X02834Y01381*
Y01387*
X02837Y0139*
X0284*
X02844Y01387*
Y01377*
X02462Y00734D02*
X02466Y00737D01*
X02472*
X02475Y00734*
Y00721*
X02472Y00718*
X02466*
X02462Y00721*
X02443Y00737D02*
X02456D01*
Y00728*
X0245Y00731*
X02446*
X02443Y00728*
Y00721*
X02446Y00718*
X02453*
X02456Y00721*
X02413Y00733D02*
X02416Y00737D01*
X02423*
X02426Y00733*
Y0072*
X02423Y00717*
X02416*
X02413Y0072*
X02397Y00717D02*
Y00737D01*
X02407Y00727*
X02394*
X02349Y00733D02*
X02353Y00737D01*
X02359*
X02362Y00733*
Y0072*
X02359Y00717*
X02353*
X02349Y0072*
X02343Y00733D02*
X02339Y00737D01*
X02333*
X02329Y00733*
Y0073*
X02333Y00727*
X02336*
X02333*
X02329Y00724*
Y0072*
X02333Y00717*
X02339*
X02343Y0072*
X0272Y00488D02*
X02723Y00485D01*
Y00479*
X0272Y00475*
X02707*
X02703Y00479*
Y00485*
X02707Y00488*
X02703Y00508D02*
Y00495D01*
X02716Y00508*
X0272*
X02723Y00505*
Y00498*
X0272Y00495*
X02576Y00487D02*
X0258Y00483D01*
Y00477*
X02576Y00474*
X02563*
X0256Y00477*
Y00483*
X02563Y00487*
X0256Y00493D02*
Y005D01*
Y00496*
X0258*
X02576Y00493*
X02713Y01596D02*
D01*
X02713Y01597*
X02713Y01599*
X02713Y016*
X02713Y01601*
X02712Y01603*
X02712Y01604*
X02711Y01605*
X0271Y01606*
X0271Y01608*
X02709Y01609*
X02708Y0161*
X02707Y01611*
X02706Y01611*
X02705Y01612*
X02703Y01613*
X02702Y01614*
X02701Y01614*
X027Y01615*
X02698Y01615*
X02697Y01615*
X02696Y01616*
X02694Y01616*
X02693*
X02692Y01616*
X0269Y01615*
X02689Y01615*
X02688Y01615*
X02686Y01614*
X02685Y01614*
X02684Y01613*
X02683Y01612*
X02681Y01611*
X0268Y01611*
X02679Y0161*
X02679Y01609*
X02678Y01608*
X02677Y01606*
X02676Y01605*
X02676Y01604*
X02675Y01603*
X02675Y01601*
X02674Y016*
X02674Y01599*
X02674Y01597*
X02674Y01596*
X02674Y01595*
X02674Y01593*
X02674Y01592*
X02675Y01591*
X02675Y01589*
X02676Y01588*
X02676Y01587*
X02677Y01586*
X02678Y01584*
X02679Y01583*
X02679Y01582*
X0268Y01581*
X02681Y0158*
X02683Y0158*
X02684Y01579*
X02685Y01578*
X02686Y01578*
X02688Y01577*
X02689Y01577*
X0269Y01577*
X02692Y01576*
X02693Y01576*
X02694*
X02696Y01576*
X02697Y01577*
X02698Y01577*
X027Y01577*
X02701Y01578*
X02702Y01578*
X02703Y01579*
X02705Y0158*
X02706Y0158*
X02707Y01581*
X02708Y01582*
X02709Y01583*
X0271Y01584*
X0271Y01586*
X02711Y01587*
X02712Y01588*
X02712Y01589*
X02713Y01591*
X02713Y01592*
X02713Y01593*
X02713Y01595*
X02713Y01596*
X01213Y00972D02*
X01276D01*
Y0094D02*
Y00972D01*
X01213Y0094D02*
X01276D01*
X01213D02*
Y00972D01*
X02992Y00811D02*
Y00874D01*
X03118*
Y00811D02*
Y00874D01*
X02992Y00811D02*
X03118D01*
X01826Y02035D02*
X0198D01*
Y01842D02*
Y02035D01*
X01826Y01842D02*
X0198D01*
X01826D02*
Y02035D01*
Y01985D02*
X01876Y02035D01*
X02527Y01886D02*
Y01918D01*
Y01886D02*
X0259D01*
Y01918*
X02527D02*
X0259D01*
X02577Y01936D02*
X02592Y01951D01*
Y01936D02*
Y01967D01*
X02529D02*
X02592D01*
X02529Y01936D02*
Y01967D01*
Y01936D02*
X02592D01*
X02409D02*
X02472D01*
X02409D02*
Y01967D01*
X02472*
Y01936D02*
Y01967D01*
X02456Y01936D02*
X02472Y01951D01*
X01541Y00844D02*
X01561Y00824D01*
X01541D02*
X02328D01*
Y01612*
X01541D02*
X02328D01*
X01541Y00824D02*
Y01612D01*
X02852Y01694D02*
X02883D01*
Y0163D02*
Y01694D01*
X02852Y0163D02*
X02883D01*
X02852D02*
Y01694D01*
X02915D02*
X02946D01*
Y0163D02*
Y01694D01*
X02915Y0163D02*
X02946D01*
X02915D02*
Y01694D01*
X0294Y01551D02*
Y01582D01*
X02877Y01551D02*
X0294D01*
X02877D02*
Y01582D01*
X0294*
X02942Y01492D02*
Y01523D01*
X02879Y01492D02*
X02942D01*
X02879D02*
Y01523D01*
X02942*
X02377Y01556D02*
Y01587D01*
X0244*
Y01556D02*
Y01587D01*
X02377Y01556D02*
X0244D01*
X02377Y01494D02*
Y01526D01*
X0244*
Y01494D02*
Y01526D01*
X02377Y01494D02*
X0244D01*
X0239Y01413D02*
X02422D01*
Y0135D02*
Y01413D01*
X0239Y0135D02*
X02422D01*
X0239D02*
Y01413D01*
X02677Y01358D02*
Y01389D01*
X02614Y01358D02*
X02677D01*
X02614D02*
Y01389D01*
X02677*
X02724Y00622D02*
X02787D01*
Y00496D02*
Y00622D01*
X02724Y00496D02*
X02787D01*
X02724D02*
Y00622D01*
X02792Y01435D02*
Y01623D01*
X02595Y01435D02*
X02792D01*
X02783Y01631D02*
X02792Y01623D01*
X02595Y01435D02*
Y01631D01*
X02783*
X03798Y00147D02*
X04027D01*
X03798D02*
Y00987D01*
X04027*
Y00147D02*
Y00987D01*
X03791Y00433D02*
Y00496D01*
X03665Y00433D02*
X03791D01*
X03665D02*
Y00496D01*
X03791*
Y00515D02*
Y00578D01*
X03665Y00515D02*
X03791D01*
X03665D02*
Y00578D01*
X03791*
Y00594D02*
Y00657D01*
X03665Y00594D02*
X03791D01*
X03665D02*
Y00657D01*
X03791*
Y00673D02*
Y00736D01*
X03665Y00673D02*
X03791D01*
X03665D02*
Y00736D01*
X03791*
Y00751D02*
Y00814D01*
X03665Y00751D02*
X03791D01*
X03665D02*
Y00814D01*
X03791*
X03664Y02393D02*
X03727D01*
X03664D02*
Y02424D01*
X03727*
Y02393D02*
Y02424D01*
X03669Y00775D02*
Y00874D01*
X0359Y00775D02*
X03669D01*
X0359D02*
Y00874D01*
X03669*
X03785Y01767D02*
Y01807D01*
X03805*
Y01767D02*
Y01807D01*
X03785Y01767D02*
X03805D01*
X03541Y01141D02*
Y01181D01*
X03561*
Y01141D02*
Y01181D01*
X03541Y01141D02*
X03561D01*
X0321Y02629D02*
X0323D01*
X0321Y0259D02*
Y02629D01*
Y0259D02*
X0323D01*
Y02629*
X03179D02*
X03198D01*
X03179Y0259D02*
Y02629D01*
Y0259D02*
X03198D01*
Y02629*
X01211Y00384D02*
X01274D01*
Y00353D02*
Y00384D01*
X01211Y00353D02*
X01274D01*
X01211D02*
Y00384D01*
X01206Y00468D02*
X01269D01*
Y00437D02*
Y00468D01*
X01206Y00437D02*
X01269D01*
X01206D02*
Y00468D01*
X03631Y01049D02*
Y01092D01*
X03687*
Y01049D02*
Y01092D01*
X03631Y01049D02*
X03687D01*
X03622Y01616D02*
Y01714D01*
X03543Y01616D02*
X03622D01*
X03543D02*
Y01714D01*
X03622*
X03545Y01909D02*
X03564D01*
X03545Y0187D02*
Y01909D01*
Y0187D02*
X03564D01*
Y01909*
Y0096D02*
X03584D01*
X03564Y00921D02*
Y0096D01*
Y00921D02*
X03584D01*
Y0096*
X03525Y00929D02*
X03545D01*
X03525Y00889D02*
Y00929D01*
Y00889D02*
X03545D01*
Y00929*
X03161Y02582D02*
Y02622D01*
X03141Y02582D02*
X03161D01*
X03141D02*
Y02622D01*
X03161*
X03531Y02448D02*
X03594D01*
X03531D02*
Y0248D01*
X03594*
Y02448D02*
Y0248D01*
X03538Y02114D02*
X03587D01*
Y02192*
X03538D02*
X03587D01*
X03538Y02114D02*
Y02192D01*
X03657Y02118D02*
Y02181D01*
X03625Y02118D02*
X03657D01*
X03625D02*
Y02181D01*
X03657*
X0087Y01968D02*
Y02031D01*
X00901*
Y01968D02*
Y02031D01*
X0087Y01968D02*
X00901D01*
X00814D02*
Y02031D01*
X00846*
Y01968D02*
Y02031D01*
X00814Y01968D02*
X00846D01*
X00791D02*
Y02031D01*
X00759Y01968D02*
X00791D01*
X00759D02*
Y02031D01*
X00791*
X00637Y01909D02*
X00669D01*
Y01972*
X00637D02*
X00669D01*
X00637Y01909D02*
Y01972D01*
X02848Y02339D02*
X02898Y02289D01*
X02848D02*
Y02482D01*
X03001*
Y02289D02*
Y02482D01*
X02848Y02289D02*
X03001D01*
X02893Y02551D02*
X02956D01*
Y02582*
X02893D02*
X02956D01*
X02893Y02551D02*
Y02582D01*
X02951Y02301D02*
Y02474D01*
X03207*
Y02301D02*
Y02474D01*
X02951Y02301D02*
X03207D01*
X02951Y02326D02*
X02977Y02301D01*
X0296Y02582D02*
X0298D01*
Y02622*
X0296D02*
X0298D01*
X0296Y02582D02*
Y02622D01*
X02915Y02581D02*
X02935D01*
Y0262*
X02915D02*
X02935D01*
X02915Y02581D02*
Y0262D01*
X03007Y02582D02*
X03027D01*
Y02622*
X03007D02*
X03027D01*
X03007Y02582D02*
Y02622D01*
X03052D02*
X03072D01*
X03052Y02582D02*
Y02622D01*
Y02582D02*
X03072D01*
Y02622*
X03097D02*
X03117D01*
X03097Y02582D02*
Y02622D01*
Y02582D02*
X03117D01*
Y02622*
X02409Y00456D02*
Y00488D01*
Y00456D02*
X02472D01*
Y00488*
X02409D02*
X02472D01*
X03326Y0224D02*
Y02271D01*
Y0224D02*
X03389D01*
Y02271*
X03326D02*
X03389D01*
X0372Y02118D02*
Y02181D01*
X03688Y02118D02*
X0372D01*
X03688D02*
Y02181D01*
X0372*
X03661Y02298D02*
X03724D01*
Y02267D02*
Y02298D01*
X03661Y02267D02*
X03724D01*
X03661D02*
Y02298D01*
X0366Y02362D02*
X03723D01*
Y02331D02*
Y02362D01*
X0366Y02331D02*
X03723D01*
X0366D02*
Y02362D01*
X03442Y02144D02*
X03458Y02128D01*
X03427Y02144D02*
X03458D01*
X03427Y02081D02*
Y02144D01*
Y02081D02*
X03458D01*
Y02144*
X03536Y02259D02*
X03565Y02288D01*
X03447Y02259D02*
X03565D01*
X03447D02*
Y02377D01*
X03565*
Y02259D02*
Y02377D01*
X02083Y01727D02*
X02146D01*
Y01696D02*
Y01727D01*
X02083Y01696D02*
X02146D01*
X02083D02*
Y01727D01*
X03338Y02541D02*
X03375Y02578D01*
X03261Y02541D02*
X03375D01*
X03261D02*
Y02592D01*
X03375*
Y02541D02*
Y02592D01*
X0079Y01092D02*
X00853D01*
Y01124*
X0079D02*
X00853D01*
X0079Y01092D02*
Y01124D01*
X00463Y00985D02*
X00489Y00959D01*
X00463D02*
Y01156D01*
X00637*
Y00959D02*
Y01156D01*
X00463Y00959D02*
X00637D01*
X00792Y00958D02*
Y00978D01*
X00831*
Y00958D02*
Y00978D01*
X00792Y00958D02*
X00831D01*
X01605Y01814D02*
Y01846D01*
X01542D02*
X01605D01*
X01542Y01814D02*
Y01846D01*
Y01814D02*
X01605D01*
X01622Y01874D02*
Y01924D01*
X01543D02*
X01622D01*
X01543Y01874D02*
Y01924D01*
Y01874D02*
X01622D01*
X01445Y00724D02*
Y00787D01*
X01319D02*
X01445D01*
X01319Y00724D02*
Y00787D01*
Y00724D02*
X01445D01*
X03326Y02362D02*
X03389D01*
Y0233D02*
Y02362D01*
X03326Y0233D02*
X03389D01*
X03326D02*
Y02362D01*
X00323Y01331D02*
Y01394D01*
X00291D02*
X00323D01*
X00291Y01331D02*
Y01394D01*
Y01331D02*
X00323D01*
X00355Y01396D02*
X00387D01*
Y01333D02*
Y01396D01*
X00355Y01333D02*
X00387D01*
X00355D02*
Y01396D01*
X00149Y00496D02*
Y00528D01*
X00212*
Y00496D02*
Y00528D01*
X00149Y00496D02*
X00212D01*
X00149Y00596D02*
X00212D01*
X00149Y00564D02*
Y00596D01*
Y00564D02*
X00212D01*
Y00596*
X00149Y00624D02*
X00212D01*
Y00655*
X00149D02*
X00212D01*
X00149Y00624D02*
Y00655D01*
X01124Y01373D02*
Y01404D01*
X01061Y01373D02*
X01124D01*
X01061D02*
Y01404D01*
X01124*
X02001Y02067D02*
Y02098D01*
X01938D02*
X02001D01*
X01938Y02067D02*
Y02098D01*
Y02067D02*
X02001D01*
X0233Y01936D02*
X02346Y01951D01*
Y01936D02*
Y01967D01*
X02283D02*
X02346D01*
X02283Y01936D02*
Y01967D01*
Y01936D02*
X02346D01*
X01118Y01307D02*
Y01339D01*
X01056Y01307D02*
X01118D01*
X01056D02*
Y01339D01*
X01118*
X02405Y00633D02*
X02484D01*
X02405D02*
Y00683D01*
X02484*
Y00633D02*
Y00683D01*
X0247Y00718D02*
Y0075D01*
X02407D02*
X0247D01*
X02407Y00718D02*
Y0075D01*
Y00718D02*
X0247D01*
X02406Y00777D02*
Y00809D01*
Y00777D02*
X02469D01*
Y00809*
X02406D02*
X02469D01*
X04003Y01641D02*
Y01673D01*
X0394D02*
X04003D01*
X0394Y01641D02*
Y01673D01*
Y01641D02*
X04003D01*
X02444Y0135D02*
Y01381D01*
Y0135D02*
X02507D01*
Y01381*
X02444D02*
X02507D01*
X0261Y00407D02*
X02673D01*
X0261Y00375D02*
Y00407D01*
Y00375D02*
X02673D01*
Y00407*
X02645Y01651D02*
Y01682D01*
X02582Y01651D02*
X02645D01*
X02582D02*
Y01682D01*
X02645*
X02266Y02663D02*
Y02892D01*
X01427Y02663D02*
X02266D01*
X01427D02*
Y02892D01*
X02266*
X0392Y0145D02*
X03998D01*
X0392D02*
Y01608D01*
X03998*
Y0145D02*
Y01608D01*
X00795Y01048D02*
X00835D01*
Y01067*
X00795D02*
X00835D01*
X00795Y01048D02*
Y01067D01*
X03944Y01736D02*
X04007D01*
Y01704D02*
Y01736D01*
X03944Y01704D02*
X04007D01*
X03944D02*
Y01736D01*
Y0172D02*
X0396Y01736D01*
X04013Y01769D02*
Y01789D01*
X03974D02*
X04013D01*
X03974Y01769D02*
Y01789D01*
Y01769D02*
X04013D01*
X00792Y01004D02*
X00831D01*
Y01024*
X00792D02*
X00831D01*
X00792Y01004D02*
Y01024D01*
X02405Y01887D02*
Y01918D01*
Y01887D02*
X02468D01*
Y01918*
X02405D02*
X02468D01*
X02158Y0192D02*
X02221D01*
Y01889D02*
Y0192D01*
X02158Y01889D02*
X02221D01*
X02158D02*
Y0192D01*
X02281Y01919D02*
X02344D01*
Y01888D02*
Y01919D01*
X02281Y01888D02*
X02344D01*
X02281D02*
Y01919D01*
X01688Y00524D02*
X0172D01*
X01688Y00461D02*
Y00524D01*
Y00461D02*
X0172D01*
Y00524*
X0161D02*
X01641D01*
X0161Y00461D02*
Y00524D01*
Y00461D02*
X01641D01*
Y00524*
X01872Y00475D02*
Y00538D01*
X01841Y00475D02*
X01872D01*
X01841D02*
Y00538D01*
X01872*
X03455Y01196D02*
Y01235D01*
Y01196D02*
X03474D01*
Y01235*
X03455D02*
X03474D01*
X03355Y01152D02*
Y01192D01*
Y01152D02*
X03375D01*
Y01192*
X03355D02*
X03375D01*
X03575Y01084D02*
Y01124D01*
X03555D02*
X03575D01*
X03555Y01084D02*
Y01124D01*
Y01084D02*
X03575D01*
X03354Y01031D02*
X03374D01*
X03354D02*
Y0107D01*
X03374*
Y01031D02*
Y0107D01*
X01261Y01109D02*
Y01121D01*
X01284*
Y01109D02*
Y01121D01*
X01261Y01109D02*
X01284D01*
X01261Y01152D02*
Y01164D01*
X01284*
Y01152D02*
Y01164D01*
X01261Y01152D02*
X01284D01*
X02829Y012D02*
Y01232D01*
X02892*
Y012D02*
Y01232D01*
X02829Y012D02*
X02892D01*
X01261Y01198D02*
Y0121D01*
X01285*
Y01198D02*
Y0121D01*
X01261Y01198D02*
X01285D01*
X01261Y01057D02*
Y01068D01*
X01285*
Y01057D02*
Y01068D01*
X01261Y01057D02*
X01285D01*
X02868Y01059D02*
Y01122D01*
Y01059D02*
X02899D01*
Y01122*
X02868D02*
X02899D01*
X02814Y01058D02*
Y01121D01*
Y01058D02*
X02845D01*
Y01121*
X02814D02*
X02845D01*
X03137Y02334D02*
X032D01*
X03137Y02303D02*
Y02334D01*
Y02303D02*
X032D01*
Y02334*
X00731Y01431D02*
X0078D01*
X00731Y01352D02*
Y01431D01*
Y01352D02*
X0078D01*
Y01431*
X00754D02*
X0078Y01405D01*
X00591Y01462D02*
X0064D01*
Y01541*
X00591D02*
X0064D01*
X00591Y01462D02*
Y01541D01*
Y01488D02*
X00617Y01462D01*
X04025Y01111D02*
Y01311D01*
X03892D02*
X04025D01*
X03892Y01111D02*
Y01311D01*
Y01111D02*
X04025D01*
X00125Y00982D02*
X00157D01*
Y00919D02*
Y00982D01*
X00125Y00919D02*
X00157D01*
X00125D02*
Y00982D01*
X00786Y00896D02*
Y00928D01*
X00849*
Y00896D02*
Y00928D01*
X00786Y00896D02*
X00849D01*
X00151Y00695D02*
X00277D01*
Y00758*
X00151D02*
X00277D01*
X00151Y00695D02*
Y00758D01*
X01521Y00681D02*
X01553D01*
X01521D02*
Y00744D01*
X01553*
Y00681D02*
Y00744D01*
X02168Y01936D02*
X02231D01*
X02168D02*
Y01967D01*
X02231*
Y01936D02*
Y01967D01*
X02215Y01936D02*
X02231Y01951D01*
X02169Y00523D02*
Y00586D01*
X022*
Y00523D02*
Y00586D01*
X02169Y00523D02*
X022D01*
X01842Y01763D02*
X01905D01*
Y01732D02*
Y01763D01*
X01842Y01732D02*
X01905D01*
X01842D02*
Y01763D01*
X02413Y01633D02*
X02476D01*
Y01602D02*
Y01633D01*
X02413Y01602D02*
X02476D01*
X02413D02*
Y01633D01*
X0244Y01177D02*
X02503D01*
Y01145D02*
Y01177D01*
X0244Y01145D02*
X02503D01*
X0244D02*
Y01177D01*
X01994Y00667D02*
Y0073D01*
X01963Y00667D02*
X01994D01*
X01963D02*
Y0073D01*
X01994*
X02466Y00916D02*
X02529D01*
Y00885D02*
Y00916D01*
X02466Y00885D02*
X02529D01*
X02466D02*
Y00916D01*
X01542Y01735D02*
Y01766D01*
Y01735D02*
X01605D01*
Y01766*
X01542D02*
X01605D01*
X01421Y01311D02*
Y01342D01*
X01358D02*
X01421D01*
X01358Y01311D02*
Y01342D01*
Y01311D02*
X01421D01*
X0142Y01116D02*
Y01148D01*
X01357D02*
X0142D01*
X01357Y01116D02*
Y01148D01*
Y01116D02*
X0142D01*
X01421Y00858D02*
Y00889D01*
X01358D02*
X01421D01*
X01358Y00858D02*
Y00889D01*
Y00858D02*
X01421D01*
X02879Y01444D02*
X02942D01*
X02879Y01413D02*
Y01444D01*
Y01413D02*
X02942D01*
Y01444*
Y01354D02*
Y01385D01*
X02879Y01354D02*
X02942D01*
X02879D02*
Y01385D01*
X02942*
X02444Y00627D02*
X02476D01*
X02444D02*
Y00689D01*
X02476*
Y00627D02*
Y00689D01*
X02393Y00625D02*
X02425D01*
X02393D02*
Y00688D01*
X02425*
Y00625D02*
Y00688D01*
X0233Y00625D02*
X02362D01*
X0233D02*
Y00688D01*
X02362*
Y00625D02*
Y00688D01*
X0269Y0049D02*
Y00553D01*
X02659D02*
X0269D01*
X02659Y0049D02*
Y00553D01*
Y0049D02*
X0269D01*
X02597Y00553D02*
X02629D01*
Y0049D02*
Y00553D01*
X02597Y0049D02*
X02629D01*
X02597D02*
Y00553D01*
X0258Y00366D02*
X03521D01*
X0258D02*
Y00865D01*
X03521*
Y00366D02*
Y00865D01*
X02674Y01533D02*
X02713D01*
X02699Y01511D02*
Y01551D01*
X00185Y-00253D02*
Y0044D01*
X00578*
Y-00253D02*
Y0044D01*
X00185Y-00253D02*
X00578D01*
X03816Y00015D02*
Y00397D01*
X03318Y00015D02*
X03816D01*
X03318D02*
Y00397D01*
X03816*
X03548Y01885D02*
X03744D01*
X03548Y01728D02*
Y01885D01*
Y01728D02*
X03744D01*
Y01885*
X01122Y00358D02*
X01525D01*
Y00043D02*
Y00358D01*
X01122Y00043D02*
X01525D01*
X01122D02*
Y00358D01*
X03592Y01009D02*
Y01131D01*
X03726*
Y01009D02*
Y01131D01*
X03592Y01009D02*
X03726D01*
X00766Y02214D02*
Y02917D01*
X00167D02*
X00766D01*
X00167Y02214D02*
Y02917D01*
Y02214D02*
X00766D01*
X00911Y02508D02*
Y02912D01*
X01225*
Y02508D02*
Y02912D01*
X00911Y02508D02*
X01225D01*
X01135Y-00019D02*
X01787D01*
Y00705*
X01135D02*
X01787D01*
X01135Y-00019D02*
Y00705D01*
X01588Y00655D02*
X01753D01*
Y00537D02*
Y00655D01*
X01588Y00537D02*
X01753D01*
X01588D02*
Y00655D01*
X03396Y01024D02*
X03541D01*
X03396D02*
Y0115D01*
X03541*
Y01024D02*
Y0115D01*
G54D15*
X01072Y01256D02*
X01131D01*
X01072Y01133D02*
X01131D01*
X02034Y0197D02*
Y01997D01*
X02116D02*
X02149D01*
X02034D02*
X02067D01*
X02149Y0197D02*
Y01997D01*
X02314Y0197D02*
Y01997D01*
X02199D02*
X02232D01*
X02281D02*
X02314D01*
X02199Y0197D02*
Y01997D01*
X02489Y0197D02*
Y01997D01*
X02374D02*
X02408D01*
X02456D02*
X02489D01*
X02374Y0197D02*
Y01997D01*
X02642Y0197D02*
Y01997D01*
X02527D02*
X02561D01*
X02609D02*
X02642D01*
X02527Y0197D02*
Y01997D01*
X00184Y00669D02*
X00973D01*
X00184D02*
Y01604D01*
X00973*
Y00669D02*
Y01604D01*
X01072Y01251D02*
X01131D01*
Y01137D02*
Y01251D01*
X01072Y01137D02*
X01131D01*
X01072D02*
Y01251D01*
X00694Y02028D02*
X00731D01*
X00694Y01963D02*
X00731D01*
Y02028*
X00694Y01963D02*
Y02028D01*
X02034Y01946D02*
X02149D01*
X02034D02*
Y01997D01*
X02149*
Y01946D02*
Y01997D01*
X02314Y01946D02*
Y01997D01*
X02199D02*
X02314D01*
X02199Y01946D02*
Y01997D01*
Y01946D02*
X02314D01*
X02489D02*
Y01997D01*
X02374D02*
X02489D01*
X02374Y01946D02*
Y01997D01*
Y01946D02*
X02489D01*
X02642D02*
Y01997D01*
X02527D02*
X02642D01*
X02527Y01946D02*
Y01997D01*
Y01946D02*
X02642D01*
G54D16*
X01904Y0058D02*
D01*
X01905Y0058*
X01906Y0058*
X01907Y0058*
X01908Y0058*
X0191Y00581*
X01911Y00581*
X01912Y00582*
X01913Y00582*
X01914Y00583*
X01915Y00584*
X01916Y00585*
X01916Y00585*
X01917Y00586*
X01918Y00587*
X01918Y00588*
X01919Y00589*
X0192Y0059*
X0192Y00592*
X0192Y00593*
X01921Y00594*
X01921Y00595*
X01921Y00596*
X0192Y00597*
X02115D02*
D01*
X02115Y00596*
X02115Y00594*
X02116Y00593*
X02116Y00592*
X02116Y00591*
X02117Y0059*
X02117Y00589*
X02118Y00588*
X02118Y00587*
X02119Y00586*
X0212Y00585*
X02121Y00584*
X02122Y00583*
X02123Y00583*
X02124Y00582*
X02125Y00582*
X02126Y00581*
X02127Y00581*
X02128Y0058*
X02129Y0058*
X0213Y0058*
X02132Y0058*
X02132Y0058*
Y00483D02*
D01*
X02131Y00483*
X0213Y00483*
X02129Y00483*
X02128Y00483*
X02126Y00482*
X02125Y00482*
X02124Y00481*
X02123Y00481*
X02122Y0048*
X02121Y00479*
X0212Y00479*
X0212Y00478*
X02119Y00477*
X02118Y00476*
X02118Y00475*
X02117Y00474*
X02116Y00473*
X02116Y00472*
X02116Y00471*
X02116Y00469*
X02115Y00468*
X02115Y00467*
X02115Y00467*
X0192D02*
D01*
X0192Y00468*
X0192Y00469*
X0192Y0047*
X0192Y00471*
X01919Y00473*
X01919Y00474*
X01918Y00475*
X01918Y00476*
X01917Y00477*
X01916Y00478*
X01916Y00479*
X01915Y00479*
X01914Y0048*
X01913Y00481*
X01912Y00481*
X01911Y00482*
X0191Y00483*
X01909Y00483*
X01908Y00483*
X01906Y00483*
X01905Y00484*
X01904Y00484*
X01904Y00483*
X0192Y00597D02*
X01977D01*
X02059D02*
X02115D01*
X02132Y00544D02*
Y0058D01*
Y00483D02*
Y0052D01*
X02059Y00467D02*
X02115D01*
X0192D02*
X01977D01*
X01904Y00483D02*
Y0052D01*
Y00544D02*
Y0058D01*
G54D18*
X0234Y00321D02*
X02504D01*
Y00485*
X0234D02*
X02504D01*
X0234Y00321D02*
Y00485D01*
X02454D02*
X02466D01*
X02429D02*
X02441D01*
X02403D02*
X02415D01*
X02378D02*
X0239D01*
X0234Y00435D02*
Y00447D01*
Y0041D02*
Y00422D01*
Y00384D02*
Y00396D01*
Y00359D02*
Y00371D01*
X02378Y00321D02*
X0239D01*
X02403D02*
X02415D01*
X02429D02*
X02441D01*
X02454D02*
X02466D01*
X02504Y00359D02*
Y00371D01*
Y00384D02*
Y00396D01*
Y0041D02*
Y00422D01*
Y00435D02*
Y00447D01*
X02454Y00321D02*
X02504Y00371D01*
G54D19*
X00298Y00482D02*
Y00625D01*
X00529*
Y00482D02*
Y00625D01*
X00298Y00482D02*
X00529D01*
X01187Y00986D02*
X01302D01*
Y00927D02*
Y00986D01*
X01187Y00927D02*
X01302D01*
X01187D02*
Y00986D01*
X02964Y00797D02*
Y00887D01*
X03145*
Y00797D02*
Y00887D01*
X02964Y00797D02*
X03145D01*
X03713Y00017D02*
X03823D01*
X03713D02*
Y00188D01*
X03823*
Y00017D02*
Y00188D01*
X03235Y00142D02*
X03345D01*
X03235D02*
Y00312D01*
X03345*
Y00142D02*
Y00312D01*
X03327Y00784D02*
Y00894D01*
X03157Y00784D02*
X03327D01*
X03157D02*
Y00894D01*
X03327*
X02776Y00777D02*
X02886D01*
X02776D02*
Y00948D01*
X02886*
Y00777D02*
Y00948D01*
X03758Y00433D02*
X04029D01*
X03758Y00255D02*
Y00433D01*
Y00255D02*
X04029D01*
Y00433*
X02314Y0269D02*
X02584D01*
X02314Y02513D02*
Y0269D01*
Y02513D02*
X02584D01*
Y0269*
X02314Y02553D02*
X02584D01*
X02314Y02375D02*
Y02553D01*
Y02375D02*
X02584D01*
Y02553*
X01756Y02047D02*
X0205D01*
Y0183D02*
Y02047D01*
X01756Y0183D02*
X0205D01*
X01756D02*
Y02047D01*
X02501Y01872D02*
Y01931D01*
Y01872D02*
X02616D01*
Y01931*
X02501D02*
X02616D01*
X02624Y01924D02*
Y01979D01*
X02498D02*
X02624D01*
X02498Y01924D02*
Y01979D01*
Y01924D02*
X02624D01*
X02377D02*
X02503D01*
X02377D02*
Y01979D01*
X02503*
Y01924D02*
Y01979D01*
X01848Y00024D02*
X03361D01*
X01848D02*
Y00218D01*
X03361*
Y00024D02*
Y00218D01*
X02399Y02742D02*
X03912D01*
X02399D02*
Y02937D01*
X03912*
Y02742D02*
Y02937D01*
X01473Y00757D02*
X02396D01*
Y01679*
X01473D02*
X02396D01*
X01473Y00757D02*
Y01679D01*
X02838Y01719D02*
X02897D01*
Y01605D02*
Y01719D01*
X02838Y01605D02*
X02897D01*
X02838D02*
Y01719D01*
X02901D02*
X0296D01*
Y01605D02*
Y01719D01*
X02901Y01605D02*
X0296D01*
X02901D02*
Y01719D01*
X02966Y01537D02*
Y01596D01*
X02852Y01537D02*
X02966D01*
X02852D02*
Y01596D01*
X02966*
X02968Y01478D02*
Y01537D01*
X02854Y01478D02*
X02968D01*
X02854D02*
Y01537D01*
X02968*
X02352Y01542D02*
Y01601D01*
X02466*
Y01542D02*
Y01601D01*
X02352Y01542D02*
X02466D01*
X02352Y01481D02*
Y0154D01*
X02466*
Y01481D02*
Y0154D01*
X02352Y01481D02*
X02466D01*
X02351Y01419D02*
Y01589D01*
X0224D02*
X02351D01*
X0224Y01419D02*
Y01589D01*
Y01419D02*
X02351D01*
X02292Y01303D02*
Y01474D01*
Y01303D02*
X02402D01*
Y01474*
X02292D02*
X02402D01*
X02377Y01438D02*
X02436D01*
Y01324D02*
Y01438D01*
X02377Y01324D02*
X02436D01*
X02377D02*
Y01438D01*
X02702Y01344D02*
Y01403D01*
X02588Y01344D02*
X02702D01*
X02588D02*
Y01403D01*
X02702*
X0271Y0065D02*
X02801D01*
Y00468D02*
Y0065D01*
X0271Y00468D02*
X02801D01*
X0271D02*
Y0065D01*
X01149Y00493D02*
Y0178D01*
X00007D02*
X01149D01*
X00007Y00493D02*
Y0178D01*
Y00493D02*
X01149D01*
X02827Y01399D02*
Y01667D01*
X0256Y01399D02*
Y01667D01*
X02827*
X0256Y01399D02*
X02827D01*
X03788Y00137D02*
X04037D01*
X03788D02*
Y00997D01*
X04037*
Y00137D02*
Y00997D01*
X03818Y00419D02*
Y00509D01*
X03637Y00419D02*
X03818D01*
X03637D02*
Y00509D01*
X03818*
Y00501D02*
Y00592D01*
X03637Y00501D02*
X03818D01*
X03637D02*
Y00592D01*
X03818*
Y0058D02*
Y00671D01*
X03637Y0058D02*
X03818D01*
X03637D02*
Y00671D01*
X03818*
Y00659D02*
Y0075D01*
X03637Y00659D02*
X03818D01*
X03637D02*
Y0075D01*
X03818*
X03816Y00755D02*
X03986D01*
Y00866*
X03816D02*
X03986D01*
X03816Y00755D02*
Y00866D01*
X03818Y00738D02*
Y00828D01*
X03637Y00738D02*
X03818D01*
X03637D02*
Y00828D01*
X03818*
X01018Y01127D02*
X01184D01*
Y01261*
X01018D02*
X01184D01*
X01018Y01127D02*
Y01261D01*
X03639Y02379D02*
X03753D01*
X03639D02*
Y02438D01*
X03753*
Y02379D02*
Y02438D01*
X03683Y00747D02*
Y00902D01*
X03576Y00747D02*
X03683D01*
X03576D02*
Y00902D01*
X03683*
X03775Y01749D02*
Y01824D01*
X03815*
Y01749D02*
Y01824D01*
X03775Y01749D02*
X03815D01*
X03531Y01124D02*
Y01198D01*
X03571*
Y01124D02*
Y01198D01*
X03531Y01124D02*
X03571D01*
X03625Y01559D02*
X03751D01*
Y01746*
X03625D02*
X03751D01*
X03625Y01559D02*
Y01746D01*
X03198Y02656D02*
X03242D01*
X03198Y02563D02*
Y02656D01*
Y02563D02*
X03242D01*
Y02656*
X03167D02*
X0321D01*
X03167Y02563D02*
Y02656D01*
Y02563D02*
X0321D01*
Y02656*
X01185Y00398D02*
X013D01*
Y00339D02*
Y00398D01*
X01185Y00339D02*
X013D01*
X01185D02*
Y00398D01*
X0119Y00477D02*
X01286D01*
Y00428D02*
Y00477D01*
X0119Y00428D02*
X01286D01*
X0119D02*
Y00477D01*
X03635Y01587D02*
Y01743D01*
X03529Y01587D02*
X03635D01*
X03529D02*
Y01743D01*
X03635*
X03535Y01927D02*
X03575D01*
X03535Y01851D02*
Y01927D01*
Y01851D02*
X03575D01*
Y01927*
X03553Y00987D02*
X03596D01*
X03553Y00894D02*
Y00987D01*
Y00894D02*
X03596D01*
Y00987*
X03515Y00947D02*
X03555D01*
X03515Y00872D02*
Y00947D01*
Y00872D02*
X03555D01*
Y00947*
X03173Y02556D02*
Y02648D01*
X03129Y02556D02*
X03173D01*
X03129D02*
Y02648D01*
X03173*
X03514Y0244D02*
X03611D01*
X03514D02*
Y02488D01*
X03611*
Y0244D02*
Y02488D01*
X03525Y02086D02*
X036D01*
Y0222*
X03525D02*
X036D01*
X03525Y02086D02*
Y0222D01*
X03671Y02092D02*
Y02206D01*
X03612Y02092D02*
X03671D01*
X03612D02*
Y02206D01*
X03671*
X00861Y01951D02*
Y02048D01*
X0091*
Y01951D02*
Y02048D01*
X00861Y01951D02*
X0091D01*
X00806D02*
Y02048D01*
X00855*
Y01951D02*
Y02048D01*
X00806Y01951D02*
X00855D01*
X008D02*
Y02048D01*
X00751Y01951D02*
X008D01*
X00751D02*
Y02048D01*
X008*
X00683Y01939D02*
X00741D01*
X00683Y02052D02*
X00741D01*
Y01939D02*
Y02052D01*
X00683Y01939D02*
Y02052D01*
X00629Y01892D02*
X00677D01*
Y01988*
X00629D02*
X00677D01*
X00629Y01892D02*
Y01988D01*
X02778Y02277D02*
Y02494D01*
X03072*
Y02277D02*
Y02494D01*
X02778Y02277D02*
X03072D01*
X02877Y02542D02*
X02973D01*
Y02591*
X02877D02*
X02973D01*
X02877Y02542D02*
Y02591D01*
X03139Y02488D02*
X03253D01*
Y02332D02*
Y02488D01*
X03139Y02332D02*
X03253D01*
X03139D02*
Y02488D01*
X0294Y02233D02*
Y02542D01*
X03219*
Y02233D02*
Y02542D01*
X0294Y02233D02*
X03219D01*
X02948Y02556D02*
X02992D01*
Y02648*
X02948D02*
X02992D01*
X02948Y02556D02*
Y02648D01*
X02903Y02555D02*
X02946D01*
Y02647*
X02903D02*
X02946D01*
X02903Y02555D02*
Y02647D01*
X02996Y02556D02*
X03039D01*
Y02648*
X02996D02*
X03039D01*
X02996Y02556D02*
Y02648D01*
X0304D02*
X03083D01*
X0304Y02556D02*
Y02648D01*
Y02556D02*
X03083D01*
Y02648*
X03085D02*
X03128D01*
X03085Y02556D02*
Y02648D01*
Y02556D02*
X03128D01*
Y02648*
X00864Y02517D02*
X01035D01*
Y02407D02*
Y02517D01*
X00864Y02407D02*
X01035D01*
X00864D02*
Y02517D01*
X02383Y00442D02*
Y00501D01*
Y00442D02*
X02498D01*
Y00501*
X02383D02*
X02498D01*
X03301Y02226D02*
Y02285D01*
Y02226D02*
X03415D01*
Y02285*
X03301D02*
X03415D01*
X03457Y02354D02*
Y0248D01*
X03271D02*
X03457D01*
X03271Y02354D02*
Y0248D01*
Y02354D02*
X03457D01*
X03729Y02101D02*
Y02198D01*
X0368Y02101D02*
X03729D01*
X0368D02*
Y02198D01*
X03729*
X03645Y02307D02*
X03741D01*
Y02258D02*
Y02307D01*
X03645Y02258D02*
X03741D01*
X03645D02*
Y02307D01*
X03643Y02371D02*
X0374D01*
Y02322D02*
Y02371D01*
X03643Y02322D02*
X0374D01*
X03643D02*
Y02371D01*
X03415Y02175D02*
X0347D01*
X03415Y02049D02*
Y02175D01*
Y02049D02*
X0347D01*
Y02175*
X03434Y02233D02*
X03578D01*
X03434D02*
Y02403D01*
X03578*
Y02233D02*
Y02403D01*
X02067Y01736D02*
X02162D01*
Y01687D02*
Y01736D01*
X02067Y01687D02*
X02162D01*
X02067D02*
Y01736D01*
X02024Y01896D02*
X02159D01*
X02024D02*
Y02047D01*
X02159*
Y01896D02*
Y02047D01*
X0325Y02493D02*
X03387D01*
X0325D02*
Y0264D01*
X03387*
Y02493D02*
Y0264D01*
X00764Y01079D02*
X00878D01*
Y01138*
X00764D02*
X00878D01*
X00764Y01079D02*
Y01138D01*
X00396Y00947D02*
Y01168D01*
X00705*
Y00947D02*
Y01168D01*
X00396Y00947D02*
X00705D01*
X00915Y01124D02*
Y01234D01*
X00745Y01124D02*
X00915D01*
X00745D02*
Y01234D01*
X00915*
X00765Y00946D02*
Y0099D01*
X00858*
Y00946D02*
Y0099D01*
X00765Y00946D02*
X00858D01*
X01621Y01806D02*
Y01855D01*
X01525D02*
X01621D01*
X01525Y01806D02*
Y01855D01*
Y01806D02*
X01621D01*
X0164Y01864D02*
Y01934D01*
X01525D02*
X0164D01*
X01525Y01864D02*
Y01934D01*
Y01864D02*
X0164D01*
X01463Y00714D02*
Y00798D01*
X01301D02*
X01463D01*
X01301Y00714D02*
Y00798D01*
Y00714D02*
X01463D01*
X03301Y02375D02*
X03415D01*
Y02316D02*
Y02375D01*
X03301Y02316D02*
X03415D01*
X03301D02*
Y02375D01*
X00684Y01448D02*
X00854D01*
Y01558*
X00684D02*
X00854D01*
X00684Y01448D02*
Y01558D01*
X00331Y01314D02*
Y01411D01*
X00283D02*
X00331D01*
X00283Y01314D02*
Y01411D01*
Y01314D02*
X00331D01*
X00346Y01412D02*
X00395D01*
Y01316D02*
Y01412D01*
X00346Y01316D02*
X00395D01*
X00346D02*
Y01412D01*
X00085Y01051D02*
X00196D01*
X00085D02*
Y01222D01*
X00196*
Y01051D02*
Y01222D01*
X00685Y01334D02*
Y01444D01*
X00514Y01334D02*
X00685D01*
X00514D02*
Y01444D01*
X00685*
X00133Y00488D02*
Y00537D01*
X00229*
Y00488D02*
Y00537D01*
X00133Y00488D02*
X00229D01*
X00133Y00605D02*
X00229D01*
X00133Y00556D02*
Y00605D01*
Y00556D02*
X00229D01*
Y00605*
X00133Y00615D02*
X00229D01*
Y00664*
X00133D02*
X00229D01*
X00133Y00615D02*
Y00664D01*
X0114Y01364D02*
Y01413D01*
X01044Y01364D02*
X0114D01*
X01044D02*
Y01413D01*
X0114*
X02018Y02058D02*
Y02107D01*
X01922D02*
X02018D01*
X01922Y02058D02*
Y02107D01*
Y02058D02*
X02018D01*
X02377Y01924D02*
Y01979D01*
X02251D02*
X02377D01*
X02251Y01924D02*
Y01979D01*
Y01924D02*
X02377D01*
X01144Y01294D02*
Y01353D01*
X0103Y01294D02*
X01144D01*
X0103D02*
Y01353D01*
X01144*
X02387Y00623D02*
X02502D01*
X02387D02*
Y00693D01*
X02502*
Y00623D02*
Y00693D01*
X02487Y00709D02*
Y00758D01*
X0239D02*
X02487D01*
X0239Y00709D02*
Y00758D01*
Y00709D02*
X02487D01*
X0239Y00768D02*
Y00817D01*
Y00768D02*
X02486D01*
Y00817*
X0239D02*
X02486D01*
X02541Y00277D02*
X02711D01*
Y00387*
X02541D02*
X02711D01*
X02541Y00277D02*
Y00387D01*
X01588Y0064D02*
Y0081D01*
Y0064D02*
X01698D01*
Y0081*
X01588D02*
X01698D01*
X01643D02*
X01753D01*
Y0064D02*
Y0081D01*
X01643Y0064D02*
X01753D01*
X01643D02*
Y0081D01*
X01324D02*
X01435D01*
Y0064D02*
Y0081D01*
X01324Y0064D02*
X01435D01*
X01324D02*
Y0081D01*
X01537D02*
X01647D01*
Y0064D02*
Y0081D01*
X01537Y0064D02*
X01647D01*
X01537D02*
Y0081D01*
X04029Y01627D02*
Y01687D01*
X03915D02*
X04029D01*
X03915Y01627D02*
Y01687D01*
Y01627D02*
X04029D01*
X02428Y01341D02*
Y0139D01*
Y01341D02*
X02524D01*
Y0139*
X02428D02*
X02524D01*
X02584Y00421D02*
X02698D01*
X02584Y00362D02*
Y00421D01*
Y00362D02*
X02698D01*
Y00421*
X02671Y01637D02*
Y01696D01*
X02557Y01637D02*
X02671D01*
X02557D02*
Y01696D01*
X02671*
X02276Y02653D02*
Y02901D01*
X01417Y02653D02*
X02276D01*
X01417D02*
Y02901D01*
X02276*
X0391Y0144D02*
X04008D01*
X0391D02*
Y01618D01*
X04008*
Y0144D02*
Y01618D01*
X00768Y01036D02*
X00861D01*
Y01079*
X00768D02*
X00861D01*
X00768Y01036D02*
Y01079D01*
X03913Y01748D02*
X04039D01*
Y01692D02*
Y01748D01*
X03913Y01692D02*
X04039D01*
X03913D02*
Y01748D01*
X0404Y01757D02*
Y01801D01*
X03948D02*
X0404D01*
X03948Y01757D02*
Y01801D01*
Y01757D02*
X0404D01*
X00765Y00992D02*
X00858D01*
Y01035*
X00765D02*
X00858D01*
X00765Y00992D02*
Y01035D01*
X02379Y01873D02*
Y01932D01*
Y01873D02*
X02493D01*
Y01932*
X02379D02*
X02493D01*
X02133Y01934D02*
X02247D01*
Y01875D02*
Y01934D01*
X02133Y01875D02*
X02247D01*
X02133D02*
Y01934D01*
X02255Y01933D02*
X0237D01*
Y01874D02*
Y01933D01*
X02255Y01874D02*
X0237D01*
X02255D02*
Y01933D01*
X0168Y0054D02*
X01729D01*
X0168Y00445D02*
Y0054D01*
Y00445D02*
X01729D01*
Y0054*
X01601D02*
X0165D01*
X01601Y00445D02*
Y0054D01*
Y00445D02*
X0165D01*
Y0054*
X01881Y00459D02*
Y00555D01*
X01832Y00459D02*
X01881D01*
X01832D02*
Y00555D01*
X01881*
X03443Y01169D02*
Y01261D01*
Y01169D02*
X03486D01*
Y01261*
X03443D02*
X03486D01*
X03344Y01126D02*
Y01218D01*
Y01126D02*
X03387D01*
Y01218*
X03344D02*
X03387D01*
X03584Y01068D02*
Y0114D01*
X03547D02*
X03584D01*
X03547Y01068D02*
Y0114D01*
Y01068D02*
X03584D01*
X03346Y01015D02*
X03382D01*
X03346D02*
Y01087D01*
X03382*
Y01015D02*
Y01087D01*
X01234Y01097D02*
Y01132D01*
X01311*
Y01097D02*
Y01132D01*
X01234Y01097D02*
X01311D01*
X01234Y0114D02*
Y01176D01*
X01311*
Y0114D02*
Y01176D01*
X01234Y0114D02*
X01311D01*
X02804Y01187D02*
Y01246D01*
X02918*
Y01187D02*
Y01246D01*
X02804Y01187D02*
X02918D01*
X01235D02*
Y01222D01*
X01312*
Y01187D02*
Y01222D01*
X01235Y01187D02*
X01312D01*
X01234Y01045D02*
Y0108D01*
X01311*
Y01045D02*
Y0108D01*
X01234Y01045D02*
X01311D01*
X02324Y01896D02*
Y02047D01*
X02189D02*
X02324D01*
X02189Y01896D02*
Y02047D01*
Y01896D02*
X02324D01*
X02499D02*
Y02047D01*
X02364D02*
X02499D01*
X02364Y01896D02*
Y02047D01*
Y01896D02*
X02499D01*
X02652D02*
Y02047D01*
X02517D02*
X02652D01*
X02517Y01896D02*
Y02047D01*
Y01896D02*
X02652D01*
X02859Y01043D02*
Y01139D01*
Y01043D02*
X02908D01*
Y01139*
X02859D02*
X02908D01*
X02805Y01042D02*
Y01138D01*
Y01042D02*
X02854D01*
Y01138*
X02805D02*
X02854D01*
X03112Y02348D02*
X03226D01*
X03112Y02289D02*
Y02348D01*
Y02289D02*
X03226D01*
Y02348*
X00688Y01444D02*
X00822D01*
X00688Y01338D02*
Y01444D01*
Y01338D02*
X00822D01*
Y01444*
X00549Y01448D02*
X00683D01*
Y01555*
X00549D02*
X00683D01*
X00549Y01448D02*
Y01555D01*
X04035Y01101D02*
Y01321D01*
X03882D02*
X04035D01*
X03882Y01101D02*
Y01321D01*
Y01101D02*
X04035D01*
X00117Y00999D02*
X00166D01*
Y00902D02*
Y00999D01*
X00117Y00902D02*
X00166D01*
X00117D02*
Y00999D01*
X00769Y00888D02*
Y00937D01*
X00865*
Y00888D02*
Y00937D01*
X00769Y00888D02*
X00865D01*
X00133Y00685D02*
X00295D01*
Y00768*
X00133D02*
X00295D01*
X00133Y00685D02*
Y00768D01*
X01512Y00664D02*
X01561D01*
X01512D02*
Y00761D01*
X01561*
Y00664D02*
Y00761D01*
X01431Y0064D02*
Y0081D01*
Y0064D02*
X01541D01*
Y0081*
X01431D02*
X01541D01*
X01375Y0064D02*
Y0081D01*
Y0064D02*
X01486D01*
Y0081*
X01375D02*
X01486D01*
X02136Y01924D02*
X02262D01*
X02136D02*
Y01979D01*
X02262*
Y01924D02*
Y01979D01*
X0216Y00507D02*
Y00603D01*
X02209*
Y00507D02*
Y00603D01*
X0216Y00507D02*
X02209D01*
X01825Y01772D02*
X01922D01*
Y01723D02*
Y01772D01*
X01825Y01723D02*
X01922D01*
X01825D02*
Y01772D01*
X02396Y01642D02*
X02492D01*
Y01593D02*
Y01642D01*
X02396Y01593D02*
X02492D01*
X02396D02*
Y01642D01*
X02424Y01185D02*
X0252D01*
Y01137D02*
Y01185D01*
X02424Y01137D02*
X0252D01*
X02424D02*
Y01185D01*
X02003Y0065D02*
Y00746D01*
X01954Y0065D02*
X02003D01*
X01954D02*
Y00746D01*
X02003*
X0245Y00925D02*
X02546D01*
Y00876D02*
Y00925D01*
X0245Y00876D02*
X02546D01*
X0245D02*
Y00925D01*
X01525Y01726D02*
Y01775D01*
Y01726D02*
X01621D01*
Y01775*
X01525D02*
X01621D01*
X01437Y01302D02*
Y01351D01*
X01341D02*
X01437D01*
X01341Y01302D02*
Y01351D01*
Y01302D02*
X01437D01*
X01436Y01108D02*
Y01157D01*
X0134D02*
X01436D01*
X0134Y01108D02*
Y01157D01*
Y01108D02*
X01436D01*
X01437Y00849D02*
Y00898D01*
X01341D02*
X01437D01*
X01341Y00849D02*
Y00898D01*
Y00849D02*
X01437D01*
X02863Y01453D02*
X02959D01*
X02863Y01404D02*
Y01453D01*
Y01404D02*
X02959D01*
Y01453*
X02961Y01344D02*
Y01396D01*
X02861Y01344D02*
X02961D01*
X02861D02*
Y01396D01*
X02961*
X02436Y0061D02*
X02485D01*
X02436D02*
Y00706D01*
X02485*
Y0061D02*
Y00706D01*
X02385Y00609D02*
X02433D01*
X02385D02*
Y00705D01*
X02433*
Y00609D02*
Y00705D01*
X02322Y00609D02*
X0237D01*
X02322D02*
Y00705D01*
X0237*
Y00609D02*
Y00705D01*
X02699Y00473D02*
Y00569D01*
X0265D02*
X02699D01*
X0265Y00473D02*
Y00569D01*
Y00473D02*
X02699D01*
X02587Y00571D02*
X02639D01*
Y00471D02*
Y00571D01*
X02587Y00471D02*
X02639D01*
X02587D02*
Y00571D01*
G54D203*
X0234Y00321D02*
X02365D01*
X02479D02*
X02504D01*
Y0046D02*
Y00485D01*
X0234D02*
X02365D01*
X0234Y00321D02*
Y00346D01*
X02504Y00321D02*
Y00346D01*
X0234Y0046D02*
Y00485D01*
X02479D02*
X02504D01*
G54D204*
X02235Y01361D02*
Y01368D01*
Y01364*
X02255*
Y01361*
Y01368*
Y01391D02*
Y01378D01*
X02242Y01391*
X02238*
X02235Y01388*
Y01381*
X02238Y01378*
Y01411D02*
X02235Y01407D01*
Y01401*
X02238Y01398*
X02251*
X02255Y01401*
Y01407*
X02251Y01411*
M02*