%FSTAX23Y23*%
%MOIN*%
%SFA1B1*%

%IPPOS*%
%AMD124*
4,1,8,-0.083500,0.076400,-0.083500,-0.076400,-0.041700,-0.118100,0.041700,-0.118100,0.083500,-0.076400,0.083500,0.076400,0.041700,0.118100,-0.041700,0.118100,-0.083500,0.076400,0.0*
%
%AMD154*
4,1,8,0.023800,0.011400,-0.023800,0.011400,-0.026600,0.008700,-0.026600,-0.008700,-0.023800,-0.011400,0.023800,-0.011400,0.026600,-0.008700,0.026600,0.008700,0.023800,0.011400,0.0*
1,1,0.005512,0.023800,0.008700*
1,1,0.005512,-0.023800,0.008700*
1,1,0.005512,-0.023800,-0.008700*
1,1,0.005512,0.023800,-0.008700*
%
%AMD156*
4,1,8,-0.011600,0.023200,-0.011600,-0.023200,-0.008900,-0.026000,0.008900,-0.026000,0.011600,-0.023200,0.011600,0.023200,0.008900,0.026000,-0.008900,0.026000,-0.011600,0.023200,0.0*
1,1,0.005512,-0.008900,0.023200*
1,1,0.005512,-0.008900,-0.023200*
1,1,0.005512,0.008900,-0.023200*
1,1,0.005512,0.008900,0.023200*
%
%ADD10C,0.007874*%
%ADD14C,0.003937*%
%ADD15C,0.005118*%
%ADD16C,0.007874*%
%ADD18C,0.000000*%
%ADD19C,0.001969*%
%ADD20R,0.031496X0.037401*%
%ADD21R,0.060236X0.025591*%
%ADD27R,0.039370X0.039370*%
%ADD29C,0.039370*%
%ADD33R,0.035433X0.025591*%
%ADD34R,0.023622X0.029527*%
%ADD36R,0.031496X0.037008*%
%ADD40R,0.037401X0.031496*%
%ADD43R,0.037008X0.031496*%
%ADD49R,0.025591X0.035433*%
%ADD50R,0.037008X0.031890*%
%ADD57R,0.029527X0.023622*%
G04~CAMADD=124~4~0.0~0.0~2362.2~1669.3~0.0~417.3~0~0.0~0.0~0.0~0.0~0~0.0~0.0~0.0~0.0~0~0.0~0.0~0.0~90.0~1670.0~2362.0*
%ADD124D124*%
%ADD125C,0.061024*%
%ADD126C,0.022835*%
%ADD127C,0.032677*%
%ADD128R,0.027559X0.027559*%
%ADD129C,0.112205*%
%ADD130C,0.094488*%
%ADD131R,0.045275X0.045275*%
%ADD132C,0.045275*%
%ADD133C,0.020866*%
%ADD134C,0.027559*%
%ADD135C,0.125984*%
%ADD136R,0.045275X0.045275*%
%ADD137R,0.047244X0.047244*%
%ADD138C,0.047244*%
%ADD139C,0.043307*%
%ADD140R,0.043307X0.043307*%
%ADD144R,0.062992X0.068898*%
%ADD145R,0.049212X0.090551*%
%ADD146R,0.068898X0.062992*%
%ADD147R,0.027559X0.019685*%
%ADD148R,0.019685X0.027559*%
%ADD149R,0.015748X0.019685*%
%ADD150R,0.019685X0.015748*%
%ADD151R,0.021654X0.027559*%
%ADD152R,0.021654X0.055118*%
%ADD153R,0.039370X0.108268*%
G04~CAMADD=154~8~0.0~0.0~531.5~228.3~27.6~0.0~15~0.0~0.0~0.0~0.0~0~0.0~0.0~0.0~0.0~0~0.0~0.0~0.0~0.0~531.5~228.3*
%ADD154D154*%
%ADD155R,0.019685X0.018898*%
G04~CAMADD=156~8~0.0~0.0~519.7~232.3~27.6~0.0~15~0.0~0.0~0.0~0.0~0~0.0~0.0~0.0~0.0~0~0.0~0.0~0.0~90.0~232.0~520.0*
%ADD156D156*%
%ADD157R,0.023622X0.041339*%
%ADD158R,0.058268X0.017716*%
%ADD159R,0.031496X0.059055*%
%ADD160R,0.055118X0.074803*%
%ADD161R,0.070866X0.055118*%
%ADD162R,0.027953X0.011811*%
%ADD163R,0.011811X0.027953*%
%ADD164R,0.018898X0.009843*%
%ADD165R,0.009843X0.018898*%
%ADD166R,0.020866X0.011024*%
%ADD167R,0.024409X0.023622*%
%ADD168R,0.024803X0.015748*%
%ADD169R,0.039370X0.021654*%
%ADD170R,0.042126X0.071653*%
%ADD171R,0.034252X0.040157*%
%ADD172R,0.040157X0.034252*%
%LNshm_pcb-1*%
%LPD*%
G54D10*
X01055Y0079D02*
D01*
X01055Y0079*
X01055Y00791*
X01055Y00791*
X01054Y00791*
X01054Y00791*
X01054Y00792*
X01054Y00792*
X01054Y00792*
X01054Y00792*
X01054Y00793*
X01054Y00793*
X01053Y00793*
X01053Y00793*
X01053Y00793*
X01053Y00793*
X01052Y00794*
X01052Y00794*
X01052Y00794*
X01052Y00794*
X01051Y00794*
X01051Y00794*
X01051Y00794*
X01051*
X0105Y00794*
X0105Y00794*
X0105Y00794*
X01049Y00794*
X01049Y00794*
X01049Y00794*
X01049Y00793*
X01048Y00793*
X01048Y00793*
X01048Y00793*
X01048Y00793*
X01048Y00793*
X01047Y00792*
X01047Y00792*
X01047Y00792*
X01047Y00792*
X01047Y00791*
X01047Y00791*
X01047Y00791*
X01047Y00791*
X01047Y0079*
X01047Y0079*
X01047Y0079*
X01047Y0079*
X01047Y00789*
X01047Y00789*
X01047Y00789*
X01047Y00788*
X01047Y00788*
X01047Y00788*
X01047Y00788*
X01048Y00788*
X01048Y00787*
X01048Y00787*
X01048Y00787*
X01048Y00787*
X01049Y00787*
X01049Y00787*
X01049Y00786*
X01049Y00786*
X0105Y00786*
X0105Y00786*
X0105Y00786*
X01051Y00786*
X01051*
X01051Y00786*
X01051Y00786*
X01052Y00786*
X01052Y00786*
X01052Y00786*
X01052Y00787*
X01053Y00787*
X01053Y00787*
X01053Y00787*
X01053Y00787*
X01054Y00787*
X01054Y00788*
X01054Y00788*
X01054Y00788*
X01054Y00788*
X01054Y00788*
X01054Y00789*
X01054Y00789*
X01055Y00789*
X01055Y0079*
X01055Y0079*
X01055Y0079*
X01009Y01156D02*
D01*
X01009Y01156*
X01009Y01157*
X01009Y01157*
X01009Y01157*
X01009Y01158*
X01009Y01158*
X01009Y01158*
X01009Y01158*
X01009Y01159*
X01008Y01159*
X01008Y01159*
X01008Y01159*
X01008Y01159*
X01008Y01159*
X01007Y0116*
X01007Y0116*
X01007Y0116*
X01007Y0116*
X01006Y0116*
X01006Y0116*
X01006Y0116*
X01006Y0116*
X01005*
X01005Y0116*
X01005Y0116*
X01004Y0116*
X01004Y0116*
X01004Y0116*
X01004Y0116*
X01003Y0116*
X01003Y01159*
X01003Y01159*
X01003Y01159*
X01003Y01159*
X01002Y01159*
X01002Y01159*
X01002Y01158*
X01002Y01158*
X01002Y01158*
X01002Y01158*
X01002Y01157*
X01002Y01157*
X01002Y01157*
X01001Y01156*
X01001Y01156*
X01001Y01156*
X01002Y01156*
X01002Y01155*
X01002Y01155*
X01002Y01155*
X01002Y01155*
X01002Y01154*
X01002Y01154*
X01002Y01154*
X01002Y01154*
X01003Y01153*
X01003Y01153*
X01003Y01153*
X01003Y01153*
X01003Y01153*
X01004Y01153*
X01004Y01153*
X01004Y01152*
X01004Y01152*
X01005Y01152*
X01005Y01152*
X01005Y01152*
X01006*
X01006Y01152*
X01006Y01152*
X01006Y01152*
X01007Y01152*
X01007Y01153*
X01007Y01153*
X01007Y01153*
X01008Y01153*
X01008Y01153*
X01008Y01153*
X01008Y01153*
X01008Y01154*
X01009Y01154*
X01009Y01154*
X01009Y01154*
X01009Y01155*
X01009Y01155*
X01009Y01155*
X01009Y01155*
X01009Y01156*
X01009Y01156*
X01009Y01156*
X02133Y01883D02*
D01*
X02133Y01883*
X02133Y01884*
X02132Y01884*
X02132Y01884*
X02132Y01884*
X02132Y01885*
X02132Y01885*
X02132Y01885*
X02132Y01885*
X02132Y01885*
X02131Y01886*
X02131Y01886*
X02131Y01886*
X02131Y01886*
X02131Y01886*
X0213Y01887*
X0213Y01887*
X0213Y01887*
X0213Y01887*
X02129Y01887*
X02129Y01887*
X02129Y01887*
X02128*
X02128Y01887*
X02128Y01887*
X02128Y01887*
X02127Y01887*
X02127Y01887*
X02127Y01887*
X02127Y01886*
X02126Y01886*
X02126Y01886*
X02126Y01886*
X02126Y01886*
X02126Y01885*
X02125Y01885*
X02125Y01885*
X02125Y01885*
X02125Y01885*
X02125Y01884*
X02125Y01884*
X02125Y01884*
X02125Y01884*
X02125Y01883*
X02125Y01883*
X02125Y01883*
X02125Y01882*
X02125Y01882*
X02125Y01882*
X02125Y01882*
X02125Y01881*
X02125Y01881*
X02125Y01881*
X02125Y01881*
X02126Y0188*
X02126Y0188*
X02126Y0188*
X02126Y0188*
X02126Y0188*
X02127Y0188*
X02127Y01879*
X02127Y01879*
X02127Y01879*
X02128Y01879*
X02128Y01879*
X02128Y01879*
X02128Y01879*
X02129*
X02129Y01879*
X02129Y01879*
X0213Y01879*
X0213Y01879*
X0213Y01879*
X0213Y01879*
X02131Y0188*
X02131Y0188*
X02131Y0188*
X02131Y0188*
X02131Y0188*
X02132Y0188*
X02132Y01881*
X02132Y01881*
X02132Y01881*
X02132Y01881*
X02132Y01882*
X02132Y01882*
X02132Y01882*
X02133Y01882*
X02133Y01883*
X02133Y01883*
X02298D02*
D01*
X02298Y01883*
X02298Y01884*
X02298Y01884*
X02298Y01884*
X02298Y01884*
X02298Y01885*
X02297Y01885*
X02297Y01885*
X02297Y01885*
X02297Y01885*
X02297Y01886*
X02297Y01886*
X02296Y01886*
X02296Y01886*
X02296Y01886*
X02296Y01887*
X02295Y01887*
X02295Y01887*
X02295Y01887*
X02295Y01887*
X02294Y01887*
X02294Y01887*
X02294*
X02294Y01887*
X02293Y01887*
X02293Y01887*
X02293Y01887*
X02293Y01887*
X02292Y01887*
X02292Y01886*
X02292Y01886*
X02292Y01886*
X02291Y01886*
X02291Y01886*
X02291Y01885*
X02291Y01885*
X02291Y01885*
X02291Y01885*
X0229Y01885*
X0229Y01884*
X0229Y01884*
X0229Y01884*
X0229Y01884*
X0229Y01883*
X0229Y01883*
X0229Y01883*
X0229Y01882*
X0229Y01882*
X0229Y01882*
X0229Y01882*
X0229Y01881*
X02291Y01881*
X02291Y01881*
X02291Y01881*
X02291Y0188*
X02291Y0188*
X02291Y0188*
X02292Y0188*
X02292Y0188*
X02292Y0188*
X02292Y01879*
X02293Y01879*
X02293Y01879*
X02293Y01879*
X02293Y01879*
X02294Y01879*
X02294Y01879*
X02294*
X02294Y01879*
X02295Y01879*
X02295Y01879*
X02295Y01879*
X02295Y01879*
X02296Y01879*
X02296Y0188*
X02296Y0188*
X02296Y0188*
X02297Y0188*
X02297Y0188*
X02297Y0188*
X02297Y01881*
X02297Y01881*
X02297Y01881*
X02298Y01881*
X02298Y01882*
X02298Y01882*
X02298Y01882*
X02298Y01882*
X02298Y01883*
X02298Y01883*
X02473D02*
D01*
X02473Y01883*
X02473Y01884*
X02473Y01884*
X02473Y01884*
X02473Y01884*
X02473Y01885*
X02473Y01885*
X02473Y01885*
X02472Y01885*
X02472Y01885*
X02472Y01886*
X02472Y01886*
X02472Y01886*
X02471Y01886*
X02471Y01886*
X02471Y01887*
X02471Y01887*
X0247Y01887*
X0247Y01887*
X0247Y01887*
X0247Y01887*
X02469Y01887*
X02469*
X02469Y01887*
X02469Y01887*
X02468Y01887*
X02468Y01887*
X02468Y01887*
X02467Y01887*
X02467Y01886*
X02467Y01886*
X02467Y01886*
X02467Y01886*
X02466Y01886*
X02466Y01885*
X02466Y01885*
X02466Y01885*
X02466Y01885*
X02466Y01885*
X02465Y01884*
X02465Y01884*
X02465Y01884*
X02465Y01884*
X02465Y01883*
X02465Y01883*
X02465Y01883*
X02465Y01882*
X02465Y01882*
X02465Y01882*
X02465Y01882*
X02466Y01881*
X02466Y01881*
X02466Y01881*
X02466Y01881*
X02466Y0188*
X02466Y0188*
X02467Y0188*
X02467Y0188*
X02467Y0188*
X02467Y0188*
X02467Y01879*
X02468Y01879*
X02468Y01879*
X02468Y01879*
X02469Y01879*
X02469Y01879*
X02469Y01879*
X02469*
X0247Y01879*
X0247Y01879*
X0247Y01879*
X0247Y01879*
X02471Y01879*
X02471Y01879*
X02471Y0188*
X02471Y0188*
X02472Y0188*
X02472Y0188*
X02472Y0188*
X02472Y0188*
X02472Y01881*
X02473Y01881*
X02473Y01881*
X02473Y01881*
X02473Y01882*
X02473Y01882*
X02473Y01882*
X02473Y01882*
X02473Y01883*
X02473Y01883*
X02626D02*
D01*
X02626Y01883*
X02626Y01884*
X02626Y01884*
X02626Y01884*
X02626Y01884*
X02626Y01885*
X02625Y01885*
X02625Y01885*
X02625Y01885*
X02625Y01885*
X02625Y01886*
X02625Y01886*
X02624Y01886*
X02624Y01886*
X02624Y01886*
X02624Y01887*
X02623Y01887*
X02623Y01887*
X02623Y01887*
X02623Y01887*
X02622Y01887*
X02622Y01887*
X02622*
X02622Y01887*
X02621Y01887*
X02621Y01887*
X02621Y01887*
X0262Y01887*
X0262Y01887*
X0262Y01886*
X0262Y01886*
X0262Y01886*
X02619Y01886*
X02619Y01886*
X02619Y01885*
X02619Y01885*
X02619Y01885*
X02618Y01885*
X02618Y01885*
X02618Y01884*
X02618Y01884*
X02618Y01884*
X02618Y01884*
X02618Y01883*
X02618Y01883*
X02618Y01883*
X02618Y01882*
X02618Y01882*
X02618Y01882*
X02618Y01882*
X02618Y01881*
X02618Y01881*
X02619Y01881*
X02619Y01881*
X02619Y0188*
X02619Y0188*
X02619Y0188*
X0262Y0188*
X0262Y0188*
X0262Y0188*
X0262Y01879*
X0262Y01879*
X02621Y01879*
X02621Y01879*
X02621Y01879*
X02622Y01879*
X02622Y01879*
X02622*
X02622Y01879*
X02623Y01879*
X02623Y01879*
X02623Y01879*
X02623Y01879*
X02624Y01879*
X02624Y0188*
X02624Y0188*
X02624Y0188*
X02625Y0188*
X02625Y0188*
X02625Y0188*
X02625Y01881*
X02625Y01881*
X02625Y01881*
X02626Y01881*
X02626Y01882*
X02626Y01882*
X02626Y01882*
X02626Y01882*
X02626Y01883*
X02626Y01883*
X00381Y00529D02*
Y00578D01*
X0046*
Y00529D02*
Y00578D01*
X00381Y00529D02*
X0046D01*
X03752Y00083D02*
X03784D01*
X03752D02*
Y00146D01*
X03784*
Y00083D02*
Y00146D01*
X03274Y00208D02*
X03305D01*
X03274D02*
Y00271D01*
X03305*
Y00208D02*
Y00271D01*
X03261Y00823D02*
Y00855D01*
X03198Y00823D02*
X03261D01*
X03198D02*
Y00855D01*
X03261*
X02816Y00843D02*
X02847D01*
X02816D02*
Y00906D01*
X02847*
Y00843D02*
Y00906D01*
X0382Y00393D02*
X03945D01*
X0382Y00295D02*
Y00393D01*
Y00295D02*
X03945D01*
Y00393*
X02375Y02651D02*
X02501D01*
X02375Y02553D02*
Y02651D01*
Y02553D02*
X02501D01*
Y02651*
X02375Y02513D02*
X02501D01*
X02375Y02415D02*
Y02513D01*
Y02415D02*
X02501D01*
Y02513*
X01895Y0007D02*
X03295D01*
X01895D02*
Y0017D01*
X03295*
Y0007D02*
Y0017D01*
X02446Y02789D02*
X03846D01*
X02446D02*
Y02889D01*
X03846*
Y02789D02*
Y02889D01*
X0262Y00803D02*
X03482D01*
X0262Y00499D02*
Y00803D01*
Y00499D02*
X03482D01*
Y00803*
X02311Y01485D02*
Y01548D01*
X0228D02*
X02311D01*
X0228Y01485D02*
Y01548D01*
Y01485D02*
X02311D01*
X02331Y01345D02*
Y01408D01*
Y01345D02*
X02363D01*
Y01408*
X02331D02*
X02363D01*
X00257Y-00213D02*
Y00105D01*
Y-00213D02*
X00507D01*
Y00105*
X00244D02*
Y00381D01*
X00519*
Y00105D02*
Y00381D01*
X00244Y00105D02*
X00519D01*
X03776Y00096D02*
Y00344D01*
X03357Y00096D02*
X03776D01*
X03357D02*
Y00344D01*
X03776*
X03881Y00795D02*
X03944D01*
Y00826*
X03881D02*
X03944D01*
X03881Y00795D02*
Y00826D01*
X03613Y01846D02*
X03692D01*
X03613Y01767D02*
Y01846D01*
Y01767D02*
X03692D01*
Y01846*
X03673Y01633D02*
X03704D01*
Y01696*
X03673D02*
X03704D01*
X03673Y01633D02*
Y01696D01*
X0122Y00318D02*
X01456D01*
Y00082D02*
Y00318D01*
X0122Y00082D02*
X01456D01*
X0122D02*
Y00318D01*
X03807Y02133D02*
Y02448D01*
X04003*
Y02133D02*
Y02448D01*
X03807Y02133D02*
X04003D01*
X03187Y02421D02*
X03206D01*
Y02381D02*
Y02421D01*
X03187Y02381D02*
X03206D01*
X03187D02*
Y02421D01*
X00687Y0227D02*
Y02877D01*
X00246D02*
X00687D01*
X00246Y0227D02*
Y02877D01*
Y0227D02*
X00687D01*
X0095Y02607D02*
Y02843D01*
X01186*
Y02607D02*
Y02843D01*
X0095Y02607D02*
X01186D01*
X0093Y02478D02*
X00993D01*
Y02446D02*
Y02478D01*
X0093Y02446D02*
X00993D01*
X0093D02*
Y02478D01*
X03383Y02401D02*
Y02433D01*
X0332D02*
X03383D01*
X0332Y02401D02*
Y02433D01*
Y02401D02*
X03383D01*
X00849Y01163D02*
Y01195D01*
X00786Y01163D02*
X00849D01*
X00786D02*
Y01195D01*
X00849*
X01185Y0063D02*
X01736D01*
Y00031D02*
Y0063D01*
X01185Y00031D02*
X01736D01*
X01185D02*
Y0063D01*
X0075Y01487D02*
X00812D01*
Y01518*
X0075D02*
X00812D01*
X0075Y01487D02*
Y01518D01*
X00125Y01117D02*
X00156D01*
X00125D02*
Y0118D01*
X00156*
Y01117D02*
Y0118D01*
X00619Y01374D02*
Y01405D01*
X00555Y01374D02*
X00619D01*
X00555D02*
Y01405D01*
X00619*
X02607Y00316D02*
X0267D01*
Y00348*
X02607D02*
X0267D01*
X02607Y00316D02*
Y00348D01*
X01627Y00681D02*
Y00744D01*
Y00681D02*
X01659D01*
Y00744*
X01627D02*
X01659D01*
X01683D02*
X01714D01*
Y00681D02*
Y00744D01*
X01683Y00681D02*
X01714D01*
X01683D02*
Y00744D01*
X01364D02*
X01395D01*
Y00681D02*
Y00744D01*
X01364Y00681D02*
X01395D01*
X01364D02*
Y00744D01*
X01576D02*
X01608D01*
Y00681D02*
Y00744D01*
X01576Y00681D02*
X01608D01*
X01576D02*
Y00744D01*
X02644Y0116D02*
X02762D01*
X02644Y01062D02*
Y0116D01*
Y01062D02*
X02762D01*
Y0116*
X01651Y00616D02*
X01714D01*
Y00576D02*
Y00616D01*
X01651Y00576D02*
X01714D01*
X01651D02*
Y00616D01*
X03451Y01063D02*
X03502D01*
X03451D02*
Y01111D01*
X03502*
Y01063D02*
Y01111D01*
X0147Y00681D02*
Y00744D01*
Y00681D02*
X01501D01*
Y00744*
X0147D02*
X01501D01*
X01415Y00681D02*
Y00744D01*
Y00681D02*
X01446D01*
Y00744*
X01415D02*
X01446D01*
G54D14*
X02713Y01596D02*
D01*
X02713Y01597*
X02713Y01599*
X02713Y016*
X02713Y01601*
X02712Y01603*
X02712Y01604*
X02711Y01605*
X0271Y01606*
X0271Y01608*
X02709Y01609*
X02708Y0161*
X02707Y01611*
X02706Y01611*
X02705Y01612*
X02703Y01613*
X02702Y01614*
X02701Y01614*
X027Y01615*
X02698Y01615*
X02697Y01615*
X02696Y01616*
X02694Y01616*
X02693*
X02692Y01616*
X0269Y01615*
X02689Y01615*
X02688Y01615*
X02686Y01614*
X02685Y01614*
X02684Y01613*
X02683Y01612*
X02681Y01611*
X0268Y01611*
X02679Y0161*
X02679Y01609*
X02678Y01608*
X02677Y01606*
X02676Y01605*
X02676Y01604*
X02675Y01603*
X02675Y01601*
X02674Y016*
X02674Y01599*
X02674Y01597*
X02674Y01596*
X02674Y01595*
X02674Y01593*
X02674Y01592*
X02675Y01591*
X02675Y01589*
X02676Y01588*
X02676Y01587*
X02677Y01586*
X02678Y01584*
X02679Y01583*
X02679Y01582*
X0268Y01581*
X02681Y0158*
X02683Y0158*
X02684Y01579*
X02685Y01578*
X02686Y01578*
X02688Y01577*
X02689Y01577*
X0269Y01577*
X02692Y01576*
X02693Y01576*
X02694*
X02696Y01576*
X02697Y01577*
X02698Y01577*
X027Y01577*
X02701Y01578*
X02702Y01578*
X02703Y01579*
X02705Y0158*
X02706Y0158*
X02707Y01581*
X02708Y01582*
X02709Y01583*
X0271Y01584*
X0271Y01586*
X02711Y01587*
X02712Y01588*
X02712Y01589*
X02713Y01591*
X02713Y01592*
X02713Y01593*
X02713Y01595*
X02713Y01596*
X01213Y00972D02*
X01276D01*
Y0094D02*
Y00972D01*
X01213Y0094D02*
X01276D01*
X01213D02*
Y00972D01*
X02992Y00811D02*
Y00874D01*
X03118*
Y00811D02*
Y00874D01*
X02992Y00811D02*
X03118D01*
X01826Y02035D02*
X0198D01*
Y01842D02*
Y02035D01*
X01826Y01842D02*
X0198D01*
X01826D02*
Y02035D01*
Y01985D02*
X01876Y02035D01*
X02527Y01886D02*
Y01918D01*
Y01886D02*
X0259D01*
Y01918*
X02527D02*
X0259D01*
X02577Y01936D02*
X02592Y01951D01*
Y01936D02*
Y01967D01*
X02529D02*
X02592D01*
X02529Y01936D02*
Y01967D01*
Y01936D02*
X02592D01*
X02409D02*
X02472D01*
X02409D02*
Y01967D01*
X02472*
Y01936D02*
Y01967D01*
X02456Y01936D02*
X02472Y01951D01*
X01541Y00844D02*
X01561Y00824D01*
X01541D02*
X02328D01*
Y01612*
X01541D02*
X02328D01*
X01541Y00824D02*
Y01612D01*
X02852Y01694D02*
X02883D01*
Y0163D02*
Y01694D01*
X02852Y0163D02*
X02883D01*
X02852D02*
Y01694D01*
X02915D02*
X02946D01*
Y0163D02*
Y01694D01*
X02915Y0163D02*
X02946D01*
X02915D02*
Y01694D01*
X0294Y01551D02*
Y01582D01*
X02877Y01551D02*
X0294D01*
X02877D02*
Y01582D01*
X0294*
X02942Y01492D02*
Y01523D01*
X02879Y01492D02*
X02942D01*
X02879D02*
Y01523D01*
X02942*
X02377Y01556D02*
Y01587D01*
X0244*
Y01556D02*
Y01587D01*
X02377Y01556D02*
X0244D01*
X02377Y01494D02*
Y01526D01*
X0244*
Y01494D02*
Y01526D01*
X02377Y01494D02*
X0244D01*
X0239Y01413D02*
X02422D01*
Y0135D02*
Y01413D01*
X0239Y0135D02*
X02422D01*
X0239D02*
Y01413D01*
X02677Y01358D02*
Y01389D01*
X02614Y01358D02*
X02677D01*
X02614D02*
Y01389D01*
X02677*
X02724Y00622D02*
X02787D01*
Y00496D02*
Y00622D01*
X02724Y00496D02*
X02787D01*
X02724D02*
Y00622D01*
X02792Y01435D02*
Y01623D01*
X02595Y01435D02*
X02792D01*
X02783Y01631D02*
X02792Y01623D01*
X02595Y01435D02*
Y01631D01*
X02783*
X03798Y00147D02*
X04027D01*
X03798D02*
Y00987D01*
X04027*
Y00147D02*
Y00987D01*
X03791Y00433D02*
Y00496D01*
X03665Y00433D02*
X03791D01*
X03665D02*
Y00496D01*
X03791*
Y00515D02*
Y00578D01*
X03665Y00515D02*
X03791D01*
X03665D02*
Y00578D01*
X03791*
Y00594D02*
Y00657D01*
X03665Y00594D02*
X03791D01*
X03665D02*
Y00657D01*
X03791*
Y00673D02*
Y00736D01*
X03665Y00673D02*
X03791D01*
X03665D02*
Y00736D01*
X03791*
Y00751D02*
Y00814D01*
X03665Y00751D02*
X03791D01*
X03665D02*
Y00814D01*
X03791*
X03664Y02393D02*
X03727D01*
X03664D02*
Y02424D01*
X03727*
Y02393D02*
Y02424D01*
X03669Y00775D02*
Y00874D01*
X0359Y00775D02*
X03669D01*
X0359D02*
Y00874D01*
X03669*
X03785Y01767D02*
Y01807D01*
X03805*
Y01767D02*
Y01807D01*
X03785Y01767D02*
X03805D01*
X03541Y01141D02*
Y01181D01*
X03561*
Y01141D02*
Y01181D01*
X03541Y01141D02*
X03561D01*
X0321Y02629D02*
X0323D01*
X0321Y0259D02*
Y02629D01*
Y0259D02*
X0323D01*
Y02629*
X03179D02*
X03198D01*
X03179Y0259D02*
Y02629D01*
Y0259D02*
X03198D01*
Y02629*
X01211Y00384D02*
X01274D01*
Y00353D02*
Y00384D01*
X01211Y00353D02*
X01274D01*
X01211D02*
Y00384D01*
X01206Y00468D02*
X01269D01*
Y00437D02*
Y00468D01*
X01206Y00437D02*
X01269D01*
X01206D02*
Y00468D01*
X03631Y01049D02*
Y01092D01*
X03687*
Y01049D02*
Y01092D01*
X03631Y01049D02*
X03687D01*
X03622Y01616D02*
Y01714D01*
X03543Y01616D02*
X03622D01*
X03543D02*
Y01714D01*
X03622*
X03545Y01909D02*
X03564D01*
X03545Y0187D02*
Y01909D01*
Y0187D02*
X03564D01*
Y01909*
Y0096D02*
X03584D01*
X03564Y00921D02*
Y0096D01*
Y00921D02*
X03584D01*
Y0096*
X03525Y00929D02*
X03545D01*
X03525Y00889D02*
Y00929D01*
Y00889D02*
X03545D01*
Y00929*
X03161Y02582D02*
Y02622D01*
X03141Y02582D02*
X03161D01*
X03141D02*
Y02622D01*
X03161*
X03531Y02448D02*
X03594D01*
X03531D02*
Y0248D01*
X03594*
Y02448D02*
Y0248D01*
X03538Y02114D02*
X03587D01*
Y02192*
X03538D02*
X03587D01*
X03538Y02114D02*
Y02192D01*
X03657Y02118D02*
Y02181D01*
X03625Y02118D02*
X03657D01*
X03625D02*
Y02181D01*
X03657*
X0087Y01968D02*
Y02031D01*
X00901*
Y01968D02*
Y02031D01*
X0087Y01968D02*
X00901D01*
X00814D02*
Y02031D01*
X00846*
Y01968D02*
Y02031D01*
X00814Y01968D02*
X00846D01*
X00791D02*
Y02031D01*
X00759Y01968D02*
X00791D01*
X00759D02*
Y02031D01*
X00791*
X00637Y01909D02*
X00669D01*
Y01972*
X00637D02*
X00669D01*
X00637Y01909D02*
Y01972D01*
X02848Y02339D02*
X02898Y02289D01*
X02848D02*
Y02482D01*
X03001*
Y02289D02*
Y02482D01*
X02848Y02289D02*
X03001D01*
X02893Y02551D02*
X02956D01*
Y02582*
X02893D02*
X02956D01*
X02893Y02551D02*
Y02582D01*
X02951Y02301D02*
Y02474D01*
X03207*
Y02301D02*
Y02474D01*
X02951Y02301D02*
X03207D01*
X02951Y02326D02*
X02977Y02301D01*
X0296Y02582D02*
X0298D01*
Y02622*
X0296D02*
X0298D01*
X0296Y02582D02*
Y02622D01*
X02915Y02581D02*
X02935D01*
Y0262*
X02915D02*
X02935D01*
X02915Y02581D02*
Y0262D01*
X03007Y02582D02*
X03027D01*
Y02622*
X03007D02*
X03027D01*
X03007Y02582D02*
Y02622D01*
X03052D02*
X03072D01*
X03052Y02582D02*
Y02622D01*
Y02582D02*
X03072D01*
Y02622*
X03097D02*
X03117D01*
X03097Y02582D02*
Y02622D01*
Y02582D02*
X03117D01*
Y02622*
X02409Y00456D02*
Y00488D01*
Y00456D02*
X02472D01*
Y00488*
X02409D02*
X02472D01*
X03326Y0224D02*
Y02271D01*
Y0224D02*
X03389D01*
Y02271*
X03326D02*
X03389D01*
X0372Y02118D02*
Y02181D01*
X03688Y02118D02*
X0372D01*
X03688D02*
Y02181D01*
X0372*
X03661Y02298D02*
X03724D01*
Y02267D02*
Y02298D01*
X03661Y02267D02*
X03724D01*
X03661D02*
Y02298D01*
X0366Y02362D02*
X03723D01*
Y02331D02*
Y02362D01*
X0366Y02331D02*
X03723D01*
X0366D02*
Y02362D01*
X03442Y02144D02*
X03458Y02128D01*
X03427Y02144D02*
X03458D01*
X03427Y02081D02*
Y02144D01*
Y02081D02*
X03458D01*
Y02144*
X03536Y02259D02*
X03565Y02288D01*
X03447Y02259D02*
X03565D01*
X03447D02*
Y02377D01*
X03565*
Y02259D02*
Y02377D01*
X02083Y01727D02*
X02146D01*
Y01696D02*
Y01727D01*
X02083Y01696D02*
X02146D01*
X02083D02*
Y01727D01*
X03338Y02541D02*
X03375Y02578D01*
X03261Y02541D02*
X03375D01*
X03261D02*
Y02592D01*
X03375*
Y02541D02*
Y02592D01*
X0079Y01092D02*
X00853D01*
Y01124*
X0079D02*
X00853D01*
X0079Y01092D02*
Y01124D01*
X00463Y00985D02*
X00489Y00959D01*
X00463D02*
Y01156D01*
X00637*
Y00959D02*
Y01156D01*
X00463Y00959D02*
X00637D01*
X00792Y00958D02*
Y00978D01*
X00831*
Y00958D02*
Y00978D01*
X00792Y00958D02*
X00831D01*
X01605Y01814D02*
Y01846D01*
X01542D02*
X01605D01*
X01542Y01814D02*
Y01846D01*
Y01814D02*
X01605D01*
X01622Y01874D02*
Y01924D01*
X01543D02*
X01622D01*
X01543Y01874D02*
Y01924D01*
Y01874D02*
X01622D01*
X01445Y00724D02*
Y00787D01*
X01319D02*
X01445D01*
X01319Y00724D02*
Y00787D01*
Y00724D02*
X01445D01*
X03326Y02362D02*
X03389D01*
Y0233D02*
Y02362D01*
X03326Y0233D02*
X03389D01*
X03326D02*
Y02362D01*
X00323Y01331D02*
Y01394D01*
X00291D02*
X00323D01*
X00291Y01331D02*
Y01394D01*
Y01331D02*
X00323D01*
X00355Y01396D02*
X00387D01*
Y01333D02*
Y01396D01*
X00355Y01333D02*
X00387D01*
X00355D02*
Y01396D01*
X00149Y00496D02*
Y00528D01*
X00212*
Y00496D02*
Y00528D01*
X00149Y00496D02*
X00212D01*
X00149Y00596D02*
X00212D01*
X00149Y00564D02*
Y00596D01*
Y00564D02*
X00212D01*
Y00596*
X00149Y00624D02*
X00212D01*
Y00655*
X00149D02*
X00212D01*
X00149Y00624D02*
Y00655D01*
X01124Y01373D02*
Y01404D01*
X01061Y01373D02*
X01124D01*
X01061D02*
Y01404D01*
X01124*
X02001Y02067D02*
Y02098D01*
X01938D02*
X02001D01*
X01938Y02067D02*
Y02098D01*
Y02067D02*
X02001D01*
X0233Y01936D02*
X02346Y01951D01*
Y01936D02*
Y01967D01*
X02283D02*
X02346D01*
X02283Y01936D02*
Y01967D01*
Y01936D02*
X02346D01*
X01118Y01307D02*
Y01339D01*
X01056Y01307D02*
X01118D01*
X01056D02*
Y01339D01*
X01118*
X02405Y00633D02*
X02484D01*
X02405D02*
Y00683D01*
X02484*
Y00633D02*
Y00683D01*
X0247Y00718D02*
Y0075D01*
X02407D02*
X0247D01*
X02407Y00718D02*
Y0075D01*
Y00718D02*
X0247D01*
X02406Y00777D02*
Y00809D01*
Y00777D02*
X02469D01*
Y00809*
X02406D02*
X02469D01*
X04003Y01641D02*
Y01673D01*
X0394D02*
X04003D01*
X0394Y01641D02*
Y01673D01*
Y01641D02*
X04003D01*
X02444Y0135D02*
Y01381D01*
Y0135D02*
X02507D01*
Y01381*
X02444D02*
X02507D01*
X0261Y00407D02*
X02673D01*
X0261Y00375D02*
Y00407D01*
Y00375D02*
X02673D01*
Y00407*
X02645Y01651D02*
Y01682D01*
X02582Y01651D02*
X02645D01*
X02582D02*
Y01682D01*
X02645*
X02266Y02663D02*
Y02892D01*
X01427Y02663D02*
X02266D01*
X01427D02*
Y02892D01*
X02266*
X0392Y0145D02*
X03998D01*
X0392D02*
Y01608D01*
X03998*
Y0145D02*
Y01608D01*
X00795Y01048D02*
X00835D01*
Y01067*
X00795D02*
X00835D01*
X00795Y01048D02*
Y01067D01*
X03944Y01736D02*
X04007D01*
Y01704D02*
Y01736D01*
X03944Y01704D02*
X04007D01*
X03944D02*
Y01736D01*
Y0172D02*
X0396Y01736D01*
X04013Y01769D02*
Y01789D01*
X03974D02*
X04013D01*
X03974Y01769D02*
Y01789D01*
Y01769D02*
X04013D01*
X00792Y01004D02*
X00831D01*
Y01024*
X00792D02*
X00831D01*
X00792Y01004D02*
Y01024D01*
X02405Y01887D02*
Y01918D01*
Y01887D02*
X02468D01*
Y01918*
X02405D02*
X02468D01*
X02158Y0192D02*
X02221D01*
Y01889D02*
Y0192D01*
X02158Y01889D02*
X02221D01*
X02158D02*
Y0192D01*
X02281Y01919D02*
X02344D01*
Y01888D02*
Y01919D01*
X02281Y01888D02*
X02344D01*
X02281D02*
Y01919D01*
X01688Y00524D02*
X0172D01*
X01688Y00461D02*
Y00524D01*
Y00461D02*
X0172D01*
Y00524*
X0161D02*
X01641D01*
X0161Y00461D02*
Y00524D01*
Y00461D02*
X01641D01*
Y00524*
X01872Y00475D02*
Y00538D01*
X01841Y00475D02*
X01872D01*
X01841D02*
Y00538D01*
X01872*
X03455Y01196D02*
Y01235D01*
Y01196D02*
X03474D01*
Y01235*
X03455D02*
X03474D01*
X03355Y01152D02*
Y01192D01*
Y01152D02*
X03375D01*
Y01192*
X03355D02*
X03375D01*
X03575Y01084D02*
Y01124D01*
X03555D02*
X03575D01*
X03555Y01084D02*
Y01124D01*
Y01084D02*
X03575D01*
X03354Y01031D02*
X03374D01*
X03354D02*
Y0107D01*
X03374*
Y01031D02*
Y0107D01*
X01261Y01109D02*
Y01121D01*
X01284*
Y01109D02*
Y01121D01*
X01261Y01109D02*
X01284D01*
X01261Y01152D02*
Y01164D01*
X01284*
Y01152D02*
Y01164D01*
X01261Y01152D02*
X01284D01*
X02829Y012D02*
Y01232D01*
X02892*
Y012D02*
Y01232D01*
X02829Y012D02*
X02892D01*
X01261Y01198D02*
Y0121D01*
X01285*
Y01198D02*
Y0121D01*
X01261Y01198D02*
X01285D01*
X01261Y01057D02*
Y01068D01*
X01285*
Y01057D02*
Y01068D01*
X01261Y01057D02*
X01285D01*
X02868Y01059D02*
Y01122D01*
Y01059D02*
X02899D01*
Y01122*
X02868D02*
X02899D01*
X02814Y01058D02*
Y01121D01*
Y01058D02*
X02845D01*
Y01121*
X02814D02*
X02845D01*
X03137Y02334D02*
X032D01*
X03137Y02303D02*
Y02334D01*
Y02303D02*
X032D01*
Y02334*
X00731Y01431D02*
X0078D01*
X00731Y01352D02*
Y01431D01*
Y01352D02*
X0078D01*
Y01431*
X00754D02*
X0078Y01405D01*
X00591Y01462D02*
X0064D01*
Y01541*
X00591D02*
X0064D01*
X00591Y01462D02*
Y01541D01*
Y01488D02*
X00617Y01462D01*
X04025Y01111D02*
Y01311D01*
X03892D02*
X04025D01*
X03892Y01111D02*
Y01311D01*
Y01111D02*
X04025D01*
X00125Y00982D02*
X00157D01*
Y00919D02*
Y00982D01*
X00125Y00919D02*
X00157D01*
X00125D02*
Y00982D01*
X00786Y00896D02*
Y00928D01*
X00849*
Y00896D02*
Y00928D01*
X00786Y00896D02*
X00849D01*
X00151Y00695D02*
X00277D01*
Y00758*
X00151D02*
X00277D01*
X00151Y00695D02*
Y00758D01*
X01521Y00681D02*
X01553D01*
X01521D02*
Y00744D01*
X01553*
Y00681D02*
Y00744D01*
X02168Y01936D02*
X02231D01*
X02168D02*
Y01967D01*
X02231*
Y01936D02*
Y01967D01*
X02215Y01936D02*
X02231Y01951D01*
X02169Y00523D02*
Y00586D01*
X022*
Y00523D02*
Y00586D01*
X02169Y00523D02*
X022D01*
X01842Y01763D02*
X01905D01*
Y01732D02*
Y01763D01*
X01842Y01732D02*
X01905D01*
X01842D02*
Y01763D01*
X02413Y01633D02*
X02476D01*
Y01602D02*
Y01633D01*
X02413Y01602D02*
X02476D01*
X02413D02*
Y01633D01*
X0244Y01177D02*
X02503D01*
Y01145D02*
Y01177D01*
X0244Y01145D02*
X02503D01*
X0244D02*
Y01177D01*
X01994Y00667D02*
Y0073D01*
X01963Y00667D02*
X01994D01*
X01963D02*
Y0073D01*
X01994*
X02466Y00916D02*
X02529D01*
Y00885D02*
Y00916D01*
X02466Y00885D02*
X02529D01*
X02466D02*
Y00916D01*
X01542Y01735D02*
Y01766D01*
Y01735D02*
X01605D01*
Y01766*
X01542D02*
X01605D01*
X01421Y01311D02*
Y01342D01*
X01358D02*
X01421D01*
X01358Y01311D02*
Y01342D01*
Y01311D02*
X01421D01*
X0142Y01116D02*
Y01148D01*
X01357D02*
X0142D01*
X01357Y01116D02*
Y01148D01*
Y01116D02*
X0142D01*
X01421Y00858D02*
Y00889D01*
X01358D02*
X01421D01*
X01358Y00858D02*
Y00889D01*
Y00858D02*
X01421D01*
X02879Y01444D02*
X02942D01*
X02879Y01413D02*
Y01444D01*
Y01413D02*
X02942D01*
Y01444*
Y01354D02*
Y01385D01*
X02879Y01354D02*
X02942D01*
X02879D02*
Y01385D01*
X02942*
X02444Y00627D02*
X02476D01*
X02444D02*
Y00689D01*
X02476*
Y00627D02*
Y00689D01*
X02393Y00625D02*
X02425D01*
X02393D02*
Y00688D01*
X02425*
Y00625D02*
Y00688D01*
X0233Y00625D02*
X02362D01*
X0233D02*
Y00688D01*
X02362*
Y00625D02*
Y00688D01*
X0269Y0049D02*
Y00553D01*
X02659D02*
X0269D01*
X02659Y0049D02*
Y00553D01*
Y0049D02*
X0269D01*
X02597Y00553D02*
X02629D01*
Y0049D02*
Y00553D01*
X02597Y0049D02*
X02629D01*
X02597D02*
Y00553D01*
X0258Y00366D02*
X03521D01*
X0258D02*
Y00865D01*
X03521*
Y00366D02*
Y00865D01*
X02674Y01533D02*
X02713D01*
X02699Y01511D02*
Y01551D01*
X00185Y-00253D02*
Y0044D01*
X00578*
Y-00253D02*
Y0044D01*
X00185Y-00253D02*
X00578D01*
X03816Y00015D02*
Y00397D01*
X03318Y00015D02*
X03816D01*
X03318D02*
Y00397D01*
X03816*
X03548Y01885D02*
X03744D01*
X03548Y01728D02*
Y01885D01*
Y01728D02*
X03744D01*
Y01885*
X01122Y00358D02*
X01525D01*
Y00043D02*
Y00358D01*
X01122Y00043D02*
X01525D01*
X01122D02*
Y00358D01*
X03592Y01009D02*
Y01131D01*
X03726*
Y01009D02*
Y01131D01*
X03592Y01009D02*
X03726D01*
X00766Y02214D02*
Y02917D01*
X00167D02*
X00766D01*
X00167Y02214D02*
Y02917D01*
Y02214D02*
X00766D01*
X00911Y02508D02*
Y02912D01*
X01225*
Y02508D02*
Y02912D01*
X00911Y02508D02*
X01225D01*
X01135Y-00019D02*
X01787D01*
Y00705*
X01135D02*
X01787D01*
X01135Y-00019D02*
Y00705D01*
X01588Y00655D02*
X01753D01*
Y00537D02*
Y00655D01*
X01588Y00537D02*
X01753D01*
X01588D02*
Y00655D01*
X03396Y01024D02*
X03541D01*
X03396D02*
Y0115D01*
X03541*
Y01024D02*
Y0115D01*
G54D15*
X00184Y00669D02*
X00973D01*
X00184D02*
Y01604D01*
X00973*
Y00669D02*
Y01604D01*
X01072Y01251D02*
X01131D01*
Y01137D02*
Y01251D01*
X01072Y01137D02*
X01131D01*
X01072D02*
Y01251D01*
X00694Y02028D02*
X00731D01*
X00694Y01963D02*
X00731D01*
Y02028*
X00694Y01963D02*
Y02028D01*
X02034Y01946D02*
X02149D01*
X02034D02*
Y01997D01*
X02149*
Y01946D02*
Y01997D01*
X02314Y01946D02*
Y01997D01*
X02199D02*
X02314D01*
X02199Y01946D02*
Y01997D01*
Y01946D02*
X02314D01*
X02489D02*
Y01997D01*
X02374D02*
X02489D01*
X02374Y01946D02*
Y01997D01*
Y01946D02*
X02489D01*
X02642D02*
Y01997D01*
X02527D02*
X02642D01*
X02527Y01946D02*
Y01997D01*
Y01946D02*
X02642D01*
G54D16*
X01904Y0058D02*
D01*
X01905Y0058*
X01906Y0058*
X01907Y0058*
X01908Y0058*
X0191Y00581*
X01911Y00581*
X01912Y00582*
X01913Y00582*
X01914Y00583*
X01915Y00584*
X01916Y00585*
X01916Y00585*
X01917Y00586*
X01918Y00587*
X01918Y00588*
X01919Y00589*
X0192Y0059*
X0192Y00592*
X0192Y00593*
X01921Y00594*
X01921Y00595*
X01921Y00596*
X0192Y00597*
X02115D02*
D01*
X02115Y00596*
X02115Y00594*
X02116Y00593*
X02116Y00592*
X02116Y00591*
X02117Y0059*
X02117Y00589*
X02118Y00588*
X02118Y00587*
X02119Y00586*
X0212Y00585*
X02121Y00584*
X02122Y00583*
X02123Y00583*
X02124Y00582*
X02125Y00582*
X02126Y00581*
X02127Y00581*
X02128Y0058*
X02129Y0058*
X0213Y0058*
X02132Y0058*
X02132Y0058*
Y00483D02*
D01*
X02131Y00483*
X0213Y00483*
X02129Y00483*
X02128Y00483*
X02126Y00482*
X02125Y00482*
X02124Y00481*
X02123Y00481*
X02122Y0048*
X02121Y00479*
X0212Y00479*
X0212Y00478*
X02119Y00477*
X02118Y00476*
X02118Y00475*
X02117Y00474*
X02116Y00473*
X02116Y00472*
X02116Y00471*
X02116Y00469*
X02115Y00468*
X02115Y00467*
X02115Y00467*
X0192D02*
D01*
X0192Y00468*
X0192Y00469*
X0192Y0047*
X0192Y00471*
X01919Y00473*
X01919Y00474*
X01918Y00475*
X01918Y00476*
X01917Y00477*
X01916Y00478*
X01916Y00479*
X01915Y00479*
X01914Y0048*
X01913Y00481*
X01912Y00481*
X01911Y00482*
X0191Y00483*
X01909Y00483*
X01908Y00483*
X01906Y00483*
X01905Y00484*
X01904Y00484*
X01904Y00483*
X0192Y00597D02*
X01977D01*
X02059D02*
X02115D01*
X02132Y00544D02*
Y0058D01*
Y00483D02*
Y0052D01*
X02059Y00467D02*
X02115D01*
X0192D02*
X01977D01*
X01904Y00483D02*
Y0052D01*
Y00544D02*
Y0058D01*
G54D18*
X0234Y00321D02*
X02504D01*
Y00485*
X0234D02*
X02504D01*
X0234Y00321D02*
Y00485D01*
X02454D02*
X02466D01*
X02429D02*
X02441D01*
X02403D02*
X02415D01*
X02378D02*
X0239D01*
X0234Y00435D02*
Y00447D01*
Y0041D02*
Y00422D01*
Y00384D02*
Y00396D01*
Y00359D02*
Y00371D01*
X02378Y00321D02*
X0239D01*
X02403D02*
X02415D01*
X02429D02*
X02441D01*
X02454D02*
X02466D01*
X02504Y00359D02*
Y00371D01*
Y00384D02*
Y00396D01*
Y0041D02*
Y00422D01*
Y00435D02*
Y00447D01*
X02454Y00321D02*
X02504Y00371D01*
G54D19*
X00298Y00482D02*
Y00625D01*
X00529*
Y00482D02*
Y00625D01*
X00298Y00482D02*
X00529D01*
X01187Y00986D02*
X01302D01*
Y00927D02*
Y00986D01*
X01187Y00927D02*
X01302D01*
X01187D02*
Y00986D01*
X02964Y00797D02*
Y00887D01*
X03145*
Y00797D02*
Y00887D01*
X02964Y00797D02*
X03145D01*
X03713Y00017D02*
X03823D01*
X03713D02*
Y00188D01*
X03823*
Y00017D02*
Y00188D01*
X03235Y00142D02*
X03345D01*
X03235D02*
Y00312D01*
X03345*
Y00142D02*
Y00312D01*
X03327Y00784D02*
Y00894D01*
X03157Y00784D02*
X03327D01*
X03157D02*
Y00894D01*
X03327*
X02776Y00777D02*
X02886D01*
X02776D02*
Y00948D01*
X02886*
Y00777D02*
Y00948D01*
X03758Y00433D02*
X04029D01*
X03758Y00255D02*
Y00433D01*
Y00255D02*
X04029D01*
Y00433*
X02314Y0269D02*
X02584D01*
X02314Y02513D02*
Y0269D01*
Y02513D02*
X02584D01*
Y0269*
X02314Y02553D02*
X02584D01*
X02314Y02375D02*
Y02553D01*
Y02375D02*
X02584D01*
Y02553*
X01756Y02047D02*
X0205D01*
Y0183D02*
Y02047D01*
X01756Y0183D02*
X0205D01*
X01756D02*
Y02047D01*
X02501Y01872D02*
Y01931D01*
Y01872D02*
X02616D01*
Y01931*
X02501D02*
X02616D01*
X02624Y01924D02*
Y01979D01*
X02498D02*
X02624D01*
X02498Y01924D02*
Y01979D01*
Y01924D02*
X02624D01*
X02377D02*
X02503D01*
X02377D02*
Y01979D01*
X02503*
Y01924D02*
Y01979D01*
X01848Y00024D02*
X03361D01*
X01848D02*
Y00218D01*
X03361*
Y00024D02*
Y00218D01*
X02399Y02742D02*
X03912D01*
X02399D02*
Y02937D01*
X03912*
Y02742D02*
Y02937D01*
X01473Y00757D02*
X02396D01*
Y01679*
X01473D02*
X02396D01*
X01473Y00757D02*
Y01679D01*
X02838Y01719D02*
X02897D01*
Y01605D02*
Y01719D01*
X02838Y01605D02*
X02897D01*
X02838D02*
Y01719D01*
X02901D02*
X0296D01*
Y01605D02*
Y01719D01*
X02901Y01605D02*
X0296D01*
X02901D02*
Y01719D01*
X02966Y01537D02*
Y01596D01*
X02852Y01537D02*
X02966D01*
X02852D02*
Y01596D01*
X02966*
X02968Y01478D02*
Y01537D01*
X02854Y01478D02*
X02968D01*
X02854D02*
Y01537D01*
X02968*
X02352Y01542D02*
Y01601D01*
X02466*
Y01542D02*
Y01601D01*
X02352Y01542D02*
X02466D01*
X02352Y01481D02*
Y0154D01*
X02466*
Y01481D02*
Y0154D01*
X02352Y01481D02*
X02466D01*
X02351Y01419D02*
Y01589D01*
X0224D02*
X02351D01*
X0224Y01419D02*
Y01589D01*
Y01419D02*
X02351D01*
X02292Y01303D02*
Y01474D01*
Y01303D02*
X02402D01*
Y01474*
X02292D02*
X02402D01*
X02377Y01438D02*
X02436D01*
Y01324D02*
Y01438D01*
X02377Y01324D02*
X02436D01*
X02377D02*
Y01438D01*
X02702Y01344D02*
Y01403D01*
X02588Y01344D02*
X02702D01*
X02588D02*
Y01403D01*
X02702*
X0271Y0065D02*
X02801D01*
Y00468D02*
Y0065D01*
X0271Y00468D02*
X02801D01*
X0271D02*
Y0065D01*
X01149Y00493D02*
Y0178D01*
X00007D02*
X01149D01*
X00007Y00493D02*
Y0178D01*
Y00493D02*
X01149D01*
X02827Y01399D02*
Y01667D01*
X0256Y01399D02*
Y01667D01*
X02827*
X0256Y01399D02*
X02827D01*
X03788Y00137D02*
X04037D01*
X03788D02*
Y00997D01*
X04037*
Y00137D02*
Y00997D01*
X03818Y00419D02*
Y00509D01*
X03637Y00419D02*
X03818D01*
X03637D02*
Y00509D01*
X03818*
Y00501D02*
Y00592D01*
X03637Y00501D02*
X03818D01*
X03637D02*
Y00592D01*
X03818*
Y0058D02*
Y00671D01*
X03637Y0058D02*
X03818D01*
X03637D02*
Y00671D01*
X03818*
Y00659D02*
Y0075D01*
X03637Y00659D02*
X03818D01*
X03637D02*
Y0075D01*
X03818*
X03816Y00755D02*
X03986D01*
Y00866*
X03816D02*
X03986D01*
X03816Y00755D02*
Y00866D01*
X03818Y00738D02*
Y00828D01*
X03637Y00738D02*
X03818D01*
X03637D02*
Y00828D01*
X03818*
X01018Y01127D02*
X01184D01*
Y01261*
X01018D02*
X01184D01*
X01018Y01127D02*
Y01261D01*
X03639Y02379D02*
X03753D01*
X03639D02*
Y02438D01*
X03753*
Y02379D02*
Y02438D01*
X03683Y00747D02*
Y00902D01*
X03576Y00747D02*
X03683D01*
X03576D02*
Y00902D01*
X03683*
X03775Y01749D02*
Y01824D01*
X03815*
Y01749D02*
Y01824D01*
X03775Y01749D02*
X03815D01*
X03531Y01124D02*
Y01198D01*
X03571*
Y01124D02*
Y01198D01*
X03531Y01124D02*
X03571D01*
X03625Y01559D02*
X03751D01*
Y01746*
X03625D02*
X03751D01*
X03625Y01559D02*
Y01746D01*
X03198Y02656D02*
X03242D01*
X03198Y02563D02*
Y02656D01*
Y02563D02*
X03242D01*
Y02656*
X03167D02*
X0321D01*
X03167Y02563D02*
Y02656D01*
Y02563D02*
X0321D01*
Y02656*
X01185Y00398D02*
X013D01*
Y00339D02*
Y00398D01*
X01185Y00339D02*
X013D01*
X01185D02*
Y00398D01*
X0119Y00477D02*
X01286D01*
Y00428D02*
Y00477D01*
X0119Y00428D02*
X01286D01*
X0119D02*
Y00477D01*
X03635Y01587D02*
Y01743D01*
X03529Y01587D02*
X03635D01*
X03529D02*
Y01743D01*
X03635*
X03535Y01927D02*
X03575D01*
X03535Y01851D02*
Y01927D01*
Y01851D02*
X03575D01*
Y01927*
X03553Y00987D02*
X03596D01*
X03553Y00894D02*
Y00987D01*
Y00894D02*
X03596D01*
Y00987*
X03515Y00947D02*
X03555D01*
X03515Y00872D02*
Y00947D01*
Y00872D02*
X03555D01*
Y00947*
X03173Y02556D02*
Y02648D01*
X03129Y02556D02*
X03173D01*
X03129D02*
Y02648D01*
X03173*
X03514Y0244D02*
X03611D01*
X03514D02*
Y02488D01*
X03611*
Y0244D02*
Y02488D01*
X03525Y02086D02*
X036D01*
Y0222*
X03525D02*
X036D01*
X03525Y02086D02*
Y0222D01*
X03671Y02092D02*
Y02206D01*
X03612Y02092D02*
X03671D01*
X03612D02*
Y02206D01*
X03671*
X00861Y01951D02*
Y02048D01*
X0091*
Y01951D02*
Y02048D01*
X00861Y01951D02*
X0091D01*
X00806D02*
Y02048D01*
X00855*
Y01951D02*
Y02048D01*
X00806Y01951D02*
X00855D01*
X008D02*
Y02048D01*
X00751Y01951D02*
X008D01*
X00751D02*
Y02048D01*
X008*
X00683Y01939D02*
X00741D01*
X00683Y02052D02*
X00741D01*
Y01939D02*
Y02052D01*
X00683Y01939D02*
Y02052D01*
X00629Y01892D02*
X00677D01*
Y01988*
X00629D02*
X00677D01*
X00629Y01892D02*
Y01988D01*
X02778Y02277D02*
Y02494D01*
X03072*
Y02277D02*
Y02494D01*
X02778Y02277D02*
X03072D01*
X02877Y02542D02*
X02973D01*
Y02591*
X02877D02*
X02973D01*
X02877Y02542D02*
Y02591D01*
X03139Y02488D02*
X03253D01*
Y02332D02*
Y02488D01*
X03139Y02332D02*
X03253D01*
X03139D02*
Y02488D01*
X0294Y02233D02*
Y02542D01*
X03219*
Y02233D02*
Y02542D01*
X0294Y02233D02*
X03219D01*
X02948Y02556D02*
X02992D01*
Y02648*
X02948D02*
X02992D01*
X02948Y02556D02*
Y02648D01*
X02903Y02555D02*
X02946D01*
Y02647*
X02903D02*
X02946D01*
X02903Y02555D02*
Y02647D01*
X02996Y02556D02*
X03039D01*
Y02648*
X02996D02*
X03039D01*
X02996Y02556D02*
Y02648D01*
X0304D02*
X03083D01*
X0304Y02556D02*
Y02648D01*
Y02556D02*
X03083D01*
Y02648*
X03085D02*
X03128D01*
X03085Y02556D02*
Y02648D01*
Y02556D02*
X03128D01*
Y02648*
X00864Y02517D02*
X01035D01*
Y02407D02*
Y02517D01*
X00864Y02407D02*
X01035D01*
X00864D02*
Y02517D01*
X02383Y00442D02*
Y00501D01*
Y00442D02*
X02498D01*
Y00501*
X02383D02*
X02498D01*
X03301Y02226D02*
Y02285D01*
Y02226D02*
X03415D01*
Y02285*
X03301D02*
X03415D01*
X03457Y02354D02*
Y0248D01*
X03271D02*
X03457D01*
X03271Y02354D02*
Y0248D01*
Y02354D02*
X03457D01*
X03729Y02101D02*
Y02198D01*
X0368Y02101D02*
X03729D01*
X0368D02*
Y02198D01*
X03729*
X03645Y02307D02*
X03741D01*
Y02258D02*
Y02307D01*
X03645Y02258D02*
X03741D01*
X03645D02*
Y02307D01*
X03643Y02371D02*
X0374D01*
Y02322D02*
Y02371D01*
X03643Y02322D02*
X0374D01*
X03643D02*
Y02371D01*
X03415Y02175D02*
X0347D01*
X03415Y02049D02*
Y02175D01*
Y02049D02*
X0347D01*
Y02175*
X03434Y02233D02*
X03578D01*
X03434D02*
Y02403D01*
X03578*
Y02233D02*
Y02403D01*
X02067Y01736D02*
X02162D01*
Y01687D02*
Y01736D01*
X02067Y01687D02*
X02162D01*
X02067D02*
Y01736D01*
X02024Y01896D02*
X02159D01*
X02024D02*
Y02047D01*
X02159*
Y01896D02*
Y02047D01*
X0325Y02493D02*
X03387D01*
X0325D02*
Y0264D01*
X03387*
Y02493D02*
Y0264D01*
X00764Y01079D02*
X00878D01*
Y01138*
X00764D02*
X00878D01*
X00764Y01079D02*
Y01138D01*
X00396Y00947D02*
Y01168D01*
X00705*
Y00947D02*
Y01168D01*
X00396Y00947D02*
X00705D01*
X00915Y01124D02*
Y01234D01*
X00745Y01124D02*
X00915D01*
X00745D02*
Y01234D01*
X00915*
X00765Y00946D02*
Y0099D01*
X00858*
Y00946D02*
Y0099D01*
X00765Y00946D02*
X00858D01*
X01621Y01806D02*
Y01855D01*
X01525D02*
X01621D01*
X01525Y01806D02*
Y01855D01*
Y01806D02*
X01621D01*
X0164Y01864D02*
Y01934D01*
X01525D02*
X0164D01*
X01525Y01864D02*
Y01934D01*
Y01864D02*
X0164D01*
X01463Y00714D02*
Y00798D01*
X01301D02*
X01463D01*
X01301Y00714D02*
Y00798D01*
Y00714D02*
X01463D01*
X03301Y02375D02*
X03415D01*
Y02316D02*
Y02375D01*
X03301Y02316D02*
X03415D01*
X03301D02*
Y02375D01*
X00684Y01448D02*
X00854D01*
Y01558*
X00684D02*
X00854D01*
X00684Y01448D02*
Y01558D01*
X00331Y01314D02*
Y01411D01*
X00283D02*
X00331D01*
X00283Y01314D02*
Y01411D01*
Y01314D02*
X00331D01*
X00346Y01412D02*
X00395D01*
Y01316D02*
Y01412D01*
X00346Y01316D02*
X00395D01*
X00346D02*
Y01412D01*
X00085Y01051D02*
X00196D01*
X00085D02*
Y01222D01*
X00196*
Y01051D02*
Y01222D01*
X00685Y01334D02*
Y01444D01*
X00514Y01334D02*
X00685D01*
X00514D02*
Y01444D01*
X00685*
X00133Y00488D02*
Y00537D01*
X00229*
Y00488D02*
Y00537D01*
X00133Y00488D02*
X00229D01*
X00133Y00605D02*
X00229D01*
X00133Y00556D02*
Y00605D01*
Y00556D02*
X00229D01*
Y00605*
X00133Y00615D02*
X00229D01*
Y00664*
X00133D02*
X00229D01*
X00133Y00615D02*
Y00664D01*
X0114Y01364D02*
Y01413D01*
X01044Y01364D02*
X0114D01*
X01044D02*
Y01413D01*
X0114*
X02018Y02058D02*
Y02107D01*
X01922D02*
X02018D01*
X01922Y02058D02*
Y02107D01*
Y02058D02*
X02018D01*
X02377Y01924D02*
Y01979D01*
X02251D02*
X02377D01*
X02251Y01924D02*
Y01979D01*
Y01924D02*
X02377D01*
X01144Y01294D02*
Y01353D01*
X0103Y01294D02*
X01144D01*
X0103D02*
Y01353D01*
X01144*
X02387Y00623D02*
X02502D01*
X02387D02*
Y00693D01*
X02502*
Y00623D02*
Y00693D01*
X02487Y00709D02*
Y00758D01*
X0239D02*
X02487D01*
X0239Y00709D02*
Y00758D01*
Y00709D02*
X02487D01*
X0239Y00768D02*
Y00817D01*
Y00768D02*
X02486D01*
Y00817*
X0239D02*
X02486D01*
X02541Y00277D02*
X02711D01*
Y00387*
X02541D02*
X02711D01*
X02541Y00277D02*
Y00387D01*
X01588Y0064D02*
Y0081D01*
Y0064D02*
X01698D01*
Y0081*
X01588D02*
X01698D01*
X01643D02*
X01753D01*
Y0064D02*
Y0081D01*
X01643Y0064D02*
X01753D01*
X01643D02*
Y0081D01*
X01324D02*
X01435D01*
Y0064D02*
Y0081D01*
X01324Y0064D02*
X01435D01*
X01324D02*
Y0081D01*
X01537D02*
X01647D01*
Y0064D02*
Y0081D01*
X01537Y0064D02*
X01647D01*
X01537D02*
Y0081D01*
X04029Y01627D02*
Y01687D01*
X03915D02*
X04029D01*
X03915Y01627D02*
Y01687D01*
Y01627D02*
X04029D01*
X02428Y01341D02*
Y0139D01*
Y01341D02*
X02524D01*
Y0139*
X02428D02*
X02524D01*
X02584Y00421D02*
X02698D01*
X02584Y00362D02*
Y00421D01*
Y00362D02*
X02698D01*
Y00421*
X02671Y01637D02*
Y01696D01*
X02557Y01637D02*
X02671D01*
X02557D02*
Y01696D01*
X02671*
X02276Y02653D02*
Y02901D01*
X01417Y02653D02*
X02276D01*
X01417D02*
Y02901D01*
X02276*
X0391Y0144D02*
X04008D01*
X0391D02*
Y01618D01*
X04008*
Y0144D02*
Y01618D01*
X00768Y01036D02*
X00861D01*
Y01079*
X00768D02*
X00861D01*
X00768Y01036D02*
Y01079D01*
X03913Y01748D02*
X04039D01*
Y01692D02*
Y01748D01*
X03913Y01692D02*
X04039D01*
X03913D02*
Y01748D01*
X0404Y01757D02*
Y01801D01*
X03948D02*
X0404D01*
X03948Y01757D02*
Y01801D01*
Y01757D02*
X0404D01*
X00765Y00992D02*
X00858D01*
Y01035*
X00765D02*
X00858D01*
X00765Y00992D02*
Y01035D01*
X02379Y01873D02*
Y01932D01*
Y01873D02*
X02493D01*
Y01932*
X02379D02*
X02493D01*
X02133Y01934D02*
X02247D01*
Y01875D02*
Y01934D01*
X02133Y01875D02*
X02247D01*
X02133D02*
Y01934D01*
X02255Y01933D02*
X0237D01*
Y01874D02*
Y01933D01*
X02255Y01874D02*
X0237D01*
X02255D02*
Y01933D01*
X0168Y0054D02*
X01729D01*
X0168Y00445D02*
Y0054D01*
Y00445D02*
X01729D01*
Y0054*
X01601D02*
X0165D01*
X01601Y00445D02*
Y0054D01*
Y00445D02*
X0165D01*
Y0054*
X01881Y00459D02*
Y00555D01*
X01832Y00459D02*
X01881D01*
X01832D02*
Y00555D01*
X01881*
X03443Y01169D02*
Y01261D01*
Y01169D02*
X03486D01*
Y01261*
X03443D02*
X03486D01*
X03344Y01126D02*
Y01218D01*
Y01126D02*
X03387D01*
Y01218*
X03344D02*
X03387D01*
X03584Y01068D02*
Y0114D01*
X03547D02*
X03584D01*
X03547Y01068D02*
Y0114D01*
Y01068D02*
X03584D01*
X03346Y01015D02*
X03382D01*
X03346D02*
Y01087D01*
X03382*
Y01015D02*
Y01087D01*
X01234Y01097D02*
Y01132D01*
X01311*
Y01097D02*
Y01132D01*
X01234Y01097D02*
X01311D01*
X01234Y0114D02*
Y01176D01*
X01311*
Y0114D02*
Y01176D01*
X01234Y0114D02*
X01311D01*
X02804Y01187D02*
Y01246D01*
X02918*
Y01187D02*
Y01246D01*
X02804Y01187D02*
X02918D01*
X01235D02*
Y01222D01*
X01312*
Y01187D02*
Y01222D01*
X01235Y01187D02*
X01312D01*
X01234Y01045D02*
Y0108D01*
X01311*
Y01045D02*
Y0108D01*
X01234Y01045D02*
X01311D01*
X02324Y01896D02*
Y02047D01*
X02189D02*
X02324D01*
X02189Y01896D02*
Y02047D01*
Y01896D02*
X02324D01*
X02499D02*
Y02047D01*
X02364D02*
X02499D01*
X02364Y01896D02*
Y02047D01*
Y01896D02*
X02499D01*
X02652D02*
Y02047D01*
X02517D02*
X02652D01*
X02517Y01896D02*
Y02047D01*
Y01896D02*
X02652D01*
X02859Y01043D02*
Y01139D01*
Y01043D02*
X02908D01*
Y01139*
X02859D02*
X02908D01*
X02805Y01042D02*
Y01138D01*
Y01042D02*
X02854D01*
Y01138*
X02805D02*
X02854D01*
X03112Y02348D02*
X03226D01*
X03112Y02289D02*
Y02348D01*
Y02289D02*
X03226D01*
Y02348*
X00688Y01444D02*
X00822D01*
X00688Y01338D02*
Y01444D01*
Y01338D02*
X00822D01*
Y01444*
X00549Y01448D02*
X00683D01*
Y01555*
X00549D02*
X00683D01*
X00549Y01448D02*
Y01555D01*
X04035Y01101D02*
Y01321D01*
X03882D02*
X04035D01*
X03882Y01101D02*
Y01321D01*
Y01101D02*
X04035D01*
X00117Y00999D02*
X00166D01*
Y00902D02*
Y00999D01*
X00117Y00902D02*
X00166D01*
X00117D02*
Y00999D01*
X00769Y00888D02*
Y00937D01*
X00865*
Y00888D02*
Y00937D01*
X00769Y00888D02*
X00865D01*
X00133Y00685D02*
X00295D01*
Y00768*
X00133D02*
X00295D01*
X00133Y00685D02*
Y00768D01*
X01512Y00664D02*
X01561D01*
X01512D02*
Y00761D01*
X01561*
Y00664D02*
Y00761D01*
X01431Y0064D02*
Y0081D01*
Y0064D02*
X01541D01*
Y0081*
X01431D02*
X01541D01*
X01375Y0064D02*
Y0081D01*
Y0064D02*
X01486D01*
Y0081*
X01375D02*
X01486D01*
X02136Y01924D02*
X02262D01*
X02136D02*
Y01979D01*
X02262*
Y01924D02*
Y01979D01*
X0216Y00507D02*
Y00603D01*
X02209*
Y00507D02*
Y00603D01*
X0216Y00507D02*
X02209D01*
X01825Y01772D02*
X01922D01*
Y01723D02*
Y01772D01*
X01825Y01723D02*
X01922D01*
X01825D02*
Y01772D01*
X02396Y01642D02*
X02492D01*
Y01593D02*
Y01642D01*
X02396Y01593D02*
X02492D01*
X02396D02*
Y01642D01*
X02424Y01185D02*
X0252D01*
Y01137D02*
Y01185D01*
X02424Y01137D02*
X0252D01*
X02424D02*
Y01185D01*
X02003Y0065D02*
Y00746D01*
X01954Y0065D02*
X02003D01*
X01954D02*
Y00746D01*
X02003*
X0245Y00925D02*
X02546D01*
Y00876D02*
Y00925D01*
X0245Y00876D02*
X02546D01*
X0245D02*
Y00925D01*
X01525Y01726D02*
Y01775D01*
Y01726D02*
X01621D01*
Y01775*
X01525D02*
X01621D01*
X01437Y01302D02*
Y01351D01*
X01341D02*
X01437D01*
X01341Y01302D02*
Y01351D01*
Y01302D02*
X01437D01*
X01436Y01108D02*
Y01157D01*
X0134D02*
X01436D01*
X0134Y01108D02*
Y01157D01*
Y01108D02*
X01436D01*
X01437Y00849D02*
Y00898D01*
X01341D02*
X01437D01*
X01341Y00849D02*
Y00898D01*
Y00849D02*
X01437D01*
X02863Y01453D02*
X02959D01*
X02863Y01404D02*
Y01453D01*
Y01404D02*
X02959D01*
Y01453*
X02961Y01344D02*
Y01396D01*
X02861Y01344D02*
X02961D01*
X02861D02*
Y01396D01*
X02961*
X02436Y0061D02*
X02485D01*
X02436D02*
Y00706D01*
X02485*
Y0061D02*
Y00706D01*
X02385Y00609D02*
X02433D01*
X02385D02*
Y00705D01*
X02433*
Y00609D02*
Y00705D01*
X02322Y00609D02*
X0237D01*
X02322D02*
Y00705D01*
X0237*
Y00609D02*
Y00705D01*
X02699Y00473D02*
Y00569D01*
X0265D02*
X02699D01*
X0265Y00473D02*
Y00569D01*
Y00473D02*
X02699D01*
X02587Y00571D02*
X02639D01*
Y00471D02*
Y00571D01*
X02587Y00471D02*
X02639D01*
X02587D02*
Y00571D01*
G54D20*
X02877Y01566D03*
X0294D03*
X02879Y01507D03*
X02942D03*
X0244Y01571D03*
X02377D03*
X0244Y01511D03*
X02377D03*
X02614Y01374D03*
X02677D03*
X0079Y01108D03*
X00853D03*
X01056Y01323D03*
X01118D03*
X02673Y00391D03*
X0261D03*
X02582Y01666D03*
X02645D03*
X02892Y01216D03*
X02829D03*
X032Y02318D03*
X03137D03*
G54D21*
X03031Y0231D03*
Y02361D03*
Y02411D03*
Y02461D03*
X02818D03*
Y02411D03*
Y02361D03*
Y0231D03*
G54D27*
X01864Y0212D03*
Y02075D03*
Y02033D03*
Y0199D03*
X01961Y02114D03*
Y02068D03*
Y02022D03*
Y01977D03*
Y01931D03*
X01431Y01902D03*
X01474D03*
X0152D03*
X01564D03*
X01519Y02076D03*
X01566D03*
X01613D03*
X00951Y01072D03*
X00942Y0101D03*
X0094Y00942D03*
X0161Y01902D03*
X01864Y01944D03*
X01659Y02076D03*
X03295Y01087D03*
Y01126D03*
Y01165D03*
Y01204D03*
X03414Y01031D03*
X03453D03*
X02313Y00519D03*
X02379Y00526D03*
X02496Y0053D03*
G54D29*
X02367Y01295D03*
X02337D03*
X02305Y01294D03*
X02766Y01776D03*
X02691Y01775D03*
X02716D03*
X02742Y01776D03*
X02521Y01311D03*
X02277Y01294D03*
X0271Y01693D03*
X02546Y01322D03*
X02578Y01324D03*
X02696Y01325D03*
X02773Y01249D03*
X02614Y01175D03*
X02566Y01092D03*
G54D33*
X03768Y00143D03*
Y00086D03*
X0329Y00268D03*
Y00211D03*
X02831Y00903D03*
Y00846D03*
X02296Y01488D03*
Y01545D03*
X02347Y01405D03*
Y01348D03*
X0014Y01177D03*
Y0112D03*
X01643Y00741D03*
Y00684D03*
X01698D03*
Y00741D03*
X01379Y00684D03*
Y00741D03*
X01592Y00684D03*
Y00741D03*
X01486D03*
Y00684D03*
X01431Y00741D03*
Y00684D03*
G54D34*
X03464Y01237D03*
Y01194D03*
X03365D03*
Y0115D03*
G54D36*
X02898Y02566D03*
X02951D03*
X00207Y00512D03*
X00154D03*
X00207Y0058D03*
X00154D03*
Y00639D03*
X00207D03*
X01066Y01388D03*
X01118D03*
X00844Y00912D03*
X00791D03*
X02937Y01429D03*
X02885D03*
G54D40*
X02868Y0163D03*
Y01694D03*
X02931Y0163D03*
Y01694D03*
X02406Y0135D03*
Y01413D03*
G54D43*
X00371Y01338D03*
Y0139D03*
X02883Y01117D03*
Y01064D03*
X02829Y01116D03*
Y01063D03*
X00141Y00924D03*
Y00977D03*
X01537Y00739D03*
Y00686D03*
X0246Y00685D03*
Y00632D03*
X02409Y00683D03*
Y00631D03*
X02346Y00683D03*
Y00631D03*
X02675Y00495D03*
Y00548D03*
G54D49*
X03201Y00839D03*
X03259D03*
X03885Y00811D03*
X03941D03*
X00789Y01179D03*
X00846D03*
X00752Y01502D03*
X0081D03*
X00559Y01389D03*
X00616D03*
X0261Y00332D03*
X02667D03*
G54D50*
X00307Y01336D03*
Y01388D03*
G54D57*
X00833Y00968D03*
X0079D03*
X00793Y01057D03*
X00837D03*
X0079Y01014D03*
X00833D03*
G54D124*
X03048Y01812D03*
G54D125*
X03245Y00121D03*
X03145D03*
X03045D03*
X02945D03*
X02845D03*
X02745D03*
X02645D03*
X02545D03*
X02445D03*
X02345D03*
X02245D03*
X02145D03*
X02045D03*
X01945D03*
X03796Y02839D03*
X03696D03*
X03596D03*
X03496D03*
X03396D03*
X03296D03*
X03196D03*
X03096D03*
X02996D03*
X02896D03*
X02796D03*
X02696D03*
X02596D03*
X02496D03*
G54D126*
X03444Y00705D03*
G54D127*
X02657Y00705D03*
G54D128*
X03728Y02708D03*
Y02669D03*
X03958Y01332D03*
Y01362D03*
Y01394D03*
X03986D03*
Y01362D03*
Y01332D03*
X0378Y0262D03*
X03752D03*
X03724D03*
X03693D03*
X03661D03*
G54D129*
X00483Y00141D03*
Y00344D03*
X0028D03*
Y00141D03*
G54D130*
X00381Y00243D03*
G54D131*
X0394Y00457D03*
G54D132*
X0389Y00457D03*
X0394Y00507D03*
X0389D03*
X0394Y00557D03*
X0389D03*
X0394Y00607D03*
X0389D03*
X0394Y00657D03*
X0389D03*
X01957Y02755D03*
X01907Y02805D03*
Y02755D03*
X01857Y02805D03*
Y02755D03*
X01807Y02805D03*
Y02755D03*
X01757Y02805D03*
Y02755D03*
G54D133*
X03488Y0022D03*
X03645D03*
G54D134*
X03822Y02209D03*
Y02373D03*
G54D135*
X00075Y02847D03*
X00086Y0007D03*
X03974D03*
X03976Y0285D03*
G54D136*
X00467Y00553D03*
X00374D03*
X01957Y02805D03*
G54D137*
X03959Y0149D03*
G54D138*
X03959Y01568D03*
G54D139*
X03934Y01286D03*
X03984D03*
X03934Y01236D03*
X03984D03*
X03934Y01186D03*
X03984D03*
X03934Y01136D03*
G54D140*
X03984Y01136D03*
G54D144*
X03104Y00842D03*
X03005D03*
X03679Y00464D03*
X03777D03*
X03679Y00547D03*
X03777D03*
X03679Y00625D03*
X03777D03*
X03679Y00704D03*
X03777D03*
X03679Y00783D03*
X03777D03*
G54D145*
X0395Y00344D03*
X03814D03*
X02505Y02602D03*
X0237D03*
X02505Y02464D03*
X0237D03*
G54D146*
X02755Y0051D03*
Y00608D03*
G54D147*
X02613Y01553D03*
X02774D03*
Y01513D03*
X02613D03*
G54D148*
X02713Y01452D03*
X02674D03*
G54D149*
X02607Y01474D03*
Y01592D03*
X0278D03*
Y01474D03*
G54D150*
X02635Y01446D03*
Y0162D03*
X02753D03*
Y01446D03*
G54D151*
X02674Y01614D03*
G54D152*
X02713Y016D03*
G54D153*
X03448Y00303D03*
Y00136D03*
X03527Y00303D03*
Y00136D03*
X03606Y00303D03*
Y00136D03*
X03685Y00303D03*
Y00136D03*
G54D154*
X01148Y01157D03*
Y01194D03*
Y01232D03*
X01054D03*
Y01194D03*
Y01157D03*
G54D155*
X03196Y02381D03*
Y02421D03*
G54D156*
X02129Y01931D03*
X02054D03*
X02091Y02011D03*
X02257D03*
X02219Y01931D03*
X02294D03*
X02432Y02011D03*
X02394Y01931D03*
X02469D03*
X02585Y02011D03*
X02547Y01931D03*
X02622D03*
G54D157*
X03318Y0261D03*
X03281Y02523D03*
X03356D03*
G54D158*
X00666Y00981D03*
Y01006D03*
Y01032D03*
Y01057D03*
Y01083D03*
Y01109D03*
Y01134D03*
X00434D03*
Y01109D03*
Y01083D03*
Y01057D03*
Y01032D03*
Y01006D03*
Y00981D03*
G54D159*
X01537Y00453D03*
X01493Y00437D03*
X0145Y00453D03*
X01407Y00461D03*
X01363Y00453D03*
X0132Y00461D03*
X01277Y00453D03*
X01233D03*
G54D160*
X0172Y00604D03*
X01202Y00565D03*
G54D161*
X0149Y00047D03*
X01265D03*
G54D162*
X02498Y00365D03*
Y0039D03*
Y00416D03*
Y00441D03*
X02346D03*
Y00416D03*
Y0039D03*
Y00365D03*
G54D163*
X0246Y00479D03*
X02435D03*
X02409D03*
X02384D03*
Y00327D03*
X02409D03*
X02435D03*
X0246D03*
G54D164*
X02749Y0114D03*
Y01121D03*
Y01101D03*
Y01081D03*
X02657D03*
Y01101D03*
Y01121D03*
Y0114D03*
G54D165*
X02723Y01075D03*
X02703D03*
X02684D03*
Y01147D03*
X02703D03*
X02723D03*
G54D166*
X0349Y01072D03*
Y01087D03*
Y01103D03*
X03463D03*
Y01087D03*
Y01072D03*
G54D167*
X03565Y01086D03*
Y01122D03*
X03364Y01069D03*
Y01033D03*
G54D168*
X01288Y01115D03*
X01256D03*
X01288Y01158D03*
X01256D03*
X01289Y01204D03*
X01257D03*
X01289Y01062D03*
X01256D03*
G54D169*
X00793Y01417D03*
Y01366D03*
X00718Y01391D03*
X00578Y01476D03*
Y01527D03*
X00653Y01501D03*
G54D170*
X0016Y00727D03*
X00268D03*
G54D171*
X02884Y0137D03*
X02938D03*
G54D172*
X02613Y00494D03*
Y00548D03*
M02*