%FSTAX23Y23*%
%MOIN*%
%SFA1B1*%

%IPPOS*%
%ADD10C,0.007874*%
%ADD14C,0.003937*%
%ADD15C,0.005118*%
%ADD16C,0.007874*%
%ADD18C,0.000000*%
%ADD19C,0.001969*%
%ADD205C,0.001969*%
%ADD206C,0.002756*%
%ADD207C,0.001181*%
%LNshm_pcb-1*%
%LPD*%
G54D10*
X01055Y0079D02*
D01*
X01055Y0079*
X01055Y00791*
X01055Y00791*
X01054Y00791*
X01054Y00791*
X01054Y00792*
X01054Y00792*
X01054Y00792*
X01054Y00792*
X01054Y00793*
X01054Y00793*
X01053Y00793*
X01053Y00793*
X01053Y00793*
X01053Y00793*
X01052Y00794*
X01052Y00794*
X01052Y00794*
X01052Y00794*
X01051Y00794*
X01051Y00794*
X01051Y00794*
X01051*
X0105Y00794*
X0105Y00794*
X0105Y00794*
X01049Y00794*
X01049Y00794*
X01049Y00794*
X01049Y00793*
X01048Y00793*
X01048Y00793*
X01048Y00793*
X01048Y00793*
X01048Y00793*
X01047Y00792*
X01047Y00792*
X01047Y00792*
X01047Y00792*
X01047Y00791*
X01047Y00791*
X01047Y00791*
X01047Y00791*
X01047Y0079*
X01047Y0079*
X01047Y0079*
X01047Y0079*
X01047Y00789*
X01047Y00789*
X01047Y00789*
X01047Y00788*
X01047Y00788*
X01047Y00788*
X01047Y00788*
X01048Y00788*
X01048Y00787*
X01048Y00787*
X01048Y00787*
X01048Y00787*
X01049Y00787*
X01049Y00787*
X01049Y00786*
X01049Y00786*
X0105Y00786*
X0105Y00786*
X0105Y00786*
X01051Y00786*
X01051*
X01051Y00786*
X01051Y00786*
X01052Y00786*
X01052Y00786*
X01052Y00786*
X01052Y00787*
X01053Y00787*
X01053Y00787*
X01053Y00787*
X01053Y00787*
X01054Y00787*
X01054Y00788*
X01054Y00788*
X01054Y00788*
X01054Y00788*
X01054Y00788*
X01054Y00789*
X01054Y00789*
X01055Y00789*
X01055Y0079*
X01055Y0079*
X01055Y0079*
X01009Y01156D02*
D01*
X01009Y01156*
X01009Y01157*
X01009Y01157*
X01009Y01157*
X01009Y01158*
X01009Y01158*
X01009Y01158*
X01009Y01158*
X01009Y01159*
X01008Y01159*
X01008Y01159*
X01008Y01159*
X01008Y01159*
X01008Y01159*
X01007Y0116*
X01007Y0116*
X01007Y0116*
X01007Y0116*
X01006Y0116*
X01006Y0116*
X01006Y0116*
X01006Y0116*
X01005*
X01005Y0116*
X01005Y0116*
X01004Y0116*
X01004Y0116*
X01004Y0116*
X01004Y0116*
X01003Y0116*
X01003Y01159*
X01003Y01159*
X01003Y01159*
X01003Y01159*
X01002Y01159*
X01002Y01159*
X01002Y01158*
X01002Y01158*
X01002Y01158*
X01002Y01158*
X01002Y01157*
X01002Y01157*
X01002Y01157*
X01001Y01156*
X01001Y01156*
X01001Y01156*
X01002Y01156*
X01002Y01155*
X01002Y01155*
X01002Y01155*
X01002Y01155*
X01002Y01154*
X01002Y01154*
X01002Y01154*
X01002Y01154*
X01003Y01153*
X01003Y01153*
X01003Y01153*
X01003Y01153*
X01003Y01153*
X01004Y01153*
X01004Y01153*
X01004Y01152*
X01004Y01152*
X01005Y01152*
X01005Y01152*
X01005Y01152*
X01006*
X01006Y01152*
X01006Y01152*
X01006Y01152*
X01007Y01152*
X01007Y01153*
X01007Y01153*
X01007Y01153*
X01008Y01153*
X01008Y01153*
X01008Y01153*
X01008Y01153*
X01008Y01154*
X01009Y01154*
X01009Y01154*
X01009Y01154*
X01009Y01155*
X01009Y01155*
X01009Y01155*
X01009Y01155*
X01009Y01156*
X01009Y01156*
X01009Y01156*
X02133Y01883D02*
D01*
X02133Y01883*
X02133Y01884*
X02132Y01884*
X02132Y01884*
X02132Y01884*
X02132Y01885*
X02132Y01885*
X02132Y01885*
X02132Y01885*
X02132Y01885*
X02131Y01886*
X02131Y01886*
X02131Y01886*
X02131Y01886*
X02131Y01886*
X0213Y01887*
X0213Y01887*
X0213Y01887*
X0213Y01887*
X02129Y01887*
X02129Y01887*
X02129Y01887*
X02128*
X02128Y01887*
X02128Y01887*
X02128Y01887*
X02127Y01887*
X02127Y01887*
X02127Y01887*
X02127Y01886*
X02126Y01886*
X02126Y01886*
X02126Y01886*
X02126Y01886*
X02126Y01885*
X02125Y01885*
X02125Y01885*
X02125Y01885*
X02125Y01885*
X02125Y01884*
X02125Y01884*
X02125Y01884*
X02125Y01884*
X02125Y01883*
X02125Y01883*
X02125Y01883*
X02125Y01882*
X02125Y01882*
X02125Y01882*
X02125Y01882*
X02125Y01881*
X02125Y01881*
X02125Y01881*
X02125Y01881*
X02126Y0188*
X02126Y0188*
X02126Y0188*
X02126Y0188*
X02126Y0188*
X02127Y0188*
X02127Y01879*
X02127Y01879*
X02127Y01879*
X02128Y01879*
X02128Y01879*
X02128Y01879*
X02128Y01879*
X02129*
X02129Y01879*
X02129Y01879*
X0213Y01879*
X0213Y01879*
X0213Y01879*
X0213Y01879*
X02131Y0188*
X02131Y0188*
X02131Y0188*
X02131Y0188*
X02131Y0188*
X02132Y0188*
X02132Y01881*
X02132Y01881*
X02132Y01881*
X02132Y01881*
X02132Y01882*
X02132Y01882*
X02132Y01882*
X02133Y01882*
X02133Y01883*
X02133Y01883*
X02298D02*
D01*
X02298Y01883*
X02298Y01884*
X02298Y01884*
X02298Y01884*
X02298Y01884*
X02298Y01885*
X02297Y01885*
X02297Y01885*
X02297Y01885*
X02297Y01885*
X02297Y01886*
X02297Y01886*
X02296Y01886*
X02296Y01886*
X02296Y01886*
X02296Y01887*
X02295Y01887*
X02295Y01887*
X02295Y01887*
X02295Y01887*
X02294Y01887*
X02294Y01887*
X02294*
X02294Y01887*
X02293Y01887*
X02293Y01887*
X02293Y01887*
X02293Y01887*
X02292Y01887*
X02292Y01886*
X02292Y01886*
X02292Y01886*
X02291Y01886*
X02291Y01886*
X02291Y01885*
X02291Y01885*
X02291Y01885*
X02291Y01885*
X0229Y01885*
X0229Y01884*
X0229Y01884*
X0229Y01884*
X0229Y01884*
X0229Y01883*
X0229Y01883*
X0229Y01883*
X0229Y01882*
X0229Y01882*
X0229Y01882*
X0229Y01882*
X0229Y01881*
X02291Y01881*
X02291Y01881*
X02291Y01881*
X02291Y0188*
X02291Y0188*
X02291Y0188*
X02292Y0188*
X02292Y0188*
X02292Y0188*
X02292Y01879*
X02293Y01879*
X02293Y01879*
X02293Y01879*
X02293Y01879*
X02294Y01879*
X02294Y01879*
X02294*
X02294Y01879*
X02295Y01879*
X02295Y01879*
X02295Y01879*
X02295Y01879*
X02296Y01879*
X02296Y0188*
X02296Y0188*
X02296Y0188*
X02297Y0188*
X02297Y0188*
X02297Y0188*
X02297Y01881*
X02297Y01881*
X02297Y01881*
X02298Y01881*
X02298Y01882*
X02298Y01882*
X02298Y01882*
X02298Y01882*
X02298Y01883*
X02298Y01883*
X02473D02*
D01*
X02473Y01883*
X02473Y01884*
X02473Y01884*
X02473Y01884*
X02473Y01884*
X02473Y01885*
X02473Y01885*
X02473Y01885*
X02472Y01885*
X02472Y01885*
X02472Y01886*
X02472Y01886*
X02472Y01886*
X02471Y01886*
X02471Y01886*
X02471Y01887*
X02471Y01887*
X0247Y01887*
X0247Y01887*
X0247Y01887*
X0247Y01887*
X02469Y01887*
X02469*
X02469Y01887*
X02469Y01887*
X02468Y01887*
X02468Y01887*
X02468Y01887*
X02467Y01887*
X02467Y01886*
X02467Y01886*
X02467Y01886*
X02467Y01886*
X02466Y01886*
X02466Y01885*
X02466Y01885*
X02466Y01885*
X02466Y01885*
X02466Y01885*
X02465Y01884*
X02465Y01884*
X02465Y01884*
X02465Y01884*
X02465Y01883*
X02465Y01883*
X02465Y01883*
X02465Y01882*
X02465Y01882*
X02465Y01882*
X02465Y01882*
X02466Y01881*
X02466Y01881*
X02466Y01881*
X02466Y01881*
X02466Y0188*
X02466Y0188*
X02467Y0188*
X02467Y0188*
X02467Y0188*
X02467Y0188*
X02467Y01879*
X02468Y01879*
X02468Y01879*
X02468Y01879*
X02469Y01879*
X02469Y01879*
X02469Y01879*
X02469*
X0247Y01879*
X0247Y01879*
X0247Y01879*
X0247Y01879*
X02471Y01879*
X02471Y01879*
X02471Y0188*
X02471Y0188*
X02472Y0188*
X02472Y0188*
X02472Y0188*
X02472Y0188*
X02472Y01881*
X02473Y01881*
X02473Y01881*
X02473Y01881*
X02473Y01882*
X02473Y01882*
X02473Y01882*
X02473Y01882*
X02473Y01883*
X02473Y01883*
X02626D02*
D01*
X02626Y01883*
X02626Y01884*
X02626Y01884*
X02626Y01884*
X02626Y01884*
X02626Y01885*
X02625Y01885*
X02625Y01885*
X02625Y01885*
X02625Y01885*
X02625Y01886*
X02625Y01886*
X02624Y01886*
X02624Y01886*
X02624Y01886*
X02624Y01887*
X02623Y01887*
X02623Y01887*
X02623Y01887*
X02623Y01887*
X02622Y01887*
X02622Y01887*
X02622*
X02622Y01887*
X02621Y01887*
X02621Y01887*
X02621Y01887*
X0262Y01887*
X0262Y01887*
X0262Y01886*
X0262Y01886*
X0262Y01886*
X02619Y01886*
X02619Y01886*
X02619Y01885*
X02619Y01885*
X02619Y01885*
X02618Y01885*
X02618Y01885*
X02618Y01884*
X02618Y01884*
X02618Y01884*
X02618Y01884*
X02618Y01883*
X02618Y01883*
X02618Y01883*
X02618Y01882*
X02618Y01882*
X02618Y01882*
X02618Y01882*
X02618Y01881*
X02618Y01881*
X02619Y01881*
X02619Y01881*
X02619Y0188*
X02619Y0188*
X02619Y0188*
X0262Y0188*
X0262Y0188*
X0262Y0188*
X0262Y01879*
X0262Y01879*
X02621Y01879*
X02621Y01879*
X02621Y01879*
X02622Y01879*
X02622Y01879*
X02622*
X02622Y01879*
X02623Y01879*
X02623Y01879*
X02623Y01879*
X02623Y01879*
X02624Y01879*
X02624Y0188*
X02624Y0188*
X02624Y0188*
X02625Y0188*
X02625Y0188*
X02625Y0188*
X02625Y01881*
X02625Y01881*
X02625Y01881*
X02626Y01881*
X02626Y01882*
X02626Y01882*
X02626Y01882*
X02626Y01882*
X02626Y01883*
X02626Y01883*
X00381Y00529D02*
Y00578D01*
X0046*
Y00529D02*
Y00578D01*
X00381Y00529D02*
X0046D01*
X03752Y00083D02*
X03784D01*
X03752D02*
Y00146D01*
X03784*
Y00083D02*
Y00146D01*
X03274Y00208D02*
X03305D01*
X03274D02*
Y00271D01*
X03305*
Y00208D02*
Y00271D01*
X03261Y00823D02*
Y00855D01*
X03198Y00823D02*
X03261D01*
X03198D02*
Y00855D01*
X03261*
X02816Y00843D02*
X02847D01*
X02816D02*
Y00906D01*
X02847*
Y00843D02*
Y00906D01*
X0382Y00393D02*
X03945D01*
X0382Y00295D02*
Y00393D01*
Y00295D02*
X03945D01*
Y00393*
X02375Y02651D02*
X02501D01*
X02375Y02553D02*
Y02651D01*
Y02553D02*
X02501D01*
Y02651*
X02375Y02513D02*
X02501D01*
X02375Y02415D02*
Y02513D01*
Y02415D02*
X02501D01*
Y02513*
X01895Y0007D02*
X03295D01*
X01895D02*
Y0017D01*
X03295*
Y0007D02*
Y0017D01*
X02446Y02789D02*
X03846D01*
X02446D02*
Y02889D01*
X03846*
Y02789D02*
Y02889D01*
X0262Y00803D02*
X03482D01*
X0262Y00499D02*
Y00803D01*
Y00499D02*
X03482D01*
Y00803*
X02311Y01485D02*
Y01548D01*
X0228D02*
X02311D01*
X0228Y01485D02*
Y01548D01*
Y01485D02*
X02311D01*
X02331Y01345D02*
Y01408D01*
Y01345D02*
X02363D01*
Y01408*
X02331D02*
X02363D01*
X00257Y-00213D02*
Y00105D01*
Y-00213D02*
X00507D01*
Y00105*
X00244D02*
Y00381D01*
X00519*
Y00105D02*
Y00381D01*
X00244Y00105D02*
X00519D01*
X03776Y00096D02*
Y00344D01*
X03357Y00096D02*
X03776D01*
X03357D02*
Y00344D01*
X03776*
X03881Y00795D02*
X03944D01*
Y00826*
X03881D02*
X03944D01*
X03881Y00795D02*
Y00826D01*
X03613Y01846D02*
X03692D01*
X03613Y01767D02*
Y01846D01*
Y01767D02*
X03692D01*
Y01846*
X03673Y01633D02*
X03704D01*
Y01696*
X03673D02*
X03704D01*
X03673Y01633D02*
Y01696D01*
X0122Y00318D02*
X01456D01*
Y00082D02*
Y00318D01*
X0122Y00082D02*
X01456D01*
X0122D02*
Y00318D01*
X03807Y02133D02*
Y02448D01*
X04003*
Y02133D02*
Y02448D01*
X03807Y02133D02*
X04003D01*
X03187Y02421D02*
X03206D01*
Y02381D02*
Y02421D01*
X03187Y02381D02*
X03206D01*
X03187D02*
Y02421D01*
X00687Y0227D02*
Y02877D01*
X00246D02*
X00687D01*
X00246Y0227D02*
Y02877D01*
Y0227D02*
X00687D01*
X0095Y02607D02*
Y02843D01*
X01186*
Y02607D02*
Y02843D01*
X0095Y02607D02*
X01186D01*
X0093Y02478D02*
X00993D01*
Y02446D02*
Y02478D01*
X0093Y02446D02*
X00993D01*
X0093D02*
Y02478D01*
X03383Y02401D02*
Y02433D01*
X0332D02*
X03383D01*
X0332Y02401D02*
Y02433D01*
Y02401D02*
X03383D01*
X00849Y01163D02*
Y01195D01*
X00786Y01163D02*
X00849D01*
X00786D02*
Y01195D01*
X00849*
X01185Y0063D02*
X01736D01*
Y00031D02*
Y0063D01*
X01185Y00031D02*
X01736D01*
X01185D02*
Y0063D01*
X0075Y01487D02*
X00812D01*
Y01518*
X0075D02*
X00812D01*
X0075Y01487D02*
Y01518D01*
X00125Y01117D02*
X00156D01*
X00125D02*
Y0118D01*
X00156*
Y01117D02*
Y0118D01*
X00619Y01374D02*
Y01405D01*
X00555Y01374D02*
X00619D01*
X00555D02*
Y01405D01*
X00619*
X02607Y00316D02*
X0267D01*
Y00348*
X02607D02*
X0267D01*
X02607Y00316D02*
Y00348D01*
X01627Y00681D02*
Y00744D01*
Y00681D02*
X01659D01*
Y00744*
X01627D02*
X01659D01*
X01683D02*
X01714D01*
Y00681D02*
Y00744D01*
X01683Y00681D02*
X01714D01*
X01683D02*
Y00744D01*
X01364D02*
X01395D01*
Y00681D02*
Y00744D01*
X01364Y00681D02*
X01395D01*
X01364D02*
Y00744D01*
X01576D02*
X01608D01*
Y00681D02*
Y00744D01*
X01576Y00681D02*
X01608D01*
X01576D02*
Y00744D01*
X02644Y0116D02*
X02762D01*
X02644Y01062D02*
Y0116D01*
Y01062D02*
X02762D01*
Y0116*
X01651Y00616D02*
X01714D01*
Y00576D02*
Y00616D01*
X01651Y00576D02*
X01714D01*
X01651D02*
Y00616D01*
X03451Y01063D02*
X03502D01*
X03451D02*
Y01111D01*
X03502*
Y01063D02*
Y01111D01*
X0147Y00681D02*
Y00744D01*
Y00681D02*
X01501D01*
Y00744*
X0147D02*
X01501D01*
X01415Y00681D02*
Y00744D01*
Y00681D02*
X01446D01*
Y00744*
X01415D02*
X01446D01*
G54D14*
X02713Y01596D02*
D01*
X02713Y01597*
X02713Y01599*
X02713Y016*
X02713Y01601*
X02712Y01603*
X02712Y01604*
X02711Y01605*
X0271Y01606*
X0271Y01608*
X02709Y01609*
X02708Y0161*
X02707Y01611*
X02706Y01611*
X02705Y01612*
X02703Y01613*
X02702Y01614*
X02701Y01614*
X027Y01615*
X02698Y01615*
X02697Y01615*
X02696Y01616*
X02694Y01616*
X02693*
X02692Y01616*
X0269Y01615*
X02689Y01615*
X02688Y01615*
X02686Y01614*
X02685Y01614*
X02684Y01613*
X02683Y01612*
X02681Y01611*
X0268Y01611*
X02679Y0161*
X02679Y01609*
X02678Y01608*
X02677Y01606*
X02676Y01605*
X02676Y01604*
X02675Y01603*
X02675Y01601*
X02674Y016*
X02674Y01599*
X02674Y01597*
X02674Y01596*
X02674Y01595*
X02674Y01593*
X02674Y01592*
X02675Y01591*
X02675Y01589*
X02676Y01588*
X02676Y01587*
X02677Y01586*
X02678Y01584*
X02679Y01583*
X02679Y01582*
X0268Y01581*
X02681Y0158*
X02683Y0158*
X02684Y01579*
X02685Y01578*
X02686Y01578*
X02688Y01577*
X02689Y01577*
X0269Y01577*
X02692Y01576*
X02693Y01576*
X02694*
X02696Y01576*
X02697Y01577*
X02698Y01577*
X027Y01577*
X02701Y01578*
X02702Y01578*
X02703Y01579*
X02705Y0158*
X02706Y0158*
X02707Y01581*
X02708Y01582*
X02709Y01583*
X0271Y01584*
X0271Y01586*
X02711Y01587*
X02712Y01588*
X02712Y01589*
X02713Y01591*
X02713Y01592*
X02713Y01593*
X02713Y01595*
X02713Y01596*
X01213Y00972D02*
X01276D01*
Y0094D02*
Y00972D01*
X01213Y0094D02*
X01276D01*
X01213D02*
Y00972D01*
X02992Y00811D02*
Y00874D01*
X03118*
Y00811D02*
Y00874D01*
X02992Y00811D02*
X03118D01*
X01826Y02035D02*
X0198D01*
Y01842D02*
Y02035D01*
X01826Y01842D02*
X0198D01*
X01826D02*
Y02035D01*
Y01985D02*
X01876Y02035D01*
X02527Y01886D02*
Y01918D01*
Y01886D02*
X0259D01*
Y01918*
X02527D02*
X0259D01*
X02577Y01936D02*
X02592Y01951D01*
Y01936D02*
Y01967D01*
X02529D02*
X02592D01*
X02529Y01936D02*
Y01967D01*
Y01936D02*
X02592D01*
X02409D02*
X02472D01*
X02409D02*
Y01967D01*
X02472*
Y01936D02*
Y01967D01*
X02456Y01936D02*
X02472Y01951D01*
X01541Y00844D02*
X01561Y00824D01*
X01541D02*
X02328D01*
Y01612*
X01541D02*
X02328D01*
X01541Y00824D02*
Y01612D01*
X02852Y01694D02*
X02883D01*
Y0163D02*
Y01694D01*
X02852Y0163D02*
X02883D01*
X02852D02*
Y01694D01*
X02915D02*
X02946D01*
Y0163D02*
Y01694D01*
X02915Y0163D02*
X02946D01*
X02915D02*
Y01694D01*
X0294Y01551D02*
Y01582D01*
X02877Y01551D02*
X0294D01*
X02877D02*
Y01582D01*
X0294*
X02942Y01492D02*
Y01523D01*
X02879Y01492D02*
X02942D01*
X02879D02*
Y01523D01*
X02942*
X02377Y01556D02*
Y01587D01*
X0244*
Y01556D02*
Y01587D01*
X02377Y01556D02*
X0244D01*
X02377Y01494D02*
Y01526D01*
X0244*
Y01494D02*
Y01526D01*
X02377Y01494D02*
X0244D01*
X0239Y01413D02*
X02422D01*
Y0135D02*
Y01413D01*
X0239Y0135D02*
X02422D01*
X0239D02*
Y01413D01*
X02677Y01358D02*
Y01389D01*
X02614Y01358D02*
X02677D01*
X02614D02*
Y01389D01*
X02677*
X02724Y00622D02*
X02787D01*
Y00496D02*
Y00622D01*
X02724Y00496D02*
X02787D01*
X02724D02*
Y00622D01*
X02792Y01435D02*
Y01623D01*
X02595Y01435D02*
X02792D01*
X02783Y01631D02*
X02792Y01623D01*
X02595Y01435D02*
Y01631D01*
X02783*
X03798Y00147D02*
X04027D01*
X03798D02*
Y00987D01*
X04027*
Y00147D02*
Y00987D01*
X03791Y00433D02*
Y00496D01*
X03665Y00433D02*
X03791D01*
X03665D02*
Y00496D01*
X03791*
Y00515D02*
Y00578D01*
X03665Y00515D02*
X03791D01*
X03665D02*
Y00578D01*
X03791*
Y00594D02*
Y00657D01*
X03665Y00594D02*
X03791D01*
X03665D02*
Y00657D01*
X03791*
Y00673D02*
Y00736D01*
X03665Y00673D02*
X03791D01*
X03665D02*
Y00736D01*
X03791*
Y00751D02*
Y00814D01*
X03665Y00751D02*
X03791D01*
X03665D02*
Y00814D01*
X03791*
X03664Y02393D02*
X03727D01*
X03664D02*
Y02424D01*
X03727*
Y02393D02*
Y02424D01*
X03669Y00775D02*
Y00874D01*
X0359Y00775D02*
X03669D01*
X0359D02*
Y00874D01*
X03669*
X03785Y01767D02*
Y01807D01*
X03805*
Y01767D02*
Y01807D01*
X03785Y01767D02*
X03805D01*
X03541Y01141D02*
Y01181D01*
X03561*
Y01141D02*
Y01181D01*
X03541Y01141D02*
X03561D01*
X0321Y02629D02*
X0323D01*
X0321Y0259D02*
Y02629D01*
Y0259D02*
X0323D01*
Y02629*
X03179D02*
X03198D01*
X03179Y0259D02*
Y02629D01*
Y0259D02*
X03198D01*
Y02629*
X01211Y00384D02*
X01274D01*
Y00353D02*
Y00384D01*
X01211Y00353D02*
X01274D01*
X01211D02*
Y00384D01*
X01206Y00468D02*
X01269D01*
Y00437D02*
Y00468D01*
X01206Y00437D02*
X01269D01*
X01206D02*
Y00468D01*
X03631Y01049D02*
Y01092D01*
X03687*
Y01049D02*
Y01092D01*
X03631Y01049D02*
X03687D01*
X03622Y01616D02*
Y01714D01*
X03543Y01616D02*
X03622D01*
X03543D02*
Y01714D01*
X03622*
X03545Y01909D02*
X03564D01*
X03545Y0187D02*
Y01909D01*
Y0187D02*
X03564D01*
Y01909*
Y0096D02*
X03584D01*
X03564Y00921D02*
Y0096D01*
Y00921D02*
X03584D01*
Y0096*
X03525Y00929D02*
X03545D01*
X03525Y00889D02*
Y00929D01*
Y00889D02*
X03545D01*
Y00929*
X03161Y02582D02*
Y02622D01*
X03141Y02582D02*
X03161D01*
X03141D02*
Y02622D01*
X03161*
X03531Y02448D02*
X03594D01*
X03531D02*
Y0248D01*
X03594*
Y02448D02*
Y0248D01*
X03538Y02114D02*
X03587D01*
Y02192*
X03538D02*
X03587D01*
X03538Y02114D02*
Y02192D01*
X03657Y02118D02*
Y02181D01*
X03625Y02118D02*
X03657D01*
X03625D02*
Y02181D01*
X03657*
X0087Y01968D02*
Y02031D01*
X00901*
Y01968D02*
Y02031D01*
X0087Y01968D02*
X00901D01*
X00814D02*
Y02031D01*
X00846*
Y01968D02*
Y02031D01*
X00814Y01968D02*
X00846D01*
X00791D02*
Y02031D01*
X00759Y01968D02*
X00791D01*
X00759D02*
Y02031D01*
X00791*
X00637Y01909D02*
X00669D01*
Y01972*
X00637D02*
X00669D01*
X00637Y01909D02*
Y01972D01*
X02848Y02339D02*
X02898Y02289D01*
X02848D02*
Y02482D01*
X03001*
Y02289D02*
Y02482D01*
X02848Y02289D02*
X03001D01*
X02893Y02551D02*
X02956D01*
Y02582*
X02893D02*
X02956D01*
X02893Y02551D02*
Y02582D01*
X02951Y02301D02*
Y02474D01*
X03207*
Y02301D02*
Y02474D01*
X02951Y02301D02*
X03207D01*
X02951Y02326D02*
X02977Y02301D01*
X0296Y02582D02*
X0298D01*
Y02622*
X0296D02*
X0298D01*
X0296Y02582D02*
Y02622D01*
X02915Y02581D02*
X02935D01*
Y0262*
X02915D02*
X02935D01*
X02915Y02581D02*
Y0262D01*
X03007Y02582D02*
X03027D01*
Y02622*
X03007D02*
X03027D01*
X03007Y02582D02*
Y02622D01*
X03052D02*
X03072D01*
X03052Y02582D02*
Y02622D01*
Y02582D02*
X03072D01*
Y02622*
X03097D02*
X03117D01*
X03097Y02582D02*
Y02622D01*
Y02582D02*
X03117D01*
Y02622*
X02409Y00456D02*
Y00488D01*
Y00456D02*
X02472D01*
Y00488*
X02409D02*
X02472D01*
X03326Y0224D02*
Y02271D01*
Y0224D02*
X03389D01*
Y02271*
X03326D02*
X03389D01*
X0372Y02118D02*
Y02181D01*
X03688Y02118D02*
X0372D01*
X03688D02*
Y02181D01*
X0372*
X03661Y02298D02*
X03724D01*
Y02267D02*
Y02298D01*
X03661Y02267D02*
X03724D01*
X03661D02*
Y02298D01*
X0366Y02362D02*
X03723D01*
Y02331D02*
Y02362D01*
X0366Y02331D02*
X03723D01*
X0366D02*
Y02362D01*
X03442Y02144D02*
X03458Y02128D01*
X03427Y02144D02*
X03458D01*
X03427Y02081D02*
Y02144D01*
Y02081D02*
X03458D01*
Y02144*
X03536Y02259D02*
X03565Y02288D01*
X03447Y02259D02*
X03565D01*
X03447D02*
Y02377D01*
X03565*
Y02259D02*
Y02377D01*
X02083Y01727D02*
X02146D01*
Y01696D02*
Y01727D01*
X02083Y01696D02*
X02146D01*
X02083D02*
Y01727D01*
X03338Y02541D02*
X03375Y02578D01*
X03261Y02541D02*
X03375D01*
X03261D02*
Y02592D01*
X03375*
Y02541D02*
Y02592D01*
X0079Y01092D02*
X00853D01*
Y01124*
X0079D02*
X00853D01*
X0079Y01092D02*
Y01124D01*
X00463Y00985D02*
X00489Y00959D01*
X00463D02*
Y01156D01*
X00637*
Y00959D02*
Y01156D01*
X00463Y00959D02*
X00637D01*
X00792Y00958D02*
Y00978D01*
X00831*
Y00958D02*
Y00978D01*
X00792Y00958D02*
X00831D01*
X01605Y01814D02*
Y01846D01*
X01542D02*
X01605D01*
X01542Y01814D02*
Y01846D01*
Y01814D02*
X01605D01*
X01622Y01874D02*
Y01924D01*
X01543D02*
X01622D01*
X01543Y01874D02*
Y01924D01*
Y01874D02*
X01622D01*
X01445Y00724D02*
Y00787D01*
X01319D02*
X01445D01*
X01319Y00724D02*
Y00787D01*
Y00724D02*
X01445D01*
X03326Y02362D02*
X03389D01*
Y0233D02*
Y02362D01*
X03326Y0233D02*
X03389D01*
X03326D02*
Y02362D01*
X00323Y01331D02*
Y01394D01*
X00291D02*
X00323D01*
X00291Y01331D02*
Y01394D01*
Y01331D02*
X00323D01*
X00355Y01396D02*
X00387D01*
Y01333D02*
Y01396D01*
X00355Y01333D02*
X00387D01*
X00355D02*
Y01396D01*
X00149Y00496D02*
Y00528D01*
X00212*
Y00496D02*
Y00528D01*
X00149Y00496D02*
X00212D01*
X00149Y00596D02*
X00212D01*
X00149Y00564D02*
Y00596D01*
Y00564D02*
X00212D01*
Y00596*
X00149Y00624D02*
X00212D01*
Y00655*
X00149D02*
X00212D01*
X00149Y00624D02*
Y00655D01*
X01124Y01373D02*
Y01404D01*
X01061Y01373D02*
X01124D01*
X01061D02*
Y01404D01*
X01124*
X02001Y02067D02*
Y02098D01*
X01938D02*
X02001D01*
X01938Y02067D02*
Y02098D01*
Y02067D02*
X02001D01*
X0233Y01936D02*
X02346Y01951D01*
Y01936D02*
Y01967D01*
X02283D02*
X02346D01*
X02283Y01936D02*
Y01967D01*
Y01936D02*
X02346D01*
X01118Y01307D02*
Y01339D01*
X01056Y01307D02*
X01118D01*
X01056D02*
Y01339D01*
X01118*
X02405Y00633D02*
X02484D01*
X02405D02*
Y00683D01*
X02484*
Y00633D02*
Y00683D01*
X0247Y00718D02*
Y0075D01*
X02407D02*
X0247D01*
X02407Y00718D02*
Y0075D01*
Y00718D02*
X0247D01*
X02406Y00777D02*
Y00809D01*
Y00777D02*
X02469D01*
Y00809*
X02406D02*
X02469D01*
X04003Y01641D02*
Y01673D01*
X0394D02*
X04003D01*
X0394Y01641D02*
Y01673D01*
Y01641D02*
X04003D01*
X02444Y0135D02*
Y01381D01*
Y0135D02*
X02507D01*
Y01381*
X02444D02*
X02507D01*
X0261Y00407D02*
X02673D01*
X0261Y00375D02*
Y00407D01*
Y00375D02*
X02673D01*
Y00407*
X02645Y01651D02*
Y01682D01*
X02582Y01651D02*
X02645D01*
X02582D02*
Y01682D01*
X02645*
X02266Y02663D02*
Y02892D01*
X01427Y02663D02*
X02266D01*
X01427D02*
Y02892D01*
X02266*
X0392Y0145D02*
X03998D01*
X0392D02*
Y01608D01*
X03998*
Y0145D02*
Y01608D01*
X00795Y01048D02*
X00835D01*
Y01067*
X00795D02*
X00835D01*
X00795Y01048D02*
Y01067D01*
X03944Y01736D02*
X04007D01*
Y01704D02*
Y01736D01*
X03944Y01704D02*
X04007D01*
X03944D02*
Y01736D01*
Y0172D02*
X0396Y01736D01*
X04013Y01769D02*
Y01789D01*
X03974D02*
X04013D01*
X03974Y01769D02*
Y01789D01*
Y01769D02*
X04013D01*
X00792Y01004D02*
X00831D01*
Y01024*
X00792D02*
X00831D01*
X00792Y01004D02*
Y01024D01*
X02405Y01887D02*
Y01918D01*
Y01887D02*
X02468D01*
Y01918*
X02405D02*
X02468D01*
X02158Y0192D02*
X02221D01*
Y01889D02*
Y0192D01*
X02158Y01889D02*
X02221D01*
X02158D02*
Y0192D01*
X02281Y01919D02*
X02344D01*
Y01888D02*
Y01919D01*
X02281Y01888D02*
X02344D01*
X02281D02*
Y01919D01*
X01688Y00524D02*
X0172D01*
X01688Y00461D02*
Y00524D01*
Y00461D02*
X0172D01*
Y00524*
X0161D02*
X01641D01*
X0161Y00461D02*
Y00524D01*
Y00461D02*
X01641D01*
Y00524*
X01872Y00475D02*
Y00538D01*
X01841Y00475D02*
X01872D01*
X01841D02*
Y00538D01*
X01872*
X03455Y01196D02*
Y01235D01*
Y01196D02*
X03474D01*
Y01235*
X03455D02*
X03474D01*
X03355Y01152D02*
Y01192D01*
Y01152D02*
X03375D01*
Y01192*
X03355D02*
X03375D01*
X03575Y01084D02*
Y01124D01*
X03555D02*
X03575D01*
X03555Y01084D02*
Y01124D01*
Y01084D02*
X03575D01*
X03354Y01031D02*
X03374D01*
X03354D02*
Y0107D01*
X03374*
Y01031D02*
Y0107D01*
X01261Y01109D02*
Y01121D01*
X01284*
Y01109D02*
Y01121D01*
X01261Y01109D02*
X01284D01*
X01261Y01152D02*
Y01164D01*
X01284*
Y01152D02*
Y01164D01*
X01261Y01152D02*
X01284D01*
X02829Y012D02*
Y01232D01*
X02892*
Y012D02*
Y01232D01*
X02829Y012D02*
X02892D01*
X01261Y01198D02*
Y0121D01*
X01285*
Y01198D02*
Y0121D01*
X01261Y01198D02*
X01285D01*
X01261Y01057D02*
Y01068D01*
X01285*
Y01057D02*
Y01068D01*
X01261Y01057D02*
X01285D01*
X02868Y01059D02*
Y01122D01*
Y01059D02*
X02899D01*
Y01122*
X02868D02*
X02899D01*
X02814Y01058D02*
Y01121D01*
Y01058D02*
X02845D01*
Y01121*
X02814D02*
X02845D01*
X03137Y02334D02*
X032D01*
X03137Y02303D02*
Y02334D01*
Y02303D02*
X032D01*
Y02334*
X00731Y01431D02*
X0078D01*
X00731Y01352D02*
Y01431D01*
Y01352D02*
X0078D01*
Y01431*
X00754D02*
X0078Y01405D01*
X00591Y01462D02*
X0064D01*
Y01541*
X00591D02*
X0064D01*
X00591Y01462D02*
Y01541D01*
Y01488D02*
X00617Y01462D01*
X04025Y01111D02*
Y01311D01*
X03892D02*
X04025D01*
X03892Y01111D02*
Y01311D01*
Y01111D02*
X04025D01*
X00125Y00982D02*
X00157D01*
Y00919D02*
Y00982D01*
X00125Y00919D02*
X00157D01*
X00125D02*
Y00982D01*
X00786Y00896D02*
Y00928D01*
X00849*
Y00896D02*
Y00928D01*
X00786Y00896D02*
X00849D01*
X00151Y00695D02*
X00277D01*
Y00758*
X00151D02*
X00277D01*
X00151Y00695D02*
Y00758D01*
X01521Y00681D02*
X01553D01*
X01521D02*
Y00744D01*
X01553*
Y00681D02*
Y00744D01*
X02168Y01936D02*
X02231D01*
X02168D02*
Y01967D01*
X02231*
Y01936D02*
Y01967D01*
X02215Y01936D02*
X02231Y01951D01*
X02169Y00523D02*
Y00586D01*
X022*
Y00523D02*
Y00586D01*
X02169Y00523D02*
X022D01*
X01842Y01763D02*
X01905D01*
Y01732D02*
Y01763D01*
X01842Y01732D02*
X01905D01*
X01842D02*
Y01763D01*
X02413Y01633D02*
X02476D01*
Y01602D02*
Y01633D01*
X02413Y01602D02*
X02476D01*
X02413D02*
Y01633D01*
X0244Y01177D02*
X02503D01*
Y01145D02*
Y01177D01*
X0244Y01145D02*
X02503D01*
X0244D02*
Y01177D01*
X01994Y00667D02*
Y0073D01*
X01963Y00667D02*
X01994D01*
X01963D02*
Y0073D01*
X01994*
X02466Y00916D02*
X02529D01*
Y00885D02*
Y00916D01*
X02466Y00885D02*
X02529D01*
X02466D02*
Y00916D01*
X01542Y01735D02*
Y01766D01*
Y01735D02*
X01605D01*
Y01766*
X01542D02*
X01605D01*
X01421Y01311D02*
Y01342D01*
X01358D02*
X01421D01*
X01358Y01311D02*
Y01342D01*
Y01311D02*
X01421D01*
X0142Y01116D02*
Y01148D01*
X01357D02*
X0142D01*
X01357Y01116D02*
Y01148D01*
Y01116D02*
X0142D01*
X01421Y00858D02*
Y00889D01*
X01358D02*
X01421D01*
X01358Y00858D02*
Y00889D01*
Y00858D02*
X01421D01*
X02879Y01444D02*
X02942D01*
X02879Y01413D02*
Y01444D01*
Y01413D02*
X02942D01*
Y01444*
Y01354D02*
Y01385D01*
X02879Y01354D02*
X02942D01*
X02879D02*
Y01385D01*
X02942*
X02444Y00627D02*
X02476D01*
X02444D02*
Y00689D01*
X02476*
Y00627D02*
Y00689D01*
X02393Y00625D02*
X02425D01*
X02393D02*
Y00688D01*
X02425*
Y00625D02*
Y00688D01*
X0233Y00625D02*
X02362D01*
X0233D02*
Y00688D01*
X02362*
Y00625D02*
Y00688D01*
X0269Y0049D02*
Y00553D01*
X02659D02*
X0269D01*
X02659Y0049D02*
Y00553D01*
Y0049D02*
X0269D01*
X02597Y00553D02*
X02629D01*
Y0049D02*
Y00553D01*
X02597Y0049D02*
X02629D01*
X02597D02*
Y00553D01*
X0258Y00366D02*
X03521D01*
X0258D02*
Y00865D01*
X03521*
Y00366D02*
Y00865D01*
X02674Y01533D02*
X02713D01*
X02699Y01511D02*
Y01551D01*
X00185Y-00253D02*
Y0044D01*
X00578*
Y-00253D02*
Y0044D01*
X00185Y-00253D02*
X00578D01*
X03816Y00015D02*
Y00397D01*
X03318Y00015D02*
X03816D01*
X03318D02*
Y00397D01*
X03816*
X03548Y01885D02*
X03744D01*
X03548Y01728D02*
Y01885D01*
Y01728D02*
X03744D01*
Y01885*
X01122Y00358D02*
X01525D01*
Y00043D02*
Y00358D01*
X01122Y00043D02*
X01525D01*
X01122D02*
Y00358D01*
X03592Y01009D02*
Y01131D01*
X03726*
Y01009D02*
Y01131D01*
X03592Y01009D02*
X03726D01*
X00766Y02214D02*
Y02917D01*
X00167D02*
X00766D01*
X00167Y02214D02*
Y02917D01*
Y02214D02*
X00766D01*
X00911Y02508D02*
Y02912D01*
X01225*
Y02508D02*
Y02912D01*
X00911Y02508D02*
X01225D01*
X01135Y-00019D02*
X01787D01*
Y00705*
X01135D02*
X01787D01*
X01135Y-00019D02*
Y00705D01*
X01588Y00655D02*
X01753D01*
Y00537D02*
Y00655D01*
X01588Y00537D02*
X01753D01*
X01588D02*
Y00655D01*
X03396Y01024D02*
X03541D01*
X03396D02*
Y0115D01*
X03541*
Y01024D02*
Y0115D01*
G54D15*
X00184Y00669D02*
X00973D01*
X00184D02*
Y01604D01*
X00973*
Y00669D02*
Y01604D01*
X01072Y01251D02*
X01131D01*
Y01137D02*
Y01251D01*
X01072Y01137D02*
X01131D01*
X01072D02*
Y01251D01*
X00694Y02028D02*
X00731D01*
X00694Y01963D02*
X00731D01*
Y02028*
X00694Y01963D02*
Y02028D01*
X02034Y01946D02*
X02149D01*
X02034D02*
Y01997D01*
X02149*
Y01946D02*
Y01997D01*
X02314Y01946D02*
Y01997D01*
X02199D02*
X02314D01*
X02199Y01946D02*
Y01997D01*
Y01946D02*
X02314D01*
X02489D02*
Y01997D01*
X02374D02*
X02489D01*
X02374Y01946D02*
Y01997D01*
Y01946D02*
X02489D01*
X02642D02*
Y01997D01*
X02527D02*
X02642D01*
X02527Y01946D02*
Y01997D01*
Y01946D02*
X02642D01*
G54D16*
X01904Y0058D02*
D01*
X01905Y0058*
X01906Y0058*
X01907Y0058*
X01908Y0058*
X0191Y00581*
X01911Y00581*
X01912Y00582*
X01913Y00582*
X01914Y00583*
X01915Y00584*
X01916Y00585*
X01916Y00585*
X01917Y00586*
X01918Y00587*
X01918Y00588*
X01919Y00589*
X0192Y0059*
X0192Y00592*
X0192Y00593*
X01921Y00594*
X01921Y00595*
X01921Y00596*
X0192Y00597*
X02115D02*
D01*
X02115Y00596*
X02115Y00594*
X02116Y00593*
X02116Y00592*
X02116Y00591*
X02117Y0059*
X02117Y00589*
X02118Y00588*
X02118Y00587*
X02119Y00586*
X0212Y00585*
X02121Y00584*
X02122Y00583*
X02123Y00583*
X02124Y00582*
X02125Y00582*
X02126Y00581*
X02127Y00581*
X02128Y0058*
X02129Y0058*
X0213Y0058*
X02132Y0058*
X02132Y0058*
Y00483D02*
D01*
X02131Y00483*
X0213Y00483*
X02129Y00483*
X02128Y00483*
X02126Y00482*
X02125Y00482*
X02124Y00481*
X02123Y00481*
X02122Y0048*
X02121Y00479*
X0212Y00479*
X0212Y00478*
X02119Y00477*
X02118Y00476*
X02118Y00475*
X02117Y00474*
X02116Y00473*
X02116Y00472*
X02116Y00471*
X02116Y00469*
X02115Y00468*
X02115Y00467*
X02115Y00467*
X0192D02*
D01*
X0192Y00468*
X0192Y00469*
X0192Y0047*
X0192Y00471*
X01919Y00473*
X01919Y00474*
X01918Y00475*
X01918Y00476*
X01917Y00477*
X01916Y00478*
X01916Y00479*
X01915Y00479*
X01914Y0048*
X01913Y00481*
X01912Y00481*
X01911Y00482*
X0191Y00483*
X01909Y00483*
X01908Y00483*
X01906Y00483*
X01905Y00484*
X01904Y00484*
X01904Y00483*
X0192Y00597D02*
X01977D01*
X02059D02*
X02115D01*
X02132Y00544D02*
Y0058D01*
Y00483D02*
Y0052D01*
X02059Y00467D02*
X02115D01*
X0192D02*
X01977D01*
X01904Y00483D02*
Y0052D01*
Y00544D02*
Y0058D01*
G54D18*
X0234Y00321D02*
X02504D01*
Y00485*
X0234D02*
X02504D01*
X0234Y00321D02*
Y00485D01*
X02454D02*
X02466D01*
X02429D02*
X02441D01*
X02403D02*
X02415D01*
X02378D02*
X0239D01*
X0234Y00435D02*
Y00447D01*
Y0041D02*
Y00422D01*
Y00384D02*
Y00396D01*
Y00359D02*
Y00371D01*
X02378Y00321D02*
X0239D01*
X02403D02*
X02415D01*
X02429D02*
X02441D01*
X02454D02*
X02466D01*
X02504Y00359D02*
Y00371D01*
Y00384D02*
Y00396D01*
Y0041D02*
Y00422D01*
Y00435D02*
Y00447D01*
X02454Y00321D02*
X02504Y00371D01*
G54D19*
X00298Y00482D02*
Y00625D01*
X00529*
Y00482D02*
Y00625D01*
X00298Y00482D02*
X00529D01*
X01187Y00986D02*
X01302D01*
Y00927D02*
Y00986D01*
X01187Y00927D02*
X01302D01*
X01187D02*
Y00986D01*
X02964Y00797D02*
Y00887D01*
X03145*
Y00797D02*
Y00887D01*
X02964Y00797D02*
X03145D01*
X03713Y00017D02*
X03823D01*
X03713D02*
Y00188D01*
X03823*
Y00017D02*
Y00188D01*
X03235Y00142D02*
X03345D01*
X03235D02*
Y00312D01*
X03345*
Y00142D02*
Y00312D01*
X03327Y00784D02*
Y00894D01*
X03157Y00784D02*
X03327D01*
X03157D02*
Y00894D01*
X03327*
X02776Y00777D02*
X02886D01*
X02776D02*
Y00948D01*
X02886*
Y00777D02*
Y00948D01*
X03758Y00433D02*
X04029D01*
X03758Y00255D02*
Y00433D01*
Y00255D02*
X04029D01*
Y00433*
X02314Y0269D02*
X02584D01*
X02314Y02513D02*
Y0269D01*
Y02513D02*
X02584D01*
Y0269*
X02314Y02553D02*
X02584D01*
X02314Y02375D02*
Y02553D01*
Y02375D02*
X02584D01*
Y02553*
X01756Y02047D02*
X0205D01*
Y0183D02*
Y02047D01*
X01756Y0183D02*
X0205D01*
X01756D02*
Y02047D01*
X02501Y01872D02*
Y01931D01*
Y01872D02*
X02616D01*
Y01931*
X02501D02*
X02616D01*
X02624Y01924D02*
Y01979D01*
X02498D02*
X02624D01*
X02498Y01924D02*
Y01979D01*
Y01924D02*
X02624D01*
X02377D02*
X02503D01*
X02377D02*
Y01979D01*
X02503*
Y01924D02*
Y01979D01*
X01848Y00024D02*
X03361D01*
X01848D02*
Y00218D01*
X03361*
Y00024D02*
Y00218D01*
X02399Y02742D02*
X03912D01*
X02399D02*
Y02937D01*
X03912*
Y02742D02*
Y02937D01*
X01473Y00757D02*
X02396D01*
Y01679*
X01473D02*
X02396D01*
X01473Y00757D02*
Y01679D01*
X02838Y01719D02*
X02897D01*
Y01605D02*
Y01719D01*
X02838Y01605D02*
X02897D01*
X02838D02*
Y01719D01*
X02901D02*
X0296D01*
Y01605D02*
Y01719D01*
X02901Y01605D02*
X0296D01*
X02901D02*
Y01719D01*
X02966Y01537D02*
Y01596D01*
X02852Y01537D02*
X02966D01*
X02852D02*
Y01596D01*
X02966*
X02968Y01478D02*
Y01537D01*
X02854Y01478D02*
X02968D01*
X02854D02*
Y01537D01*
X02968*
X02352Y01542D02*
Y01601D01*
X02466*
Y01542D02*
Y01601D01*
X02352Y01542D02*
X02466D01*
X02352Y01481D02*
Y0154D01*
X02466*
Y01481D02*
Y0154D01*
X02352Y01481D02*
X02466D01*
X02351Y01419D02*
Y01589D01*
X0224D02*
X02351D01*
X0224Y01419D02*
Y01589D01*
Y01419D02*
X02351D01*
X02292Y01303D02*
Y01474D01*
Y01303D02*
X02402D01*
Y01474*
X02292D02*
X02402D01*
X02377Y01438D02*
X02436D01*
Y01324D02*
Y01438D01*
X02377Y01324D02*
X02436D01*
X02377D02*
Y01438D01*
X02702Y01344D02*
Y01403D01*
X02588Y01344D02*
X02702D01*
X02588D02*
Y01403D01*
X02702*
X0271Y0065D02*
X02801D01*
Y00468D02*
Y0065D01*
X0271Y00468D02*
X02801D01*
X0271D02*
Y0065D01*
X01149Y00493D02*
Y0178D01*
X00007D02*
X01149D01*
X00007Y00493D02*
Y0178D01*
Y00493D02*
X01149D01*
X02827Y01399D02*
Y01667D01*
X0256Y01399D02*
Y01667D01*
X02827*
X0256Y01399D02*
X02827D01*
X03788Y00137D02*
X04037D01*
X03788D02*
Y00997D01*
X04037*
Y00137D02*
Y00997D01*
X03818Y00419D02*
Y00509D01*
X03637Y00419D02*
X03818D01*
X03637D02*
Y00509D01*
X03818*
Y00501D02*
Y00592D01*
X03637Y00501D02*
X03818D01*
X03637D02*
Y00592D01*
X03818*
Y0058D02*
Y00671D01*
X03637Y0058D02*
X03818D01*
X03637D02*
Y00671D01*
X03818*
Y00659D02*
Y0075D01*
X03637Y00659D02*
X03818D01*
X03637D02*
Y0075D01*
X03818*
X03816Y00755D02*
X03986D01*
Y00866*
X03816D02*
X03986D01*
X03816Y00755D02*
Y00866D01*
X03818Y00738D02*
Y00828D01*
X03637Y00738D02*
X03818D01*
X03637D02*
Y00828D01*
X03818*
X01018Y01127D02*
X01184D01*
Y01261*
X01018D02*
X01184D01*
X01018Y01127D02*
Y01261D01*
X03639Y02379D02*
X03753D01*
X03639D02*
Y02438D01*
X03753*
Y02379D02*
Y02438D01*
X03683Y00747D02*
Y00902D01*
X03576Y00747D02*
X03683D01*
X03576D02*
Y00902D01*
X03683*
X03775Y01749D02*
Y01824D01*
X03815*
Y01749D02*
Y01824D01*
X03775Y01749D02*
X03815D01*
X03531Y01124D02*
Y01198D01*
X03571*
Y01124D02*
Y01198D01*
X03531Y01124D02*
X03571D01*
X03625Y01559D02*
X03751D01*
Y01746*
X03625D02*
X03751D01*
X03625Y01559D02*
Y01746D01*
X03198Y02656D02*
X03242D01*
X03198Y02563D02*
Y02656D01*
Y02563D02*
X03242D01*
Y02656*
X03167D02*
X0321D01*
X03167Y02563D02*
Y02656D01*
Y02563D02*
X0321D01*
Y02656*
X01185Y00398D02*
X013D01*
Y00339D02*
Y00398D01*
X01185Y00339D02*
X013D01*
X01185D02*
Y00398D01*
X0119Y00477D02*
X01286D01*
Y00428D02*
Y00477D01*
X0119Y00428D02*
X01286D01*
X0119D02*
Y00477D01*
X03635Y01587D02*
Y01743D01*
X03529Y01587D02*
X03635D01*
X03529D02*
Y01743D01*
X03635*
X03535Y01927D02*
X03575D01*
X03535Y01851D02*
Y01927D01*
Y01851D02*
X03575D01*
Y01927*
X03553Y00987D02*
X03596D01*
X03553Y00894D02*
Y00987D01*
Y00894D02*
X03596D01*
Y00987*
X03515Y00947D02*
X03555D01*
X03515Y00872D02*
Y00947D01*
Y00872D02*
X03555D01*
Y00947*
X03173Y02556D02*
Y02648D01*
X03129Y02556D02*
X03173D01*
X03129D02*
Y02648D01*
X03173*
X03514Y0244D02*
X03611D01*
X03514D02*
Y02488D01*
X03611*
Y0244D02*
Y02488D01*
X03525Y02086D02*
X036D01*
Y0222*
X03525D02*
X036D01*
X03525Y02086D02*
Y0222D01*
X03671Y02092D02*
Y02206D01*
X03612Y02092D02*
X03671D01*
X03612D02*
Y02206D01*
X03671*
X00861Y01951D02*
Y02048D01*
X0091*
Y01951D02*
Y02048D01*
X00861Y01951D02*
X0091D01*
X00806D02*
Y02048D01*
X00855*
Y01951D02*
Y02048D01*
X00806Y01951D02*
X00855D01*
X008D02*
Y02048D01*
X00751Y01951D02*
X008D01*
X00751D02*
Y02048D01*
X008*
X00683Y01939D02*
X00741D01*
X00683Y02052D02*
X00741D01*
Y01939D02*
Y02052D01*
X00683Y01939D02*
Y02052D01*
X00629Y01892D02*
X00677D01*
Y01988*
X00629D02*
X00677D01*
X00629Y01892D02*
Y01988D01*
X02778Y02277D02*
Y02494D01*
X03072*
Y02277D02*
Y02494D01*
X02778Y02277D02*
X03072D01*
X02877Y02542D02*
X02973D01*
Y02591*
X02877D02*
X02973D01*
X02877Y02542D02*
Y02591D01*
X03139Y02488D02*
X03253D01*
Y02332D02*
Y02488D01*
X03139Y02332D02*
X03253D01*
X03139D02*
Y02488D01*
X0294Y02233D02*
Y02542D01*
X03219*
Y02233D02*
Y02542D01*
X0294Y02233D02*
X03219D01*
X02948Y02556D02*
X02992D01*
Y02648*
X02948D02*
X02992D01*
X02948Y02556D02*
Y02648D01*
X02903Y02555D02*
X02946D01*
Y02647*
X02903D02*
X02946D01*
X02903Y02555D02*
Y02647D01*
X02996Y02556D02*
X03039D01*
Y02648*
X02996D02*
X03039D01*
X02996Y02556D02*
Y02648D01*
X0304D02*
X03083D01*
X0304Y02556D02*
Y02648D01*
Y02556D02*
X03083D01*
Y02648*
X03085D02*
X03128D01*
X03085Y02556D02*
Y02648D01*
Y02556D02*
X03128D01*
Y02648*
X00864Y02517D02*
X01035D01*
Y02407D02*
Y02517D01*
X00864Y02407D02*
X01035D01*
X00864D02*
Y02517D01*
X02383Y00442D02*
Y00501D01*
Y00442D02*
X02498D01*
Y00501*
X02383D02*
X02498D01*
X03301Y02226D02*
Y02285D01*
Y02226D02*
X03415D01*
Y02285*
X03301D02*
X03415D01*
X03457Y02354D02*
Y0248D01*
X03271D02*
X03457D01*
X03271Y02354D02*
Y0248D01*
Y02354D02*
X03457D01*
X03729Y02101D02*
Y02198D01*
X0368Y02101D02*
X03729D01*
X0368D02*
Y02198D01*
X03729*
X03645Y02307D02*
X03741D01*
Y02258D02*
Y02307D01*
X03645Y02258D02*
X03741D01*
X03645D02*
Y02307D01*
X03643Y02371D02*
X0374D01*
Y02322D02*
Y02371D01*
X03643Y02322D02*
X0374D01*
X03643D02*
Y02371D01*
X03415Y02175D02*
X0347D01*
X03415Y02049D02*
Y02175D01*
Y02049D02*
X0347D01*
Y02175*
X03434Y02233D02*
X03578D01*
X03434D02*
Y02403D01*
X03578*
Y02233D02*
Y02403D01*
X02067Y01736D02*
X02162D01*
Y01687D02*
Y01736D01*
X02067Y01687D02*
X02162D01*
X02067D02*
Y01736D01*
X02024Y01896D02*
X02159D01*
X02024D02*
Y02047D01*
X02159*
Y01896D02*
Y02047D01*
X0325Y02493D02*
X03387D01*
X0325D02*
Y0264D01*
X03387*
Y02493D02*
Y0264D01*
X00764Y01079D02*
X00878D01*
Y01138*
X00764D02*
X00878D01*
X00764Y01079D02*
Y01138D01*
X00396Y00947D02*
Y01168D01*
X00705*
Y00947D02*
Y01168D01*
X00396Y00947D02*
X00705D01*
X00915Y01124D02*
Y01234D01*
X00745Y01124D02*
X00915D01*
X00745D02*
Y01234D01*
X00915*
X00765Y00946D02*
Y0099D01*
X00858*
Y00946D02*
Y0099D01*
X00765Y00946D02*
X00858D01*
X01621Y01806D02*
Y01855D01*
X01525D02*
X01621D01*
X01525Y01806D02*
Y01855D01*
Y01806D02*
X01621D01*
X0164Y01864D02*
Y01934D01*
X01525D02*
X0164D01*
X01525Y01864D02*
Y01934D01*
Y01864D02*
X0164D01*
X01463Y00714D02*
Y00798D01*
X01301D02*
X01463D01*
X01301Y00714D02*
Y00798D01*
Y00714D02*
X01463D01*
X03301Y02375D02*
X03415D01*
Y02316D02*
Y02375D01*
X03301Y02316D02*
X03415D01*
X03301D02*
Y02375D01*
X00684Y01448D02*
X00854D01*
Y01558*
X00684D02*
X00854D01*
X00684Y01448D02*
Y01558D01*
X00331Y01314D02*
Y01411D01*
X00283D02*
X00331D01*
X00283Y01314D02*
Y01411D01*
Y01314D02*
X00331D01*
X00346Y01412D02*
X00395D01*
Y01316D02*
Y01412D01*
X00346Y01316D02*
X00395D01*
X00346D02*
Y01412D01*
X00085Y01051D02*
X00196D01*
X00085D02*
Y01222D01*
X00196*
Y01051D02*
Y01222D01*
X00685Y01334D02*
Y01444D01*
X00514Y01334D02*
X00685D01*
X00514D02*
Y01444D01*
X00685*
X00133Y00488D02*
Y00537D01*
X00229*
Y00488D02*
Y00537D01*
X00133Y00488D02*
X00229D01*
X00133Y00605D02*
X00229D01*
X00133Y00556D02*
Y00605D01*
Y00556D02*
X00229D01*
Y00605*
X00133Y00615D02*
X00229D01*
Y00664*
X00133D02*
X00229D01*
X00133Y00615D02*
Y00664D01*
X0114Y01364D02*
Y01413D01*
X01044Y01364D02*
X0114D01*
X01044D02*
Y01413D01*
X0114*
X02018Y02058D02*
Y02107D01*
X01922D02*
X02018D01*
X01922Y02058D02*
Y02107D01*
Y02058D02*
X02018D01*
X02377Y01924D02*
Y01979D01*
X02251D02*
X02377D01*
X02251Y01924D02*
Y01979D01*
Y01924D02*
X02377D01*
X01144Y01294D02*
Y01353D01*
X0103Y01294D02*
X01144D01*
X0103D02*
Y01353D01*
X01144*
X02387Y00623D02*
X02502D01*
X02387D02*
Y00693D01*
X02502*
Y00623D02*
Y00693D01*
X02487Y00709D02*
Y00758D01*
X0239D02*
X02487D01*
X0239Y00709D02*
Y00758D01*
Y00709D02*
X02487D01*
X0239Y00768D02*
Y00817D01*
Y00768D02*
X02486D01*
Y00817*
X0239D02*
X02486D01*
X02541Y00277D02*
X02711D01*
Y00387*
X02541D02*
X02711D01*
X02541Y00277D02*
Y00387D01*
X01588Y0064D02*
Y0081D01*
Y0064D02*
X01698D01*
Y0081*
X01588D02*
X01698D01*
X01643D02*
X01753D01*
Y0064D02*
Y0081D01*
X01643Y0064D02*
X01753D01*
X01643D02*
Y0081D01*
X01324D02*
X01435D01*
Y0064D02*
Y0081D01*
X01324Y0064D02*
X01435D01*
X01324D02*
Y0081D01*
X01537D02*
X01647D01*
Y0064D02*
Y0081D01*
X01537Y0064D02*
X01647D01*
X01537D02*
Y0081D01*
X04029Y01627D02*
Y01687D01*
X03915D02*
X04029D01*
X03915Y01627D02*
Y01687D01*
Y01627D02*
X04029D01*
X02428Y01341D02*
Y0139D01*
Y01341D02*
X02524D01*
Y0139*
X02428D02*
X02524D01*
X02584Y00421D02*
X02698D01*
X02584Y00362D02*
Y00421D01*
Y00362D02*
X02698D01*
Y00421*
X02671Y01637D02*
Y01696D01*
X02557Y01637D02*
X02671D01*
X02557D02*
Y01696D01*
X02671*
X02276Y02653D02*
Y02901D01*
X01417Y02653D02*
X02276D01*
X01417D02*
Y02901D01*
X02276*
X0391Y0144D02*
X04008D01*
X0391D02*
Y01618D01*
X04008*
Y0144D02*
Y01618D01*
X00768Y01036D02*
X00861D01*
Y01079*
X00768D02*
X00861D01*
X00768Y01036D02*
Y01079D01*
X03913Y01748D02*
X04039D01*
Y01692D02*
Y01748D01*
X03913Y01692D02*
X04039D01*
X03913D02*
Y01748D01*
X0404Y01757D02*
Y01801D01*
X03948D02*
X0404D01*
X03948Y01757D02*
Y01801D01*
Y01757D02*
X0404D01*
X00765Y00992D02*
X00858D01*
Y01035*
X00765D02*
X00858D01*
X00765Y00992D02*
Y01035D01*
X02379Y01873D02*
Y01932D01*
Y01873D02*
X02493D01*
Y01932*
X02379D02*
X02493D01*
X02133Y01934D02*
X02247D01*
Y01875D02*
Y01934D01*
X02133Y01875D02*
X02247D01*
X02133D02*
Y01934D01*
X02255Y01933D02*
X0237D01*
Y01874D02*
Y01933D01*
X02255Y01874D02*
X0237D01*
X02255D02*
Y01933D01*
X0168Y0054D02*
X01729D01*
X0168Y00445D02*
Y0054D01*
Y00445D02*
X01729D01*
Y0054*
X01601D02*
X0165D01*
X01601Y00445D02*
Y0054D01*
Y00445D02*
X0165D01*
Y0054*
X01881Y00459D02*
Y00555D01*
X01832Y00459D02*
X01881D01*
X01832D02*
Y00555D01*
X01881*
X03443Y01169D02*
Y01261D01*
Y01169D02*
X03486D01*
Y01261*
X03443D02*
X03486D01*
X03344Y01126D02*
Y01218D01*
Y01126D02*
X03387D01*
Y01218*
X03344D02*
X03387D01*
X03584Y01068D02*
Y0114D01*
X03547D02*
X03584D01*
X03547Y01068D02*
Y0114D01*
Y01068D02*
X03584D01*
X03346Y01015D02*
X03382D01*
X03346D02*
Y01087D01*
X03382*
Y01015D02*
Y01087D01*
X01234Y01097D02*
Y01132D01*
X01311*
Y01097D02*
Y01132D01*
X01234Y01097D02*
X01311D01*
X01234Y0114D02*
Y01176D01*
X01311*
Y0114D02*
Y01176D01*
X01234Y0114D02*
X01311D01*
X02804Y01187D02*
Y01246D01*
X02918*
Y01187D02*
Y01246D01*
X02804Y01187D02*
X02918D01*
X01235D02*
Y01222D01*
X01312*
Y01187D02*
Y01222D01*
X01235Y01187D02*
X01312D01*
X01234Y01045D02*
Y0108D01*
X01311*
Y01045D02*
Y0108D01*
X01234Y01045D02*
X01311D01*
X02324Y01896D02*
Y02047D01*
X02189D02*
X02324D01*
X02189Y01896D02*
Y02047D01*
Y01896D02*
X02324D01*
X02499D02*
Y02047D01*
X02364D02*
X02499D01*
X02364Y01896D02*
Y02047D01*
Y01896D02*
X02499D01*
X02652D02*
Y02047D01*
X02517D02*
X02652D01*
X02517Y01896D02*
Y02047D01*
Y01896D02*
X02652D01*
X02859Y01043D02*
Y01139D01*
Y01043D02*
X02908D01*
Y01139*
X02859D02*
X02908D01*
X02805Y01042D02*
Y01138D01*
Y01042D02*
X02854D01*
Y01138*
X02805D02*
X02854D01*
X03112Y02348D02*
X03226D01*
X03112Y02289D02*
Y02348D01*
Y02289D02*
X03226D01*
Y02348*
X00688Y01444D02*
X00822D01*
X00688Y01338D02*
Y01444D01*
Y01338D02*
X00822D01*
Y01444*
X00549Y01448D02*
X00683D01*
Y01555*
X00549D02*
X00683D01*
X00549Y01448D02*
Y01555D01*
X04035Y01101D02*
Y01321D01*
X03882D02*
X04035D01*
X03882Y01101D02*
Y01321D01*
Y01101D02*
X04035D01*
X00117Y00999D02*
X00166D01*
Y00902D02*
Y00999D01*
X00117Y00902D02*
X00166D01*
X00117D02*
Y00999D01*
X00769Y00888D02*
Y00937D01*
X00865*
Y00888D02*
Y00937D01*
X00769Y00888D02*
X00865D01*
X00133Y00685D02*
X00295D01*
Y00768*
X00133D02*
X00295D01*
X00133Y00685D02*
Y00768D01*
X01512Y00664D02*
X01561D01*
X01512D02*
Y00761D01*
X01561*
Y00664D02*
Y00761D01*
X01431Y0064D02*
Y0081D01*
Y0064D02*
X01541D01*
Y0081*
X01431D02*
X01541D01*
X01375Y0064D02*
Y0081D01*
Y0064D02*
X01486D01*
Y0081*
X01375D02*
X01486D01*
X02136Y01924D02*
X02262D01*
X02136D02*
Y01979D01*
X02262*
Y01924D02*
Y01979D01*
X0216Y00507D02*
Y00603D01*
X02209*
Y00507D02*
Y00603D01*
X0216Y00507D02*
X02209D01*
X01825Y01772D02*
X01922D01*
Y01723D02*
Y01772D01*
X01825Y01723D02*
X01922D01*
X01825D02*
Y01772D01*
X02396Y01642D02*
X02492D01*
Y01593D02*
Y01642D01*
X02396Y01593D02*
X02492D01*
X02396D02*
Y01642D01*
X02424Y01185D02*
X0252D01*
Y01137D02*
Y01185D01*
X02424Y01137D02*
X0252D01*
X02424D02*
Y01185D01*
X02003Y0065D02*
Y00746D01*
X01954Y0065D02*
X02003D01*
X01954D02*
Y00746D01*
X02003*
X0245Y00925D02*
X02546D01*
Y00876D02*
Y00925D01*
X0245Y00876D02*
X02546D01*
X0245D02*
Y00925D01*
X01525Y01726D02*
Y01775D01*
Y01726D02*
X01621D01*
Y01775*
X01525D02*
X01621D01*
X01437Y01302D02*
Y01351D01*
X01341D02*
X01437D01*
X01341Y01302D02*
Y01351D01*
Y01302D02*
X01437D01*
X01436Y01108D02*
Y01157D01*
X0134D02*
X01436D01*
X0134Y01108D02*
Y01157D01*
Y01108D02*
X01436D01*
X01437Y00849D02*
Y00898D01*
X01341D02*
X01437D01*
X01341Y00849D02*
Y00898D01*
Y00849D02*
X01437D01*
X02863Y01453D02*
X02959D01*
X02863Y01404D02*
Y01453D01*
Y01404D02*
X02959D01*
Y01453*
X02961Y01344D02*
Y01396D01*
X02861Y01344D02*
X02961D01*
X02861D02*
Y01396D01*
X02961*
X02436Y0061D02*
X02485D01*
X02436D02*
Y00706D01*
X02485*
Y0061D02*
Y00706D01*
X02385Y00609D02*
X02433D01*
X02385D02*
Y00705D01*
X02433*
Y00609D02*
Y00705D01*
X02322Y00609D02*
X0237D01*
X02322D02*
Y00705D01*
X0237*
Y00609D02*
Y00705D01*
X02699Y00473D02*
Y00569D01*
X0265D02*
X02699D01*
X0265Y00473D02*
Y00569D01*
Y00473D02*
X02699D01*
X02587Y00571D02*
X02639D01*
Y00471D02*
Y00571D01*
X02587Y00471D02*
X02639D01*
X02587D02*
Y00571D01*
G54D205*
X0304Y01803D02*
X03044D01*
X03048Y01807*
X03052Y01803*
X03056*
Y01807*
X03052Y01812*
X03056Y01816*
Y0182*
X03052*
X03048Y01816*
X03044Y0182*
X0304*
Y01816*
X03044Y01812*
X0304Y01807*
Y01803*
X03044Y01807D02*
X03046D01*
X03048Y01809*
X0305Y01807*
X03052*
Y01809*
X0305Y01812*
X03052Y01814*
Y01816*
X0305*
X03048Y01814*
X03046Y01816*
X03044*
Y01814*
X03046Y01812*
X03044Y01809*
Y01807*
X03245Y0014D02*
Y00121D01*
X03255*
X03258Y00124*
Y00127*
X03255Y00131*
X03245*
X03255*
X03258Y00134*
Y00137*
X03255Y0014*
X03245*
X03145D02*
Y00121D01*
X03155*
X03158Y00124*
Y00127*
X03155Y00131*
X03145*
X03155*
X03158Y00134*
Y00137*
X03155Y0014*
X03145*
X03045D02*
Y00121D01*
X03055*
X03058Y00124*
Y00127*
X03055Y00131*
X03045*
X03055*
X03058Y00134*
Y00137*
X03055Y0014*
X03045*
X02945D02*
Y00121D01*
X02955*
X02958Y00124*
Y00127*
X02955Y00131*
X02945*
X02955*
X02958Y00134*
Y00137*
X02955Y0014*
X02945*
X02845D02*
Y00121D01*
X02855*
X02858Y00124*
Y00127*
X02855Y00131*
X02845*
X02855*
X02858Y00134*
Y00137*
X02855Y0014*
X02845*
X02745D02*
Y00121D01*
X02755*
X02758Y00124*
Y00127*
X02755Y00131*
X02745*
X02755*
X02758Y00134*
Y00137*
X02755Y0014*
X02745*
X02645D02*
Y00121D01*
X02655*
X02658Y00124*
Y00127*
X02655Y00131*
X02645*
X02655*
X02658Y00134*
Y00137*
X02655Y0014*
X02645*
X02545D02*
Y00121D01*
X02555*
X02558Y00124*
Y00127*
X02555Y00131*
X02545*
X02555*
X02558Y00134*
Y00137*
X02555Y0014*
X02545*
X02445D02*
Y00121D01*
X02455*
X02458Y00124*
Y00127*
X02455Y00131*
X02445*
X02455*
X02458Y00134*
Y00137*
X02455Y0014*
X02445*
X02345D02*
Y00121D01*
X02355*
X02358Y00124*
Y00127*
X02355Y00131*
X02345*
X02355*
X02358Y00134*
Y00137*
X02355Y0014*
X02345*
X02245D02*
Y00121D01*
X02255*
X02258Y00124*
Y00127*
X02255Y00131*
X02245*
X02255*
X02258Y00134*
Y00137*
X02255Y0014*
X02245*
X02145D02*
Y00121D01*
X02155*
X02158Y00124*
Y00127*
X02155Y00131*
X02145*
X02155*
X02158Y00134*
Y00137*
X02155Y0014*
X02145*
X02045D02*
Y00121D01*
X02055*
X02058Y00124*
Y00127*
X02055Y00131*
X02045*
X02055*
X02058Y00134*
Y00137*
X02055Y0014*
X02045*
X01945D02*
Y00121D01*
X01955*
X01958Y00124*
Y00127*
X01955Y00131*
X01945*
X01955*
X01958Y00134*
Y00137*
X01955Y0014*
X01945*
X03796Y02859D02*
Y02839D01*
X03806*
X0381Y02842*
Y02846*
X03806Y02849*
X03796*
X03806*
X0381Y02852*
Y02856*
X03806Y02859*
X03796*
X03696D02*
Y02839D01*
X03706*
X0371Y02842*
Y02846*
X03706Y02849*
X03696*
X03706*
X0371Y02852*
Y02856*
X03706Y02859*
X03696*
X03596D02*
Y02839D01*
X03606*
X0361Y02842*
Y02846*
X03606Y02849*
X03596*
X03606*
X0361Y02852*
Y02856*
X03606Y02859*
X03596*
X03496D02*
Y02839D01*
X03506*
X0351Y02842*
Y02846*
X03506Y02849*
X03496*
X03506*
X0351Y02852*
Y02856*
X03506Y02859*
X03496*
X03396D02*
Y02839D01*
X03406*
X0341Y02842*
Y02846*
X03406Y02849*
X03396*
X03406*
X0341Y02852*
Y02856*
X03406Y02859*
X03396*
X03296D02*
Y02839D01*
X03306*
X0331Y02842*
Y02846*
X03306Y02849*
X03296*
X03306*
X0331Y02852*
Y02856*
X03306Y02859*
X03296*
X03196D02*
Y02839D01*
X03206*
X0321Y02842*
Y02846*
X03206Y02849*
X03196*
X03206*
X0321Y02852*
Y02856*
X03206Y02859*
X03196*
X03096D02*
Y02839D01*
X03106*
X0311Y02842*
Y02846*
X03106Y02849*
X03096*
X03106*
X0311Y02852*
Y02856*
X03106Y02859*
X03096*
X02996D02*
Y02839D01*
X03006*
X0301Y02842*
Y02846*
X03006Y02849*
X02996*
X03006*
X0301Y02852*
Y02856*
X03006Y02859*
X02996*
X02896D02*
Y02839D01*
X02906*
X0291Y02842*
Y02846*
X02906Y02849*
X02896*
X02906*
X0291Y02852*
Y02856*
X02906Y02859*
X02896*
X02796D02*
Y02839D01*
X02806*
X0281Y02842*
Y02846*
X02806Y02849*
X02796*
X02806*
X0281Y02852*
Y02856*
X02806Y02859*
X02796*
X02696D02*
Y02839D01*
X02706*
X0271Y02842*
Y02846*
X02706Y02849*
X02696*
X02706*
X0271Y02852*
Y02856*
X02706Y02859*
X02696*
X02596D02*
Y02839D01*
X02606*
X0261Y02842*
Y02846*
X02606Y02849*
X02596*
X02606*
X0261Y02852*
Y02856*
X02606Y02859*
X02596*
X02496D02*
Y02839D01*
X02506*
X0251Y02842*
Y02846*
X02506Y02849*
X02496*
X02506*
X0251Y02852*
Y02856*
X02506Y02859*
X02496*
X03444Y00697D02*
X03437Y00713D01*
X03452*
X03444Y00697*
X02657D02*
X02661Y00701D01*
X02665*
X02661Y00705*
X02665Y00709*
X02661*
X02657Y00713*
X02653Y00709*
X02649*
X02653Y00705*
X02649Y00701*
X02653*
X02657Y00697*
Y00701D02*
X02659Y00703D01*
X02661*
X02659Y00705*
X02661Y00707*
X02659*
X02657Y00709*
X02655Y00707*
X02653*
X02655Y00705*
X02653Y00703*
X02655*
X02657Y00701*
X03728Y02708D02*
Y02722D01*
X03735Y02728*
X03741Y02722*
Y02708*
Y02718*
X03728*
Y02669D02*
Y02682D01*
X03735Y02689*
X03741Y02682*
Y02669*
Y02679*
X03728*
X00475Y00141D02*
X00483Y00149D01*
X00491Y00141*
X00483Y00133*
X00475Y00141*
Y00344D02*
X00483Y00352D01*
X00491Y00344*
X00483Y00336*
X00475Y00344*
X00272D02*
X0028Y00352D01*
X00288Y00344*
X0028Y00336*
X00272Y00344*
Y00141D02*
X0028Y00149D01*
X00288Y00141*
X0028Y00133*
X00272Y00141*
X00374Y00235D02*
X00377Y00243D01*
X00374Y00251*
X00381Y00247*
X00389Y00251*
X00385Y00243*
X00389Y00235*
X00381Y00238*
X00374Y00235*
X0348Y00212D02*
X03484D01*
X03488Y00216*
X03492Y00212*
X03496*
Y00216*
X03492Y0022*
X03496Y00224*
Y00228*
X03492*
X03488Y00224*
X03484Y00228*
X0348*
Y00224*
X03484Y0022*
X0348Y00216*
Y00212*
X03637D02*
X03641D01*
X03645Y00216*
X03649Y00212*
X03653*
Y00216*
X03649Y0022*
X03653Y00224*
Y00228*
X03649*
X03645Y00224*
X03641Y00228*
X03637*
Y00224*
X03641Y0022*
X03637Y00216*
Y00212*
X03958Y01332D02*
Y01345D01*
X03965Y01352*
X03972Y01345*
Y01332*
Y01342*
X03958*
Y01362D02*
Y01375D01*
X03965Y01382*
X03972Y01375*
Y01362*
Y01372*
X03958*
Y01394D02*
Y01407D01*
X03965Y01414*
X03972Y01407*
Y01394*
Y01404*
X03958*
X03986Y01394D02*
Y01407D01*
X03993Y01414*
X04Y01407*
Y01394*
Y01404*
X03986*
Y01362D02*
Y01375D01*
X03993Y01382*
X04Y01375*
Y01362*
Y01372*
X03986*
Y01332D02*
Y01345D01*
X03993Y01352*
X04Y01345*
Y01332*
Y01342*
X03986*
X0378Y0262D02*
Y02633D01*
X03787Y0264*
X03794Y02633*
Y0262*
Y0263*
X0378*
X03752Y0262D02*
Y02633D01*
X03759Y0264*
X03766Y02633*
Y0262*
Y0263*
X03752*
X03724Y0262D02*
Y02633D01*
X0373Y0264*
X03737Y02633*
Y0262*
Y0263*
X03724*
X03693Y0262D02*
Y02633D01*
X037Y0264*
X03707Y02633*
Y0262*
Y0263*
X03693*
X03661Y0262D02*
Y02633D01*
X03667Y0264*
X03674Y02633*
Y0262*
Y0263*
X03661*
X00067Y02839D02*
Y02855D01*
X00083*
Y02839*
X00067*
X03959Y01482D02*
X03963Y01486D01*
X03967*
X03963Y0149*
X03967Y01494*
X03963*
X03959Y01498*
X03955Y01494*
X03951*
X03955Y0149*
X03951Y01486*
X03955*
X03959Y01482*
Y01561D02*
X03963Y01564D01*
X03967*
X03963Y01568*
X03967Y01572*
X03963*
X03959Y01576*
X03955Y01572*
X03951*
X03955Y01568*
X03951Y01564*
X03955*
X03959Y01561*
X00078Y00062D02*
Y00078D01*
X00094*
Y00062*
X00078*
X03966D02*
Y00078D01*
X03982*
Y00062*
X03966*
X03968Y02842D02*
Y02858D01*
X03984*
Y02842*
X03968*
X03934Y01278D02*
X03926Y01294D01*
X03942*
X03934Y01278*
Y01282D02*
X0393Y0129D01*
X03938*
X03934Y01282*
X03984Y01278D02*
X03976Y01294D01*
X03992*
X03984Y01278*
Y01282D02*
X0398Y0129D01*
X03988*
X03984Y01282*
X03934Y01228D02*
X03926Y01244D01*
X03942*
X03934Y01228*
Y01232D02*
X0393Y0124D01*
X03938*
X03934Y01232*
X03984Y01228D02*
X03976Y01244D01*
X03992*
X03984Y01228*
Y01232D02*
X0398Y0124D01*
X03988*
X03984Y01232*
X03934Y01178D02*
X03926Y01194D01*
X03942*
X03934Y01178*
Y01182D02*
X0393Y0119D01*
X03938*
X03934Y01182*
X03984Y01178D02*
X03976Y01194D01*
X03992*
X03984Y01178*
Y01182D02*
X0398Y0119D01*
X03988*
X03984Y01182*
X03934Y01128D02*
X03926Y01144D01*
X03942*
X03934Y01128*
Y01132D02*
X0393Y0114D01*
X03938*
X03934Y01132*
X03984Y01128D02*
X03976Y01144D01*
X03992*
X03984Y01128*
Y01132D02*
X0398Y0114D01*
X03988*
X03984Y01132*
X00165Y00022D02*
X00169Y00031D01*
X00165Y00038*
X00173Y00035*
X00181Y00038*
X00177Y00031*
X00181Y00022*
X00173Y00026*
X00165Y00022*
X00169Y00026D02*
X00171Y00031D01*
X00169Y00035*
X00173Y00033*
X00177Y00035*
X00175Y00031*
X00177Y00026*
X00173Y00028*
X00169Y00026*
X02985Y01953D02*
X02988Y01961D01*
X02985Y01969*
X02993Y01965*
X03001Y01969*
X02997Y01961*
X03001Y01953*
X02993Y01957*
X02985Y01953*
X02988Y01957D02*
X0299Y01961D01*
X02988Y01965*
X02993Y01963*
X02997Y01965*
X02995Y01961*
X02997Y01957*
X02993Y01959*
X02988Y01957*
X03152Y00837D02*
Y00853D01*
X03168*
Y00837*
X03152*
X03156Y00841D02*
Y00849D01*
X03164*
Y00841*
X03156*
X03387Y00913D02*
Y00929D01*
X03403*
Y00913*
X03387*
X03391Y00917D02*
Y00925D01*
X03399*
Y00917*
X03391*
X02995Y00882D02*
Y00898D01*
X03011*
Y00882*
X02995*
X02999Y00886D02*
Y00894D01*
X03007*
Y00886*
X02999*
X02903Y00929D02*
Y00944D01*
X02919*
Y00929*
X02903*
X02907Y00933D02*
Y0094D01*
X02915*
Y00933*
X02907*
X0303D02*
Y00949D01*
X03046*
Y00933*
X0303*
X03034Y00937D02*
Y00944D01*
X03042*
Y00937*
X03034*
X03081Y00903D02*
Y0092D01*
X03097*
Y00903*
X03081*
X03085Y00907D02*
Y00916D01*
X03092*
Y00907*
X03085*
X03287Y00917D02*
Y00933D01*
X03303*
Y00917*
X03287*
X0329Y00921D02*
Y00929D01*
X03298*
Y00921*
X0329*
X0338Y00949D02*
Y00965D01*
X03396*
Y00949*
X0338*
X03384Y00953D02*
Y00961D01*
X03392*
Y00953*
X03384*
X03361Y00867D02*
Y00883D01*
X03377*
Y00867*
X03361*
X03365Y00871D02*
Y00879D01*
X03374*
Y00871*
X03365*
X02828Y0074D02*
Y00757D01*
X02844*
Y0074*
X02828*
X02832Y00744D02*
Y00753D01*
X0284*
Y00744*
X02832*
X02792Y00653D02*
Y00669D01*
X02807*
Y00653*
X02792*
X02796Y00657D02*
Y00665D01*
X02803*
Y00657*
X02796*
X03307Y01023D02*
Y01039D01*
X03322*
Y01023*
X03307*
X03311Y01027D02*
Y01035D01*
X03318*
Y01027*
X03311*
X03519Y00372D02*
Y00388D01*
X03535*
Y00372*
X03519*
X03523Y00376D02*
Y00384D01*
X03531*
Y00376*
X03523*
X0359Y00394D02*
Y00409D01*
X03606*
Y00394*
X0359*
X03594Y00398D02*
Y00405D01*
X03602*
Y00398*
X03594*
X03723Y00208D02*
Y00224D01*
X03739*
Y00208*
X03723*
X03727Y00212D02*
Y0022D01*
X03735*
Y00212*
X03727*
X02804Y00602D02*
Y00618D01*
X0282*
Y00602*
X02804*
X02808Y00606D02*
Y00614D01*
X02816*
Y00606*
X02808*
X02947Y00436D02*
Y00452D01*
X02962*
Y00436*
X02947*
X02951Y0044D02*
Y00448D01*
X02959*
Y0044*
X02951*
X03265Y0035D02*
Y00366D01*
X03281*
Y0035*
X03265*
X03269Y00354D02*
Y00362D01*
X03277*
Y00354*
X03269*
X02313Y02527D02*
Y02543D01*
X02329*
Y02527*
X02313*
X02317Y02531D02*
Y02539D01*
X02325*
Y02531*
X02317*
X02461Y01663D02*
Y01679D01*
X02477*
Y01663*
X02461*
X02465Y01667D02*
Y01675D01*
X02473*
Y01667*
X02465*
X02425Y01294D02*
Y0131D01*
X02442*
Y01294*
X02425*
X02429Y01298D02*
Y01306D01*
X02438*
Y01298*
X02429*
X02703Y00945D02*
Y00961D01*
X02718*
Y00945*
X02703*
X02707Y00949D02*
Y00957D01*
X02714*
Y00949*
X02707*
X02731Y00884D02*
Y009D01*
X02748*
Y00884*
X02731*
X02735Y00888D02*
Y00896D01*
X02743*
Y00888*
X02735*
X02219Y01297D02*
Y01312D01*
X02235*
Y01297*
X02219*
X02223Y01301D02*
Y01309D01*
X02231*
Y01301*
X02223*
X02725Y0136D02*
Y01375D01*
X02741*
Y0136*
X02725*
X02729Y01364D02*
Y01372D01*
X02737*
Y01364*
X02729*
X02723Y01233D02*
Y0125D01*
X02739*
Y01233*
X02723*
X02727Y01237D02*
Y01246D01*
X02735*
Y01237*
X02727*
X02705Y01536D02*
Y01552D01*
X02721*
Y01536*
X02705*
X02709Y0154D02*
Y01548D01*
X02717*
Y0154*
X02709*
X02531Y01435D02*
Y01451D01*
X02547*
Y01435*
X02531*
X02535Y01439D02*
Y01448D01*
X02543*
Y01439*
X02535*
X01974Y02185D02*
Y02201D01*
X0199*
Y02185*
X01974*
X01978Y02189D02*
Y02198D01*
X01986*
Y02189*
X01978*
X02712Y01492D02*
Y01509D01*
X02728*
Y01492*
X02712*
X02716Y01496D02*
Y01505D01*
X02724*
Y01496*
X02716*
X02922Y01207D02*
Y01223D01*
X02938*
Y01207*
X02922*
X02925Y01211D02*
Y01219D01*
X02934*
Y01211*
X02925*
X02992Y01419D02*
Y01435D01*
X03007*
Y01419*
X02992*
X02996Y01423D02*
Y01431D01*
X03003*
Y01423*
X02996*
Y01267D02*
Y01283D01*
X03011*
Y01267*
X02996*
X03Y01271D02*
Y01279D01*
X03007*
Y01271*
X03*
X02853Y01311D02*
Y01327D01*
X02869*
Y01311*
X02853*
X02857Y01315D02*
Y01324D01*
X02865*
Y01315*
X02857*
X02614Y01872D02*
Y01888D01*
X0263*
Y01872*
X02614*
X02618Y01876D02*
Y01884D01*
X02626*
Y01876*
X02618*
X02965Y0275D02*
Y02765D01*
X02981*
Y0275*
X02965*
X02969Y02753D02*
Y02761D01*
X02977*
Y02753*
X02969*
X02853Y02721D02*
Y02737D01*
X02869*
Y02721*
X02853*
X02857Y02725D02*
Y02733D01*
X02865*
Y02725*
X02857*
X02677Y02673D02*
Y02688D01*
X02692*
Y02673*
X02677*
X02681Y02677D02*
Y02685D01*
X02688*
Y02677*
X02681*
X02673Y02614D02*
Y02629D01*
X02688*
Y02614*
X02673*
X02677Y02618D02*
Y02625D01*
X02685*
Y02618*
X02677*
X02622Y02578D02*
Y02594D01*
X02638*
Y02578*
X02622*
X02626Y02582D02*
Y0259D01*
X02635*
Y02582*
X02626*
X0262Y01998D02*
Y02014D01*
X02636*
Y01998*
X0262*
X02624Y02002D02*
Y0201D01*
X02632*
Y02002*
X02624*
X02596Y02562D02*
Y02578D01*
X02612*
Y02562*
X02596*
X026Y02566D02*
Y02574D01*
X02608*
Y02566*
X026*
X03181Y02668D02*
Y02684D01*
X03196*
Y02668*
X03181*
X03185Y02672D02*
Y0268D01*
X03192*
Y02672*
X03185*
X02358Y02165D02*
Y02181D01*
X02374*
Y02165*
X02358*
X02362Y02169D02*
Y02177D01*
X0237*
Y02169*
X02362*
X02057Y01376D02*
Y01392D01*
X02074*
Y01376*
X02057*
X02061Y0138D02*
Y01388D01*
X0207*
Y0138*
X02061*
X02047Y0122D02*
Y01236D01*
X02062*
Y0122*
X02047*
X02051Y01224D02*
Y01232D01*
X02059*
Y01224*
X02051*
X02027Y01246D02*
Y01261D01*
X02043*
Y01246*
X02027*
X02031Y0125D02*
Y01257D01*
X02039*
Y0125*
X02031*
X02066Y01755D02*
Y01771D01*
X02082*
Y01755*
X02066*
X0207Y01759D02*
Y01767D01*
X02078*
Y01759*
X0207*
X01879Y00654D02*
Y0067D01*
X01895*
Y00654*
X01879*
X01883Y00658D02*
Y00666D01*
X01891*
Y00658*
X01883*
X01902Y00711D02*
Y00727D01*
X01918*
Y00711*
X01902*
X01906Y00715D02*
Y00723D01*
X01914*
Y00715*
X01906*
X01952Y0096D02*
Y00976D01*
X01968*
Y0096*
X01952*
X01956Y00964D02*
Y00972D01*
X01964*
Y00964*
X01956*
X01831Y00893D02*
Y00909D01*
X01847*
Y00893*
X01831*
X01835Y00897D02*
Y00905D01*
X01843*
Y00897*
X01835*
X01827Y00939D02*
Y00955D01*
X01843*
Y00939*
X01827*
X01831Y00943D02*
Y00951D01*
X01839*
Y00943*
X01831*
X01848Y0097D02*
Y00986D01*
X01864*
Y0097*
X01848*
X01852Y00974D02*
Y00982D01*
X0186*
Y00974*
X01852*
X01889Y01048D02*
Y01064D01*
X01905*
Y01048*
X01889*
X01893Y01051D02*
Y0106D01*
X01901*
Y01051*
X01893*
X02109Y0116D02*
Y01176D01*
X02125*
Y0116*
X02109*
X02112Y01164D02*
Y01172D01*
X02121*
Y01164*
X02112*
X02107Y01347D02*
Y01363D01*
X02124*
Y01347*
X02107*
X02112Y01351D02*
Y01359D01*
X0212*
Y01351*
X02112*
X02084Y01318D02*
Y01334D01*
X021*
Y01318*
X02084*
X02088Y01322D02*
Y0133D01*
X02096*
Y01322*
X02088*
X01822Y01435D02*
Y01451D01*
X01838*
Y01435*
X01822*
X01826Y01439D02*
Y01448D01*
X01834*
Y01439*
X01826*
X02Y01272D02*
Y01288D01*
X02016*
Y01272*
X02*
X02004Y01276D02*
Y01284D01*
X02012*
Y01276*
X02004*
X01851Y01353D02*
Y0137D01*
X01867*
Y01353*
X01851*
X01855Y01357D02*
Y01366D01*
X01863*
Y01357*
X01855*
X01776Y01388D02*
Y01404D01*
X01792*
Y01388*
X01776*
X0178Y01392D02*
Y014D01*
X01788*
Y01392*
X0178*
X01906Y0067D02*
Y00686D01*
X01922*
Y0067*
X01906*
X0191Y00674D02*
Y00682D01*
X01918*
Y00674*
X0191*
X02618Y01259D02*
Y01275D01*
X02635*
Y01259*
X02618*
X02622Y01263D02*
Y01271D01*
X0263*
Y01263*
X02622*
X0247Y01325D02*
Y0134D01*
X02485*
Y01325*
X0247*
X02474Y01329D02*
Y01337D01*
X02481*
Y01329*
X02474*
X0048Y01494D02*
Y01509D01*
X00496*
Y01494*
X0048*
X00484Y01498D02*
Y01505D01*
X00492*
Y01498*
X00484*
X02102Y00421D02*
Y00437D01*
X02118*
Y00421*
X02102*
X02106Y00425D02*
Y00433D01*
X02114*
Y00425*
X02106*
X006Y01568D02*
Y01584D01*
X00616*
Y01568*
X006*
X00604Y01572D02*
Y0158D01*
X00612*
Y01572*
X00604*
X01602Y01952D02*
Y01968D01*
X01618*
Y01952*
X01602*
X01606Y01956D02*
Y01964D01*
X01614*
Y01956*
X01606*
X00157Y02425D02*
Y0244D01*
X00173*
Y02425*
X00157*
X00161Y02429D02*
Y02437D01*
X00169*
Y02429*
X00161*
X02047Y02035D02*
Y02051D01*
X02062*
Y02035*
X02047*
X02051Y02039D02*
Y02047D01*
X02059*
Y02039*
X02051*
X02924Y01058D02*
Y01074D01*
X02939*
Y01058*
X02924*
X02927Y01062D02*
Y0107D01*
X02935*
Y01062*
X02927*
X00095Y01377D02*
Y01393D01*
X00111*
Y01377*
X00095*
X00099Y01381D02*
Y01389D01*
X00107*
Y01381*
X00099*
X03444Y01263D02*
Y01279D01*
X0346*
Y01263*
X03444*
X03448Y01267D02*
Y01275D01*
X03456*
Y01267*
X03448*
X02578Y01726D02*
Y01742D01*
X02594*
Y01726*
X02578*
X02582Y0173D02*
Y01738D01*
X0259*
Y0173*
X02582*
X00692Y00763D02*
Y00779D01*
X00708*
Y00763*
X00692*
X00696Y00767D02*
Y00775D01*
X00704*
Y00767*
X00696*
X0074Y00763D02*
Y00779D01*
X00755*
Y00763*
X0074*
X00744Y00767D02*
Y00775D01*
X00751*
Y00767*
X00744*
X00838Y00862D02*
Y00877D01*
X00854*
Y00862*
X00838*
X00842Y00866D02*
Y00874D01*
X0085*
Y00866*
X00842*
Y00818D02*
Y00834D01*
X00858*
Y00818*
X00842*
X00846Y00822D02*
Y0083D01*
X00854*
Y00822*
X00846*
X00822Y00787D02*
Y00803D01*
X00838*
Y00787*
X00822*
X00826Y00791D02*
Y00799D01*
X00834*
Y00791*
X00826*
X00728Y00893D02*
Y00909D01*
X00744*
Y00893*
X00728*
X00732Y00897D02*
Y00905D01*
X0074*
Y00897*
X00732*
Y00826D02*
Y00842D01*
X00748*
Y00826*
X00732*
X00736Y0083D02*
Y00838D01*
X00744*
Y0083*
X00736*
X00468Y00775D02*
Y00791D01*
X00484*
Y00775*
X00468*
X00472Y00779D02*
Y00787D01*
X0048*
Y00779*
X00472*
X00539D02*
Y00795D01*
X00555*
Y00779*
X00539*
X00543Y00783D02*
Y00791D01*
X00551*
Y00783*
X00543*
X00464Y00744D02*
Y00759D01*
X0048*
Y00744*
X00464*
X00468Y00748D02*
Y00755D01*
X00476*
Y00748*
X00468*
X00507D02*
Y00763D01*
X00523*
Y00748*
X00507*
X00511Y00751D02*
Y00759D01*
X00519*
Y00751*
X00511*
X00602Y00783D02*
Y00799D01*
X00618*
Y00783*
X00602*
X00606Y00787D02*
Y00795D01*
X00614*
Y00787*
X00606*
X00543Y00956D02*
Y00972D01*
X00559*
Y00956*
X00543*
X00547Y0096D02*
Y00968D01*
X00555*
Y0096*
X00547*
X00602Y00952D02*
Y00968D01*
X00618*
Y00952*
X00602*
X00606Y00956D02*
Y00964D01*
X00614*
Y00956*
X00606*
X01529Y0061D02*
Y00625D01*
X01545*
Y0061*
X01529*
X01533Y00614D02*
Y00622D01*
X01541*
Y00614*
X01533*
X02192Y00884D02*
Y009D01*
X02208*
Y00884*
X02192*
X02196Y00888D02*
Y00896D01*
X02204*
Y00888*
X02196*
X0215Y01857D02*
Y01873D01*
X02166*
Y01857*
X0215*
X02154Y01861D02*
Y01869D01*
X02162*
Y01861*
X02154*
X02263Y01861D02*
Y01877D01*
X02279*
Y01861*
X02263*
X02267Y01865D02*
Y01873D01*
X02275*
Y01865*
X02267*
X0353Y0101D02*
Y01026D01*
X03546*
Y0101*
X0353*
X03534Y01014D02*
Y01022D01*
X03542*
Y01014*
X03534*
X00096Y01205D02*
Y01221D01*
X00112*
Y01205*
X00096*
X00101Y01209D02*
Y01217D01*
X00109*
Y01209*
X00101*
X00984Y0059D02*
X00988Y00598D01*
X00984Y00606*
X00992Y00602*
X01Y00606*
X00996Y00598*
X01Y0059*
X00992Y00594*
X00984Y0059*
X00988Y00594D02*
X0099Y00598D01*
X00988Y00602*
X00992Y006*
X00996Y00602*
X00994Y00598*
X00996Y00594*
X00992Y00596*
X00988Y00594*
X03452Y00975D02*
Y00991D01*
X03468*
Y00975*
X03452*
X03456Y00979D02*
Y00987D01*
X03464*
Y00979*
X03456*
X03181Y00872D02*
Y00887D01*
X03196*
Y00872*
X03181*
X03185Y00875D02*
Y00883D01*
X03192*
Y00875*
X03185*
X02882Y00845D02*
Y00861D01*
X02898*
Y00845*
X02882*
X02886Y00849D02*
Y00857D01*
X02894*
Y00849*
X02886*
X03326Y00867D02*
Y00883D01*
X03342*
Y00867*
X03326*
X0333Y00871D02*
Y00879D01*
X03338*
Y00871*
X0333*
X03264Y00557D02*
Y00574D01*
X0328*
Y00557*
X03264*
X03268Y00561D02*
Y0057D01*
X03276*
Y00561*
X03268*
X03526Y00524D02*
Y0054D01*
X03542*
Y00524*
X03526*
X0353Y00528D02*
Y00536D01*
X03538*
Y00528*
X0353*
X03428Y00862D02*
Y00878D01*
X03444*
Y00862*
X03428*
X03432Y00866D02*
Y00874D01*
X0344*
Y00866*
X03432*
X03181Y0073D02*
Y00746D01*
X03196*
Y0073*
X03181*
X03185Y00734D02*
Y00742D01*
X03192*
Y00734*
X03185*
X02781Y00719D02*
Y00735D01*
X02797*
Y00719*
X02781*
X02785Y00723D02*
Y00731D01*
X02793*
Y00723*
X02785*
X02692Y00882D02*
Y00898D01*
X02709*
Y00882*
X02692*
X02696Y00886D02*
Y00894D01*
X02704*
Y00886*
X02696*
X03417Y00972D02*
Y00988D01*
X03433*
Y00972*
X03417*
X03421Y00976D02*
Y00984D01*
X03429*
Y00976*
X03421*
X03318Y01062D02*
Y01078D01*
X03334*
Y01062*
X03318*
X03322Y01066D02*
Y01074D01*
X0333*
Y01066*
X03322*
X03484Y00913D02*
Y00929D01*
X035*
Y00913*
X03484*
X03488Y00917D02*
Y00925D01*
X03496*
Y00917*
X03488*
X02961Y01122D02*
Y01138D01*
X02977*
Y01122*
X02961*
X02965Y01126D02*
Y01134D01*
X02974*
Y01126*
X02965*
X02972Y01086D02*
Y01102D01*
X02988*
Y01086*
X02972*
X02976Y0109D02*
Y01098D01*
X02984*
Y0109*
X02976*
X02603Y00836D02*
Y00852D01*
X02619*
Y00836*
X02603*
X02607Y0084D02*
Y00848D01*
X02615*
Y0084*
X02607*
X02681Y00992D02*
Y01008D01*
X02697*
Y00992*
X02681*
X02685Y00996D02*
Y01004D01*
X02693*
Y00996*
X02685*
X02515Y00862D02*
Y00877D01*
X02531*
Y00862*
X02515*
X02519Y00866D02*
Y00874D01*
X02527*
Y00866*
X02519*
X02Y00956D02*
Y00972D01*
X02015*
Y00956*
X02*
X02003Y0096D02*
Y00968D01*
X02011*
Y0096*
X02003*
X02924Y00708D02*
Y00724D01*
X0294*
Y00708*
X02924*
X02928Y00712D02*
Y0072D01*
X02937*
Y00712*
X02928*
X03083Y01267D02*
Y01283D01*
X031*
Y01267*
X03083*
X03088Y01271D02*
Y01279D01*
X03096*
Y01271*
X03088*
X02967Y00355D02*
Y00371D01*
X02983*
Y00355*
X02967*
X02972Y00359D02*
Y00367D01*
X02979*
Y00359*
X02972*
X02764Y00398D02*
Y00414D01*
X02781*
Y00398*
X02764*
X02768Y00402D02*
Y0041D01*
X02776*
Y00402*
X02768*
X03125Y00681D02*
Y00696D01*
X03141*
Y00681*
X03125*
X03129Y00685D02*
Y00692D01*
X03137*
Y00685*
X03129*
X00822Y00039D02*
Y00035D01*
X0083*
Y00039*
X00834*
Y00047*
X0083*
Y00051*
X00822*
Y00047*
X00818*
Y00039*
X00822*
X00824Y00041D02*
Y00039D01*
X00828*
Y00041*
X0083*
Y00045*
X00828*
Y00047*
X00824*
Y00045*
X00822*
Y00041*
X00824*
X02855Y00444D02*
Y0046D01*
X02872*
Y00444*
X02855*
X02859Y00448D02*
Y00456D01*
X02867*
Y00448*
X02859*
X03422Y00788D02*
Y00804D01*
X03437*
Y00788*
X03422*
X03425Y00792D02*
Y008D01*
X03433*
Y00792*
X03425*
X02709Y00701D02*
Y00717D01*
X02724*
Y00701*
X02709*
X02712Y00705D02*
Y00713D01*
X0272*
Y00705*
X02712*
X00885Y00118D02*
X00889Y00125D01*
X00885Y00133*
X00893Y00129*
X00901Y00133*
X00897Y00125*
X00901Y00118*
X00893Y00122*
X00885Y00118*
X00889Y00122D02*
X00891Y00125D01*
X00889Y00129*
X00893Y00127*
X00897Y00129*
X00895Y00125*
X00897Y00122*
X00893Y00124*
X00889Y00122*
X03798Y01716D02*
Y01732D01*
X03814*
Y01716*
X03798*
X03802Y0172D02*
Y01728D01*
X0381*
Y0172*
X03802*
X01113Y00592D02*
Y00607D01*
X01129*
Y00592*
X01113*
X01117Y00596D02*
Y00603D01*
X01125*
Y00596*
X01117*
X01103Y01082D02*
Y01098D01*
X01118*
Y01082*
X01103*
X01107Y01086D02*
Y01094D01*
X01114*
Y01086*
X01107*
X01215Y01107D02*
Y01123D01*
X01231*
Y01107*
X01215*
X01219Y01111D02*
Y01119D01*
X01227*
Y01111*
X01219*
X02314Y00559D02*
Y00574D01*
X0233*
Y00559*
X02314*
X02318Y00562D02*
Y0057D01*
X02326*
Y00562*
X02318*
X02375Y00552D02*
Y00568D01*
X02391*
Y00552*
X02375*
X02379Y00556D02*
Y00564D01*
X02387*
Y00556*
X02379*
X0242Y00538D02*
Y00554D01*
X02436*
Y00538*
X0242*
X02424Y00542D02*
Y0055D01*
X02431*
Y00542*
X02424*
X03521Y02519D02*
Y02535D01*
X03537*
Y02519*
X03521*
X03525Y02523D02*
Y02531D01*
X03533*
Y02523*
X03525*
X02609Y01225D02*
Y01241D01*
X02625*
Y01225*
X02609*
X02613Y01229D02*
Y01237D01*
X02621*
Y01229*
X02613*
X01685Y00836D02*
Y00852D01*
X017*
Y00836*
X01685*
X01688Y0084D02*
Y00848D01*
X01696*
Y0084*
X01688*
X03016Y01642D02*
X0302Y0165D01*
X03016Y01658*
X03024Y01654*
X03032Y01658*
X03028Y0165*
X03032Y01642*
X03024Y01646*
X03016Y01642*
X0302Y01646D02*
X03022Y0165D01*
X0302Y01654*
X03024Y01652*
X03028Y01654*
X03026Y0165*
X03028Y01646*
X03024Y01648*
X0302Y01646*
X03146Y01689D02*
X0315Y01697D01*
X03146Y01705*
X03154Y01701*
X03162Y01705*
X03158Y01697*
X03162Y01689*
X03154Y01693*
X03146Y01689*
X0315Y01693D02*
X03152Y01697D01*
X0315Y01701*
X03154Y017*
X03158Y01701*
X03156Y01697*
X03158Y01693*
X03154Y01695*
X0315Y01693*
X03083Y0165D02*
X03087Y01658D01*
X03083Y01666*
X03091Y01662*
X03099Y01666*
X03095Y01658*
X03099Y0165*
X03091Y01654*
X03083Y0165*
X03087Y01654D02*
X03089Y01658D01*
X03087Y01662*
X03091Y0166*
X03095Y01662*
X03093Y01658*
X03095Y01654*
X03091Y01656*
X03087Y01654*
X03071Y01953D02*
X03075Y01961D01*
X03071Y01969*
X03079Y01965*
X03087Y01969*
X03083Y01961*
X03087Y01953*
X03079Y01957*
X03071Y01953*
X03075Y01957D02*
X03077Y01961D01*
X03075Y01965*
X03079Y01963*
X03083Y01965*
X03081Y01961*
X03083Y01957*
X03079Y01959*
X03075Y01957*
X03146Y01918D02*
X0315Y01925D01*
X03146Y01934*
X03154Y0193*
X03162Y01934*
X03158Y01925*
X03162Y01918*
X03154Y01922*
X03146Y01918*
X0315Y01922D02*
X03152Y01925D01*
X0315Y0193*
X03154Y01928*
X03158Y0193*
X03156Y01925*
X03158Y01922*
X03154Y01924*
X0315Y01922*
X03158Y01847D02*
X03162Y01855D01*
X03158Y01863*
X03166Y01859*
X03174Y01863*
X0317Y01855*
X03174Y01847*
X03166Y01851*
X03158Y01847*
X03162Y01851D02*
X03164Y01855D01*
X03162Y01859*
X03166Y01857*
X0317Y01859*
X03168Y01855*
X0317Y01851*
X03166Y01853*
X03162Y01851*
X03158Y01768D02*
X03162Y01776D01*
X03158Y01784*
X03166Y0178*
X03174Y01784*
X0317Y01776*
X03174Y01768*
X03166Y01772*
X03158Y01768*
X03162Y01772D02*
X03164Y01776D01*
X03162Y0178*
X03166Y01778*
X0317Y0178*
X03168Y01776*
X0317Y01772*
X03166Y01774*
X03162Y01772*
X03826Y00814D02*
Y0083D01*
X03842*
Y00814*
X03826*
X0383Y00818D02*
Y00826D01*
X03838*
Y00818*
X0383*
X03078Y00712D02*
Y00728D01*
X03094*
Y00712*
X03078*
X03082Y00716D02*
Y00724D01*
X0309*
Y00716*
X03082*
X02503Y01653D02*
Y01669D01*
X02519*
Y01653*
X02503*
X02507Y01657D02*
Y01665D01*
X02515*
Y01657*
X02507*
X02428Y01883D02*
Y01899D01*
X02444*
Y01883*
X02428*
X02432Y01887D02*
Y01895D01*
X0244*
Y01887*
X02432*
X01901Y01779D02*
Y01795D01*
X01917*
Y01779*
X01901*
X01905Y01783D02*
Y01791D01*
X01912*
Y01783*
X01905*
X00602Y00031D02*
X00606Y00039D01*
X00602Y00047*
X0061Y00043*
X00618Y00047*
X00614Y00039*
X00618Y00031*
X0061Y00035*
X00602Y00031*
X00606Y00035D02*
X00608Y00039D01*
X00606Y00043*
X0061Y00041*
X00614Y00043*
X00612Y00039*
X00614Y00035*
X0061Y00037*
X00606Y00035*
X00039Y00244D02*
X00043Y00251D01*
X00039Y00259*
X00047Y00255*
X00055Y00259*
X00051Y00251*
X00055Y00244*
X00047Y00248*
X00039Y00244*
X00043Y00248D02*
X00045Y00251D01*
X00043Y00255*
X00047Y00253*
X00051Y00255*
X00049Y00251*
X00051Y00248*
X00047Y0025*
X00043Y00248*
X01698Y01761D02*
Y01777D01*
X01714*
Y01761*
X01698*
X01702Y01765D02*
Y01773D01*
X0171*
Y01765*
X01702*
X01659Y01732D02*
Y01748D01*
X01675*
Y01732*
X01659*
X01663Y01736D02*
Y01744D01*
X01671*
Y01736*
X01663*
X017Y0157D02*
Y01586D01*
X01716*
Y0157*
X017*
X01704Y01574D02*
Y01582D01*
X01712*
Y01574*
X01704*
X01716Y01885D02*
Y01901D01*
X01732*
Y01885*
X01716*
X0172Y01889D02*
Y01897D01*
X01728*
Y01889*
X0172*
X01622Y01547D02*
Y01562D01*
X01637*
Y01547*
X01622*
X01625Y01551D02*
Y01559D01*
X01633*
Y01551*
X01625*
X01673Y01496D02*
Y01511D01*
X01688*
Y01496*
X01673*
X01677Y015D02*
Y01507D01*
X01685*
Y015*
X01677*
X01622Y0103D02*
Y01046D01*
X01638*
Y0103*
X01622*
X01626Y01034D02*
Y01042D01*
X01634*
Y01034*
X01626*
X01637Y01496D02*
Y01511D01*
X01653*
Y01496*
X01637*
X01641Y015D02*
Y01507D01*
X01649*
Y015*
X01641*
X01714Y01362D02*
Y01378D01*
X0173*
Y01362*
X01714*
X01718Y01366D02*
Y01374D01*
X01726*
Y01366*
X01718*
X0257Y0122D02*
Y01236D01*
X02586*
Y0122*
X0257*
X02574Y01224D02*
Y01232D01*
X02582*
Y01224*
X02574*
X01993Y00866D02*
Y00881D01*
X02009*
Y00866*
X01993*
X01997Y0087D02*
Y00877D01*
X02005*
Y0087*
X01997*
X01994Y00893D02*
Y00909D01*
X0201*
Y00893*
X01994*
X01998Y00897D02*
Y00905D01*
X02006*
Y00897*
X01998*
X01995Y00921D02*
Y00937D01*
X02011*
Y00921*
X01995*
X01999Y00925D02*
Y00933D01*
X02007*
Y00925*
X01999*
X02988Y00683D02*
Y00698D01*
X03003*
Y00683*
X02988*
X02992Y00687D02*
Y00694D01*
X03*
Y00687*
X02992*
X02401Y00409D02*
Y00425D01*
X02417*
Y00409*
X02401*
X02405Y00413D02*
Y00421D01*
X02413*
Y00413*
X02405*
X01287Y01356D02*
Y01372D01*
X01303*
Y01356*
X01287*
X01291Y0136D02*
Y01368D01*
X01299*
Y0136*
X01291*
X01255Y01381D02*
Y01397D01*
X01271*
Y01381*
X01255*
X01259Y01385D02*
Y01393D01*
X01267*
Y01385*
X01259*
X01578Y01338D02*
Y01354D01*
X01594*
Y01338*
X01578*
X01582Y01342D02*
Y0135D01*
X0159*
Y01342*
X01582*
X01318Y01456D02*
Y01472D01*
X01334*
Y01456*
X01318*
X01322Y0146D02*
Y01468D01*
X0133*
Y0146*
X01322*
X01165Y02003D02*
Y02019D01*
X01181*
Y02003*
X01165*
X01169Y02007D02*
Y02015D01*
X01177*
Y02007*
X01169*
X01165Y01342D02*
Y01358D01*
X01181*
Y01342*
X01165*
X01169Y01346D02*
Y01354D01*
X01177*
Y01346*
X01169*
X01685Y02637D02*
Y02653D01*
X017*
Y02637*
X01685*
X01688Y02641D02*
Y02649D01*
X01696*
Y02641*
X01688*
X03586Y01092D02*
Y01108D01*
X03602*
Y01092*
X03586*
X0359Y01096D02*
Y01104D01*
X03598*
Y01096*
X0359*
X02879Y02177D02*
Y02192D01*
X02895*
Y02177*
X02879*
X02883Y02181D02*
Y02188D01*
X02891*
Y02181*
X02883*
X03618Y01137D02*
Y01153D01*
X03633*
Y01137*
X03618*
X03622Y01141D02*
Y01149D01*
X03629*
Y01141*
X03622*
X03669Y01092D02*
Y01108D01*
X03685*
Y01092*
X03669*
X03673Y01096D02*
Y01104D01*
X03681*
Y01096*
X03673*
X00885Y015D02*
Y01515D01*
X00901*
Y015*
X00885*
X00889Y01503D02*
Y01511D01*
X00897*
Y01503*
X00889*
X01248Y01244D02*
Y01259D01*
X01263*
Y01244*
X01248*
X01251Y01248D02*
Y01255D01*
X01259*
Y01248*
X01251*
X01311Y01307D02*
Y01322D01*
X01326*
Y01307*
X01311*
X01314Y01311D02*
Y01318D01*
X01322*
Y01311*
X01314*
X02405Y00358D02*
Y00374D01*
X02421*
Y00358*
X02405*
X02409Y00362D02*
Y0037D01*
X02417*
Y00362*
X02409*
X02677Y01094D02*
Y0111D01*
X02692*
Y01094*
X02677*
X02681Y01098D02*
Y01106D01*
X02688*
Y01098*
X02681*
X01358Y00102D02*
Y00118D01*
X01374*
Y00102*
X01358*
X01362Y00106D02*
Y00114D01*
X0137*
Y00106*
X01362*
X01342Y00263D02*
Y00279D01*
X01358*
Y00263*
X01342*
X01346Y00267D02*
Y00275D01*
X01354*
Y00267*
X01346*
X00271Y00917D02*
Y00933D01*
X00287*
Y00917*
X00271*
X00275Y00921D02*
Y00929D01*
X00283*
Y00921*
X00275*
X00311Y00791D02*
Y00807D01*
X00326*
Y00791*
X00311*
X00314Y00795D02*
Y00803D01*
X00322*
Y00795*
X00314*
X01582Y01559D02*
Y01574D01*
X01598*
Y01559*
X01582*
X01586Y01562D02*
Y0157D01*
X01594*
Y01562*
X01586*
X02527Y01153D02*
Y01169D01*
X02543*
Y01153*
X02527*
X02531Y01157D02*
Y01165D01*
X02539*
Y01157*
X02531*
X02275Y01141D02*
Y01157D01*
X02291*
Y01141*
X02275*
X02279Y01145D02*
Y01153D01*
X02287*
Y01145*
X02279*
X03901Y02523D02*
Y02539D01*
X03917*
Y02523*
X03901*
X03905Y02527D02*
Y02535D01*
X03913*
Y02527*
X03905*
X03311Y02657D02*
Y02673D01*
X03326*
Y02657*
X03311*
X03314Y02661D02*
Y02669D01*
X03322*
Y02661*
X03314*
X02885Y02322D02*
Y02338D01*
X02901*
Y02322*
X02885*
X02889Y02326D02*
Y02334D01*
X02897*
Y02326*
X02889*
X02055Y02074D02*
Y0209D01*
X0207*
Y02074*
X02055*
X02059Y02078D02*
Y02086D01*
X02066*
Y02078*
X02059*
X01948Y01779D02*
Y01795D01*
X01964*
Y01779*
X01948*
X01952Y01783D02*
Y01791D01*
X0196*
Y01783*
X01952*
X01574Y01161D02*
Y01177D01*
X0159*
Y01161*
X01574*
X01578Y01165D02*
Y01173D01*
X01586*
Y01165*
X01578*
X01318Y01125D02*
Y01141D01*
X01334*
Y01125*
X01318*
X01322Y01129D02*
Y01137D01*
X0133*
Y01129*
X01322*
X02539Y00539D02*
Y00555D01*
X02555*
Y00539*
X02539*
X02543Y00543D02*
Y00551D01*
X02551*
Y00543*
X02543*
X03318Y02204D02*
Y0222D01*
X03334*
Y02204*
X03318*
X03322Y02208D02*
Y02216D01*
X0333*
Y02208*
X03322*
X02634Y00406D02*
Y00422D01*
X0265*
Y00406*
X02634*
X02638Y0041D02*
Y00418D01*
X02646*
Y0041*
X02638*
X01909Y00625D02*
Y00641D01*
X01925*
Y00625*
X01909*
X01913Y00629D02*
Y00637D01*
X01921*
Y00629*
X01913*
X01696Y00421D02*
Y00437D01*
X01712*
Y00421*
X01696*
X017Y00425D02*
Y00433D01*
X01708*
Y00425*
X017*
X03641Y0174D02*
Y01755D01*
X03657*
Y0174*
X03641*
X03645Y01744D02*
Y01751D01*
X03653*
Y01744*
X03645*
X03732Y01629D02*
Y01645D01*
X03748*
Y01629*
X03732*
X03736Y01633D02*
Y01641D01*
X03744*
Y01633*
X03736*
X03964Y01842D02*
Y01858D01*
X0398*
Y01842*
X03964*
X03968Y01846D02*
Y01854D01*
X03976*
Y01846*
X03968*
X03547Y01933D02*
Y01948D01*
X03562*
Y01933*
X03547*
X03551Y01937D02*
Y01944D01*
X03559*
Y01937*
X03551*
X03736Y02118D02*
Y02133D01*
X03751*
Y02118*
X03736*
X0374Y02122D02*
Y02129D01*
X03748*
Y02122*
X0374*
X03712Y02232D02*
Y02248D01*
X03728*
Y02232*
X03712*
X03716Y02236D02*
Y02244D01*
X03724*
Y02236*
X03716*
X03421Y0233D02*
Y02346D01*
X03437*
Y0233*
X03421*
X03425Y02334D02*
Y02342D01*
X03433*
Y02334*
X03425*
X00925Y02397D02*
Y02413D01*
X0094*
Y02397*
X00925*
X00929Y02401D02*
Y02409D01*
X00937*
Y02401*
X00929*
X01354Y00901D02*
Y00917D01*
X0137*
Y00901*
X01354*
X01358Y00905D02*
Y00913D01*
X01366*
Y00905*
X01358*
X01527Y00767D02*
Y00783D01*
X01543*
Y00767*
X01527*
X01531Y00771D02*
Y00779D01*
X01539*
Y00771*
X01531*
X0144Y00905D02*
Y00921D01*
X01456*
Y00905*
X0144*
X01444Y00909D02*
Y00917D01*
X01452*
Y00909*
X01444*
X03234Y02291D02*
Y02307D01*
X0325*
Y02291*
X03234*
X03238Y02295D02*
Y02303D01*
X03246*
Y02295*
X03238*
X0322Y02496D02*
Y02511D01*
X03236*
Y02496*
X0322*
X03224Y025D02*
Y02507D01*
X03232*
Y025*
X03224*
X01208Y00748D02*
Y00763D01*
X01224*
Y00748*
X01208*
X01212Y00751D02*
Y00759D01*
X0122*
Y00751*
X01212*
X00944Y00035D02*
X00948Y00043D01*
X00944Y00051*
X00952Y00047*
X0096Y00051*
X00956Y00043*
X0096Y00035*
X00952Y00039*
X00944Y00035*
X00948Y00039D02*
X0095Y00043D01*
X00948Y00047*
X00952Y00045*
X00956Y00047*
X00954Y00043*
X00956Y00039*
X00952Y00041*
X00948Y00039*
X0096Y00106D02*
X00964Y00114D01*
X0096Y00122*
X00968Y00118*
X00976Y00122*
X00972Y00114*
X00976Y00106*
X00968Y0011*
X0096Y00106*
X00964Y0011D02*
X00966Y00114D01*
X00964Y00118*
X00968Y00116*
X00972Y00118*
X0097Y00114*
X00972Y0011*
X00968Y00112*
X00964Y0011*
X00933Y00259D02*
X00937Y00267D01*
X00933Y00275*
X0094Y00271*
X00948Y00275*
X00944Y00267*
X00948Y00259*
X0094Y00263*
X00933Y00259*
X00937Y00263D02*
X00938Y00267D01*
X00937Y00271*
X0094Y00269*
X00944Y00271*
X00942Y00267*
X00944Y00263*
X0094Y00265*
X00937Y00263*
X00901Y00196D02*
X00905Y00204D01*
X00901Y00212*
X00909Y00208*
X00917Y00212*
X00913Y00204*
X00917Y00196*
X00909Y002*
X00901Y00196*
X00905Y002D02*
X00907Y00204D01*
X00905Y00208*
X00909Y00206*
X00913Y00208*
X00911Y00204*
X00913Y002*
X00909Y00202*
X00905Y002*
X00877Y00035D02*
X00881Y00043D01*
X00877Y00051*
X00885Y00047*
X00893Y00051*
X00889Y00043*
X00893Y00035*
X00885Y00039*
X00877Y00035*
X00881Y00039D02*
X00883Y00043D01*
X00881Y00047*
X00885Y00045*
X00889Y00047*
X00887Y00043*
X00889Y00039*
X00885Y00041*
X00881Y00039*
X00751Y00031D02*
X00755Y00039D01*
X00751Y00047*
X00759Y00043*
X00767Y00047*
X00763Y00039*
X00767Y00031*
X00759Y00035*
X00751Y00031*
X00755Y00035D02*
X00757Y00039D01*
X00755Y00043*
X00759Y00041*
X00763Y00043*
X00761Y00039*
X00763Y00035*
X00759Y00037*
X00755Y00035*
X00173Y00346D02*
X00177Y00354D01*
X00173Y00362*
X00181Y00358*
X00188Y00362*
X00185Y00354*
X00188Y00346*
X00181Y0035*
X00173Y00346*
X00177Y0035D02*
X00179Y00354D01*
X00177Y00358*
X00181Y00356*
X00185Y00358*
X00183Y00354*
X00185Y0035*
X00181Y00352*
X00177Y0035*
X00181Y00279D02*
X00185Y00287D01*
X00181Y00295*
X00188Y00291*
X00196Y00295*
X00192Y00287*
X00196Y00279*
X00188Y00283*
X00181Y00279*
X00185Y00283D02*
X00187Y00287D01*
X00185Y00291*
X00188Y00289*
X00192Y00291*
X0019Y00287*
X00192Y00283*
X00188Y00285*
X00185Y00283*
X00177Y00212D02*
X00181Y0022D01*
X00177Y00228*
X00185Y00224*
X00192Y00228*
X00188Y0022*
X00192Y00212*
X00185Y00216*
X00177Y00212*
X00181Y00216D02*
X00183Y0022D01*
X00181Y00224*
X00185Y00222*
X00188Y00224*
X00187Y0022*
X00188Y00216*
X00185Y00218*
X00181Y00216*
X00169Y00145D02*
X00173Y00153D01*
X00169Y00161*
X00177Y00157*
X00185Y00161*
X00181Y00153*
X00185Y00145*
X00177Y00149*
X00169Y00145*
X00173Y00149D02*
X00175Y00153D01*
X00173Y00157*
X00177Y00155*
X00181Y00157*
X00179Y00153*
X00181Y00149*
X00177Y00151*
X00173Y00149*
X00165Y00086D02*
X00169Y00094D01*
X00165Y00102*
X00173Y00098*
X00181Y00102*
X00177Y00094*
X00181Y00086*
X00173Y0009*
X00165Y00086*
X00169Y0009D02*
X00171Y00094D01*
X00169Y00098*
X00173Y00096*
X00177Y00098*
X00175Y00094*
X00177Y0009*
X00173Y00092*
X00169Y0009*
X00232Y00023D02*
X00236Y00031D01*
X00232Y00039*
X0024Y00035*
X00248Y00039*
X00244Y00031*
X00248Y00023*
X0024Y00027*
X00232Y00023*
X00236Y00027D02*
X00238Y00031D01*
X00236Y00035*
X0024Y00033*
X00244Y00035*
X00242Y00031*
X00244Y00027*
X0024Y00029*
X00236Y00027*
X00303Y00031D02*
X00307Y00039D01*
X00303Y00047*
X00311Y00043*
X00318Y00047*
X00314Y00039*
X00318Y00031*
X00311Y00035*
X00303Y00031*
X00307Y00035D02*
X00309Y00039D01*
X00307Y00043*
X00311Y00041*
X00314Y00043*
X00312Y00039*
X00314Y00035*
X00311Y00037*
X00307Y00035*
X00374Y0011D02*
X00377Y00118D01*
X00374Y00125*
X00381Y00122*
X00389Y00125*
X00385Y00118*
X00389Y0011*
X00381Y00114*
X00374Y0011*
X00377Y00114D02*
X00379Y00118D01*
X00377Y00122*
X00381Y0012*
X00385Y00122*
X00383Y00118*
X00385Y00114*
X00381Y00116*
X00377Y00114*
X0037Y00027D02*
X00374Y00035D01*
X0037Y00043*
X00377Y00039*
X00385Y00043*
X00381Y00035*
X00385Y00027*
X00377Y00031*
X0037Y00027*
X00374Y00031D02*
X00375Y00035D01*
X00374Y00039*
X00377Y00037*
X00381Y00039*
X00379Y00035*
X00381Y00031*
X00377Y00033*
X00374Y00031*
X00456Y00027D02*
X0046Y00035D01*
X00456Y00043*
X00464Y00039*
X00472Y00043*
X00468Y00035*
X00472Y00027*
X00464Y00031*
X00456Y00027*
X0046Y00031D02*
X00462Y00035D01*
X0046Y00039*
X00464Y00037*
X00468Y00039*
X00466Y00035*
X00468Y00031*
X00464Y00033*
X0046Y00031*
X00535D02*
X00539Y00039D01*
X00535Y00047*
X00543Y00043*
X00551Y00047*
X00547Y00039*
X00551Y00031*
X00543Y00035*
X00535Y00031*
X00539Y00035D02*
X00541Y00039D01*
X00539Y00043*
X00543Y00041*
X00547Y00043*
X00545Y00039*
X00547Y00035*
X00543Y00037*
X00539Y00035*
X00673D02*
X00677Y00043D01*
X00673Y00051*
X00681Y00047*
X00688Y00051*
X00685Y00043*
X00688Y00035*
X00681Y00039*
X00673Y00035*
X00677Y00039D02*
X00679Y00043D01*
X00677Y00047*
X00681Y00045*
X00685Y00047*
X00683Y00043*
X00685Y00039*
X00681Y00041*
X00677Y00039*
X00035Y00173D02*
X00039Y00181D01*
X00035Y00188*
X00043Y00185*
X00051Y00188*
X00047Y00181*
X00051Y00173*
X00043Y00177*
X00035Y00173*
X00039Y00177D02*
X00041Y00181D01*
X00039Y00185*
X00043Y00183*
X00047Y00185*
X00045Y00181*
X00047Y00177*
X00043Y00179*
X00039Y00177*
X00043Y00318D02*
X00047Y00326D01*
X00043Y00334*
X00051Y0033*
X00059Y00334*
X00055Y00326*
X00059Y00318*
X00051Y00322*
X00043Y00318*
X00047Y00322D02*
X00049Y00326D01*
X00047Y0033*
X00051Y00328*
X00055Y0033*
X00053Y00326*
X00055Y00322*
X00051Y00324*
X00047Y00322*
Y00393D02*
X00051Y00401D01*
X00047Y00409*
X00055Y00405*
X00062Y00409*
X00059Y00401*
X00062Y00393*
X00055Y00397*
X00047Y00393*
X00051Y00397D02*
X00053Y00401D01*
X00051Y00405*
X00055Y00403*
X00059Y00405*
X00057Y00401*
X00059Y00397*
X00055Y00399*
X00051Y00397*
X00448Y00433D02*
X00452Y0044D01*
X00448Y00448*
X00456Y00444*
X00464Y00448*
X0046Y0044*
X00464Y00433*
X00456Y00437*
X00448Y00433*
X00452Y00437D02*
X00454Y0044D01*
X00452Y00444*
X00456Y00442*
X0046Y00444*
X00458Y0044*
X0046Y00437*
X00456Y00438*
X00452Y00437*
X00377Y00374D02*
X00381Y00381D01*
X00377Y00389*
X00385Y00385*
X00393Y00389*
X00389Y00381*
X00393Y00374*
X00385Y00377*
X00377Y00374*
X00381Y00377D02*
X00383Y00381D01*
X00381Y00385*
X00385Y00383*
X00389Y00385*
X00387Y00381*
X00389Y00377*
X00385Y00379*
X00381Y00377*
X00374Y00429D02*
X00377Y00437D01*
X00374Y00444*
X00381Y0044*
X00389Y00444*
X00385Y00437*
X00389Y00429*
X00381Y00433*
X00374Y00429*
X00377Y00433D02*
X00379Y00437D01*
X00377Y0044*
X00381Y00438*
X00385Y0044*
X00383Y00437*
X00385Y00433*
X00381Y00435*
X00377Y00433*
X00106Y00173D02*
X0011Y00181D01*
X00106Y00188*
X00114Y00185*
X00122Y00188*
X00118Y00181*
X00122Y00173*
X00114Y00177*
X00106Y00173*
X0011Y00177D02*
X00112Y00181D01*
X0011Y00185*
X00114Y00183*
X00118Y00185*
X00116Y00181*
X00118Y00177*
X00114Y00179*
X0011Y00177*
X00106Y00244D02*
X0011Y00251D01*
X00106Y00259*
X00114Y00255*
X00122Y00259*
X00118Y00251*
X00122Y00244*
X00114Y00248*
X00106Y00244*
X0011Y00248D02*
X00112Y00251D01*
X0011Y00255*
X00114Y00253*
X00118Y00255*
X00116Y00251*
X00118Y00248*
X00114Y0025*
X0011Y00248*
X00106Y00322D02*
X0011Y0033D01*
X00106Y00338*
X00114Y00334*
X00122Y00338*
X00118Y0033*
X00122Y00322*
X00114Y00326*
X00106Y00322*
X0011Y00326D02*
X00112Y0033D01*
X0011Y00334*
X00114Y00332*
X00118Y00334*
X00116Y0033*
X00118Y00326*
X00114Y00328*
X0011Y00326*
X00114Y00397D02*
X00118Y00405D01*
X00114Y00413*
X00122Y00409*
X00129Y00413*
X00125Y00405*
X00129Y00397*
X00122Y00401*
X00114Y00397*
X00118Y00401D02*
X0012Y00405D01*
X00118Y00409*
X00122Y00407*
X00125Y00409*
X00124Y00405*
X00125Y00401*
X00122Y00403*
X00118Y00401*
X00303Y0044D02*
X00307Y00448D01*
X00303Y00456*
X00311Y00452*
X00318Y00456*
X00314Y00448*
X00318Y0044*
X00311Y00444*
X00303Y0044*
X00307Y00444D02*
X00309Y00448D01*
X00307Y00452*
X00311Y0045*
X00314Y00452*
X00312Y00448*
X00314Y00444*
X00311Y00446*
X00307Y00444*
X00917Y00598D02*
X00921Y00606D01*
X00917Y00614*
X00925Y0061*
X00933Y00614*
X00929Y00606*
X00933Y00598*
X00925Y00602*
X00917Y00598*
X00921Y00602D02*
X00923Y00606D01*
X00921Y0061*
X00925Y00608*
X00929Y0061*
X00927Y00606*
X00929Y00602*
X00925Y00604*
X00921Y00602*
Y00523D02*
X00925Y00531D01*
X00921Y00539*
X00929Y00535*
X00937Y00539*
X00933Y00531*
X00937Y00523*
X00929Y00527*
X00921Y00523*
X00925Y00527D02*
X00927Y00531D01*
X00925Y00535*
X00929Y00533*
X00933Y00535*
X00931Y00531*
X00933Y00527*
X00929Y00529*
X00925Y00527*
X00893Y00452D02*
X00897Y0046D01*
X00893Y00468*
X00901Y00464*
X00909Y00468*
X00905Y0046*
X00909Y00452*
X00901Y00456*
X00893Y00452*
X00897Y00456D02*
X00899Y0046D01*
X00897Y00464*
X00901Y00462*
X00905Y00464*
X00903Y0046*
X00905Y00456*
X00901Y00458*
X00897Y00456*
X00937Y00401D02*
X0094Y00409D01*
X00937Y00417*
X00944Y00413*
X00952Y00417*
X00948Y00409*
X00952Y00401*
X00944Y00405*
X00937Y00401*
X0094Y00405D02*
X00942Y00409D01*
X0094Y00413*
X00944Y00411*
X00948Y00413*
X00946Y00409*
X00948Y00405*
X00944Y00407*
X0094Y00405*
X00807Y00094D02*
X00811Y00102D01*
X00807Y0011*
X00814Y00106*
X00822Y0011*
X00818Y00102*
X00822Y00094*
X00814Y00098*
X00807Y00094*
X00811Y00098D02*
X00812Y00102D01*
X00811Y00106*
X00814Y00104*
X00818Y00106*
X00816Y00102*
X00818Y00098*
X00814Y001*
X00811Y00098*
X00732Y00114D02*
X00736Y00122D01*
X00732Y00129*
X0074Y00125*
X00748Y00129*
X00744Y00122*
X00748Y00114*
X0074Y00118*
X00732Y00114*
X00736Y00118D02*
X00738Y00122D01*
X00736Y00125*
X0074Y00124*
X00744Y00125*
X00742Y00122*
X00744Y00118*
X0074Y0012*
X00736Y00118*
X00795Y00161D02*
X00799Y00169D01*
X00795Y00177*
X00803Y00173*
X00811Y00177*
X00807Y00169*
X00811Y00161*
X00803Y00165*
X00795Y00161*
X00799Y00165D02*
X00801Y00169D01*
X00799Y00173*
X00803Y00171*
X00807Y00173*
X00805Y00169*
X00807Y00165*
X00803Y00167*
X00799Y00165*
X00736Y00196D02*
X0074Y00204D01*
X00736Y00212*
X00744Y00208*
X00751Y00212*
X00748Y00204*
X00751Y00196*
X00744Y002*
X00736Y00196*
X0074Y002D02*
X00742Y00204D01*
X0074Y00208*
X00744Y00206*
X00748Y00208*
X00746Y00204*
X00748Y002*
X00744Y00202*
X0074Y002*
X00818Y00228D02*
X00822Y00236D01*
X00818Y00244*
X00826Y0024*
X00834Y00244*
X0083Y00236*
X00834Y00228*
X00826Y00232*
X00818Y00228*
X00822Y00232D02*
X00824Y00236D01*
X00822Y0024*
X00826Y00238*
X0083Y0024*
X00828Y00236*
X0083Y00232*
X00826Y00234*
X00822Y00232*
X00767Y00271D02*
X00771Y00279D01*
X00767Y00287*
X00775Y00283*
X00783Y00287*
X00779Y00279*
X00783Y00271*
X00775Y00275*
X00767Y00271*
X00771Y00275D02*
X00773Y00279D01*
X00771Y00283*
X00775Y00281*
X00779Y00283*
X00777Y00279*
X00779Y00275*
X00775Y00277*
X00771Y00275*
X0085Y00291D02*
X00854Y00299D01*
X0085Y00307*
X00858Y00303*
X00866Y00307*
X00862Y00299*
X00866Y00291*
X00858Y00295*
X0085Y00291*
X00854Y00295D02*
X00856Y00299D01*
X00854Y00303*
X00858Y00301*
X00862Y00303*
X0086Y00299*
X00862Y00295*
X00858Y00297*
X00854Y00295*
X00905Y00334D02*
X00909Y00342D01*
X00905Y0035*
X00913Y00346*
X00921Y0035*
X00917Y00342*
X00921Y00334*
X00913Y00338*
X00905Y00334*
X00909Y00338D02*
X00911Y00342D01*
X00909Y00346*
X00913Y00344*
X00917Y00346*
X00915Y00342*
X00917Y00338*
X00913Y0034*
X00909Y00338*
X00854Y00393D02*
X00858Y00401D01*
X00854Y00409*
X00862Y00405*
X0087Y00409*
X00866Y00401*
X0087Y00393*
X00862Y00397*
X00854Y00393*
X00858Y00397D02*
X0086Y00401D01*
X00858Y00405*
X00862Y00403*
X00866Y00405*
X00864Y00401*
X00866Y00397*
X00862Y00399*
X00858Y00397*
X00803Y00334D02*
X00807Y00342D01*
X00803Y0035*
X00811Y00346*
X00818Y0035*
X00814Y00342*
X00818Y00334*
X00811Y00338*
X00803Y00334*
X00807Y00338D02*
X00809Y00342D01*
X00807Y00346*
X00811Y00344*
X00814Y00346*
X00812Y00342*
X00814Y00338*
X00811Y0034*
X00807Y00338*
X0072Y00318D02*
X00724Y00326D01*
X0072Y00334*
X00728Y0033*
X00736Y00334*
X00732Y00326*
X00736Y00318*
X00728Y00322*
X0072Y00318*
X00724Y00322D02*
X00726Y00326D01*
X00724Y0033*
X00728Y00328*
X00732Y0033*
X0073Y00326*
X00732Y00322*
X00728Y00324*
X00724Y00322*
X00669Y00259D02*
X00673Y00267D01*
X00669Y00275*
X00677Y00271*
X00685Y00275*
X00681Y00267*
X00685Y00259*
X00677Y00263*
X00669Y00259*
X00673Y00263D02*
X00675Y00267D01*
X00673Y00271*
X00677Y00269*
X00681Y00271*
X00679Y00267*
X00681Y00263*
X00677Y00265*
X00673Y00263*
X00661Y00185D02*
X00665Y00192D01*
X00661Y002*
X00669Y00196*
X00677Y002*
X00673Y00192*
X00677Y00185*
X00669Y00188*
X00661Y00185*
X00665Y00188D02*
X00667Y00192D01*
X00665Y00196*
X00669Y00194*
X00673Y00196*
X00671Y00192*
X00673Y00188*
X00669Y0019*
X00665Y00188*
X00657Y00106D02*
X00661Y00114D01*
X00657Y00122*
X00665Y00118*
X00673Y00122*
X00669Y00114*
X00673Y00106*
X00665Y0011*
X00657Y00106*
X00661Y0011D02*
X00663Y00114D01*
X00661Y00118*
X00665Y00116*
X00669Y00118*
X00667Y00114*
X00669Y0011*
X00665Y00112*
X00661Y0011*
X00594Y00106D02*
X00598Y00114D01*
X00594Y00122*
X00602Y00118*
X0061Y00122*
X00606Y00114*
X0061Y00106*
X00602Y0011*
X00594Y00106*
X00598Y0011D02*
X006Y00114D01*
X00598Y00118*
X00602Y00116*
X00606Y00118*
X00604Y00114*
X00606Y0011*
X00602Y00112*
X00598Y0011*
X00594Y00177D02*
X00598Y00185D01*
X00594Y00192*
X00602Y00188*
X0061Y00192*
X00606Y00185*
X0061Y00177*
X00602Y00181*
X00594Y00177*
X00598Y00181D02*
X006Y00185D01*
X00598Y00188*
X00602Y00187*
X00606Y00188*
X00604Y00185*
X00606Y00181*
X00602Y00183*
X00598Y00181*
X00602Y00255D02*
X00606Y00263D01*
X00602Y00271*
X0061Y00267*
X00618Y00271*
X00614Y00263*
X00618Y00255*
X0061Y00259*
X00602Y00255*
X00606Y00259D02*
X00608Y00263D01*
X00606Y00267*
X0061Y00265*
X00614Y00267*
X00612Y00263*
X00614Y00259*
X0061Y00261*
X00606Y00259*
X00622Y0033D02*
X00625Y00338D01*
X00622Y00346*
X00629Y00342*
X00637Y00346*
X00633Y00338*
X00637Y0033*
X00629Y00334*
X00622Y0033*
X00625Y00334D02*
X00627Y00338D01*
X00625Y00342*
X00629Y0034*
X00633Y00342*
X00631Y00338*
X00633Y00334*
X00629Y00336*
X00625Y00334*
X00677Y0037D02*
X00681Y00377D01*
X00677Y00385*
X00685Y00381*
X00692Y00385*
X00688Y00377*
X00692Y0037*
X00685Y00374*
X00677Y0037*
X00681Y00374D02*
X00683Y00377D01*
X00681Y00381*
X00685Y00379*
X00688Y00381*
X00687Y00377*
X00688Y00374*
X00685Y00375*
X00681Y00374*
X00744Y00385D02*
X00748Y00393D01*
X00744Y00401*
X00751Y00397*
X00759Y00401*
X00755Y00393*
X00759Y00385*
X00751Y00389*
X00744Y00385*
X00748Y00389D02*
X0075Y00393D01*
X00748Y00397*
X00751Y00395*
X00755Y00397*
X00753Y00393*
X00755Y00389*
X00751Y00391*
X00748Y00389*
X00799Y00429D02*
X00803Y00437D01*
X00799Y00444*
X00807Y0044*
X00814Y00444*
X00811Y00437*
X00814Y00429*
X00807Y00433*
X00799Y00429*
X00803Y00433D02*
X00805Y00437D01*
X00803Y0044*
X00807Y00438*
X00811Y0044*
X00809Y00437*
X00811Y00433*
X00807Y00435*
X00803Y00433*
X0083Y00492D02*
X00834Y005D01*
X0083Y00507*
X00838Y00503*
X00846Y00507*
X00842Y005*
X00846Y00492*
X00838Y00496*
X0083Y00492*
X00834Y00496D02*
X00836Y005D01*
X00834Y00503*
X00838Y00501*
X00842Y00503*
X0084Y005*
X00842Y00496*
X00838Y00498*
X00834Y00496*
X00838Y00559D02*
X00842Y00566D01*
X00838Y00574*
X00846Y0057*
X00854Y00574*
X0085Y00566*
X00854Y00559*
X00846Y00562*
X00838Y00559*
X00842Y00562D02*
X00844Y00566D01*
X00842Y0057*
X00846Y00568*
X0085Y0057*
X00848Y00566*
X0085Y00562*
X00846Y00564*
X00842Y00562*
X00515Y00429D02*
X00519Y00437D01*
X00515Y00444*
X00523Y0044*
X00531Y00444*
X00527Y00437*
X00531Y00429*
X00523Y00433*
X00515Y00429*
X00519Y00433D02*
X00521Y00437D01*
X00519Y0044*
X00523Y00438*
X00527Y0044*
X00525Y00437*
X00527Y00433*
X00523Y00435*
X00519Y00433*
X00578D02*
X00582Y0044D01*
X00578Y00448*
X00586Y00444*
X00594Y00448*
X0059Y0044*
X00594Y00433*
X00586Y00437*
X00578Y00433*
X00582Y00437D02*
X00584Y0044D01*
X00582Y00444*
X00586Y00442*
X0059Y00444*
X00588Y0044*
X0059Y00437*
X00586Y00438*
X00582Y00437*
X00641Y0046D02*
X00645Y00468D01*
X00641Y00476*
X00649Y00472*
X00657Y00476*
X00653Y00468*
X00657Y0046*
X00649Y00464*
X00641Y0046*
X00645Y00464D02*
X00647Y00468D01*
X00645Y00472*
X00649Y0047*
X00653Y00472*
X00651Y00468*
X00653Y00464*
X00649Y00466*
X00645Y00464*
X00712Y00484D02*
X00716Y00492D01*
X00712Y005*
X0072Y00496*
X00728Y005*
X00724Y00492*
X00728Y00484*
X0072Y00488*
X00712Y00484*
X00716Y00488D02*
X00718Y00492D01*
X00716Y00496*
X0072Y00494*
X00724Y00496*
X00722Y00492*
X00724Y00488*
X0072Y0049*
X00716Y00488*
X00421Y01468D02*
Y01484D01*
X00437*
Y01468*
X00421*
X00425Y01472D02*
Y0148D01*
X00433*
Y01472*
X00425*
X00574Y01267D02*
Y01283D01*
X0059*
Y01267*
X00574*
X00578Y01271D02*
Y01279D01*
X00586*
Y01271*
X00578*
X00637Y01279D02*
Y01295D01*
X00653*
Y01279*
X00637*
X00641Y01283D02*
Y01291D01*
X00649*
Y01283*
X00641*
X00669Y01311D02*
Y01326D01*
X00685*
Y01311*
X00669*
X00673Y01314D02*
Y01322D01*
X00681*
Y01314*
X00673*
X00602Y01311D02*
Y01326D01*
X00618*
Y01311*
X00602*
X00606Y01314D02*
Y01322D01*
X00614*
Y01314*
X00606*
X00511D02*
Y0133D01*
X00527*
Y01314*
X00511*
X00515Y01318D02*
Y01326D01*
X00523*
Y01318*
X00515*
X00425Y01429D02*
Y01444D01*
X0044*
Y01429*
X00425*
X00429Y01433D02*
Y0144D01*
X00437*
Y01433*
X00429*
X00874Y01377D02*
Y01393D01*
X00889*
Y01377*
X00874*
X00877Y01381D02*
Y01389D01*
X00885*
Y01381*
X00877*
X00854Y01295D02*
Y01311D01*
X0087*
Y01295*
X00854*
X00858Y01299D02*
Y01307D01*
X00866*
Y01299*
X00858*
X00854Y01232D02*
Y01248D01*
X0087*
Y01232*
X00854*
X00858Y01236D02*
Y01244D01*
X00866*
Y01236*
X00858*
X0048Y01196D02*
Y01212D01*
X00496*
Y01196*
X0048*
X00484Y012D02*
Y01208D01*
X00492*
Y012*
X00484*
X00287Y01295D02*
Y01311D01*
X00303*
Y01295*
X00287*
X00291Y01299D02*
Y01307D01*
X00299*
Y01299*
X00291*
X00468Y01303D02*
Y01318D01*
X00484*
Y01303*
X00468*
X00472Y01307D02*
Y01314D01*
X0048*
Y01307*
X00472*
X00287Y01228D02*
Y01244D01*
X00303*
Y01228*
X00287*
X00291Y01232D02*
Y0124D01*
X00299*
Y01232*
X00291*
X02885Y02405D02*
Y02421D01*
X02901*
Y02405*
X02885*
X02889Y02409D02*
Y02417D01*
X02897*
Y02409*
X02889*
X00547Y00494D02*
Y00509D01*
X00562*
Y00494*
X00547*
X00551Y00498D02*
Y00505D01*
X00559*
Y00498*
X00551*
X00366Y00748D02*
Y00763D01*
X00381*
Y00748*
X00366*
X0037Y00751D02*
Y00759D01*
X00377*
Y00751*
X0037*
X0224Y01177D02*
Y01192D01*
X02255*
Y01177*
X0224*
X02244Y01181D02*
Y01188D01*
X02251*
Y01181*
X02244*
X03531Y02606D02*
Y02622D01*
X03547*
Y02606*
X03531*
X03535Y0261D02*
Y02618D01*
X03543*
Y0261*
X03535*
X01803Y01688D02*
Y01704D01*
X01818*
Y01688*
X01803*
X01807Y01692D02*
Y017D01*
X01814*
Y01692*
X01807*
X01409Y01283D02*
Y01299D01*
X01425*
Y01283*
X01409*
X01413Y01287D02*
Y01295D01*
X01421*
Y01287*
X01413*
X03984Y02019D02*
Y02035D01*
X04*
Y02019*
X03984*
X03988Y02023D02*
Y02031D01*
X03996*
Y02023*
X03988*
X0237Y00649D02*
Y00665D01*
X02385*
Y00649*
X0237*
X02374Y00653D02*
Y00661D01*
X02381*
Y00653*
X02374*
X02486Y00604D02*
Y0062D01*
X02502*
Y00604*
X02486*
X0249Y00608D02*
Y00616D01*
X02498*
Y00608*
X0249*
X02425Y00507D02*
Y00523D01*
X0244*
Y00507*
X02425*
X02429Y00511D02*
Y00519D01*
X02437*
Y00511*
X02429*
X03602Y02393D02*
Y02409D01*
X03618*
Y02393*
X03602*
X03606Y02397D02*
Y02405D01*
X03614*
Y02397*
X03606*
X03555Y0198D02*
Y01996D01*
X0357*
Y0198*
X03555*
X03559Y01984D02*
Y01992D01*
X03566*
Y01984*
X03559*
X03444Y0198D02*
Y01996D01*
X0346*
Y0198*
X03444*
X03448Y01984D02*
Y01992D01*
X03456*
Y01984*
X03448*
X01618Y01122D02*
Y01137D01*
X01633*
Y01122*
X01618*
X01622Y01125D02*
Y01133D01*
X01629*
Y01125*
X01622*
X02275Y00909D02*
Y00925D01*
X02291*
Y00909*
X02275*
X02279Y00913D02*
Y00921D01*
X02287*
Y00913*
X02279*
X01397Y00937D02*
Y00952D01*
X01413*
Y00937*
X01397*
X01401Y0094D02*
Y00948D01*
X01409*
Y0094*
X01401*
X01114Y00807D02*
Y00822D01*
X01129*
Y00807*
X01114*
X01118Y00811D02*
Y00818D01*
X01125*
Y00811*
X01118*
X01074Y00826D02*
Y00842D01*
X0109*
Y00826*
X01074*
X01078Y0083D02*
Y00838D01*
X01086*
Y0083*
X01078*
X03035Y00637D02*
Y00653D01*
X03051*
Y00637*
X03035*
X03039Y00641D02*
Y00649D01*
X03047*
Y00641*
X03039*
X03232Y02657D02*
Y02673D01*
X03248*
Y02657*
X03232*
X03236Y02661D02*
Y02669D01*
X03244*
Y02661*
X03236*
X03312Y02149D02*
Y02165D01*
X03328*
Y02149*
X03312*
X03316Y02153D02*
Y02161D01*
X03324*
Y02153*
X03316*
X03137Y02086D02*
Y02102D01*
X03153*
Y02086*
X03137*
X03141Y0209D02*
Y02098D01*
X03149*
Y0209*
X03141*
X03161Y02125D02*
Y02141D01*
X03177*
Y02125*
X03161*
X03165Y02129D02*
Y02137D01*
X03173*
Y02129*
X03165*
X03062Y00661D02*
Y00677D01*
X03078*
Y00661*
X03062*
X03066Y00665D02*
Y00673D01*
X03074*
Y00665*
X03066*
X00582Y022D02*
Y02216D01*
X00598*
Y022*
X00582*
X00586Y02204D02*
Y02212D01*
X00594*
Y02204*
X00586*
X00889Y01098D02*
Y01114D01*
X00905*
Y01098*
X00889*
X00893Y01102D02*
Y0111D01*
X00901*
Y01102*
X00893*
X02119Y01883D02*
Y01899D01*
X02135*
Y01883*
X02119*
X02123Y01887D02*
Y01895D01*
X02131*
Y01887*
X02123*
X01924Y01883D02*
Y01899D01*
X0194*
Y01883*
X01924*
X01929Y01887D02*
Y01895D01*
X01937*
Y01887*
X01929*
X0335Y02116D02*
Y02132D01*
X03366*
Y02116*
X0335*
X03354Y0212D02*
Y02128D01*
X03362*
Y0212*
X03354*
X03374Y02437D02*
Y02452D01*
X03389*
Y02437*
X03374*
X03377Y0244D02*
Y02448D01*
X03385*
Y0244*
X03377*
X01291Y02038D02*
Y02055D01*
X01307*
Y02038*
X01291*
X01295Y02042D02*
Y02051D01*
X01303*
Y02042*
X01295*
X00444Y02212D02*
Y02228D01*
X0046*
Y02212*
X00444*
X00448Y02216D02*
Y02224D01*
X00456*
Y02216*
X00448*
X00645Y02D02*
Y02015D01*
X00661*
Y02*
X00645*
X00649Y02003D02*
Y02011D01*
X00657*
Y02003*
X00649*
X00055Y01692D02*
Y01708D01*
X0007*
Y01692*
X00055*
X00059Y01696D02*
Y01704D01*
X00066*
Y01696*
X00059*
X00271Y02207D02*
Y02223D01*
X00287*
Y02207*
X00271*
X00275Y02211D02*
Y02219D01*
X00283*
Y02211*
X00275*
X00311Y01488D02*
Y01504D01*
X00326*
Y01488*
X00311*
X00314Y01492D02*
Y015D01*
X00322*
Y01492*
X00314*
X03044Y02098D02*
Y02114D01*
X03061*
Y02098*
X03044*
X03048Y02102D02*
Y0211D01*
X03056*
Y02102*
X03048*
X03097Y02122D02*
Y02138D01*
X03113*
Y02122*
X03097*
X03101Y02126D02*
Y02135D01*
X03109*
Y02126*
X03101*
X03112Y02165D02*
Y02181D01*
X03127*
Y02165*
X03112*
X03116Y02169D02*
Y02177D01*
X03124*
Y02169*
X03116*
X01146Y02477D02*
Y02493D01*
X01162*
Y02477*
X01146*
X0115Y02481D02*
Y02489D01*
X01158*
Y02481*
X0115*
X01773Y00224D02*
Y0024D01*
X01789*
Y00224*
X01773*
X01777Y00228D02*
Y00236D01*
X01785*
Y00228*
X01777*
X0222Y00696D02*
Y00712D01*
X02236*
Y00696*
X0222*
X02224Y007D02*
Y00708D01*
X02232*
Y007*
X02224*
X02196Y00732D02*
Y00748D01*
X02212*
Y00732*
X02196*
X022Y00736D02*
Y00744D01*
X02208*
Y00736*
X022*
X0161Y01299D02*
Y01314D01*
X01625*
Y01299*
X0161*
X01614Y01303D02*
Y01311D01*
X01622*
Y01303*
X01614*
X01733Y01442D02*
Y01458D01*
X01749*
Y01442*
X01733*
X01737Y01446D02*
Y01454D01*
X01745*
Y01446*
X01737*
X01755Y01472D02*
Y01487D01*
X01772*
Y01472*
X01755*
X01759Y01475D02*
Y01483D01*
X01768*
Y01475*
X01759*
X01703Y01405D02*
Y01421D01*
X0172*
Y01405*
X01703*
X01708Y01409D02*
Y01417D01*
X01716*
Y01409*
X01708*
X01368Y01081D02*
Y01097D01*
X01384*
Y01081*
X01368*
X01372Y01085D02*
Y01093D01*
X0138*
Y01085*
X01372*
X00072Y01025D02*
Y01041D01*
X00088*
Y01025*
X00072*
X00076Y01029D02*
Y01037D01*
X00084*
Y01029*
X00076*
X01724Y0201D02*
Y02026D01*
X0174*
Y0201*
X01724*
X01729Y02014D02*
Y02022D01*
X01737*
Y02014*
X01729*
X0158Y01018D02*
Y01035D01*
X01596*
Y01018*
X0158*
X01584Y01022D02*
Y0103D01*
X01592*
Y01022*
X01584*
X02742Y01035D02*
Y01051D01*
X02759*
Y01035*
X02742*
X02746Y01039D02*
Y01047D01*
X02755*
Y01039*
X02746*
X0259Y01019D02*
Y01035D01*
X02606*
Y01019*
X0259*
X02594Y01023D02*
Y01031D01*
X02602*
Y01023*
X02594*
X02483Y00994D02*
Y0101D01*
X02499*
Y00994*
X02483*
X02487Y00998D02*
Y01006D01*
X02495*
Y00998*
X02487*
X02573Y01145D02*
Y01161D01*
X02588*
Y01145*
X02573*
X02577Y01149D02*
Y01157D01*
X02585*
Y01149*
X02577*
X01899Y01906D02*
Y01922D01*
X01915*
Y01906*
X01899*
X01903Y0191D02*
Y01918D01*
X01911*
Y0191*
X01903*
X01715Y01955D02*
Y01972D01*
X01731*
Y01955*
X01715*
X01719Y01959D02*
Y01968D01*
X01727*
Y01959*
X01719*
X01326Y01D02*
Y01016D01*
X01342*
Y01*
X01326*
X0133Y01004D02*
Y01012D01*
X01338*
Y01004*
X0133*
X01893Y01689D02*
Y01705D01*
X01909*
Y01689*
X01893*
X01897Y01693D02*
Y01701D01*
X01905*
Y01693*
X01897*
X02714Y01198D02*
Y01214D01*
X0273*
Y01198*
X02714*
X02718Y01202D02*
Y0121D01*
X02726*
Y01202*
X02718*
X02689Y01275D02*
Y01291D01*
X02705*
Y01275*
X02689*
X02693Y01279D02*
Y01287D01*
X02701*
Y01279*
X02693*
X00709Y0146D02*
Y01476D01*
X00725*
Y0146*
X00709*
X00713Y01464D02*
Y01472D01*
X00721*
Y01464*
X00713*
X00032Y0085D02*
Y00866D01*
X00048*
Y0085*
X00032*
X00036Y00853D02*
Y00862D01*
X00044*
Y00853*
X00036*
X01996Y01565D02*
Y01581D01*
X02012*
Y01565*
X01996*
X02Y01569D02*
Y01577D01*
X02008*
Y01569*
X02*
X02465Y01989D02*
Y02005D01*
X02481*
Y01989*
X02465*
X02469Y01993D02*
Y02001D01*
X02477*
Y01993*
X02469*
X02337Y01989D02*
Y02005D01*
X02353*
Y01989*
X02337*
X02342Y01993D02*
Y02001D01*
X0235*
Y01993*
X02342*
X02187Y01998D02*
Y02013D01*
X02203*
Y01998*
X02187*
X02191Y02001D02*
Y02009D01*
X02199*
Y02001*
X02191*
X02006Y00842D02*
Y00857D01*
X02022*
Y00842*
X02006*
X02011Y00846D02*
Y00853D01*
X02018*
Y00846*
X02011*
X02057Y00711D02*
Y00727D01*
X02072*
Y00711*
X02057*
X02061Y00715D02*
Y00723D01*
X02068*
Y00715*
X02061*
X01193Y01149D02*
Y01165D01*
X01209*
Y01149*
X01193*
X01197Y01153D02*
Y01161D01*
X01205*
Y01153*
X01197*
G54D206*
X03948Y00457D02*
D01*
X03948Y00458*
X03948Y00458*
X03948Y00459*
X03948Y00459*
X03948Y0046*
X03948Y0046*
X03947Y00461*
X03947Y00461*
X03947Y00462*
X03946Y00462*
X03946Y00462*
X03946Y00463*
X03945Y00463*
X03945Y00464*
X03944Y00464*
X03944Y00464*
X03943Y00464*
X03943Y00464*
X03942Y00465*
X03942Y00465*
X03941Y00465*
X03941Y00465*
X0394*
X0394Y00465*
X03939Y00465*
X03939Y00465*
X03938Y00464*
X03937Y00464*
X03937Y00464*
X03937Y00464*
X03936Y00464*
X03936Y00463*
X03935Y00463*
X03935Y00462*
X03934Y00462*
X03934Y00462*
X03934Y00461*
X03933Y00461*
X03933Y0046*
X03933Y0046*
X03933Y00459*
X03933Y00459*
X03933Y00458*
X03933Y00458*
X03933Y00457*
X03933Y00456*
X03933Y00456*
X03933Y00455*
X03933Y00455*
X03933Y00454*
X03933Y00454*
X03933Y00453*
X03934Y00453*
X03934Y00452*
X03934Y00452*
X03935Y00452*
X03935Y00451*
X03936Y00451*
X03936Y0045*
X03937Y0045*
X03937Y0045*
X03937Y0045*
X03938Y00449*
X03939Y00449*
X03939Y00449*
X0394Y00449*
X0394Y00449*
X03941*
X03941Y00449*
X03942Y00449*
X03942Y00449*
X03943Y00449*
X03943Y0045*
X03944Y0045*
X03944Y0045*
X03945Y0045*
X03945Y00451*
X03946Y00451*
X03946Y00452*
X03946Y00452*
X03947Y00452*
X03947Y00453*
X03947Y00453*
X03948Y00454*
X03948Y00454*
X03948Y00455*
X03948Y00455*
X03948Y00456*
X03948Y00456*
X03948Y00457*
X03898D02*
D01*
X03898Y00458*
X03898Y00458*
X03898Y00459*
X03898Y00459*
X03898Y0046*
X03898Y0046*
X03897Y00461*
X03897Y00461*
X03897Y00462*
X03896Y00462*
X03896Y00462*
X03896Y00463*
X03895Y00463*
X03895Y00464*
X03894Y00464*
X03894Y00464*
X03893Y00464*
X03893Y00464*
X03892Y00465*
X03892Y00465*
X03891Y00465*
X03891Y00465*
X0389*
X0389Y00465*
X03889Y00465*
X03889Y00465*
X03888Y00464*
X03887Y00464*
X03887Y00464*
X03887Y00464*
X03886Y00464*
X03886Y00463*
X03885Y00463*
X03885Y00462*
X03884Y00462*
X03884Y00462*
X03884Y00461*
X03883Y00461*
X03883Y0046*
X03883Y0046*
X03883Y00459*
X03883Y00459*
X03883Y00458*
X03883Y00458*
X03883Y00457*
X03883Y00456*
X03883Y00456*
X03883Y00455*
X03883Y00455*
X03883Y00454*
X03883Y00454*
X03883Y00453*
X03884Y00453*
X03884Y00452*
X03884Y00452*
X03885Y00452*
X03885Y00451*
X03886Y00451*
X03886Y0045*
X03887Y0045*
X03887Y0045*
X03887Y0045*
X03888Y00449*
X03889Y00449*
X03889Y00449*
X0389Y00449*
X0389Y00449*
X03891*
X03891Y00449*
X03892Y00449*
X03892Y00449*
X03893Y00449*
X03893Y0045*
X03894Y0045*
X03894Y0045*
X03895Y0045*
X03895Y00451*
X03896Y00451*
X03896Y00452*
X03896Y00452*
X03897Y00452*
X03897Y00453*
X03897Y00453*
X03898Y00454*
X03898Y00454*
X03898Y00455*
X03898Y00455*
X03898Y00456*
X03898Y00456*
X03898Y00457*
X03948Y00507D02*
D01*
X03948Y00508*
X03948Y00508*
X03948Y00509*
X03948Y00509*
X03948Y0051*
X03948Y0051*
X03947Y00511*
X03947Y00511*
X03947Y00512*
X03946Y00512*
X03946Y00512*
X03946Y00513*
X03945Y00513*
X03945Y00514*
X03944Y00514*
X03944Y00514*
X03943Y00514*
X03943Y00514*
X03942Y00515*
X03942Y00515*
X03941Y00515*
X03941Y00515*
X0394*
X0394Y00515*
X03939Y00515*
X03939Y00515*
X03938Y00514*
X03937Y00514*
X03937Y00514*
X03937Y00514*
X03936Y00514*
X03936Y00513*
X03935Y00513*
X03935Y00512*
X03934Y00512*
X03934Y00512*
X03934Y00511*
X03933Y00511*
X03933Y0051*
X03933Y0051*
X03933Y00509*
X03933Y00509*
X03933Y00508*
X03933Y00508*
X03933Y00507*
X03933Y00506*
X03933Y00506*
X03933Y00505*
X03933Y00505*
X03933Y00504*
X03933Y00504*
X03933Y00503*
X03934Y00503*
X03934Y00502*
X03934Y00502*
X03935Y00502*
X03935Y00501*
X03936Y00501*
X03936Y005*
X03937Y005*
X03937Y005*
X03937Y005*
X03938Y00499*
X03939Y00499*
X03939Y00499*
X0394Y00499*
X0394Y00499*
X03941*
X03941Y00499*
X03942Y00499*
X03942Y00499*
X03943Y00499*
X03943Y005*
X03944Y005*
X03944Y005*
X03945Y005*
X03945Y00501*
X03946Y00501*
X03946Y00502*
X03946Y00502*
X03947Y00502*
X03947Y00503*
X03947Y00503*
X03948Y00504*
X03948Y00504*
X03948Y00505*
X03948Y00505*
X03948Y00506*
X03948Y00506*
X03948Y00507*
X03898D02*
D01*
X03898Y00508*
X03898Y00508*
X03898Y00509*
X03898Y00509*
X03898Y0051*
X03898Y0051*
X03897Y00511*
X03897Y00511*
X03897Y00512*
X03896Y00512*
X03896Y00512*
X03896Y00513*
X03895Y00513*
X03895Y00514*
X03894Y00514*
X03894Y00514*
X03893Y00514*
X03893Y00514*
X03892Y00515*
X03892Y00515*
X03891Y00515*
X03891Y00515*
X0389*
X0389Y00515*
X03889Y00515*
X03889Y00515*
X03888Y00514*
X03887Y00514*
X03887Y00514*
X03887Y00514*
X03886Y00514*
X03886Y00513*
X03885Y00513*
X03885Y00512*
X03884Y00512*
X03884Y00512*
X03884Y00511*
X03883Y00511*
X03883Y0051*
X03883Y0051*
X03883Y00509*
X03883Y00509*
X03883Y00508*
X03883Y00508*
X03883Y00507*
X03883Y00506*
X03883Y00506*
X03883Y00505*
X03883Y00505*
X03883Y00504*
X03883Y00504*
X03883Y00503*
X03884Y00503*
X03884Y00502*
X03884Y00502*
X03885Y00502*
X03885Y00501*
X03886Y00501*
X03886Y005*
X03887Y005*
X03887Y005*
X03887Y005*
X03888Y00499*
X03889Y00499*
X03889Y00499*
X0389Y00499*
X0389Y00499*
X03891*
X03891Y00499*
X03892Y00499*
X03892Y00499*
X03893Y00499*
X03893Y005*
X03894Y005*
X03894Y005*
X03895Y005*
X03895Y00501*
X03896Y00501*
X03896Y00502*
X03896Y00502*
X03897Y00502*
X03897Y00503*
X03897Y00503*
X03898Y00504*
X03898Y00504*
X03898Y00505*
X03898Y00505*
X03898Y00506*
X03898Y00506*
X03898Y00507*
X03948Y00557D02*
D01*
X03948Y00558*
X03948Y00558*
X03948Y00559*
X03948Y00559*
X03948Y0056*
X03948Y0056*
X03947Y00561*
X03947Y00561*
X03947Y00562*
X03946Y00562*
X03946Y00562*
X03946Y00563*
X03945Y00563*
X03945Y00564*
X03944Y00564*
X03944Y00564*
X03943Y00564*
X03943Y00564*
X03942Y00565*
X03942Y00565*
X03941Y00565*
X03941Y00565*
X0394*
X0394Y00565*
X03939Y00565*
X03939Y00565*
X03938Y00564*
X03937Y00564*
X03937Y00564*
X03937Y00564*
X03936Y00564*
X03936Y00563*
X03935Y00563*
X03935Y00562*
X03934Y00562*
X03934Y00562*
X03934Y00561*
X03933Y00561*
X03933Y0056*
X03933Y0056*
X03933Y00559*
X03933Y00559*
X03933Y00558*
X03933Y00558*
X03933Y00557*
X03933Y00556*
X03933Y00556*
X03933Y00555*
X03933Y00555*
X03933Y00554*
X03933Y00554*
X03933Y00553*
X03934Y00553*
X03934Y00552*
X03934Y00552*
X03935Y00552*
X03935Y00551*
X03936Y00551*
X03936Y0055*
X03937Y0055*
X03937Y0055*
X03937Y0055*
X03938Y00549*
X03939Y00549*
X03939Y00549*
X0394Y00549*
X0394Y00549*
X03941*
X03941Y00549*
X03942Y00549*
X03942Y00549*
X03943Y00549*
X03943Y0055*
X03944Y0055*
X03944Y0055*
X03945Y0055*
X03945Y00551*
X03946Y00551*
X03946Y00552*
X03946Y00552*
X03947Y00552*
X03947Y00553*
X03947Y00553*
X03948Y00554*
X03948Y00554*
X03948Y00555*
X03948Y00555*
X03948Y00556*
X03948Y00556*
X03948Y00557*
X03898D02*
D01*
X03898Y00558*
X03898Y00558*
X03898Y00559*
X03898Y00559*
X03898Y0056*
X03898Y0056*
X03897Y00561*
X03897Y00561*
X03897Y00562*
X03896Y00562*
X03896Y00562*
X03896Y00563*
X03895Y00563*
X03895Y00564*
X03894Y00564*
X03894Y00564*
X03893Y00564*
X03893Y00564*
X03892Y00565*
X03892Y00565*
X03891Y00565*
X03891Y00565*
X0389*
X0389Y00565*
X03889Y00565*
X03889Y00565*
X03888Y00564*
X03887Y00564*
X03887Y00564*
X03887Y00564*
X03886Y00564*
X03886Y00563*
X03885Y00563*
X03885Y00562*
X03884Y00562*
X03884Y00562*
X03884Y00561*
X03883Y00561*
X03883Y0056*
X03883Y0056*
X03883Y00559*
X03883Y00559*
X03883Y00558*
X03883Y00558*
X03883Y00557*
X03883Y00556*
X03883Y00556*
X03883Y00555*
X03883Y00555*
X03883Y00554*
X03883Y00554*
X03883Y00553*
X03884Y00553*
X03884Y00552*
X03884Y00552*
X03885Y00552*
X03885Y00551*
X03886Y00551*
X03886Y0055*
X03887Y0055*
X03887Y0055*
X03887Y0055*
X03888Y00549*
X03889Y00549*
X03889Y00549*
X0389Y00549*
X0389Y00549*
X03891*
X03891Y00549*
X03892Y00549*
X03892Y00549*
X03893Y00549*
X03893Y0055*
X03894Y0055*
X03894Y0055*
X03895Y0055*
X03895Y00551*
X03896Y00551*
X03896Y00552*
X03896Y00552*
X03897Y00552*
X03897Y00553*
X03897Y00553*
X03898Y00554*
X03898Y00554*
X03898Y00555*
X03898Y00555*
X03898Y00556*
X03898Y00556*
X03898Y00557*
X03948Y00607D02*
D01*
X03948Y00608*
X03948Y00608*
X03948Y00609*
X03948Y00609*
X03948Y0061*
X03948Y0061*
X03947Y00611*
X03947Y00611*
X03947Y00612*
X03946Y00612*
X03946Y00612*
X03946Y00613*
X03945Y00613*
X03945Y00614*
X03944Y00614*
X03944Y00614*
X03943Y00614*
X03943Y00614*
X03942Y00615*
X03942Y00615*
X03941Y00615*
X03941Y00615*
X0394*
X0394Y00615*
X03939Y00615*
X03939Y00615*
X03938Y00614*
X03937Y00614*
X03937Y00614*
X03937Y00614*
X03936Y00614*
X03936Y00613*
X03935Y00613*
X03935Y00612*
X03934Y00612*
X03934Y00612*
X03934Y00611*
X03933Y00611*
X03933Y0061*
X03933Y0061*
X03933Y00609*
X03933Y00609*
X03933Y00608*
X03933Y00608*
X03933Y00607*
X03933Y00606*
X03933Y00606*
X03933Y00605*
X03933Y00605*
X03933Y00604*
X03933Y00604*
X03933Y00603*
X03934Y00603*
X03934Y00602*
X03934Y00602*
X03935Y00602*
X03935Y00601*
X03936Y00601*
X03936Y006*
X03937Y006*
X03937Y006*
X03937Y006*
X03938Y00599*
X03939Y00599*
X03939Y00599*
X0394Y00599*
X0394Y00599*
X03941*
X03941Y00599*
X03942Y00599*
X03942Y00599*
X03943Y00599*
X03943Y006*
X03944Y006*
X03944Y006*
X03945Y006*
X03945Y00601*
X03946Y00601*
X03946Y00602*
X03946Y00602*
X03947Y00602*
X03947Y00603*
X03947Y00603*
X03948Y00604*
X03948Y00604*
X03948Y00605*
X03948Y00605*
X03948Y00606*
X03948Y00606*
X03948Y00607*
X03898D02*
D01*
X03898Y00608*
X03898Y00608*
X03898Y00609*
X03898Y00609*
X03898Y0061*
X03898Y0061*
X03897Y00611*
X03897Y00611*
X03897Y00612*
X03896Y00612*
X03896Y00612*
X03896Y00613*
X03895Y00613*
X03895Y00614*
X03894Y00614*
X03894Y00614*
X03893Y00614*
X03893Y00614*
X03892Y00615*
X03892Y00615*
X03891Y00615*
X03891Y00615*
X0389*
X0389Y00615*
X03889Y00615*
X03889Y00615*
X03888Y00614*
X03887Y00614*
X03887Y00614*
X03887Y00614*
X03886Y00614*
X03886Y00613*
X03885Y00613*
X03885Y00612*
X03884Y00612*
X03884Y00612*
X03884Y00611*
X03883Y00611*
X03883Y0061*
X03883Y0061*
X03883Y00609*
X03883Y00609*
X03883Y00608*
X03883Y00608*
X03883Y00607*
X03883Y00606*
X03883Y00606*
X03883Y00605*
X03883Y00605*
X03883Y00604*
X03883Y00604*
X03883Y00603*
X03884Y00603*
X03884Y00602*
X03884Y00602*
X03885Y00602*
X03885Y00601*
X03886Y00601*
X03886Y006*
X03887Y006*
X03887Y006*
X03887Y006*
X03888Y00599*
X03889Y00599*
X03889Y00599*
X0389Y00599*
X0389Y00599*
X03891*
X03891Y00599*
X03892Y00599*
X03892Y00599*
X03893Y00599*
X03893Y006*
X03894Y006*
X03894Y006*
X03895Y006*
X03895Y00601*
X03896Y00601*
X03896Y00602*
X03896Y00602*
X03897Y00602*
X03897Y00603*
X03897Y00603*
X03898Y00604*
X03898Y00604*
X03898Y00605*
X03898Y00605*
X03898Y00606*
X03898Y00606*
X03898Y00607*
X03948Y00657D02*
D01*
X03948Y00658*
X03948Y00658*
X03948Y00659*
X03948Y00659*
X03948Y0066*
X03948Y0066*
X03947Y00661*
X03947Y00661*
X03947Y00662*
X03946Y00662*
X03946Y00662*
X03946Y00663*
X03945Y00663*
X03945Y00664*
X03944Y00664*
X03944Y00664*
X03943Y00664*
X03943Y00664*
X03942Y00665*
X03942Y00665*
X03941Y00665*
X03941Y00665*
X0394*
X0394Y00665*
X03939Y00665*
X03939Y00665*
X03938Y00664*
X03937Y00664*
X03937Y00664*
X03937Y00664*
X03936Y00664*
X03936Y00663*
X03935Y00663*
X03935Y00662*
X03934Y00662*
X03934Y00662*
X03934Y00661*
X03933Y00661*
X03933Y0066*
X03933Y0066*
X03933Y00659*
X03933Y00659*
X03933Y00658*
X03933Y00658*
X03933Y00657*
X03933Y00656*
X03933Y00656*
X03933Y00655*
X03933Y00655*
X03933Y00654*
X03933Y00654*
X03933Y00653*
X03934Y00653*
X03934Y00652*
X03934Y00652*
X03935Y00652*
X03935Y00651*
X03936Y00651*
X03936Y0065*
X03937Y0065*
X03937Y0065*
X03937Y0065*
X03938Y00649*
X03939Y00649*
X03939Y00649*
X0394Y00649*
X0394Y00649*
X03941*
X03941Y00649*
X03942Y00649*
X03942Y00649*
X03943Y00649*
X03943Y0065*
X03944Y0065*
X03944Y0065*
X03945Y0065*
X03945Y00651*
X03946Y00651*
X03946Y00652*
X03946Y00652*
X03947Y00652*
X03947Y00653*
X03947Y00653*
X03948Y00654*
X03948Y00654*
X03948Y00655*
X03948Y00655*
X03948Y00656*
X03948Y00656*
X03948Y00657*
X03898D02*
D01*
X03898Y00658*
X03898Y00658*
X03898Y00659*
X03898Y00659*
X03898Y0066*
X03898Y0066*
X03897Y00661*
X03897Y00661*
X03897Y00662*
X03896Y00662*
X03896Y00662*
X03896Y00663*
X03895Y00663*
X03895Y00664*
X03894Y00664*
X03894Y00664*
X03893Y00664*
X03893Y00664*
X03892Y00665*
X03892Y00665*
X03891Y00665*
X03891Y00665*
X0389*
X0389Y00665*
X03889Y00665*
X03889Y00665*
X03888Y00664*
X03887Y00664*
X03887Y00664*
X03887Y00664*
X03886Y00664*
X03886Y00663*
X03885Y00663*
X03885Y00662*
X03884Y00662*
X03884Y00662*
X03884Y00661*
X03883Y00661*
X03883Y0066*
X03883Y0066*
X03883Y00659*
X03883Y00659*
X03883Y00658*
X03883Y00658*
X03883Y00657*
X03883Y00656*
X03883Y00656*
X03883Y00655*
X03883Y00655*
X03883Y00654*
X03883Y00654*
X03883Y00653*
X03884Y00653*
X03884Y00652*
X03884Y00652*
X03885Y00652*
X03885Y00651*
X03886Y00651*
X03886Y0065*
X03887Y0065*
X03887Y0065*
X03887Y0065*
X03888Y00649*
X03889Y00649*
X03889Y00649*
X0389Y00649*
X0389Y00649*
X03891*
X03891Y00649*
X03892Y00649*
X03892Y00649*
X03893Y00649*
X03893Y0065*
X03894Y0065*
X03894Y0065*
X03895Y0065*
X03895Y00651*
X03896Y00651*
X03896Y00652*
X03896Y00652*
X03897Y00652*
X03897Y00653*
X03897Y00653*
X03898Y00654*
X03898Y00654*
X03898Y00655*
X03898Y00655*
X03898Y00656*
X03898Y00656*
X03898Y00657*
X0383Y02209D02*
D01*
X0383Y02209*
X0383Y0221*
X0383Y02211*
X0383Y02211*
X0383Y02212*
X0383Y02212*
X03829Y02213*
X03829Y02213*
X03829Y02214*
X03828Y02214*
X03828Y02214*
X03828Y02215*
X03827Y02215*
X03827Y02215*
X03826Y02216*
X03826Y02216*
X03825Y02216*
X03825Y02216*
X03824Y02217*
X03824Y02217*
X03823Y02217*
X03823Y02217*
X03822*
X03822Y02217*
X03821Y02217*
X0382Y02217*
X0382Y02216*
X03819Y02216*
X03819Y02216*
X03818Y02216*
X03818Y02215*
X03817Y02215*
X03817Y02215*
X03817Y02214*
X03816Y02214*
X03816Y02214*
X03816Y02213*
X03815Y02213*
X03815Y02212*
X03815Y02212*
X03815Y02211*
X03815Y02211*
X03815Y0221*
X03814Y02209*
X03814Y02209*
X03814Y02208*
X03815Y02208*
X03815Y02207*
X03815Y02207*
X03815Y02206*
X03815Y02206*
X03815Y02205*
X03816Y02205*
X03816Y02204*
X03816Y02204*
X03817Y02203*
X03817Y02203*
X03817Y02203*
X03818Y02202*
X03818Y02202*
X03819Y02202*
X03819Y02202*
X0382Y02201*
X0382Y02201*
X03821Y02201*
X03822Y02201*
X03822Y02201*
X03823*
X03823Y02201*
X03824Y02201*
X03824Y02201*
X03825Y02201*
X03825Y02202*
X03826Y02202*
X03826Y02202*
X03827Y02202*
X03827Y02203*
X03828Y02203*
X03828Y02203*
X03828Y02204*
X03829Y02204*
X03829Y02205*
X03829Y02205*
X0383Y02206*
X0383Y02206*
X0383Y02207*
X0383Y02207*
X0383Y02208*
X0383Y02208*
X0383Y02209*
Y02373D02*
D01*
X0383Y02373*
X0383Y02374*
X0383Y02374*
X0383Y02375*
X0383Y02375*
X0383Y02376*
X03829Y02376*
X03829Y02377*
X03829Y02377*
X03828Y02378*
X03828Y02378*
X03828Y02379*
X03827Y02379*
X03827Y02379*
X03826Y0238*
X03826Y0238*
X03825Y0238*
X03825Y0238*
X03824Y0238*
X03824Y0238*
X03823Y02381*
X03823Y02381*
X03822*
X03822Y02381*
X03821Y0238*
X0382Y0238*
X0382Y0238*
X03819Y0238*
X03819Y0238*
X03818Y0238*
X03818Y02379*
X03817Y02379*
X03817Y02379*
X03817Y02378*
X03816Y02378*
X03816Y02377*
X03816Y02377*
X03815Y02376*
X03815Y02376*
X03815Y02375*
X03815Y02375*
X03815Y02374*
X03815Y02374*
X03814Y02373*
X03814Y02373*
X03814Y02372*
X03815Y02372*
X03815Y02371*
X03815Y02371*
X03815Y0237*
X03815Y0237*
X03815Y02369*
X03816Y02369*
X03816Y02368*
X03816Y02368*
X03817Y02367*
X03817Y02367*
X03817Y02367*
X03818Y02366*
X03818Y02366*
X03819Y02366*
X03819Y02365*
X0382Y02365*
X0382Y02365*
X03821Y02365*
X03822Y02365*
X03822Y02365*
X03823*
X03823Y02365*
X03824Y02365*
X03824Y02365*
X03825Y02365*
X03825Y02365*
X03826Y02366*
X03826Y02366*
X03827Y02366*
X03827Y02367*
X03828Y02367*
X03828Y02367*
X03828Y02368*
X03829Y02368*
X03829Y02369*
X03829Y02369*
X0383Y0237*
X0383Y0237*
X0383Y02371*
X0383Y02371*
X0383Y02372*
X0383Y02372*
X0383Y02373*
X01964Y02805D02*
D01*
X01964Y02806*
X01964Y02807*
X01964Y02807*
X01964Y02808*
X01964Y02808*
X01964Y02809*
X01964Y02809*
X01963Y0281*
X01963Y0281*
X01963Y0281*
X01962Y02811*
X01962Y02811*
X01961Y02812*
X01961Y02812*
X01961Y02812*
X0196Y02812*
X0196Y02813*
X01959Y02813*
X01958Y02813*
X01958Y02813*
X01957Y02813*
X01957Y02813*
X01956*
X01956Y02813*
X01955Y02813*
X01955Y02813*
X01954Y02813*
X01954Y02813*
X01953Y02812*
X01953Y02812*
X01952Y02812*
X01952Y02812*
X01951Y02811*
X01951Y02811*
X01951Y0281*
X0195Y0281*
X0195Y0281*
X0195Y02809*
X01949Y02809*
X01949Y02808*
X01949Y02808*
X01949Y02807*
X01949Y02807*
X01949Y02806*
X01949Y02805*
X01949Y02805*
X01949Y02804*
X01949Y02804*
X01949Y02803*
X01949Y02803*
X01949Y02802*
X0195Y02802*
X0195Y02801*
X0195Y02801*
X01951Y028*
X01951Y028*
X01951Y028*
X01952Y02799*
X01952Y02799*
X01953Y02799*
X01953Y02798*
X01954Y02798*
X01954Y02798*
X01955Y02798*
X01955Y02798*
X01956Y02798*
X01956Y02798*
X01957*
X01957Y02798*
X01958Y02798*
X01958Y02798*
X01959Y02798*
X0196Y02798*
X0196Y02798*
X01961Y02799*
X01961Y02799*
X01961Y02799*
X01962Y028*
X01962Y028*
X01963Y028*
X01963Y02801*
X01963Y02801*
X01964Y02802*
X01964Y02802*
X01964Y02803*
X01964Y02803*
X01964Y02804*
X01964Y02804*
X01964Y02805*
X01964Y02805*
Y02755D02*
D01*
X01964Y02756*
X01964Y02757*
X01964Y02757*
X01964Y02758*
X01964Y02758*
X01964Y02759*
X01964Y02759*
X01963Y0276*
X01963Y0276*
X01963Y0276*
X01962Y02761*
X01962Y02761*
X01961Y02762*
X01961Y02762*
X01961Y02762*
X0196Y02762*
X0196Y02763*
X01959Y02763*
X01958Y02763*
X01958Y02763*
X01957Y02763*
X01957Y02763*
X01956*
X01956Y02763*
X01955Y02763*
X01955Y02763*
X01954Y02763*
X01954Y02763*
X01953Y02762*
X01953Y02762*
X01952Y02762*
X01952Y02762*
X01951Y02761*
X01951Y02761*
X01951Y0276*
X0195Y0276*
X0195Y0276*
X0195Y02759*
X01949Y02759*
X01949Y02758*
X01949Y02758*
X01949Y02757*
X01949Y02757*
X01949Y02756*
X01949Y02755*
X01949Y02755*
X01949Y02754*
X01949Y02754*
X01949Y02753*
X01949Y02753*
X01949Y02752*
X0195Y02752*
X0195Y02751*
X0195Y02751*
X01951Y0275*
X01951Y0275*
X01951Y0275*
X01952Y02749*
X01952Y02749*
X01953Y02749*
X01953Y02748*
X01954Y02748*
X01954Y02748*
X01955Y02748*
X01955Y02748*
X01956Y02748*
X01956Y02748*
X01957*
X01957Y02748*
X01958Y02748*
X01958Y02748*
X01959Y02748*
X0196Y02748*
X0196Y02748*
X01961Y02749*
X01961Y02749*
X01961Y02749*
X01962Y0275*
X01962Y0275*
X01963Y0275*
X01963Y02751*
X01963Y02751*
X01964Y02752*
X01964Y02752*
X01964Y02753*
X01964Y02753*
X01964Y02754*
X01964Y02754*
X01964Y02755*
X01964Y02755*
X01914Y02805D02*
D01*
X01914Y02806*
X01914Y02807*
X01914Y02807*
X01914Y02808*
X01914Y02808*
X01914Y02809*
X01914Y02809*
X01913Y0281*
X01913Y0281*
X01913Y0281*
X01912Y02811*
X01912Y02811*
X01911Y02812*
X01911Y02812*
X01911Y02812*
X0191Y02812*
X0191Y02813*
X01909Y02813*
X01908Y02813*
X01908Y02813*
X01907Y02813*
X01907Y02813*
X01906*
X01906Y02813*
X01905Y02813*
X01905Y02813*
X01904Y02813*
X01904Y02813*
X01903Y02812*
X01903Y02812*
X01902Y02812*
X01902Y02812*
X01901Y02811*
X01901Y02811*
X01901Y0281*
X019Y0281*
X019Y0281*
X019Y02809*
X01899Y02809*
X01899Y02808*
X01899Y02808*
X01899Y02807*
X01899Y02807*
X01899Y02806*
X01899Y02805*
X01899Y02805*
X01899Y02804*
X01899Y02804*
X01899Y02803*
X01899Y02803*
X01899Y02802*
X019Y02802*
X019Y02801*
X019Y02801*
X01901Y028*
X01901Y028*
X01901Y028*
X01902Y02799*
X01902Y02799*
X01903Y02799*
X01903Y02798*
X01904Y02798*
X01904Y02798*
X01905Y02798*
X01905Y02798*
X01906Y02798*
X01906Y02798*
X01907*
X01907Y02798*
X01908Y02798*
X01908Y02798*
X01909Y02798*
X0191Y02798*
X0191Y02798*
X01911Y02799*
X01911Y02799*
X01911Y02799*
X01912Y028*
X01912Y028*
X01913Y028*
X01913Y02801*
X01913Y02801*
X01914Y02802*
X01914Y02802*
X01914Y02803*
X01914Y02803*
X01914Y02804*
X01914Y02804*
X01914Y02805*
X01914Y02805*
Y02755D02*
D01*
X01914Y02756*
X01914Y02757*
X01914Y02757*
X01914Y02758*
X01914Y02758*
X01914Y02759*
X01914Y02759*
X01913Y0276*
X01913Y0276*
X01913Y0276*
X01912Y02761*
X01912Y02761*
X01911Y02762*
X01911Y02762*
X01911Y02762*
X0191Y02762*
X0191Y02763*
X01909Y02763*
X01908Y02763*
X01908Y02763*
X01907Y02763*
X01907Y02763*
X01906*
X01906Y02763*
X01905Y02763*
X01905Y02763*
X01904Y02763*
X01904Y02763*
X01903Y02762*
X01903Y02762*
X01902Y02762*
X01902Y02762*
X01901Y02761*
X01901Y02761*
X01901Y0276*
X019Y0276*
X019Y0276*
X019Y02759*
X01899Y02759*
X01899Y02758*
X01899Y02758*
X01899Y02757*
X01899Y02757*
X01899Y02756*
X01899Y02755*
X01899Y02755*
X01899Y02754*
X01899Y02754*
X01899Y02753*
X01899Y02753*
X01899Y02752*
X019Y02752*
X019Y02751*
X019Y02751*
X01901Y0275*
X01901Y0275*
X01901Y0275*
X01902Y02749*
X01902Y02749*
X01903Y02749*
X01903Y02748*
X01904Y02748*
X01904Y02748*
X01905Y02748*
X01905Y02748*
X01906Y02748*
X01906Y02748*
X01907*
X01907Y02748*
X01908Y02748*
X01908Y02748*
X01909Y02748*
X0191Y02748*
X0191Y02748*
X01911Y02749*
X01911Y02749*
X01911Y02749*
X01912Y0275*
X01912Y0275*
X01913Y0275*
X01913Y02751*
X01913Y02751*
X01914Y02752*
X01914Y02752*
X01914Y02753*
X01914Y02753*
X01914Y02754*
X01914Y02754*
X01914Y02755*
X01914Y02755*
X01864Y02805D02*
D01*
X01864Y02806*
X01864Y02807*
X01864Y02807*
X01864Y02808*
X01864Y02808*
X01864Y02809*
X01864Y02809*
X01863Y0281*
X01863Y0281*
X01863Y0281*
X01862Y02811*
X01862Y02811*
X01861Y02812*
X01861Y02812*
X01861Y02812*
X0186Y02812*
X0186Y02813*
X01859Y02813*
X01858Y02813*
X01858Y02813*
X01857Y02813*
X01857Y02813*
X01856*
X01856Y02813*
X01855Y02813*
X01855Y02813*
X01854Y02813*
X01854Y02813*
X01853Y02812*
X01853Y02812*
X01852Y02812*
X01852Y02812*
X01851Y02811*
X01851Y02811*
X01851Y0281*
X0185Y0281*
X0185Y0281*
X0185Y02809*
X01849Y02809*
X01849Y02808*
X01849Y02808*
X01849Y02807*
X01849Y02807*
X01849Y02806*
X01849Y02805*
X01849Y02805*
X01849Y02804*
X01849Y02804*
X01849Y02803*
X01849Y02803*
X01849Y02802*
X0185Y02802*
X0185Y02801*
X0185Y02801*
X01851Y028*
X01851Y028*
X01851Y028*
X01852Y02799*
X01852Y02799*
X01853Y02799*
X01853Y02798*
X01854Y02798*
X01854Y02798*
X01855Y02798*
X01855Y02798*
X01856Y02798*
X01856Y02798*
X01857*
X01857Y02798*
X01858Y02798*
X01858Y02798*
X01859Y02798*
X0186Y02798*
X0186Y02798*
X01861Y02799*
X01861Y02799*
X01861Y02799*
X01862Y028*
X01862Y028*
X01863Y028*
X01863Y02801*
X01863Y02801*
X01864Y02802*
X01864Y02802*
X01864Y02803*
X01864Y02803*
X01864Y02804*
X01864Y02804*
X01864Y02805*
X01864Y02805*
Y02755D02*
D01*
X01864Y02756*
X01864Y02757*
X01864Y02757*
X01864Y02758*
X01864Y02758*
X01864Y02759*
X01864Y02759*
X01863Y0276*
X01863Y0276*
X01863Y0276*
X01862Y02761*
X01862Y02761*
X01861Y02762*
X01861Y02762*
X01861Y02762*
X0186Y02762*
X0186Y02763*
X01859Y02763*
X01858Y02763*
X01858Y02763*
X01857Y02763*
X01857Y02763*
X01856*
X01856Y02763*
X01855Y02763*
X01855Y02763*
X01854Y02763*
X01854Y02763*
X01853Y02762*
X01853Y02762*
X01852Y02762*
X01852Y02762*
X01851Y02761*
X01851Y02761*
X01851Y0276*
X0185Y0276*
X0185Y0276*
X0185Y02759*
X01849Y02759*
X01849Y02758*
X01849Y02758*
X01849Y02757*
X01849Y02757*
X01849Y02756*
X01849Y02755*
X01849Y02755*
X01849Y02754*
X01849Y02754*
X01849Y02753*
X01849Y02753*
X01849Y02752*
X0185Y02752*
X0185Y02751*
X0185Y02751*
X01851Y0275*
X01851Y0275*
X01851Y0275*
X01852Y02749*
X01852Y02749*
X01853Y02749*
X01853Y02748*
X01854Y02748*
X01854Y02748*
X01855Y02748*
X01855Y02748*
X01856Y02748*
X01856Y02748*
X01857*
X01857Y02748*
X01858Y02748*
X01858Y02748*
X01859Y02748*
X0186Y02748*
X0186Y02748*
X01861Y02749*
X01861Y02749*
X01861Y02749*
X01862Y0275*
X01862Y0275*
X01863Y0275*
X01863Y02751*
X01863Y02751*
X01864Y02752*
X01864Y02752*
X01864Y02753*
X01864Y02753*
X01864Y02754*
X01864Y02754*
X01864Y02755*
X01864Y02755*
X01814Y02805D02*
D01*
X01814Y02806*
X01814Y02807*
X01814Y02807*
X01814Y02808*
X01814Y02808*
X01814Y02809*
X01814Y02809*
X01813Y0281*
X01813Y0281*
X01813Y0281*
X01812Y02811*
X01812Y02811*
X01811Y02812*
X01811Y02812*
X01811Y02812*
X0181Y02812*
X0181Y02813*
X01809Y02813*
X01808Y02813*
X01808Y02813*
X01807Y02813*
X01807Y02813*
X01806*
X01806Y02813*
X01805Y02813*
X01805Y02813*
X01804Y02813*
X01804Y02813*
X01803Y02812*
X01803Y02812*
X01802Y02812*
X01802Y02812*
X01801Y02811*
X01801Y02811*
X01801Y0281*
X018Y0281*
X018Y0281*
X018Y02809*
X01799Y02809*
X01799Y02808*
X01799Y02808*
X01799Y02807*
X01799Y02807*
X01799Y02806*
X01799Y02805*
X01799Y02805*
X01799Y02804*
X01799Y02804*
X01799Y02803*
X01799Y02803*
X01799Y02802*
X018Y02802*
X018Y02801*
X018Y02801*
X01801Y028*
X01801Y028*
X01801Y028*
X01802Y02799*
X01802Y02799*
X01803Y02799*
X01803Y02798*
X01804Y02798*
X01804Y02798*
X01805Y02798*
X01805Y02798*
X01806Y02798*
X01806Y02798*
X01807*
X01807Y02798*
X01808Y02798*
X01808Y02798*
X01809Y02798*
X0181Y02798*
X0181Y02798*
X01811Y02799*
X01811Y02799*
X01811Y02799*
X01812Y028*
X01812Y028*
X01813Y028*
X01813Y02801*
X01813Y02801*
X01814Y02802*
X01814Y02802*
X01814Y02803*
X01814Y02803*
X01814Y02804*
X01814Y02804*
X01814Y02805*
X01814Y02805*
Y02755D02*
D01*
X01814Y02756*
X01814Y02757*
X01814Y02757*
X01814Y02758*
X01814Y02758*
X01814Y02759*
X01814Y02759*
X01813Y0276*
X01813Y0276*
X01813Y0276*
X01812Y02761*
X01812Y02761*
X01811Y02762*
X01811Y02762*
X01811Y02762*
X0181Y02762*
X0181Y02763*
X01809Y02763*
X01808Y02763*
X01808Y02763*
X01807Y02763*
X01807Y02763*
X01806*
X01806Y02763*
X01805Y02763*
X01805Y02763*
X01804Y02763*
X01804Y02763*
X01803Y02762*
X01803Y02762*
X01802Y02762*
X01802Y02762*
X01801Y02761*
X01801Y02761*
X01801Y0276*
X018Y0276*
X018Y0276*
X018Y02759*
X01799Y02759*
X01799Y02758*
X01799Y02758*
X01799Y02757*
X01799Y02757*
X01799Y02756*
X01799Y02755*
X01799Y02755*
X01799Y02754*
X01799Y02754*
X01799Y02753*
X01799Y02753*
X01799Y02752*
X018Y02752*
X018Y02751*
X018Y02751*
X01801Y0275*
X01801Y0275*
X01801Y0275*
X01802Y02749*
X01802Y02749*
X01803Y02749*
X01803Y02748*
X01804Y02748*
X01804Y02748*
X01805Y02748*
X01805Y02748*
X01806Y02748*
X01806Y02748*
X01807*
X01807Y02748*
X01808Y02748*
X01808Y02748*
X01809Y02748*
X0181Y02748*
X0181Y02748*
X01811Y02749*
X01811Y02749*
X01811Y02749*
X01812Y0275*
X01812Y0275*
X01813Y0275*
X01813Y02751*
X01813Y02751*
X01814Y02752*
X01814Y02752*
X01814Y02753*
X01814Y02753*
X01814Y02754*
X01814Y02754*
X01814Y02755*
X01814Y02755*
X01764Y02805D02*
D01*
X01764Y02806*
X01764Y02807*
X01764Y02807*
X01764Y02808*
X01764Y02808*
X01764Y02809*
X01764Y02809*
X01763Y0281*
X01763Y0281*
X01763Y0281*
X01762Y02811*
X01762Y02811*
X01761Y02812*
X01761Y02812*
X01761Y02812*
X0176Y02812*
X0176Y02813*
X01759Y02813*
X01758Y02813*
X01758Y02813*
X01757Y02813*
X01757Y02813*
X01756*
X01756Y02813*
X01755Y02813*
X01755Y02813*
X01754Y02813*
X01754Y02813*
X01753Y02812*
X01753Y02812*
X01752Y02812*
X01752Y02812*
X01751Y02811*
X01751Y02811*
X01751Y0281*
X0175Y0281*
X0175Y0281*
X0175Y02809*
X01749Y02809*
X01749Y02808*
X01749Y02808*
X01749Y02807*
X01749Y02807*
X01749Y02806*
X01749Y02805*
X01749Y02805*
X01749Y02804*
X01749Y02804*
X01749Y02803*
X01749Y02803*
X01749Y02802*
X0175Y02802*
X0175Y02801*
X0175Y02801*
X01751Y028*
X01751Y028*
X01751Y028*
X01752Y02799*
X01752Y02799*
X01753Y02799*
X01753Y02798*
X01754Y02798*
X01754Y02798*
X01755Y02798*
X01755Y02798*
X01756Y02798*
X01756Y02798*
X01757*
X01757Y02798*
X01758Y02798*
X01758Y02798*
X01759Y02798*
X0176Y02798*
X0176Y02798*
X01761Y02799*
X01761Y02799*
X01761Y02799*
X01762Y028*
X01762Y028*
X01763Y028*
X01763Y02801*
X01763Y02801*
X01764Y02802*
X01764Y02802*
X01764Y02803*
X01764Y02803*
X01764Y02804*
X01764Y02804*
X01764Y02805*
X01764Y02805*
Y02755D02*
D01*
X01764Y02756*
X01764Y02757*
X01764Y02757*
X01764Y02758*
X01764Y02758*
X01764Y02759*
X01764Y02759*
X01763Y0276*
X01763Y0276*
X01763Y0276*
X01762Y02761*
X01762Y02761*
X01761Y02762*
X01761Y02762*
X01761Y02762*
X0176Y02762*
X0176Y02763*
X01759Y02763*
X01758Y02763*
X01758Y02763*
X01757Y02763*
X01757Y02763*
X01756*
X01756Y02763*
X01755Y02763*
X01755Y02763*
X01754Y02763*
X01754Y02763*
X01753Y02762*
X01753Y02762*
X01752Y02762*
X01752Y02762*
X01751Y02761*
X01751Y02761*
X01751Y0276*
X0175Y0276*
X0175Y0276*
X0175Y02759*
X01749Y02759*
X01749Y02758*
X01749Y02758*
X01749Y02757*
X01749Y02757*
X01749Y02756*
X01749Y02755*
X01749Y02755*
X01749Y02754*
X01749Y02754*
X01749Y02753*
X01749Y02753*
X01749Y02752*
X0175Y02752*
X0175Y02751*
X0175Y02751*
X01751Y0275*
X01751Y0275*
X01751Y0275*
X01752Y02749*
X01752Y02749*
X01753Y02749*
X01753Y02748*
X01754Y02748*
X01754Y02748*
X01755Y02748*
X01755Y02748*
X01756Y02748*
X01756Y02748*
X01757*
X01757Y02748*
X01758Y02748*
X01758Y02748*
X01759Y02748*
X0176Y02748*
X0176Y02748*
X01761Y02749*
X01761Y02749*
X01761Y02749*
X01762Y0275*
X01762Y0275*
X01763Y0275*
X01763Y02751*
X01763Y02751*
X01764Y02752*
X01764Y02752*
X01764Y02753*
X01764Y02753*
X01764Y02754*
X01764Y02754*
X01764Y02755*
X01764Y02755*
G54D207*
X03944Y00457D02*
D01*
X03944Y00457*
X03944Y00458*
X03944Y00458*
X03944Y00458*
X03944Y00458*
X03944Y00459*
X03944Y00459*
X03944Y00459*
X03944Y00459*
X03943Y0046*
X03943Y0046*
X03943Y0046*
X03943Y0046*
X03943Y0046*
X03942Y0046*
X03942Y00461*
X03942Y00461*
X03942Y00461*
X03941Y00461*
X03941Y00461*
X03941Y00461*
X03941Y00461*
X0394*
X0394Y00461*
X0394Y00461*
X03939Y00461*
X03939Y00461*
X03939Y00461*
X03939Y00461*
X03938Y0046*
X03938Y0046*
X03938Y0046*
X03938Y0046*
X03938Y0046*
X03937Y0046*
X03937Y00459*
X03937Y00459*
X03937Y00459*
X03937Y00459*
X03937Y00458*
X03937Y00458*
X03937Y00458*
X03937Y00458*
X03937Y00457*
X03937Y00457*
X03937Y00457*
X03937Y00456*
X03937Y00456*
X03937Y00456*
X03937Y00456*
X03937Y00455*
X03937Y00455*
X03937Y00455*
X03937Y00455*
X03937Y00454*
X03938Y00454*
X03938Y00454*
X03938Y00454*
X03938Y00454*
X03938Y00454*
X03939Y00453*
X03939Y00453*
X03939Y00453*
X03939Y00453*
X0394Y00453*
X0394Y00453*
X0394Y00453*
X03941*
X03941Y00453*
X03941Y00453*
X03941Y00453*
X03942Y00453*
X03942Y00453*
X03942Y00453*
X03942Y00454*
X03943Y00454*
X03943Y00454*
X03943Y00454*
X03943Y00454*
X03943Y00454*
X03944Y00455*
X03944Y00455*
X03944Y00455*
X03944Y00455*
X03944Y00456*
X03944Y00456*
X03944Y00456*
X03944Y00456*
X03944Y00457*
X03944Y00457*
X03894D02*
D01*
X03894Y00457*
X03894Y00458*
X03894Y00458*
X03894Y00458*
X03894Y00458*
X03894Y00459*
X03894Y00459*
X03894Y00459*
X03894Y00459*
X03893Y0046*
X03893Y0046*
X03893Y0046*
X03893Y0046*
X03893Y0046*
X03892Y0046*
X03892Y00461*
X03892Y00461*
X03892Y00461*
X03891Y00461*
X03891Y00461*
X03891Y00461*
X03891Y00461*
X0389*
X0389Y00461*
X0389Y00461*
X03889Y00461*
X03889Y00461*
X03889Y00461*
X03889Y00461*
X03888Y0046*
X03888Y0046*
X03888Y0046*
X03888Y0046*
X03888Y0046*
X03887Y0046*
X03887Y00459*
X03887Y00459*
X03887Y00459*
X03887Y00459*
X03887Y00458*
X03887Y00458*
X03887Y00458*
X03887Y00458*
X03887Y00457*
X03887Y00457*
X03887Y00457*
X03887Y00456*
X03887Y00456*
X03887Y00456*
X03887Y00456*
X03887Y00455*
X03887Y00455*
X03887Y00455*
X03887Y00455*
X03887Y00454*
X03888Y00454*
X03888Y00454*
X03888Y00454*
X03888Y00454*
X03888Y00454*
X03889Y00453*
X03889Y00453*
X03889Y00453*
X03889Y00453*
X0389Y00453*
X0389Y00453*
X0389Y00453*
X03891*
X03891Y00453*
X03891Y00453*
X03891Y00453*
X03892Y00453*
X03892Y00453*
X03892Y00453*
X03892Y00454*
X03893Y00454*
X03893Y00454*
X03893Y00454*
X03893Y00454*
X03893Y00454*
X03894Y00455*
X03894Y00455*
X03894Y00455*
X03894Y00455*
X03894Y00456*
X03894Y00456*
X03894Y00456*
X03894Y00456*
X03894Y00457*
X03894Y00457*
X03944Y00507D02*
D01*
X03944Y00507*
X03944Y00508*
X03944Y00508*
X03944Y00508*
X03944Y00508*
X03944Y00509*
X03944Y00509*
X03944Y00509*
X03944Y00509*
X03943Y0051*
X03943Y0051*
X03943Y0051*
X03943Y0051*
X03943Y0051*
X03942Y0051*
X03942Y00511*
X03942Y00511*
X03942Y00511*
X03941Y00511*
X03941Y00511*
X03941Y00511*
X03941Y00511*
X0394*
X0394Y00511*
X0394Y00511*
X03939Y00511*
X03939Y00511*
X03939Y00511*
X03939Y00511*
X03938Y0051*
X03938Y0051*
X03938Y0051*
X03938Y0051*
X03938Y0051*
X03937Y0051*
X03937Y00509*
X03937Y00509*
X03937Y00509*
X03937Y00509*
X03937Y00508*
X03937Y00508*
X03937Y00508*
X03937Y00508*
X03937Y00507*
X03937Y00507*
X03937Y00507*
X03937Y00506*
X03937Y00506*
X03937Y00506*
X03937Y00506*
X03937Y00505*
X03937Y00505*
X03937Y00505*
X03937Y00505*
X03937Y00504*
X03938Y00504*
X03938Y00504*
X03938Y00504*
X03938Y00504*
X03938Y00504*
X03939Y00503*
X03939Y00503*
X03939Y00503*
X03939Y00503*
X0394Y00503*
X0394Y00503*
X0394Y00503*
X03941*
X03941Y00503*
X03941Y00503*
X03941Y00503*
X03942Y00503*
X03942Y00503*
X03942Y00503*
X03942Y00504*
X03943Y00504*
X03943Y00504*
X03943Y00504*
X03943Y00504*
X03943Y00504*
X03944Y00505*
X03944Y00505*
X03944Y00505*
X03944Y00505*
X03944Y00506*
X03944Y00506*
X03944Y00506*
X03944Y00506*
X03944Y00507*
X03944Y00507*
X03894D02*
D01*
X03894Y00507*
X03894Y00508*
X03894Y00508*
X03894Y00508*
X03894Y00508*
X03894Y00509*
X03894Y00509*
X03894Y00509*
X03894Y00509*
X03893Y0051*
X03893Y0051*
X03893Y0051*
X03893Y0051*
X03893Y0051*
X03892Y0051*
X03892Y00511*
X03892Y00511*
X03892Y00511*
X03891Y00511*
X03891Y00511*
X03891Y00511*
X03891Y00511*
X0389*
X0389Y00511*
X0389Y00511*
X03889Y00511*
X03889Y00511*
X03889Y00511*
X03889Y00511*
X03888Y0051*
X03888Y0051*
X03888Y0051*
X03888Y0051*
X03888Y0051*
X03887Y0051*
X03887Y00509*
X03887Y00509*
X03887Y00509*
X03887Y00509*
X03887Y00508*
X03887Y00508*
X03887Y00508*
X03887Y00508*
X03887Y00507*
X03887Y00507*
X03887Y00507*
X03887Y00506*
X03887Y00506*
X03887Y00506*
X03887Y00506*
X03887Y00505*
X03887Y00505*
X03887Y00505*
X03887Y00505*
X03887Y00504*
X03888Y00504*
X03888Y00504*
X03888Y00504*
X03888Y00504*
X03888Y00504*
X03889Y00503*
X03889Y00503*
X03889Y00503*
X03889Y00503*
X0389Y00503*
X0389Y00503*
X0389Y00503*
X03891*
X03891Y00503*
X03891Y00503*
X03891Y00503*
X03892Y00503*
X03892Y00503*
X03892Y00503*
X03892Y00504*
X03893Y00504*
X03893Y00504*
X03893Y00504*
X03893Y00504*
X03893Y00504*
X03894Y00505*
X03894Y00505*
X03894Y00505*
X03894Y00505*
X03894Y00506*
X03894Y00506*
X03894Y00506*
X03894Y00506*
X03894Y00507*
X03894Y00507*
X03944Y00557D02*
D01*
X03944Y00557*
X03944Y00558*
X03944Y00558*
X03944Y00558*
X03944Y00558*
X03944Y00559*
X03944Y00559*
X03944Y00559*
X03944Y00559*
X03943Y0056*
X03943Y0056*
X03943Y0056*
X03943Y0056*
X03943Y0056*
X03942Y0056*
X03942Y00561*
X03942Y00561*
X03942Y00561*
X03941Y00561*
X03941Y00561*
X03941Y00561*
X03941Y00561*
X0394*
X0394Y00561*
X0394Y00561*
X03939Y00561*
X03939Y00561*
X03939Y00561*
X03939Y00561*
X03938Y0056*
X03938Y0056*
X03938Y0056*
X03938Y0056*
X03938Y0056*
X03937Y0056*
X03937Y00559*
X03937Y00559*
X03937Y00559*
X03937Y00559*
X03937Y00558*
X03937Y00558*
X03937Y00558*
X03937Y00558*
X03937Y00557*
X03937Y00557*
X03937Y00557*
X03937Y00556*
X03937Y00556*
X03937Y00556*
X03937Y00556*
X03937Y00555*
X03937Y00555*
X03937Y00555*
X03937Y00555*
X03937Y00554*
X03938Y00554*
X03938Y00554*
X03938Y00554*
X03938Y00554*
X03938Y00554*
X03939Y00553*
X03939Y00553*
X03939Y00553*
X03939Y00553*
X0394Y00553*
X0394Y00553*
X0394Y00553*
X03941*
X03941Y00553*
X03941Y00553*
X03941Y00553*
X03942Y00553*
X03942Y00553*
X03942Y00553*
X03942Y00554*
X03943Y00554*
X03943Y00554*
X03943Y00554*
X03943Y00554*
X03943Y00554*
X03944Y00555*
X03944Y00555*
X03944Y00555*
X03944Y00555*
X03944Y00556*
X03944Y00556*
X03944Y00556*
X03944Y00556*
X03944Y00557*
X03944Y00557*
X03894D02*
D01*
X03894Y00557*
X03894Y00558*
X03894Y00558*
X03894Y00558*
X03894Y00558*
X03894Y00559*
X03894Y00559*
X03894Y00559*
X03894Y00559*
X03893Y0056*
X03893Y0056*
X03893Y0056*
X03893Y0056*
X03893Y0056*
X03892Y0056*
X03892Y00561*
X03892Y00561*
X03892Y00561*
X03891Y00561*
X03891Y00561*
X03891Y00561*
X03891Y00561*
X0389*
X0389Y00561*
X0389Y00561*
X03889Y00561*
X03889Y00561*
X03889Y00561*
X03889Y00561*
X03888Y0056*
X03888Y0056*
X03888Y0056*
X03888Y0056*
X03888Y0056*
X03887Y0056*
X03887Y00559*
X03887Y00559*
X03887Y00559*
X03887Y00559*
X03887Y00558*
X03887Y00558*
X03887Y00558*
X03887Y00558*
X03887Y00557*
X03887Y00557*
X03887Y00557*
X03887Y00556*
X03887Y00556*
X03887Y00556*
X03887Y00556*
X03887Y00555*
X03887Y00555*
X03887Y00555*
X03887Y00555*
X03887Y00554*
X03888Y00554*
X03888Y00554*
X03888Y00554*
X03888Y00554*
X03888Y00554*
X03889Y00553*
X03889Y00553*
X03889Y00553*
X03889Y00553*
X0389Y00553*
X0389Y00553*
X0389Y00553*
X03891*
X03891Y00553*
X03891Y00553*
X03891Y00553*
X03892Y00553*
X03892Y00553*
X03892Y00553*
X03892Y00554*
X03893Y00554*
X03893Y00554*
X03893Y00554*
X03893Y00554*
X03893Y00554*
X03894Y00555*
X03894Y00555*
X03894Y00555*
X03894Y00555*
X03894Y00556*
X03894Y00556*
X03894Y00556*
X03894Y00556*
X03894Y00557*
X03894Y00557*
X03944Y00607D02*
D01*
X03944Y00607*
X03944Y00608*
X03944Y00608*
X03944Y00608*
X03944Y00608*
X03944Y00609*
X03944Y00609*
X03944Y00609*
X03944Y00609*
X03943Y0061*
X03943Y0061*
X03943Y0061*
X03943Y0061*
X03943Y0061*
X03942Y0061*
X03942Y00611*
X03942Y00611*
X03942Y00611*
X03941Y00611*
X03941Y00611*
X03941Y00611*
X03941Y00611*
X0394*
X0394Y00611*
X0394Y00611*
X03939Y00611*
X03939Y00611*
X03939Y00611*
X03939Y00611*
X03938Y0061*
X03938Y0061*
X03938Y0061*
X03938Y0061*
X03938Y0061*
X03937Y0061*
X03937Y00609*
X03937Y00609*
X03937Y00609*
X03937Y00609*
X03937Y00608*
X03937Y00608*
X03937Y00608*
X03937Y00608*
X03937Y00607*
X03937Y00607*
X03937Y00607*
X03937Y00606*
X03937Y00606*
X03937Y00606*
X03937Y00606*
X03937Y00605*
X03937Y00605*
X03937Y00605*
X03937Y00605*
X03937Y00604*
X03938Y00604*
X03938Y00604*
X03938Y00604*
X03938Y00604*
X03938Y00604*
X03939Y00603*
X03939Y00603*
X03939Y00603*
X03939Y00603*
X0394Y00603*
X0394Y00603*
X0394Y00603*
X03941*
X03941Y00603*
X03941Y00603*
X03941Y00603*
X03942Y00603*
X03942Y00603*
X03942Y00603*
X03942Y00604*
X03943Y00604*
X03943Y00604*
X03943Y00604*
X03943Y00604*
X03943Y00604*
X03944Y00605*
X03944Y00605*
X03944Y00605*
X03944Y00605*
X03944Y00606*
X03944Y00606*
X03944Y00606*
X03944Y00606*
X03944Y00607*
X03944Y00607*
X03894D02*
D01*
X03894Y00607*
X03894Y00608*
X03894Y00608*
X03894Y00608*
X03894Y00608*
X03894Y00609*
X03894Y00609*
X03894Y00609*
X03894Y00609*
X03893Y0061*
X03893Y0061*
X03893Y0061*
X03893Y0061*
X03893Y0061*
X03892Y0061*
X03892Y00611*
X03892Y00611*
X03892Y00611*
X03891Y00611*
X03891Y00611*
X03891Y00611*
X03891Y00611*
X0389*
X0389Y00611*
X0389Y00611*
X03889Y00611*
X03889Y00611*
X03889Y00611*
X03889Y00611*
X03888Y0061*
X03888Y0061*
X03888Y0061*
X03888Y0061*
X03888Y0061*
X03887Y0061*
X03887Y00609*
X03887Y00609*
X03887Y00609*
X03887Y00609*
X03887Y00608*
X03887Y00608*
X03887Y00608*
X03887Y00608*
X03887Y00607*
X03887Y00607*
X03887Y00607*
X03887Y00606*
X03887Y00606*
X03887Y00606*
X03887Y00606*
X03887Y00605*
X03887Y00605*
X03887Y00605*
X03887Y00605*
X03887Y00604*
X03888Y00604*
X03888Y00604*
X03888Y00604*
X03888Y00604*
X03888Y00604*
X03889Y00603*
X03889Y00603*
X03889Y00603*
X03889Y00603*
X0389Y00603*
X0389Y00603*
X0389Y00603*
X03891*
X03891Y00603*
X03891Y00603*
X03891Y00603*
X03892Y00603*
X03892Y00603*
X03892Y00603*
X03892Y00604*
X03893Y00604*
X03893Y00604*
X03893Y00604*
X03893Y00604*
X03893Y00604*
X03894Y00605*
X03894Y00605*
X03894Y00605*
X03894Y00605*
X03894Y00606*
X03894Y00606*
X03894Y00606*
X03894Y00606*
X03894Y00607*
X03894Y00607*
X03944Y00657D02*
D01*
X03944Y00657*
X03944Y00658*
X03944Y00658*
X03944Y00658*
X03944Y00658*
X03944Y00659*
X03944Y00659*
X03944Y00659*
X03944Y00659*
X03943Y0066*
X03943Y0066*
X03943Y0066*
X03943Y0066*
X03943Y0066*
X03942Y0066*
X03942Y00661*
X03942Y00661*
X03942Y00661*
X03941Y00661*
X03941Y00661*
X03941Y00661*
X03941Y00661*
X0394*
X0394Y00661*
X0394Y00661*
X03939Y00661*
X03939Y00661*
X03939Y00661*
X03939Y00661*
X03938Y0066*
X03938Y0066*
X03938Y0066*
X03938Y0066*
X03938Y0066*
X03937Y0066*
X03937Y00659*
X03937Y00659*
X03937Y00659*
X03937Y00659*
X03937Y00658*
X03937Y00658*
X03937Y00658*
X03937Y00658*
X03937Y00657*
X03937Y00657*
X03937Y00657*
X03937Y00656*
X03937Y00656*
X03937Y00656*
X03937Y00656*
X03937Y00655*
X03937Y00655*
X03937Y00655*
X03937Y00655*
X03937Y00654*
X03938Y00654*
X03938Y00654*
X03938Y00654*
X03938Y00654*
X03938Y00654*
X03939Y00653*
X03939Y00653*
X03939Y00653*
X03939Y00653*
X0394Y00653*
X0394Y00653*
X0394Y00653*
X03941*
X03941Y00653*
X03941Y00653*
X03941Y00653*
X03942Y00653*
X03942Y00653*
X03942Y00653*
X03942Y00654*
X03943Y00654*
X03943Y00654*
X03943Y00654*
X03943Y00654*
X03943Y00654*
X03944Y00655*
X03944Y00655*
X03944Y00655*
X03944Y00655*
X03944Y00656*
X03944Y00656*
X03944Y00656*
X03944Y00656*
X03944Y00657*
X03944Y00657*
X03894D02*
D01*
X03894Y00657*
X03894Y00658*
X03894Y00658*
X03894Y00658*
X03894Y00658*
X03894Y00659*
X03894Y00659*
X03894Y00659*
X03894Y00659*
X03893Y0066*
X03893Y0066*
X03893Y0066*
X03893Y0066*
X03893Y0066*
X03892Y0066*
X03892Y00661*
X03892Y00661*
X03892Y00661*
X03891Y00661*
X03891Y00661*
X03891Y00661*
X03891Y00661*
X0389*
X0389Y00661*
X0389Y00661*
X03889Y00661*
X03889Y00661*
X03889Y00661*
X03889Y00661*
X03888Y0066*
X03888Y0066*
X03888Y0066*
X03888Y0066*
X03888Y0066*
X03887Y0066*
X03887Y00659*
X03887Y00659*
X03887Y00659*
X03887Y00659*
X03887Y00658*
X03887Y00658*
X03887Y00658*
X03887Y00658*
X03887Y00657*
X03887Y00657*
X03887Y00657*
X03887Y00656*
X03887Y00656*
X03887Y00656*
X03887Y00656*
X03887Y00655*
X03887Y00655*
X03887Y00655*
X03887Y00655*
X03887Y00654*
X03888Y00654*
X03888Y00654*
X03888Y00654*
X03888Y00654*
X03888Y00654*
X03889Y00653*
X03889Y00653*
X03889Y00653*
X03889Y00653*
X0389Y00653*
X0389Y00653*
X0389Y00653*
X03891*
X03891Y00653*
X03891Y00653*
X03891Y00653*
X03892Y00653*
X03892Y00653*
X03892Y00653*
X03892Y00654*
X03893Y00654*
X03893Y00654*
X03893Y00654*
X03893Y00654*
X03893Y00654*
X03894Y00655*
X03894Y00655*
X03894Y00655*
X03894Y00655*
X03894Y00656*
X03894Y00656*
X03894Y00656*
X03894Y00656*
X03894Y00657*
X03894Y00657*
X01961Y02805D02*
D01*
X01961Y02806*
X0196Y02806*
X0196Y02806*
X0196Y02806*
X0196Y02807*
X0196Y02807*
X0196Y02807*
X0196Y02807*
X0196Y02808*
X0196Y02808*
X01959Y02808*
X01959Y02808*
X01959Y02809*
X01959Y02809*
X01959Y02809*
X01958Y02809*
X01958Y02809*
X01958Y02809*
X01958Y02809*
X01957Y02809*
X01957Y02809*
X01957Y02809*
X01956*
X01956Y02809*
X01956Y02809*
X01956Y02809*
X01955Y02809*
X01955Y02809*
X01955Y02809*
X01955Y02809*
X01954Y02809*
X01954Y02809*
X01954Y02808*
X01954Y02808*
X01954Y02808*
X01953Y02808*
X01953Y02807*
X01953Y02807*
X01953Y02807*
X01953Y02807*
X01953Y02806*
X01953Y02806*
X01953Y02806*
X01953Y02806*
X01953Y02805*
X01953Y02805*
X01953Y02805*
X01953Y02805*
X01953Y02804*
X01953Y02804*
X01953Y02804*
X01953Y02804*
X01953Y02803*
X01953Y02803*
X01954Y02803*
X01954Y02803*
X01954Y02802*
X01954Y02802*
X01954Y02802*
X01955Y02802*
X01955Y02802*
X01955Y02802*
X01955Y02802*
X01956Y02802*
X01956Y02802*
X01956Y02801*
X01956Y02801*
X01957*
X01957Y02801*
X01957Y02802*
X01958Y02802*
X01958Y02802*
X01958Y02802*
X01958Y02802*
X01959Y02802*
X01959Y02802*
X01959Y02802*
X01959Y02802*
X01959Y02803*
X0196Y02803*
X0196Y02803*
X0196Y02803*
X0196Y02804*
X0196Y02804*
X0196Y02804*
X0196Y02804*
X0196Y02805*
X0196Y02805*
X01961Y02805*
X01961Y02805*
Y02755D02*
D01*
X01961Y02756*
X0196Y02756*
X0196Y02756*
X0196Y02756*
X0196Y02757*
X0196Y02757*
X0196Y02757*
X0196Y02757*
X0196Y02758*
X0196Y02758*
X01959Y02758*
X01959Y02758*
X01959Y02759*
X01959Y02759*
X01959Y02759*
X01958Y02759*
X01958Y02759*
X01958Y02759*
X01958Y02759*
X01957Y02759*
X01957Y02759*
X01957Y02759*
X01956*
X01956Y02759*
X01956Y02759*
X01956Y02759*
X01955Y02759*
X01955Y02759*
X01955Y02759*
X01955Y02759*
X01954Y02759*
X01954Y02759*
X01954Y02758*
X01954Y02758*
X01954Y02758*
X01953Y02758*
X01953Y02757*
X01953Y02757*
X01953Y02757*
X01953Y02757*
X01953Y02756*
X01953Y02756*
X01953Y02756*
X01953Y02756*
X01953Y02755*
X01953Y02755*
X01953Y02755*
X01953Y02755*
X01953Y02754*
X01953Y02754*
X01953Y02754*
X01953Y02754*
X01953Y02753*
X01953Y02753*
X01954Y02753*
X01954Y02753*
X01954Y02752*
X01954Y02752*
X01954Y02752*
X01955Y02752*
X01955Y02752*
X01955Y02752*
X01955Y02752*
X01956Y02752*
X01956Y02752*
X01956Y02751*
X01956Y02751*
X01957*
X01957Y02751*
X01957Y02752*
X01958Y02752*
X01958Y02752*
X01958Y02752*
X01958Y02752*
X01959Y02752*
X01959Y02752*
X01959Y02752*
X01959Y02752*
X01959Y02753*
X0196Y02753*
X0196Y02753*
X0196Y02753*
X0196Y02754*
X0196Y02754*
X0196Y02754*
X0196Y02754*
X0196Y02755*
X0196Y02755*
X01961Y02755*
X01961Y02755*
X01911Y02805D02*
D01*
X01911Y02806*
X0191Y02806*
X0191Y02806*
X0191Y02806*
X0191Y02807*
X0191Y02807*
X0191Y02807*
X0191Y02807*
X0191Y02808*
X0191Y02808*
X01909Y02808*
X01909Y02808*
X01909Y02809*
X01909Y02809*
X01909Y02809*
X01908Y02809*
X01908Y02809*
X01908Y02809*
X01908Y02809*
X01907Y02809*
X01907Y02809*
X01907Y02809*
X01906*
X01906Y02809*
X01906Y02809*
X01906Y02809*
X01905Y02809*
X01905Y02809*
X01905Y02809*
X01905Y02809*
X01904Y02809*
X01904Y02809*
X01904Y02808*
X01904Y02808*
X01904Y02808*
X01903Y02808*
X01903Y02807*
X01903Y02807*
X01903Y02807*
X01903Y02807*
X01903Y02806*
X01903Y02806*
X01903Y02806*
X01903Y02806*
X01903Y02805*
X01903Y02805*
X01903Y02805*
X01903Y02805*
X01903Y02804*
X01903Y02804*
X01903Y02804*
X01903Y02804*
X01903Y02803*
X01903Y02803*
X01904Y02803*
X01904Y02803*
X01904Y02802*
X01904Y02802*
X01904Y02802*
X01905Y02802*
X01905Y02802*
X01905Y02802*
X01905Y02802*
X01906Y02802*
X01906Y02802*
X01906Y02801*
X01906Y02801*
X01907*
X01907Y02801*
X01907Y02802*
X01908Y02802*
X01908Y02802*
X01908Y02802*
X01908Y02802*
X01909Y02802*
X01909Y02802*
X01909Y02802*
X01909Y02802*
X01909Y02803*
X0191Y02803*
X0191Y02803*
X0191Y02803*
X0191Y02804*
X0191Y02804*
X0191Y02804*
X0191Y02804*
X0191Y02805*
X0191Y02805*
X01911Y02805*
X01911Y02805*
Y02755D02*
D01*
X01911Y02756*
X0191Y02756*
X0191Y02756*
X0191Y02756*
X0191Y02757*
X0191Y02757*
X0191Y02757*
X0191Y02757*
X0191Y02758*
X0191Y02758*
X01909Y02758*
X01909Y02758*
X01909Y02759*
X01909Y02759*
X01909Y02759*
X01908Y02759*
X01908Y02759*
X01908Y02759*
X01908Y02759*
X01907Y02759*
X01907Y02759*
X01907Y02759*
X01906*
X01906Y02759*
X01906Y02759*
X01906Y02759*
X01905Y02759*
X01905Y02759*
X01905Y02759*
X01905Y02759*
X01904Y02759*
X01904Y02759*
X01904Y02758*
X01904Y02758*
X01904Y02758*
X01903Y02758*
X01903Y02757*
X01903Y02757*
X01903Y02757*
X01903Y02757*
X01903Y02756*
X01903Y02756*
X01903Y02756*
X01903Y02756*
X01903Y02755*
X01903Y02755*
X01903Y02755*
X01903Y02755*
X01903Y02754*
X01903Y02754*
X01903Y02754*
X01903Y02754*
X01903Y02753*
X01903Y02753*
X01904Y02753*
X01904Y02753*
X01904Y02752*
X01904Y02752*
X01904Y02752*
X01905Y02752*
X01905Y02752*
X01905Y02752*
X01905Y02752*
X01906Y02752*
X01906Y02752*
X01906Y02751*
X01906Y02751*
X01907*
X01907Y02751*
X01907Y02752*
X01908Y02752*
X01908Y02752*
X01908Y02752*
X01908Y02752*
X01909Y02752*
X01909Y02752*
X01909Y02752*
X01909Y02752*
X01909Y02753*
X0191Y02753*
X0191Y02753*
X0191Y02753*
X0191Y02754*
X0191Y02754*
X0191Y02754*
X0191Y02754*
X0191Y02755*
X0191Y02755*
X01911Y02755*
X01911Y02755*
X01861Y02805D02*
D01*
X01861Y02806*
X0186Y02806*
X0186Y02806*
X0186Y02806*
X0186Y02807*
X0186Y02807*
X0186Y02807*
X0186Y02807*
X0186Y02808*
X0186Y02808*
X01859Y02808*
X01859Y02808*
X01859Y02809*
X01859Y02809*
X01859Y02809*
X01858Y02809*
X01858Y02809*
X01858Y02809*
X01858Y02809*
X01857Y02809*
X01857Y02809*
X01857Y02809*
X01856*
X01856Y02809*
X01856Y02809*
X01856Y02809*
X01855Y02809*
X01855Y02809*
X01855Y02809*
X01855Y02809*
X01854Y02809*
X01854Y02809*
X01854Y02808*
X01854Y02808*
X01854Y02808*
X01853Y02808*
X01853Y02807*
X01853Y02807*
X01853Y02807*
X01853Y02807*
X01853Y02806*
X01853Y02806*
X01853Y02806*
X01853Y02806*
X01853Y02805*
X01853Y02805*
X01853Y02805*
X01853Y02805*
X01853Y02804*
X01853Y02804*
X01853Y02804*
X01853Y02804*
X01853Y02803*
X01853Y02803*
X01854Y02803*
X01854Y02803*
X01854Y02802*
X01854Y02802*
X01854Y02802*
X01855Y02802*
X01855Y02802*
X01855Y02802*
X01855Y02802*
X01856Y02802*
X01856Y02802*
X01856Y02801*
X01856Y02801*
X01857*
X01857Y02801*
X01857Y02802*
X01858Y02802*
X01858Y02802*
X01858Y02802*
X01858Y02802*
X01859Y02802*
X01859Y02802*
X01859Y02802*
X01859Y02802*
X01859Y02803*
X0186Y02803*
X0186Y02803*
X0186Y02803*
X0186Y02804*
X0186Y02804*
X0186Y02804*
X0186Y02804*
X0186Y02805*
X0186Y02805*
X01861Y02805*
X01861Y02805*
Y02755D02*
D01*
X01861Y02756*
X0186Y02756*
X0186Y02756*
X0186Y02756*
X0186Y02757*
X0186Y02757*
X0186Y02757*
X0186Y02757*
X0186Y02758*
X0186Y02758*
X01859Y02758*
X01859Y02758*
X01859Y02759*
X01859Y02759*
X01859Y02759*
X01858Y02759*
X01858Y02759*
X01858Y02759*
X01858Y02759*
X01857Y02759*
X01857Y02759*
X01857Y02759*
X01856*
X01856Y02759*
X01856Y02759*
X01856Y02759*
X01855Y02759*
X01855Y02759*
X01855Y02759*
X01855Y02759*
X01854Y02759*
X01854Y02759*
X01854Y02758*
X01854Y02758*
X01854Y02758*
X01853Y02758*
X01853Y02757*
X01853Y02757*
X01853Y02757*
X01853Y02757*
X01853Y02756*
X01853Y02756*
X01853Y02756*
X01853Y02756*
X01853Y02755*
X01853Y02755*
X01853Y02755*
X01853Y02755*
X01853Y02754*
X01853Y02754*
X01853Y02754*
X01853Y02754*
X01853Y02753*
X01853Y02753*
X01854Y02753*
X01854Y02753*
X01854Y02752*
X01854Y02752*
X01854Y02752*
X01855Y02752*
X01855Y02752*
X01855Y02752*
X01855Y02752*
X01856Y02752*
X01856Y02752*
X01856Y02751*
X01856Y02751*
X01857*
X01857Y02751*
X01857Y02752*
X01858Y02752*
X01858Y02752*
X01858Y02752*
X01858Y02752*
X01859Y02752*
X01859Y02752*
X01859Y02752*
X01859Y02752*
X01859Y02753*
X0186Y02753*
X0186Y02753*
X0186Y02753*
X0186Y02754*
X0186Y02754*
X0186Y02754*
X0186Y02754*
X0186Y02755*
X0186Y02755*
X01861Y02755*
X01861Y02755*
X01811Y02805D02*
D01*
X01811Y02806*
X0181Y02806*
X0181Y02806*
X0181Y02806*
X0181Y02807*
X0181Y02807*
X0181Y02807*
X0181Y02807*
X0181Y02808*
X0181Y02808*
X01809Y02808*
X01809Y02808*
X01809Y02809*
X01809Y02809*
X01809Y02809*
X01808Y02809*
X01808Y02809*
X01808Y02809*
X01808Y02809*
X01807Y02809*
X01807Y02809*
X01807Y02809*
X01806*
X01806Y02809*
X01806Y02809*
X01806Y02809*
X01805Y02809*
X01805Y02809*
X01805Y02809*
X01805Y02809*
X01804Y02809*
X01804Y02809*
X01804Y02808*
X01804Y02808*
X01804Y02808*
X01803Y02808*
X01803Y02807*
X01803Y02807*
X01803Y02807*
X01803Y02807*
X01803Y02806*
X01803Y02806*
X01803Y02806*
X01803Y02806*
X01803Y02805*
X01803Y02805*
X01803Y02805*
X01803Y02805*
X01803Y02804*
X01803Y02804*
X01803Y02804*
X01803Y02804*
X01803Y02803*
X01803Y02803*
X01804Y02803*
X01804Y02803*
X01804Y02802*
X01804Y02802*
X01804Y02802*
X01805Y02802*
X01805Y02802*
X01805Y02802*
X01805Y02802*
X01806Y02802*
X01806Y02802*
X01806Y02801*
X01806Y02801*
X01807*
X01807Y02801*
X01807Y02802*
X01808Y02802*
X01808Y02802*
X01808Y02802*
X01808Y02802*
X01809Y02802*
X01809Y02802*
X01809Y02802*
X01809Y02802*
X01809Y02803*
X0181Y02803*
X0181Y02803*
X0181Y02803*
X0181Y02804*
X0181Y02804*
X0181Y02804*
X0181Y02804*
X0181Y02805*
X0181Y02805*
X01811Y02805*
X01811Y02805*
Y02755D02*
D01*
X01811Y02756*
X0181Y02756*
X0181Y02756*
X0181Y02756*
X0181Y02757*
X0181Y02757*
X0181Y02757*
X0181Y02757*
X0181Y02758*
X0181Y02758*
X01809Y02758*
X01809Y02758*
X01809Y02759*
X01809Y02759*
X01809Y02759*
X01808Y02759*
X01808Y02759*
X01808Y02759*
X01808Y02759*
X01807Y02759*
X01807Y02759*
X01807Y02759*
X01806*
X01806Y02759*
X01806Y02759*
X01806Y02759*
X01805Y02759*
X01805Y02759*
X01805Y02759*
X01805Y02759*
X01804Y02759*
X01804Y02759*
X01804Y02758*
X01804Y02758*
X01804Y02758*
X01803Y02758*
X01803Y02757*
X01803Y02757*
X01803Y02757*
X01803Y02757*
X01803Y02756*
X01803Y02756*
X01803Y02756*
X01803Y02756*
X01803Y02755*
X01803Y02755*
X01803Y02755*
X01803Y02755*
X01803Y02754*
X01803Y02754*
X01803Y02754*
X01803Y02754*
X01803Y02753*
X01803Y02753*
X01804Y02753*
X01804Y02753*
X01804Y02752*
X01804Y02752*
X01804Y02752*
X01805Y02752*
X01805Y02752*
X01805Y02752*
X01805Y02752*
X01806Y02752*
X01806Y02752*
X01806Y02751*
X01806Y02751*
X01807*
X01807Y02751*
X01807Y02752*
X01808Y02752*
X01808Y02752*
X01808Y02752*
X01808Y02752*
X01809Y02752*
X01809Y02752*
X01809Y02752*
X01809Y02752*
X01809Y02753*
X0181Y02753*
X0181Y02753*
X0181Y02753*
X0181Y02754*
X0181Y02754*
X0181Y02754*
X0181Y02754*
X0181Y02755*
X0181Y02755*
X01811Y02755*
X01811Y02755*
X01761Y02805D02*
D01*
X01761Y02806*
X0176Y02806*
X0176Y02806*
X0176Y02806*
X0176Y02807*
X0176Y02807*
X0176Y02807*
X0176Y02807*
X0176Y02808*
X0176Y02808*
X01759Y02808*
X01759Y02808*
X01759Y02809*
X01759Y02809*
X01759Y02809*
X01758Y02809*
X01758Y02809*
X01758Y02809*
X01758Y02809*
X01757Y02809*
X01757Y02809*
X01757Y02809*
X01756*
X01756Y02809*
X01756Y02809*
X01756Y02809*
X01755Y02809*
X01755Y02809*
X01755Y02809*
X01755Y02809*
X01754Y02809*
X01754Y02809*
X01754Y02808*
X01754Y02808*
X01754Y02808*
X01753Y02808*
X01753Y02807*
X01753Y02807*
X01753Y02807*
X01753Y02807*
X01753Y02806*
X01753Y02806*
X01753Y02806*
X01753Y02806*
X01753Y02805*
X01753Y02805*
X01753Y02805*
X01753Y02805*
X01753Y02804*
X01753Y02804*
X01753Y02804*
X01753Y02804*
X01753Y02803*
X01753Y02803*
X01754Y02803*
X01754Y02803*
X01754Y02802*
X01754Y02802*
X01754Y02802*
X01755Y02802*
X01755Y02802*
X01755Y02802*
X01755Y02802*
X01756Y02802*
X01756Y02802*
X01756Y02801*
X01756Y02801*
X01757*
X01757Y02801*
X01757Y02802*
X01758Y02802*
X01758Y02802*
X01758Y02802*
X01758Y02802*
X01759Y02802*
X01759Y02802*
X01759Y02802*
X01759Y02802*
X01759Y02803*
X0176Y02803*
X0176Y02803*
X0176Y02803*
X0176Y02804*
X0176Y02804*
X0176Y02804*
X0176Y02804*
X0176Y02805*
X0176Y02805*
X01761Y02805*
X01761Y02805*
Y02755D02*
D01*
X01761Y02756*
X0176Y02756*
X0176Y02756*
X0176Y02756*
X0176Y02757*
X0176Y02757*
X0176Y02757*
X0176Y02757*
X0176Y02758*
X0176Y02758*
X01759Y02758*
X01759Y02758*
X01759Y02759*
X01759Y02759*
X01759Y02759*
X01758Y02759*
X01758Y02759*
X01758Y02759*
X01758Y02759*
X01757Y02759*
X01757Y02759*
X01757Y02759*
X01756*
X01756Y02759*
X01756Y02759*
X01756Y02759*
X01755Y02759*
X01755Y02759*
X01755Y02759*
X01755Y02759*
X01754Y02759*
X01754Y02759*
X01754Y02758*
X01754Y02758*
X01754Y02758*
X01753Y02758*
X01753Y02757*
X01753Y02757*
X01753Y02757*
X01753Y02757*
X01753Y02756*
X01753Y02756*
X01753Y02756*
X01753Y02756*
X01753Y02755*
X01753Y02755*
X01753Y02755*
X01753Y02755*
X01753Y02754*
X01753Y02754*
X01753Y02754*
X01753Y02754*
X01753Y02753*
X01753Y02753*
X01754Y02753*
X01754Y02753*
X01754Y02752*
X01754Y02752*
X01754Y02752*
X01755Y02752*
X01755Y02752*
X01755Y02752*
X01755Y02752*
X01756Y02752*
X01756Y02752*
X01756Y02751*
X01756Y02751*
X01757*
X01757Y02751*
X01757Y02752*
X01758Y02752*
X01758Y02752*
X01758Y02752*
X01758Y02752*
X01759Y02752*
X01759Y02752*
X01759Y02752*
X01759Y02752*
X01759Y02753*
X0176Y02753*
X0176Y02753*
X0176Y02753*
X0176Y02754*
X0176Y02754*
X0176Y02754*
X0176Y02754*
X0176Y02755*
X0176Y02755*
X01761Y02755*
X01761Y02755*
M02*