%FSTAX23Y23*%
%MOIN*%
%SFA1B1*%

%IPPOS*%
%ADD10C,0.007874*%
%ADD14C,0.003937*%
%ADD15C,0.005118*%
%ADD16C,0.007874*%
%ADD18C,0.000000*%
%ADD19C,0.001969*%
%ADD20R,0.031496X0.037401*%
%ADD21R,0.060236X0.025591*%
%ADD22R,0.039370X0.031496*%
%ADD23R,0.011811X0.061024*%
%ADD24R,0.047244X0.108268*%
%ADD25R,0.058268X0.011811*%
%ADD26R,0.011811X0.058268*%
%ADD27R,0.039370X0.039370*%
%ADD28R,0.039370X0.039370*%
%ADD29C,0.039370*%
%ADD30R,0.086614X0.053150*%
%ADD31R,0.031496X0.013780*%
%ADD32R,0.028346X0.027165*%
%ADD33R,0.035433X0.025591*%
%ADD34R,0.023622X0.029527*%
%ADD35R,0.059055X0.051181*%
%ADD36R,0.031496X0.037008*%
%ADD37C,0.009843*%
%ADD38R,0.031890X0.037008*%
%ADD39R,0.055118X0.039370*%
%ADD40R,0.037401X0.031496*%
%ADD41R,0.053150X0.015748*%
%ADD42R,0.074803X0.074803*%
%ADD43R,0.037008X0.031496*%
%ADD44R,0.038583X0.033858*%
%ADD45R,0.017716X0.058268*%
%ADD46R,0.051181X0.070866*%
%ADD47R,0.035433X0.047244*%
%ADD48R,0.051181X0.059055*%
%ADD49R,0.025591X0.035433*%
%ADD50R,0.037008X0.031890*%
%ADD51R,0.031496X0.039370*%
%ADD52R,0.083464X0.051575*%
%ADD53R,0.009843X0.035433*%
%ADD54R,0.040157X0.057874*%
%ADD55R,0.040157X0.071653*%
%ADD56R,0.074803X0.055118*%
%ADD57R,0.029527X0.023622*%
%ADD58R,0.019685X0.039370*%
%LNshm_pcb-1*%
%LPD*%
G36*
X01027Y01114D02*
X01027D01*
X01027*
Y01113*
X01028*
X01028*
X01029Y01112*
X01029*
X0103Y01112*
Y01112*
X0103Y01111*
X01031Y01111*
Y0111*
X01031*
Y0111*
Y01109*
Y01109*
Y01093*
Y01093*
Y01092*
X01031*
Y01092*
X0103Y01091*
Y01091*
X0103*
Y0109*
X01029Y0109*
X01029*
Y0109*
X01029*
X01028Y01089*
X01028Y01089*
X01027*
X01027*
X01026*
Y01088*
X01026*
X01025*
X0093*
X0093*
X00929*
Y01089*
X00929*
X00928*
X00928*
Y01089*
X00927*
X00927Y0109*
X00927*
Y0109*
X00926*
Y0109*
X00926*
Y01091*
X00925*
Y01091*
Y01092*
X00925*
Y01092*
X00925*
Y01093*
Y01093*
Y01109*
Y01109*
Y0111*
Y0111*
X00925*
Y01111*
X00925*
Y01111*
X00926Y01112*
X00926Y01112*
Y01112*
X00927*
X00927Y01113*
X00928*
X00928*
X00929Y01114*
X00929*
X0093*
X0093*
X01025*
X01026*
X01027*
G37*
G36*
X00227D02*
X00228D01*
X00228*
Y01113*
X00229*
X00229*
X0023Y01112*
X0023*
X00231Y01112*
Y01112*
X00231Y01111*
X00231Y01111*
Y0111*
X00232*
Y0111*
Y01109*
Y01109*
Y01093*
Y01093*
Y01092*
X00231*
Y01092*
X00231Y01091*
Y01091*
X00231*
Y0109*
X0023Y0109*
X0023*
Y0109*
X00229*
X00229Y01089*
X00229Y01089*
X00228*
X00228*
X00227*
Y01088*
X00227*
X00226*
X00131*
X00131*
X0013*
Y01089*
X00129*
X00129*
X00129*
Y01089*
X00128*
X00128Y0109*
X00127*
Y0109*
X00127*
Y0109*
X00127*
Y01091*
X00126*
Y01091*
Y01092*
X00126*
Y01092*
X00125*
Y01093*
Y01093*
Y01109*
Y01109*
Y0111*
Y0111*
X00126*
Y01111*
X00126*
Y01111*
X00127Y01112*
X00127Y01112*
Y01112*
X00127*
X00128Y01113*
X00129*
X00129*
X00129Y01114*
X0013*
X00131*
X00131*
X00226*
X00227*
X00227*
G37*
G36*
X00814Y01122D02*
X00814D01*
X00815*
X00816*
X00817Y01121*
X00818Y01121*
X00819Y0112*
X0082Y0112*
X00821Y0112*
X00822Y01119*
X00823Y01119*
X00824Y01118*
X00824Y01118*
X00825Y01117*
X00825Y01116*
X00826Y01116*
X00827Y01115*
X00827Y01114*
X00828Y01113*
X00829Y01112*
X00829Y01112*
X00829Y01111*
X0083Y0111*
X0083Y01109*
X00831Y01108*
Y01107*
X00831Y01106*
Y01105*
Y01104*
Y01103*
Y01102*
Y01101*
Y011*
X00831Y011*
Y01098*
X0083Y01098*
X0083Y01096*
X00829Y01096*
X00829Y01095*
X00829Y01094*
X00828Y01093*
X00827Y01092*
X00827Y01092*
X00826Y01091*
X00825Y0109*
X00825Y01089*
X00824Y01089*
X00824Y01088*
X00823Y01088*
X00822Y01087*
X00821Y01087*
X0082Y01086*
X00819Y01086*
X00818Y01085*
X00817*
X00816Y01085*
X00815*
X00814Y01085*
X00814*
X00812*
X00812*
X00811*
X0081Y01085*
X00809*
X00808Y01085*
X00807*
X00806Y01086*
X00805Y01086*
X00804Y01087*
X00803Y01087*
X00803Y01087*
X00802Y01088*
X00801Y01088*
X008Y01089*
X008Y0109*
X00799Y0109*
X00798Y01091*
X00798Y01092*
X00797Y01093*
X00797Y01094*
X00796Y01094*
X00796Y01095*
X00795Y01096*
X00795Y01097*
Y01098*
X00794Y01099*
Y011*
X00794Y01101*
Y01102*
Y01103*
X00812*
Y01103*
X00794*
Y01104*
Y01105*
Y01106*
X00794Y01107*
Y01108*
X00795Y01109*
X00795Y0111*
X00796Y01111*
X00796Y01112*
X00796Y01112*
X00797Y01113*
X00798Y01114*
X00798Y01115*
X00799Y01116*
X008Y01116*
X008Y01117*
X00801Y01118*
X00801Y01118*
X00802Y01119*
X00803Y01119*
X00804Y0112*
X00805Y0112*
X00806Y0112*
X00807Y01121*
X00808Y01121*
X00809Y01122*
X0081*
X00811*
X00812*
X00812Y01122*
X00814Y01122*
G37*
G36*
X00747D02*
X00748D01*
X00748*
X0075*
X0075Y01121*
X00751Y01121*
X00752Y0112*
X00753Y0112*
X00754Y0112*
X00755Y01119*
X00756Y01119*
X00757Y01118*
X00757Y01118*
X00758Y01117*
X00759Y01116*
X00759Y01116*
X0076Y01115*
X00761Y01114*
X00761Y01113*
X00762Y01112*
X00762Y01112*
X00762Y01111*
X00763Y0111*
X00763Y01109*
X00764Y01108*
Y01107*
X00764Y01106*
Y01105*
Y01104*
Y01103*
Y01102*
Y01101*
Y011*
X00764Y011*
Y01098*
X00763Y01098*
X00763Y01096*
X00762Y01096*
X00762Y01095*
X00762Y01094*
X00761Y01093*
X00761Y01092*
X0076Y01092*
X00759Y01091*
X00759Y0109*
X00758Y01089*
X00757Y01089*
X00757Y01088*
X00756Y01088*
X00755Y01087*
X00754Y01087*
X00753Y01086*
X00752Y01086*
X00751Y01085*
X0075*
X0075Y01085*
X00748*
X00748Y01085*
X00747*
X00746*
X00745*
X00744*
X00743Y01085*
X00742*
X00741Y01085*
X0074*
X00739Y01086*
X00738Y01086*
X00737Y01087*
X00737Y01087*
X00736Y01087*
X00735Y01088*
X00734Y01088*
X00733Y01089*
X00733Y0109*
X00732Y0109*
X00731Y01091*
X00731Y01092*
X0073Y01093*
X0073Y01094*
X00729Y01094*
X00729Y01095*
X00728Y01096*
X00728Y01097*
Y01098*
X00727Y01099*
Y011*
X00727Y01101*
Y01102*
Y01103*
X00746*
Y01103*
X00727*
Y01104*
Y01105*
Y01106*
X00727Y01107*
Y01108*
X00728Y01109*
X00728Y0111*
X00729Y01111*
X00729Y01112*
X00729Y01112*
X0073Y01113*
X00731Y01114*
X00731Y01115*
X00732Y01116*
X00733Y01116*
X00733Y01117*
X00734Y01118*
X00735Y01118*
X00735Y01119*
X00736Y01119*
X00737Y0112*
X00738Y0112*
X00739Y0112*
X0074Y01121*
X00741Y01121*
X00742Y01122*
X00743*
X00744*
X00745*
X00746Y01122*
X00747Y01122*
G37*
G36*
X00412D02*
X00413D01*
X00414*
X00415*
X00416Y01121*
X00417Y01121*
X00418Y0112*
X00418Y0112*
X00419Y0112*
X0042Y01119*
X00421Y01119*
X00422Y01118*
X00423Y01118*
X00424Y01117*
X00424Y01116*
X00425Y01116*
X00425Y01115*
X00426Y01114*
X00427Y01113*
X00427Y01112*
X00427Y01112*
X00428Y01111*
X00428Y0111*
X00429Y01109*
X00429Y01108*
Y01107*
X00429Y01106*
Y01105*
Y01104*
Y01103*
Y01102*
Y01101*
Y011*
X00429Y011*
Y01098*
X00429Y01098*
X00428Y01096*
X00428Y01096*
X00427Y01095*
X00427Y01094*
X00427Y01093*
X00426Y01092*
X00425Y01092*
X00425Y01091*
X00424Y0109*
X00424Y01089*
X00423Y01089*
X00422Y01088*
X00421Y01088*
X0042Y01087*
X00419Y01087*
X00418Y01086*
X00418Y01086*
X00417Y01085*
X00416*
X00415Y01085*
X00414*
X00413Y01085*
X00412*
X00411*
X0041*
X00409*
X00408Y01085*
X00407*
X00406Y01085*
X00405*
X00405Y01086*
X00403Y01086*
X00403Y01087*
X00402Y01087*
X00401Y01087*
X004Y01088*
X004Y01088*
X00399Y01089*
X00398Y0109*
X00397Y0109*
X00397Y01091*
X00396Y01092*
X00396Y01093*
X00395Y01094*
X00394Y01094*
X00394Y01095*
X00394Y01096*
X00393Y01097*
Y01098*
X00393Y01099*
Y011*
X00392Y01101*
Y01102*
Y01103*
X00411*
Y01103*
X00392*
Y01104*
Y01105*
Y01106*
X00393Y01107*
Y01108*
X00393Y01109*
X00394Y0111*
X00394Y01111*
X00394Y01112*
X00395Y01112*
X00395Y01113*
X00396Y01114*
X00396Y01115*
X00397Y01116*
X00398Y01116*
X00398Y01117*
X00399Y01118*
X004Y01118*
X00401Y01119*
X00401Y01119*
X00403Y0112*
X00403Y0112*
X00404Y0112*
X00405Y01121*
X00406Y01121*
X00407Y01122*
X00408*
X00409*
X0041*
X00411Y01122*
X00412Y01122*
G37*
G36*
X00345D02*
X00346D01*
X00347*
X00348*
X00349Y01121*
X0035Y01121*
X00351Y0112*
X00351Y0112*
X00352Y0112*
X00353Y01119*
X00354Y01119*
X00355Y01118*
X00356Y01118*
X00357Y01117*
X00357Y01116*
X00358Y01116*
X00359Y01115*
X00359Y01114*
X0036Y01113*
X0036Y01112*
X00361Y01112*
X00361Y01111*
X00361Y0111*
X00362Y01109*
X00362Y01108*
Y01107*
X00362Y01106*
Y01105*
Y01104*
Y01103*
Y01102*
Y01101*
Y011*
X00362Y011*
Y01098*
X00362Y01098*
X00361Y01096*
X00361Y01096*
X00361Y01095*
X0036Y01094*
X0036Y01093*
X00359Y01092*
X00359Y01092*
X00358Y01091*
X00357Y0109*
X00357Y01089*
X00356Y01089*
X00355Y01088*
X00354Y01088*
X00353Y01087*
X00352Y01087*
X00351Y01086*
X00351Y01086*
X0035Y01085*
X00349*
X00348Y01085*
X00347*
X00346Y01085*
X00345*
X00344*
X00343*
X00342*
X00341Y01085*
X0034*
X00339Y01085*
X00338*
X00338Y01086*
X00337Y01086*
X00336Y01087*
X00335Y01087*
X00334Y01087*
X00333Y01088*
X00333Y01088*
X00332Y01089*
X00331Y0109*
X0033Y0109*
X0033Y01091*
X00329Y01092*
X00329Y01093*
X00328Y01094*
X00327Y01094*
X00327Y01095*
X00327Y01096*
X00326Y01097*
Y01098*
X00326Y01099*
Y011*
X00325Y01101*
Y01102*
Y01103*
X00344*
Y01103*
X00325*
Y01104*
Y01105*
Y01106*
X00326Y01107*
Y01108*
X00326Y01109*
X00327Y0111*
X00327Y01111*
X00327Y01112*
X00328Y01112*
X00328Y01113*
X00329Y01114*
X00329Y01115*
X0033Y01116*
X00331Y01116*
X00331Y01117*
X00332Y01118*
X00333Y01118*
X00334Y01119*
X00335Y01119*
X00336Y0112*
X00337Y0112*
X00337Y0112*
X00338Y01121*
X00339Y01121*
X0034Y01122*
X00341*
X00342*
X00343*
X00344Y01122*
X00345Y01122*
G37*
G36*
X01026Y0107D02*
X01027D01*
X01027*
X01027*
Y0107*
X01028*
X01028*
X01029Y01069*
X01029*
X0103Y01069*
Y01068*
X0103Y01068*
X01031Y01068*
Y01067*
X01031*
Y01066*
Y01066*
Y01066*
Y0105*
Y0105*
Y01049*
X01031*
Y01048*
X0103Y01048*
Y01048*
X0103*
Y01047*
X01029Y01047*
X01029*
Y01046*
X01029*
X01028Y01046*
X01028Y01046*
X01027*
X01027*
X01027*
X01026*
X01026Y01045*
X01025*
X0093*
X0093*
X00929Y01046*
X00929*
X00929*
X00928*
X00928*
Y01046*
X00927*
X00927Y01046*
X00927*
Y01047*
X00926*
Y01047*
X00926*
Y01048*
X00925*
Y01048*
Y01048*
X00925*
Y01049*
X00925*
Y0105*
Y0105*
Y01066*
Y01066*
Y01066*
Y01067*
X00925*
Y01068*
X00925*
Y01068*
X00926Y01068*
X00926Y01069*
Y01069*
X00927*
X00927Y0107*
X00928*
X00928*
X00929Y0107*
X00929*
X00929*
X0093*
X0093*
X01025*
X01026*
X01026*
G37*
G36*
X00227D02*
X00227D01*
X00228*
X00228*
Y0107*
X00229*
X00229*
X0023Y01069*
X0023*
X00231Y01069*
Y01068*
X00231Y01068*
X00231Y01068*
Y01067*
X00232*
Y01066*
Y01066*
Y01066*
Y0105*
Y0105*
Y01049*
X00231*
Y01048*
X00231Y01048*
Y01048*
X00231*
Y01047*
X0023Y01047*
X0023*
Y01046*
X00229*
X00229Y01046*
X00229Y01046*
X00228*
X00228*
X00227*
X00227*
X00227Y01045*
X00226*
X00131*
X00131*
X0013Y01046*
X0013*
X00129*
X00129*
X00129*
Y01046*
X00128*
X00128Y01046*
X00127*
Y01047*
X00127*
Y01047*
X00127*
Y01048*
X00126*
Y01048*
Y01048*
X00126*
Y01049*
X00125*
Y0105*
Y0105*
Y01066*
Y01066*
Y01066*
Y01067*
X00126*
Y01068*
X00126*
Y01068*
X00127Y01068*
X00127Y01069*
Y01069*
X00127*
X00128Y0107*
X00129*
X00129*
X00129Y0107*
X0013*
X0013*
X00131*
X00131*
X00226*
X00227*
X00227*
G37*
G36*
X01026Y01027D02*
X01027D01*
X01027*
X01027*
Y01027*
X01028*
X01028*
X01029Y01026*
X01029*
X0103Y01025*
Y01025*
X0103Y01025*
X01031Y01024*
Y01024*
X01031*
Y01023*
Y01023*
Y01022*
Y01007*
Y01006*
Y01006*
X01031*
Y01005*
X0103Y01005*
Y01004*
X0103*
Y01004*
X01029Y01003*
X01029*
Y01003*
X01028Y01003*
X01028Y01002*
X01027*
X01027*
X01027*
X01026*
X01026Y01002*
X01025*
X0093*
X0093*
X00929Y01002*
X00929*
X00929*
X00928*
X00928*
Y01003*
X00927*
X00927Y01003*
Y01003*
X00926*
Y01004*
X00926*
Y01004*
X00925*
Y01005*
Y01005*
X00925*
Y01006*
X00925*
Y01006*
Y01007*
Y01022*
Y01023*
Y01023*
Y01024*
X00925*
Y01024*
X00925*
Y01025*
X00926Y01025*
X00926Y01025*
Y01026*
X00927*
X00927Y01027*
X00928*
X00928*
X00929Y01027*
X00929*
X00929*
X0093*
X0093*
X01025*
X01026*
X01026*
G37*
G36*
X00227D02*
X00227D01*
X00228*
X00228*
Y01027*
X00229*
X00229*
X0023Y01026*
X0023*
X00231Y01025*
Y01025*
X00231Y01025*
X00231Y01024*
Y01024*
X00232*
Y01023*
Y01023*
Y01022*
Y01007*
Y01006*
Y01006*
X00231*
Y01005*
X00231Y01005*
Y01004*
X00231*
Y01004*
X0023Y01003*
X0023*
Y01003*
X00229Y01003*
X00229Y01002*
X00228*
X00228*
X00227*
X00227*
X00227Y01002*
X00226*
X00131*
X00131*
X0013Y01002*
X0013*
X00129*
X00129*
X00129*
Y01003*
X00128*
X00127Y01003*
Y01003*
X00127*
Y01004*
X00127*
Y01004*
X00126*
Y01005*
Y01005*
X00126*
Y01006*
X00125*
Y01006*
Y01007*
Y01022*
Y01023*
Y01023*
Y01024*
X00126*
Y01024*
X00126*
Y01025*
X00127Y01025*
X00127Y01025*
Y01026*
X00127*
X00128Y01027*
X00129*
X00129*
X00129Y01027*
X0013*
X0013*
X00131*
X00131*
X00226*
X00227*
X00227*
G37*
G36*
X00814Y01055D02*
X00814D01*
X00815*
X00816*
X00817Y01054*
X00818Y01054*
X00819Y01053*
X0082Y01053*
X00821Y01053*
X00822Y01052*
X00823Y01052*
X00824Y01051*
X00824Y01051*
X00825Y0105*
X00825Y0105*
X00826Y01049*
X00827Y01048*
X00827Y01047*
X00828Y01046*
X00829Y01046*
X00829Y01045*
X00829Y01044*
X0083Y01043*
X0083Y01042*
X00831Y01041*
Y0104*
X00831Y01039*
Y01038*
Y01037*
Y01036*
Y01035*
Y01034*
Y01033*
X00831Y01033*
Y01031*
X0083Y01031*
X0083Y01029*
X00829Y01029*
X00829Y01028*
X00829Y01027*
X00828Y01026*
X00827Y01025*
X00827Y01025*
X00826Y01024*
X00825Y01023*
X00825Y01022*
X00824Y01022*
X00824Y01021*
X00823Y01021*
X00822Y0102*
X00821Y0102*
X0082Y01019*
X00819Y01019*
X00818Y01018*
X00817*
X00816Y01018*
X00815*
X00814Y01018*
X00814*
X00812*
X00812*
X00811*
X0081Y01018*
X00809*
X00808Y01018*
X00807*
X00806Y01019*
X00805Y01019*
X00804Y0102*
X00803Y0102*
X00803Y0102*
X00802Y01021*
X00801Y01022*
X008Y01022*
X008Y01023*
X00799Y01024*
X00798Y01024*
X00798Y01025*
X00797Y01026*
X00797Y01027*
X00796Y01027*
X00796Y01028*
X00795Y01029*
X00795Y0103*
Y01031*
X00794Y01032*
Y01033*
X00794Y01034*
Y01035*
Y01036*
X00812*
Y01036*
X00794*
Y01037*
Y01038*
Y01039*
X00794Y0104*
Y01041*
X00795Y01042*
X00795Y01043*
X00796Y01044*
X00796Y01045*
X00796Y01046*
X00797Y01046*
X00798Y01047*
X00798Y01048*
X00799Y01049*
X008Y0105*
X008Y0105*
X00801Y01051*
X00801Y01051*
X00802Y01052*
X00803Y01052*
X00804Y01053*
X00805Y01053*
X00806Y01053*
X00807Y01054*
X00808Y01054*
X00809Y01055*
X0081*
X00811*
X00812*
X00812Y01055*
X00814Y01055*
G37*
G36*
X00747D02*
X00748D01*
X00748*
X0075*
X0075Y01054*
X00751Y01054*
X00752Y01053*
X00753Y01053*
X00754Y01053*
X00755Y01052*
X00756Y01052*
X00757Y01051*
X00757Y01051*
X00758Y0105*
X00759Y0105*
X00759Y01049*
X0076Y01048*
X00761Y01047*
X00761Y01046*
X00762Y01046*
X00762Y01045*
X00762Y01044*
X00763Y01043*
X00763Y01042*
X00764Y01041*
Y0104*
X00764Y01039*
Y01038*
Y01037*
Y01036*
Y01035*
Y01034*
Y01033*
X00764Y01033*
Y01031*
X00763Y01031*
X00763Y01029*
X00762Y01029*
X00762Y01028*
X00762Y01027*
X00761Y01026*
X00761Y01025*
X0076Y01025*
X00759Y01024*
X00759Y01023*
X00758Y01022*
X00757Y01022*
X00757Y01021*
X00756Y01021*
X00755Y0102*
X00754Y0102*
X00753Y01019*
X00752Y01019*
X00751Y01018*
X0075*
X0075Y01018*
X00748*
X00748Y01018*
X00747*
X00746*
X00745*
X00744*
X00743Y01018*
X00742*
X00741Y01018*
X0074*
X00739Y01019*
X00738Y01019*
X00737Y0102*
X00737Y0102*
X00736Y0102*
X00735Y01021*
X00734Y01022*
X00733Y01022*
X00733Y01023*
X00732Y01024*
X00731Y01024*
X00731Y01025*
X0073Y01026*
X0073Y01027*
X00729Y01027*
X00729Y01028*
X00728Y01029*
X00728Y0103*
Y01031*
X00727Y01032*
Y01033*
X00727Y01034*
Y01035*
Y01036*
X00746*
Y01036*
X00727*
Y01037*
Y01038*
Y01039*
X00727Y0104*
Y01041*
X00728Y01042*
X00728Y01043*
X00729Y01044*
X00729Y01045*
X00729Y01046*
X0073Y01046*
X00731Y01047*
X00731Y01048*
X00732Y01049*
X00733Y0105*
X00733Y0105*
X00734Y01051*
X00735Y01051*
X00735Y01052*
X00736Y01052*
X00737Y01053*
X00738Y01053*
X00739Y01053*
X0074Y01054*
X00741Y01054*
X00742Y01055*
X00743*
X00744*
X00745*
X00746Y01055*
X00747Y01055*
G37*
G36*
X00412D02*
X00413D01*
X00414*
X00415*
X00416Y01054*
X00417Y01054*
X00418Y01053*
X00418Y01053*
X00419Y01053*
X0042Y01052*
X00421Y01052*
X00422Y01051*
X00423Y01051*
X00424Y0105*
X00424Y0105*
X00425Y01049*
X00425Y01048*
X00426Y01047*
X00427Y01046*
X00427Y01046*
X00427Y01045*
X00428Y01044*
X00428Y01043*
X00429Y01042*
X00429Y01041*
Y0104*
X00429Y01039*
Y01038*
Y01037*
Y01036*
Y01035*
Y01034*
Y01033*
X00429Y01033*
Y01031*
X00429Y01031*
X00428Y01029*
X00428Y01029*
X00427Y01028*
X00427Y01027*
X00427Y01026*
X00426Y01025*
X00425Y01025*
X00425Y01024*
X00424Y01023*
X00424Y01022*
X00423Y01022*
X00422Y01021*
X00421Y01021*
X0042Y0102*
X00419Y0102*
X00418Y01019*
X00418Y01019*
X00417Y01018*
X00416*
X00415Y01018*
X00414*
X00413Y01018*
X00412*
X00411*
X0041*
X00409*
X00408Y01018*
X00407*
X00406Y01018*
X00405*
X00405Y01019*
X00403Y01019*
X00403Y0102*
X00402Y0102*
X00401Y0102*
X004Y01021*
X004Y01022*
X00399Y01022*
X00398Y01023*
X00397Y01024*
X00397Y01024*
X00396Y01025*
X00396Y01026*
X00395Y01027*
X00394Y01027*
X00394Y01028*
X00394Y01029*
X00393Y0103*
Y01031*
X00393Y01032*
Y01033*
X00392Y01034*
Y01035*
Y01036*
X00411*
Y01036*
X00392*
Y01037*
Y01038*
Y01039*
X00393Y0104*
Y01041*
X00393Y01042*
X00394Y01043*
X00394Y01044*
X00394Y01045*
X00395Y01046*
X00395Y01046*
X00396Y01047*
X00396Y01048*
X00397Y01049*
X00398Y0105*
X00398Y0105*
X00399Y01051*
X004Y01051*
X00401Y01052*
X00401Y01052*
X00403Y01053*
X00403Y01053*
X00404Y01053*
X00405Y01054*
X00406Y01054*
X00407Y01055*
X00408*
X00409*
X0041*
X00411Y01055*
X00412Y01055*
G37*
G36*
X00345D02*
X00346D01*
X00347*
X00348*
X00349Y01054*
X0035Y01054*
X00351Y01053*
X00351Y01053*
X00352Y01053*
X00353Y01052*
X00354Y01052*
X00355Y01051*
X00356Y01051*
X00357Y0105*
X00357Y0105*
X00358Y01049*
X00359Y01048*
X00359Y01047*
X0036Y01046*
X0036Y01046*
X00361Y01045*
X00361Y01044*
X00361Y01043*
X00362Y01042*
X00362Y01041*
Y0104*
X00362Y01039*
Y01038*
Y01037*
Y01036*
Y01035*
Y01034*
Y01033*
X00362Y01033*
Y01031*
X00362Y01031*
X00361Y01029*
X00361Y01029*
X00361Y01028*
X0036Y01027*
X0036Y01026*
X00359Y01025*
X00359Y01025*
X00358Y01024*
X00357Y01023*
X00357Y01022*
X00356Y01022*
X00355Y01021*
X00354Y01021*
X00353Y0102*
X00352Y0102*
X00351Y01019*
X00351Y01019*
X0035Y01018*
X00349*
X00348Y01018*
X00347*
X00346Y01018*
X00345*
X00344*
X00343*
X00342*
X00341Y01018*
X0034*
X00339Y01018*
X00338*
X00338Y01019*
X00337Y01019*
X00336Y0102*
X00335Y0102*
X00334Y0102*
X00333Y01021*
X00333Y01022*
X00332Y01022*
X00331Y01023*
X0033Y01024*
X0033Y01024*
X00329Y01025*
X00329Y01026*
X00328Y01027*
X00327Y01027*
X00327Y01028*
X00327Y01029*
X00326Y0103*
Y01031*
X00326Y01032*
Y01033*
X00325Y01034*
Y01035*
Y01036*
X00344*
Y01036*
X00325*
Y01037*
Y01038*
Y01039*
X00326Y0104*
Y01041*
X00326Y01042*
X00327Y01043*
X00327Y01044*
X00327Y01045*
X00328Y01046*
X00328Y01046*
X00329Y01047*
X00329Y01048*
X0033Y01049*
X00331Y0105*
X00331Y0105*
X00332Y01051*
X00333Y01051*
X00334Y01052*
X00335Y01052*
X00336Y01053*
X00337Y01053*
X00337Y01053*
X00338Y01054*
X00339Y01054*
X0034Y01055*
X00341*
X00342*
X00343*
X00344Y01055*
X00345Y01055*
G37*
G36*
X01026Y00984D02*
D01*
X01027*
X01027*
Y00983*
X01028*
X01028*
X01029Y00983*
X01029Y00983*
X01029*
X0103Y00982*
Y00982*
X0103Y00981*
X01031Y00981*
Y0098*
X01031*
Y0098*
Y00979*
Y00979*
Y00963*
Y00963*
Y00962*
X01031*
Y00962*
X0103Y00961*
Y00961*
X0103*
Y00961*
X01029Y0096*
X01029*
Y0096*
X01028Y00959*
X01028Y00959*
X01027*
X01027*
X01027*
X01026Y00959*
X01025*
X0093*
X0093*
X00929Y00959*
X00929*
X00928*
X00928*
Y00959*
X00927*
X00927Y0096*
Y0096*
X00926*
Y00961*
X00926*
Y00961*
X00925*
Y00961*
Y00962*
X00925*
Y00962*
X00925*
Y00963*
Y00963*
Y00979*
Y00979*
Y0098*
Y0098*
X00925*
Y00981*
X00925*
Y00981*
X00926Y00982*
X00926Y00982*
Y00983*
X00927*
X00927Y00983*
X00927Y00983*
X00928*
X00928*
X00929Y00984*
X00929*
X0093*
X0093*
X01025*
X01026*
X01026*
G37*
G36*
X00227D02*
D01*
X00228*
X00228*
Y00983*
X00229*
X00229*
X00229Y00983*
X0023Y00983*
X0023*
X00231Y00982*
Y00982*
X00231Y00981*
X00231Y00981*
Y0098*
X00232*
Y0098*
Y00979*
Y00979*
Y00963*
Y00963*
Y00962*
X00231*
Y00962*
X00231Y00961*
Y00961*
X00231*
Y00961*
X0023Y0096*
X0023*
Y0096*
X00229Y00959*
X00229Y00959*
X00228*
X00228*
X00227*
X00227Y00959*
X00226*
X00131*
X00131*
X0013Y00959*
X00129*
X00129*
X00129*
Y00959*
X00128*
X00127Y0096*
Y0096*
X00127*
Y00961*
X00127*
Y00961*
X00126*
Y00961*
Y00962*
X00126*
Y00962*
X00125*
Y00963*
Y00963*
Y00979*
Y00979*
Y0098*
Y0098*
X00126*
Y00981*
X00126*
Y00981*
X00127Y00982*
X00127Y00982*
Y00983*
X00127*
X00128Y00983*
X00128Y00983*
X00129*
X00129*
X00129Y00984*
X0013*
X00131*
X00131*
X00226*
X00227*
X00227*
G37*
G36*
X00814Y00988D02*
X00814D01*
X00815*
X00816*
X00817Y00987*
X00818Y00987*
X00819Y00987*
X0082Y00986*
X00821Y00986*
X00822Y00985*
X00823Y00985*
X00824Y00985*
X00824Y00984*
X00825Y00983*
X00825Y00983*
X00826Y00982*
X00827Y00981*
X00827Y0098*
X00828Y00979*
X00829Y00979*
X00829Y00978*
X00829Y00977*
X0083Y00976*
X0083Y00975*
X00831Y00974*
Y00973*
X00831Y00972*
Y00971*
Y0097*
Y00969*
Y00968*
Y00967*
Y00966*
X00831Y00966*
Y00964*
X0083Y00964*
X0083Y00962*
X00829Y00962*
X00829Y00961*
X00829Y0096*
X00828Y00959*
X00827Y00959*
X00827Y00958*
X00826Y00957*
X00825Y00956*
X00825Y00955*
X00824Y00955*
X00824Y00954*
X00823Y00954*
X00822Y00953*
X00821Y00953*
X0082Y00952*
X00819Y00952*
X00818Y00951*
X00817*
X00816Y00951*
X00815*
X00814Y00951*
X00814*
X00812*
X00812*
X00811*
X0081Y00951*
X00809*
X00808Y00951*
X00807*
X00806Y00952*
X00805Y00952*
X00804Y00953*
X00803Y00953*
X00803Y00953*
X00802Y00954*
X00801Y00955*
X008Y00955*
X008Y00956*
X00799Y00957*
X00798Y00957*
X00798Y00958*
X00797Y00959*
X00797Y0096*
X00796Y00961*
X00796Y00961*
X00795Y00962*
X00795Y00963*
Y00964*
X00794Y00965*
Y00966*
X00794Y00967*
Y00968*
Y00969*
X00812*
Y00969*
X00794*
Y0097*
Y00971*
Y00972*
X00794Y00973*
Y00974*
X00795Y00975*
X00795Y00976*
X00796Y00977*
X00796Y00978*
X00796Y00979*
X00797Y00979*
X00798Y0098*
X00798Y00981*
X00799Y00982*
X008Y00983*
X008Y00983*
X00801Y00984*
X00801Y00985*
X00802Y00985*
X00803Y00985*
X00804Y00986*
X00805Y00986*
X00806Y00987*
X00807Y00987*
X00808Y00987*
X00809Y00988*
X0081*
X00811*
X00812*
X00812Y00988*
X00814Y00988*
G37*
G36*
X00747D02*
X00748D01*
X00748*
X0075*
X0075Y00987*
X00751Y00987*
X00752Y00987*
X00753Y00986*
X00754Y00986*
X00755Y00985*
X00756Y00985*
X00757Y00985*
X00757Y00984*
X00758Y00983*
X00759Y00983*
X00759Y00982*
X0076Y00981*
X00761Y0098*
X00761Y00979*
X00762Y00979*
X00762Y00978*
X00762Y00977*
X00763Y00976*
X00763Y00975*
X00764Y00974*
Y00973*
X00764Y00972*
Y00971*
Y0097*
Y00969*
Y00968*
Y00967*
Y00966*
X00764Y00966*
Y00964*
X00763Y00964*
X00763Y00962*
X00762Y00962*
X00762Y00961*
X00762Y0096*
X00761Y00959*
X00761Y00959*
X0076Y00958*
X00759Y00957*
X00759Y00956*
X00758Y00955*
X00757Y00955*
X00757Y00954*
X00756Y00954*
X00755Y00953*
X00754Y00953*
X00753Y00952*
X00752Y00952*
X00751Y00951*
X0075*
X0075Y00951*
X00748*
X00748Y00951*
X00747*
X00746*
X00745*
X00744*
X00743Y00951*
X00742*
X00741Y00951*
X0074*
X00739Y00952*
X00738Y00952*
X00737Y00953*
X00737Y00953*
X00736Y00953*
X00735Y00954*
X00734Y00955*
X00733Y00955*
X00733Y00956*
X00732Y00957*
X00731Y00957*
X00731Y00958*
X0073Y00959*
X0073Y0096*
X00729Y00961*
X00729Y00961*
X00728Y00962*
X00728Y00963*
Y00964*
X00727Y00965*
Y00966*
X00727Y00967*
Y00968*
Y00969*
X00746*
Y00969*
X00727*
Y0097*
Y00971*
Y00972*
X00727Y00973*
Y00974*
X00728Y00975*
X00728Y00976*
X00729Y00977*
X00729Y00978*
X00729Y00979*
X0073Y00979*
X00731Y0098*
X00731Y00981*
X00732Y00982*
X00733Y00983*
X00733Y00983*
X00734Y00984*
X00735Y00985*
X00735Y00985*
X00736Y00985*
X00737Y00986*
X00738Y00986*
X00739Y00987*
X0074Y00987*
X00741Y00987*
X00742Y00988*
X00743*
X00744*
X00745*
X00746Y00988*
X00747Y00988*
G37*
G36*
X00412D02*
X00413D01*
X00414*
X00415*
X00416Y00987*
X00417Y00987*
X00418Y00987*
X00418Y00986*
X00419Y00986*
X0042Y00985*
X00421Y00985*
X00422Y00985*
X00423Y00984*
X00424Y00983*
X00424Y00983*
X00425Y00982*
X00425Y00981*
X00426Y0098*
X00427Y00979*
X00427Y00979*
X00427Y00978*
X00428Y00977*
X00428Y00976*
X00429Y00975*
X00429Y00974*
Y00973*
X00429Y00972*
Y00971*
Y0097*
Y00969*
Y00968*
Y00967*
Y00966*
X00429Y00966*
Y00964*
X00429Y00964*
X00428Y00962*
X00428Y00962*
X00427Y00961*
X00427Y0096*
X00427Y00959*
X00426Y00959*
X00425Y00958*
X00425Y00957*
X00424Y00956*
X00424Y00955*
X00423Y00955*
X00422Y00954*
X00421Y00954*
X0042Y00953*
X00419Y00953*
X00418Y00952*
X00418Y00952*
X00417Y00951*
X00416*
X00415Y00951*
X00414*
X00413Y00951*
X00412*
X00411*
X0041*
X00409*
X00408Y00951*
X00407*
X00406Y00951*
X00405*
X00405Y00952*
X00403Y00952*
X00403Y00953*
X00402Y00953*
X00401Y00953*
X004Y00954*
X004Y00955*
X00399Y00955*
X00398Y00956*
X00397Y00957*
X00397Y00957*
X00396Y00958*
X00396Y00959*
X00395Y0096*
X00394Y00961*
X00394Y00961*
X00394Y00962*
X00393Y00963*
Y00964*
X00393Y00965*
Y00966*
X00392Y00967*
Y00968*
Y00969*
X00411*
Y00969*
X00392*
Y0097*
Y00971*
Y00972*
X00393Y00973*
Y00974*
X00393Y00975*
X00394Y00976*
X00394Y00977*
X00394Y00978*
X00395Y00979*
X00395Y00979*
X00396Y0098*
X00396Y00981*
X00397Y00982*
X00398Y00983*
X00398Y00983*
X00399Y00984*
X004Y00985*
X00401Y00985*
X00401Y00985*
X00403Y00986*
X00403Y00986*
X00404Y00987*
X00405Y00987*
X00406Y00987*
X00407Y00988*
X00408*
X00409*
X0041*
X00411Y00988*
X00412Y00988*
G37*
G36*
X00345D02*
X00346D01*
X00347*
X00348*
X00349Y00987*
X0035Y00987*
X00351Y00987*
X00351Y00986*
X00352Y00986*
X00353Y00985*
X00354Y00985*
X00355Y00985*
X00356Y00984*
X00357Y00983*
X00357Y00983*
X00358Y00982*
X00359Y00981*
X00359Y0098*
X0036Y00979*
X0036Y00979*
X00361Y00978*
X00361Y00977*
X00361Y00976*
X00362Y00975*
X00362Y00974*
Y00973*
X00362Y00972*
Y00971*
Y0097*
Y00969*
Y00968*
Y00967*
Y00966*
X00362Y00966*
Y00964*
X00362Y00964*
X00361Y00962*
X00361Y00962*
X00361Y00961*
X0036Y0096*
X0036Y00959*
X00359Y00959*
X00359Y00958*
X00358Y00957*
X00357Y00956*
X00357Y00955*
X00356Y00955*
X00355Y00954*
X00354Y00954*
X00353Y00953*
X00352Y00953*
X00351Y00952*
X00351Y00952*
X0035Y00951*
X00349*
X00348Y00951*
X00347*
X00346Y00951*
X00345*
X00344*
X00343*
X00342*
X00341Y00951*
X0034*
X00339Y00951*
X00338*
X00338Y00952*
X00337Y00952*
X00336Y00953*
X00335Y00953*
X00334Y00953*
X00333Y00954*
X00333Y00955*
X00332Y00955*
X00331Y00956*
X0033Y00957*
X0033Y00957*
X00329Y00958*
X00329Y00959*
X00328Y0096*
X00327Y00961*
X00327Y00961*
X00327Y00962*
X00326Y00963*
Y00964*
X00326Y00965*
Y00966*
X00325Y00967*
Y00968*
Y00969*
X00344*
Y00969*
X00325*
Y0097*
Y00971*
Y00972*
X00326Y00973*
Y00974*
X00326Y00975*
X00327Y00976*
X00327Y00977*
X00327Y00978*
X00328Y00979*
X00328Y00979*
X00329Y0098*
X00329Y00981*
X0033Y00982*
X00331Y00983*
X00331Y00983*
X00332Y00984*
X00333Y00985*
X00334Y00985*
X00335Y00985*
X00336Y00986*
X00337Y00986*
X00337Y00987*
X00338Y00987*
X00339Y00987*
X0034Y00988*
X00341*
X00342*
X00343*
X00344Y00988*
X00345Y00988*
G37*
G36*
X01026Y0094D02*
D01*
X01027*
X01027*
Y0094*
X01028*
X01028*
X01029Y0094*
X01029Y00939*
X01029*
X0103Y00939*
Y00938*
X0103Y00938*
X01031Y00938*
Y00937*
Y00937*
X01031*
Y00937*
Y00936*
Y00936*
Y0092*
Y0092*
Y00919*
X01031*
Y00918*
X0103Y00918*
Y00918*
X0103*
Y00917*
X01029Y00917*
X01029*
Y00916*
X01028Y00916*
X01028Y00916*
X01027*
X01027*
X01027*
X01026Y00915*
X01026*
X01025*
X0093*
X0093*
X00929*
X00929Y00916*
X00929*
X00928*
X00928*
Y00916*
X00927*
X00927Y00916*
Y00917*
X00926*
Y00917*
X00926*
Y00918*
X00925*
Y00918*
Y00918*
X00925*
Y00919*
X00925*
Y0092*
Y0092*
Y00936*
Y00936*
Y00937*
Y00937*
X00925*
Y00937*
Y00938*
X00925*
Y00938*
X00926Y00938*
X00926Y00939*
Y00939*
X00927*
X00927Y0094*
X00927Y0094*
X00928*
X00928*
X00929Y0094*
X00929*
X0093*
X0093*
X01025*
X01026*
X01026*
G37*
G36*
X00227D02*
D01*
X00228*
X00228*
Y0094*
X00229*
X00229*
X00229Y0094*
X0023Y00939*
X0023*
X00231Y00939*
Y00938*
X00231Y00938*
X00231Y00938*
Y00937*
Y00937*
X00232*
Y00937*
Y00936*
Y00936*
Y0092*
Y0092*
Y00919*
X00231*
Y00918*
X00231Y00918*
Y00918*
X00231*
Y00917*
X0023Y00917*
X0023*
Y00916*
X00229Y00916*
X00229Y00916*
X00228*
X00228*
X00227*
X00227Y00915*
X00227*
X00226*
X00131*
X00131*
X0013*
X0013Y00916*
X00129*
X00129*
X00129*
Y00916*
X00128*
X00127Y00916*
Y00917*
X00127*
Y00917*
X00127*
Y00918*
X00126*
Y00918*
Y00918*
X00126*
Y00919*
X00125*
Y0092*
Y0092*
Y00936*
Y00936*
Y00937*
Y00937*
X00126*
Y00937*
Y00938*
X00126*
Y00938*
X00127Y00938*
X00127Y00939*
Y00939*
X00127*
X00128Y0094*
X00128Y0094*
X00129*
X00129*
X00129Y0094*
X0013*
X00131*
X00131*
X00226*
X00227*
X00227*
G37*
G36*
X01026Y00897D02*
X01027D01*
X01027*
Y00897*
X01028*
X01028*
X01029Y00896*
X01029Y00896*
X01029*
X0103Y00896*
Y00895*
X0103Y00895*
X01031Y00894*
Y00894*
X01031*
Y00893*
Y00893*
Y00892*
Y00877*
Y00876*
Y00876*
X01031*
Y00875*
X0103Y00875*
Y00874*
X0103*
Y00874*
X01029Y00874*
X01029*
Y00873*
X01029Y00873*
X01028*
X01028Y00872*
X01027*
X01027*
X01026Y00872*
X01026*
X01025*
X0093*
X0093*
X00929*
X00929Y00872*
X00928*
X00928*
Y00873*
X00927*
X00927*
X00927Y00873*
Y00874*
X00926*
Y00874*
X00926*
Y00874*
X00925*
Y00875*
Y00875*
X00925*
Y00876*
X00925*
Y00876*
Y00877*
Y00892*
Y00893*
Y00893*
Y00894*
X00925*
Y00894*
X00925*
Y00895*
X00926Y00895*
X00926Y00896*
Y00896*
X00927*
X00927Y00896*
X00927Y00897*
X00928*
X00928*
X00929Y00897*
X00929*
X0093*
X0093*
X01025*
X01026*
X01026*
G37*
G36*
X00227D02*
X00228D01*
X00228*
Y00897*
X00229*
X00229*
X00229Y00896*
X0023Y00896*
X0023*
X00231Y00896*
Y00895*
X00231Y00895*
X00231Y00894*
Y00894*
X00232*
Y00893*
Y00893*
Y00892*
Y00877*
Y00876*
Y00876*
X00231*
Y00875*
X00231Y00875*
Y00874*
X00231*
Y00874*
X0023Y00874*
X0023*
Y00873*
X00229Y00873*
X00229*
X00229Y00872*
X00228*
X00228*
X00227Y00872*
X00227*
X00226*
X00131*
X00131*
X0013*
X00129Y00872*
X00129*
X00129*
Y00873*
X00128*
X00128*
X00127Y00873*
Y00874*
X00127*
Y00874*
X00127*
Y00874*
X00126*
Y00875*
Y00875*
X00126*
Y00876*
X00125*
Y00876*
Y00877*
Y00892*
Y00893*
Y00893*
Y00894*
X00126*
Y00894*
X00126*
Y00895*
X00127Y00895*
X00127Y00896*
Y00896*
X00127*
X00128Y00896*
X00128Y00897*
X00129*
X00129*
X00129Y00897*
X0013*
X00131*
X00131*
X00226*
X00227*
X00227*
G37*
G36*
X0068Y00921D02*
X00681D01*
X00681*
X00683*
X00683Y0092*
X00685Y0092*
X00685Y0092*
X00686Y00919*
X00687Y00919*
X00688Y00918*
X00689Y00918*
X0069Y00918*
X0069Y00917*
X00691Y00916*
X00692Y00916*
X00692Y00915*
X00693Y00914*
X00694Y00913*
X00694Y00912*
X00695Y00912*
X00695Y00911*
X00696Y0091*
X00696Y00909*
X00696Y00908*
X00697Y00907*
Y00906*
X00697Y00905*
Y00904*
Y00903*
Y00902*
Y00901*
Y009*
Y009*
X00697Y00899*
Y00898*
X00696Y00897*
X00696Y00896*
X00696Y00895*
X00695Y00894*
X00695Y00893*
X00694Y00892*
X00694Y00892*
X00693Y00891*
X00692Y0089*
X00692Y00889*
X00691Y00888*
X0069Y00888*
X0069Y00887*
X00689Y00887*
X00688Y00886*
X00687Y00886*
X00686Y00885*
X00685Y00885*
X00685Y00885*
X00683*
X00683Y00884*
X00681*
X00681Y00884*
X0068*
X00679*
X00678*
X00677*
X00676Y00884*
X00675*
X00674Y00885*
X00673*
X00672Y00885*
X00671Y00885*
X0067Y00886*
X0067Y00886*
X00669Y00887*
X00668Y00887*
X00667Y00888*
X00666Y00888*
X00666Y00889*
X00665Y0089*
X00664Y0089*
X00664Y00891*
X00663Y00892*
X00663Y00893*
X00662Y00894*
X00662Y00894*
X00661Y00895*
X00661Y00896*
Y00897*
X00661Y00898*
Y00899*
X0066Y009*
Y00901*
Y00902*
X00679*
Y00902*
X0066*
Y00903*
Y00904*
Y00905*
X00661Y00906*
Y00907*
X00661Y00908*
X00661Y00909*
X00662Y0091*
X00662Y00911*
X00662Y00912*
X00663Y00912*
X00664Y00913*
X00664Y00914*
X00665Y00915*
X00666Y00916*
X00666Y00916*
X00667Y00917*
X00668Y00918*
X00668Y00918*
X00669Y00918*
X0067Y00919*
X00671Y00919*
X00672Y0092*
X00673Y0092*
X00674Y0092*
X00675Y00921*
X00676*
X00677*
X00678*
X00679Y00921*
X0068Y00921*
G37*
G36*
X00613D02*
X00614D01*
X00614*
X00616*
X00616Y0092*
X00618Y0092*
X00618Y0092*
X00619Y00919*
X0062Y00919*
X00621Y00918*
X00622Y00918*
X00623Y00918*
X00624Y00917*
X00624Y00916*
X00625Y00916*
X00625Y00915*
X00626Y00914*
X00627Y00913*
X00627Y00912*
X00628Y00912*
X00628Y00911*
X00629Y0091*
X00629Y00909*
X00629Y00908*
X0063Y00907*
Y00906*
X0063Y00905*
Y00904*
Y00903*
Y00902*
Y00901*
Y009*
Y009*
X0063Y00899*
Y00898*
X00629Y00897*
X00629Y00896*
X00629Y00895*
X00628Y00894*
X00628Y00893*
X00627Y00892*
X00627Y00892*
X00626Y00891*
X00625Y0089*
X00625Y00889*
X00624Y00888*
X00624Y00888*
X00623Y00887*
X00622Y00887*
X00621Y00886*
X0062Y00886*
X00619Y00885*
X00618Y00885*
X00618Y00885*
X00616*
X00616Y00884*
X00614*
X00614Y00884*
X00613*
X00612*
X00611*
X0061*
X00609Y00884*
X00608*
X00607Y00885*
X00606*
X00605Y00885*
X00604Y00885*
X00603Y00886*
X00603Y00886*
X00602Y00887*
X00601Y00887*
X006Y00888*
X006Y00888*
X00599Y00889*
X00598Y0089*
X00598Y0089*
X00597Y00891*
X00596Y00892*
X00596Y00893*
X00595Y00894*
X00595Y00894*
X00594Y00895*
X00594Y00896*
Y00897*
X00594Y00898*
Y00899*
X00593Y009*
Y00901*
Y00902*
X00612*
Y00902*
X00593*
Y00903*
Y00904*
Y00905*
X00594Y00906*
Y00907*
X00594Y00908*
X00594Y00909*
X00595Y0091*
X00595Y00911*
X00596Y00912*
X00596Y00912*
X00597Y00913*
X00597Y00914*
X00598Y00915*
X00599Y00916*
X00599Y00916*
X006Y00917*
X00601Y00918*
X00601Y00918*
X00602Y00918*
X00603Y00919*
X00604Y00919*
X00605Y0092*
X00606Y0092*
X00607Y0092*
X00608Y00921*
X00609*
X0061*
X00611*
X00612Y00921*
X00613Y00921*
G37*
G36*
X00546D02*
X00547D01*
X00548*
X00549*
X0055Y0092*
X00551Y0092*
X00551Y0092*
X00552Y00919*
X00553Y00919*
X00554Y00918*
X00555Y00918*
X00556Y00918*
X00557Y00917*
X00557Y00916*
X00558Y00916*
X00559Y00915*
X00559Y00914*
X0056Y00913*
X00561Y00912*
X00561Y00912*
X00561Y00911*
X00562Y0091*
X00562Y00909*
X00562Y00908*
X00563Y00907*
Y00906*
X00563Y00905*
Y00904*
Y00903*
Y00902*
Y00901*
Y009*
Y009*
X00563Y00899*
Y00898*
X00562Y00897*
X00562Y00896*
X00562Y00895*
X00561Y00894*
X00561Y00893*
X00561Y00892*
X0056Y00892*
X00559Y00891*
X00559Y0089*
X00558Y00889*
X00557Y00888*
X00557Y00888*
X00556Y00887*
X00555Y00887*
X00554Y00886*
X00553Y00886*
X00552Y00885*
X00551Y00885*
X00551Y00885*
X0055*
X00549Y00884*
X00548*
X00547Y00884*
X00546*
X00545*
X00544*
X00543*
X00542Y00884*
X00541*
X0054Y00885*
X00539*
X00538Y00885*
X00537Y00885*
X00537Y00886*
X00536Y00886*
X00535Y00887*
X00534Y00887*
X00533Y00888*
X00533Y00888*
X00532Y00889*
X00531Y0089*
X00531Y0089*
X0053Y00891*
X00529Y00892*
X00529Y00893*
X00528Y00894*
X00528Y00894*
X00527Y00895*
X00527Y00896*
Y00897*
X00527Y00898*
Y00899*
X00526Y009*
Y00901*
Y00902*
X00545*
Y00902*
X00526*
Y00903*
Y00904*
Y00905*
X00527Y00906*
Y00907*
X00527Y00908*
X00527Y00909*
X00528Y0091*
X00528Y00911*
X00529Y00912*
X00529Y00912*
X0053Y00913*
X0053Y00914*
X00531Y00915*
X00532Y00916*
X00532Y00916*
X00533Y00917*
X00534Y00918*
X00535Y00918*
X00535Y00918*
X00537Y00919*
X00537Y00919*
X00538Y0092*
X00539Y0092*
X0054Y0092*
X00541Y00921*
X00542*
X00543*
X00544*
X00545Y00921*
X00546Y00921*
G37*
G36*
X00479D02*
X0048D01*
X00481*
X00482*
X00483Y0092*
X00484Y0092*
X00485Y0092*
X00485Y00919*
X00486Y00919*
X00487Y00918*
X00488Y00918*
X00489Y00918*
X0049Y00917*
X0049Y00916*
X00491Y00916*
X00492Y00915*
X00492Y00914*
X00493Y00913*
X00494Y00912*
X00494Y00912*
X00494Y00911*
X00495Y0091*
X00495Y00909*
X00496Y00908*
X00496Y00907*
Y00906*
X00496Y00905*
Y00904*
Y00903*
Y00902*
Y00901*
Y009*
Y009*
X00496Y00899*
Y00898*
X00496Y00897*
X00495Y00896*
X00495Y00895*
X00494Y00894*
X00494Y00893*
X00494Y00892*
X00493Y00892*
X00492Y00891*
X00492Y0089*
X00491Y00889*
X0049Y00888*
X0049Y00888*
X00489Y00887*
X00488Y00887*
X00487Y00886*
X00486Y00886*
X00485Y00885*
X00485Y00885*
X00484Y00885*
X00483*
X00482Y00884*
X00481*
X0048Y00884*
X00479*
X00478*
X00477*
X00476*
X00475Y00884*
X00474*
X00473Y00885*
X00472*
X00472Y00885*
X0047Y00885*
X0047Y00886*
X00469Y00886*
X00468Y00887*
X00467Y00887*
X00466Y00888*
X00466Y00888*
X00465Y00889*
X00464Y0089*
X00464Y0089*
X00463Y00891*
X00462Y00892*
X00462Y00893*
X00461Y00894*
X00461Y00894*
X00461Y00895*
X0046Y00896*
Y00897*
X0046Y00898*
Y00899*
X00459Y009*
Y00901*
Y00902*
X00478*
Y00902*
X00459*
Y00903*
Y00904*
Y00905*
X0046Y00906*
Y00907*
X0046Y00908*
X00461Y00909*
X00461Y0091*
X00461Y00911*
X00462Y00912*
X00462Y00912*
X00463Y00913*
X00463Y00914*
X00464Y00915*
X00465Y00916*
X00465Y00916*
X00466Y00917*
X00467Y00918*
X00468Y00918*
X00468Y00918*
X0047Y00919*
X0047Y00919*
X00471Y0092*
X00472Y0092*
X00473Y0092*
X00474Y00921*
X00475*
X00476*
X00477*
X00478Y00921*
X00479Y00921*
G37*
G36*
X01026Y00854D02*
X01027D01*
X01027*
X01027*
Y00853*
X01028*
X01028*
X01029Y00853*
X01029Y00853*
X01029*
X0103Y00852*
Y00852*
X0103Y00851*
X01031Y00851*
Y0085*
X01031*
Y0085*
Y0085*
Y00849*
Y00833*
Y00833*
Y00833*
X01031*
Y00832*
Y00832*
X0103Y00831*
Y00831*
X0103*
Y00831*
X01029Y0083*
X01029*
Y0083*
X01029*
Y00829*
X01028*
X01028Y00829*
X01027*
X01027*
X01026*
Y00829*
X01026*
X01025*
X0093*
X0093*
X00929*
Y00829*
X00929*
X00928*
X00928*
Y00829*
X00927*
X00927*
Y0083*
X00927*
Y0083*
X00926*
Y00831*
X00926*
Y00831*
X00925*
Y00831*
Y00832*
X00925*
Y00832*
Y00833*
X00925*
Y00833*
Y00833*
Y00849*
Y0085*
Y0085*
Y0085*
X00925*
Y00851*
X00925*
Y00851*
X00926Y00852*
X00926Y00852*
Y00853*
X00927*
X00927Y00853*
X00927Y00853*
X00928*
X00928*
X00929Y00854*
X00929*
X00929*
X0093*
X0093*
X01025*
X01026*
X01026*
G37*
G36*
X00227D02*
X00227D01*
X00228*
X00228*
Y00853*
X00229*
X00229*
X00229Y00853*
X0023Y00853*
X0023*
X00231Y00852*
Y00852*
X00231Y00851*
X00231Y00851*
Y0085*
X00232*
Y0085*
Y0085*
Y00849*
Y00833*
Y00833*
Y00833*
X00231*
Y00832*
Y00832*
X00231Y00831*
Y00831*
X00231*
Y00831*
X0023Y0083*
X0023*
Y0083*
X00229*
Y00829*
X00229*
X00229Y00829*
X00228*
X00228*
X00227*
Y00829*
X00227*
X00226*
X00131*
X00131*
X0013*
Y00829*
X00129*
X00129*
X00129*
Y00829*
X00128*
X00128*
Y0083*
X00127*
Y0083*
X00127*
Y00831*
X00127*
Y00831*
X00126*
Y00831*
Y00832*
X00126*
Y00832*
Y00833*
X00125*
Y00833*
Y00833*
Y00849*
Y0085*
Y0085*
Y0085*
X00126*
Y00851*
X00126*
Y00851*
X00127Y00852*
X00127Y00852*
Y00853*
X00127*
X00128Y00853*
X00128Y00853*
X00129*
X00129*
X00129Y00854*
X0013*
X0013*
X00131*
X00131*
X00226*
X00227*
X00227*
G37*
G36*
X0068D02*
X00681D01*
X00681*
X00683*
X00683Y00853*
X00685Y00853*
X00685Y00853*
X00686Y00852*
X00687Y00852*
X00688Y00851*
X00689Y00851*
X0069Y00851*
X0069Y0085*
X00691Y00849*
X00692Y00849*
X00692Y00848*
X00693Y00847*
X00694Y00846*
X00694Y00846*
X00695Y00845*
X00695Y00844*
X00696Y00843*
X00696Y00842*
X00696Y00841*
X00697Y0084*
Y00839*
X00697Y00838*
Y00837*
Y00837*
Y00835*
Y00835*
Y00833*
Y00833*
X00697Y00832*
Y00831*
X00696Y0083*
X00696Y00829*
X00696Y00828*
X00695Y00827*
X00695Y00826*
X00694Y00825*
X00694Y00825*
X00693Y00824*
X00692Y00823*
X00692Y00822*
X00691Y00822*
X0069Y00821*
X0069Y0082*
X00689Y0082*
X00688Y00819*
X00687Y00819*
X00686Y00818*
X00685Y00818*
X00685Y00818*
X00683*
X00683Y00817*
X00681*
X00681Y00817*
X0068*
X00679*
X00678*
X00677*
X00676Y00817*
X00675*
X00674Y00818*
X00673*
X00672Y00818*
X00671Y00818*
X0067Y00819*
X0067Y00819*
X00669Y0082*
X00668Y0082*
X00667Y00821*
X00666Y00822*
X00666Y00822*
X00665Y00823*
X00664Y00824*
X00664Y00824*
X00663Y00825*
X00663Y00826*
X00662Y00827*
X00662Y00827*
X00661Y00828*
X00661Y00829*
Y0083*
X00661Y00831*
Y00832*
X0066Y00833*
Y00834*
Y00835*
X00679*
Y00835*
X0066*
Y00837*
Y00837*
Y00838*
X00661Y00839*
Y0084*
X00661Y00841*
X00661Y00842*
X00662Y00843*
X00662Y00844*
X00662Y00845*
X00663Y00846*
X00664Y00846*
X00664Y00847*
X00665Y00848*
X00666Y00849*
X00666Y00849*
X00667Y0085*
X00668Y00851*
X00668Y00851*
X00669Y00851*
X0067Y00852*
X00671Y00852*
X00672Y00853*
X00673Y00853*
X00674Y00853*
X00675Y00854*
X00676*
X00677*
X00678*
X00679Y00854*
X0068Y00854*
G37*
G36*
X00613D02*
X00614D01*
X00614*
X00616*
X00616Y00853*
X00618Y00853*
X00618Y00853*
X00619Y00852*
X0062Y00852*
X00621Y00851*
X00622Y00851*
X00623Y00851*
X00624Y0085*
X00624Y00849*
X00625Y00849*
X00625Y00848*
X00626Y00847*
X00627Y00846*
X00627Y00846*
X00628Y00845*
X00628Y00844*
X00629Y00843*
X00629Y00842*
X00629Y00841*
X0063Y0084*
Y00839*
X0063Y00838*
Y00837*
Y00837*
Y00835*
Y00835*
Y00833*
Y00833*
X0063Y00832*
Y00831*
X00629Y0083*
X00629Y00829*
X00629Y00828*
X00628Y00827*
X00628Y00826*
X00627Y00825*
X00627Y00825*
X00626Y00824*
X00625Y00823*
X00625Y00822*
X00624Y00822*
X00624Y00821*
X00623Y0082*
X00622Y0082*
X00621Y00819*
X0062Y00819*
X00619Y00818*
X00618Y00818*
X00618Y00818*
X00616*
X00616Y00817*
X00614*
X00614Y00817*
X00613*
X00612*
X00611*
X0061*
X00609Y00817*
X00608*
X00607Y00818*
X00606*
X00605Y00818*
X00604Y00818*
X00603Y00819*
X00603Y00819*
X00602Y0082*
X00601Y0082*
X006Y00821*
X006Y00822*
X00599Y00822*
X00598Y00823*
X00598Y00824*
X00597Y00824*
X00596Y00825*
X00596Y00826*
X00595Y00827*
X00595Y00827*
X00594Y00828*
X00594Y00829*
Y0083*
X00594Y00831*
Y00832*
X00593Y00833*
Y00834*
Y00835*
X00612*
Y00835*
X00593*
Y00837*
Y00837*
Y00838*
X00594Y00839*
Y0084*
X00594Y00841*
X00594Y00842*
X00595Y00843*
X00595Y00844*
X00596Y00845*
X00596Y00846*
X00597Y00846*
X00597Y00847*
X00598Y00848*
X00599Y00849*
X00599Y00849*
X006Y0085*
X00601Y00851*
X00601Y00851*
X00602Y00851*
X00603Y00852*
X00604Y00852*
X00605Y00853*
X00606Y00853*
X00607Y00853*
X00608Y00854*
X00609*
X0061*
X00611*
X00612Y00854*
X00613Y00854*
G37*
G36*
X00546D02*
X00547D01*
X00548*
X00549*
X0055Y00853*
X00551Y00853*
X00551Y00853*
X00552Y00852*
X00553Y00852*
X00554Y00851*
X00555Y00851*
X00556Y00851*
X00557Y0085*
X00557Y00849*
X00558Y00849*
X00559Y00848*
X00559Y00847*
X0056Y00846*
X00561Y00846*
X00561Y00845*
X00561Y00844*
X00562Y00843*
X00562Y00842*
X00562Y00841*
X00563Y0084*
Y00839*
X00563Y00838*
Y00837*
Y00837*
Y00835*
Y00835*
Y00833*
Y00833*
X00563Y00832*
Y00831*
X00562Y0083*
X00562Y00829*
X00562Y00828*
X00561Y00827*
X00561Y00826*
X00561Y00825*
X0056Y00825*
X00559Y00824*
X00559Y00823*
X00558Y00822*
X00557Y00822*
X00557Y00821*
X00556Y0082*
X00555Y0082*
X00554Y00819*
X00553Y00819*
X00552Y00818*
X00551Y00818*
X00551Y00818*
X0055*
X00549Y00817*
X00548*
X00547Y00817*
X00546*
X00545*
X00544*
X00543*
X00542Y00817*
X00541*
X0054Y00818*
X00539*
X00538Y00818*
X00537Y00818*
X00537Y00819*
X00536Y00819*
X00535Y0082*
X00534Y0082*
X00533Y00821*
X00533Y00822*
X00532Y00822*
X00531Y00823*
X00531Y00824*
X0053Y00824*
X00529Y00825*
X00529Y00826*
X00528Y00827*
X00528Y00827*
X00527Y00828*
X00527Y00829*
Y0083*
X00527Y00831*
Y00832*
X00526Y00833*
Y00834*
Y00835*
X00545*
Y00835*
X00526*
Y00837*
Y00837*
Y00838*
X00527Y00839*
Y0084*
X00527Y00841*
X00527Y00842*
X00528Y00843*
X00528Y00844*
X00529Y00845*
X00529Y00846*
X0053Y00846*
X0053Y00847*
X00531Y00848*
X00532Y00849*
X00532Y00849*
X00533Y0085*
X00534Y00851*
X00535Y00851*
X00535Y00851*
X00537Y00852*
X00537Y00852*
X00538Y00853*
X00539Y00853*
X0054Y00853*
X00541Y00854*
X00542*
X00543*
X00544*
X00545Y00854*
X00546Y00854*
G37*
G36*
X00479D02*
X0048D01*
X00481*
X00482*
X00483Y00853*
X00484Y00853*
X00485Y00853*
X00485Y00852*
X00486Y00852*
X00487Y00851*
X00488Y00851*
X00489Y00851*
X0049Y0085*
X0049Y00849*
X00491Y00849*
X00492Y00848*
X00492Y00847*
X00493Y00846*
X00494Y00846*
X00494Y00845*
X00494Y00844*
X00495Y00843*
X00495Y00842*
X00496Y00841*
X00496Y0084*
Y00839*
X00496Y00838*
Y00837*
Y00837*
Y00835*
Y00835*
Y00833*
Y00833*
X00496Y00832*
Y00831*
X00496Y0083*
X00495Y00829*
X00495Y00828*
X00494Y00827*
X00494Y00826*
X00494Y00825*
X00493Y00825*
X00492Y00824*
X00492Y00823*
X00491Y00822*
X0049Y00822*
X0049Y00821*
X00489Y0082*
X00488Y0082*
X00487Y00819*
X00486Y00819*
X00485Y00818*
X00485Y00818*
X00484Y00818*
X00483*
X00482Y00817*
X00481*
X0048Y00817*
X00479*
X00478*
X00477*
X00476*
X00475Y00817*
X00474*
X00473Y00818*
X00472*
X00472Y00818*
X0047Y00818*
X0047Y00819*
X00469Y00819*
X00468Y0082*
X00467Y0082*
X00466Y00821*
X00466Y00822*
X00465Y00822*
X00464Y00823*
X00464Y00824*
X00463Y00824*
X00462Y00825*
X00462Y00826*
X00461Y00827*
X00461Y00827*
X00461Y00828*
X0046Y00829*
Y0083*
X0046Y00831*
Y00832*
X00459Y00833*
Y00834*
Y00835*
X00478*
Y00835*
X00459*
Y00837*
Y00837*
Y00838*
X0046Y00839*
Y0084*
X0046Y00841*
X00461Y00842*
X00461Y00843*
X00461Y00844*
X00462Y00845*
X00462Y00846*
X00463Y00846*
X00463Y00847*
X00464Y00848*
X00465Y00849*
X00465Y00849*
X00466Y0085*
X00467Y00851*
X00468Y00851*
X00468Y00851*
X0047Y00852*
X0047Y00852*
X00471Y00853*
X00472Y00853*
X00473Y00853*
X00474Y00854*
X00475*
X00476*
X00477*
X00478Y00854*
X00479Y00854*
G37*
G36*
X01026Y00811D02*
X01027D01*
X01027*
X01027*
Y0081*
X01028*
X01028*
X01029Y00809*
X01029*
X0103Y00809*
Y00809*
X0103Y00808*
X01031Y00808*
Y00807*
X01031*
Y00807*
Y00806*
Y00806*
Y0079*
Y0079*
Y00789*
X01031*
Y00789*
Y00788*
X0103Y00788*
Y00788*
X0103*
Y00787*
X01029Y00787*
X01029*
Y00787*
X01029*
Y00786*
X01028*
X01028Y00786*
X01027*
X01027*
X01026*
Y00785*
X01026*
X01025*
X0093*
X0093*
X00929*
Y00786*
X00929*
X00928*
X00928*
Y00786*
X00927*
X00927*
Y00787*
X00927*
Y00787*
X00926*
Y00787*
X00926*
Y00788*
X00925*
Y00788*
Y00788*
X00925*
Y00789*
Y00789*
X00925*
Y0079*
Y0079*
Y00806*
Y00806*
Y00807*
Y00807*
X00925*
Y00808*
X00925*
Y00808*
X00926Y00809*
X00926Y00809*
Y00809*
X00927*
X00927Y0081*
X00928*
X00928*
X00929Y00811*
X00929*
X00929*
X0093*
X0093*
X01025*
X01026*
X01026*
G37*
G36*
X00227D02*
X00227D01*
X00228*
X00228*
Y0081*
X00229*
X00229*
X0023Y00809*
X0023*
X00231Y00809*
Y00809*
X00231Y00808*
X00231Y00808*
Y00807*
X00232*
Y00807*
Y00806*
Y00806*
Y0079*
Y0079*
Y00789*
X00231*
Y00789*
Y00788*
X00231Y00788*
Y00788*
X00231*
Y00787*
X0023Y00787*
X0023*
Y00787*
X00229*
Y00786*
X00229*
X00229Y00786*
X00228*
X00228*
X00227*
Y00785*
X00227*
X00226*
X00131*
X00131*
X0013*
Y00786*
X00129*
X00129*
X00129*
Y00786*
X00128*
X00128*
Y00787*
X00127*
Y00787*
X00127*
Y00787*
X00127*
Y00788*
X00126*
Y00788*
Y00788*
X00126*
Y00789*
Y00789*
X00125*
Y0079*
Y0079*
Y00806*
Y00806*
Y00807*
Y00807*
X00126*
Y00808*
X00126*
Y00808*
X00127Y00809*
X00127Y00809*
Y00809*
X00127*
X00128Y0081*
X00129*
X00129*
X00129Y00811*
X0013*
X0013*
X00131*
X00131*
X00226*
X00227*
X00227*
G37*
G36*
X00837Y00717D02*
D01*
X00837*
X00838*
Y00717*
X00838*
X00838*
Y00716*
X00839*
X00839Y00716*
X0084Y00716*
X0084Y00715*
Y00715*
X0084Y00714*
Y00714*
Y00714*
X00841*
Y00713*
Y00713*
Y00712*
Y00711*
Y00617*
Y00616*
Y00615*
Y00615*
X0084Y00614*
Y00614*
Y00614*
X0084*
Y00613*
X0084Y00613*
X00839Y00612*
X00839Y00612*
X00838Y00612*
X00838*
X00838Y00611*
X00837*
X00837*
Y00611*
X00837*
X00821*
X0082*
Y00611*
X0082*
X0082*
X00819*
X00819Y00612*
X00818*
X00818Y00612*
X00818Y00612*
X00817Y00613*
X00817Y00613*
X00816Y00614*
Y00614*
X00816Y00615*
Y00615*
X00816Y00616*
Y00616*
Y00712*
Y00713*
X00816Y00713*
Y00714*
X00816Y00714*
Y00715*
X00817Y00715*
X00817Y00716*
X00818Y00716*
X00818Y00716*
X00818*
X00819Y00717*
X00819*
X0082Y00717*
X0082*
X0082*
X00821*
X00837*
X00837*
G37*
G36*
X00794D02*
D01*
X00794*
X00794*
Y00717*
X00795*
X00795*
Y00716*
X00796*
X00796Y00716*
X00796Y00716*
X00797Y00715*
Y00715*
X00797Y00714*
Y00714*
Y00714*
X00798*
Y00713*
Y00713*
Y00712*
Y00711*
Y00617*
Y00616*
Y00615*
Y00615*
X00797Y00614*
Y00614*
X00797*
Y00613*
X00796Y00613*
X00796Y00612*
X00796Y00612*
X00795Y00612*
X00795*
X00794Y00611*
X00794*
X00794*
Y00611*
X00793*
X00777*
X00777*
Y00611*
X00777*
X00776*
X00776*
X00775Y00612*
X00775*
X00775Y00612*
X00774Y00612*
X00774Y00613*
X00774Y00613*
X00773Y00614*
Y00614*
X00773Y00615*
Y00615*
X00772Y00616*
Y00616*
Y00712*
Y00713*
X00773Y00713*
Y00714*
X00773Y00714*
Y00715*
X00774Y00715*
X00774Y00716*
X00774Y00716*
X00775Y00716*
X00775*
X00775Y00717*
X00776*
X00776Y00717*
X00777*
X00777*
X00777*
X00793*
X00794*
G37*
G36*
X0075D02*
D01*
X00751*
X00751*
Y00717*
X00751*
X00752*
Y00716*
X00752*
X00753Y00716*
X00753Y00716*
X00753Y00715*
Y00715*
X00754Y00714*
Y00714*
Y00714*
X00754*
Y00713*
Y00713*
Y00712*
Y00711*
Y00617*
Y00616*
Y00615*
Y00615*
X00754Y00614*
Y00614*
X00753*
Y00613*
X00753Y00613*
X00753Y00612*
X00752Y00612*
X00752Y00612*
X00751*
X00751Y00611*
X00751*
X0075*
Y00611*
X0075*
X00734*
X00734*
Y00611*
X00733*
X00733*
X00733*
X00732Y00612*
X00732*
X00731Y00612*
X00731Y00612*
X00731Y00613*
X0073Y00613*
X0073Y00614*
Y00614*
X00729Y00614*
Y00615*
Y00615*
X00729Y00616*
Y00616*
Y00712*
Y00713*
X00729Y00713*
Y00714*
Y00714*
X0073Y00714*
Y00715*
X0073Y00715*
X00731Y00716*
X00731Y00716*
X00731Y00716*
X00732*
X00732Y00717*
X00733*
X00733Y00717*
X00733*
X00734*
X00734*
X0075*
X0075*
G37*
G36*
X00707D02*
D01*
X00707*
X00708*
Y00717*
X00708*
X00709*
Y00716*
X00709*
X00709Y00716*
X0071Y00716*
X0071Y00715*
Y00715*
X00711Y00714*
Y00714*
Y00714*
X00711*
Y00713*
Y00713*
Y00712*
Y00711*
Y00617*
Y00616*
Y00615*
Y00615*
X00711Y00614*
Y00614*
X0071*
Y00613*
X0071Y00613*
X00709Y00612*
X00709Y00612*
X00709Y00612*
X00708*
X00708Y00611*
X00707*
X00707*
Y00611*
X00707*
X00691*
X0069*
Y00611*
X0069*
X0069*
X00689*
X00689Y00612*
X00688*
X00688Y00612*
X00688Y00612*
X00687Y00613*
X00687Y00613*
X00687Y00614*
Y00614*
X00686Y00614*
Y00615*
Y00615*
X00686Y00616*
Y00616*
Y00712*
Y00713*
X00686Y00713*
Y00714*
Y00714*
X00687Y00714*
Y00715*
X00687*
Y00715*
X00687Y00716*
X00688Y00716*
X00688Y00716*
X00688*
X00689Y00717*
X00689*
X0069Y00717*
X0069*
X0069*
X00691*
X00707*
X00707*
G37*
G36*
X00664D02*
D01*
X00664*
X00664*
Y00717*
X00665*
X00665*
Y00716*
X00666*
X00666Y00716*
X00666Y00716*
X00667Y00715*
Y00715*
X00667Y00714*
Y00714*
Y00714*
X00668*
Y00713*
Y00713*
Y00712*
Y00711*
Y00617*
Y00616*
Y00615*
Y00615*
X00667Y00614*
Y00614*
X00667*
Y00613*
X00666Y00613*
X00666Y00612*
X00666Y00612*
X00665Y00612*
X00665*
X00664Y00611*
X00664*
X00664*
Y00611*
X00663*
X00648*
X00647*
Y00611*
X00647*
X00646*
X00646*
X00646Y00612*
X00645*
X00645Y00612*
X00644Y00612*
X00644Y00613*
X00644Y00613*
X00643Y00614*
Y00614*
X00643Y00615*
Y00615*
X00642Y00616*
Y00616*
Y00712*
Y00713*
X00643Y00713*
Y00714*
X00643Y00714*
Y00715*
X00644*
Y00715*
X00644Y00716*
X00644Y00716*
X00645Y00716*
X00645*
X00646Y00717*
X00646*
X00646Y00717*
X00647*
X00647*
X00648*
X00663*
X00664*
G37*
G36*
X00565D02*
D01*
X00566*
X00566*
Y00717*
X00566*
X00567*
Y00716*
X00567*
X00568Y00716*
X00568Y00716*
X00568Y00715*
Y00715*
X00569Y00714*
Y00714*
Y00714*
X00569*
Y00713*
Y00713*
Y00712*
Y00711*
Y00617*
Y00616*
Y00615*
Y00615*
X00569Y00614*
Y00614*
X00568*
Y00613*
X00568Y00613*
X00568Y00612*
X00567Y00612*
X00567Y00612*
X00566*
X00566Y00611*
X00566*
X00565*
Y00611*
X00565*
X00549*
X00549*
Y00611*
X00548*
X00548*
X00548*
X00547Y00612*
X00547*
X00546Y00612*
X00546Y00612*
X00546Y00613*
X00545Y00613*
X00545Y00614*
Y00614*
X00544Y00615*
Y00615*
X00544Y00616*
Y00616*
Y00712*
Y00713*
X00544Y00713*
Y00714*
X00545Y00714*
Y00715*
X00545*
Y00715*
X00546Y00716*
X00546Y00716*
X00546Y00716*
X00547*
X00547Y00717*
X00548*
X00548Y00717*
X00548*
X00549*
X00549*
X00565*
X00565*
G37*
G36*
X00522D02*
D01*
X00522*
X00523*
Y00717*
X00523*
X00524*
Y00716*
X00524*
X00524Y00716*
X00525Y00716*
X00525Y00715*
Y00715*
X00525Y00714*
Y00714*
Y00714*
X00526*
Y00713*
Y00713*
Y00712*
Y00711*
Y00617*
Y00616*
Y00615*
Y00615*
X00525Y00614*
Y00614*
X00525*
Y00613*
X00525Y00613*
X00524Y00612*
X00524Y00612*
X00524Y00612*
X00523*
X00523Y00611*
X00522*
X00522*
Y00611*
X00522*
X00506*
X00505*
Y00611*
X00505*
X00505*
X00504*
X00504Y00612*
X00503*
X00503Y00612*
X00503Y00612*
X00502Y00613*
X00502Y00613*
X00501Y00614*
Y00614*
X00501Y00615*
X00501Y00616*
Y00616*
Y00712*
Y00713*
X00501Y00713*
Y00714*
X00501Y00714*
Y00715*
X00502*
Y00715*
X00502Y00716*
X00503Y00716*
X00503Y00716*
X00503*
X00504Y00717*
X00504*
X00505Y00717*
X00505*
X00505*
X00506*
X00522*
X00522*
G37*
G36*
X00479D02*
D01*
X00479*
X00479*
Y00717*
X0048*
X0048*
Y00716*
X00481*
X00481Y00716*
X00481Y00716*
X00482Y00715*
Y00715*
X00482Y00714*
Y00714*
Y00714*
X00483*
Y00713*
Y00713*
Y00712*
Y00711*
Y00617*
Y00616*
Y00615*
Y00615*
X00482Y00614*
Y00614*
X00482*
Y00613*
X00481Y00613*
X00481Y00612*
X00481Y00612*
X0048Y00612*
X0048*
X00479Y00611*
X00479*
X00479*
Y00611*
X00478*
X00462*
X00462*
Y00611*
X00462*
X00461*
X00461*
X00461Y00612*
X0046*
X0046Y00612*
X00459Y00612*
X00459Y00613*
X00459Y00613*
X00458Y00614*
Y00614*
X00458Y00615*
X00457Y00616*
Y00616*
Y00712*
Y00713*
X00458Y00713*
Y00714*
X00458Y00714*
Y00715*
X00459Y00715*
X00459Y00716*
X00459Y00716*
X0046Y00716*
X0046*
X00461Y00717*
X00461*
X00461Y00717*
X00462*
X00462*
X00462*
X00478*
X00479*
G37*
G36*
X00435D02*
D01*
X00436*
X00436*
Y00717*
X00437*
X00437*
Y00716*
X00437*
X00438Y00716*
X00438Y00716*
X00438Y00715*
Y00715*
X00439Y00714*
Y00714*
Y00714*
X00439*
Y00713*
Y00713*
Y00712*
Y00711*
Y00617*
Y00616*
Y00615*
Y00615*
X00439Y00614*
Y00614*
Y00614*
X00438*
Y00613*
X00438Y00613*
X00438Y00612*
X00437Y00612*
X00437Y00612*
X00437*
X00436Y00611*
X00436*
X00435*
Y00611*
X00435*
X00419*
X00419*
Y00611*
X00418*
X00418*
X00418*
X00417Y00612*
X00417*
X00416Y00612*
X00416Y00612*
X00416Y00613*
X00415Y00613*
X00415Y00614*
Y00614*
X00414Y00615*
Y00615*
X00414Y00616*
Y00616*
Y00712*
Y00713*
X00414Y00713*
Y00714*
X00415Y00714*
Y00715*
X00415Y00715*
X00416Y00716*
X00416Y00716*
X00416Y00716*
X00417*
X00417Y00717*
X00418*
X00418Y00717*
X00418*
X00419*
X00419*
X00435*
X00435*
G37*
G36*
X00392D02*
D01*
X00392*
X00393*
Y00717*
X00393*
X00394*
Y00716*
X00394*
X00394Y00716*
X00395Y00716*
X00395Y00715*
Y00715*
X00396Y00714*
Y00714*
Y00714*
X00396*
Y00713*
Y00713*
Y00712*
Y00711*
Y00617*
Y00616*
Y00615*
Y00615*
X00396Y00614*
Y00614*
X00395*
Y00613*
X00395Y00613*
X00394Y00612*
X00394Y00612*
X00394Y00612*
X00393*
X00393Y00611*
X00392*
X00392*
Y00611*
X00392*
X00376*
X00375*
Y00611*
X00375*
X00375*
X00374*
X00374Y00612*
X00374*
X00373Y00612*
X00373Y00612*
X00372Y00613*
X00372Y00613*
X00372Y00614*
Y00614*
X00371Y00615*
Y00615*
X00371Y00616*
Y00616*
Y00712*
Y00713*
X00371Y00713*
Y00714*
X00372Y00714*
Y00715*
X00372Y00715*
X00372Y00716*
X00373Y00716*
X00373Y00716*
X00374*
X00374Y00717*
X00374*
X00375Y00717*
X00375*
X00375*
X00376*
X00392*
X00392*
G37*
G36*
X00349D02*
D01*
X00349*
X0035*
Y00717*
X0035*
X0035*
Y00716*
X00351*
X00351Y00716*
X00351Y00716*
X00352Y00715*
Y00715*
X00352Y00714*
Y00714*
Y00714*
X00353*
Y00713*
Y00713*
Y00712*
Y00711*
Y00617*
Y00616*
Y00615*
Y00615*
X00352Y00614*
Y00614*
X00352*
Y00613*
X00351Y00613*
X00351Y00612*
X00351Y00612*
X0035Y00612*
X0035*
X0035Y00611*
X00349*
X00349*
Y00611*
X00348*
X00333*
X00332*
Y00611*
X00332*
X00331*
X00331*
X00331Y00612*
X0033*
X0033Y00612*
X00329Y00612*
X00329Y00613*
X00329Y00613*
X00328Y00614*
Y00614*
X00328Y00615*
Y00615*
X00327Y00616*
Y00616*
Y00712*
Y00713*
X00328Y00713*
Y00714*
X00328Y00714*
Y00715*
X00329Y00715*
X00329Y00716*
X00329Y00716*
X0033Y00716*
X0033*
X00331Y00717*
X00331*
X00331Y00717*
X00332*
X00332*
X00333*
X00348*
X00349*
G37*
G36*
X00564Y01662D02*
D01*
X00565*
X00566*
Y01662*
X00566*
X00566*
Y01661*
X00567*
X00567Y01661*
X00568*
Y01661*
X00568*
Y0166*
Y0166*
X00568*
Y01659*
X00569*
Y01659*
Y01659*
X00569Y01658*
Y01658*
Y01657*
Y01561*
Y01561*
Y0156*
X00569Y0156*
Y01559*
Y01559*
X00568*
Y01559*
X00568Y01558*
Y01558*
X00568*
Y01557*
X00567*
X00567Y01557*
X00566Y01557*
X00566*
X00566Y01556*
X00565*
X00565*
X00564*
Y01556*
X00564*
X00548*
X00548*
Y01556*
X00548*
X00547*
X00547Y01557*
X00546*
X00546Y01557*
X00546Y01557*
X00545Y01558*
Y01558*
X00545Y01559*
X00544*
Y01559*
Y01559*
X00544Y0156*
Y0156*
Y01561*
Y01562*
Y01656*
Y01657*
Y01658*
Y01658*
Y01659*
X00544*
Y01659*
Y01659*
X00545Y0166*
X00545Y0166*
Y01661*
X00546Y01661*
X00546Y01661*
X00546*
X00547Y01662*
X00547*
Y01662*
X00548*
X00548*
X00548*
X00564*
X00564*
G37*
G36*
X00521D02*
D01*
X00522*
X00522*
X00522*
Y01662*
X00523*
X00523*
Y01661*
X00524*
X00524Y01661*
X00524*
Y01661*
X00525*
Y0166*
X00525Y0166*
Y01659*
X00525*
Y01659*
Y01659*
X00526Y01658*
Y01658*
Y01657*
Y01561*
Y01561*
Y0156*
X00525Y0156*
Y01559*
Y01559*
X00525*
Y01559*
X00525Y01558*
Y01558*
X00524*
Y01557*
X00524*
X00524Y01557*
X00523Y01557*
X00523*
X00522Y01556*
X00522*
X00522*
X00521*
Y01556*
X00521*
X00505*
X00505*
Y01556*
X00504*
X00504*
X00503Y01557*
X00503*
X00503Y01557*
X00502Y01557*
X00502Y01558*
Y01558*
X00501Y01559*
X00501*
Y01559*
Y01559*
X00501Y0156*
Y0156*
Y01561*
Y01562*
Y01656*
Y01657*
Y01658*
Y01658*
Y01659*
X00501*
Y01659*
Y01659*
X00501Y0166*
X00502Y0166*
Y01661*
X00502Y01661*
X00503Y01661*
X00503*
X00503Y01662*
X00504*
Y01662*
X00504*
X00505*
X00505*
X00521*
X00521*
G37*
G36*
X00478D02*
D01*
X00478*
X00479*
Y01662*
X00479*
X0048*
Y01661*
X0048*
X00481Y01661*
X00481*
Y01661*
X00481*
Y0166*
X00482Y0166*
Y01659*
X00482*
Y01659*
Y01658*
X00483*
Y01658*
Y01657*
Y01561*
Y01561*
Y0156*
X00482Y0156*
Y01559*
X00482*
Y01559*
X00481Y01558*
Y01558*
X00481*
Y01557*
X00481*
X0048Y01557*
X0048Y01557*
X00479*
X00479Y01556*
X00479*
X00478*
X00478*
Y01556*
X00477*
X00462*
X00461*
Y01556*
X00461*
X00461*
X0046Y01557*
X0046*
X00459Y01557*
X00459Y01557*
X00459Y01558*
Y01558*
X00458Y01559*
X00458*
Y01559*
Y01559*
X00457Y0156*
Y0156*
Y01561*
Y01562*
Y01656*
Y01657*
Y01658*
Y01658*
Y01659*
X00458*
Y01659*
Y01659*
X00458Y0166*
X00459Y0166*
Y01661*
X00459Y01661*
X00459Y01661*
X0046*
X0046Y01662*
X00461*
Y01662*
X00461*
X00461*
X00462*
X00477*
X00478*
G37*
G36*
X00435D02*
D01*
X00435*
X00436*
Y01662*
X00436*
X00437*
Y01661*
X00437*
X00437Y01661*
X00438*
Y01661*
X00438*
Y0166*
X00438Y0166*
Y01659*
X00439*
Y01659*
Y01658*
X00439*
Y01658*
Y01657*
Y01561*
Y01561*
Y0156*
X00439Y0156*
Y01559*
X00438*
Y01559*
X00438Y01558*
Y01558*
X00438*
Y01557*
X00437*
X00437Y01557*
X00437Y01557*
X00436*
X00436Y01556*
X00435*
X00435*
X00435*
Y01556*
X00434*
X00418*
X00418*
Y01556*
X00418*
X00417*
X00417Y01557*
X00416*
X00416Y01557*
X00416Y01557*
X00415Y01558*
Y01558*
X00415*
Y01559*
X00414*
Y01559*
Y01559*
X00414Y0156*
Y0156*
Y01561*
Y01562*
Y01656*
Y01657*
Y01658*
Y01658*
Y01659*
X00414*
Y01659*
Y01659*
X00415Y0166*
Y0166*
X00415*
Y01661*
X00416Y01661*
X00416Y01661*
X00416*
X00417Y01662*
X00417*
Y01662*
X00418*
X00418*
X00418*
X00434*
X00435*
G37*
G36*
X00391D02*
D01*
X00392*
X00392*
Y01662*
X00393*
X00393*
Y01661*
X00394*
X00394Y01661*
X00394*
Y01661*
X00395*
Y0166*
X00395Y0166*
Y01659*
X00396*
Y01659*
Y01658*
X00396*
Y01658*
Y01657*
Y01561*
Y01561*
Y0156*
X00396Y0156*
Y01559*
X00395*
Y01559*
X00395Y01558*
Y01558*
X00394*
Y01557*
X00394*
X00394Y01557*
X00393Y01557*
X00393*
X00392Y01556*
X00392*
X00392*
X00391*
Y01556*
X00391*
X00375*
X00375*
Y01556*
X00374*
X00374*
X00374Y01557*
X00373*
X00373Y01557*
X00372Y01557*
X00372Y01558*
Y01558*
X00372*
Y01559*
X00371*
Y01559*
Y01559*
X00371Y0156*
Y0156*
Y01561*
Y01562*
Y01656*
Y01657*
Y01658*
Y01658*
Y01659*
X00371*
Y01659*
Y01659*
X00372Y0166*
Y0166*
X00372*
Y01661*
X00372Y01661*
X00373Y01661*
X00373*
X00374Y01662*
X00374*
Y01662*
X00374*
X00375*
X00375*
X00391*
X00391*
G37*
G36*
X00348D02*
D01*
X00348*
X00349*
Y01662*
X0035*
X0035*
Y01661*
X0035*
X00351Y01661*
X00351*
Y01661*
X00351*
Y0166*
X00352Y0166*
Y01659*
X00352*
Y01659*
Y01658*
X00353Y01658*
Y01657*
Y01561*
Y01561*
X00352Y0156*
Y01559*
X00352*
Y01559*
X00351Y01558*
Y01558*
X00351*
Y01557*
X00351*
X0035Y01557*
X0035Y01557*
X0035*
X00349Y01556*
X00349*
X00348*
X00348*
Y01556*
X00348*
X00332*
X00331*
Y01556*
X00331*
X00331*
X0033Y01557*
X0033*
X00329Y01557*
X00329Y01557*
X00329Y01558*
Y01558*
X00328Y01559*
X00328*
Y01559*
Y01559*
X00327Y0156*
Y0156*
Y01561*
Y01562*
Y01656*
Y01657*
Y01658*
Y01658*
Y01659*
X00328*
Y01659*
Y01659*
X00328Y0166*
X00329Y0166*
Y01661*
X00329Y01661*
X00329Y01661*
X0033*
X0033Y01662*
X00331*
Y01662*
X00331*
X00331*
X00332*
X00348*
X00348*
G37*
G36*
X00227Y01484D02*
D01*
X00228*
X00228*
Y01483*
X00229*
X00229*
X00229Y01483*
X0023Y01483*
X0023*
X00231Y01482*
Y01482*
X00231Y01481*
X00231Y01481*
Y0148*
X00232*
Y0148*
Y01479*
Y01479*
Y01463*
Y01463*
Y01462*
X00231*
Y01462*
X00231Y01461*
Y01461*
X00231*
Y01461*
X0023Y0146*
X0023*
Y0146*
X00229Y01459*
X00229Y01459*
X00228*
X00228*
X00227*
X00227Y01459*
X00226*
X00131*
X00131*
X0013Y01459*
X00129*
X00129*
X00129*
Y01459*
X00128*
X00127Y0146*
Y0146*
X00127*
Y01461*
X00127*
Y01461*
X00126*
Y01461*
Y01462*
X00126*
Y01462*
X00125*
Y01463*
Y01463*
Y01479*
Y01479*
Y0148*
Y0148*
X00126*
Y01481*
X00126*
Y01481*
X00127Y01482*
X00127Y01482*
Y01483*
X00127*
X00128Y01483*
X00128Y01483*
X00129*
X00129*
X00129Y01484*
X0013*
X00131*
X00131*
X00226*
X00227*
X00227*
G37*
G36*
Y0144D02*
D01*
X00228*
X00228*
Y0144*
X00229*
X00229*
X00229Y0144*
X0023Y01439*
X0023*
X00231Y01439*
Y01438*
X00231Y01438*
X00231Y01438*
Y01437*
Y01437*
X00232*
Y01437*
Y01436*
Y01436*
Y0142*
Y0142*
Y01419*
X00231*
Y01418*
X00231Y01418*
Y01418*
X00231*
Y01417*
X0023Y01417*
X0023*
Y01416*
X00229Y01416*
X00229Y01416*
X00228*
X00228*
X00227*
X00227Y01415*
X00227*
X00226*
X00131*
X00131*
X0013*
X0013Y01416*
X00129*
X00129*
X00129*
Y01416*
X00128*
X00127Y01416*
Y01417*
X00127*
Y01417*
X00127*
Y01418*
X00126*
Y01418*
Y01418*
X00126*
Y01419*
X00125*
Y0142*
Y0142*
Y01436*
Y01436*
Y01437*
Y01437*
X00126*
Y01437*
Y01438*
X00126*
Y01438*
X00127Y01438*
X00127Y01439*
Y01439*
X00127*
X00128Y0144*
X00128Y0144*
X00129*
X00129*
X00129Y0144*
X0013*
X00131*
X00131*
X00226*
X00227*
X00227*
G37*
G36*
X00546Y01456D02*
X00547D01*
X00548*
X00549*
X0055Y01456*
X00551Y01455*
X00551Y01455*
X00552Y01455*
X00553Y01454*
X00554Y01454*
X00555Y01453*
X00556Y01453*
X00557Y01452*
X00557Y01451*
X00558Y01451*
X00559Y0145*
X00559Y0145*
X0056Y01449*
X00561Y01448*
X00561Y01447*
X00561Y01446*
X00562Y01446*
X00562Y01444*
X00562Y01444*
X00563Y01443*
Y01442*
X00563Y01441*
Y0144*
Y01439*
Y01438*
Y01437*
Y01436*
Y01435*
X00563Y01434*
Y01433*
X00562Y01432*
X00562Y01431*
X00562Y0143*
X00561Y01429*
X00561Y01429*
X00561Y01428*
X0056Y01427*
X00559Y01426*
X00559Y01425*
X00558Y01425*
X00557Y01424*
X00557Y01424*
X00556Y01423*
X00555Y01422*
X00554Y01422*
X00553Y01421*
X00552Y01421*
X00551Y0142*
X00551Y0142*
X0055*
X00549Y0142*
X00548*
X00547Y01419*
X00546*
X00545*
X00544*
X00543*
X00542Y0142*
X00541*
X0054Y0142*
X00539*
X00538Y0142*
X00537Y01421*
X00537Y01421*
X00536Y01422*
X00535Y01422*
X00534Y01423*
X00533Y01423*
X00533Y01424*
X00532Y01424*
X00531Y01425*
X00531Y01426*
X0053Y01427*
X00529Y01427*
X00529Y01428*
X00528Y01429*
X00528Y0143*
X00527Y01431*
X00527Y01432*
Y01433*
X00527Y01433*
Y01435*
X00526Y01435*
Y01437*
Y01437*
X00545*
Y01438*
X00526*
Y01439*
Y0144*
Y01441*
X00527Y01442*
Y01443*
X00527Y01444*
X00527Y01444*
X00528Y01446*
X00528Y01446*
X00529Y01447*
X00529Y01448*
X0053Y01449*
X0053Y0145*
X00531Y0145*
X00532Y01451*
X00532Y01451*
X00533Y01452*
X00534Y01453*
X00535Y01453*
X00535Y01454*
X00537Y01454*
X00537Y01455*
X00538Y01455*
X00539Y01455*
X0054Y01456*
X00541Y01456*
X00542*
X00543*
X00544*
X00545Y01457*
X00546Y01456*
G37*
G36*
X00479D02*
X0048D01*
X00481*
X00482*
X00483Y01456*
X00484Y01455*
X00485Y01455*
X00485Y01455*
X00486Y01454*
X00487Y01454*
X00488Y01453*
X00489Y01453*
X0049Y01452*
X0049Y01451*
X00491Y01451*
X00492Y0145*
X00492Y0145*
X00493Y01449*
X00494Y01448*
X00494Y01447*
X00494Y01446*
X00495Y01446*
X00495Y01444*
X00496Y01444*
X00496Y01443*
Y01442*
X00496Y01441*
Y0144*
Y01439*
Y01438*
Y01437*
Y01436*
Y01435*
X00496Y01434*
Y01433*
X00496Y01432*
X00495Y01431*
X00495Y0143*
X00494Y01429*
X00494Y01429*
X00494Y01428*
X00493Y01427*
X00492Y01426*
X00492Y01425*
X00491Y01425*
X0049Y01424*
X0049Y01424*
X00489Y01423*
X00488Y01422*
X00487Y01422*
X00486Y01421*
X00485Y01421*
X00485Y0142*
X00484Y0142*
X00483*
X00482Y0142*
X00481*
X0048Y01419*
X00479*
X00478*
X00477*
X00476*
X00475Y0142*
X00474*
X00473Y0142*
X00472*
X00472Y0142*
X0047Y01421*
X0047Y01421*
X00469Y01422*
X00468Y01422*
X00467Y01423*
X00466Y01423*
X00466Y01424*
X00465Y01424*
X00464Y01425*
X00464Y01426*
X00463Y01427*
X00462Y01427*
X00462Y01428*
X00461Y01429*
X00461Y0143*
X00461Y01431*
X0046Y01432*
Y01433*
X0046Y01433*
Y01435*
X00459Y01435*
Y01437*
Y01437*
X00478*
Y01438*
X00459*
Y01439*
Y0144*
Y01441*
X0046Y01442*
Y01443*
X0046Y01444*
X00461Y01444*
X00461Y01446*
X00461Y01446*
X00462Y01447*
X00462Y01448*
X00463Y01449*
X00463Y0145*
X00464Y0145*
X00465Y01451*
X00465Y01451*
X00466Y01452*
X00467Y01453*
X00468Y01453*
X00468Y01454*
X0047Y01454*
X0047Y01455*
X00471Y01455*
X00472Y01455*
X00473Y01456*
X00474Y01456*
X00475*
X00476*
X00477*
X00478Y01457*
X00479Y01456*
G37*
G36*
X00227Y01397D02*
X00228D01*
X00228*
Y01397*
X00229*
X00229*
X00229Y01396*
X0023Y01396*
X0023*
X00231Y01396*
Y01395*
X00231Y01395*
X00231Y01394*
Y01394*
X00232*
Y01393*
Y01393*
Y01392*
Y01377*
Y01376*
Y01376*
X00231*
Y01375*
X00231Y01375*
Y01374*
X00231*
Y01374*
X0023Y01374*
X0023*
Y01373*
X00229Y01373*
X00229*
X00229Y01372*
X00228*
X00228*
X00227Y01372*
X00227*
X00226*
X00131*
X00131*
X0013*
X00129Y01372*
X00129*
X00129*
Y01373*
X00128*
X00128*
X00127Y01373*
Y01374*
X00127*
Y01374*
X00127*
Y01374*
X00126*
Y01375*
Y01375*
X00126*
Y01376*
X00125*
Y01376*
Y01377*
Y01392*
Y01393*
Y01393*
Y01394*
X00126*
Y01394*
X00126*
Y01395*
X00127Y01395*
X00127Y01396*
Y01396*
X00127*
X00128Y01396*
X00128Y01397*
X00129*
X00129*
X00129Y01397*
X0013*
X00131*
X00131*
X00226*
X00227*
X00227*
G37*
G36*
Y01354D02*
X00227D01*
X00228*
X00228*
Y01353*
X00229*
X00229*
X00229Y01353*
X0023Y01353*
X0023*
X00231Y01352*
Y01352*
X00231Y01351*
X00231Y01351*
Y0135*
X00232*
Y0135*
Y0135*
Y01349*
Y01333*
Y01333*
Y01333*
X00231*
Y01332*
Y01332*
X00231Y01331*
Y01331*
X00231*
Y01331*
X0023Y0133*
X0023*
Y0133*
X00229*
Y01329*
X00229*
X00229Y01329*
X00228*
X00228*
X00227*
Y01329*
X00227*
X00226*
X00131*
X00131*
X0013*
Y01329*
X00129*
X00129*
X00129*
Y01329*
X00128*
X00128*
Y0133*
X00127*
Y0133*
X00127*
Y01331*
X00127*
Y01331*
X00126*
Y01331*
Y01332*
X00126*
Y01332*
Y01333*
X00125*
Y01333*
Y01333*
Y01349*
Y0135*
Y0135*
Y0135*
X00126*
Y01351*
X00126*
Y01351*
X00127Y01352*
X00127Y01352*
Y01353*
X00127*
X00128Y01353*
X00128Y01353*
X00129*
X00129*
X00129Y01354*
X0013*
X0013*
X00131*
X00131*
X00226*
X00227*
X00227*
G37*
G36*
X00546Y01389D02*
X00547D01*
X00548*
X00549*
X0055Y01389*
X00551Y01388*
X00551Y01388*
X00552Y01388*
X00553Y01387*
X00554Y01387*
X00555Y01387*
X00556Y01386*
X00557Y01385*
X00557Y01385*
X00558Y01384*
X00559Y01383*
X00559Y01383*
X0056Y01382*
X00561Y01381*
X00561Y0138*
X00561Y01379*
X00562Y01379*
X00562Y01377*
X00562Y01377*
X00563Y01376*
Y01375*
X00563Y01374*
Y01373*
Y01372*
Y01371*
Y0137*
Y01369*
Y01368*
X00563Y01367*
Y01366*
X00562Y01365*
X00562Y01364*
X00562Y01363*
X00561Y01362*
X00561Y01362*
X00561Y01361*
X0056Y0136*
X00559Y01359*
X00559Y01359*
X00558Y01358*
X00557Y01357*
X00557Y01357*
X00556Y01356*
X00555Y01355*
X00554Y01355*
X00553Y01354*
X00552Y01354*
X00551Y01353*
X00551Y01353*
X0055*
X00549Y01353*
X00548*
X00547Y01352*
X00546*
X00545*
X00544*
X00543*
X00542Y01353*
X00541*
X0054Y01353*
X00539*
X00538Y01353*
X00537Y01354*
X00537Y01354*
X00536Y01355*
X00535Y01355*
X00534Y01356*
X00533Y01356*
X00533Y01357*
X00532Y01357*
X00531Y01358*
X00531Y01359*
X0053Y0136*
X00529Y01361*
X00529Y01361*
X00528Y01362*
X00528Y01363*
X00527Y01364*
X00527Y01365*
Y01366*
X00527Y01366*
Y01368*
X00526Y01368*
Y0137*
Y0137*
X00545*
Y01371*
X00526*
Y01372*
Y01373*
Y01374*
X00527Y01375*
Y01376*
X00527Y01377*
X00527Y01377*
X00528Y01379*
X00528Y01379*
X00529Y0138*
X00529Y01381*
X0053Y01382*
X0053Y01383*
X00531Y01383*
X00532Y01384*
X00532Y01385*
X00533Y01385*
X00534Y01386*
X00535Y01387*
X00535Y01387*
X00537Y01387*
X00537Y01388*
X00538Y01388*
X00539Y01388*
X0054Y01389*
X00541Y01389*
X00542*
X00543*
X00544*
X00545Y0139*
X00546Y01389*
G37*
G36*
X00479D02*
X0048D01*
X00481*
X00482*
X00483Y01389*
X00484Y01388*
X00485Y01388*
X00485Y01388*
X00486Y01387*
X00487Y01387*
X00488Y01387*
X00489Y01386*
X0049Y01385*
X0049Y01385*
X00491Y01384*
X00492Y01383*
X00492Y01383*
X00493Y01382*
X00494Y01381*
X00494Y0138*
X00494Y01379*
X00495Y01379*
X00495Y01377*
X00496Y01377*
X00496Y01376*
Y01375*
X00496Y01374*
Y01373*
Y01372*
Y01371*
Y0137*
Y01369*
Y01368*
X00496Y01367*
Y01366*
X00496Y01365*
X00495Y01364*
X00495Y01363*
X00494Y01362*
X00494Y01362*
X00494Y01361*
X00493Y0136*
X00492Y01359*
X00492Y01359*
X00491Y01358*
X0049Y01357*
X0049Y01357*
X00489Y01356*
X00488Y01355*
X00487Y01355*
X00486Y01354*
X00485Y01354*
X00485Y01353*
X00484Y01353*
X00483*
X00482Y01353*
X00481*
X0048Y01352*
X00479*
X00478*
X00477*
X00476*
X00475Y01353*
X00474*
X00473Y01353*
X00472*
X00472Y01353*
X0047Y01354*
X0047Y01354*
X00469Y01355*
X00468Y01355*
X00467Y01356*
X00466Y01356*
X00466Y01357*
X00465Y01357*
X00464Y01358*
X00464Y01359*
X00463Y0136*
X00462Y01361*
X00462Y01361*
X00461Y01362*
X00461Y01363*
X00461Y01364*
X0046Y01365*
Y01366*
X0046Y01366*
Y01368*
X00459Y01368*
Y0137*
Y0137*
X00478*
Y01371*
X00459*
Y01372*
Y01373*
Y01374*
X0046Y01375*
Y01376*
X0046Y01377*
X00461Y01377*
X00461Y01379*
X00461Y01379*
X00462Y0138*
X00462Y01381*
X00463Y01382*
X00463Y01383*
X00464Y01383*
X00465Y01384*
X00465Y01385*
X00466Y01385*
X00467Y01386*
X00468Y01387*
X00468Y01387*
X0047Y01387*
X0047Y01388*
X00471Y01388*
X00472Y01388*
X00473Y01389*
X00474Y01389*
X00475*
X00476*
X00477*
X00478Y0139*
X00479Y01389*
G37*
G36*
X00227Y01311D02*
X00227D01*
X00228*
X00228*
Y0131*
X00229*
X00229*
X0023Y01309*
X0023*
X00231Y01309*
Y01309*
X00231Y01308*
X00231Y01308*
Y01307*
X00232*
Y01307*
Y01306*
Y01306*
Y0129*
Y0129*
Y01289*
X00231*
Y01289*
Y01288*
X00231Y01288*
Y01288*
X00231*
Y01287*
X0023Y01287*
X0023*
Y01287*
X00229*
Y01286*
X00229*
X00229Y01286*
X00228*
X00228*
X00227*
Y01285*
X00227*
X00226*
X00131*
X00131*
X0013*
Y01286*
X00129*
X00129*
X00129*
Y01286*
X00128*
X00128*
Y01287*
X00127*
Y01287*
X00127*
Y01287*
X00127*
Y01288*
X00126*
Y01288*
Y01288*
X00126*
Y01289*
Y01289*
X00125*
Y0129*
Y0129*
Y01306*
Y01306*
Y01307*
Y01307*
X00126*
Y01308*
X00126*
Y01308*
X00127Y01309*
X00127Y01309*
Y01309*
X00127*
X00128Y0131*
X00129*
X00129*
X00129Y01311*
X0013*
X0013*
X00131*
X00131*
X00226*
X00227*
X00227*
G37*
G36*
X00412Y01322D02*
X00413D01*
X00414*
X00415*
X00416Y01322*
X00417Y01322*
X00418Y01321*
X00418Y01321*
X00419Y0132*
X0042Y0132*
X00421Y0132*
X00422Y01319*
X00423Y01318*
X00424Y01318*
X00424Y01317*
X00425Y01316*
X00425Y01316*
X00426Y01315*
X00427Y01314*
X00427Y01313*
X00427Y01312*
X00428Y01312*
X00428Y01311*
X00429Y0131*
X00429Y01309*
Y01308*
X00429Y01307*
Y01306*
Y01305*
Y01304*
Y01303*
Y01302*
Y01301*
X00429Y013*
Y01299*
X00429Y01298*
X00428Y01297*
X00428Y01296*
X00427Y01296*
X00427Y01295*
X00427Y01294*
X00426Y01293*
X00425Y01292*
X00425Y01292*
X00424Y01291*
X00424Y0129*
X00423Y0129*
X00422Y01289*
X00421Y01288*
X0042Y01288*
X00419Y01287*
X00418Y01287*
X00418Y01287*
X00417Y01286*
X00416*
X00415Y01286*
X00414*
X00413Y01285*
X00412*
X00411*
X0041*
X00409*
X00408Y01286*
X00407*
X00406Y01286*
X00405*
X00405Y01287*
X00403Y01287*
X00403Y01287*
X00402Y01288*
X00401Y01288*
X004Y01289*
X004Y01289*
X00399Y0129*
X00398Y0129*
X00397Y01291*
X00397Y01292*
X00396Y01293*
X00396Y01294*
X00395Y01294*
X00394Y01295*
X00394Y01296*
X00394Y01297*
X00393Y01298*
Y01299*
X00393Y013*
Y01301*
X00392Y01301*
Y01303*
Y01303*
X00411*
Y01304*
X00392*
Y01305*
Y01306*
Y01307*
X00393Y01308*
Y01309*
X00393Y0131*
X00394Y01311*
X00394Y01312*
X00394Y01312*
X00395Y01313*
X00395Y01314*
X00396Y01315*
X00396Y01316*
X00397Y01316*
X00398Y01317*
X00398Y01318*
X00399Y01318*
X004Y01319*
X00401Y0132*
X00401Y0132*
X00403Y0132*
X00403Y01321*
X00404Y01321*
X00405Y01322*
X00406Y01322*
X00407Y01322*
X00408*
X00409*
X0041*
X00411Y01323*
X00412Y01322*
G37*
G36*
X00345D02*
X00346D01*
X00347*
X00348*
X00349Y01322*
X0035Y01322*
X00351Y01321*
X00351Y01321*
X00352Y0132*
X00353Y0132*
X00354Y0132*
X00355Y01319*
X00356Y01318*
X00357Y01318*
X00357Y01317*
X00358Y01316*
X00359Y01316*
X00359Y01315*
X0036Y01314*
X0036Y01313*
X00361Y01312*
X00361Y01312*
X00361Y01311*
X00362Y0131*
X00362Y01309*
Y01308*
X00362Y01307*
Y01306*
Y01305*
Y01304*
Y01303*
Y01302*
Y01301*
X00362Y013*
Y01299*
X00362Y01298*
X00361Y01297*
X00361Y01296*
X00361Y01296*
X0036Y01295*
X0036Y01294*
X00359Y01293*
X00359Y01292*
X00358Y01292*
X00357Y01291*
X00357Y0129*
X00356Y0129*
X00355Y01289*
X00354Y01288*
X00353Y01288*
X00352Y01287*
X00351Y01287*
X00351Y01287*
X0035Y01286*
X00349*
X00348Y01286*
X00347*
X00346Y01285*
X00345*
X00344*
X00343*
X00342*
X00341Y01286*
X0034*
X00339Y01286*
X00338*
X00338Y01287*
X00337Y01287*
X00336Y01287*
X00335Y01288*
X00334Y01288*
X00333Y01289*
X00333Y01289*
X00332Y0129*
X00331Y0129*
X0033Y01291*
X0033Y01292*
X00329Y01293*
X00329Y01294*
X00328Y01294*
X00327Y01295*
X00327Y01296*
X00327Y01297*
X00326Y01298*
Y01299*
X00326Y013*
Y01301*
X00325Y01301*
Y01303*
Y01303*
X00344*
Y01304*
X00325*
Y01305*
Y01306*
Y01307*
X00326Y01308*
Y01309*
X00326Y0131*
X00327Y01311*
X00327Y01312*
X00327Y01312*
X00328Y01313*
X00328Y01314*
X00329Y01315*
X00329Y01316*
X0033Y01316*
X00331Y01317*
X00331Y01318*
X00332Y01318*
X00333Y01319*
X00334Y0132*
X00335Y0132*
X00336Y0132*
X00337Y01321*
X00337Y01321*
X00338Y01322*
X00339Y01322*
X0034Y01322*
X00341*
X00342*
X00343*
X00344Y01323*
X00345Y01322*
G37*
G36*
X00227Y01267D02*
X00227D01*
X00228*
X00228*
Y01267*
X00229*
X00229*
X0023Y01266*
X0023*
X00231Y01266*
Y01265*
X00231Y01265*
X00231Y01264*
Y01264*
X00232*
Y01263*
Y01263*
Y01262*
Y01247*
Y01246*
Y01246*
X00231*
Y01245*
X00231Y01245*
Y01244*
X00231*
Y01244*
X0023Y01244*
X0023*
Y01243*
X00229*
X00229Y01243*
X00229Y01242*
X00228*
X00228*
X00227*
X00227*
X00227Y01242*
X00226*
X00131*
X00131*
X0013Y01242*
X0013*
X00129*
X00129*
X00129*
Y01243*
X00128*
X00128Y01243*
X00127*
Y01244*
X00127*
Y01244*
X00127*
Y01244*
X00126*
Y01245*
Y01245*
X00126*
Y01246*
X00125*
Y01246*
Y01247*
Y01262*
Y01263*
Y01263*
Y01264*
X00126*
Y01264*
X00126*
Y01265*
X00127Y01265*
X00127Y01266*
Y01266*
X00127*
X00128Y01267*
X00129*
X00129*
X00129Y01267*
X0013*
X0013*
X00131*
X00131*
X00226*
X00227*
X00227*
G37*
G36*
Y01224D02*
X00227D01*
X00228*
X00228*
Y01224*
X00229*
X00229*
X0023Y01223*
X0023*
X00231Y01222*
Y01222*
X00231Y01222*
X00231Y01221*
Y0122*
X00232*
Y0122*
Y0122*
Y01219*
Y01203*
Y01203*
Y01203*
X00231*
Y01202*
X00231Y01201*
Y01201*
X00231*
Y01201*
X0023Y012*
X0023*
Y012*
X00229Y012*
X00229Y01199*
X00228*
X00228*
X00227*
X00227*
X00227Y01199*
X00226*
X00131*
X00131*
X0013Y01199*
X0013*
X00129*
X00129*
X00129*
Y012*
X00128*
X00127Y012*
Y012*
X00127*
Y01201*
X00127*
Y01201*
X00126*
Y01201*
Y01202*
X00126*
Y01203*
X00125*
Y01203*
Y01203*
Y01219*
Y0122*
Y0122*
Y0122*
X00126*
Y01221*
X00126*
Y01222*
X00127Y01222*
X00127Y01222*
Y01223*
X00127*
X00128Y01224*
X00129*
X00129*
X00129Y01224*
X0013*
X0013*
X00131*
X00131*
X00226*
X00227*
X00227*
G37*
G36*
X00412Y01255D02*
X00413D01*
X00414*
X00415*
X00416Y01255*
X00417Y01255*
X00418Y01254*
X00418Y01254*
X00419Y01253*
X0042Y01253*
X00421Y01253*
X00422Y01252*
X00423Y01251*
X00424Y01251*
X00424Y0125*
X00425Y0125*
X00425Y01249*
X00426Y01248*
X00427Y01247*
X00427Y01246*
X00427Y01246*
X00428Y01245*
X00428Y01244*
X00429Y01243*
X00429Y01242*
Y01241*
X00429Y0124*
Y01239*
Y01238*
Y01237*
Y01236*
Y01235*
Y01234*
X00429Y01233*
Y01232*
X00429Y01231*
X00428Y0123*
X00428Y01229*
X00427Y01229*
X00427Y01228*
X00427Y01227*
X00426Y01226*
X00425Y01225*
X00425Y01225*
X00424Y01224*
X00424Y01223*
X00423Y01223*
X00422Y01222*
X00421Y01222*
X0042Y01221*
X00419Y0122*
X00418Y0122*
X00418Y0122*
X00417Y01219*
X00416*
X00415Y01219*
X00414*
X00413Y01218*
X00412*
X00411*
X0041*
X00409*
X00408Y01219*
X00407*
X00406Y01219*
X00405*
X00405Y0122*
X00403Y0122*
X00403Y0122*
X00402Y01221*
X00401Y01221*
X004Y01222*
X004Y01222*
X00399Y01223*
X00398Y01224*
X00397Y01224*
X00397Y01225*
X00396Y01226*
X00396Y01227*
X00395Y01227*
X00394Y01228*
X00394Y01229*
X00394Y0123*
X00393Y01231*
Y01232*
X00393Y01233*
Y01234*
X00392Y01235*
Y01236*
Y01237*
X00411*
Y01237*
X00392*
Y01238*
Y01239*
Y0124*
X00393Y01241*
Y01242*
X00393Y01243*
X00394Y01244*
X00394Y01245*
X00394Y01246*
X00395Y01246*
X00395Y01247*
X00396Y01248*
X00396Y01249*
X00397Y0125*
X00398Y0125*
X00398Y01251*
X00399Y01251*
X004Y01252*
X00401Y01253*
X00401Y01253*
X00403Y01253*
X00403Y01254*
X00404Y01254*
X00405Y01255*
X00406Y01255*
X00407Y01255*
X00408*
X00409*
X0041*
X00411Y01256*
X00412Y01255*
G37*
G36*
X00345D02*
X00346D01*
X00347*
X00348*
X00349Y01255*
X0035Y01255*
X00351Y01254*
X00351Y01254*
X00352Y01253*
X00353Y01253*
X00354Y01253*
X00355Y01252*
X00356Y01251*
X00357Y01251*
X00357Y0125*
X00358Y0125*
X00359Y01249*
X00359Y01248*
X0036Y01247*
X0036Y01246*
X00361Y01246*
X00361Y01245*
X00361Y01244*
X00362Y01243*
X00362Y01242*
Y01241*
X00362Y0124*
Y01239*
Y01238*
Y01237*
Y01236*
Y01235*
Y01234*
X00362Y01233*
Y01232*
X00362Y01231*
X00361Y0123*
X00361Y01229*
X00361Y01229*
X0036Y01228*
X0036Y01227*
X00359Y01226*
X00359Y01225*
X00358Y01225*
X00357Y01224*
X00357Y01223*
X00356Y01223*
X00355Y01222*
X00354Y01222*
X00353Y01221*
X00352Y0122*
X00351Y0122*
X00351Y0122*
X0035Y01219*
X00349*
X00348Y01219*
X00347*
X00346Y01218*
X00345*
X00344*
X00343*
X00342*
X00341Y01219*
X0034*
X00339Y01219*
X00338*
X00338Y0122*
X00337Y0122*
X00336Y0122*
X00335Y01221*
X00334Y01221*
X00333Y01222*
X00333Y01222*
X00332Y01223*
X00331Y01224*
X0033Y01224*
X0033Y01225*
X00329Y01226*
X00329Y01227*
X00328Y01227*
X00327Y01228*
X00327Y01229*
X00327Y0123*
X00326Y01231*
Y01232*
X00326Y01233*
Y01234*
X00325Y01235*
Y01236*
Y01237*
X00344*
Y01237*
X00325*
Y01238*
Y01239*
Y0124*
X00326Y01241*
Y01242*
X00326Y01243*
X00327Y01244*
X00327Y01245*
X00327Y01246*
X00328Y01246*
X00328Y01247*
X00329Y01248*
X00329Y01249*
X0033Y0125*
X00331Y0125*
X00331Y01251*
X00332Y01251*
X00333Y01252*
X00334Y01253*
X00335Y01253*
X00336Y01253*
X00337Y01254*
X00337Y01254*
X00338Y01255*
X00339Y01255*
X0034Y01255*
X00341*
X00342*
X00343*
X00344Y01256*
X00345Y01255*
G37*
G36*
X00227Y01157D02*
X00227D01*
X00228*
X00228*
Y01157*
X00229*
X00229*
X00229Y01156*
X0023Y01156*
X0023*
X00231Y01155*
Y01155*
X00231Y01155*
X00231Y01154*
Y01153*
X00232*
Y01153*
Y01153*
Y01152*
Y01137*
Y01136*
Y01136*
X00231*
Y01135*
Y01135*
X00231Y01135*
Y01134*
X00231*
Y01134*
X0023Y01133*
X0023*
Y01133*
X00229*
Y01133*
X00229*
X00229Y01132*
X00228*
X00228*
X00227*
Y01132*
X00227*
X00226*
X00131*
X00131*
X0013*
Y01132*
X00129*
X00129*
X00129*
Y01133*
X00128*
X00128*
Y01133*
X00127*
Y01133*
X00127*
Y01134*
X00127*
Y01134*
X00126*
Y01135*
Y01135*
X00126*
Y01135*
Y01136*
X00125*
Y01136*
Y01137*
Y01152*
Y01153*
Y01153*
Y01153*
X00126*
Y01154*
X00126*
Y01155*
X00127Y01155*
X00127Y01155*
Y01156*
X00127*
X00128Y01156*
X00128Y01157*
X00129*
X00129*
X00129Y01157*
X0013*
X0013*
X00131*
X00131*
X00226*
X00227*
X00227*
G37*
G36*
X00412Y01188D02*
X00413D01*
X00414*
X00415*
X00416Y01188*
X00417Y01188*
X00418Y01187*
X00418Y01187*
X00419Y01187*
X0042Y01186*
X00421Y01186*
X00422Y01185*
X00423Y01185*
X00424Y01184*
X00424Y01183*
X00425Y01183*
X00425Y01182*
X00426Y01181*
X00427Y0118*
X00427Y01179*
X00427Y01179*
X00428Y01178*
X00428Y01177*
X00429Y01176*
X00429Y01175*
Y01174*
X00429Y01173*
Y01172*
Y01171*
Y0117*
Y01169*
Y01168*
Y01167*
X00429Y01166*
Y01165*
X00429Y01164*
X00428Y01163*
X00428Y01162*
X00427Y01162*
X00427Y01161*
X00427Y0116*
X00426Y01159*
X00425Y01159*
X00425Y01158*
X00424Y01157*
X00424Y01156*
X00423Y01156*
X00422Y01155*
X00421Y01155*
X0042Y01154*
X00419Y01153*
X00418Y01153*
X00418Y01153*
X00417Y01152*
X00416*
X00415Y01152*
X00414*
X00413Y01151*
X00412*
X00411*
X0041*
X00409*
X00408Y01152*
X00407*
X00406Y01152*
X00405*
X00405Y01153*
X00403Y01153*
X00403Y01153*
X00402Y01154*
X00401Y01154*
X004Y01155*
X004Y01155*
X00399Y01156*
X00398Y01157*
X00397Y01157*
X00397Y01158*
X00396Y01159*
X00396Y0116*
X00395Y01161*
X00394Y01161*
X00394Y01162*
X00394Y01163*
X00393Y01164*
Y01165*
X00393Y01166*
Y01167*
X00392Y01168*
Y01169*
Y0117*
X00411*
Y0117*
X00392*
Y01171*
Y01172*
Y01173*
X00393Y01174*
Y01175*
X00393Y01176*
X00394Y01177*
X00394Y01178*
X00394Y01179*
X00395Y01179*
X00395Y0118*
X00396Y01181*
X00396Y01182*
X00397Y01183*
X00398Y01183*
X00398Y01184*
X00399Y01185*
X004Y01185*
X00401Y01186*
X00401Y01186*
X00403Y01187*
X00403Y01187*
X00404Y01187*
X00405Y01188*
X00406Y01188*
X00407Y01188*
X00408*
X00409*
X0041*
X00411Y01189*
X00412Y01188*
G37*
G36*
X00345D02*
X00346D01*
X00347*
X00348*
X00349Y01188*
X0035Y01188*
X00351Y01187*
X00351Y01187*
X00352Y01187*
X00353Y01186*
X00354Y01186*
X00355Y01185*
X00356Y01185*
X00357Y01184*
X00357Y01183*
X00358Y01183*
X00359Y01182*
X00359Y01181*
X0036Y0118*
X0036Y01179*
X00361Y01179*
X00361Y01178*
X00361Y01177*
X00362Y01176*
X00362Y01175*
Y01174*
X00362Y01173*
Y01172*
Y01171*
Y0117*
Y01169*
Y01168*
Y01167*
X00362Y01166*
Y01165*
X00362Y01164*
X00361Y01163*
X00361Y01162*
X00361Y01162*
X0036Y01161*
X0036Y0116*
X00359Y01159*
X00359Y01159*
X00358Y01158*
X00357Y01157*
X00357Y01156*
X00356Y01156*
X00355Y01155*
X00354Y01155*
X00353Y01154*
X00352Y01153*
X00351Y01153*
X00351Y01153*
X0035Y01152*
X00349*
X00348Y01152*
X00347*
X00346Y01151*
X00345*
X00344*
X00343*
X00342*
X00341Y01152*
X0034*
X00339Y01152*
X00338*
X00338Y01153*
X00337Y01153*
X00336Y01153*
X00335Y01154*
X00334Y01154*
X00333Y01155*
X00333Y01155*
X00332Y01156*
X00331Y01157*
X0033Y01157*
X0033Y01158*
X00329Y01159*
X00329Y0116*
X00328Y01161*
X00327Y01161*
X00327Y01162*
X00327Y01163*
X00326Y01164*
Y01165*
X00326Y01166*
Y01167*
X00325Y01168*
Y01169*
Y0117*
X00344*
Y0117*
X00325*
Y01171*
Y01172*
Y01173*
X00326Y01174*
Y01175*
X00326Y01176*
X00327Y01177*
X00327Y01178*
X00327Y01179*
X00328Y01179*
X00328Y0118*
X00329Y01181*
X00329Y01182*
X0033Y01183*
X00331Y01183*
X00331Y01184*
X00332Y01185*
X00333Y01185*
X00334Y01186*
X00335Y01186*
X00336Y01187*
X00337Y01187*
X00337Y01187*
X00338Y01188*
X00339Y01188*
X0034Y01188*
X00341*
X00342*
X00343*
X00344Y01189*
X00345Y01188*
G37*
G36*
X00836Y01662D02*
D01*
X00837*
X00837*
Y01662*
X00838*
X00838*
Y01661*
X00838*
X00839Y01661*
X00839*
Y01661*
X0084*
Y0166*
X0084Y0166*
Y01659*
X0084*
Y01659*
Y01658*
X00841*
Y01658*
Y01657*
Y01561*
Y01561*
Y0156*
X0084Y0156*
Y01559*
X0084*
Y01559*
X0084Y01558*
Y01558*
X00839*
Y01557*
X00839*
X00838Y01557*
X00838Y01557*
X00838*
X00837Y01556*
X00837*
X00837*
X00836*
Y01556*
X00836*
X0082*
X0082*
Y01556*
X00819*
X00819*
X00818Y01557*
X00818*
X00818Y01557*
X00817Y01557*
X00817Y01558*
Y01558*
X00816*
Y01559*
X00816*
Y01559*
Y01559*
X00816Y0156*
Y0156*
Y01561*
Y01562*
Y01656*
Y01657*
Y01658*
Y01658*
Y01659*
X00816*
Y01659*
Y01659*
X00816Y0166*
Y0166*
X00817*
Y01661*
X00817Y01661*
X00818Y01661*
X00818*
X00818Y01662*
X00819*
Y01662*
X00819*
X0082*
X0082*
X00836*
X00836*
G37*
G36*
X00793D02*
D01*
X00793*
X00794*
Y01662*
X00794*
X00795*
Y01661*
X00795*
X00796Y01661*
X00796*
Y01661*
X00796*
Y0166*
X00797Y0166*
Y01659*
X00797*
Y01659*
Y01658*
X00798*
Y01658*
Y01657*
Y01561*
Y01561*
Y0156*
X00797Y0156*
Y01559*
X00797*
Y01559*
X00796Y01558*
Y01558*
X00796*
Y01557*
X00796*
X00795Y01557*
X00795Y01557*
X00794*
X00794Y01556*
X00794*
X00793*
X00793*
Y01556*
X00792*
X00777*
X00776*
Y01556*
X00776*
X00775*
X00775Y01557*
X00775*
X00774Y01557*
X00774Y01557*
X00774Y01558*
Y01558*
X00773*
Y01559*
X00773*
Y01559*
Y01559*
X00772Y0156*
Y0156*
Y01561*
Y01562*
Y01656*
Y01657*
Y01658*
Y01658*
Y01659*
X00773*
Y01659*
Y01659*
X00773Y0166*
Y0166*
X00774*
Y01661*
X00774Y01661*
X00774Y01661*
X00775*
X00775Y01662*
X00775*
Y01662*
X00776*
X00776*
X00777*
X00792*
X00793*
G37*
G36*
X0075D02*
D01*
X0075*
X00751*
Y01662*
X00751*
X00751*
Y01661*
X00752*
X00752Y01661*
X00753*
Y01661*
X00753*
Y0166*
X00753Y0166*
Y01659*
X00754*
Y01659*
Y01658*
X00754Y01658*
Y01657*
Y01561*
Y01561*
X00754Y0156*
Y01559*
X00753*
Y01559*
X00753Y01558*
Y01558*
X00753*
Y01557*
X00752*
X00752Y01557*
X00751Y01557*
X00751*
X00751Y01556*
X0075*
X0075*
X0075*
Y01556*
X00749*
X00733*
X00733*
Y01556*
X00733*
X00732*
X00732Y01557*
X00731*
X00731Y01557*
X00731Y01557*
X0073Y01558*
Y01558*
X0073Y01559*
X00729*
Y01559*
Y01559*
X00729Y0156*
Y0156*
Y01561*
Y01562*
Y01656*
Y01657*
Y01658*
Y01658*
Y01659*
X00729*
Y01659*
Y01659*
X0073Y0166*
X0073Y0166*
Y01661*
X00731Y01661*
X00731Y01661*
X00731*
X00732Y01662*
X00732*
Y01662*
X00733*
X00733*
X00733*
X00749*
X0075*
G37*
G36*
X00706D02*
D01*
X00707*
X00707*
Y01662*
X00708*
X00708*
Y01661*
X00709*
X00709Y01661*
X00709*
Y01661*
X0071*
Y0166*
Y0166*
X0071*
Y01659*
X00711*
Y01659*
Y01658*
X00711*
Y01658*
Y01657*
Y01561*
Y01561*
Y0156*
X00711Y0156*
Y01559*
X0071*
Y01559*
X0071Y01558*
Y01558*
X00709*
Y01557*
X00709*
X00709Y01557*
X00708Y01557*
X00708*
X00707Y01556*
X00707*
X00707*
X00706*
Y01556*
X00706*
X0069*
X0069*
Y01556*
X00689*
X00689*
X00688Y01557*
X00688*
X00688Y01557*
X00687Y01557*
X00687Y01558*
Y01558*
X00687Y01559*
X00686*
Y01559*
Y01559*
X00686Y0156*
Y0156*
Y01561*
Y01562*
Y01656*
Y01657*
Y01658*
Y01658*
Y01659*
X00686*
Y01659*
Y01659*
X00687Y0166*
X00687Y0166*
Y01661*
X00687Y01661*
X00688Y01661*
X00688*
X00688Y01662*
X00689*
Y01662*
X00689*
X0069*
X0069*
X00706*
X00706*
G37*
G36*
X00663D02*
D01*
X00663*
X00664*
Y01662*
X00664*
X00665*
Y01661*
X00665*
X00666Y01661*
X00666*
Y01661*
X00666*
Y0166*
Y0166*
X00667*
Y01659*
X00667*
Y01659*
Y01658*
X00668*
Y01658*
Y01657*
Y01561*
Y01561*
Y0156*
X00667Y0156*
Y01559*
X00667*
Y01559*
X00666Y01558*
Y01558*
X00666*
Y01557*
X00666*
X00665Y01557*
X00665Y01557*
X00664*
X00664Y01556*
X00664*
X00663*
X00663*
Y01556*
X00662*
X00647*
X00646*
Y01556*
X00646*
X00646*
X00645Y01557*
X00645*
X00644Y01557*
X00644Y01557*
X00644Y01558*
Y01558*
X00643Y01559*
X00643*
Y01559*
Y01559*
X00642Y0156*
Y0156*
Y01561*
Y01562*
Y01656*
Y01657*
Y01658*
Y01658*
Y01659*
X00643*
Y01659*
Y01659*
X00643Y0166*
X00644Y0166*
Y01661*
X00644Y01661*
X00644Y01661*
X00645*
X00645Y01662*
X00646*
Y01662*
X00646*
X00646*
X00647*
X00662*
X00663*
G37*
G36*
X01026Y01484D02*
D01*
X01027*
X01027*
Y01483*
X01028*
X01028*
X01029Y01483*
X01029Y01483*
X01029*
X0103Y01482*
Y01482*
X0103Y01481*
X01031Y01481*
Y0148*
X01031*
Y0148*
Y01479*
Y01479*
Y01463*
Y01463*
Y01462*
X01031*
Y01462*
X0103Y01461*
Y01461*
X0103*
Y01461*
X01029Y0146*
X01029*
Y0146*
X01028Y01459*
X01028Y01459*
X01027*
X01027*
X01027*
X01026Y01459*
X01025*
X0093*
X0093*
X00929Y01459*
X00929*
X00928*
X00928*
Y01459*
X00927*
X00927Y0146*
Y0146*
X00926*
Y01461*
X00926*
Y01461*
X00925*
Y01461*
Y01462*
X00925*
Y01462*
X00925*
Y01463*
Y01463*
Y01479*
Y01479*
Y0148*
Y0148*
X00925*
Y01481*
X00925*
Y01481*
X00926Y01482*
X00926Y01482*
Y01483*
X00927*
X00927Y01483*
X00927Y01483*
X00928*
X00928*
X00929Y01484*
X00929*
X0093*
X0093*
X01025*
X01026*
X01026*
G37*
G36*
Y0144D02*
D01*
X01027*
X01027*
Y0144*
X01028*
X01028*
X01029Y0144*
X01029Y01439*
X01029*
X0103Y01439*
Y01438*
X0103Y01438*
X01031Y01438*
Y01437*
Y01437*
X01031*
Y01437*
Y01436*
Y01436*
Y0142*
Y0142*
Y01419*
X01031*
Y01418*
X0103Y01418*
Y01418*
X0103*
Y01417*
X01029Y01417*
X01029*
Y01416*
X01028Y01416*
X01028Y01416*
X01027*
X01027*
X01027*
X01026Y01415*
X01026*
X01025*
X0093*
X0093*
X00929*
X00929Y01416*
X00929*
X00928*
X00928*
Y01416*
X00927*
X00927Y01416*
Y01417*
X00926*
Y01417*
X00926*
Y01418*
X00925*
Y01418*
Y01418*
X00925*
Y01419*
X00925*
Y0142*
Y0142*
Y01436*
Y01436*
Y01437*
Y01437*
X00925*
Y01437*
Y01438*
X00925*
Y01438*
X00926Y01438*
X00926Y01439*
Y01439*
X00927*
X00927Y0144*
X00927Y0144*
X00928*
X00928*
X00929Y0144*
X00929*
X0093*
X0093*
X01025*
X01026*
X01026*
G37*
G36*
X0068Y01456D02*
X00681D01*
X00681*
X00683*
X00683Y01456*
X00685Y01455*
X00685Y01455*
X00686Y01455*
X00687Y01454*
X00688Y01454*
X00689Y01453*
X0069Y01453*
X0069Y01452*
X00691Y01451*
X00692Y01451*
X00692Y0145*
X00693Y0145*
X00694Y01449*
X00694Y01448*
X00695Y01447*
X00695Y01446*
X00696Y01446*
X00696Y01444*
X00696Y01444*
X00697Y01443*
Y01442*
X00697Y01441*
Y0144*
Y01439*
Y01438*
Y01437*
Y01436*
Y01435*
X00697Y01434*
Y01433*
X00696Y01432*
X00696Y01431*
X00696Y0143*
X00695Y01429*
X00695Y01429*
X00694Y01428*
X00694Y01427*
X00693Y01426*
X00692Y01425*
X00692Y01425*
X00691Y01424*
X0069Y01424*
X0069Y01423*
X00689Y01422*
X00688Y01422*
X00687Y01421*
X00686Y01421*
X00685Y0142*
X00685Y0142*
X00683*
X00683Y0142*
X00681*
X00681Y01419*
X0068*
X00679*
X00678*
X00677*
X00676Y0142*
X00675*
X00674Y0142*
X00673*
X00672Y0142*
X00671Y01421*
X0067Y01421*
X0067Y01422*
X00669Y01422*
X00668Y01423*
X00667Y01423*
X00666Y01424*
X00666Y01424*
X00665Y01425*
X00664Y01426*
X00664Y01427*
X00663Y01427*
X00663Y01428*
X00662Y01429*
X00662Y0143*
X00661Y01431*
X00661Y01432*
Y01433*
X00661Y01433*
Y01435*
X0066Y01435*
Y01437*
Y01437*
X00679*
Y01438*
X0066*
Y01439*
Y0144*
Y01441*
X00661Y01442*
Y01443*
X00661Y01444*
X00661Y01444*
X00662Y01446*
X00662Y01446*
X00662Y01447*
X00663Y01448*
X00664Y01449*
X00664Y0145*
X00665Y0145*
X00666Y01451*
X00666Y01451*
X00667Y01452*
X00668Y01453*
X00668Y01453*
X00669Y01454*
X0067Y01454*
X00671Y01455*
X00672Y01455*
X00673Y01455*
X00674Y01456*
X00675Y01456*
X00676*
X00677*
X00678*
X00679Y01457*
X0068Y01456*
G37*
G36*
X00613D02*
X00614D01*
X00614*
X00616*
X00616Y01456*
X00618Y01455*
X00618Y01455*
X00619Y01455*
X0062Y01454*
X00621Y01454*
X00622Y01453*
X00623Y01453*
X00624Y01452*
X00624Y01451*
X00625Y01451*
X00625Y0145*
X00626Y0145*
X00627Y01449*
X00627Y01448*
X00628Y01447*
X00628Y01446*
X00629Y01446*
X00629Y01444*
X00629Y01444*
X0063Y01443*
Y01442*
X0063Y01441*
Y0144*
Y01439*
Y01438*
Y01437*
Y01436*
Y01435*
X0063Y01434*
Y01433*
X00629Y01432*
X00629Y01431*
X00629Y0143*
X00628Y01429*
X00628Y01429*
X00627Y01428*
X00627Y01427*
X00626Y01426*
X00625Y01425*
X00625Y01425*
X00624Y01424*
X00624Y01424*
X00623Y01423*
X00622Y01422*
X00621Y01422*
X0062Y01421*
X00619Y01421*
X00618Y0142*
X00618Y0142*
X00616*
X00616Y0142*
X00614*
X00614Y01419*
X00613*
X00612*
X00611*
X0061*
X00609Y0142*
X00608*
X00607Y0142*
X00606*
X00605Y0142*
X00604Y01421*
X00603Y01421*
X00603Y01422*
X00602Y01422*
X00601Y01423*
X006Y01423*
X006Y01424*
X00599Y01424*
X00598Y01425*
X00598Y01426*
X00597Y01427*
X00596Y01427*
X00596Y01428*
X00595Y01429*
X00595Y0143*
X00594Y01431*
X00594Y01432*
Y01433*
X00594Y01433*
Y01435*
X00593Y01435*
Y01437*
Y01437*
X00612*
Y01438*
X00593*
Y01439*
Y0144*
Y01441*
X00594Y01442*
Y01443*
X00594Y01444*
X00594Y01444*
X00595Y01446*
X00595Y01446*
X00596Y01447*
X00596Y01448*
X00597Y01449*
X00597Y0145*
X00598Y0145*
X00599Y01451*
X00599Y01451*
X006Y01452*
X00601Y01453*
X00601Y01453*
X00602Y01454*
X00603Y01454*
X00604Y01455*
X00605Y01455*
X00606Y01455*
X00607Y01456*
X00608Y01456*
X00609*
X0061*
X00611*
X00612Y01457*
X00613Y01456*
G37*
G36*
X01026Y01397D02*
X01027D01*
X01027*
Y01397*
X01028*
X01028*
X01029Y01396*
X01029Y01396*
X01029*
X0103Y01396*
Y01395*
X0103Y01395*
X01031Y01394*
Y01394*
X01031*
Y01393*
Y01393*
Y01392*
Y01377*
Y01376*
Y01376*
X01031*
Y01375*
X0103Y01375*
Y01374*
X0103*
Y01374*
X01029Y01374*
X01029*
Y01373*
X01029Y01373*
X01028*
X01028Y01372*
X01027*
X01027*
X01026Y01372*
X01026*
X01025*
X0093*
X0093*
X00929*
X00929Y01372*
X00928*
X00928*
Y01373*
X00927*
X00927*
X00927Y01373*
Y01374*
X00926*
Y01374*
X00926*
Y01374*
X00925*
Y01375*
Y01375*
X00925*
Y01376*
X00925*
Y01376*
Y01377*
Y01392*
Y01393*
Y01393*
Y01394*
X00925*
Y01394*
X00925*
Y01395*
X00926Y01395*
X00926Y01396*
Y01396*
X00927*
X00927Y01396*
X00927Y01397*
X00928*
X00928*
X00929Y01397*
X00929*
X0093*
X0093*
X01025*
X01026*
X01026*
G37*
G36*
Y01354D02*
X01027D01*
X01027*
X01027*
Y01353*
X01028*
X01028*
X01029Y01353*
X01029Y01353*
X01029*
X0103Y01352*
Y01352*
X0103Y01351*
X01031Y01351*
Y0135*
X01031*
Y0135*
Y0135*
Y01349*
Y01333*
Y01333*
Y01333*
X01031*
Y01332*
Y01332*
X0103Y01331*
Y01331*
X0103*
Y01331*
X01029Y0133*
X01029*
Y0133*
X01029*
Y01329*
X01028*
X01028Y01329*
X01027*
X01027*
X01026*
Y01329*
X01026*
X01025*
X0093*
X0093*
X00929*
Y01329*
X00929*
X00928*
X00928*
Y01329*
X00927*
X00927*
Y0133*
X00927*
Y0133*
X00926*
Y01331*
X00926*
Y01331*
X00925*
Y01331*
Y01332*
X00925*
Y01332*
Y01333*
X00925*
Y01333*
Y01333*
Y01349*
Y0135*
Y0135*
Y0135*
X00925*
Y01351*
X00925*
Y01351*
X00926Y01352*
X00926Y01352*
Y01353*
X00927*
X00927Y01353*
X00927Y01353*
X00928*
X00928*
X00929Y01354*
X00929*
X00929*
X0093*
X0093*
X01025*
X01026*
X01026*
G37*
G36*
X0068Y01389D02*
X00681D01*
X00681*
X00683*
X00683Y01389*
X00685Y01388*
X00685Y01388*
X00686Y01388*
X00687Y01387*
X00688Y01387*
X00689Y01387*
X0069Y01386*
X0069Y01385*
X00691Y01385*
X00692Y01384*
X00692Y01383*
X00693Y01383*
X00694Y01382*
X00694Y01381*
X00695Y0138*
X00695Y01379*
X00696Y01379*
X00696Y01377*
X00696Y01377*
X00697Y01376*
Y01375*
X00697Y01374*
Y01373*
Y01372*
Y01371*
Y0137*
Y01369*
Y01368*
X00697Y01367*
Y01366*
X00696Y01365*
X00696Y01364*
X00696Y01363*
X00695Y01362*
X00695Y01362*
X00694Y01361*
X00694Y0136*
X00693Y01359*
X00692Y01359*
X00692Y01358*
X00691Y01357*
X0069Y01357*
X0069Y01356*
X00689Y01355*
X00688Y01355*
X00687Y01354*
X00686Y01354*
X00685Y01353*
X00685Y01353*
X00683*
X00683Y01353*
X00681*
X00681Y01352*
X0068*
X00679*
X00678*
X00677*
X00676Y01353*
X00675*
X00674Y01353*
X00673*
X00672Y01353*
X00671Y01354*
X0067Y01354*
X0067Y01355*
X00669Y01355*
X00668Y01356*
X00667Y01356*
X00666Y01357*
X00666Y01357*
X00665Y01358*
X00664Y01359*
X00664Y0136*
X00663Y01361*
X00663Y01361*
X00662Y01362*
X00662Y01363*
X00661Y01364*
X00661Y01365*
Y01366*
X00661Y01366*
Y01368*
X0066Y01368*
Y0137*
Y0137*
X00679*
Y01371*
X0066*
Y01372*
Y01373*
Y01374*
X00661Y01375*
Y01376*
X00661Y01377*
X00661Y01377*
X00662Y01379*
X00662Y01379*
X00662Y0138*
X00663Y01381*
X00664Y01382*
X00664Y01383*
X00665Y01383*
X00666Y01384*
X00666Y01385*
X00667Y01385*
X00668Y01386*
X00668Y01387*
X00669Y01387*
X0067Y01387*
X00671Y01388*
X00672Y01388*
X00673Y01388*
X00674Y01389*
X00675Y01389*
X00676*
X00677*
X00678*
X00679Y0139*
X0068Y01389*
G37*
G36*
X00613D02*
X00614D01*
X00614*
X00616*
X00616Y01389*
X00618Y01388*
X00618Y01388*
X00619Y01388*
X0062Y01387*
X00621Y01387*
X00622Y01387*
X00623Y01386*
X00624Y01385*
X00624Y01385*
X00625Y01384*
X00625Y01383*
X00626Y01383*
X00627Y01382*
X00627Y01381*
X00628Y0138*
X00628Y01379*
X00629Y01379*
X00629Y01377*
X00629Y01377*
X0063Y01376*
Y01375*
X0063Y01374*
Y01373*
Y01372*
Y01371*
Y0137*
Y01369*
Y01368*
X0063Y01367*
Y01366*
X00629Y01365*
X00629Y01364*
X00629Y01363*
X00628Y01362*
X00628Y01362*
X00627Y01361*
X00627Y0136*
X00626Y01359*
X00625Y01359*
X00625Y01358*
X00624Y01357*
X00624Y01357*
X00623Y01356*
X00622Y01355*
X00621Y01355*
X0062Y01354*
X00619Y01354*
X00618Y01353*
X00618Y01353*
X00616*
X00616Y01353*
X00614*
X00614Y01352*
X00613*
X00612*
X00611*
X0061*
X00609Y01353*
X00608*
X00607Y01353*
X00606*
X00605Y01353*
X00604Y01354*
X00603Y01354*
X00603Y01355*
X00602Y01355*
X00601Y01356*
X006Y01356*
X006Y01357*
X00599Y01357*
X00598Y01358*
X00598Y01359*
X00597Y0136*
X00596Y01361*
X00596Y01361*
X00595Y01362*
X00595Y01363*
X00594Y01364*
X00594Y01365*
Y01366*
X00594Y01366*
Y01368*
X00593Y01368*
Y0137*
Y0137*
X00612*
Y01371*
X00593*
Y01372*
Y01373*
Y01374*
X00594Y01375*
Y01376*
X00594Y01377*
X00594Y01377*
X00595Y01379*
X00595Y01379*
X00596Y0138*
X00596Y01381*
X00597Y01382*
X00597Y01383*
X00598Y01383*
X00599Y01384*
X00599Y01385*
X006Y01385*
X00601Y01386*
X00601Y01387*
X00602Y01387*
X00603Y01387*
X00604Y01388*
X00605Y01388*
X00606Y01388*
X00607Y01389*
X00608Y01389*
X00609*
X0061*
X00611*
X00612Y0139*
X00613Y01389*
G37*
G36*
X01026Y01311D02*
X01027D01*
X01027*
X01027*
Y0131*
X01028*
X01028*
X01029Y01309*
X01029*
X0103Y01309*
Y01309*
X0103Y01308*
X01031Y01308*
Y01307*
X01031*
Y01307*
Y01306*
Y01306*
Y0129*
Y0129*
Y01289*
X01031*
Y01289*
Y01288*
X0103Y01288*
Y01288*
X0103*
Y01287*
X01029Y01287*
X01029*
Y01287*
X01029*
Y01286*
X01028*
X01028Y01286*
X01027*
X01027*
X01026*
Y01285*
X01026*
X01025*
X0093*
X0093*
X00929*
Y01286*
X00929*
X00928*
X00928*
Y01286*
X00927*
X00927*
Y01287*
X00927*
Y01287*
X00926*
Y01287*
X00926*
Y01288*
X00925*
Y01288*
Y01288*
X00925*
Y01289*
Y01289*
X00925*
Y0129*
Y0129*
Y01306*
Y01306*
Y01307*
Y01307*
X00925*
Y01308*
X00925*
Y01308*
X00926Y01309*
X00926Y01309*
Y01309*
X00927*
X00927Y0131*
X00928*
X00928*
X00929Y01311*
X00929*
X00929*
X0093*
X0093*
X01025*
X01026*
X01026*
G37*
G36*
X00814Y01322D02*
X00814D01*
X00815*
X00816*
X00817Y01322*
X00818Y01322*
X00819Y01321*
X0082Y01321*
X00821Y0132*
X00822Y0132*
X00823Y0132*
X00824Y01319*
X00824Y01318*
X00825Y01318*
X00825Y01317*
X00826Y01316*
X00827Y01316*
X00827Y01315*
X00828Y01314*
X00829Y01313*
X00829Y01312*
X00829Y01312*
X0083Y01311*
X0083Y0131*
X00831Y01309*
Y01308*
X00831Y01307*
Y01306*
Y01305*
Y01304*
Y01303*
Y01302*
Y01301*
X00831Y013*
Y01299*
X0083Y01298*
X0083Y01297*
X00829Y01296*
X00829Y01296*
X00829Y01295*
X00828Y01294*
X00827Y01293*
X00827Y01292*
X00826Y01292*
X00825Y01291*
X00825Y0129*
X00824Y0129*
X00824Y01289*
X00823Y01288*
X00822Y01288*
X00821Y01287*
X0082Y01287*
X00819Y01287*
X00818Y01286*
X00817*
X00816Y01286*
X00815*
X00814Y01285*
X00814*
X00812*
X00812*
X00811*
X0081Y01286*
X00809*
X00808Y01286*
X00807*
X00806Y01287*
X00805Y01287*
X00804Y01287*
X00803Y01288*
X00803Y01288*
X00802Y01289*
X00801Y01289*
X008Y0129*
X008Y0129*
X00799Y01291*
X00798Y01292*
X00798Y01293*
X00797Y01294*
X00797Y01294*
X00796Y01295*
X00796Y01296*
X00795Y01297*
X00795Y01298*
Y01299*
X00794Y013*
Y01301*
X00794Y01301*
Y01303*
Y01303*
X00812*
Y01304*
X00794*
Y01305*
Y01306*
Y01307*
X00794Y01308*
Y01309*
X00795Y0131*
X00795Y01311*
X00796Y01312*
X00796Y01312*
X00796Y01313*
X00797Y01314*
X00798Y01315*
X00798Y01316*
X00799Y01316*
X008Y01317*
X008Y01318*
X00801Y01318*
X00801Y01319*
X00802Y0132*
X00803Y0132*
X00804Y0132*
X00805Y01321*
X00806Y01321*
X00807Y01322*
X00808Y01322*
X00809Y01322*
X0081*
X00811*
X00812*
X00812Y01323*
X00814Y01322*
G37*
G36*
X00747D02*
X00748D01*
X00748*
X0075*
X0075Y01322*
X00751Y01322*
X00752Y01321*
X00753Y01321*
X00754Y0132*
X00755Y0132*
X00756Y0132*
X00757Y01319*
X00757Y01318*
X00758Y01318*
X00759Y01317*
X00759Y01316*
X0076Y01316*
X00761Y01315*
X00761Y01314*
X00762Y01313*
X00762Y01312*
X00762Y01312*
X00763Y01311*
X00763Y0131*
X00764Y01309*
Y01308*
X00764Y01307*
Y01306*
Y01305*
Y01304*
Y01303*
Y01302*
Y01301*
X00764Y013*
Y01299*
X00763Y01298*
X00763Y01297*
X00762Y01296*
X00762Y01296*
X00762Y01295*
X00761Y01294*
X00761Y01293*
X0076Y01292*
X00759Y01292*
X00759Y01291*
X00758Y0129*
X00757Y0129*
X00757Y01289*
X00756Y01288*
X00755Y01288*
X00754Y01287*
X00753Y01287*
X00752Y01287*
X00751Y01286*
X0075*
X0075Y01286*
X00748*
X00748Y01285*
X00747*
X00746*
X00745*
X00744*
X00743Y01286*
X00742*
X00741Y01286*
X0074*
X00739Y01287*
X00738Y01287*
X00737Y01287*
X00737Y01288*
X00736Y01288*
X00735Y01289*
X00734Y01289*
X00733Y0129*
X00733Y0129*
X00732Y01291*
X00731Y01292*
X00731Y01293*
X0073Y01294*
X0073Y01294*
X00729Y01295*
X00729Y01296*
X00728Y01297*
X00728Y01298*
Y01299*
X00727Y013*
Y01301*
X00727Y01301*
Y01303*
Y01303*
X00746*
Y01304*
X00727*
Y01305*
Y01306*
Y01307*
X00727Y01308*
Y01309*
X00728Y0131*
X00728Y01311*
X00729Y01312*
X00729Y01312*
X00729Y01313*
X0073Y01314*
X00731Y01315*
X00731Y01316*
X00732Y01316*
X00733Y01317*
X00733Y01318*
X00734Y01318*
X00735Y01319*
X00735Y0132*
X00736Y0132*
X00737Y0132*
X00738Y01321*
X00739Y01321*
X0074Y01322*
X00741Y01322*
X00742Y01322*
X00743*
X00744*
X00745*
X00746Y01323*
X00747Y01322*
G37*
G36*
X01026Y01267D02*
X01027D01*
X01027*
X01027*
Y01267*
X01028*
X01028*
X01029Y01266*
X01029*
X0103Y01266*
Y01265*
X0103Y01265*
X01031Y01264*
Y01264*
X01031*
Y01263*
Y01263*
Y01262*
Y01247*
Y01246*
Y01246*
X01031*
Y01245*
X0103Y01245*
Y01244*
X0103*
Y01244*
X01029Y01244*
X01029*
Y01243*
X01029*
X01028Y01243*
X01028Y01242*
X01027*
X01027*
X01027*
X01026*
X01026Y01242*
X01025*
X0093*
X0093*
X00929Y01242*
X00929*
X00929*
X00928*
X00928*
Y01243*
X00927*
X00927Y01243*
X00927*
Y01244*
X00926*
Y01244*
X00926*
Y01244*
X00925*
Y01245*
Y01245*
X00925*
Y01246*
X00925*
Y01246*
Y01247*
Y01262*
Y01263*
Y01263*
Y01264*
X00925*
Y01264*
X00925*
Y01265*
X00926Y01265*
X00926Y01266*
Y01266*
X00927*
X00927Y01267*
X00928*
X00928*
X00929Y01267*
X00929*
X00929*
X0093*
X0093*
X01025*
X01026*
X01026*
G37*
G36*
Y01224D02*
X01027D01*
X01027*
X01027*
Y01224*
X01028*
X01028*
X01029Y01223*
X01029*
X0103Y01222*
Y01222*
X0103Y01222*
X01031Y01221*
Y0122*
X01031*
Y0122*
Y0122*
Y01219*
Y01203*
Y01203*
Y01203*
X01031*
Y01202*
X0103Y01201*
Y01201*
X0103*
Y01201*
X01029Y012*
X01029*
Y012*
X01028Y012*
X01028Y01199*
X01027*
X01027*
X01027*
X01026*
X01026Y01199*
X01025*
X0093*
X0093*
X00929Y01199*
X00929*
X00929*
X00928*
X00928*
Y012*
X00927*
X00927Y012*
Y012*
X00926*
Y01201*
X00926*
Y01201*
X00925*
Y01201*
Y01202*
X00925*
Y01203*
X00925*
Y01203*
Y01203*
Y01219*
Y0122*
Y0122*
Y0122*
X00925*
Y01221*
X00925*
Y01222*
X00926Y01222*
X00926Y01222*
Y01223*
X00927*
X00927Y01224*
X00928*
X00928*
X00929Y01224*
X00929*
X00929*
X0093*
X0093*
X01025*
X01026*
X01026*
G37*
G36*
X00814Y01255D02*
X00814D01*
X00815*
X00816*
X00817Y01255*
X00818Y01255*
X00819Y01254*
X0082Y01254*
X00821Y01253*
X00822Y01253*
X00823Y01253*
X00824Y01252*
X00824Y01251*
X00825Y01251*
X00825Y0125*
X00826Y0125*
X00827Y01249*
X00827Y01248*
X00828Y01247*
X00829Y01246*
X00829Y01246*
X00829Y01245*
X0083Y01244*
X0083Y01243*
X00831Y01242*
Y01241*
X00831Y0124*
Y01239*
Y01238*
Y01237*
Y01236*
Y01235*
Y01234*
X00831Y01233*
Y01232*
X0083Y01231*
X0083Y0123*
X00829Y01229*
X00829Y01229*
X00829Y01228*
X00828Y01227*
X00827Y01226*
X00827Y01225*
X00826Y01225*
X00825Y01224*
X00825Y01223*
X00824Y01223*
X00824Y01222*
X00823Y01222*
X00822Y01221*
X00821Y0122*
X0082Y0122*
X00819Y0122*
X00818Y01219*
X00817*
X00816Y01219*
X00815*
X00814Y01218*
X00814*
X00812*
X00812*
X00811*
X0081Y01219*
X00809*
X00808Y01219*
X00807*
X00806Y0122*
X00805Y0122*
X00804Y0122*
X00803Y01221*
X00803Y01221*
X00802Y01222*
X00801Y01222*
X008Y01223*
X008Y01224*
X00799Y01224*
X00798Y01225*
X00798Y01226*
X00797Y01227*
X00797Y01227*
X00796Y01228*
X00796Y01229*
X00795Y0123*
X00795Y01231*
Y01232*
X00794Y01233*
Y01234*
X00794Y01235*
Y01236*
Y01237*
X00812*
Y01237*
X00794*
Y01238*
Y01239*
Y0124*
X00794Y01241*
Y01242*
X00795Y01243*
X00795Y01244*
X00796Y01245*
X00796Y01246*
X00796Y01246*
X00797Y01247*
X00798Y01248*
X00798Y01249*
X00799Y0125*
X008Y0125*
X008Y01251*
X00801Y01251*
X00801Y01252*
X00802Y01253*
X00803Y01253*
X00804Y01253*
X00805Y01254*
X00806Y01254*
X00807Y01255*
X00808Y01255*
X00809Y01255*
X0081*
X00811*
X00812*
X00812Y01256*
X00814Y01255*
G37*
G36*
X00747D02*
X00748D01*
X00748*
X0075*
X0075Y01255*
X00751Y01255*
X00752Y01254*
X00753Y01254*
X00754Y01253*
X00755Y01253*
X00756Y01253*
X00757Y01252*
X00757Y01251*
X00758Y01251*
X00759Y0125*
X00759Y0125*
X0076Y01249*
X00761Y01248*
X00761Y01247*
X00762Y01246*
X00762Y01246*
X00762Y01245*
X00763Y01244*
X00763Y01243*
X00764Y01242*
Y01241*
X00764Y0124*
Y01239*
Y01238*
Y01237*
Y01236*
Y01235*
Y01234*
X00764Y01233*
Y01232*
X00763Y01231*
X00763Y0123*
X00762Y01229*
X00762Y01229*
X00762Y01228*
X00761Y01227*
X00761Y01226*
X0076Y01225*
X00759Y01225*
X00759Y01224*
X00758Y01223*
X00757Y01223*
X00757Y01222*
X00756Y01222*
X00755Y01221*
X00754Y0122*
X00753Y0122*
X00752Y0122*
X00751Y01219*
X0075*
X0075Y01219*
X00748*
X00748Y01218*
X00747*
X00746*
X00745*
X00744*
X00743Y01219*
X00742*
X00741Y01219*
X0074*
X00739Y0122*
X00738Y0122*
X00737Y0122*
X00737Y01221*
X00736Y01221*
X00735Y01222*
X00734Y01222*
X00733Y01223*
X00733Y01224*
X00732Y01224*
X00731Y01225*
X00731Y01226*
X0073Y01227*
X0073Y01227*
X00729Y01228*
X00729Y01229*
X00728Y0123*
X00728Y01231*
Y01232*
X00727Y01233*
Y01234*
X00727Y01235*
Y01236*
Y01237*
X00746*
Y01237*
X00727*
Y01238*
Y01239*
Y0124*
X00727Y01241*
Y01242*
X00728Y01243*
X00728Y01244*
X00729Y01245*
X00729Y01246*
X00729Y01246*
X0073Y01247*
X00731Y01248*
X00731Y01249*
X00732Y0125*
X00733Y0125*
X00733Y01251*
X00734Y01251*
X00735Y01252*
X00735Y01253*
X00736Y01253*
X00737Y01253*
X00738Y01254*
X00739Y01254*
X0074Y01255*
X00741Y01255*
X00742Y01255*
X00743*
X00744*
X00745*
X00746Y01256*
X00747Y01255*
G37*
G36*
X01026Y01157D02*
X01027D01*
X01027*
X01027*
Y01157*
X01028*
X01028*
X01029Y01156*
X01029Y01156*
X01029*
X0103Y01155*
Y01155*
X0103Y01155*
X01031Y01154*
Y01153*
X01031*
Y01153*
Y01153*
Y01152*
Y01137*
Y01136*
Y01136*
X01031*
Y01135*
Y01135*
X0103Y01135*
Y01134*
X0103*
Y01134*
X01029Y01133*
X01029*
Y01133*
X01029*
Y01133*
X01028*
X01028Y01132*
X01027*
X01027*
X01026*
Y01132*
X01026*
X01025*
X0093*
X0093*
X00929*
Y01132*
X00929*
X00928*
X00928*
Y01133*
X00927*
X00927*
Y01133*
X00927*
Y01133*
X00926*
Y01134*
X00926*
Y01134*
X00925*
Y01135*
Y01135*
X00925*
Y01135*
Y01136*
X00925*
Y01136*
Y01137*
Y01152*
Y01153*
Y01153*
Y01153*
X00925*
Y01154*
X00925*
Y01155*
X00926Y01155*
X00926Y01155*
Y01156*
X00927*
X00927Y01156*
X00927Y01157*
X00928*
X00928*
X00929Y01157*
X00929*
X00929*
X0093*
X0093*
X01025*
X01026*
X01026*
G37*
G36*
X00814Y01188D02*
X00814D01*
X00815*
X00816*
X00817Y01188*
X00818Y01188*
X00819Y01187*
X0082Y01187*
X00821Y01187*
X00822Y01186*
X00823Y01186*
X00824Y01185*
X00824Y01185*
X00825Y01184*
X00825Y01183*
X00826Y01183*
X00827Y01182*
X00827Y01181*
X00828Y0118*
X00829Y01179*
X00829Y01179*
X00829Y01178*
X0083Y01177*
X0083Y01176*
X00831Y01175*
Y01174*
X00831Y01173*
Y01172*
Y01171*
Y0117*
Y01169*
Y01168*
Y01167*
X00831Y01166*
Y01165*
X0083Y01164*
X0083Y01163*
X00829Y01162*
X00829Y01162*
X00829Y01161*
X00828Y0116*
X00827Y01159*
X00827Y01159*
X00826Y01158*
X00825Y01157*
X00825Y01156*
X00824Y01156*
X00824Y01155*
X00823Y01155*
X00822Y01154*
X00821Y01153*
X0082Y01153*
X00819Y01153*
X00818Y01152*
X00817*
X00816Y01152*
X00815*
X00814Y01151*
X00814*
X00812*
X00812*
X00811*
X0081Y01152*
X00809*
X00808Y01152*
X00807*
X00806Y01153*
X00805Y01153*
X00804Y01153*
X00803Y01154*
X00803Y01154*
X00802Y01155*
X00801Y01155*
X008Y01156*
X008Y01157*
X00799Y01157*
X00798Y01158*
X00798Y01159*
X00797Y0116*
X00797Y01161*
X00796Y01161*
X00796Y01162*
X00795Y01163*
X00795Y01164*
Y01165*
X00794Y01166*
Y01167*
X00794Y01168*
Y01169*
Y0117*
X00812*
Y0117*
X00794*
Y01171*
Y01172*
Y01173*
X00794Y01174*
Y01175*
X00795Y01176*
X00795Y01177*
X00796Y01178*
X00796Y01179*
X00796Y01179*
X00797Y0118*
X00798Y01181*
X00798Y01182*
X00799Y01183*
X008Y01183*
X008Y01184*
X00801Y01185*
X00801Y01185*
X00802Y01186*
X00803Y01186*
X00804Y01187*
X00805Y01187*
X00806Y01187*
X00807Y01188*
X00808Y01188*
X00809Y01188*
X0081*
X00811*
X00812*
X00812Y01189*
X00814Y01188*
G37*
G36*
X00747D02*
X00748D01*
X00748*
X0075*
X0075Y01188*
X00751Y01188*
X00752Y01187*
X00753Y01187*
X00754Y01187*
X00755Y01186*
X00756Y01186*
X00757Y01185*
X00757Y01185*
X00758Y01184*
X00759Y01183*
X00759Y01183*
X0076Y01182*
X00761Y01181*
X00761Y0118*
X00762Y01179*
X00762Y01179*
X00762Y01178*
X00763Y01177*
X00763Y01176*
X00764Y01175*
Y01174*
X00764Y01173*
Y01172*
Y01171*
Y0117*
Y01169*
Y01168*
Y01167*
X00764Y01166*
Y01165*
X00763Y01164*
X00763Y01163*
X00762Y01162*
X00762Y01162*
X00762Y01161*
X00761Y0116*
X00761Y01159*
X0076Y01159*
X00759Y01158*
X00759Y01157*
X00758Y01156*
X00757Y01156*
X00757Y01155*
X00756Y01155*
X00755Y01154*
X00754Y01153*
X00753Y01153*
X00752Y01153*
X00751Y01152*
X0075*
X0075Y01152*
X00748*
X00748Y01151*
X00747*
X00746*
X00745*
X00744*
X00743Y01152*
X00742*
X00741Y01152*
X0074*
X00739Y01153*
X00738Y01153*
X00737Y01153*
X00737Y01154*
X00736Y01154*
X00735Y01155*
X00734Y01155*
X00733Y01156*
X00733Y01157*
X00732Y01157*
X00731Y01158*
X00731Y01159*
X0073Y0116*
X0073Y01161*
X00729Y01161*
X00729Y01162*
X00728Y01163*
X00728Y01164*
Y01165*
X00727Y01166*
Y01167*
X00727Y01168*
Y01169*
Y0117*
X00746*
Y0117*
X00727*
Y01171*
Y01172*
Y01173*
X00727Y01174*
Y01175*
X00728Y01176*
X00728Y01177*
X00729Y01178*
X00729Y01179*
X00729Y01179*
X0073Y0118*
X00731Y01181*
X00731Y01182*
X00732Y01183*
X00733Y01183*
X00733Y01184*
X00734Y01185*
X00735Y01185*
X00735Y01186*
X00736Y01186*
X00737Y01187*
X00738Y01187*
X00739Y01187*
X0074Y01188*
X00741Y01188*
X00742Y01188*
X00743*
X00744*
X00745*
X00746Y01189*
X00747Y01188*
G37*
G54D10*
X01055Y0079D02*
D01*
X01055Y0079*
X01055Y00791*
X01055Y00791*
X01054Y00791*
X01054Y00791*
X01054Y00792*
X01054Y00792*
X01054Y00792*
X01054Y00792*
X01054Y00793*
X01054Y00793*
X01053Y00793*
X01053Y00793*
X01053Y00793*
X01053Y00793*
X01052Y00794*
X01052Y00794*
X01052Y00794*
X01052Y00794*
X01051Y00794*
X01051Y00794*
X01051Y00794*
X01051*
X0105Y00794*
X0105Y00794*
X0105Y00794*
X01049Y00794*
X01049Y00794*
X01049Y00794*
X01049Y00793*
X01048Y00793*
X01048Y00793*
X01048Y00793*
X01048Y00793*
X01048Y00793*
X01047Y00792*
X01047Y00792*
X01047Y00792*
X01047Y00792*
X01047Y00791*
X01047Y00791*
X01047Y00791*
X01047Y00791*
X01047Y0079*
X01047Y0079*
X01047Y0079*
X01047Y0079*
X01047Y00789*
X01047Y00789*
X01047Y00789*
X01047Y00788*
X01047Y00788*
X01047Y00788*
X01047Y00788*
X01048Y00788*
X01048Y00787*
X01048Y00787*
X01048Y00787*
X01048Y00787*
X01049Y00787*
X01049Y00787*
X01049Y00786*
X01049Y00786*
X0105Y00786*
X0105Y00786*
X0105Y00786*
X01051Y00786*
X01051*
X01051Y00786*
X01051Y00786*
X01052Y00786*
X01052Y00786*
X01052Y00786*
X01052Y00787*
X01053Y00787*
X01053Y00787*
X01053Y00787*
X01053Y00787*
X01054Y00787*
X01054Y00788*
X01054Y00788*
X01054Y00788*
X01054Y00788*
X01054Y00788*
X01054Y00789*
X01054Y00789*
X01055Y00789*
X01055Y0079*
X01055Y0079*
X01055Y0079*
X01009Y01156D02*
D01*
X01009Y01156*
X01009Y01157*
X01009Y01157*
X01009Y01157*
X01009Y01158*
X01009Y01158*
X01009Y01158*
X01009Y01158*
X01009Y01159*
X01008Y01159*
X01008Y01159*
X01008Y01159*
X01008Y01159*
X01008Y01159*
X01007Y0116*
X01007Y0116*
X01007Y0116*
X01007Y0116*
X01006Y0116*
X01006Y0116*
X01006Y0116*
X01006Y0116*
X01005*
X01005Y0116*
X01005Y0116*
X01004Y0116*
X01004Y0116*
X01004Y0116*
X01004Y0116*
X01003Y0116*
X01003Y01159*
X01003Y01159*
X01003Y01159*
X01003Y01159*
X01002Y01159*
X01002Y01159*
X01002Y01158*
X01002Y01158*
X01002Y01158*
X01002Y01158*
X01002Y01157*
X01002Y01157*
X01002Y01157*
X01001Y01156*
X01001Y01156*
X01001Y01156*
X01002Y01156*
X01002Y01155*
X01002Y01155*
X01002Y01155*
X01002Y01155*
X01002Y01154*
X01002Y01154*
X01002Y01154*
X01002Y01154*
X01003Y01153*
X01003Y01153*
X01003Y01153*
X01003Y01153*
X01003Y01153*
X01004Y01153*
X01004Y01153*
X01004Y01152*
X01004Y01152*
X01005Y01152*
X01005Y01152*
X01005Y01152*
X01006*
X01006Y01152*
X01006Y01152*
X01006Y01152*
X01007Y01152*
X01007Y01153*
X01007Y01153*
X01007Y01153*
X01008Y01153*
X01008Y01153*
X01008Y01153*
X01008Y01153*
X01008Y01154*
X01009Y01154*
X01009Y01154*
X01009Y01154*
X01009Y01155*
X01009Y01155*
X01009Y01155*
X01009Y01155*
X01009Y01156*
X01009Y01156*
X01009Y01156*
X02133Y01883D02*
D01*
X02133Y01883*
X02133Y01884*
X02132Y01884*
X02132Y01884*
X02132Y01884*
X02132Y01885*
X02132Y01885*
X02132Y01885*
X02132Y01885*
X02132Y01885*
X02131Y01886*
X02131Y01886*
X02131Y01886*
X02131Y01886*
X02131Y01886*
X0213Y01887*
X0213Y01887*
X0213Y01887*
X0213Y01887*
X02129Y01887*
X02129Y01887*
X02129Y01887*
X02128*
X02128Y01887*
X02128Y01887*
X02128Y01887*
X02127Y01887*
X02127Y01887*
X02127Y01887*
X02127Y01886*
X02126Y01886*
X02126Y01886*
X02126Y01886*
X02126Y01886*
X02126Y01885*
X02125Y01885*
X02125Y01885*
X02125Y01885*
X02125Y01885*
X02125Y01884*
X02125Y01884*
X02125Y01884*
X02125Y01884*
X02125Y01883*
X02125Y01883*
X02125Y01883*
X02125Y01882*
X02125Y01882*
X02125Y01882*
X02125Y01882*
X02125Y01881*
X02125Y01881*
X02125Y01881*
X02125Y01881*
X02126Y0188*
X02126Y0188*
X02126Y0188*
X02126Y0188*
X02126Y0188*
X02127Y0188*
X02127Y01879*
X02127Y01879*
X02127Y01879*
X02128Y01879*
X02128Y01879*
X02128Y01879*
X02128Y01879*
X02129*
X02129Y01879*
X02129Y01879*
X0213Y01879*
X0213Y01879*
X0213Y01879*
X0213Y01879*
X02131Y0188*
X02131Y0188*
X02131Y0188*
X02131Y0188*
X02131Y0188*
X02132Y0188*
X02132Y01881*
X02132Y01881*
X02132Y01881*
X02132Y01881*
X02132Y01882*
X02132Y01882*
X02132Y01882*
X02133Y01882*
X02133Y01883*
X02133Y01883*
X02298D02*
D01*
X02298Y01883*
X02298Y01884*
X02298Y01884*
X02298Y01884*
X02298Y01884*
X02298Y01885*
X02297Y01885*
X02297Y01885*
X02297Y01885*
X02297Y01885*
X02297Y01886*
X02297Y01886*
X02296Y01886*
X02296Y01886*
X02296Y01886*
X02296Y01887*
X02295Y01887*
X02295Y01887*
X02295Y01887*
X02295Y01887*
X02294Y01887*
X02294Y01887*
X02294*
X02294Y01887*
X02293Y01887*
X02293Y01887*
X02293Y01887*
X02293Y01887*
X02292Y01887*
X02292Y01886*
X02292Y01886*
X02292Y01886*
X02291Y01886*
X02291Y01886*
X02291Y01885*
X02291Y01885*
X02291Y01885*
X02291Y01885*
X0229Y01885*
X0229Y01884*
X0229Y01884*
X0229Y01884*
X0229Y01884*
X0229Y01883*
X0229Y01883*
X0229Y01883*
X0229Y01882*
X0229Y01882*
X0229Y01882*
X0229Y01882*
X0229Y01881*
X02291Y01881*
X02291Y01881*
X02291Y01881*
X02291Y0188*
X02291Y0188*
X02291Y0188*
X02292Y0188*
X02292Y0188*
X02292Y0188*
X02292Y01879*
X02293Y01879*
X02293Y01879*
X02293Y01879*
X02293Y01879*
X02294Y01879*
X02294Y01879*
X02294*
X02294Y01879*
X02295Y01879*
X02295Y01879*
X02295Y01879*
X02295Y01879*
X02296Y01879*
X02296Y0188*
X02296Y0188*
X02296Y0188*
X02297Y0188*
X02297Y0188*
X02297Y0188*
X02297Y01881*
X02297Y01881*
X02297Y01881*
X02298Y01881*
X02298Y01882*
X02298Y01882*
X02298Y01882*
X02298Y01882*
X02298Y01883*
X02298Y01883*
X02473D02*
D01*
X02473Y01883*
X02473Y01884*
X02473Y01884*
X02473Y01884*
X02473Y01884*
X02473Y01885*
X02473Y01885*
X02473Y01885*
X02472Y01885*
X02472Y01885*
X02472Y01886*
X02472Y01886*
X02472Y01886*
X02471Y01886*
X02471Y01886*
X02471Y01887*
X02471Y01887*
X0247Y01887*
X0247Y01887*
X0247Y01887*
X0247Y01887*
X02469Y01887*
X02469*
X02469Y01887*
X02469Y01887*
X02468Y01887*
X02468Y01887*
X02468Y01887*
X02467Y01887*
X02467Y01886*
X02467Y01886*
X02467Y01886*
X02467Y01886*
X02466Y01886*
X02466Y01885*
X02466Y01885*
X02466Y01885*
X02466Y01885*
X02466Y01885*
X02465Y01884*
X02465Y01884*
X02465Y01884*
X02465Y01884*
X02465Y01883*
X02465Y01883*
X02465Y01883*
X02465Y01882*
X02465Y01882*
X02465Y01882*
X02465Y01882*
X02466Y01881*
X02466Y01881*
X02466Y01881*
X02466Y01881*
X02466Y0188*
X02466Y0188*
X02467Y0188*
X02467Y0188*
X02467Y0188*
X02467Y0188*
X02467Y01879*
X02468Y01879*
X02468Y01879*
X02468Y01879*
X02469Y01879*
X02469Y01879*
X02469Y01879*
X02469*
X0247Y01879*
X0247Y01879*
X0247Y01879*
X0247Y01879*
X02471Y01879*
X02471Y01879*
X02471Y0188*
X02471Y0188*
X02472Y0188*
X02472Y0188*
X02472Y0188*
X02472Y0188*
X02472Y01881*
X02473Y01881*
X02473Y01881*
X02473Y01881*
X02473Y01882*
X02473Y01882*
X02473Y01882*
X02473Y01882*
X02473Y01883*
X02473Y01883*
X02626D02*
D01*
X02626Y01883*
X02626Y01884*
X02626Y01884*
X02626Y01884*
X02626Y01884*
X02626Y01885*
X02625Y01885*
X02625Y01885*
X02625Y01885*
X02625Y01885*
X02625Y01886*
X02625Y01886*
X02624Y01886*
X02624Y01886*
X02624Y01886*
X02624Y01887*
X02623Y01887*
X02623Y01887*
X02623Y01887*
X02623Y01887*
X02622Y01887*
X02622Y01887*
X02622*
X02622Y01887*
X02621Y01887*
X02621Y01887*
X02621Y01887*
X0262Y01887*
X0262Y01887*
X0262Y01886*
X0262Y01886*
X0262Y01886*
X02619Y01886*
X02619Y01886*
X02619Y01885*
X02619Y01885*
X02619Y01885*
X02618Y01885*
X02618Y01885*
X02618Y01884*
X02618Y01884*
X02618Y01884*
X02618Y01884*
X02618Y01883*
X02618Y01883*
X02618Y01883*
X02618Y01882*
X02618Y01882*
X02618Y01882*
X02618Y01882*
X02618Y01881*
X02618Y01881*
X02619Y01881*
X02619Y01881*
X02619Y0188*
X02619Y0188*
X02619Y0188*
X0262Y0188*
X0262Y0188*
X0262Y0188*
X0262Y01879*
X0262Y01879*
X02621Y01879*
X02621Y01879*
X02621Y01879*
X02622Y01879*
X02622Y01879*
X02622*
X02622Y01879*
X02623Y01879*
X02623Y01879*
X02623Y01879*
X02623Y01879*
X02624Y01879*
X02624Y0188*
X02624Y0188*
X02624Y0188*
X02625Y0188*
X02625Y0188*
X02625Y0188*
X02625Y01881*
X02625Y01881*
X02625Y01881*
X02626Y01881*
X02626Y01882*
X02626Y01882*
X02626Y01882*
X02626Y01882*
X02626Y01883*
X02626Y01883*
X00381Y00529D02*
Y00578D01*
X0046*
Y00529D02*
Y00578D01*
X00381Y00529D02*
X0046D01*
X03752Y00083D02*
X03784D01*
X03752D02*
Y00146D01*
X03784*
Y00083D02*
Y00146D01*
X03274Y00208D02*
X03305D01*
X03274D02*
Y00271D01*
X03305*
Y00208D02*
Y00271D01*
X03261Y00823D02*
Y00855D01*
X03198Y00823D02*
X03261D01*
X03198D02*
Y00855D01*
X03261*
X02816Y00843D02*
X02847D01*
X02816D02*
Y00906D01*
X02847*
Y00843D02*
Y00906D01*
X0382Y00393D02*
X03945D01*
X0382Y00295D02*
Y00393D01*
Y00295D02*
X03945D01*
Y00393*
X02375Y02651D02*
X02501D01*
X02375Y02553D02*
Y02651D01*
Y02553D02*
X02501D01*
Y02651*
X02375Y02513D02*
X02501D01*
X02375Y02415D02*
Y02513D01*
Y02415D02*
X02501D01*
Y02513*
X01895Y0007D02*
X03295D01*
X01895D02*
Y0017D01*
X03295*
Y0007D02*
Y0017D01*
X02446Y02789D02*
X03846D01*
X02446D02*
Y02889D01*
X03846*
Y02789D02*
Y02889D01*
X0262Y00803D02*
X03482D01*
X0262Y00499D02*
Y00803D01*
Y00499D02*
X03482D01*
Y00803*
X02311Y01485D02*
Y01548D01*
X0228D02*
X02311D01*
X0228Y01485D02*
Y01548D01*
Y01485D02*
X02311D01*
X02331Y01345D02*
Y01408D01*
Y01345D02*
X02363D01*
Y01408*
X02331D02*
X02363D01*
X00257Y-00213D02*
Y00105D01*
Y-00213D02*
X00507D01*
Y00105*
X00244D02*
Y00381D01*
X00519*
Y00105D02*
Y00381D01*
X00244Y00105D02*
X00519D01*
X03776Y00096D02*
Y00344D01*
X03357Y00096D02*
X03776D01*
X03357D02*
Y00344D01*
X03776*
X03881Y00795D02*
X03944D01*
Y00826*
X03881D02*
X03944D01*
X03881Y00795D02*
Y00826D01*
X03613Y01846D02*
X03692D01*
X03613Y01767D02*
Y01846D01*
Y01767D02*
X03692D01*
Y01846*
X03673Y01633D02*
X03704D01*
Y01696*
X03673D02*
X03704D01*
X03673Y01633D02*
Y01696D01*
X0122Y00318D02*
X01456D01*
Y00082D02*
Y00318D01*
X0122Y00082D02*
X01456D01*
X0122D02*
Y00318D01*
X03807Y02133D02*
Y02448D01*
X04003*
Y02133D02*
Y02448D01*
X03807Y02133D02*
X04003D01*
X03187Y02421D02*
X03206D01*
Y02381D02*
Y02421D01*
X03187Y02381D02*
X03206D01*
X03187D02*
Y02421D01*
X00687Y0227D02*
Y02877D01*
X00246D02*
X00687D01*
X00246Y0227D02*
Y02877D01*
Y0227D02*
X00687D01*
X0095Y02607D02*
Y02843D01*
X01186*
Y02607D02*
Y02843D01*
X0095Y02607D02*
X01186D01*
X0093Y02478D02*
X00993D01*
Y02446D02*
Y02478D01*
X0093Y02446D02*
X00993D01*
X0093D02*
Y02478D01*
X03383Y02401D02*
Y02433D01*
X0332D02*
X03383D01*
X0332Y02401D02*
Y02433D01*
Y02401D02*
X03383D01*
X00849Y01163D02*
Y01195D01*
X00786Y01163D02*
X00849D01*
X00786D02*
Y01195D01*
X00849*
X01185Y0063D02*
X01736D01*
Y00031D02*
Y0063D01*
X01185Y00031D02*
X01736D01*
X01185D02*
Y0063D01*
X0075Y01487D02*
X00812D01*
Y01518*
X0075D02*
X00812D01*
X0075Y01487D02*
Y01518D01*
X00125Y01117D02*
X00156D01*
X00125D02*
Y0118D01*
X00156*
Y01117D02*
Y0118D01*
X00619Y01374D02*
Y01405D01*
X00555Y01374D02*
X00619D01*
X00555D02*
Y01405D01*
X00619*
X02607Y00316D02*
X0267D01*
Y00348*
X02607D02*
X0267D01*
X02607Y00316D02*
Y00348D01*
X01627Y00681D02*
Y00744D01*
Y00681D02*
X01659D01*
Y00744*
X01627D02*
X01659D01*
X01683D02*
X01714D01*
Y00681D02*
Y00744D01*
X01683Y00681D02*
X01714D01*
X01683D02*
Y00744D01*
X01364D02*
X01395D01*
Y00681D02*
Y00744D01*
X01364Y00681D02*
X01395D01*
X01364D02*
Y00744D01*
X01576D02*
X01608D01*
Y00681D02*
Y00744D01*
X01576Y00681D02*
X01608D01*
X01576D02*
Y00744D01*
X02644Y0116D02*
X02762D01*
X02644Y01062D02*
Y0116D01*
Y01062D02*
X02762D01*
Y0116*
X01651Y00616D02*
X01714D01*
Y00576D02*
Y00616D01*
X01651Y00576D02*
X01714D01*
X01651D02*
Y00616D01*
X03451Y01063D02*
X03502D01*
X03451D02*
Y01111D01*
X03502*
Y01063D02*
Y01111D01*
X0147Y00681D02*
Y00744D01*
Y00681D02*
X01501D01*
Y00744*
X0147D02*
X01501D01*
X01415Y00681D02*
Y00744D01*
Y00681D02*
X01446D01*
Y00744*
X01415D02*
X01446D01*
G54D14*
X02713Y01596D02*
D01*
X02713Y01597*
X02713Y01599*
X02713Y016*
X02713Y01601*
X02712Y01603*
X02712Y01604*
X02711Y01605*
X0271Y01606*
X0271Y01608*
X02709Y01609*
X02708Y0161*
X02707Y01611*
X02706Y01611*
X02705Y01612*
X02703Y01613*
X02702Y01614*
X02701Y01614*
X027Y01615*
X02698Y01615*
X02697Y01615*
X02696Y01616*
X02694Y01616*
X02693*
X02692Y01616*
X0269Y01615*
X02689Y01615*
X02688Y01615*
X02686Y01614*
X02685Y01614*
X02684Y01613*
X02683Y01612*
X02681Y01611*
X0268Y01611*
X02679Y0161*
X02679Y01609*
X02678Y01608*
X02677Y01606*
X02676Y01605*
X02676Y01604*
X02675Y01603*
X02675Y01601*
X02674Y016*
X02674Y01599*
X02674Y01597*
X02674Y01596*
X02674Y01595*
X02674Y01593*
X02674Y01592*
X02675Y01591*
X02675Y01589*
X02676Y01588*
X02676Y01587*
X02677Y01586*
X02678Y01584*
X02679Y01583*
X02679Y01582*
X0268Y01581*
X02681Y0158*
X02683Y0158*
X02684Y01579*
X02685Y01578*
X02686Y01578*
X02688Y01577*
X02689Y01577*
X0269Y01577*
X02692Y01576*
X02693Y01576*
X02694*
X02696Y01576*
X02697Y01577*
X02698Y01577*
X027Y01577*
X02701Y01578*
X02702Y01578*
X02703Y01579*
X02705Y0158*
X02706Y0158*
X02707Y01581*
X02708Y01582*
X02709Y01583*
X0271Y01584*
X0271Y01586*
X02711Y01587*
X02712Y01588*
X02712Y01589*
X02713Y01591*
X02713Y01592*
X02713Y01593*
X02713Y01595*
X02713Y01596*
X01213Y00972D02*
X01276D01*
Y0094D02*
Y00972D01*
X01213Y0094D02*
X01276D01*
X01213D02*
Y00972D01*
X02992Y00811D02*
Y00874D01*
X03118*
Y00811D02*
Y00874D01*
X02992Y00811D02*
X03118D01*
X01826Y02035D02*
X0198D01*
Y01842D02*
Y02035D01*
X01826Y01842D02*
X0198D01*
X01826D02*
Y02035D01*
Y01985D02*
X01876Y02035D01*
X02527Y01886D02*
Y01918D01*
Y01886D02*
X0259D01*
Y01918*
X02527D02*
X0259D01*
X02577Y01936D02*
X02592Y01951D01*
Y01936D02*
Y01967D01*
X02529D02*
X02592D01*
X02529Y01936D02*
Y01967D01*
Y01936D02*
X02592D01*
X02409D02*
X02472D01*
X02409D02*
Y01967D01*
X02472*
Y01936D02*
Y01967D01*
X02456Y01936D02*
X02472Y01951D01*
X01541Y00844D02*
X01561Y00824D01*
X01541D02*
X02328D01*
Y01612*
X01541D02*
X02328D01*
X01541Y00824D02*
Y01612D01*
X02852Y01694D02*
X02883D01*
Y0163D02*
Y01694D01*
X02852Y0163D02*
X02883D01*
X02852D02*
Y01694D01*
X02915D02*
X02946D01*
Y0163D02*
Y01694D01*
X02915Y0163D02*
X02946D01*
X02915D02*
Y01694D01*
X0294Y01551D02*
Y01582D01*
X02877Y01551D02*
X0294D01*
X02877D02*
Y01582D01*
X0294*
X02942Y01492D02*
Y01523D01*
X02879Y01492D02*
X02942D01*
X02879D02*
Y01523D01*
X02942*
X02377Y01556D02*
Y01587D01*
X0244*
Y01556D02*
Y01587D01*
X02377Y01556D02*
X0244D01*
X02377Y01494D02*
Y01526D01*
X0244*
Y01494D02*
Y01526D01*
X02377Y01494D02*
X0244D01*
X0239Y01413D02*
X02422D01*
Y0135D02*
Y01413D01*
X0239Y0135D02*
X02422D01*
X0239D02*
Y01413D01*
X02677Y01358D02*
Y01389D01*
X02614Y01358D02*
X02677D01*
X02614D02*
Y01389D01*
X02677*
X02724Y00622D02*
X02787D01*
Y00496D02*
Y00622D01*
X02724Y00496D02*
X02787D01*
X02724D02*
Y00622D01*
X02792Y01435D02*
Y01623D01*
X02595Y01435D02*
X02792D01*
X02783Y01631D02*
X02792Y01623D01*
X02595Y01435D02*
Y01631D01*
X02783*
X03798Y00147D02*
X04027D01*
X03798D02*
Y00987D01*
X04027*
Y00147D02*
Y00987D01*
X03791Y00433D02*
Y00496D01*
X03665Y00433D02*
X03791D01*
X03665D02*
Y00496D01*
X03791*
Y00515D02*
Y00578D01*
X03665Y00515D02*
X03791D01*
X03665D02*
Y00578D01*
X03791*
Y00594D02*
Y00657D01*
X03665Y00594D02*
X03791D01*
X03665D02*
Y00657D01*
X03791*
Y00673D02*
Y00736D01*
X03665Y00673D02*
X03791D01*
X03665D02*
Y00736D01*
X03791*
Y00751D02*
Y00814D01*
X03665Y00751D02*
X03791D01*
X03665D02*
Y00814D01*
X03791*
X03664Y02393D02*
X03727D01*
X03664D02*
Y02424D01*
X03727*
Y02393D02*
Y02424D01*
X03669Y00775D02*
Y00874D01*
X0359Y00775D02*
X03669D01*
X0359D02*
Y00874D01*
X03669*
X03785Y01767D02*
Y01807D01*
X03805*
Y01767D02*
Y01807D01*
X03785Y01767D02*
X03805D01*
X03541Y01141D02*
Y01181D01*
X03561*
Y01141D02*
Y01181D01*
X03541Y01141D02*
X03561D01*
X0321Y02629D02*
X0323D01*
X0321Y0259D02*
Y02629D01*
Y0259D02*
X0323D01*
Y02629*
X03179D02*
X03198D01*
X03179Y0259D02*
Y02629D01*
Y0259D02*
X03198D01*
Y02629*
X01211Y00384D02*
X01274D01*
Y00353D02*
Y00384D01*
X01211Y00353D02*
X01274D01*
X01211D02*
Y00384D01*
X01206Y00468D02*
X01269D01*
Y00437D02*
Y00468D01*
X01206Y00437D02*
X01269D01*
X01206D02*
Y00468D01*
X03631Y01049D02*
Y01092D01*
X03687*
Y01049D02*
Y01092D01*
X03631Y01049D02*
X03687D01*
X03622Y01616D02*
Y01714D01*
X03543Y01616D02*
X03622D01*
X03543D02*
Y01714D01*
X03622*
X03545Y01909D02*
X03564D01*
X03545Y0187D02*
Y01909D01*
Y0187D02*
X03564D01*
Y01909*
Y0096D02*
X03584D01*
X03564Y00921D02*
Y0096D01*
Y00921D02*
X03584D01*
Y0096*
X03525Y00929D02*
X03545D01*
X03525Y00889D02*
Y00929D01*
Y00889D02*
X03545D01*
Y00929*
X03161Y02582D02*
Y02622D01*
X03141Y02582D02*
X03161D01*
X03141D02*
Y02622D01*
X03161*
X03531Y02448D02*
X03594D01*
X03531D02*
Y0248D01*
X03594*
Y02448D02*
Y0248D01*
X03538Y02114D02*
X03587D01*
Y02192*
X03538D02*
X03587D01*
X03538Y02114D02*
Y02192D01*
X03657Y02118D02*
Y02181D01*
X03625Y02118D02*
X03657D01*
X03625D02*
Y02181D01*
X03657*
X0087Y01968D02*
Y02031D01*
X00901*
Y01968D02*
Y02031D01*
X0087Y01968D02*
X00901D01*
X00814D02*
Y02031D01*
X00846*
Y01968D02*
Y02031D01*
X00814Y01968D02*
X00846D01*
X00791D02*
Y02031D01*
X00759Y01968D02*
X00791D01*
X00759D02*
Y02031D01*
X00791*
X00637Y01909D02*
X00669D01*
Y01972*
X00637D02*
X00669D01*
X00637Y01909D02*
Y01972D01*
X02848Y02339D02*
X02898Y02289D01*
X02848D02*
Y02482D01*
X03001*
Y02289D02*
Y02482D01*
X02848Y02289D02*
X03001D01*
X02893Y02551D02*
X02956D01*
Y02582*
X02893D02*
X02956D01*
X02893Y02551D02*
Y02582D01*
X02951Y02301D02*
Y02474D01*
X03207*
Y02301D02*
Y02474D01*
X02951Y02301D02*
X03207D01*
X02951Y02326D02*
X02977Y02301D01*
X0296Y02582D02*
X0298D01*
Y02622*
X0296D02*
X0298D01*
X0296Y02582D02*
Y02622D01*
X02915Y02581D02*
X02935D01*
Y0262*
X02915D02*
X02935D01*
X02915Y02581D02*
Y0262D01*
X03007Y02582D02*
X03027D01*
Y02622*
X03007D02*
X03027D01*
X03007Y02582D02*
Y02622D01*
X03052D02*
X03072D01*
X03052Y02582D02*
Y02622D01*
Y02582D02*
X03072D01*
Y02622*
X03097D02*
X03117D01*
X03097Y02582D02*
Y02622D01*
Y02582D02*
X03117D01*
Y02622*
X02409Y00456D02*
Y00488D01*
Y00456D02*
X02472D01*
Y00488*
X02409D02*
X02472D01*
X03326Y0224D02*
Y02271D01*
Y0224D02*
X03389D01*
Y02271*
X03326D02*
X03389D01*
X0372Y02118D02*
Y02181D01*
X03688Y02118D02*
X0372D01*
X03688D02*
Y02181D01*
X0372*
X03661Y02298D02*
X03724D01*
Y02267D02*
Y02298D01*
X03661Y02267D02*
X03724D01*
X03661D02*
Y02298D01*
X0366Y02362D02*
X03723D01*
Y02331D02*
Y02362D01*
X0366Y02331D02*
X03723D01*
X0366D02*
Y02362D01*
X03442Y02144D02*
X03458Y02128D01*
X03427Y02144D02*
X03458D01*
X03427Y02081D02*
Y02144D01*
Y02081D02*
X03458D01*
Y02144*
X03536Y02259D02*
X03565Y02288D01*
X03447Y02259D02*
X03565D01*
X03447D02*
Y02377D01*
X03565*
Y02259D02*
Y02377D01*
X02083Y01727D02*
X02146D01*
Y01696D02*
Y01727D01*
X02083Y01696D02*
X02146D01*
X02083D02*
Y01727D01*
X03338Y02541D02*
X03375Y02578D01*
X03261Y02541D02*
X03375D01*
X03261D02*
Y02592D01*
X03375*
Y02541D02*
Y02592D01*
X0079Y01092D02*
X00853D01*
Y01124*
X0079D02*
X00853D01*
X0079Y01092D02*
Y01124D01*
X00463Y00985D02*
X00489Y00959D01*
X00463D02*
Y01156D01*
X00637*
Y00959D02*
Y01156D01*
X00463Y00959D02*
X00637D01*
X00792Y00958D02*
Y00978D01*
X00831*
Y00958D02*
Y00978D01*
X00792Y00958D02*
X00831D01*
X01605Y01814D02*
Y01846D01*
X01542D02*
X01605D01*
X01542Y01814D02*
Y01846D01*
Y01814D02*
X01605D01*
X01622Y01874D02*
Y01924D01*
X01543D02*
X01622D01*
X01543Y01874D02*
Y01924D01*
Y01874D02*
X01622D01*
X01445Y00724D02*
Y00787D01*
X01319D02*
X01445D01*
X01319Y00724D02*
Y00787D01*
Y00724D02*
X01445D01*
X03326Y02362D02*
X03389D01*
Y0233D02*
Y02362D01*
X03326Y0233D02*
X03389D01*
X03326D02*
Y02362D01*
X00323Y01331D02*
Y01394D01*
X00291D02*
X00323D01*
X00291Y01331D02*
Y01394D01*
Y01331D02*
X00323D01*
X00355Y01396D02*
X00387D01*
Y01333D02*
Y01396D01*
X00355Y01333D02*
X00387D01*
X00355D02*
Y01396D01*
X00149Y00496D02*
Y00528D01*
X00212*
Y00496D02*
Y00528D01*
X00149Y00496D02*
X00212D01*
X00149Y00596D02*
X00212D01*
X00149Y00564D02*
Y00596D01*
Y00564D02*
X00212D01*
Y00596*
X00149Y00624D02*
X00212D01*
Y00655*
X00149D02*
X00212D01*
X00149Y00624D02*
Y00655D01*
X01124Y01373D02*
Y01404D01*
X01061Y01373D02*
X01124D01*
X01061D02*
Y01404D01*
X01124*
X02001Y02067D02*
Y02098D01*
X01938D02*
X02001D01*
X01938Y02067D02*
Y02098D01*
Y02067D02*
X02001D01*
X0233Y01936D02*
X02346Y01951D01*
Y01936D02*
Y01967D01*
X02283D02*
X02346D01*
X02283Y01936D02*
Y01967D01*
Y01936D02*
X02346D01*
X01118Y01307D02*
Y01339D01*
X01056Y01307D02*
X01118D01*
X01056D02*
Y01339D01*
X01118*
X02405Y00633D02*
X02484D01*
X02405D02*
Y00683D01*
X02484*
Y00633D02*
Y00683D01*
X0247Y00718D02*
Y0075D01*
X02407D02*
X0247D01*
X02407Y00718D02*
Y0075D01*
Y00718D02*
X0247D01*
X02406Y00777D02*
Y00809D01*
Y00777D02*
X02469D01*
Y00809*
X02406D02*
X02469D01*
X04003Y01641D02*
Y01673D01*
X0394D02*
X04003D01*
X0394Y01641D02*
Y01673D01*
Y01641D02*
X04003D01*
X02444Y0135D02*
Y01381D01*
Y0135D02*
X02507D01*
Y01381*
X02444D02*
X02507D01*
X0261Y00407D02*
X02673D01*
X0261Y00375D02*
Y00407D01*
Y00375D02*
X02673D01*
Y00407*
X02645Y01651D02*
Y01682D01*
X02582Y01651D02*
X02645D01*
X02582D02*
Y01682D01*
X02645*
X02266Y02663D02*
Y02892D01*
X01427Y02663D02*
X02266D01*
X01427D02*
Y02892D01*
X02266*
X0392Y0145D02*
X03998D01*
X0392D02*
Y01608D01*
X03998*
Y0145D02*
Y01608D01*
X00795Y01048D02*
X00835D01*
Y01067*
X00795D02*
X00835D01*
X00795Y01048D02*
Y01067D01*
X03944Y01736D02*
X04007D01*
Y01704D02*
Y01736D01*
X03944Y01704D02*
X04007D01*
X03944D02*
Y01736D01*
Y0172D02*
X0396Y01736D01*
X04013Y01769D02*
Y01789D01*
X03974D02*
X04013D01*
X03974Y01769D02*
Y01789D01*
Y01769D02*
X04013D01*
X00792Y01004D02*
X00831D01*
Y01024*
X00792D02*
X00831D01*
X00792Y01004D02*
Y01024D01*
X02405Y01887D02*
Y01918D01*
Y01887D02*
X02468D01*
Y01918*
X02405D02*
X02468D01*
X02158Y0192D02*
X02221D01*
Y01889D02*
Y0192D01*
X02158Y01889D02*
X02221D01*
X02158D02*
Y0192D01*
X02281Y01919D02*
X02344D01*
Y01888D02*
Y01919D01*
X02281Y01888D02*
X02344D01*
X02281D02*
Y01919D01*
X01688Y00524D02*
X0172D01*
X01688Y00461D02*
Y00524D01*
Y00461D02*
X0172D01*
Y00524*
X0161D02*
X01641D01*
X0161Y00461D02*
Y00524D01*
Y00461D02*
X01641D01*
Y00524*
X01872Y00475D02*
Y00538D01*
X01841Y00475D02*
X01872D01*
X01841D02*
Y00538D01*
X01872*
X03455Y01196D02*
Y01235D01*
Y01196D02*
X03474D01*
Y01235*
X03455D02*
X03474D01*
X03355Y01152D02*
Y01192D01*
Y01152D02*
X03375D01*
Y01192*
X03355D02*
X03375D01*
X03575Y01084D02*
Y01124D01*
X03555D02*
X03575D01*
X03555Y01084D02*
Y01124D01*
Y01084D02*
X03575D01*
X03354Y01031D02*
X03374D01*
X03354D02*
Y0107D01*
X03374*
Y01031D02*
Y0107D01*
X01261Y01109D02*
Y01121D01*
X01284*
Y01109D02*
Y01121D01*
X01261Y01109D02*
X01284D01*
X01261Y01152D02*
Y01164D01*
X01284*
Y01152D02*
Y01164D01*
X01261Y01152D02*
X01284D01*
X02829Y012D02*
Y01232D01*
X02892*
Y012D02*
Y01232D01*
X02829Y012D02*
X02892D01*
X01261Y01198D02*
Y0121D01*
X01285*
Y01198D02*
Y0121D01*
X01261Y01198D02*
X01285D01*
X01261Y01057D02*
Y01068D01*
X01285*
Y01057D02*
Y01068D01*
X01261Y01057D02*
X01285D01*
X02868Y01059D02*
Y01122D01*
Y01059D02*
X02899D01*
Y01122*
X02868D02*
X02899D01*
X02814Y01058D02*
Y01121D01*
Y01058D02*
X02845D01*
Y01121*
X02814D02*
X02845D01*
X03137Y02334D02*
X032D01*
X03137Y02303D02*
Y02334D01*
Y02303D02*
X032D01*
Y02334*
X00731Y01431D02*
X0078D01*
X00731Y01352D02*
Y01431D01*
Y01352D02*
X0078D01*
Y01431*
X00754D02*
X0078Y01405D01*
X00591Y01462D02*
X0064D01*
Y01541*
X00591D02*
X0064D01*
X00591Y01462D02*
Y01541D01*
Y01488D02*
X00617Y01462D01*
X04025Y01111D02*
Y01311D01*
X03892D02*
X04025D01*
X03892Y01111D02*
Y01311D01*
Y01111D02*
X04025D01*
X00125Y00982D02*
X00157D01*
Y00919D02*
Y00982D01*
X00125Y00919D02*
X00157D01*
X00125D02*
Y00982D01*
X00786Y00896D02*
Y00928D01*
X00849*
Y00896D02*
Y00928D01*
X00786Y00896D02*
X00849D01*
X00151Y00695D02*
X00277D01*
Y00758*
X00151D02*
X00277D01*
X00151Y00695D02*
Y00758D01*
X01521Y00681D02*
X01553D01*
X01521D02*
Y00744D01*
X01553*
Y00681D02*
Y00744D01*
X02168Y01936D02*
X02231D01*
X02168D02*
Y01967D01*
X02231*
Y01936D02*
Y01967D01*
X02215Y01936D02*
X02231Y01951D01*
X02169Y00523D02*
Y00586D01*
X022*
Y00523D02*
Y00586D01*
X02169Y00523D02*
X022D01*
X01842Y01763D02*
X01905D01*
Y01732D02*
Y01763D01*
X01842Y01732D02*
X01905D01*
X01842D02*
Y01763D01*
X02413Y01633D02*
X02476D01*
Y01602D02*
Y01633D01*
X02413Y01602D02*
X02476D01*
X02413D02*
Y01633D01*
X0244Y01177D02*
X02503D01*
Y01145D02*
Y01177D01*
X0244Y01145D02*
X02503D01*
X0244D02*
Y01177D01*
X01994Y00667D02*
Y0073D01*
X01963Y00667D02*
X01994D01*
X01963D02*
Y0073D01*
X01994*
X02466Y00916D02*
X02529D01*
Y00885D02*
Y00916D01*
X02466Y00885D02*
X02529D01*
X02466D02*
Y00916D01*
X01542Y01735D02*
Y01766D01*
Y01735D02*
X01605D01*
Y01766*
X01542D02*
X01605D01*
X01421Y01311D02*
Y01342D01*
X01358D02*
X01421D01*
X01358Y01311D02*
Y01342D01*
Y01311D02*
X01421D01*
X0142Y01116D02*
Y01148D01*
X01357D02*
X0142D01*
X01357Y01116D02*
Y01148D01*
Y01116D02*
X0142D01*
X01421Y00858D02*
Y00889D01*
X01358D02*
X01421D01*
X01358Y00858D02*
Y00889D01*
Y00858D02*
X01421D01*
X02879Y01444D02*
X02942D01*
X02879Y01413D02*
Y01444D01*
Y01413D02*
X02942D01*
Y01444*
Y01354D02*
Y01385D01*
X02879Y01354D02*
X02942D01*
X02879D02*
Y01385D01*
X02942*
X02444Y00627D02*
X02476D01*
X02444D02*
Y00689D01*
X02476*
Y00627D02*
Y00689D01*
X02393Y00625D02*
X02425D01*
X02393D02*
Y00688D01*
X02425*
Y00625D02*
Y00688D01*
X0233Y00625D02*
X02362D01*
X0233D02*
Y00688D01*
X02362*
Y00625D02*
Y00688D01*
X0269Y0049D02*
Y00553D01*
X02659D02*
X0269D01*
X02659Y0049D02*
Y00553D01*
Y0049D02*
X0269D01*
X02597Y00553D02*
X02629D01*
Y0049D02*
Y00553D01*
X02597Y0049D02*
X02629D01*
X02597D02*
Y00553D01*
X0258Y00366D02*
X03521D01*
X0258D02*
Y00865D01*
X03521*
Y00366D02*
Y00865D01*
X02674Y01533D02*
X02713D01*
X02699Y01511D02*
Y01551D01*
X00185Y-00253D02*
Y0044D01*
X00578*
Y-00253D02*
Y0044D01*
X00185Y-00253D02*
X00578D01*
X03816Y00015D02*
Y00397D01*
X03318Y00015D02*
X03816D01*
X03318D02*
Y00397D01*
X03816*
X03548Y01885D02*
X03744D01*
X03548Y01728D02*
Y01885D01*
Y01728D02*
X03744D01*
Y01885*
X01122Y00358D02*
X01525D01*
Y00043D02*
Y00358D01*
X01122Y00043D02*
X01525D01*
X01122D02*
Y00358D01*
X03592Y01009D02*
Y01131D01*
X03726*
Y01009D02*
Y01131D01*
X03592Y01009D02*
X03726D01*
X00766Y02214D02*
Y02917D01*
X00167D02*
X00766D01*
X00167Y02214D02*
Y02917D01*
Y02214D02*
X00766D01*
X00911Y02508D02*
Y02912D01*
X01225*
Y02508D02*
Y02912D01*
X00911Y02508D02*
X01225D01*
X01135Y-00019D02*
X01787D01*
Y00705*
X01135D02*
X01787D01*
X01135Y-00019D02*
Y00705D01*
X01588Y00655D02*
X01753D01*
Y00537D02*
Y00655D01*
X01588Y00537D02*
X01753D01*
X01588D02*
Y00655D01*
X03396Y01024D02*
X03541D01*
X03396D02*
Y0115D01*
X03541*
Y01024D02*
Y0115D01*
G54D15*
X00184Y00669D02*
X00973D01*
X00184D02*
Y01604D01*
X00973*
Y00669D02*
Y01604D01*
X01072Y01251D02*
X01131D01*
Y01137D02*
Y01251D01*
X01072Y01137D02*
X01131D01*
X01072D02*
Y01251D01*
X00694Y02028D02*
X00731D01*
X00694Y01963D02*
X00731D01*
Y02028*
X00694Y01963D02*
Y02028D01*
X02034Y01946D02*
X02149D01*
X02034D02*
Y01997D01*
X02149*
Y01946D02*
Y01997D01*
X02314Y01946D02*
Y01997D01*
X02199D02*
X02314D01*
X02199Y01946D02*
Y01997D01*
Y01946D02*
X02314D01*
X02489D02*
Y01997D01*
X02374D02*
X02489D01*
X02374Y01946D02*
Y01997D01*
Y01946D02*
X02489D01*
X02642D02*
Y01997D01*
X02527D02*
X02642D01*
X02527Y01946D02*
Y01997D01*
Y01946D02*
X02642D01*
G54D16*
X01904Y0058D02*
D01*
X01905Y0058*
X01906Y0058*
X01907Y0058*
X01908Y0058*
X0191Y00581*
X01911Y00581*
X01912Y00582*
X01913Y00582*
X01914Y00583*
X01915Y00584*
X01916Y00585*
X01916Y00585*
X01917Y00586*
X01918Y00587*
X01918Y00588*
X01919Y00589*
X0192Y0059*
X0192Y00592*
X0192Y00593*
X01921Y00594*
X01921Y00595*
X01921Y00596*
X0192Y00597*
X02115D02*
D01*
X02115Y00596*
X02115Y00594*
X02116Y00593*
X02116Y00592*
X02116Y00591*
X02117Y0059*
X02117Y00589*
X02118Y00588*
X02118Y00587*
X02119Y00586*
X0212Y00585*
X02121Y00584*
X02122Y00583*
X02123Y00583*
X02124Y00582*
X02125Y00582*
X02126Y00581*
X02127Y00581*
X02128Y0058*
X02129Y0058*
X0213Y0058*
X02132Y0058*
X02132Y0058*
Y00483D02*
D01*
X02131Y00483*
X0213Y00483*
X02129Y00483*
X02128Y00483*
X02126Y00482*
X02125Y00482*
X02124Y00481*
X02123Y00481*
X02122Y0048*
X02121Y00479*
X0212Y00479*
X0212Y00478*
X02119Y00477*
X02118Y00476*
X02118Y00475*
X02117Y00474*
X02116Y00473*
X02116Y00472*
X02116Y00471*
X02116Y00469*
X02115Y00468*
X02115Y00467*
X02115Y00467*
X0192D02*
D01*
X0192Y00468*
X0192Y00469*
X0192Y0047*
X0192Y00471*
X01919Y00473*
X01919Y00474*
X01918Y00475*
X01918Y00476*
X01917Y00477*
X01916Y00478*
X01916Y00479*
X01915Y00479*
X01914Y0048*
X01913Y00481*
X01912Y00481*
X01911Y00482*
X0191Y00483*
X01909Y00483*
X01908Y00483*
X01906Y00483*
X01905Y00484*
X01904Y00484*
X01904Y00483*
X0192Y00597D02*
X01977D01*
X02059D02*
X02115D01*
X02132Y00544D02*
Y0058D01*
Y00483D02*
Y0052D01*
X02059Y00467D02*
X02115D01*
X0192D02*
X01977D01*
X01904Y00483D02*
Y0052D01*
Y00544D02*
Y0058D01*
G54D18*
X0234Y00321D02*
X02504D01*
Y00485*
X0234D02*
X02504D01*
X0234Y00321D02*
Y00485D01*
X02454D02*
X02466D01*
X02429D02*
X02441D01*
X02403D02*
X02415D01*
X02378D02*
X0239D01*
X0234Y00435D02*
Y00447D01*
Y0041D02*
Y00422D01*
Y00384D02*
Y00396D01*
Y00359D02*
Y00371D01*
X02378Y00321D02*
X0239D01*
X02403D02*
X02415D01*
X02429D02*
X02441D01*
X02454D02*
X02466D01*
X02504Y00359D02*
Y00371D01*
Y00384D02*
Y00396D01*
Y0041D02*
Y00422D01*
Y00435D02*
Y00447D01*
X02454Y00321D02*
X02504Y00371D01*
G54D19*
X00298Y00482D02*
Y00625D01*
X00529*
Y00482D02*
Y00625D01*
X00298Y00482D02*
X00529D01*
X01187Y00986D02*
X01302D01*
Y00927D02*
Y00986D01*
X01187Y00927D02*
X01302D01*
X01187D02*
Y00986D01*
X02964Y00797D02*
Y00887D01*
X03145*
Y00797D02*
Y00887D01*
X02964Y00797D02*
X03145D01*
X03713Y00017D02*
X03823D01*
X03713D02*
Y00188D01*
X03823*
Y00017D02*
Y00188D01*
X03235Y00142D02*
X03345D01*
X03235D02*
Y00312D01*
X03345*
Y00142D02*
Y00312D01*
X03327Y00784D02*
Y00894D01*
X03157Y00784D02*
X03327D01*
X03157D02*
Y00894D01*
X03327*
X02776Y00777D02*
X02886D01*
X02776D02*
Y00948D01*
X02886*
Y00777D02*
Y00948D01*
X03758Y00433D02*
X04029D01*
X03758Y00255D02*
Y00433D01*
Y00255D02*
X04029D01*
Y00433*
X02314Y0269D02*
X02584D01*
X02314Y02513D02*
Y0269D01*
Y02513D02*
X02584D01*
Y0269*
X02314Y02553D02*
X02584D01*
X02314Y02375D02*
Y02553D01*
Y02375D02*
X02584D01*
Y02553*
X01756Y02047D02*
X0205D01*
Y0183D02*
Y02047D01*
X01756Y0183D02*
X0205D01*
X01756D02*
Y02047D01*
X02501Y01872D02*
Y01931D01*
Y01872D02*
X02616D01*
Y01931*
X02501D02*
X02616D01*
X02624Y01924D02*
Y01979D01*
X02498D02*
X02624D01*
X02498Y01924D02*
Y01979D01*
Y01924D02*
X02624D01*
X02377D02*
X02503D01*
X02377D02*
Y01979D01*
X02503*
Y01924D02*
Y01979D01*
X01848Y00024D02*
X03361D01*
X01848D02*
Y00218D01*
X03361*
Y00024D02*
Y00218D01*
X02399Y02742D02*
X03912D01*
X02399D02*
Y02937D01*
X03912*
Y02742D02*
Y02937D01*
X01473Y00757D02*
X02396D01*
Y01679*
X01473D02*
X02396D01*
X01473Y00757D02*
Y01679D01*
X02838Y01719D02*
X02897D01*
Y01605D02*
Y01719D01*
X02838Y01605D02*
X02897D01*
X02838D02*
Y01719D01*
X02901D02*
X0296D01*
Y01605D02*
Y01719D01*
X02901Y01605D02*
X0296D01*
X02901D02*
Y01719D01*
X02966Y01537D02*
Y01596D01*
X02852Y01537D02*
X02966D01*
X02852D02*
Y01596D01*
X02966*
X02968Y01478D02*
Y01537D01*
X02854Y01478D02*
X02968D01*
X02854D02*
Y01537D01*
X02968*
X02352Y01542D02*
Y01601D01*
X02466*
Y01542D02*
Y01601D01*
X02352Y01542D02*
X02466D01*
X02352Y01481D02*
Y0154D01*
X02466*
Y01481D02*
Y0154D01*
X02352Y01481D02*
X02466D01*
X02351Y01419D02*
Y01589D01*
X0224D02*
X02351D01*
X0224Y01419D02*
Y01589D01*
Y01419D02*
X02351D01*
X02292Y01303D02*
Y01474D01*
Y01303D02*
X02402D01*
Y01474*
X02292D02*
X02402D01*
X02377Y01438D02*
X02436D01*
Y01324D02*
Y01438D01*
X02377Y01324D02*
X02436D01*
X02377D02*
Y01438D01*
X02702Y01344D02*
Y01403D01*
X02588Y01344D02*
X02702D01*
X02588D02*
Y01403D01*
X02702*
X0271Y0065D02*
X02801D01*
Y00468D02*
Y0065D01*
X0271Y00468D02*
X02801D01*
X0271D02*
Y0065D01*
X01149Y00493D02*
Y0178D01*
X00007D02*
X01149D01*
X00007Y00493D02*
Y0178D01*
Y00493D02*
X01149D01*
X02827Y01399D02*
Y01667D01*
X0256Y01399D02*
Y01667D01*
X02827*
X0256Y01399D02*
X02827D01*
X03788Y00137D02*
X04037D01*
X03788D02*
Y00997D01*
X04037*
Y00137D02*
Y00997D01*
X03818Y00419D02*
Y00509D01*
X03637Y00419D02*
X03818D01*
X03637D02*
Y00509D01*
X03818*
Y00501D02*
Y00592D01*
X03637Y00501D02*
X03818D01*
X03637D02*
Y00592D01*
X03818*
Y0058D02*
Y00671D01*
X03637Y0058D02*
X03818D01*
X03637D02*
Y00671D01*
X03818*
Y00659D02*
Y0075D01*
X03637Y00659D02*
X03818D01*
X03637D02*
Y0075D01*
X03818*
X03816Y00755D02*
X03986D01*
Y00866*
X03816D02*
X03986D01*
X03816Y00755D02*
Y00866D01*
X03818Y00738D02*
Y00828D01*
X03637Y00738D02*
X03818D01*
X03637D02*
Y00828D01*
X03818*
X01018Y01127D02*
X01184D01*
Y01261*
X01018D02*
X01184D01*
X01018Y01127D02*
Y01261D01*
X03639Y02379D02*
X03753D01*
X03639D02*
Y02438D01*
X03753*
Y02379D02*
Y02438D01*
X03683Y00747D02*
Y00902D01*
X03576Y00747D02*
X03683D01*
X03576D02*
Y00902D01*
X03683*
X03775Y01749D02*
Y01824D01*
X03815*
Y01749D02*
Y01824D01*
X03775Y01749D02*
X03815D01*
X03531Y01124D02*
Y01198D01*
X03571*
Y01124D02*
Y01198D01*
X03531Y01124D02*
X03571D01*
X03625Y01559D02*
X03751D01*
Y01746*
X03625D02*
X03751D01*
X03625Y01559D02*
Y01746D01*
X03198Y02656D02*
X03242D01*
X03198Y02563D02*
Y02656D01*
Y02563D02*
X03242D01*
Y02656*
X03167D02*
X0321D01*
X03167Y02563D02*
Y02656D01*
Y02563D02*
X0321D01*
Y02656*
X01185Y00398D02*
X013D01*
Y00339D02*
Y00398D01*
X01185Y00339D02*
X013D01*
X01185D02*
Y00398D01*
X0119Y00477D02*
X01286D01*
Y00428D02*
Y00477D01*
X0119Y00428D02*
X01286D01*
X0119D02*
Y00477D01*
X03635Y01587D02*
Y01743D01*
X03529Y01587D02*
X03635D01*
X03529D02*
Y01743D01*
X03635*
X03535Y01927D02*
X03575D01*
X03535Y01851D02*
Y01927D01*
Y01851D02*
X03575D01*
Y01927*
X03553Y00987D02*
X03596D01*
X03553Y00894D02*
Y00987D01*
Y00894D02*
X03596D01*
Y00987*
X03515Y00947D02*
X03555D01*
X03515Y00872D02*
Y00947D01*
Y00872D02*
X03555D01*
Y00947*
X03173Y02556D02*
Y02648D01*
X03129Y02556D02*
X03173D01*
X03129D02*
Y02648D01*
X03173*
X03514Y0244D02*
X03611D01*
X03514D02*
Y02488D01*
X03611*
Y0244D02*
Y02488D01*
X03525Y02086D02*
X036D01*
Y0222*
X03525D02*
X036D01*
X03525Y02086D02*
Y0222D01*
X03671Y02092D02*
Y02206D01*
X03612Y02092D02*
X03671D01*
X03612D02*
Y02206D01*
X03671*
X00861Y01951D02*
Y02048D01*
X0091*
Y01951D02*
Y02048D01*
X00861Y01951D02*
X0091D01*
X00806D02*
Y02048D01*
X00855*
Y01951D02*
Y02048D01*
X00806Y01951D02*
X00855D01*
X008D02*
Y02048D01*
X00751Y01951D02*
X008D01*
X00751D02*
Y02048D01*
X008*
X00683Y01939D02*
X00741D01*
X00683Y02052D02*
X00741D01*
Y01939D02*
Y02052D01*
X00683Y01939D02*
Y02052D01*
X00629Y01892D02*
X00677D01*
Y01988*
X00629D02*
X00677D01*
X00629Y01892D02*
Y01988D01*
X02778Y02277D02*
Y02494D01*
X03072*
Y02277D02*
Y02494D01*
X02778Y02277D02*
X03072D01*
X02877Y02542D02*
X02973D01*
Y02591*
X02877D02*
X02973D01*
X02877Y02542D02*
Y02591D01*
X03139Y02488D02*
X03253D01*
Y02332D02*
Y02488D01*
X03139Y02332D02*
X03253D01*
X03139D02*
Y02488D01*
X0294Y02233D02*
Y02542D01*
X03219*
Y02233D02*
Y02542D01*
X0294Y02233D02*
X03219D01*
X02948Y02556D02*
X02992D01*
Y02648*
X02948D02*
X02992D01*
X02948Y02556D02*
Y02648D01*
X02903Y02555D02*
X02946D01*
Y02647*
X02903D02*
X02946D01*
X02903Y02555D02*
Y02647D01*
X02996Y02556D02*
X03039D01*
Y02648*
X02996D02*
X03039D01*
X02996Y02556D02*
Y02648D01*
X0304D02*
X03083D01*
X0304Y02556D02*
Y02648D01*
Y02556D02*
X03083D01*
Y02648*
X03085D02*
X03128D01*
X03085Y02556D02*
Y02648D01*
Y02556D02*
X03128D01*
Y02648*
X00864Y02517D02*
X01035D01*
Y02407D02*
Y02517D01*
X00864Y02407D02*
X01035D01*
X00864D02*
Y02517D01*
X02383Y00442D02*
Y00501D01*
Y00442D02*
X02498D01*
Y00501*
X02383D02*
X02498D01*
X03301Y02226D02*
Y02285D01*
Y02226D02*
X03415D01*
Y02285*
X03301D02*
X03415D01*
X03457Y02354D02*
Y0248D01*
X03271D02*
X03457D01*
X03271Y02354D02*
Y0248D01*
Y02354D02*
X03457D01*
X03729Y02101D02*
Y02198D01*
X0368Y02101D02*
X03729D01*
X0368D02*
Y02198D01*
X03729*
X03645Y02307D02*
X03741D01*
Y02258D02*
Y02307D01*
X03645Y02258D02*
X03741D01*
X03645D02*
Y02307D01*
X03643Y02371D02*
X0374D01*
Y02322D02*
Y02371D01*
X03643Y02322D02*
X0374D01*
X03643D02*
Y02371D01*
X03415Y02175D02*
X0347D01*
X03415Y02049D02*
Y02175D01*
Y02049D02*
X0347D01*
Y02175*
X03434Y02233D02*
X03578D01*
X03434D02*
Y02403D01*
X03578*
Y02233D02*
Y02403D01*
X02067Y01736D02*
X02162D01*
Y01687D02*
Y01736D01*
X02067Y01687D02*
X02162D01*
X02067D02*
Y01736D01*
X02024Y01896D02*
X02159D01*
X02024D02*
Y02047D01*
X02159*
Y01896D02*
Y02047D01*
X0325Y02493D02*
X03387D01*
X0325D02*
Y0264D01*
X03387*
Y02493D02*
Y0264D01*
X00764Y01079D02*
X00878D01*
Y01138*
X00764D02*
X00878D01*
X00764Y01079D02*
Y01138D01*
X00396Y00947D02*
Y01168D01*
X00705*
Y00947D02*
Y01168D01*
X00396Y00947D02*
X00705D01*
X00915Y01124D02*
Y01234D01*
X00745Y01124D02*
X00915D01*
X00745D02*
Y01234D01*
X00915*
X00765Y00946D02*
Y0099D01*
X00858*
Y00946D02*
Y0099D01*
X00765Y00946D02*
X00858D01*
X01621Y01806D02*
Y01855D01*
X01525D02*
X01621D01*
X01525Y01806D02*
Y01855D01*
Y01806D02*
X01621D01*
X0164Y01864D02*
Y01934D01*
X01525D02*
X0164D01*
X01525Y01864D02*
Y01934D01*
Y01864D02*
X0164D01*
X01463Y00714D02*
Y00798D01*
X01301D02*
X01463D01*
X01301Y00714D02*
Y00798D01*
Y00714D02*
X01463D01*
X03301Y02375D02*
X03415D01*
Y02316D02*
Y02375D01*
X03301Y02316D02*
X03415D01*
X03301D02*
Y02375D01*
X00684Y01448D02*
X00854D01*
Y01558*
X00684D02*
X00854D01*
X00684Y01448D02*
Y01558D01*
X00331Y01314D02*
Y01411D01*
X00283D02*
X00331D01*
X00283Y01314D02*
Y01411D01*
Y01314D02*
X00331D01*
X00346Y01412D02*
X00395D01*
Y01316D02*
Y01412D01*
X00346Y01316D02*
X00395D01*
X00346D02*
Y01412D01*
X00085Y01051D02*
X00196D01*
X00085D02*
Y01222D01*
X00196*
Y01051D02*
Y01222D01*
X00685Y01334D02*
Y01444D01*
X00514Y01334D02*
X00685D01*
X00514D02*
Y01444D01*
X00685*
X00133Y00488D02*
Y00537D01*
X00229*
Y00488D02*
Y00537D01*
X00133Y00488D02*
X00229D01*
X00133Y00605D02*
X00229D01*
X00133Y00556D02*
Y00605D01*
Y00556D02*
X00229D01*
Y00605*
X00133Y00615D02*
X00229D01*
Y00664*
X00133D02*
X00229D01*
X00133Y00615D02*
Y00664D01*
X0114Y01364D02*
Y01413D01*
X01044Y01364D02*
X0114D01*
X01044D02*
Y01413D01*
X0114*
X02018Y02058D02*
Y02107D01*
X01922D02*
X02018D01*
X01922Y02058D02*
Y02107D01*
Y02058D02*
X02018D01*
X02377Y01924D02*
Y01979D01*
X02251D02*
X02377D01*
X02251Y01924D02*
Y01979D01*
Y01924D02*
X02377D01*
X01144Y01294D02*
Y01353D01*
X0103Y01294D02*
X01144D01*
X0103D02*
Y01353D01*
X01144*
X02387Y00623D02*
X02502D01*
X02387D02*
Y00693D01*
X02502*
Y00623D02*
Y00693D01*
X02487Y00709D02*
Y00758D01*
X0239D02*
X02487D01*
X0239Y00709D02*
Y00758D01*
Y00709D02*
X02487D01*
X0239Y00768D02*
Y00817D01*
Y00768D02*
X02486D01*
Y00817*
X0239D02*
X02486D01*
X02541Y00277D02*
X02711D01*
Y00387*
X02541D02*
X02711D01*
X02541Y00277D02*
Y00387D01*
X01588Y0064D02*
Y0081D01*
Y0064D02*
X01698D01*
Y0081*
X01588D02*
X01698D01*
X01643D02*
X01753D01*
Y0064D02*
Y0081D01*
X01643Y0064D02*
X01753D01*
X01643D02*
Y0081D01*
X01324D02*
X01435D01*
Y0064D02*
Y0081D01*
X01324Y0064D02*
X01435D01*
X01324D02*
Y0081D01*
X01537D02*
X01647D01*
Y0064D02*
Y0081D01*
X01537Y0064D02*
X01647D01*
X01537D02*
Y0081D01*
X04029Y01627D02*
Y01687D01*
X03915D02*
X04029D01*
X03915Y01627D02*
Y01687D01*
Y01627D02*
X04029D01*
X02428Y01341D02*
Y0139D01*
Y01341D02*
X02524D01*
Y0139*
X02428D02*
X02524D01*
X02584Y00421D02*
X02698D01*
X02584Y00362D02*
Y00421D01*
Y00362D02*
X02698D01*
Y00421*
X02671Y01637D02*
Y01696D01*
X02557Y01637D02*
X02671D01*
X02557D02*
Y01696D01*
X02671*
X02276Y02653D02*
Y02901D01*
X01417Y02653D02*
X02276D01*
X01417D02*
Y02901D01*
X02276*
X0391Y0144D02*
X04008D01*
X0391D02*
Y01618D01*
X04008*
Y0144D02*
Y01618D01*
X00768Y01036D02*
X00861D01*
Y01079*
X00768D02*
X00861D01*
X00768Y01036D02*
Y01079D01*
X03913Y01748D02*
X04039D01*
Y01692D02*
Y01748D01*
X03913Y01692D02*
X04039D01*
X03913D02*
Y01748D01*
X0404Y01757D02*
Y01801D01*
X03948D02*
X0404D01*
X03948Y01757D02*
Y01801D01*
Y01757D02*
X0404D01*
X00765Y00992D02*
X00858D01*
Y01035*
X00765D02*
X00858D01*
X00765Y00992D02*
Y01035D01*
X02379Y01873D02*
Y01932D01*
Y01873D02*
X02493D01*
Y01932*
X02379D02*
X02493D01*
X02133Y01934D02*
X02247D01*
Y01875D02*
Y01934D01*
X02133Y01875D02*
X02247D01*
X02133D02*
Y01934D01*
X02255Y01933D02*
X0237D01*
Y01874D02*
Y01933D01*
X02255Y01874D02*
X0237D01*
X02255D02*
Y01933D01*
X0168Y0054D02*
X01729D01*
X0168Y00445D02*
Y0054D01*
Y00445D02*
X01729D01*
Y0054*
X01601D02*
X0165D01*
X01601Y00445D02*
Y0054D01*
Y00445D02*
X0165D01*
Y0054*
X01881Y00459D02*
Y00555D01*
X01832Y00459D02*
X01881D01*
X01832D02*
Y00555D01*
X01881*
X03443Y01169D02*
Y01261D01*
Y01169D02*
X03486D01*
Y01261*
X03443D02*
X03486D01*
X03344Y01126D02*
Y01218D01*
Y01126D02*
X03387D01*
Y01218*
X03344D02*
X03387D01*
X03584Y01068D02*
Y0114D01*
X03547D02*
X03584D01*
X03547Y01068D02*
Y0114D01*
Y01068D02*
X03584D01*
X03346Y01015D02*
X03382D01*
X03346D02*
Y01087D01*
X03382*
Y01015D02*
Y01087D01*
X01234Y01097D02*
Y01132D01*
X01311*
Y01097D02*
Y01132D01*
X01234Y01097D02*
X01311D01*
X01234Y0114D02*
Y01176D01*
X01311*
Y0114D02*
Y01176D01*
X01234Y0114D02*
X01311D01*
X02804Y01187D02*
Y01246D01*
X02918*
Y01187D02*
Y01246D01*
X02804Y01187D02*
X02918D01*
X01235D02*
Y01222D01*
X01312*
Y01187D02*
Y01222D01*
X01235Y01187D02*
X01312D01*
X01234Y01045D02*
Y0108D01*
X01311*
Y01045D02*
Y0108D01*
X01234Y01045D02*
X01311D01*
X02324Y01896D02*
Y02047D01*
X02189D02*
X02324D01*
X02189Y01896D02*
Y02047D01*
Y01896D02*
X02324D01*
X02499D02*
Y02047D01*
X02364D02*
X02499D01*
X02364Y01896D02*
Y02047D01*
Y01896D02*
X02499D01*
X02652D02*
Y02047D01*
X02517D02*
X02652D01*
X02517Y01896D02*
Y02047D01*
Y01896D02*
X02652D01*
X02859Y01043D02*
Y01139D01*
Y01043D02*
X02908D01*
Y01139*
X02859D02*
X02908D01*
X02805Y01042D02*
Y01138D01*
Y01042D02*
X02854D01*
Y01138*
X02805D02*
X02854D01*
X03112Y02348D02*
X03226D01*
X03112Y02289D02*
Y02348D01*
Y02289D02*
X03226D01*
Y02348*
X00688Y01444D02*
X00822D01*
X00688Y01338D02*
Y01444D01*
Y01338D02*
X00822D01*
Y01444*
X00549Y01448D02*
X00683D01*
Y01555*
X00549D02*
X00683D01*
X00549Y01448D02*
Y01555D01*
X04035Y01101D02*
Y01321D01*
X03882D02*
X04035D01*
X03882Y01101D02*
Y01321D01*
Y01101D02*
X04035D01*
X00117Y00999D02*
X00166D01*
Y00902D02*
Y00999D01*
X00117Y00902D02*
X00166D01*
X00117D02*
Y00999D01*
X00769Y00888D02*
Y00937D01*
X00865*
Y00888D02*
Y00937D01*
X00769Y00888D02*
X00865D01*
X00133Y00685D02*
X00295D01*
Y00768*
X00133D02*
X00295D01*
X00133Y00685D02*
Y00768D01*
X01512Y00664D02*
X01561D01*
X01512D02*
Y00761D01*
X01561*
Y00664D02*
Y00761D01*
X01431Y0064D02*
Y0081D01*
Y0064D02*
X01541D01*
Y0081*
X01431D02*
X01541D01*
X01375Y0064D02*
Y0081D01*
Y0064D02*
X01486D01*
Y0081*
X01375D02*
X01486D01*
X02136Y01924D02*
X02262D01*
X02136D02*
Y01979D01*
X02262*
Y01924D02*
Y01979D01*
X0216Y00507D02*
Y00603D01*
X02209*
Y00507D02*
Y00603D01*
X0216Y00507D02*
X02209D01*
X01825Y01772D02*
X01922D01*
Y01723D02*
Y01772D01*
X01825Y01723D02*
X01922D01*
X01825D02*
Y01772D01*
X02396Y01642D02*
X02492D01*
Y01593D02*
Y01642D01*
X02396Y01593D02*
X02492D01*
X02396D02*
Y01642D01*
X02424Y01185D02*
X0252D01*
Y01137D02*
Y01185D01*
X02424Y01137D02*
X0252D01*
X02424D02*
Y01185D01*
X02003Y0065D02*
Y00746D01*
X01954Y0065D02*
X02003D01*
X01954D02*
Y00746D01*
X02003*
X0245Y00925D02*
X02546D01*
Y00876D02*
Y00925D01*
X0245Y00876D02*
X02546D01*
X0245D02*
Y00925D01*
X01525Y01726D02*
Y01775D01*
Y01726D02*
X01621D01*
Y01775*
X01525D02*
X01621D01*
X01437Y01302D02*
Y01351D01*
X01341D02*
X01437D01*
X01341Y01302D02*
Y01351D01*
Y01302D02*
X01437D01*
X01436Y01108D02*
Y01157D01*
X0134D02*
X01436D01*
X0134Y01108D02*
Y01157D01*
Y01108D02*
X01436D01*
X01437Y00849D02*
Y00898D01*
X01341D02*
X01437D01*
X01341Y00849D02*
Y00898D01*
Y00849D02*
X01437D01*
X02863Y01453D02*
X02959D01*
X02863Y01404D02*
Y01453D01*
Y01404D02*
X02959D01*
Y01453*
X02961Y01344D02*
Y01396D01*
X02861Y01344D02*
X02961D01*
X02861D02*
Y01396D01*
X02961*
X02436Y0061D02*
X02485D01*
X02436D02*
Y00706D01*
X02485*
Y0061D02*
Y00706D01*
X02385Y00609D02*
X02433D01*
X02385D02*
Y00705D01*
X02433*
Y00609D02*
Y00705D01*
X02322Y00609D02*
X0237D01*
X02322D02*
Y00705D01*
X0237*
Y00609D02*
Y00705D01*
X02699Y00473D02*
Y00569D01*
X0265D02*
X02699D01*
X0265Y00473D02*
Y00569D01*
Y00473D02*
X02699D01*
X02587Y00571D02*
X02639D01*
Y00471D02*
Y00571D01*
X02587Y00471D02*
X02639D01*
X02587D02*
Y00571D01*
G54D20*
X01213Y00956D03*
X01276D03*
X0259Y01902D03*
X02527D03*
X03727Y02409D03*
X03664D03*
X01211Y00369D03*
X01274D03*
X02472Y00472D03*
X02409D03*
X03389Y02255D03*
X03326D03*
Y02346D03*
X03389D03*
X0394Y01657D03*
X04003D03*
X02468Y01902D03*
X02405D03*
X02158Y01905D03*
X02221D03*
X02281Y01903D03*
X02344D03*
G54D21*
X01796Y02013D03*
Y01963D03*
Y01914D03*
Y01864D03*
X0201D03*
Y01914D03*
Y01963D03*
Y02013D03*
G54D22*
X02527Y01951D03*
X02594D03*
X02474D03*
X02407D03*
X02281D03*
X02348D03*
X03942Y0172D03*
X04009D03*
X02233Y01951D03*
X02166D03*
G54D23*
X03415Y00498D03*
X03405Y00795D03*
X03395Y00498D03*
X03385Y00795D03*
X03375Y00498D03*
X03366Y00795D03*
X03356Y00498D03*
X03346Y00795D03*
X03336Y00498D03*
X03326Y00795D03*
X03316Y00498D03*
X03228Y00795D03*
X03218Y00498D03*
X03208Y00795D03*
X03198Y00498D03*
X03188Y00795D03*
X03179Y00498D03*
X03169Y00795D03*
X03159Y00498D03*
X03149Y00795D03*
X03139Y00498D03*
X03129Y00795D03*
X0312Y00498D03*
X0311Y00795D03*
X031Y00498D03*
X0309Y00795D03*
X0308Y00498D03*
X0307Y00795D03*
X03061Y00498D03*
X03051Y00795D03*
X03041Y00498D03*
X03031Y00795D03*
X03021Y00498D03*
X03011Y00795D03*
X03001Y00498D03*
X02992Y00795D03*
X02982Y00498D03*
X02972Y00795D03*
X02962Y00498D03*
X02952Y00795D03*
X02942Y00498D03*
X02933Y00795D03*
X02923Y00498D03*
X02913Y00795D03*
X02903Y00498D03*
X02893Y00795D03*
X02883Y00498D03*
X02874Y00795D03*
X02864Y00498D03*
X02854Y00795D03*
X02844Y00498D03*
X02834Y00795D03*
X02824Y00498D03*
X02814Y00795D03*
X02805Y00498D03*
X02795Y00795D03*
X02785Y00498D03*
X02775Y00795D03*
X02765Y00498D03*
X02755Y00795D03*
X02746Y00498D03*
X02736Y00795D03*
X02726Y00498D03*
X02716Y00795D03*
X02706Y00498D03*
X02696Y00795D03*
X02687Y00498D03*
G54D24*
X03458Y00528D03*
X02643D03*
G54D25*
X01512Y00874D03*
Y00893D03*
Y00913D03*
Y00933D03*
Y00952D03*
Y00972D03*
Y00992D03*
Y01011D03*
Y01031D03*
Y01051D03*
Y0107D03*
Y0109D03*
Y0111D03*
Y01129D03*
Y01149D03*
Y01169D03*
Y01188D03*
Y01208D03*
Y01228D03*
Y01248D03*
Y01267D03*
Y01287D03*
Y01307D03*
Y01326D03*
Y01346D03*
Y01366D03*
Y01385D03*
Y01405D03*
Y01425D03*
Y01444D03*
Y01464D03*
Y01484D03*
Y01503D03*
Y01523D03*
Y01543D03*
Y01562D03*
X02357D03*
Y01543D03*
Y01523D03*
Y01503D03*
Y01484D03*
Y01464D03*
Y01444D03*
Y01425D03*
Y01405D03*
Y01385D03*
Y01366D03*
Y01346D03*
Y01326D03*
Y01307D03*
Y01287D03*
Y01267D03*
Y01248D03*
Y01228D03*
Y01208D03*
Y01188D03*
Y01169D03*
Y01149D03*
Y01129D03*
Y0111D03*
Y0109D03*
Y0107D03*
Y01051D03*
Y01031D03*
Y01011D03*
Y00992D03*
Y00972D03*
Y00952D03*
Y00933D03*
Y00913D03*
Y00893D03*
Y00874D03*
G54D26*
X0159Y01641D03*
X0161D03*
X01629D03*
X01649D03*
X01669D03*
X01688D03*
X01708D03*
X01728D03*
X01748D03*
X01767D03*
X01787D03*
X01807D03*
X01826D03*
X01846D03*
X01866D03*
X01885D03*
X01905D03*
X01925D03*
X01944D03*
X01964D03*
X01984D03*
X02003D03*
X02023D03*
X02043D03*
X02062D03*
X02082D03*
X02102D03*
X02122D03*
X02141D03*
X02161D03*
X02181D03*
X022D03*
X0222D03*
X0224D03*
X02259D03*
X02279D03*
Y00795D03*
X02259D03*
X0224D03*
X0222D03*
X022D03*
X02181D03*
X02161D03*
X02141D03*
X02122D03*
X02102D03*
X02082D03*
X02062D03*
X02043D03*
X02023D03*
X02003D03*
X01984D03*
X01964D03*
X01944D03*
X01925D03*
X01905D03*
X01885D03*
X01866D03*
X01846D03*
X01826D03*
X01807D03*
X01787D03*
X01767D03*
X01748D03*
X01728D03*
X01708D03*
X01688D03*
X01669D03*
X01649D03*
X01629D03*
X0161D03*
X0159D03*
G54D27*
X0211Y02426D03*
X0215D03*
X02189D03*
X02228D03*
Y02465D03*
X02189D03*
X0215D03*
X0211D03*
Y02505D03*
X0215D03*
X02189D03*
X02228D03*
Y02544D03*
X02189D03*
X0215D03*
X0211D03*
X02228Y02583D03*
X02189D03*
X0215D03*
X0211D03*
X03567Y01568D03*
Y01526D03*
Y01482D03*
Y01438D03*
Y01391D03*
X03628Y00497D03*
Y00543D03*
Y00589D03*
Y00681D03*
Y00635D03*
X03846Y01566D03*
X03738Y01137D03*
X03777D03*
X03816D03*
X03727Y01186D03*
X03688D03*
X03655D03*
X03622Y01236D03*
X03661D03*
X03692D03*
X03724D03*
X03622Y01287D03*
X03661D03*
X03696D03*
X03732D03*
X03712Y01566D03*
X03759D03*
X03803D03*
G54D28*
X03042Y00306D03*
X02996D03*
X0295D03*
G54D29*
X01296Y0108D03*
X01253Y01082D03*
X01274Y01089D03*
X01157Y01081D03*
X01173Y01104D03*
X01159Y01195D03*
X01142Y0118D03*
X00136Y02098D03*
X00156Y02116D03*
X00177Y02133D03*
X00198Y0215D03*
X0022Y02166D03*
X00231Y01737D03*
X00291Y01745D03*
Y01782D03*
Y01818D03*
Y01855D03*
Y01893D03*
Y01929D03*
X00231Y01772D03*
Y01805D03*
Y01837D03*
Y01869D03*
Y01897D03*
Y01925D03*
X00172Y02012D03*
X00199Y02037D03*
X00222Y02061D03*
X00246Y02085D03*
X00267Y02107D03*
X00287Y02127D03*
X00244Y02185D03*
X01189Y01127D03*
X0112Y01162D03*
X01274Y01112D03*
X02341Y0062D03*
X02282Y00634D03*
X02241Y00662D03*
G54D30*
X03629Y00866D03*
Y00783D03*
X03582Y01706D03*
Y01624D03*
G54D31*
X03688Y01832D03*
Y01807D03*
Y01781D03*
X03616D03*
Y01807D03*
Y01832D03*
G54D32*
X03795Y01769D03*
Y01805D03*
X03551Y01143D03*
Y01179D03*
X03555Y01871D03*
Y01907D03*
X03535Y00891D03*
Y00927D03*
G54D33*
X03688Y01694D03*
Y01637D03*
G54D34*
X0322Y02588D03*
Y02631D03*
X03188Y02588D03*
Y02631D03*
X03574Y00919D03*
Y00962D03*
X03151Y02624D03*
Y0258D03*
X0297D03*
Y02624D03*
X02925Y02622D03*
Y02579D03*
X03017Y02624D03*
Y0258D03*
X03062D03*
Y02624D03*
X03107Y0258D03*
Y02624D03*
G54D35*
X0122Y00289D03*
X01456D03*
X0122Y00112D03*
X01456D03*
G54D36*
X01211Y00452D03*
X01264D03*
X02088Y01711D03*
X02141D03*
X01547Y0183D03*
X016D03*
X01943Y02083D03*
X01996D03*
X02412Y00734D03*
X02465D03*
X02464Y00793D03*
X02411D03*
X02502Y01366D03*
X0245D03*
X01847Y01748D03*
X019D03*
X02418Y01618D03*
X02471D03*
X02446Y01161D03*
X02498D03*
X02471Y009D03*
X02524D03*
X016Y0175D03*
X01547D03*
X01363Y01326D03*
X01416D03*
X01362Y01132D03*
X01414D03*
X01363Y00874D03*
X01416D03*
G54D37*
X03679Y01083D03*
Y01058D03*
X03669Y0107D03*
X03659Y01083D03*
Y01058D03*
X03649Y0107D03*
X03639Y01083D03*
Y01058D03*
G54D38*
X03589Y02464D03*
X03536D03*
X03666Y02283D03*
X03719D03*
X03665Y02347D03*
X03718D03*
G54D39*
X03562Y0219D03*
Y02116D03*
G54D40*
X03641Y02181D03*
Y02118D03*
G54D41*
X03814Y0224D03*
Y02265D03*
Y02291D03*
Y02316D03*
Y02342D03*
G54D42*
X03919Y02131D03*
Y02244D03*
Y02338D03*
Y0245D03*
G54D43*
X00885Y01973D03*
Y02026D03*
X0083Y01973D03*
Y02026D03*
X00775D03*
Y01973D03*
X00653Y01967D03*
Y01914D03*
X01704Y00466D03*
Y00519D03*
X01625Y00466D03*
Y00519D03*
X01857Y00533D03*
Y00481D03*
X02185Y00528D03*
Y00581D03*
X01979Y00725D03*
Y00672D03*
G54D44*
X00712Y01966D03*
Y02026D03*
G54D45*
X02964Y02272D03*
X0299D03*
X03015D03*
X03041D03*
X03066D03*
X03092D03*
X03118D03*
X03143D03*
X03169D03*
X03194D03*
Y02503D03*
X03169D03*
X03143D03*
X03118D03*
X03092D03*
X03066D03*
X03041D03*
X03015D03*
X0299D03*
X02964D03*
G54D46*
X00224Y02785D03*
X00709D03*
X00224Y02439D03*
X00709D03*
G54D47*
X00341Y02277D03*
X00441D03*
X00541D03*
X00391D03*
X00491D03*
X00591D03*
G54D48*
X00979Y02607D03*
Y02843D03*
X01157Y02607D03*
Y02843D03*
G54D49*
X00933Y02462D03*
X0099D03*
X03324Y02417D03*
X03381D03*
G54D50*
X03704Y02175D03*
Y02123D03*
G54D51*
X03442Y02079D03*
Y02146D03*
G54D52*
X03506Y02318D03*
G54D53*
X0355Y02375D03*
X03533D03*
X03515D03*
X03497D03*
X03479D03*
X03462D03*
Y02261D03*
X03479D03*
X03497D03*
X03515D03*
X03533D03*
X0355D03*
G54D54*
X01551Y01899D03*
X01614D03*
X02476Y00658D03*
X02413D03*
G54D55*
X01327Y00756D03*
X01437D03*
G54D56*
X01931Y00485D03*
X02105D03*
Y00579D03*
X01931D03*
G54D57*
X03972Y01779D03*
X04015D03*
G54D58*
X01661Y00596D03*
X01704D03*
M02*