%FSTAX23Y23*%
%MOIN*%
%SFA1B1*%

%IPPOS*%
%ADD9500C,0.011811*%
%ADD9501C,0.027559*%
%ADD9502C,0.028000*%
%ADD9503C,0.029528*%
%ADD9504C,0.031496*%
%ADD9505C,0.040157*%
%ADD9506C,0.062992*%
%ADD9507C,0.074803*%
%ADD9508C,0.125984*%
%ADD9509C,0.027559*%
%ADD9510C,0.041339*%
%ADD9511C,0.045276*%
%ADD9512C,0.064961*%
%LNshm_pcb-roundholes-1*%
%LPD*%
G54D9500*
X00555Y00501D03*
X00515Y00755D03*
X00472Y00751D03*
X00374Y00755D03*
X01216D03*
X01121Y006D03*
X01537Y00618D03*
X01704Y00429D03*
X01781Y00232D03*
X0135Y00271D03*
X01366Y0011D03*
X0211Y00429D03*
X02409Y00417D03*
X02413Y00366D03*
X02433Y00515D03*
X02428Y00546D03*
X02383Y0056D03*
X02322Y00566D03*
X02377Y00657D03*
X02494Y00612D03*
X02547Y00547D03*
X02642Y00414D03*
X02772Y00406D03*
X02863Y00452D03*
X02812Y0061D03*
X02799Y00661D03*
X02789Y00727D03*
X02836Y00749D03*
X02716Y00709D03*
X02228Y00704D03*
X02204Y0074D03*
X02064Y00719D03*
X0191D03*
X01914Y00678D03*
X01887Y00662D03*
X01917Y00633D03*
X02932Y00716D03*
X02996Y0069D03*
X03043Y00645D03*
X0307Y00669D03*
X03086Y0072D03*
X03133Y00688D03*
X03189Y00738D03*
X03272Y00565D03*
X03273Y00358D03*
X03527Y0038D03*
X03598Y00402D03*
X03534Y00532D03*
X03731Y00216D03*
X02975Y00363D03*
X02955Y00444D03*
X03003Y0089D03*
X03038Y00941D03*
X03089Y00912D03*
X03188Y00879D03*
X0316Y00845D03*
X03334Y00875D03*
X03369D03*
X03395Y00921D03*
X03388Y00957D03*
X03425Y0098D03*
X0346Y00983D03*
X03492Y00921D03*
X03436Y0087D03*
X03429Y00796D03*
X03294Y00925D03*
X03314Y01031D03*
X03326Y0107D03*
X03538Y01018D03*
X03594Y011D03*
X03625Y01145D03*
X03677Y011D03*
X03452Y01271D03*
X03092Y01275D03*
X03003D03*
X0293Y01215D03*
X02969Y0113D03*
X0298Y01094D03*
X02931Y01066D03*
X02911Y00937D03*
X03Y01427D03*
X03052Y02106D03*
X03105Y0213D03*
X0312Y02173D03*
X03169Y02133D03*
X03145Y02094D03*
X0332Y02157D03*
X03326Y02212D03*
X03358Y02124D03*
X03452Y01988D03*
X03562D03*
X03555Y0194D03*
X03649Y01748D03*
X03806Y01724D03*
X0374Y01637D03*
X03972Y0185D03*
X03992Y02027D03*
X03744Y02125D03*
X0372Y0224D03*
X03242Y02299D03*
X03834Y00822D03*
X0289Y00853D03*
X02739Y00892D03*
X027Y0089D03*
X02711Y00953D03*
X02689Y01D03*
X0275Y01043D03*
X02685Y01102D03*
X02722Y01206D03*
X02731Y01241D03*
X02697Y01283D03*
X02626Y01267D03*
X02617Y01233D03*
X02578Y01228D03*
X02581Y01153D03*
X02535Y01161D03*
X02598Y01027D03*
X02491Y01002D03*
X02523Y0087D03*
X02611Y00844D03*
X02283Y00917D03*
X022Y00892D03*
X02002Y00901D03*
X02003Y00929D03*
X02007Y00964D03*
X0196Y00968D03*
X01856Y00978D03*
X01835Y00947D03*
X01839Y00901D03*
X02001Y00874D03*
X02014Y0085D03*
X01897Y01056D03*
X0163Y01038D03*
X01588Y01026D03*
X01625Y01129D03*
X01582Y01169D03*
X01618Y01307D03*
X01586Y01346D03*
X01722Y0137D03*
X01712Y01413D03*
X01741Y0145D03*
X01763Y01479D03*
X0183Y01443D03*
X01784Y01396D03*
X01859Y01362D03*
X02065Y01384D03*
X02116Y01355D03*
X02092Y01326D03*
X02035Y01253D03*
X02055Y01228D03*
X02008Y0128D03*
X02117Y01168D03*
X02248Y01185D03*
X02283Y01149D03*
X02227Y01305D03*
X02434Y01302D03*
X02477Y01333D03*
X02539Y01443D03*
X0272Y015D03*
X02713Y01544D03*
X02733Y01368D03*
X02861Y01319D03*
X02586Y01734D03*
X02511Y01661D03*
X02469Y01671D03*
X02436Y01891D03*
X02473Y01997D03*
X02345Y01997D03*
X02195Y02005D03*
X02158Y01865D03*
X02127Y01891D03*
X02271Y01869D03*
X02074Y01763D03*
X01956Y01787D03*
X01909D03*
X01901Y01697D03*
X01811Y01696D03*
X01706Y01769D03*
X01667Y0174D03*
X01708Y01578D03*
X01629Y01555D03*
X0159Y01566D03*
X01645Y01503D03*
X01681D03*
X02004Y01573D03*
X01932Y01891D03*
X01907Y01914D03*
X01724Y01893D03*
X01723Y01963D03*
X01732Y02018D03*
X0161Y0196D03*
X02055Y02043D03*
X02062Y02082D03*
X01982Y02193D03*
X02366Y02173D03*
X02628Y02006D03*
X02622Y0188D03*
X02887Y02185D03*
X02893Y0233D03*
X01417Y01291D03*
X01376Y01089D03*
X01405Y00944D03*
X01448Y00913D03*
X01362Y00909D03*
X01535Y00775D03*
X01692Y00844D03*
X01334Y01008D03*
X01326Y01133D03*
X01223Y01115D03*
X01201Y01157D03*
X01255Y01251D03*
X01318Y01314D03*
X01295Y01364D03*
X01263Y01389D03*
X01173Y0135D03*
X01326Y01464D03*
X00893Y01507D03*
X00881Y01385D03*
X00862Y01303D03*
Y0124D03*
X00897Y01106D03*
X01111Y0109D03*
X01082Y00834D03*
X01122Y00814D03*
X0085Y00826D03*
X00846Y0087D03*
X0083Y00795D03*
X00748Y00771D03*
X007D03*
X0074Y00834D03*
X00736Y00901D03*
X0061Y0096D03*
X00551Y00964D03*
X00547Y00787D03*
X0061Y00791D03*
X00476Y00783D03*
X00318Y00799D03*
X00279Y00925D03*
X0004Y00858D03*
X0008Y01033D03*
X00105Y01213D03*
X00103Y01385D03*
X00295Y01303D03*
Y01236D03*
X00488Y01204D03*
X00476Y01311D03*
X00519Y01322D03*
X0061Y01318D03*
X00677D03*
X00645Y01287D03*
X00582Y01275D03*
X00433Y01437D03*
X00429Y01476D03*
X00488Y01501D03*
X00318Y01496D03*
X00608Y01576D03*
X00717Y01468D03*
X00653Y02007D03*
X0059Y02208D03*
X00452Y0222D03*
X00279Y02215D03*
X00062Y017D03*
X01173Y02011D03*
X01299Y02047D03*
X01154Y02485D03*
X00933Y02405D03*
X00165Y02433D03*
X01692Y02645D03*
X02321Y02535D03*
X02604Y0257D03*
X0263Y02586D03*
X02681Y02622D03*
X02685Y02681D03*
X02861Y02729D03*
X02893Y02413D03*
X02973Y02757D03*
X03188Y02676D03*
X0324Y02665D03*
X03318D03*
X03228Y02503D03*
X03381Y02444D03*
X03429Y02338D03*
X0361Y02401D03*
X03529Y02527D03*
X03539Y02614D03*
X03909Y02531D03*
G54D9501*
X03934Y01136D03*
Y01186D03*
Y01236D03*
Y01286D03*
X03984D03*
Y01236D03*
Y01186D03*
Y01136D03*
G54D9502*
X00173Y0003D03*
Y00094D03*
X00177Y00153D03*
X00185Y0022D03*
X00188Y00287D03*
X00181Y00354D03*
X00114Y0033D03*
X00051Y00326D03*
X00055Y00401D03*
X00122Y00405D03*
X00114Y00251D03*
X00047D03*
X00043Y00181D03*
X00114D03*
X0024Y00031D03*
X00311Y00039D03*
X00377Y00035D03*
X00381Y00118D03*
X00464Y00035D03*
X00543Y00039D03*
X0061D03*
X00681Y00043D03*
X00759Y00039D03*
X00826Y00043D03*
X00885D03*
X00952D03*
X00968Y00114D03*
X00893Y00125D03*
X00909Y00204D03*
X0094Y00267D03*
X00913Y00342D03*
X00858Y00299D03*
X00811Y00342D03*
X00775Y00279D03*
X00826Y00236D03*
X00803Y00169D03*
X00814Y00102D03*
X0074Y00122D03*
X00665Y00114D03*
X00602D03*
Y00185D03*
X00669Y00192D03*
X00677Y00267D03*
X0061Y00263D03*
X00629Y00338D03*
X00685Y00377D03*
X00751Y00393D03*
X00728Y00326D03*
X00744Y00204D03*
X00807Y00437D03*
X00862Y00401D03*
X00944Y00409D03*
X00901Y0046D03*
X00929Y00531D03*
X00925Y00606D03*
X00992Y00598D03*
X00846Y00566D03*
X00838Y005D03*
X0072Y00492D03*
X00649Y00468D03*
X00586Y0044D03*
X00523Y00437D03*
X00456Y0044D03*
X00381Y00437D03*
X00385Y00381D03*
X00311Y00448D03*
X03024Y0165D03*
X03091Y01658D03*
X03154Y01697D03*
X03166Y01776D03*
Y01855D03*
X03154Y01926D03*
X03079Y01961D03*
X02993D03*
G54D9503*
X0389Y00457D03*
X0394D03*
Y00507D03*
X0389D03*
Y00557D03*
X0394D03*
Y00607D03*
X0389D03*
Y00657D03*
X0394D03*
X01957Y02755D03*
Y02805D03*
X01907D03*
Y02755D03*
X01857D03*
Y02805D03*
X01807D03*
Y02755D03*
X01757D03*
Y02805D03*
G54D9504*
X03959Y0149D03*
Y01568D03*
G54D9505*
X01945Y00121D03*
X02045D03*
X02145D03*
X02245D03*
X02345D03*
X02445D03*
X02545D03*
X02645D03*
X02745D03*
X02845D03*
X02945D03*
X03045D03*
X03145D03*
X03245D03*
X02896Y02839D03*
X02796D03*
X02696D03*
X02596D03*
X02496D03*
X02996D03*
X03096D03*
X03196D03*
X03296D03*
X03396D03*
X03496D03*
X03596D03*
X03696D03*
X03796D03*
G54D9506*
X00381Y00243D03*
G54D9507*
X0028Y00141D03*
X00483D03*
Y00344D03*
X0028D03*
G54D9508*
X00086Y0007D03*
X03974D03*
X00075Y02847D03*
X03976Y0285D03*
G54D9509*
X03822Y02209D03*
Y02373D03*
G54D9510*
X03488Y0022D03*
X03645D03*
G54D9511*
X03444Y00705D03*
G54D9512*
X02657Y00705D03*
M02*