G04*
G04 #@! TF.GenerationSoftware,Altium Limited,Altium Designer,22.5.1 (42)*
G04*
G04 Layer_Color=2752767*
%FSLAX43Y43*%
%MOMM*%
G71*
G04*
G04 #@! TF.SameCoordinates,B4329D7B-D132-43AD-BD09-584EF951B7D5*
G04*
G04*
G04 #@! TF.FilePolarity,Positive*
G04*
G01*
G75*
%ADD205C,0.051*%
%ADD206C,0.068*%
%ADD207C,0.034*%
D205*
X77222Y45822D02*
X77323D01*
X77425Y45923D01*
X77527Y45822D01*
X77628D01*
Y45923D01*
X77527Y46025D01*
X77628Y46127D01*
Y46228D01*
X77527D01*
X77425Y46127D01*
X77323Y46228D01*
X77222D01*
Y46127D01*
X77323Y46025D01*
X77222Y45923D01*
Y45822D01*
X77323Y45923D02*
X77374D01*
X77425Y45974D01*
X77476Y45923D01*
X77527D01*
Y45974D01*
X77476Y46025D01*
X77527Y46076D01*
Y46127D01*
X77476D01*
X77425Y46076D01*
X77374Y46127D01*
X77323D01*
Y46076D01*
X77374Y46025D01*
X77323Y45974D01*
Y45923D01*
X82430Y3583D02*
Y3075D01*
X82684D01*
X82769Y3160D01*
Y3244D01*
X82684Y3329D01*
X82430D01*
X82684D01*
X82769Y3414D01*
Y3498D01*
X82684Y3583D01*
X82430D01*
X79890D02*
Y3075D01*
X80144D01*
X80229Y3160D01*
Y3244D01*
X80144Y3329D01*
X79890D01*
X80144D01*
X80229Y3414D01*
Y3498D01*
X80144Y3583D01*
X79890D01*
X77350D02*
Y3075D01*
X77604D01*
X77689Y3160D01*
Y3244D01*
X77604Y3329D01*
X77350D01*
X77604D01*
X77689Y3414D01*
Y3498D01*
X77604Y3583D01*
X77350D01*
X74810D02*
Y3075D01*
X75064D01*
X75149Y3160D01*
Y3244D01*
X75064Y3329D01*
X74810D01*
X75064D01*
X75149Y3414D01*
Y3498D01*
X75064Y3583D01*
X74810D01*
X72270D02*
Y3075D01*
X72524D01*
X72609Y3160D01*
Y3244D01*
X72524Y3329D01*
X72270D01*
X72524D01*
X72609Y3414D01*
Y3498D01*
X72524Y3583D01*
X72270D01*
X69730D02*
Y3075D01*
X69984D01*
X70069Y3160D01*
Y3244D01*
X69984Y3329D01*
X69730D01*
X69984D01*
X70069Y3414D01*
Y3498D01*
X69984Y3583D01*
X69730D01*
X67190D02*
Y3075D01*
X67444D01*
X67529Y3160D01*
Y3244D01*
X67444Y3329D01*
X67190D01*
X67444D01*
X67529Y3414D01*
Y3498D01*
X67444Y3583D01*
X67190D01*
X64650D02*
Y3075D01*
X64904D01*
X64989Y3160D01*
Y3244D01*
X64904Y3329D01*
X64650D01*
X64904D01*
X64989Y3414D01*
Y3498D01*
X64904Y3583D01*
X64650D01*
X62110D02*
Y3075D01*
X62364D01*
X62449Y3160D01*
Y3244D01*
X62364Y3329D01*
X62110D01*
X62364D01*
X62449Y3414D01*
Y3498D01*
X62364Y3583D01*
X62110D01*
X59570D02*
Y3075D01*
X59824D01*
X59909Y3160D01*
Y3244D01*
X59824Y3329D01*
X59570D01*
X59824D01*
X59909Y3414D01*
Y3498D01*
X59824Y3583D01*
X59570D01*
X57030D02*
Y3075D01*
X57284D01*
X57369Y3160D01*
Y3244D01*
X57284Y3329D01*
X57030D01*
X57284D01*
X57369Y3414D01*
Y3498D01*
X57284Y3583D01*
X57030D01*
X54490D02*
Y3075D01*
X54744D01*
X54829Y3160D01*
Y3244D01*
X54744Y3329D01*
X54490D01*
X54744D01*
X54829Y3414D01*
Y3498D01*
X54744Y3583D01*
X54490D01*
X51950D02*
Y3075D01*
X52204D01*
X52289Y3160D01*
Y3244D01*
X52204Y3329D01*
X51950D01*
X52204D01*
X52289Y3414D01*
Y3498D01*
X52204Y3583D01*
X51950D01*
X49410D02*
Y3075D01*
X49664D01*
X49749Y3160D01*
Y3244D01*
X49664Y3329D01*
X49410D01*
X49664D01*
X49749Y3414D01*
Y3498D01*
X49664Y3583D01*
X49410D01*
X96440Y72633D02*
Y72125D01*
X96694D01*
X96779Y72210D01*
Y72294D01*
X96694Y72379D01*
X96440D01*
X96694D01*
X96779Y72464D01*
Y72548D01*
X96694Y72633D01*
X96440D01*
X93900D02*
Y72125D01*
X94154D01*
X94239Y72210D01*
Y72294D01*
X94154Y72379D01*
X93900D01*
X94154D01*
X94239Y72464D01*
Y72548D01*
X94154Y72633D01*
X93900D01*
X91360D02*
Y72125D01*
X91614D01*
X91699Y72210D01*
Y72294D01*
X91614Y72379D01*
X91360D01*
X91614D01*
X91699Y72464D01*
Y72548D01*
X91614Y72633D01*
X91360D01*
X88820D02*
Y72125D01*
X89074D01*
X89159Y72210D01*
Y72294D01*
X89074Y72379D01*
X88820D01*
X89074D01*
X89159Y72464D01*
Y72548D01*
X89074Y72633D01*
X88820D01*
X86280D02*
Y72125D01*
X86534D01*
X86619Y72210D01*
Y72294D01*
X86534Y72379D01*
X86280D01*
X86534D01*
X86619Y72464D01*
Y72548D01*
X86534Y72633D01*
X86280D01*
X83740D02*
Y72125D01*
X83994D01*
X84079Y72210D01*
Y72294D01*
X83994Y72379D01*
X83740D01*
X83994D01*
X84079Y72464D01*
Y72548D01*
X83994Y72633D01*
X83740D01*
X81200D02*
Y72125D01*
X81454D01*
X81539Y72210D01*
Y72294D01*
X81454Y72379D01*
X81200D01*
X81454D01*
X81539Y72464D01*
Y72548D01*
X81454Y72633D01*
X81200D01*
X78660D02*
Y72125D01*
X78914D01*
X78999Y72210D01*
Y72294D01*
X78914Y72379D01*
X78660D01*
X78914D01*
X78999Y72464D01*
Y72548D01*
X78914Y72633D01*
X78660D01*
X76120D02*
Y72125D01*
X76374D01*
X76459Y72210D01*
Y72294D01*
X76374Y72379D01*
X76120D01*
X76374D01*
X76459Y72464D01*
Y72548D01*
X76374Y72633D01*
X76120D01*
X73580D02*
Y72125D01*
X73834D01*
X73919Y72210D01*
Y72294D01*
X73834Y72379D01*
X73580D01*
X73834D01*
X73919Y72464D01*
Y72548D01*
X73834Y72633D01*
X73580D01*
X71040D02*
Y72125D01*
X71294D01*
X71379Y72210D01*
Y72294D01*
X71294Y72379D01*
X71040D01*
X71294D01*
X71379Y72464D01*
Y72548D01*
X71294Y72633D01*
X71040D01*
X68500D02*
Y72125D01*
X68754D01*
X68839Y72210D01*
Y72294D01*
X68754Y72379D01*
X68500D01*
X68754D01*
X68839Y72464D01*
Y72548D01*
X68754Y72633D01*
X68500D01*
X65960D02*
Y72125D01*
X66214D01*
X66299Y72210D01*
Y72294D01*
X66214Y72379D01*
X65960D01*
X66214D01*
X66299Y72464D01*
Y72548D01*
X66214Y72633D01*
X65960D01*
X63420D02*
Y72125D01*
X63674D01*
X63759Y72210D01*
Y72294D01*
X63674Y72379D01*
X63420D01*
X63674D01*
X63759Y72464D01*
Y72548D01*
X63674Y72633D01*
X63420D01*
X87500Y17722D02*
X87297Y18128D01*
X87703D01*
X87500Y17722D01*
X67500D02*
X67602Y17823D01*
X67703D01*
X67602Y17925D01*
X67703Y18027D01*
X67602D01*
X67500Y18128D01*
X67398Y18027D01*
X67297D01*
X67398Y17925D01*
X67297Y17823D01*
X67398D01*
X67500Y17722D01*
Y17823D02*
X67551Y17874D01*
X67602D01*
X67551Y17925D01*
X67602Y17976D01*
X67551D01*
X67500Y18027D01*
X67449Y17976D01*
X67398D01*
X67449Y17925D01*
X67398Y17874D01*
X67449D01*
X67500Y17823D01*
X94700Y68800D02*
Y69139D01*
X94869Y69308D01*
X95039Y69139D01*
Y68800D01*
Y69054D01*
X94700D01*
Y67800D02*
Y68139D01*
X94869Y68308D01*
X95039Y68139D01*
Y67800D01*
Y68054D01*
X94700D01*
X12072Y3600D02*
X12275Y3803D01*
X12478Y3600D01*
X12275Y3397D01*
X12072Y3600D01*
Y8750D02*
X12275Y8953D01*
X12478Y8750D01*
X12275Y8547D01*
X12072Y8750D01*
X6922D02*
X7125Y8953D01*
X7328Y8750D01*
X7125Y8547D01*
X6922Y8750D01*
Y3600D02*
X7125Y3803D01*
X7328Y3600D01*
X7125Y3397D01*
X6922Y3600D01*
X9497Y5972D02*
X9598Y6175D01*
X9497Y6378D01*
X9700Y6277D01*
X9903Y6378D01*
X9802Y6175D01*
X9903Y5972D01*
X9700Y6073D01*
X9497Y5972D01*
X88397Y5397D02*
X88498D01*
X88600Y5498D01*
X88702Y5397D01*
X88803D01*
Y5498D01*
X88702Y5600D01*
X88803Y5702D01*
Y5803D01*
X88702D01*
X88600Y5702D01*
X88498Y5803D01*
X88397D01*
Y5702D01*
X88498Y5600D01*
X88397Y5498D01*
Y5397D01*
X92397D02*
X92498D01*
X92600Y5498D01*
X92702Y5397D01*
X92803D01*
Y5498D01*
X92702Y5600D01*
X92803Y5702D01*
Y5803D01*
X92702D01*
X92600Y5702D01*
X92498Y5803D01*
X92397D01*
Y5702D01*
X92498Y5600D01*
X92397Y5498D01*
Y5397D01*
X100550Y33840D02*
Y34179D01*
X100719Y34348D01*
X100889Y34179D01*
Y33840D01*
Y34094D01*
X100550D01*
Y34610D02*
Y34949D01*
X100719Y35118D01*
X100889Y34949D01*
Y34610D01*
Y34864D01*
X100550D01*
Y35420D02*
Y35759D01*
X100719Y35928D01*
X100889Y35759D01*
Y35420D01*
Y35674D01*
X100550D01*
X101260Y35420D02*
Y35759D01*
X101429Y35928D01*
X101599Y35759D01*
Y35420D01*
Y35674D01*
X101260D01*
Y34610D02*
Y34949D01*
X101429Y35118D01*
X101599Y34949D01*
Y34610D01*
Y34864D01*
X101260D01*
Y33840D02*
Y34179D01*
X101429Y34348D01*
X101599Y34179D01*
Y33840D01*
Y34094D01*
X101260D01*
X96034Y66561D02*
Y66899D01*
X96203Y67068D01*
X96373Y66899D01*
Y66561D01*
Y66815D01*
X96034D01*
X95323Y66561D02*
Y66899D01*
X95492Y67068D01*
X95662Y66899D01*
Y66561D01*
Y66815D01*
X95323D01*
X94586Y66561D02*
Y66899D01*
X94756Y67068D01*
X94925Y66899D01*
Y66561D01*
Y66815D01*
X94586D01*
X93824Y66561D02*
Y66899D01*
X93994Y67068D01*
X94163Y66899D01*
Y66561D01*
Y66815D01*
X93824D01*
X92986Y66561D02*
Y66899D01*
X93155Y67068D01*
X93325Y66899D01*
Y66561D01*
Y66815D01*
X92986D01*
X1722Y72122D02*
Y72528D01*
X2128D01*
Y72122D01*
X1722D01*
X100575Y37647D02*
X100677Y37748D01*
X100778D01*
X100677Y37850D01*
X100778Y37952D01*
X100677D01*
X100575Y38053D01*
X100473Y37952D01*
X100372D01*
X100473Y37850D01*
X100372Y37748D01*
X100473D01*
X100575Y37647D01*
Y39647D02*
X100677Y39748D01*
X100778D01*
X100677Y39850D01*
X100778Y39952D01*
X100677D01*
X100575Y40053D01*
X100473Y39952D01*
X100372D01*
X100473Y39850D01*
X100372Y39748D01*
X100473D01*
X100575Y39647D01*
X1997Y1597D02*
Y2003D01*
X2403D01*
Y1597D01*
X1997D01*
X100747D02*
Y2003D01*
X101153D01*
Y1597D01*
X100747D01*
X100797Y72197D02*
Y72603D01*
X101203D01*
Y72197D01*
X100797D01*
X99930Y32467D02*
X99727Y32873D01*
X100133D01*
X99930Y32467D01*
Y32568D02*
X99828Y32772D01*
X100032D01*
X99930Y32568D01*
X101200Y32467D02*
X100997Y32873D01*
X101403D01*
X101200Y32467D01*
Y32568D02*
X101098Y32772D01*
X101302D01*
X101200Y32568D01*
X99930Y31197D02*
X99727Y31603D01*
X100133D01*
X99930Y31197D01*
Y31298D02*
X99828Y31502D01*
X100032D01*
X99930Y31298D01*
X101200Y31197D02*
X100997Y31603D01*
X101403D01*
X101200Y31197D01*
Y31298D02*
X101098Y31502D01*
X101302D01*
X101200Y31298D01*
X99930Y29927D02*
X99727Y30333D01*
X100133D01*
X99930Y29927D01*
Y30028D02*
X99828Y30232D01*
X100032D01*
X99930Y30028D01*
X101200Y29927D02*
X100997Y30333D01*
X101403D01*
X101200Y29927D01*
Y30028D02*
X101098Y30232D01*
X101302D01*
X101200Y30028D01*
X99930Y28657D02*
X99727Y29063D01*
X100133D01*
X99930Y28657D01*
Y28758D02*
X99828Y28962D01*
X100032D01*
X99930Y28758D01*
X101200Y28657D02*
X100997Y29063D01*
X101403D01*
X101200Y28657D01*
Y28758D02*
X101098Y28962D01*
X101302D01*
X101200Y28758D01*
X4197Y582D02*
X4298Y785D01*
X4197Y988D01*
X4400Y887D01*
X4603Y988D01*
X4502Y785D01*
X4603Y582D01*
X4400Y683D01*
X4197Y582D01*
X4298Y683D02*
X4349Y785D01*
X4298Y887D01*
X4400Y836D01*
X4502Y887D01*
X4451Y785D01*
X4502Y683D01*
X4400Y734D01*
X4298Y683D01*
X75822Y49622D02*
X75923Y49825D01*
X75822Y50028D01*
X76025Y49927D01*
X76228Y50028D01*
X76127Y49825D01*
X76228Y49622D01*
X76025Y49723D01*
X75822Y49622D01*
X75923Y49723D02*
X75974Y49825D01*
X75923Y49927D01*
X76025Y49876D01*
X76127Y49927D01*
X76076Y49825D01*
X76127Y49723D01*
X76025Y49774D01*
X75923Y49723D01*
X80072Y21272D02*
Y21678D01*
X80478D01*
Y21272D01*
X80072D01*
X80173Y21373D02*
Y21577D01*
X80377D01*
Y21373D01*
X80173D01*
X86047Y23197D02*
Y23603D01*
X86453D01*
Y23197D01*
X86047D01*
X86148Y23298D02*
Y23502D01*
X86352D01*
Y23298D01*
X86148D01*
X76082Y22412D02*
Y22818D01*
X76488D01*
Y22412D01*
X76082D01*
X76184Y22513D02*
Y22716D01*
X76387D01*
Y22513D01*
X76184D01*
X73747Y23597D02*
Y24003D01*
X74153D01*
Y23597D01*
X73747D01*
X73848Y23698D02*
Y23902D01*
X74052D01*
Y23698D01*
X73848D01*
X76974Y23699D02*
Y24106D01*
X77381D01*
Y23699D01*
X76974D01*
X77076Y23801D02*
Y24004D01*
X77279D01*
Y23801D01*
X77076D01*
X78259Y22962D02*
Y23368D01*
X78665D01*
Y22962D01*
X78259D01*
X78360Y23063D02*
Y23266D01*
X78564D01*
Y23063D01*
X78360D01*
X83490Y23304D02*
Y23711D01*
X83896D01*
Y23304D01*
X83490D01*
X83591Y23406D02*
Y23609D01*
X83794D01*
Y23406D01*
X83591D01*
X85859Y24112D02*
Y24518D01*
X86265D01*
Y24112D01*
X85859D01*
X85961Y24213D02*
Y24417D01*
X86164D01*
Y24213D01*
X85961D01*
X85392Y22043D02*
Y22450D01*
X85798D01*
Y22043D01*
X85392D01*
X85493Y22145D02*
Y22348D01*
X85696D01*
Y22145D01*
X85493D01*
X71836Y18822D02*
Y19228D01*
X72242D01*
Y18822D01*
X71836D01*
X71937Y18923D02*
Y19127D01*
X72141D01*
Y18923D01*
X71937D01*
X70915Y16600D02*
Y17007D01*
X71322D01*
Y16600D01*
X70915D01*
X71017Y16702D02*
Y16905D01*
X71220D01*
Y16702D01*
X71017D01*
X83997Y25997D02*
Y26403D01*
X84403D01*
Y25997D01*
X83997D01*
X84098Y26098D02*
Y26302D01*
X84302D01*
Y26098D01*
X84098D01*
X89395Y9458D02*
Y9864D01*
X89801D01*
Y9458D01*
X89395D01*
X89497Y9559D02*
Y9763D01*
X89700D01*
Y9559D01*
X89497D01*
X91208Y10008D02*
Y10414D01*
X91614D01*
Y10008D01*
X91208D01*
X91309Y10109D02*
Y10313D01*
X91513D01*
Y10109D01*
X91309D01*
X94572Y5297D02*
Y5703D01*
X94978D01*
Y5297D01*
X94572D01*
X94673Y5398D02*
Y5602D01*
X94877D01*
Y5398D01*
X94673D01*
X71228Y15313D02*
Y15719D01*
X71634D01*
Y15313D01*
X71228D01*
X71329Y15415D02*
Y15618D01*
X71533D01*
Y15415D01*
X71329D01*
X74856Y11091D02*
Y11498D01*
X75262D01*
Y11091D01*
X74856D01*
X74958Y11193D02*
Y11396D01*
X75161D01*
Y11193D01*
X74958D01*
X82953Y8903D02*
Y9309D01*
X83360D01*
Y8903D01*
X82953D01*
X83055Y9004D02*
Y9207D01*
X83258D01*
Y9004D01*
X83055D01*
X58772Y64197D02*
Y64603D01*
X59178D01*
Y64197D01*
X58772D01*
X58873Y64298D02*
Y64502D01*
X59077D01*
Y64298D01*
X58873D01*
X62522Y42247D02*
Y42653D01*
X62928D01*
Y42247D01*
X62522D01*
X62623Y42348D02*
Y42552D01*
X62827D01*
Y42348D01*
X62623D01*
X61622Y32872D02*
Y33278D01*
X62028D01*
Y32872D01*
X61622D01*
X61723Y32973D02*
Y33177D01*
X61927D01*
Y32973D01*
X61723D01*
X68658Y24018D02*
Y24424D01*
X69064D01*
Y24018D01*
X68658D01*
X68759Y24119D02*
Y24322D01*
X68962D01*
Y24119D01*
X68759D01*
X69390Y22466D02*
Y22873D01*
X69796D01*
Y22466D01*
X69390D01*
X69491Y22568D02*
Y22771D01*
X69694D01*
Y22568D01*
X69491D01*
X56372Y32948D02*
Y33355D01*
X56778D01*
Y32948D01*
X56372D01*
X56474Y33050D02*
Y33253D01*
X56677D01*
Y33050D01*
X56474D01*
X69222Y34547D02*
Y34953D01*
X69628D01*
Y34547D01*
X69222D01*
X69323Y34648D02*
Y34852D01*
X69527D01*
Y34648D01*
X69323D01*
X69172Y31341D02*
Y31747D01*
X69578D01*
Y31341D01*
X69172D01*
X69273Y31442D02*
Y31645D01*
X69477D01*
Y31442D01*
X69273D01*
X68722Y39022D02*
Y39428D01*
X69128D01*
Y39022D01*
X68722D01*
X68823Y39123D02*
Y39327D01*
X69027D01*
Y39123D01*
X68823D01*
X64297Y36472D02*
Y36878D01*
X64703D01*
Y36472D01*
X64297D01*
X64398Y36573D02*
Y36777D01*
X64602D01*
Y36573D01*
X64398D01*
X50147Y55522D02*
Y55928D01*
X50553D01*
Y55522D01*
X50147D01*
X50248Y55623D02*
Y55827D01*
X50452D01*
Y55623D01*
X50248D01*
X68897Y37922D02*
Y38328D01*
X69303D01*
Y37922D01*
X68897D01*
X68998Y38023D02*
Y38227D01*
X69202D01*
Y38023D01*
X68998D01*
X74222Y30672D02*
Y31078D01*
X74628D01*
Y30672D01*
X74222D01*
X74323Y30773D02*
Y30977D01*
X74527D01*
Y30773D01*
X74323D01*
X75997Y36047D02*
Y36453D01*
X76403D01*
Y36047D01*
X75997D01*
X76098Y36148D02*
Y36352D01*
X76302D01*
Y36148D01*
X76098D01*
X76097Y32197D02*
Y32603D01*
X76503D01*
Y32197D01*
X76097D01*
X76198Y32298D02*
Y32502D01*
X76402D01*
Y32298D01*
X76198D01*
X72472Y33322D02*
Y33728D01*
X72878D01*
Y33322D01*
X72472D01*
X72573Y33423D02*
Y33627D01*
X72777D01*
Y33423D01*
X72573D01*
X66410Y47565D02*
Y47971D01*
X66817D01*
Y47565D01*
X66410D01*
X66512Y47666D02*
Y47869D01*
X66715D01*
Y47666D01*
X66512D01*
X75322Y69847D02*
Y70253D01*
X75728D01*
Y69847D01*
X75322D01*
X75423Y69948D02*
Y70152D01*
X75627D01*
Y69948D01*
X75423D01*
X72472Y69122D02*
Y69528D01*
X72878D01*
Y69122D01*
X72472D01*
X72573Y69223D02*
Y69427D01*
X72777D01*
Y69223D01*
X72573D01*
X67997Y67897D02*
Y68303D01*
X68403D01*
Y67897D01*
X67997D01*
X68098Y67998D02*
Y68202D01*
X68302D01*
Y67998D01*
X68098D01*
X67897Y66397D02*
Y66803D01*
X68303D01*
Y66397D01*
X67897D01*
X67998Y66498D02*
Y66702D01*
X68202D01*
Y66498D01*
X67998D01*
X66622Y65497D02*
Y65903D01*
X67028D01*
Y65497D01*
X66622D01*
X66723Y65598D02*
Y65802D01*
X66927D01*
Y65598D01*
X66723D01*
X66561Y50756D02*
Y51163D01*
X66967D01*
Y50756D01*
X66561D01*
X66662Y50858D02*
Y51061D01*
X66866D01*
Y50858D01*
X66662D01*
X65947Y65097D02*
Y65503D01*
X66353D01*
Y65097D01*
X65947D01*
X66048Y65198D02*
Y65402D01*
X66252D01*
Y65198D01*
X66048D01*
X80797Y67772D02*
Y68178D01*
X81203D01*
Y67772D01*
X80797D01*
X80898Y67873D02*
Y68077D01*
X81102D01*
Y67873D01*
X80898D01*
X59897Y54997D02*
Y55403D01*
X60303D01*
Y54997D01*
X59897D01*
X59998Y55098D02*
Y55302D01*
X60202D01*
Y55098D01*
X59998D01*
X52272Y34972D02*
Y35378D01*
X52678D01*
Y34972D01*
X52272D01*
X52373Y35073D02*
Y35277D01*
X52577D01*
Y35073D01*
X52373D01*
X51997Y31008D02*
Y31414D01*
X52403D01*
Y31008D01*
X51997D01*
X52098Y31110D02*
Y31313D01*
X52302D01*
Y31110D01*
X52098D01*
X51497Y31647D02*
Y32053D01*
X51903D01*
Y31647D01*
X51497D01*
X51598Y31748D02*
Y31952D01*
X51802D01*
Y31748D01*
X51598D01*
X52497Y44597D02*
Y45003D01*
X52903D01*
Y44597D01*
X52497D01*
X52598Y44698D02*
Y44902D01*
X52802D01*
Y44698D01*
X52598D01*
X47747Y16622D02*
Y17028D01*
X48153D01*
Y16622D01*
X47747D01*
X47848Y16723D02*
Y16927D01*
X48052D01*
Y16723D01*
X47848D01*
X48322Y18072D02*
Y18478D01*
X48728D01*
Y18072D01*
X48322D01*
X48423Y18173D02*
Y18377D01*
X48627D01*
Y18173D01*
X48423D01*
X49597Y24397D02*
Y24803D01*
X50003D01*
Y24397D01*
X49597D01*
X49698Y24498D02*
Y24702D01*
X49902D01*
Y24498D01*
X49698D01*
X46522Y22701D02*
Y23108D01*
X46928D01*
Y22701D01*
X46522D01*
X46623Y22803D02*
Y23006D01*
X46827D01*
Y22803D01*
X46623D01*
X46422Y23872D02*
Y24278D01*
X46828D01*
Y23872D01*
X46422D01*
X46523Y23973D02*
Y24177D01*
X46727D01*
Y23973D01*
X46523D01*
X46947Y24647D02*
Y25053D01*
X47353D01*
Y24647D01*
X46947D01*
X47048Y24748D02*
Y24952D01*
X47252D01*
Y24748D01*
X47048D01*
X47997Y26622D02*
Y27028D01*
X48403D01*
Y26622D01*
X47997D01*
X48098Y26723D02*
Y26927D01*
X48302D01*
Y26723D01*
X48098D01*
X53572Y29472D02*
Y29878D01*
X53978D01*
Y29472D01*
X53572D01*
X53673Y29573D02*
Y29777D01*
X53877D01*
Y29573D01*
X53673D01*
X53545Y34220D02*
Y34626D01*
X53951D01*
Y34220D01*
X53545D01*
X53646Y34321D02*
Y34525D01*
X53850D01*
Y34321D01*
X53646D01*
X52948Y33498D02*
Y33905D01*
X53355D01*
Y33498D01*
X52948D01*
X53050Y33600D02*
Y33803D01*
X53253D01*
Y33600D01*
X53050D01*
X46297Y36472D02*
Y36878D01*
X46703D01*
Y36472D01*
X46297D01*
X46398Y36573D02*
Y36777D01*
X46602D01*
Y36573D01*
X46398D01*
X50822Y32322D02*
Y32728D01*
X51228D01*
Y32322D01*
X50822D01*
X50923Y32423D02*
Y32627D01*
X51127D01*
Y32423D01*
X50923D01*
X47023Y34393D02*
Y34799D01*
X47430D01*
Y34393D01*
X47023D01*
X47125Y34494D02*
Y34697D01*
X47328D01*
Y34494D01*
X47125D01*
X45122Y35272D02*
Y35678D01*
X45528D01*
Y35272D01*
X45122D01*
X45223Y35373D02*
Y35577D01*
X45427D01*
Y35373D01*
X45223D01*
X48422Y17022D02*
Y17428D01*
X48828D01*
Y17022D01*
X48422D01*
X48523Y17123D02*
Y17327D01*
X48727D01*
Y17123D01*
X48523D01*
X66520Y31997D02*
Y32403D01*
X66926D01*
Y31997D01*
X66520D01*
X66621Y32098D02*
Y32302D01*
X66825D01*
Y32098D01*
X66621D01*
X62735Y33659D02*
Y34065D01*
X63141D01*
Y33659D01*
X62735D01*
X62837Y33760D02*
Y33963D01*
X63040D01*
Y33760D01*
X62837D01*
X12197Y37947D02*
Y38353D01*
X12603D01*
Y37947D01*
X12197D01*
X12298Y38048D02*
Y38252D01*
X12502D01*
Y38048D01*
X12298D01*
X53397Y10697D02*
Y11103D01*
X53803D01*
Y10697D01*
X53397D01*
X53498Y10798D02*
Y11002D01*
X53702D01*
Y10798D01*
X53498D01*
X15247Y39847D02*
Y40253D01*
X15653D01*
Y39847D01*
X15247D01*
X15348Y39948D02*
Y40152D01*
X15552D01*
Y39948D01*
X15348D01*
X40697Y49597D02*
Y50003D01*
X41103D01*
Y49597D01*
X40697D01*
X40798Y49698D02*
Y49902D01*
X41002D01*
Y49698D01*
X40798D01*
X3997Y61597D02*
Y62003D01*
X4403D01*
Y61597D01*
X3997D01*
X4098Y61698D02*
Y61902D01*
X4302D01*
Y61698D01*
X4098D01*
X51997Y51697D02*
Y52103D01*
X52403D01*
Y51697D01*
X51997D01*
X52098Y51798D02*
Y52002D01*
X52302D01*
Y51798D01*
X52098D01*
X74266Y26886D02*
Y27292D01*
X74673D01*
Y26886D01*
X74266D01*
X74368Y26987D02*
Y27191D01*
X74571D01*
Y26987D01*
X74368D01*
X2426Y34994D02*
Y35401D01*
X2832D01*
Y34994D01*
X2426D01*
X2527Y35096D02*
Y35299D01*
X2731D01*
Y35096D01*
X2527D01*
X87497Y32097D02*
Y32503D01*
X87903D01*
Y32097D01*
X87497D01*
X87598Y32198D02*
Y32402D01*
X87802D01*
Y32198D01*
X87598D01*
X65497Y43847D02*
Y44253D01*
X65903D01*
Y43847D01*
X65497D01*
X65598Y43948D02*
Y44152D01*
X65802D01*
Y43948D01*
X65598D01*
X17597Y19397D02*
Y19803D01*
X18003D01*
Y19397D01*
X17597D01*
X17698Y19498D02*
Y19702D01*
X17902D01*
Y19498D01*
X17698D01*
X18797Y19397D02*
Y19803D01*
X19203D01*
Y19397D01*
X18797D01*
X18898Y19498D02*
Y19702D01*
X19102D01*
Y19498D01*
X18898D01*
X21297Y21897D02*
Y22303D01*
X21703D01*
Y21897D01*
X21297D01*
X21398Y21998D02*
Y22202D01*
X21602D01*
Y21998D01*
X21398D01*
X21397Y20797D02*
Y21203D01*
X21803D01*
Y20797D01*
X21397D01*
X21498Y20898D02*
Y21102D01*
X21702D01*
Y20898D01*
X21498D01*
X20897Y19997D02*
Y20403D01*
X21303D01*
Y19997D01*
X20897D01*
X20998Y20098D02*
Y20302D01*
X21202D01*
Y20098D01*
X20998D01*
X18497Y22697D02*
Y23103D01*
X18903D01*
Y22697D01*
X18497D01*
X18598Y22798D02*
Y23002D01*
X18802D01*
Y22798D01*
X18598D01*
X18597Y20997D02*
Y21403D01*
X19003D01*
Y20997D01*
X18597D01*
X18698Y21098D02*
Y21302D01*
X18902D01*
Y21098D01*
X18698D01*
X11897Y19697D02*
Y20103D01*
X12303D01*
Y19697D01*
X11897D01*
X11998Y19798D02*
Y20002D01*
X12202D01*
Y19798D01*
X11998D01*
X13697Y19797D02*
Y20203D01*
X14103D01*
Y19797D01*
X13697D01*
X13798Y19898D02*
Y20102D01*
X14002D01*
Y19898D01*
X13798D01*
X11797Y18897D02*
Y19303D01*
X12203D01*
Y18897D01*
X11797D01*
X11898Y18998D02*
Y19202D01*
X12102D01*
Y18998D01*
X11898D01*
X12897Y18997D02*
Y19403D01*
X13303D01*
Y18997D01*
X12897D01*
X12998Y19098D02*
Y19302D01*
X13202D01*
Y19098D01*
X12998D01*
X15297Y19897D02*
Y20303D01*
X15703D01*
Y19897D01*
X15297D01*
X15398Y19998D02*
Y20202D01*
X15602D01*
Y19998D01*
X15398D01*
X13797Y24297D02*
Y24703D01*
X14203D01*
Y24297D01*
X13797D01*
X13898Y24398D02*
Y24602D01*
X14102D01*
Y24398D01*
X13898D01*
X15297Y24197D02*
Y24603D01*
X15703D01*
Y24197D01*
X15297D01*
X15398Y24298D02*
Y24502D01*
X15602D01*
Y24298D01*
X15398D01*
X38846Y15498D02*
Y15905D01*
X39252D01*
Y15498D01*
X38846D01*
X38947Y15600D02*
Y15803D01*
X39150D01*
Y15600D01*
X38947D01*
X55697Y22472D02*
Y22878D01*
X56103D01*
Y22472D01*
X55697D01*
X55798Y22573D02*
Y22777D01*
X56002D01*
Y22573D01*
X55798D01*
X54622Y47172D02*
Y47578D01*
X55028D01*
Y47172D01*
X54622D01*
X54723Y47273D02*
Y47477D01*
X54927D01*
Y47273D01*
X54723D01*
X57500Y47280D02*
Y47687D01*
X57907D01*
Y47280D01*
X57500D01*
X57602Y47382D02*
Y47585D01*
X57805D01*
Y47382D01*
X57602D01*
X89672Y25672D02*
Y26078D01*
X90078D01*
Y25672D01*
X89672D01*
X89773Y25773D02*
Y25977D01*
X89977D01*
Y25773D01*
X89773D01*
X2464Y30612D02*
Y31018D01*
X2870D01*
Y30612D01*
X2464D01*
X2566Y30713D02*
Y30916D01*
X2769D01*
Y30713D01*
X2566D01*
X25012Y14997D02*
X25113Y15200D01*
X25012Y15403D01*
X25215Y15302D01*
X25418Y15403D01*
X25317Y15200D01*
X25418Y14997D01*
X25215Y15098D01*
X25012Y14997D01*
X25113Y15098D02*
X25164Y15200D01*
X25113Y15302D01*
X25215Y15251D01*
X25317Y15302D01*
X25266Y15200D01*
X25317Y15098D01*
X25215Y15149D01*
X25113Y15098D01*
X87691Y24786D02*
Y25193D01*
X88097D01*
Y24786D01*
X87691D01*
X87793Y24888D02*
Y25091D01*
X87996D01*
Y24888D01*
X87793D01*
X80797Y22147D02*
Y22553D01*
X81203D01*
Y22147D01*
X80797D01*
X80898Y22248D02*
Y22452D01*
X81102D01*
Y22248D01*
X80898D01*
X73222Y21472D02*
Y21878D01*
X73628D01*
Y21472D01*
X73222D01*
X73323Y21573D02*
Y21777D01*
X73527D01*
Y21573D01*
X73323D01*
X84503Y22043D02*
Y22450D01*
X84909D01*
Y22043D01*
X84503D01*
X84604Y22145D02*
Y22348D01*
X84807D01*
Y22145D01*
X84604D01*
X82922Y14172D02*
Y14578D01*
X83328D01*
Y14172D01*
X82922D01*
X83023Y14273D02*
Y14477D01*
X83227D01*
Y14273D01*
X83023D01*
X89574Y13322D02*
Y13729D01*
X89981D01*
Y13322D01*
X89574D01*
X89676Y13424D02*
Y13627D01*
X89879D01*
Y13424D01*
X89676D01*
X87093Y21907D02*
Y22314D01*
X87500D01*
Y21907D01*
X87093D01*
X87195Y22009D02*
Y22212D01*
X87398D01*
Y22009D01*
X87195D01*
X80797Y18547D02*
Y18953D01*
X81204D01*
Y18547D01*
X80797D01*
X80899Y18648D02*
Y18852D01*
X81102D01*
Y18648D01*
X80899D01*
X70647Y18272D02*
Y18678D01*
X71053D01*
Y18272D01*
X70647D01*
X70748Y18373D02*
Y18577D01*
X70952D01*
Y18373D01*
X70748D01*
X68399Y22415D02*
Y22822D01*
X68805D01*
Y22415D01*
X68399D01*
X68501Y22517D02*
Y22720D01*
X68704D01*
Y22517D01*
X68501D01*
X86797Y24697D02*
Y25103D01*
X87203D01*
Y24697D01*
X86797D01*
X86898Y24798D02*
Y25002D01*
X87102D01*
Y24798D01*
X86898D01*
X84297Y26997D02*
Y27403D01*
X84703D01*
Y26997D01*
X84297D01*
X84398Y27098D02*
Y27302D01*
X84602D01*
Y27098D01*
X84398D01*
X88497Y23197D02*
Y23603D01*
X88903D01*
Y23197D01*
X88497D01*
X88598Y23298D02*
Y23502D01*
X88802D01*
Y23298D01*
X88598D01*
X75232Y28511D02*
Y28918D01*
X75638D01*
Y28511D01*
X75232D01*
X75333Y28613D02*
Y28816D01*
X75536D01*
Y28613D01*
X75333D01*
X75497Y27597D02*
Y28003D01*
X75903D01*
Y27597D01*
X75497D01*
X75598Y27698D02*
Y27902D01*
X75802D01*
Y27698D01*
X75598D01*
X66138Y21247D02*
Y21653D01*
X66545D01*
Y21247D01*
X66138D01*
X66240Y21349D02*
Y21552D01*
X66443D01*
Y21349D01*
X66240D01*
X68108Y25201D02*
Y25608D01*
X68514D01*
Y25201D01*
X68108D01*
X68209Y25303D02*
Y25506D01*
X68413D01*
Y25303D01*
X68209D01*
X63897Y21897D02*
Y22303D01*
X64303D01*
Y21897D01*
X63897D01*
X63998Y21998D02*
Y22202D01*
X64202D01*
Y21998D01*
X63998D01*
X50797Y24297D02*
Y24703D01*
X51203D01*
Y24297D01*
X50797D01*
X50898Y24398D02*
Y24602D01*
X51102D01*
Y24398D01*
X50898D01*
X74292Y17996D02*
Y18402D01*
X74698D01*
Y17996D01*
X74292D01*
X74393Y18097D02*
Y18301D01*
X74597D01*
Y18097D01*
X74393D01*
X78334Y32197D02*
Y32603D01*
X78741D01*
Y32197D01*
X78334D01*
X78436Y32298D02*
Y32502D01*
X78639D01*
Y32298D01*
X78436D01*
X75384Y9030D02*
Y9436D01*
X75790D01*
Y9030D01*
X75384D01*
X75486Y9131D02*
Y9334D01*
X75689D01*
Y9131D01*
X75486D01*
X70230Y10130D02*
Y10536D01*
X70636D01*
Y10130D01*
X70230D01*
X70331Y10231D02*
Y10434D01*
X70534D01*
Y10231D01*
X70331D01*
X79397Y17297D02*
Y17703D01*
X79803D01*
Y17297D01*
X79397D01*
X79498Y17398D02*
Y17602D01*
X79702D01*
Y17398D01*
X79498D01*
X20898Y998D02*
Y897D01*
X21102D01*
Y998D01*
X21203D01*
Y1202D01*
X21102D01*
Y1303D01*
X20898D01*
Y1202D01*
X20797D01*
Y998D01*
X20898D01*
X20949Y1049D02*
Y998D01*
X21051D01*
Y1049D01*
X21102D01*
Y1151D01*
X21051D01*
Y1202D01*
X20949D01*
Y1151D01*
X20898D01*
Y1049D01*
X20949D01*
X72539Y11290D02*
Y11697D01*
X72946D01*
Y11290D01*
X72539D01*
X72641Y11392D02*
Y11595D01*
X72844D01*
Y11392D01*
X72641D01*
X86916Y20028D02*
Y20434D01*
X87322D01*
Y20028D01*
X86916D01*
X87017Y20129D02*
Y20333D01*
X87220D01*
Y20129D01*
X87017D01*
X68805Y17818D02*
Y18224D01*
X69212D01*
Y17818D01*
X68805D01*
X68907Y17920D02*
Y18123D01*
X69110D01*
Y17920D01*
X68907D01*
X22497Y2997D02*
X22598Y3200D01*
X22497Y3403D01*
X22700Y3302D01*
X22903Y3403D01*
X22802Y3200D01*
X22903Y2997D01*
X22700Y3098D01*
X22497Y2997D01*
X22598Y3098D02*
X22649Y3200D01*
X22598Y3302D01*
X22700Y3251D01*
X22802Y3302D01*
X22751Y3200D01*
X22802Y3098D01*
X22700Y3149D01*
X22598Y3098D01*
X96475Y43597D02*
Y44003D01*
X96881D01*
Y43597D01*
X96475D01*
X96576Y43698D02*
Y43902D01*
X96780D01*
Y43698D01*
X96576D01*
X28287Y15037D02*
Y15443D01*
X28693D01*
Y15037D01*
X28287D01*
X28388Y15138D02*
Y15342D01*
X28592D01*
Y15138D01*
X28388D01*
X28017Y27497D02*
Y27903D01*
X28423D01*
Y27497D01*
X28017D01*
X28118Y27598D02*
Y27802D01*
X28322D01*
Y27598D01*
X28118D01*
X30877Y28137D02*
Y28543D01*
X31283D01*
Y28137D01*
X30877D01*
X30978Y28238D02*
Y28442D01*
X31182D01*
Y28238D01*
X30978D01*
X58797Y14197D02*
Y14603D01*
X59203D01*
Y14197D01*
X58797D01*
X58898Y14298D02*
Y14502D01*
X59102D01*
Y14298D01*
X58898D01*
X60330Y14030D02*
Y14436D01*
X60736D01*
Y14030D01*
X60330D01*
X60432Y14132D02*
Y14335D01*
X60635D01*
Y14132D01*
X60432D01*
X61469Y13669D02*
Y14075D01*
X61875D01*
Y13669D01*
X61469D01*
X61571Y13771D02*
Y13974D01*
X61774D01*
Y13771D01*
X61571D01*
X89451Y63989D02*
Y64395D01*
X89857D01*
Y63989D01*
X89451D01*
X89552Y64090D02*
Y64294D01*
X89756D01*
Y64090D01*
X89552D01*
X66286Y31131D02*
Y31538D01*
X66692D01*
Y31131D01*
X66286D01*
X66387Y31233D02*
Y31436D01*
X66590D01*
Y31233D01*
X66387D01*
X42797Y21247D02*
Y21653D01*
X43203D01*
Y21247D01*
X42797D01*
X42898Y21348D02*
Y21552D01*
X43102D01*
Y21348D01*
X42898D01*
X76622Y41722D02*
X76723Y41925D01*
X76622Y42128D01*
X76825Y42027D01*
X77028Y42128D01*
X76927Y41925D01*
X77028Y41722D01*
X76825Y41823D01*
X76622Y41722D01*
X76723Y41823D02*
X76774Y41925D01*
X76723Y42027D01*
X76825Y41976D01*
X76927Y42027D01*
X76876Y41925D01*
X76927Y41823D01*
X76825Y41874D01*
X76723Y41823D01*
X79922Y42922D02*
X80023Y43125D01*
X79922Y43328D01*
X80125Y43227D01*
X80328Y43328D01*
X80227Y43125D01*
X80328Y42922D01*
X80125Y43023D01*
X79922Y42922D01*
X80023Y43023D02*
X80074Y43125D01*
X80023Y43227D01*
X80125Y43176D01*
X80227Y43227D01*
X80176Y43125D01*
X80227Y43023D01*
X80125Y43074D01*
X80023Y43023D01*
X78322Y41922D02*
X78423Y42125D01*
X78322Y42328D01*
X78525Y42227D01*
X78728Y42328D01*
X78627Y42125D01*
X78728Y41922D01*
X78525Y42023D01*
X78322Y41922D01*
X78423Y42023D02*
X78474Y42125D01*
X78423Y42227D01*
X78525Y42176D01*
X78627Y42227D01*
X78576Y42125D01*
X78627Y42023D01*
X78525Y42074D01*
X78423Y42023D01*
X78022Y49622D02*
X78123Y49825D01*
X78022Y50028D01*
X78225Y49927D01*
X78428Y50028D01*
X78327Y49825D01*
X78428Y49622D01*
X78225Y49723D01*
X78022Y49622D01*
X78123Y49723D02*
X78174Y49825D01*
X78123Y49927D01*
X78225Y49876D01*
X78327Y49927D01*
X78276Y49825D01*
X78327Y49723D01*
X78225Y49774D01*
X78123Y49723D01*
X79922Y48722D02*
X80023Y48925D01*
X79922Y49128D01*
X80125Y49027D01*
X80328Y49128D01*
X80227Y48925D01*
X80328Y48722D01*
X80125Y48823D01*
X79922Y48722D01*
X80023Y48823D02*
X80074Y48925D01*
X80023Y49027D01*
X80125Y48976D01*
X80227Y49027D01*
X80176Y48925D01*
X80227Y48823D01*
X80125Y48874D01*
X80023Y48823D01*
X80222Y46922D02*
X80323Y47125D01*
X80222Y47328D01*
X80425Y47227D01*
X80628Y47328D01*
X80527Y47125D01*
X80628Y46922D01*
X80425Y47023D01*
X80222Y46922D01*
X80323Y47023D02*
X80374Y47125D01*
X80323Y47227D01*
X80425Y47176D01*
X80527Y47227D01*
X80476Y47125D01*
X80527Y47023D01*
X80425Y47074D01*
X80323Y47023D01*
X80222Y44922D02*
X80323Y45125D01*
X80222Y45328D01*
X80425Y45227D01*
X80628Y45328D01*
X80527Y45125D01*
X80628Y44922D01*
X80425Y45023D01*
X80222Y44922D01*
X80323Y45023D02*
X80374Y45125D01*
X80323Y45227D01*
X80425Y45176D01*
X80527Y45227D01*
X80476Y45125D01*
X80527Y45023D01*
X80425Y45074D01*
X80323Y45023D01*
X97197Y20697D02*
Y21103D01*
X97603D01*
Y20697D01*
X97197D01*
X97298Y20798D02*
Y21002D01*
X97502D01*
Y20798D01*
X97298D01*
X78186Y18107D02*
Y18514D01*
X78593D01*
Y18107D01*
X78186D01*
X78288Y18209D02*
Y18412D01*
X78491D01*
Y18209D01*
X78288D01*
X63597Y41997D02*
Y42403D01*
X64003D01*
Y41997D01*
X63597D01*
X63698Y42098D02*
Y42302D01*
X63902D01*
Y42098D01*
X63698D01*
X61690Y47847D02*
Y48253D01*
X62097D01*
Y47847D01*
X61690D01*
X61792Y47948D02*
Y48152D01*
X61995D01*
Y47948D01*
X61792D01*
X48289Y45197D02*
Y45603D01*
X48695D01*
Y45197D01*
X48289D01*
X48391Y45298D02*
Y45502D01*
X48594D01*
Y45298D01*
X48391D01*
X15297Y797D02*
X15398Y1000D01*
X15297Y1203D01*
X15500Y1102D01*
X15703Y1203D01*
X15602Y1000D01*
X15703Y797D01*
X15500Y898D01*
X15297Y797D01*
X15398Y898D02*
X15449Y1000D01*
X15398Y1102D01*
X15500Y1051D01*
X15602Y1102D01*
X15551Y1000D01*
X15602Y898D01*
X15500Y949D01*
X15398Y898D01*
X997Y6197D02*
X1098Y6400D01*
X997Y6603D01*
X1200Y6502D01*
X1403Y6603D01*
X1302Y6400D01*
X1403Y6197D01*
X1200Y6298D01*
X997Y6197D01*
X1098Y6298D02*
X1149Y6400D01*
X1098Y6502D01*
X1200Y6451D01*
X1302Y6502D01*
X1251Y6400D01*
X1302Y6298D01*
X1200Y6349D01*
X1098Y6298D01*
X43147Y44747D02*
Y45153D01*
X43553D01*
Y44747D01*
X43147D01*
X43248Y44848D02*
Y45052D01*
X43452D01*
Y44848D01*
X43248D01*
X42147Y43997D02*
Y44403D01*
X42553D01*
Y43997D01*
X42147D01*
X42248Y44098D02*
Y44302D01*
X42452D01*
Y44098D01*
X42248D01*
X43197Y39897D02*
Y40303D01*
X43603D01*
Y39897D01*
X43197D01*
X43298Y39998D02*
Y40202D01*
X43502D01*
Y39998D01*
X43298D01*
X43597Y47897D02*
Y48303D01*
X44003D01*
Y47897D01*
X43597D01*
X43698Y47998D02*
Y48202D01*
X43902D01*
Y47998D01*
X43698D01*
X41197Y39297D02*
Y39703D01*
X41603D01*
Y39297D01*
X41197D01*
X41298Y39398D02*
Y39602D01*
X41502D01*
Y39398D01*
X41298D01*
X42497Y37997D02*
Y38403D01*
X42903D01*
Y37997D01*
X42497D01*
X42598Y38098D02*
Y38302D01*
X42802D01*
Y38098D01*
X42598D01*
X41216Y26169D02*
Y26575D01*
X41622D01*
Y26169D01*
X41216D01*
X41318Y26270D02*
Y26473D01*
X41521D01*
Y26270D01*
X41318D01*
X41597Y37997D02*
Y38403D01*
X42003D01*
Y37997D01*
X41597D01*
X41698Y38098D02*
Y38302D01*
X41902D01*
Y38098D01*
X41698D01*
X43558Y34613D02*
Y35019D01*
X43964D01*
Y34613D01*
X43558D01*
X43659Y34715D02*
Y34918D01*
X43862D01*
Y34715D01*
X43659D01*
X65290Y31008D02*
Y31414D01*
X65697D01*
Y31008D01*
X65290D01*
X65392Y31110D02*
Y31313D01*
X65595D01*
Y31110D01*
X65392D01*
X50632Y21998D02*
Y22405D01*
X51039D01*
Y21998D01*
X50632D01*
X50734Y22100D02*
Y22303D01*
X50937D01*
Y22100D01*
X50734D01*
X50666Y22702D02*
Y23109D01*
X51073D01*
Y22702D01*
X50666D01*
X50768Y22804D02*
Y23007D01*
X50971D01*
Y22804D01*
X50768D01*
X50683Y23402D02*
Y23809D01*
X51090D01*
Y23402D01*
X50683D01*
X50785Y23504D02*
Y23707D01*
X50988D01*
Y23504D01*
X50785D01*
X75897Y17347D02*
Y17753D01*
X76303D01*
Y17347D01*
X75897D01*
X75998Y17448D02*
Y17652D01*
X76202D01*
Y17448D01*
X75998D01*
X60997Y10397D02*
Y10803D01*
X61403D01*
Y10397D01*
X60997D01*
X61098Y10498D02*
Y10702D01*
X61302D01*
Y10498D01*
X61098D01*
X32697Y34447D02*
Y34853D01*
X33103D01*
Y34447D01*
X32697D01*
X32798Y34548D02*
Y34752D01*
X33002D01*
Y34548D01*
X32798D01*
X31897Y35097D02*
Y35503D01*
X32303D01*
Y35097D01*
X31897D01*
X31998Y35198D02*
Y35402D01*
X32202D01*
Y35198D01*
X31998D01*
X40097Y33997D02*
Y34403D01*
X40503D01*
Y33997D01*
X40097D01*
X40198Y34098D02*
Y34302D01*
X40402D01*
Y34098D01*
X40198D01*
X33497Y36997D02*
Y37403D01*
X33903D01*
Y36997D01*
X33497D01*
X33598Y37098D02*
Y37302D01*
X33802D01*
Y37098D01*
X33598D01*
X29597Y50897D02*
Y51303D01*
X30003D01*
Y50897D01*
X29597D01*
X29698Y50998D02*
Y51202D01*
X29902D01*
Y50998D01*
X29698D01*
X29597Y34097D02*
Y34503D01*
X30003D01*
Y34097D01*
X29597D01*
X29698Y34198D02*
Y34402D01*
X29902D01*
Y34198D01*
X29698D01*
X42797Y66997D02*
Y67403D01*
X43203D01*
Y66997D01*
X42797D01*
X42898Y67098D02*
Y67302D01*
X43102D01*
Y67098D01*
X42898D01*
X91097Y27757D02*
Y28163D01*
X91503D01*
Y27757D01*
X91097D01*
X91198Y27858D02*
Y28062D01*
X91402D01*
Y27858D01*
X91198D01*
X73147Y55297D02*
Y55703D01*
X73553D01*
Y55297D01*
X73147D01*
X73248Y55398D02*
Y55602D01*
X73452D01*
Y55398D01*
X73248D01*
X91897Y28897D02*
Y29303D01*
X92303D01*
Y28897D01*
X91897D01*
X91998Y28998D02*
Y29202D01*
X92202D01*
Y28998D01*
X91998D01*
X93197Y27757D02*
Y28163D01*
X93603D01*
Y27757D01*
X93197D01*
X93298Y27858D02*
Y28062D01*
X93502D01*
Y27858D01*
X93298D01*
X22497Y38097D02*
Y38503D01*
X22903D01*
Y38097D01*
X22497D01*
X22598Y38198D02*
Y38402D01*
X22802D01*
Y38198D01*
X22598D01*
X31697Y31597D02*
Y32003D01*
X32103D01*
Y31597D01*
X31697D01*
X31798Y31698D02*
Y31902D01*
X32002D01*
Y31698D01*
X31798D01*
X33297Y33197D02*
Y33603D01*
X33703D01*
Y33197D01*
X33297D01*
X33398Y33298D02*
Y33502D01*
X33602D01*
Y33298D01*
X33398D01*
X61097Y9097D02*
Y9503D01*
X61503D01*
Y9097D01*
X61097D01*
X61198Y9198D02*
Y9402D01*
X61402D01*
Y9198D01*
X61198D01*
X67997Y27797D02*
Y28203D01*
X68403D01*
Y27797D01*
X67997D01*
X68098Y27898D02*
Y28102D01*
X68302D01*
Y27898D01*
X68098D01*
X34497Y2597D02*
Y3003D01*
X34903D01*
Y2597D01*
X34497D01*
X34598Y2698D02*
Y2902D01*
X34802D01*
Y2698D01*
X34598D01*
X34097Y6697D02*
Y7103D01*
X34503D01*
Y6697D01*
X34097D01*
X34198Y6798D02*
Y7002D01*
X34402D01*
Y6798D01*
X34198D01*
X6897Y23297D02*
Y23703D01*
X7303D01*
Y23297D01*
X6897D01*
X6998Y23398D02*
Y23602D01*
X7202D01*
Y23398D01*
X6998D01*
X7897Y20097D02*
Y20503D01*
X8303D01*
Y20097D01*
X7897D01*
X7998Y20198D02*
Y20402D01*
X8202D01*
Y20198D01*
X7998D01*
X40197Y39597D02*
Y40003D01*
X40603D01*
Y39597D01*
X40197D01*
X40298Y39698D02*
Y39902D01*
X40502D01*
Y39698D01*
X40298D01*
X64197Y29297D02*
Y29703D01*
X64603D01*
Y29297D01*
X64197D01*
X64298Y29398D02*
Y29602D01*
X64502D01*
Y29398D01*
X64298D01*
X57797Y28997D02*
Y29403D01*
X58203D01*
Y28997D01*
X57797D01*
X57898Y29098D02*
Y29302D01*
X58102D01*
Y29098D01*
X57898D01*
X99097Y64097D02*
Y64503D01*
X99503D01*
Y64097D01*
X99097D01*
X99198Y64198D02*
Y64402D01*
X99402D01*
Y64198D01*
X99198D01*
X84097Y67497D02*
Y67903D01*
X84503D01*
Y67497D01*
X84097D01*
X84198Y67598D02*
Y67802D01*
X84402D01*
Y67598D01*
X84198D01*
X73297Y58997D02*
Y59403D01*
X73703D01*
Y58997D01*
X73297D01*
X73398Y59098D02*
Y59302D01*
X73602D01*
Y59098D01*
X73398D01*
X52197Y52697D02*
Y53103D01*
X52603D01*
Y52697D01*
X52197D01*
X52298Y52798D02*
Y53002D01*
X52502D01*
Y52798D01*
X52298D01*
X49497Y45197D02*
Y45603D01*
X49903D01*
Y45197D01*
X49497D01*
X49598Y45298D02*
Y45502D01*
X49802D01*
Y45298D01*
X49598D01*
X39997Y29497D02*
Y29903D01*
X40403D01*
Y29497D01*
X39997D01*
X40098Y29598D02*
Y29802D01*
X40302D01*
Y29598D01*
X40098D01*
X33497Y28597D02*
Y29003D01*
X33903D01*
Y28597D01*
X33497D01*
X33598Y28698D02*
Y28902D01*
X33802D01*
Y28698D01*
X33598D01*
X64497Y13697D02*
Y14103D01*
X64903D01*
Y13697D01*
X64497D01*
X64598Y13798D02*
Y14002D01*
X64802D01*
Y13798D01*
X64598D01*
X84297Y55997D02*
Y56403D01*
X84703D01*
Y55997D01*
X84297D01*
X84398Y56098D02*
Y56302D01*
X84602D01*
Y56098D01*
X84398D01*
X66909Y10319D02*
Y10725D01*
X67315D01*
Y10319D01*
X66909D01*
X67010Y10420D02*
Y10624D01*
X67214D01*
Y10420D01*
X67010D01*
X48497Y15897D02*
Y16303D01*
X48903D01*
Y15897D01*
X48497D01*
X48598Y15998D02*
Y16202D01*
X48802D01*
Y15998D01*
X48598D01*
X43097Y10697D02*
Y11103D01*
X43503D01*
Y10697D01*
X43097D01*
X43198Y10798D02*
Y11002D01*
X43402D01*
Y10798D01*
X43198D01*
X92497Y44197D02*
Y44603D01*
X92903D01*
Y44197D01*
X92497D01*
X92598Y44298D02*
Y44502D01*
X92802D01*
Y44298D01*
X92598D01*
X94797Y41397D02*
Y41803D01*
X95203D01*
Y41397D01*
X94797D01*
X94898Y41498D02*
Y41702D01*
X95102D01*
Y41498D01*
X94898D01*
X100697Y46797D02*
Y47203D01*
X101103D01*
Y46797D01*
X100697D01*
X100798Y46898D02*
Y47102D01*
X101002D01*
Y46898D01*
X100798D01*
X90097Y49097D02*
Y49503D01*
X90503D01*
Y49097D01*
X90097D01*
X90198Y49198D02*
Y49402D01*
X90402D01*
Y49198D01*
X90198D01*
X94897Y53797D02*
Y54203D01*
X95303D01*
Y53797D01*
X94897D01*
X94998Y53898D02*
Y54102D01*
X95202D01*
Y53898D01*
X94998D01*
X94297Y56697D02*
Y57103D01*
X94703D01*
Y56697D01*
X94297D01*
X94398Y56798D02*
Y57002D01*
X94602D01*
Y56798D01*
X94398D01*
X86897Y59197D02*
Y59603D01*
X87303D01*
Y59197D01*
X86897D01*
X86998Y59298D02*
Y59502D01*
X87202D01*
Y59298D01*
X86998D01*
X23497Y60897D02*
Y61303D01*
X23903D01*
Y60897D01*
X23497D01*
X23598Y60998D02*
Y61202D01*
X23802D01*
Y60998D01*
X23598D01*
X34397Y22897D02*
Y23303D01*
X34803D01*
Y22897D01*
X34397D01*
X34498Y22998D02*
Y23202D01*
X34702D01*
Y22998D01*
X34498D01*
X38797Y19497D02*
Y19903D01*
X39203D01*
Y19497D01*
X38797D01*
X38898Y19598D02*
Y19802D01*
X39102D01*
Y19598D01*
X38898D01*
X36597Y22997D02*
Y23403D01*
X37003D01*
Y22997D01*
X36597D01*
X36698Y23098D02*
Y23302D01*
X36902D01*
Y23098D01*
X36698D01*
X82147Y58197D02*
Y58603D01*
X82553D01*
Y58197D01*
X82147D01*
X82248Y58298D02*
Y58502D01*
X82452D01*
Y58298D01*
X82248D01*
X81797Y63397D02*
Y63803D01*
X82203D01*
Y63397D01*
X81797D01*
X81898Y63498D02*
Y63702D01*
X82102D01*
Y63498D01*
X81898D01*
X30697Y18997D02*
Y19403D01*
X31103D01*
Y18997D01*
X30697D01*
X30798Y19098D02*
Y19302D01*
X31002D01*
Y19098D01*
X30798D01*
X23997Y897D02*
X24098Y1100D01*
X23997Y1303D01*
X24200Y1202D01*
X24403Y1303D01*
X24302Y1100D01*
X24403Y897D01*
X24200Y998D01*
X23997Y897D01*
X24098Y998D02*
X24149Y1100D01*
X24098Y1202D01*
X24200Y1151D01*
X24302Y1202D01*
X24251Y1100D01*
X24302Y998D01*
X24200Y1049D01*
X24098Y998D01*
X24397Y2697D02*
X24498Y2900D01*
X24397Y3103D01*
X24600Y3002D01*
X24803Y3103D01*
X24702Y2900D01*
X24803Y2697D01*
X24600Y2798D01*
X24397Y2697D01*
X24498Y2798D02*
X24549Y2900D01*
X24498Y3002D01*
X24600Y2951D01*
X24702Y3002D01*
X24651Y2900D01*
X24702Y2798D01*
X24600Y2849D01*
X24498Y2798D01*
X23697Y6597D02*
X23798Y6800D01*
X23697Y7003D01*
X23900Y6902D01*
X24103Y7003D01*
X24002Y6800D01*
X24103Y6597D01*
X23900Y6698D01*
X23697Y6597D01*
X23798Y6698D02*
X23849Y6800D01*
X23798Y6902D01*
X23900Y6851D01*
X24002Y6902D01*
X23951Y6800D01*
X24002Y6698D01*
X23900Y6749D01*
X23798Y6698D01*
X22897Y4997D02*
X22998Y5200D01*
X22897Y5403D01*
X23100Y5302D01*
X23303Y5403D01*
X23202Y5200D01*
X23303Y4997D01*
X23100Y5098D01*
X22897Y4997D01*
X22998Y5098D02*
X23049Y5200D01*
X22998Y5302D01*
X23100Y5251D01*
X23202Y5302D01*
X23151Y5200D01*
X23202Y5098D01*
X23100Y5149D01*
X22998Y5098D01*
X22297Y897D02*
X22398Y1100D01*
X22297Y1303D01*
X22500Y1202D01*
X22703Y1303D01*
X22602Y1100D01*
X22703Y897D01*
X22500Y998D01*
X22297Y897D01*
X22398Y998D02*
X22449Y1100D01*
X22398Y1202D01*
X22500Y1151D01*
X22602Y1202D01*
X22551Y1100D01*
X22602Y998D01*
X22500Y1049D01*
X22398Y998D01*
X19097Y797D02*
X19198Y1000D01*
X19097Y1203D01*
X19300Y1102D01*
X19503Y1203D01*
X19402Y1000D01*
X19503Y797D01*
X19300Y898D01*
X19097Y797D01*
X19198Y898D02*
X19249Y1000D01*
X19198Y1102D01*
X19300Y1051D01*
X19402Y1102D01*
X19351Y1000D01*
X19402Y898D01*
X19300Y949D01*
X19198Y898D01*
X4397Y8797D02*
X4498Y9000D01*
X4397Y9203D01*
X4600Y9102D01*
X4803Y9203D01*
X4702Y9000D01*
X4803Y8797D01*
X4600Y8898D01*
X4397Y8797D01*
X4498Y8898D02*
X4549Y9000D01*
X4498Y9102D01*
X4600Y9051D01*
X4702Y9102D01*
X4651Y9000D01*
X4702Y8898D01*
X4600Y8949D01*
X4498Y8898D01*
X4597Y7097D02*
X4698Y7300D01*
X4597Y7503D01*
X4800Y7402D01*
X5003Y7503D01*
X4902Y7300D01*
X5003Y7097D01*
X4800Y7198D01*
X4597Y7097D01*
X4698Y7198D02*
X4749Y7300D01*
X4698Y7402D01*
X4800Y7351D01*
X4902Y7402D01*
X4851Y7300D01*
X4902Y7198D01*
X4800Y7249D01*
X4698Y7198D01*
X4497Y5397D02*
X4598Y5600D01*
X4497Y5803D01*
X4700Y5702D01*
X4903Y5803D01*
X4802Y5600D01*
X4903Y5397D01*
X4700Y5498D01*
X4497Y5397D01*
X4598Y5498D02*
X4649Y5600D01*
X4598Y5702D01*
X4700Y5651D01*
X4802Y5702D01*
X4751Y5600D01*
X4802Y5498D01*
X4700Y5549D01*
X4598Y5498D01*
X4297Y3697D02*
X4398Y3900D01*
X4297Y4103D01*
X4500Y4002D01*
X4703Y4103D01*
X4602Y3900D01*
X4703Y3697D01*
X4500Y3798D01*
X4297Y3697D01*
X4398Y3798D02*
X4449Y3900D01*
X4398Y4002D01*
X4500Y3951D01*
X4602Y4002D01*
X4551Y3900D01*
X4602Y3798D01*
X4500Y3849D01*
X4398Y3798D01*
X4197Y2197D02*
X4298Y2400D01*
X4197Y2603D01*
X4400Y2502D01*
X4603Y2603D01*
X4502Y2400D01*
X4603Y2197D01*
X4400Y2298D01*
X4197Y2197D01*
X4298Y2298D02*
X4349Y2400D01*
X4298Y2502D01*
X4400Y2451D01*
X4502Y2502D01*
X4451Y2400D01*
X4502Y2298D01*
X4400Y2349D01*
X4298Y2298D01*
X5897Y597D02*
X5998Y800D01*
X5897Y1003D01*
X6100Y902D01*
X6303Y1003D01*
X6202Y800D01*
X6303Y597D01*
X6100Y698D01*
X5897Y597D01*
X5998Y698D02*
X6049Y800D01*
X5998Y902D01*
X6100Y851D01*
X6202Y902D01*
X6151Y800D01*
X6202Y698D01*
X6100Y749D01*
X5998Y698D01*
X7697Y797D02*
X7798Y1000D01*
X7697Y1203D01*
X7900Y1102D01*
X8103Y1203D01*
X8002Y1000D01*
X8103Y797D01*
X7900Y898D01*
X7697Y797D01*
X7798Y898D02*
X7849Y1000D01*
X7798Y1102D01*
X7900Y1051D01*
X8002Y1102D01*
X7951Y1000D01*
X8002Y898D01*
X7900Y949D01*
X7798Y898D01*
X9497Y2797D02*
X9598Y3000D01*
X9497Y3203D01*
X9700Y3102D01*
X9903Y3203D01*
X9802Y3000D01*
X9903Y2797D01*
X9700Y2898D01*
X9497Y2797D01*
X9598Y2898D02*
X9649Y3000D01*
X9598Y3102D01*
X9700Y3051D01*
X9802Y3102D01*
X9751Y3000D01*
X9802Y2898D01*
X9700Y2949D01*
X9598Y2898D01*
X9397Y697D02*
X9498Y900D01*
X9397Y1103D01*
X9600Y1002D01*
X9803Y1103D01*
X9702Y900D01*
X9803Y697D01*
X9600Y798D01*
X9397Y697D01*
X9498Y798D02*
X9549Y900D01*
X9498Y1002D01*
X9600Y951D01*
X9702Y1002D01*
X9651Y900D01*
X9702Y798D01*
X9600Y849D01*
X9498Y798D01*
X11597Y697D02*
X11698Y900D01*
X11597Y1103D01*
X11800Y1002D01*
X12003Y1103D01*
X11902Y900D01*
X12003Y697D01*
X11800Y798D01*
X11597Y697D01*
X11698Y798D02*
X11749Y900D01*
X11698Y1002D01*
X11800Y951D01*
X11902Y1002D01*
X11851Y900D01*
X11902Y798D01*
X11800Y849D01*
X11698Y798D01*
X13597Y797D02*
X13698Y1000D01*
X13597Y1203D01*
X13800Y1102D01*
X14003Y1203D01*
X13902Y1000D01*
X14003Y797D01*
X13800Y898D01*
X13597Y797D01*
X13698Y898D02*
X13749Y1000D01*
X13698Y1102D01*
X13800Y1051D01*
X13902Y1102D01*
X13851Y1000D01*
X13902Y898D01*
X13800Y949D01*
X13698Y898D01*
X17097Y897D02*
X17198Y1100D01*
X17097Y1303D01*
X17300Y1202D01*
X17503Y1303D01*
X17402Y1100D01*
X17503Y897D01*
X17300Y998D01*
X17097Y897D01*
X17198Y998D02*
X17249Y1100D01*
X17198Y1202D01*
X17300Y1151D01*
X17402Y1202D01*
X17351Y1100D01*
X17402Y998D01*
X17300Y1049D01*
X17198Y998D01*
X897Y4397D02*
X998Y4600D01*
X897Y4803D01*
X1100Y4702D01*
X1303Y4803D01*
X1202Y4600D01*
X1303Y4397D01*
X1100Y4498D01*
X897Y4397D01*
X998Y4498D02*
X1049Y4600D01*
X998Y4702D01*
X1100Y4651D01*
X1202Y4702D01*
X1151Y4600D01*
X1202Y4498D01*
X1100Y4549D01*
X998Y4498D01*
X1097Y8097D02*
X1198Y8300D01*
X1097Y8503D01*
X1300Y8402D01*
X1503Y8503D01*
X1402Y8300D01*
X1503Y8097D01*
X1300Y8198D01*
X1097Y8097D01*
X1198Y8198D02*
X1249Y8300D01*
X1198Y8402D01*
X1300Y8351D01*
X1402Y8402D01*
X1351Y8300D01*
X1402Y8198D01*
X1300Y8249D01*
X1198Y8198D01*
X1197Y9997D02*
X1298Y10200D01*
X1197Y10403D01*
X1400Y10302D01*
X1603Y10403D01*
X1502Y10200D01*
X1603Y9997D01*
X1400Y10098D01*
X1197Y9997D01*
X1298Y10098D02*
X1349Y10200D01*
X1298Y10302D01*
X1400Y10251D01*
X1502Y10302D01*
X1451Y10200D01*
X1502Y10098D01*
X1400Y10149D01*
X1298Y10098D01*
X11397Y10997D02*
X11498Y11200D01*
X11397Y11403D01*
X11600Y11302D01*
X11803Y11403D01*
X11702Y11200D01*
X11803Y10997D01*
X11600Y11098D01*
X11397Y10997D01*
X11498Y11098D02*
X11549Y11200D01*
X11498Y11302D01*
X11600Y11251D01*
X11702Y11302D01*
X11651Y11200D01*
X11702Y11098D01*
X11600Y11149D01*
X11498Y11098D01*
X9597Y9497D02*
X9698Y9700D01*
X9597Y9903D01*
X9800Y9802D01*
X10003Y9903D01*
X9902Y9700D01*
X10003Y9497D01*
X9800Y9598D01*
X9597Y9497D01*
X9698Y9598D02*
X9749Y9700D01*
X9698Y9802D01*
X9800Y9751D01*
X9902Y9802D01*
X9851Y9700D01*
X9902Y9598D01*
X9800Y9649D01*
X9698Y9598D01*
X9497Y10897D02*
X9598Y11100D01*
X9497Y11303D01*
X9700Y11202D01*
X9903Y11303D01*
X9802Y11100D01*
X9903Y10897D01*
X9700Y10998D01*
X9497Y10897D01*
X9598Y10998D02*
X9649Y11100D01*
X9598Y11202D01*
X9700Y11151D01*
X9802Y11202D01*
X9751Y11100D01*
X9802Y10998D01*
X9700Y11049D01*
X9598Y10998D01*
X2697Y4397D02*
X2798Y4600D01*
X2697Y4803D01*
X2900Y4702D01*
X3103Y4803D01*
X3002Y4600D01*
X3103Y4397D01*
X2900Y4498D01*
X2697Y4397D01*
X2798Y4498D02*
X2849Y4600D01*
X2798Y4702D01*
X2900Y4651D01*
X3002Y4702D01*
X2951Y4600D01*
X3002Y4498D01*
X2900Y4549D01*
X2798Y4498D01*
X2697Y6197D02*
X2798Y6400D01*
X2697Y6603D01*
X2900Y6502D01*
X3103Y6603D01*
X3002Y6400D01*
X3103Y6197D01*
X2900Y6298D01*
X2697Y6197D01*
X2798Y6298D02*
X2849Y6400D01*
X2798Y6502D01*
X2900Y6451D01*
X3002Y6502D01*
X2951Y6400D01*
X3002Y6298D01*
X2900Y6349D01*
X2798Y6298D01*
X2697Y8197D02*
X2798Y8400D01*
X2697Y8603D01*
X2900Y8502D01*
X3103Y8603D01*
X3002Y8400D01*
X3103Y8197D01*
X2900Y8298D01*
X2697Y8197D01*
X2798Y8298D02*
X2849Y8400D01*
X2798Y8502D01*
X2900Y8451D01*
X3002Y8502D01*
X2951Y8400D01*
X3002Y8298D01*
X2900Y8349D01*
X2798Y8298D01*
X2897Y10097D02*
X2998Y10300D01*
X2897Y10503D01*
X3100Y10402D01*
X3303Y10503D01*
X3202Y10300D01*
X3303Y10097D01*
X3100Y10198D01*
X2897Y10097D01*
X2998Y10198D02*
X3049Y10300D01*
X2998Y10402D01*
X3100Y10351D01*
X3202Y10402D01*
X3151Y10300D01*
X3202Y10198D01*
X3100Y10249D01*
X2998Y10198D01*
X7697Y11197D02*
X7798Y11400D01*
X7697Y11603D01*
X7900Y11502D01*
X8103Y11603D01*
X8002Y11400D01*
X8103Y11197D01*
X7900Y11298D01*
X7697Y11197D01*
X7798Y11298D02*
X7849Y11400D01*
X7798Y11502D01*
X7900Y11451D01*
X8002Y11502D01*
X7951Y11400D01*
X8002Y11298D01*
X7900Y11349D01*
X7798Y11298D01*
X23297Y15197D02*
X23398Y15400D01*
X23297Y15603D01*
X23500Y15502D01*
X23703Y15603D01*
X23602Y15400D01*
X23703Y15197D01*
X23500Y15298D01*
X23297Y15197D01*
X23398Y15298D02*
X23449Y15400D01*
X23398Y15502D01*
X23500Y15451D01*
X23602Y15502D01*
X23551Y15400D01*
X23602Y15298D01*
X23500Y15349D01*
X23398Y15298D01*
X23397Y13297D02*
X23498Y13500D01*
X23397Y13703D01*
X23600Y13602D01*
X23803Y13703D01*
X23702Y13500D01*
X23803Y13297D01*
X23600Y13398D01*
X23397Y13297D01*
X23498Y13398D02*
X23549Y13500D01*
X23498Y13602D01*
X23600Y13551D01*
X23702Y13602D01*
X23651Y13500D01*
X23702Y13398D01*
X23600Y13449D01*
X23498Y13398D01*
X22697Y11497D02*
X22798Y11700D01*
X22697Y11903D01*
X22900Y11802D01*
X23103Y11903D01*
X23002Y11700D01*
X23103Y11497D01*
X22900Y11598D01*
X22697Y11497D01*
X22798Y11598D02*
X22849Y11700D01*
X22798Y11802D01*
X22900Y11751D01*
X23002Y11802D01*
X22951Y11700D01*
X23002Y11598D01*
X22900Y11649D01*
X22798Y11598D01*
X23797Y10197D02*
X23898Y10400D01*
X23797Y10603D01*
X24000Y10502D01*
X24203Y10603D01*
X24102Y10400D01*
X24203Y10197D01*
X24000Y10298D01*
X23797Y10197D01*
X23898Y10298D02*
X23949Y10400D01*
X23898Y10502D01*
X24000Y10451D01*
X24102Y10502D01*
X24051Y10400D01*
X24102Y10298D01*
X24000Y10349D01*
X23898Y10298D01*
X20497Y2397D02*
X20598Y2600D01*
X20497Y2803D01*
X20700Y2702D01*
X20903Y2803D01*
X20802Y2600D01*
X20903Y2397D01*
X20700Y2498D01*
X20497Y2397D01*
X20598Y2498D02*
X20649Y2600D01*
X20598Y2702D01*
X20700Y2651D01*
X20802Y2702D01*
X20751Y2600D01*
X20802Y2498D01*
X20700Y2549D01*
X20598Y2498D01*
X18597Y2897D02*
X18698Y3100D01*
X18597Y3303D01*
X18800Y3202D01*
X19003Y3303D01*
X18902Y3100D01*
X19003Y2897D01*
X18800Y2998D01*
X18597Y2897D01*
X18698Y2998D02*
X18749Y3100D01*
X18698Y3202D01*
X18800Y3151D01*
X18902Y3202D01*
X18851Y3100D01*
X18902Y2998D01*
X18800Y3049D01*
X18698Y2998D01*
X20197Y4097D02*
X20298Y4300D01*
X20197Y4503D01*
X20400Y4402D01*
X20603Y4503D01*
X20502Y4300D01*
X20603Y4097D01*
X20400Y4198D01*
X20197Y4097D01*
X20298Y4198D02*
X20349Y4300D01*
X20298Y4402D01*
X20400Y4351D01*
X20502Y4402D01*
X20451Y4300D01*
X20502Y4198D01*
X20400Y4249D01*
X20298Y4198D01*
X18697Y4997D02*
X18798Y5200D01*
X18697Y5403D01*
X18900Y5302D01*
X19103Y5403D01*
X19002Y5200D01*
X19103Y4997D01*
X18900Y5098D01*
X18697Y4997D01*
X18798Y5098D02*
X18849Y5200D01*
X18798Y5302D01*
X18900Y5251D01*
X19002Y5302D01*
X18951Y5200D01*
X19002Y5098D01*
X18900Y5149D01*
X18798Y5098D01*
X20797Y5797D02*
X20898Y6000D01*
X20797Y6203D01*
X21000Y6102D01*
X21203Y6203D01*
X21102Y6000D01*
X21203Y5797D01*
X21000Y5898D01*
X20797Y5797D01*
X20898Y5898D02*
X20949Y6000D01*
X20898Y6102D01*
X21000Y6051D01*
X21102Y6102D01*
X21051Y6000D01*
X21102Y5898D01*
X21000Y5949D01*
X20898Y5898D01*
X19497Y6897D02*
X19598Y7100D01*
X19497Y7303D01*
X19700Y7202D01*
X19903Y7303D01*
X19802Y7100D01*
X19903Y6897D01*
X19700Y6998D01*
X19497Y6897D01*
X19598Y6998D02*
X19649Y7100D01*
X19598Y7202D01*
X19700Y7151D01*
X19802Y7202D01*
X19751Y7100D01*
X19802Y6998D01*
X19700Y7049D01*
X19598Y6998D01*
X21597Y7397D02*
X21698Y7600D01*
X21597Y7803D01*
X21800Y7702D01*
X22003Y7803D01*
X21902Y7600D01*
X22003Y7397D01*
X21800Y7498D01*
X21597Y7397D01*
X21698Y7498D02*
X21749Y7600D01*
X21698Y7702D01*
X21800Y7651D01*
X21902Y7702D01*
X21851Y7600D01*
X21902Y7498D01*
X21800Y7549D01*
X21698Y7498D01*
X22997Y8497D02*
X23098Y8700D01*
X22997Y8903D01*
X23200Y8802D01*
X23403Y8903D01*
X23302Y8700D01*
X23403Y8497D01*
X23200Y8598D01*
X22997Y8497D01*
X23098Y8598D02*
X23149Y8700D01*
X23098Y8802D01*
X23200Y8751D01*
X23302Y8802D01*
X23251Y8700D01*
X23302Y8598D01*
X23200Y8649D01*
X23098Y8598D01*
X21697Y9997D02*
X21798Y10200D01*
X21697Y10403D01*
X21900Y10302D01*
X22103Y10403D01*
X22002Y10200D01*
X22103Y9997D01*
X21900Y10098D01*
X21697Y9997D01*
X21798Y10098D02*
X21849Y10200D01*
X21798Y10302D01*
X21900Y10251D01*
X22002Y10302D01*
X21951Y10200D01*
X22002Y10098D01*
X21900Y10149D01*
X21798Y10098D01*
X20397Y8497D02*
X20498Y8700D01*
X20397Y8903D01*
X20600Y8802D01*
X20803Y8903D01*
X20702Y8700D01*
X20803Y8497D01*
X20600Y8598D01*
X20397Y8497D01*
X20498Y8598D02*
X20549Y8700D01*
X20498Y8802D01*
X20600Y8751D01*
X20702Y8802D01*
X20651Y8700D01*
X20702Y8598D01*
X20600Y8649D01*
X20498Y8598D01*
X18297Y8097D02*
X18398Y8300D01*
X18297Y8503D01*
X18500Y8402D01*
X18703Y8503D01*
X18602Y8300D01*
X18703Y8097D01*
X18500Y8198D01*
X18297Y8097D01*
X18398Y8198D02*
X18449Y8300D01*
X18398Y8402D01*
X18500Y8351D01*
X18602Y8402D01*
X18551Y8300D01*
X18602Y8198D01*
X18500Y8249D01*
X18398Y8198D01*
X16997Y6597D02*
X17098Y6800D01*
X16997Y7003D01*
X17200Y6902D01*
X17403Y7003D01*
X17302Y6800D01*
X17403Y6597D01*
X17200Y6698D01*
X16997Y6597D01*
X17098Y6698D02*
X17149Y6800D01*
X17098Y6902D01*
X17200Y6851D01*
X17302Y6902D01*
X17251Y6800D01*
X17302Y6698D01*
X17200Y6749D01*
X17098Y6698D01*
X16797Y4697D02*
X16898Y4900D01*
X16797Y5103D01*
X17000Y5002D01*
X17203Y5103D01*
X17102Y4900D01*
X17203Y4697D01*
X17000Y4798D01*
X16797Y4697D01*
X16898Y4798D02*
X16949Y4900D01*
X16898Y5002D01*
X17000Y4951D01*
X17102Y5002D01*
X17051Y4900D01*
X17102Y4798D01*
X17000Y4849D01*
X16898Y4798D01*
X16697Y2697D02*
X16798Y2900D01*
X16697Y3103D01*
X16900Y3002D01*
X17103Y3103D01*
X17002Y2900D01*
X17103Y2697D01*
X16900Y2798D01*
X16697Y2697D01*
X16798Y2798D02*
X16849Y2900D01*
X16798Y3002D01*
X16900Y2951D01*
X17002Y3002D01*
X16951Y2900D01*
X17002Y2798D01*
X16900Y2849D01*
X16798Y2798D01*
X15097Y2697D02*
X15198Y2900D01*
X15097Y3103D01*
X15300Y3002D01*
X15503Y3103D01*
X15402Y2900D01*
X15503Y2697D01*
X15300Y2798D01*
X15097Y2697D01*
X15198Y2798D02*
X15249Y2900D01*
X15198Y3002D01*
X15300Y2951D01*
X15402Y3002D01*
X15351Y2900D01*
X15402Y2798D01*
X15300Y2849D01*
X15198Y2798D01*
X15097Y4497D02*
X15198Y4700D01*
X15097Y4903D01*
X15300Y4802D01*
X15503Y4903D01*
X15402Y4700D01*
X15503Y4497D01*
X15300Y4598D01*
X15097Y4497D01*
X15198Y4598D02*
X15249Y4700D01*
X15198Y4802D01*
X15300Y4751D01*
X15402Y4802D01*
X15351Y4700D01*
X15402Y4598D01*
X15300Y4649D01*
X15198Y4598D01*
X15297Y6497D02*
X15398Y6700D01*
X15297Y6903D01*
X15500Y6802D01*
X15703Y6903D01*
X15602Y6700D01*
X15703Y6497D01*
X15500Y6598D01*
X15297Y6497D01*
X15398Y6598D02*
X15449Y6700D01*
X15398Y6802D01*
X15500Y6751D01*
X15602Y6802D01*
X15551Y6700D01*
X15602Y6598D01*
X15500Y6649D01*
X15398Y6598D01*
X15797Y8397D02*
X15898Y8600D01*
X15797Y8803D01*
X16000Y8702D01*
X16203Y8803D01*
X16102Y8600D01*
X16203Y8397D01*
X16000Y8498D01*
X15797Y8397D01*
X15898Y8498D02*
X15949Y8600D01*
X15898Y8702D01*
X16000Y8651D01*
X16102Y8702D01*
X16051Y8600D01*
X16102Y8498D01*
X16000Y8549D01*
X15898Y8498D01*
X17197Y9397D02*
X17298Y9600D01*
X17197Y9803D01*
X17400Y9702D01*
X17603Y9803D01*
X17502Y9600D01*
X17603Y9397D01*
X17400Y9498D01*
X17197Y9397D01*
X17298Y9498D02*
X17349Y9600D01*
X17298Y9702D01*
X17400Y9651D01*
X17502Y9702D01*
X17451Y9600D01*
X17502Y9498D01*
X17400Y9549D01*
X17298Y9498D01*
X18897Y9797D02*
X18998Y10000D01*
X18897Y10203D01*
X19100Y10102D01*
X19303Y10203D01*
X19202Y10000D01*
X19303Y9797D01*
X19100Y9898D01*
X18897Y9797D01*
X18998Y9898D02*
X19049Y10000D01*
X18998Y10102D01*
X19100Y10051D01*
X19202Y10102D01*
X19151Y10000D01*
X19202Y9898D01*
X19100Y9949D01*
X18998Y9898D01*
X20297Y10897D02*
X20398Y11100D01*
X20297Y11303D01*
X20500Y11202D01*
X20703Y11303D01*
X20602Y11100D01*
X20703Y10897D01*
X20500Y10998D01*
X20297Y10897D01*
X20398Y10998D02*
X20449Y11100D01*
X20398Y11202D01*
X20500Y11151D01*
X20602Y11202D01*
X20551Y11100D01*
X20602Y10998D01*
X20500Y11049D01*
X20398Y10998D01*
X21097Y12497D02*
X21198Y12700D01*
X21097Y12903D01*
X21300Y12802D01*
X21503Y12903D01*
X21402Y12700D01*
X21503Y12497D01*
X21300Y12598D01*
X21097Y12497D01*
X21198Y12598D02*
X21249Y12700D01*
X21198Y12802D01*
X21300Y12751D01*
X21402Y12802D01*
X21351Y12700D01*
X21402Y12598D01*
X21300Y12649D01*
X21198Y12598D01*
X21297Y14197D02*
X21398Y14400D01*
X21297Y14603D01*
X21500Y14502D01*
X21703Y14603D01*
X21602Y14400D01*
X21703Y14197D01*
X21500Y14298D01*
X21297Y14197D01*
X21398Y14298D02*
X21449Y14400D01*
X21398Y14502D01*
X21500Y14451D01*
X21602Y14502D01*
X21551Y14400D01*
X21602Y14298D01*
X21500Y14349D01*
X21398Y14298D01*
X13097Y10897D02*
X13198Y11100D01*
X13097Y11303D01*
X13300Y11202D01*
X13503Y11303D01*
X13402Y11100D01*
X13503Y10897D01*
X13300Y10998D01*
X13097Y10897D01*
X13198Y10998D02*
X13249Y11100D01*
X13198Y11202D01*
X13300Y11151D01*
X13402Y11202D01*
X13351Y11100D01*
X13402Y10998D01*
X13300Y11049D01*
X13198Y10998D01*
X14697Y10997D02*
X14798Y11200D01*
X14697Y11403D01*
X14900Y11302D01*
X15103Y11403D01*
X15002Y11200D01*
X15103Y10997D01*
X14900Y11098D01*
X14697Y10997D01*
X14798Y11098D02*
X14849Y11200D01*
X14798Y11302D01*
X14900Y11251D01*
X15002Y11302D01*
X14951Y11200D01*
X15002Y11098D01*
X14900Y11149D01*
X14798Y11098D01*
X16297Y11697D02*
X16398Y11900D01*
X16297Y12103D01*
X16500Y12002D01*
X16703Y12103D01*
X16602Y11900D01*
X16703Y11697D01*
X16500Y11798D01*
X16297Y11697D01*
X16398Y11798D02*
X16449Y11900D01*
X16398Y12002D01*
X16500Y11951D01*
X16602Y12002D01*
X16551Y11900D01*
X16602Y11798D01*
X16500Y11849D01*
X16398Y11798D01*
X18097Y12297D02*
X18198Y12500D01*
X18097Y12703D01*
X18300Y12602D01*
X18503Y12703D01*
X18402Y12500D01*
X18503Y12297D01*
X18300Y12398D01*
X18097Y12297D01*
X18198Y12398D02*
X18249Y12500D01*
X18198Y12602D01*
X18300Y12551D01*
X18402Y12602D01*
X18351Y12500D01*
X18402Y12398D01*
X18300Y12449D01*
X18198Y12398D01*
X10697Y37297D02*
Y37703D01*
X11103D01*
Y37297D01*
X10697D01*
X10798Y37398D02*
Y37602D01*
X11002D01*
Y37398D01*
X10798D01*
X14597Y32197D02*
Y32603D01*
X15003D01*
Y32197D01*
X14597D01*
X14698Y32298D02*
Y32502D01*
X14902D01*
Y32298D01*
X14698D01*
X16197Y32497D02*
Y32903D01*
X16603D01*
Y32497D01*
X16197D01*
X16298Y32598D02*
Y32802D01*
X16502D01*
Y32598D01*
X16298D01*
X16997Y33297D02*
Y33703D01*
X17403D01*
Y33297D01*
X16997D01*
X17098Y33398D02*
Y33602D01*
X17302D01*
Y33398D01*
X17098D01*
X15297Y33297D02*
Y33703D01*
X15703D01*
Y33297D01*
X15297D01*
X15398Y33398D02*
Y33602D01*
X15602D01*
Y33398D01*
X15398D01*
X12997Y33397D02*
Y33803D01*
X13403D01*
Y33397D01*
X12997D01*
X13098Y33498D02*
Y33702D01*
X13302D01*
Y33498D01*
X13098D01*
X10797Y36297D02*
Y36703D01*
X11203D01*
Y36297D01*
X10797D01*
X10898Y36398D02*
Y36602D01*
X11102D01*
Y36398D01*
X10898D01*
X22197Y34997D02*
Y35403D01*
X22603D01*
Y34997D01*
X22197D01*
X22298Y35098D02*
Y35302D01*
X22502D01*
Y35098D01*
X22298D01*
X21697Y32897D02*
Y33303D01*
X22103D01*
Y32897D01*
X21697D01*
X21798Y32998D02*
Y33202D01*
X22002D01*
Y32998D01*
X21798D01*
X21697Y31297D02*
Y31703D01*
X22103D01*
Y31297D01*
X21697D01*
X21798Y31398D02*
Y31602D01*
X22002D01*
Y31398D01*
X21798D01*
X12197Y30397D02*
Y30803D01*
X12603D01*
Y30397D01*
X12197D01*
X12298Y30498D02*
Y30702D01*
X12502D01*
Y30498D01*
X12298D01*
X7297Y32897D02*
Y33303D01*
X7703D01*
Y32897D01*
X7297D01*
X7398Y32998D02*
Y33202D01*
X7602D01*
Y32998D01*
X7398D01*
X11897Y33097D02*
Y33503D01*
X12303D01*
Y33097D01*
X11897D01*
X11998Y33198D02*
Y33402D01*
X12202D01*
Y33198D01*
X11998D01*
X7297Y31197D02*
Y31603D01*
X7703D01*
Y31197D01*
X7297D01*
X7398Y31298D02*
Y31502D01*
X7602D01*
Y31298D01*
X7398D01*
X73297Y61097D02*
Y61503D01*
X73703D01*
Y61097D01*
X73297D01*
X73398Y61198D02*
Y61402D01*
X73602D01*
Y61198D01*
X73398D01*
X13897Y12547D02*
Y12953D01*
X14303D01*
Y12547D01*
X13897D01*
X13998Y12648D02*
Y12852D01*
X14202D01*
Y12648D01*
X13998D01*
X9297Y18997D02*
Y19403D01*
X9703D01*
Y18997D01*
X9297D01*
X9398Y19098D02*
Y19302D01*
X9602D01*
Y19098D01*
X9398D01*
X56897Y29897D02*
Y30303D01*
X57303D01*
Y29897D01*
X56897D01*
X56998Y29998D02*
Y30202D01*
X57202D01*
Y29998D01*
X56998D01*
X89697Y66197D02*
Y66603D01*
X90103D01*
Y66197D01*
X89697D01*
X89798Y66298D02*
Y66502D01*
X90002D01*
Y66298D01*
X89798D01*
X45797Y42897D02*
Y43303D01*
X46203D01*
Y42897D01*
X45797D01*
X45898Y42998D02*
Y43202D01*
X46102D01*
Y42998D01*
X45898D01*
X35797Y32597D02*
Y33003D01*
X36203D01*
Y32597D01*
X35797D01*
X35898Y32698D02*
Y32902D01*
X36102D01*
Y32698D01*
X35898D01*
X101197Y51297D02*
Y51703D01*
X101603D01*
Y51297D01*
X101197D01*
X101298Y51398D02*
Y51602D01*
X101502D01*
Y51398D01*
X101298D01*
X60197Y16497D02*
Y16903D01*
X60603D01*
Y16497D01*
X60197D01*
X60298Y16598D02*
Y16802D01*
X60502D01*
Y16598D01*
X60298D01*
X63156Y15359D02*
Y15765D01*
X63562D01*
Y15359D01*
X63156D01*
X63257Y15460D02*
Y15664D01*
X63461D01*
Y15460D01*
X63257D01*
X61597Y12897D02*
Y13303D01*
X62003D01*
Y12897D01*
X61597D01*
X61698Y12998D02*
Y13202D01*
X61902D01*
Y12998D01*
X61698D01*
X91497Y60797D02*
Y61203D01*
X91903D01*
Y60797D01*
X91497D01*
X91598Y60898D02*
Y61102D01*
X91802D01*
Y60898D01*
X91598D01*
X90297Y50297D02*
Y50703D01*
X90703D01*
Y50297D01*
X90297D01*
X90398Y50398D02*
Y50602D01*
X90602D01*
Y50398D01*
X90398D01*
X87497Y50297D02*
Y50703D01*
X87903D01*
Y50297D01*
X87497D01*
X87598Y50398D02*
Y50602D01*
X87802D01*
Y50398D01*
X87598D01*
X41097Y28497D02*
Y28903D01*
X41503D01*
Y28497D01*
X41097D01*
X41198Y28598D02*
Y28802D01*
X41402D01*
Y28598D01*
X41198D01*
X57797Y23097D02*
Y23503D01*
X58203D01*
Y23097D01*
X57797D01*
X57898Y23198D02*
Y23402D01*
X58102D01*
Y23198D01*
X57898D01*
X35497Y23797D02*
Y24203D01*
X35903D01*
Y23797D01*
X35497D01*
X35598Y23898D02*
Y24102D01*
X35802D01*
Y23898D01*
X35598D01*
X28297Y20497D02*
Y20903D01*
X28703D01*
Y20497D01*
X28297D01*
X28398Y20598D02*
Y20802D01*
X28602D01*
Y20598D01*
X28398D01*
X27297Y20997D02*
Y21403D01*
X27703D01*
Y20997D01*
X27297D01*
X27398Y21098D02*
Y21302D01*
X27602D01*
Y21098D01*
X27398D01*
X77097Y16197D02*
Y16603D01*
X77503D01*
Y16197D01*
X77097D01*
X77198Y16298D02*
Y16502D01*
X77402D01*
Y16298D01*
X77198D01*
X82097Y67497D02*
Y67903D01*
X82503D01*
Y67497D01*
X82097D01*
X82198Y67598D02*
Y67802D01*
X82402D01*
Y67598D01*
X82198D01*
X84147Y54597D02*
Y55003D01*
X84553D01*
Y54597D01*
X84147D01*
X84248Y54698D02*
Y54902D01*
X84452D01*
Y54698D01*
X84248D01*
X79697Y52997D02*
Y53403D01*
X80103D01*
Y52997D01*
X79697D01*
X79798Y53098D02*
Y53302D01*
X80002D01*
Y53098D01*
X79798D01*
X80297Y53997D02*
Y54403D01*
X80703D01*
Y53997D01*
X80297D01*
X80398Y54098D02*
Y54302D01*
X80602D01*
Y54098D01*
X80398D01*
X77797Y16797D02*
Y17203D01*
X78203D01*
Y16797D01*
X77797D01*
X77898Y16898D02*
Y17102D01*
X78102D01*
Y16898D01*
X77898D01*
X14797Y55897D02*
Y56303D01*
X15203D01*
Y55897D01*
X14797D01*
X14898Y55998D02*
Y56202D01*
X15102D01*
Y55998D01*
X14898D01*
X22597Y27897D02*
Y28303D01*
X23003D01*
Y27897D01*
X22597D01*
X22698Y27998D02*
Y28202D01*
X22902D01*
Y27998D01*
X22698D01*
X53831Y47847D02*
Y48253D01*
X54238D01*
Y47847D01*
X53831D01*
X53933Y47948D02*
Y48152D01*
X54136D01*
Y47948D01*
X53933D01*
X48895Y47847D02*
Y48253D01*
X49301D01*
Y47847D01*
X48895D01*
X48996Y47948D02*
Y48152D01*
X49200D01*
Y47948D01*
X48996D01*
X85102Y53761D02*
Y54167D01*
X85509D01*
Y53761D01*
X85102D01*
X85204Y53862D02*
Y54066D01*
X85407D01*
Y53862D01*
X85204D01*
X85697Y61897D02*
Y62303D01*
X86103D01*
Y61897D01*
X85697D01*
X85798Y61998D02*
Y62202D01*
X86002D01*
Y61998D01*
X85798D01*
X32801Y51792D02*
Y52199D01*
X33208D01*
Y51792D01*
X32801D01*
X32903Y51894D02*
Y52097D01*
X33106D01*
Y51894D01*
X32903D01*
X11297Y56197D02*
Y56603D01*
X11703D01*
Y56197D01*
X11297D01*
X11398Y56298D02*
Y56502D01*
X11602D01*
Y56298D01*
X11398D01*
X16397Y50797D02*
Y51203D01*
X16803D01*
Y50797D01*
X16397D01*
X16498Y50898D02*
Y51102D01*
X16702D01*
Y50898D01*
X16498D01*
X1397Y42997D02*
Y43403D01*
X1803D01*
Y42997D01*
X1397D01*
X1498Y43098D02*
Y43302D01*
X1702D01*
Y43098D01*
X1498D01*
X6897Y56061D02*
Y56467D01*
X7303D01*
Y56061D01*
X6897D01*
X6998Y56163D02*
Y56366D01*
X7202D01*
Y56163D01*
X6998D01*
X7897Y37818D02*
Y38225D01*
X8304D01*
Y37818D01*
X7897D01*
X7999Y37920D02*
Y38123D01*
X8202D01*
Y37920D01*
X7999D01*
X77340Y53297D02*
Y53703D01*
X77746D01*
Y53297D01*
X77340D01*
X77441Y53398D02*
Y53602D01*
X77645D01*
Y53398D01*
X77441D01*
X78672Y53922D02*
Y54328D01*
X79078D01*
Y53922D01*
X78672D01*
X78773Y54023D02*
Y54227D01*
X78977D01*
Y54023D01*
X78773D01*
X79047Y54997D02*
Y55403D01*
X79453D01*
Y54997D01*
X79047D01*
X79148Y55098D02*
Y55302D01*
X79352D01*
Y55098D01*
X79148D01*
X29128Y62928D02*
Y63334D01*
X29534D01*
Y62928D01*
X29128D01*
X29229Y63029D02*
Y63233D01*
X29433D01*
Y63029D01*
X29229D01*
X45054Y5697D02*
Y6103D01*
X45461D01*
Y5697D01*
X45054D01*
X45156Y5798D02*
Y6002D01*
X45359D01*
Y5798D01*
X45156D01*
X56397Y17697D02*
Y18103D01*
X56803D01*
Y17697D01*
X56397D01*
X56498Y17798D02*
Y18002D01*
X56702D01*
Y17798D01*
X56498D01*
X55797Y18597D02*
Y19003D01*
X56203D01*
Y18597D01*
X55797D01*
X55898Y18698D02*
Y18902D01*
X56102D01*
Y18698D01*
X55898D01*
X40897Y32997D02*
Y33403D01*
X41303D01*
Y32997D01*
X40897D01*
X40998Y33098D02*
Y33302D01*
X41202D01*
Y33098D01*
X40998D01*
X44028Y36647D02*
Y37054D01*
X44434D01*
Y36647D01*
X44028D01*
X44129Y36749D02*
Y36952D01*
X44332D01*
Y36749D01*
X44129D01*
X44602Y37387D02*
Y37793D01*
X45008D01*
Y37387D01*
X44602D01*
X44703Y37488D02*
Y37692D01*
X44907D01*
Y37488D01*
X44703D01*
X43284Y35702D02*
Y36109D01*
X43690D01*
Y35702D01*
X43284D01*
X43386Y35804D02*
Y36007D01*
X43589D01*
Y35804D01*
X43386D01*
X34751Y27469D02*
Y27876D01*
X35158D01*
Y27469D01*
X34751D01*
X34853Y27571D02*
Y27774D01*
X35056D01*
Y27571D01*
X34853D01*
X1847Y26046D02*
Y26453D01*
X2253D01*
Y26046D01*
X1847D01*
X1948Y26148D02*
Y26351D01*
X2152D01*
Y26148D01*
X1948D01*
X43814Y51063D02*
Y51469D01*
X44220D01*
Y51063D01*
X43814D01*
X43915Y51165D02*
Y51368D01*
X44118D01*
Y51165D01*
X43915D01*
X40148Y25879D02*
Y26285D01*
X40555D01*
Y25879D01*
X40148D01*
X40250Y25980D02*
Y26184D01*
X40453D01*
Y25980D01*
X40250D01*
X69671Y26301D02*
Y26708D01*
X70078D01*
Y26301D01*
X69671D01*
X69773Y26403D02*
Y26606D01*
X69976D01*
Y26403D01*
X69773D01*
X65798Y25897D02*
Y26303D01*
X66205D01*
Y25897D01*
X65798D01*
X65900Y25999D02*
Y26202D01*
X66103D01*
Y25999D01*
X65900D01*
X63072Y25262D02*
Y25668D01*
X63479D01*
Y25262D01*
X63072D01*
X63174Y25363D02*
Y25566D01*
X63377D01*
Y25363D01*
X63174D01*
X65358Y29097D02*
Y29504D01*
X65764D01*
Y29097D01*
X65358D01*
X65460Y29199D02*
Y29402D01*
X65663D01*
Y29199D01*
X65460D01*
X48253Y48427D02*
Y48833D01*
X48659D01*
Y48427D01*
X48253D01*
X48354Y48528D02*
Y48732D01*
X48557D01*
Y48528D01*
X48354D01*
X43573Y49682D02*
Y50088D01*
X43980D01*
Y49682D01*
X43573D01*
X43675Y49783D02*
Y49987D01*
X43878D01*
Y49783D01*
X43675D01*
X33697Y25420D02*
Y25827D01*
X34103D01*
Y25420D01*
X33697D01*
X33798Y25522D02*
Y25725D01*
X34001D01*
Y25522D01*
X33798D01*
X48088Y42908D02*
Y43314D01*
X48494D01*
Y42908D01*
X48088D01*
X48189Y43009D02*
Y43212D01*
X48393D01*
Y43009D01*
X48189D01*
X68947Y30447D02*
Y30853D01*
X69353D01*
Y30447D01*
X68947D01*
X69048Y30548D02*
Y30752D01*
X69252D01*
Y30548D01*
X69048D01*
X68322Y32397D02*
Y32803D01*
X68728D01*
Y32397D01*
X68322D01*
X68423Y32498D02*
Y32702D01*
X68627D01*
Y32498D01*
X68423D01*
X18028Y37090D02*
Y37497D01*
X18435D01*
Y37090D01*
X18028D01*
X18130Y37192D02*
Y37395D01*
X18333D01*
Y37192D01*
X18130D01*
X833Y21592D02*
Y21998D01*
X1239D01*
Y21592D01*
X833D01*
X934Y21694D02*
Y21897D01*
X1138D01*
Y21694D01*
X934D01*
X50708Y39767D02*
Y40174D01*
X51114D01*
Y39767D01*
X50708D01*
X50810Y39869D02*
Y40072D01*
X51013D01*
Y39869D01*
X50810D01*
X62615Y50528D02*
Y50935D01*
X63022D01*
Y50528D01*
X62615D01*
X62717Y50630D02*
Y50833D01*
X62920D01*
Y50630D01*
X62717D01*
X59384Y50542D02*
Y50948D01*
X59791D01*
Y50542D01*
X59384D01*
X59486Y50643D02*
Y50847D01*
X59689D01*
Y50643D01*
X59486D01*
X55559Y50745D02*
Y51152D01*
X55965D01*
Y50745D01*
X55559D01*
X55661Y50847D02*
Y51050D01*
X55864D01*
Y50847D01*
X55661D01*
X50974Y21387D02*
Y21794D01*
X51380D01*
Y21387D01*
X50974D01*
X51075Y21489D02*
Y21692D01*
X51278D01*
Y21489D01*
X51075D01*
X52247Y18072D02*
Y18478D01*
X52653D01*
Y18072D01*
X52247D01*
X52348Y18173D02*
Y18377D01*
X52552D01*
Y18173D01*
X52348D01*
X30321Y29201D02*
Y29607D01*
X30727D01*
Y29201D01*
X30321D01*
X30422Y29303D02*
Y29506D01*
X30626D01*
Y29303D01*
X30422D01*
D206*
X100303Y11620D02*
G03*
X100303Y11620I-203J0D01*
G01*
X99033D02*
G03*
X99033Y11620I-203J0D01*
G01*
X100303Y12890D02*
G03*
X100303Y12890I-203J0D01*
G01*
X99033D02*
G03*
X99033Y12890I-203J0D01*
G01*
X100303Y14160D02*
G03*
X100303Y14160I-203J0D01*
G01*
X99033D02*
G03*
X99033Y14160I-203J0D01*
G01*
X100303Y15430D02*
G03*
X100303Y15430I-203J0D01*
G01*
X99033D02*
G03*
X99033Y15430I-203J0D01*
G01*
X100303Y16700D02*
G03*
X100303Y16700I-203J0D01*
G01*
X99033D02*
G03*
X99033Y16700I-203J0D01*
G01*
X97303Y56125D02*
G03*
X97303Y56125I-203J0D01*
G01*
Y60275D02*
G03*
X97303Y60275I-203J0D01*
G01*
X49913Y71270D02*
G03*
X49913Y71270I-203J0D01*
G01*
Y70000D02*
G03*
X49913Y70000I-203J0D01*
G01*
X48643Y71270D02*
G03*
X48643Y71270I-203J0D01*
G01*
Y70000D02*
G03*
X48643Y70000I-203J0D01*
G01*
X47373Y71270D02*
G03*
X47373Y71270I-203J0D01*
G01*
Y70000D02*
G03*
X47373Y70000I-203J0D01*
G01*
X46103Y71270D02*
G03*
X46103Y71270I-203J0D01*
G01*
Y70000D02*
G03*
X46103Y70000I-203J0D01*
G01*
X44833Y71270D02*
G03*
X44833Y71270I-203J0D01*
G01*
Y70000D02*
G03*
X44833Y70000I-203J0D01*
G01*
D207*
X100202Y11620D02*
G03*
X100202Y11620I-102J0D01*
G01*
X98932D02*
G03*
X98932Y11620I-102J0D01*
G01*
X100202Y12890D02*
G03*
X100202Y12890I-102J0D01*
G01*
X98932D02*
G03*
X98932Y12890I-102J0D01*
G01*
X100202Y14160D02*
G03*
X100202Y14160I-102J0D01*
G01*
X98932D02*
G03*
X98932Y14160I-102J0D01*
G01*
X100202Y15430D02*
G03*
X100202Y15430I-102J0D01*
G01*
X98932D02*
G03*
X98932Y15430I-102J0D01*
G01*
X100202Y16700D02*
G03*
X100202Y16700I-102J0D01*
G01*
X98932D02*
G03*
X98932Y16700I-102J0D01*
G01*
X49812Y71270D02*
G03*
X49812Y71270I-102J0D01*
G01*
Y70000D02*
G03*
X49812Y70000I-102J0D01*
G01*
X48542Y71270D02*
G03*
X48542Y71270I-102J0D01*
G01*
Y70000D02*
G03*
X48542Y70000I-102J0D01*
G01*
X47272Y71270D02*
G03*
X47272Y71270I-102J0D01*
G01*
Y70000D02*
G03*
X47272Y70000I-102J0D01*
G01*
X46002Y71270D02*
G03*
X46002Y71270I-102J0D01*
G01*
Y70000D02*
G03*
X46002Y70000I-102J0D01*
G01*
X44732Y71270D02*
G03*
X44732Y71270I-102J0D01*
G01*
Y70000D02*
G03*
X44732Y70000I-102J0D01*
G01*
M02*
