G04*
G04 #@! TF.GenerationSoftware,Altium Limited,Altium Designer,22.5.1 (42)*
G04*
G04 Layer_Color=128*
%FSLAX43Y43*%
%MOMM*%
G71*
G04*
G04 #@! TF.SameCoordinates,B4329D7B-D132-43AD-BD09-584EF951B7D5*
G04*
G04*
G04 #@! TF.FilePolarity,Positive*
G04*
G01*
G75*
%ADD18R,0.800X0.950*%
%ADD19R,1.528X0.650*%
%ADD25R,1.000X1.000*%
%ADD27C,1.000*%
%ADD31R,0.900X0.650*%
%ADD32R,0.600X0.750*%
%ADD34R,0.800X0.940*%
%ADD38R,0.950X0.800*%
%ADD41R,0.940X0.800*%
%ADD47R,0.650X0.900*%
%ADD48R,0.940X0.810*%
%ADD55R,0.750X0.600*%
%ADD134R,1.150X1.150*%
%ADD142R,1.600X1.750*%
%ADD143R,1.250X2.300*%
%ADD144R,1.750X1.600*%
%ADD145R,0.700X0.500*%
%ADD146R,0.500X0.700*%
%ADD147R,0.400X0.500*%
%ADD148R,0.500X0.400*%
%ADD149R,0.550X0.700*%
%ADD150R,0.550X1.400*%
%ADD151R,1.000X2.750*%
G04:AMPARAMS|DCode=152|XSize=1.35mm|YSize=0.58mm|CornerRadius=0.072mm|HoleSize=0mm|Usage=FLASHONLY|Rotation=0.000|XOffset=0mm|YOffset=0mm|HoleType=Round|Shape=RoundedRectangle|*
%AMROUNDEDRECTD152*
21,1,1.350,0.435,0,0,0.0*
21,1,1.205,0.580,0,0,0.0*
1,1,0.145,0.603,-0.217*
1,1,0.145,-0.603,-0.217*
1,1,0.145,-0.603,0.217*
1,1,0.145,0.603,0.217*
%
%ADD152ROUNDEDRECTD152*%
%ADD153R,0.500X0.475*%
G04:AMPARAMS|DCode=154|XSize=1.32mm|YSize=0.59mm|CornerRadius=0.074mm|HoleSize=0mm|Usage=FLASHONLY|Rotation=90.000|XOffset=0mm|YOffset=0mm|HoleType=Round|Shape=RoundedRectangle|*
%AMROUNDEDRECTD154*
21,1,1.320,0.443,0,0,90.0*
21,1,1.172,0.590,0,0,90.0*
1,1,0.148,0.221,0.586*
1,1,0.148,0.221,-0.586*
1,1,0.148,-0.221,-0.586*
1,1,0.148,-0.221,0.586*
%
%ADD154ROUNDEDRECTD154*%
%ADD155R,0.600X1.050*%
%ADD156R,1.475X0.450*%
%ADD157R,0.800X1.500*%
%ADD158R,1.400X1.900*%
%ADD159R,1.800X1.400*%
%ADD160R,0.711X0.305*%
%ADD161R,0.305X0.711*%
%ADD162R,0.475X0.250*%
%ADD163R,0.250X0.475*%
%ADD164R,0.530X0.280*%
%ADD165R,0.620X0.600*%
%ADD166R,0.625X0.400*%
%ADD167R,1.000X0.550*%
%ADD168R,1.070X1.820*%
%ADD169R,0.870X1.020*%
%ADD170R,1.020X0.870*%
G36*
X66725Y37380D02*
X66545Y37200D01*
X66425D01*
Y37700D01*
X66725D01*
X66725Y37380D01*
D02*
G37*
G36*
X67175Y36945D02*
X66675D01*
Y37092D01*
X66833Y37250D01*
X67175D01*
Y36945D01*
D02*
G37*
G36*
X70425Y37200D02*
X70278D01*
X70125Y37353D01*
Y37700D01*
X70425D01*
Y37200D01*
D02*
G37*
G36*
X69995Y37250D02*
X70175Y37070D01*
Y36950D01*
X69675D01*
Y37250D01*
X69995Y37250D01*
D02*
G37*
G36*
X67175Y40650D02*
X66855Y40650D01*
X66675Y40830D01*
Y40950D01*
X67175D01*
Y40650D01*
D02*
G37*
G36*
X66725Y40540D02*
Y40200D01*
X66425D01*
Y40700D01*
X66565D01*
X66725Y40540D01*
D02*
G37*
G36*
X70175Y40810D02*
X70015Y40650D01*
X69675D01*
Y40950D01*
X70175D01*
Y40810D01*
D02*
G37*
G36*
X70425Y40200D02*
X70125D01*
X70125Y40520D01*
X70305Y40700D01*
X70425D01*
Y40200D01*
D02*
G37*
D18*
X73100Y39800D02*
D03*
X74700D02*
D03*
X73150Y38300D02*
D03*
X74750D02*
D03*
X62000Y39925D02*
D03*
X60400D02*
D03*
X62000Y38375D02*
D03*
X60400D02*
D03*
X66400Y34900D02*
D03*
X68000D02*
D03*
X20073Y28159D02*
D03*
X21673D02*
D03*
X26825Y33625D02*
D03*
X28425D02*
D03*
X67900Y9950D02*
D03*
X66300D02*
D03*
X65596Y42339D02*
D03*
X67196D02*
D03*
X73481Y30902D02*
D03*
X71881D02*
D03*
X81300Y58900D02*
D03*
X79700D02*
D03*
D19*
X77011Y58695D02*
D03*
Y59965D02*
D03*
Y61235D02*
D03*
Y62505D02*
D03*
X71589D02*
D03*
Y61235D02*
D03*
Y59965D02*
D03*
Y58695D02*
D03*
D25*
X47371Y53848D02*
D03*
Y52705D02*
D03*
Y51639D02*
D03*
Y50572D02*
D03*
X49817Y53701D02*
D03*
Y52532D02*
D03*
Y51364D02*
D03*
Y50221D02*
D03*
Y49053D02*
D03*
X36351Y48330D02*
D03*
X37444D02*
D03*
X38612D02*
D03*
X39730D02*
D03*
X38591Y52739D02*
D03*
X39784D02*
D03*
X40978D02*
D03*
X24180Y27250D02*
D03*
X23940Y25660D02*
D03*
X23890Y23950D02*
D03*
X40910Y48330D02*
D03*
X47371Y49390D02*
D03*
X42160Y52739D02*
D03*
X83700Y27620D02*
D03*
Y28610D02*
D03*
Y29600D02*
D03*
Y30590D02*
D03*
X86740Y26200D02*
D03*
X87720D02*
D03*
X58770Y13190D02*
D03*
X60430Y13370D02*
D03*
X63400Y13470D02*
D03*
D27*
X60141Y32903D02*
D03*
X59366D02*
D03*
X58566Y32878D02*
D03*
X70262Y45122D02*
D03*
X68363Y45100D02*
D03*
X68990D02*
D03*
X69661Y45135D02*
D03*
X64050Y33300D02*
D03*
X57850Y32875D02*
D03*
X68853Y43019D02*
D03*
X64675Y33600D02*
D03*
X65500Y33650D02*
D03*
X68483Y33679D02*
D03*
X70453Y31739D02*
D03*
X66423Y29849D02*
D03*
X65190Y27760D02*
D03*
D31*
X95725Y3650D02*
D03*
Y2200D02*
D03*
X83575Y6825D02*
D03*
Y5375D02*
D03*
X71925Y22950D02*
D03*
Y21500D02*
D03*
X58325Y37800D02*
D03*
Y39250D02*
D03*
X59625Y35700D02*
D03*
Y34250D02*
D03*
X3584Y29911D02*
D03*
Y28461D02*
D03*
X41749Y18834D02*
D03*
Y17384D02*
D03*
X43149D02*
D03*
Y18834D02*
D03*
X35049Y17384D02*
D03*
Y18834D02*
D03*
X40449Y17384D02*
D03*
Y18834D02*
D03*
X37749D02*
D03*
Y17384D02*
D03*
X36349Y18834D02*
D03*
Y17384D02*
D03*
D32*
X88013Y31428D02*
D03*
Y30328D02*
D03*
X85493Y30332D02*
D03*
Y29232D02*
D03*
D34*
X73630Y65200D02*
D03*
X74970D02*
D03*
X5270Y13025D02*
D03*
X3930D02*
D03*
X5270Y14750D02*
D03*
X3930D02*
D03*
Y16250D02*
D03*
X5270D02*
D03*
X27085Y35275D02*
D03*
X28425D02*
D03*
X21440Y23178D02*
D03*
X20100D02*
D03*
X74620Y36300D02*
D03*
X73280D02*
D03*
D38*
X72850Y41425D02*
D03*
Y43025D02*
D03*
X74450Y41425D02*
D03*
Y43025D02*
D03*
X61125Y34300D02*
D03*
Y35900D02*
D03*
D41*
X9432Y33994D02*
D03*
Y35334D02*
D03*
X73254Y28387D02*
D03*
Y27047D02*
D03*
X71885Y28357D02*
D03*
Y27017D02*
D03*
X3599Y23485D02*
D03*
Y24825D02*
D03*
X39049Y18779D02*
D03*
Y17439D02*
D03*
X62500Y17395D02*
D03*
Y16055D02*
D03*
X61200Y17370D02*
D03*
Y16030D02*
D03*
X59600Y17370D02*
D03*
Y16030D02*
D03*
X67950Y12580D02*
D03*
Y13920D02*
D03*
D47*
X81325Y21325D02*
D03*
X82775D02*
D03*
X98675Y20600D02*
D03*
X100125D02*
D03*
X20055Y29961D02*
D03*
X21505D02*
D03*
X19125Y38175D02*
D03*
X20575D02*
D03*
X14200Y35300D02*
D03*
X15650D02*
D03*
X66300Y8450D02*
D03*
X67750D02*
D03*
D48*
X7812Y33945D02*
D03*
Y35285D02*
D03*
D55*
X21172Y24604D02*
D03*
X20072D02*
D03*
X20159Y26866D02*
D03*
X21258D02*
D03*
X20072Y25760D02*
D03*
X21172D02*
D03*
D134*
X11875Y14075D02*
D03*
X9525D02*
D03*
D142*
X78850Y21400D02*
D03*
X76350D02*
D03*
X93450Y11800D02*
D03*
X95950D02*
D03*
X93450Y13900D02*
D03*
X95950D02*
D03*
X93450Y15900D02*
D03*
X95950D02*
D03*
X93450Y17900D02*
D03*
X95950D02*
D03*
X93450Y19900D02*
D03*
X95950D02*
D03*
D143*
X100350Y8750D02*
D03*
X96900D02*
D03*
X63650Y66100D02*
D03*
X60200D02*
D03*
X63650Y62600D02*
D03*
X60200D02*
D03*
D144*
X69999Y12961D02*
D03*
Y15461D02*
D03*
D145*
X66375Y39450D02*
D03*
X70475D02*
D03*
Y38450D02*
D03*
X66375D02*
D03*
D146*
X68925Y36900D02*
D03*
X67925D02*
D03*
D147*
X66225Y37450D02*
D03*
Y40450D02*
D03*
X70625D02*
D03*
Y37450D02*
D03*
D148*
X66925Y36750D02*
D03*
Y41150D02*
D03*
X69925D02*
D03*
Y36750D02*
D03*
D149*
X67925Y41000D02*
D03*
D150*
X68925Y40650D02*
D03*
D151*
X87600Y7725D02*
D03*
Y3475D02*
D03*
X89600Y7725D02*
D03*
Y3475D02*
D03*
X91600Y7725D02*
D03*
Y3475D02*
D03*
X93600Y7725D02*
D03*
Y3475D02*
D03*
D152*
X29160Y29400D02*
D03*
Y30350D02*
D03*
Y31300D02*
D03*
X26790D02*
D03*
Y30350D02*
D03*
Y29400D02*
D03*
D153*
X81200Y60487D02*
D03*
Y61513D02*
D03*
D154*
X54081Y49066D02*
D03*
X52181D02*
D03*
X53131Y51096D02*
D03*
X57326D02*
D03*
X56376Y49066D02*
D03*
X58276D02*
D03*
X61781Y51096D02*
D03*
X60831Y49066D02*
D03*
X62731D02*
D03*
X65662Y51096D02*
D03*
X64712Y49066D02*
D03*
X66612D02*
D03*
D155*
X84300Y66300D02*
D03*
X83350Y64100D02*
D03*
X85250D02*
D03*
D156*
X16920Y24922D02*
D03*
Y25572D02*
D03*
Y26222D02*
D03*
Y26872D02*
D03*
Y27522D02*
D03*
Y28172D02*
D03*
Y28822D02*
D03*
X11044D02*
D03*
Y28172D02*
D03*
Y27522D02*
D03*
Y26872D02*
D03*
Y26222D02*
D03*
Y25572D02*
D03*
Y24922D02*
D03*
D157*
X39039Y11509D02*
D03*
X37939Y11109D02*
D03*
X36839Y11509D02*
D03*
X35739Y11709D02*
D03*
X34639Y11509D02*
D03*
X33539Y11709D02*
D03*
X32439Y11509D02*
D03*
X31339D02*
D03*
D158*
X43699Y15359D02*
D03*
X30549Y14359D02*
D03*
D159*
X37849Y1209D02*
D03*
X32149D02*
D03*
D160*
X63455Y9285D02*
D03*
Y9920D02*
D03*
Y10580D02*
D03*
Y11215D02*
D03*
X59595D02*
D03*
Y10580D02*
D03*
Y9920D02*
D03*
Y9285D02*
D03*
D161*
X62490Y12180D02*
D03*
X61855D02*
D03*
X61195D02*
D03*
X60560D02*
D03*
Y8320D02*
D03*
X61195D02*
D03*
X61855D02*
D03*
X62490D02*
D03*
D162*
X69838Y28975D02*
D03*
Y28475D02*
D03*
Y27975D02*
D03*
Y27475D02*
D03*
X67512D02*
D03*
Y27975D02*
D03*
Y28475D02*
D03*
Y28975D02*
D03*
D163*
X69175Y27312D02*
D03*
X68675D02*
D03*
X68175D02*
D03*
Y29138D02*
D03*
X68675D02*
D03*
X69175D02*
D03*
D164*
X88655Y27225D02*
D03*
Y27625D02*
D03*
Y28025D02*
D03*
X87975D02*
D03*
Y27625D02*
D03*
Y27225D02*
D03*
D165*
X90575Y27590D02*
D03*
Y28510D02*
D03*
X85465Y27164D02*
D03*
Y26244D02*
D03*
D166*
X32737Y28325D02*
D03*
X31913D02*
D03*
X32737Y29425D02*
D03*
X31913D02*
D03*
X32762Y30600D02*
D03*
X31938D02*
D03*
X32749Y27000D02*
D03*
X31925D02*
D03*
D167*
X20150Y36000D02*
D03*
Y34700D02*
D03*
X18250Y35350D02*
D03*
X14700Y37500D02*
D03*
Y38800D02*
D03*
X16600Y38150D02*
D03*
D168*
X4065Y18475D02*
D03*
X6825D02*
D03*
D169*
X73270Y34800D02*
D03*
X74630D02*
D03*
D170*
X66375Y12570D02*
D03*
Y13930D02*
D03*
M02*
