M48
;Layer_Color=9474304
;FILE_FORMAT=4:3
METRIC,LZ
;TYPE=PLATED
T1F00S00C0.300
T3F00S00C0.700
T4F00S00C0.711
T5F00S00C0.750
T6F00S00C0.800
T7F00S00C1.020
T8F00S00C1.600
T9F00S00C1.900
T10F00S00C3.200
;TYPE=NON_PLATED
T12F00S00C0.700
T13F00S00C1.050
T14F00S00C1.150
T15F00S00C1.650
%
T01
X00141Y001275
X00131Y00192
X0012Y00191
X00095Y00192
X00309
X002849Y001524
X0039049Y0015701
X00433Y00109
X0045257Y00059
X00343Y00069
X00347Y00028
X00536Y00109
X00612Y00106
X00613Y00093
X00618Y00131
X0061672Y0013872
X0060533Y0014233
X0059Y00144
X00604Y00167
X0063359Y0015562
X00647Y00139
X0067112Y0010522
X0070433Y0010333
X0072742Y0011493
X0071431Y0015516
X0071118Y0016804
X007085Y0018475
X0072039Y0019025
X0069009Y0018021
X00566Y00179
X0056Y00188
X005245Y0018275
X0048525
X0048625Y0017225
X004795Y0016825
X00487Y00161
X0074495Y0018199
X00761Y001755
X00773Y00164
X0078Y0017
X0078389Y0018311
X00796Y00175
X0081001Y001875
X0083125Y0014375
X0083156Y0009106
X0089598Y0009661
X0091411Y0010211
X0089777Y0013525
X0094775Y00055
X0075587Y0009233
X0075059Y0011294
X0076285Y0022615
X0077177Y0023902
X0078462Y0023165
X0081Y002235
X0080275Y0021475
X0084706Y0022246
X0085595
X008625Y00234
X0086062Y0024315
X0087Y00249
X0087894Y002499
X00887Y00234
X0087297Y0022111
X0087119Y0020231
X0083693Y0023508
X00842Y00262
X00845Y00272
X0089875Y0025875
X00913Y002796
X00921Y00291
X00934Y002796
X00877Y00323
X0078537Y00324
X00763
X0074425Y0030875
X0075435Y0028715
X00757Y00278
X007447Y0027089
X007395Y00238
X00762Y003625
X0077543Y00535
X0078875Y0054125
X007925Y00552
X00805Y00542
X00799Y00532
X008435Y00548
X00845Y00562
X0085306Y0053964
X00877Y00505
X00905
X00903Y00493
X00927Y00444
X0096678Y00438
X0095Y00416
X01009Y0047
X01014Y00515
X00951Y0054
X00945Y00569
X008235Y00584
X00974Y00209
X0073425Y0021675
X0069593Y0022669
X0068602Y0022619
X0068861Y0024221
X0068311Y0025404
X0069874Y0026504
X00682Y0028
X006915Y003065
X0069375Y0031544
X0068525Y00326
X0066723Y00322
X0066489Y0031334
X0065493Y0031211
X0065561Y0029301
X00644Y00295
X0066001Y00261
X0063275Y0025465
X00641Y00221
X0066342Y002145
X0058Y00233
X00559Y0022675
X005087Y0022906
X0050887Y0023605
X0051Y00245
X00498Y00246
X004715Y002485
X0046625Y0024075
X0046725Y0022904
X0050835Y0022201
X0051177Y002159
X00482Y0026825
X0041419Y0026372
X0040352Y0026082
X00413Y00287
X00402Y00297
X00411Y00332
X00403Y00342
X0043761Y0034816
X0043487Y0035905
X0044231Y003685
X0044805Y003759
X00465Y0036675
X0045325Y0035475
X0047226Y0034596
X0052475Y0035175
X0053748Y0034423
X0053151Y0033701
X00517Y003185
X00522Y0031211
X0051025Y0032525
X0053775Y0029675
X00571Y00301
X0058Y00292
X0056575Y0033151
X0061825Y0033075
X0062938Y0033862
X00645Y0036675
X00691Y0038125
X0068925Y0039225
X0069425Y003475
X0072675Y0033525
X00657Y004405
X00638Y00422
X0062725Y004245
X0061894Y004805
X0062818Y0050731
X0059587Y0050745
X0055762Y0050949
X0054825Y0047375
X0054035Y004805
X0057703Y0047484
X00527Y00448
X00497Y00454
X0048492Y00454
X0048291Y0043111
X0046Y00431
X004335Y004495
X004235Y00442
X00434Y00401
X00414Y00395
X00404Y00398
X00418Y00382
X00427
X0050911Y003997
X0049098Y004805
X0048456Y004863
X00438Y00481
X0043777Y0049885
X0044017Y0051266
X00409Y00498
X00522Y00519
X00524Y00529
X005035Y0055725
X00601Y00552
X0066764Y0050959
X0066614Y0047768
X007335Y00555
X00735Y00592
X0036Y00328
X0034955Y0027673
X00357Y0024
X00368Y00232
X00346Y00231
X0039Y00197
X0043Y002145
X00339Y0025624
X00337Y00288
X003108Y002834
X0030524Y0029404
X00319Y00318
X00335Y00334
X00329Y003465
X00321Y00353
X00298Y00343
X00337Y00372
X00227Y00383
X00224Y00352
X00219Y00331
Y00315
X00228Y00281
X002822Y00277
X00275Y00212
X00285Y00207
X00216Y0021
X00215Y00221
X00211Y00202
X0019Y00196
X00178
X00188Y00212
X00187Y00229
X00155Y00244
X0014Y00245
X00139Y002
X00155Y00201
X00121Y00199
X00081Y00203
X00071Y00235
X0001036Y0021795
X000205Y002625
X0002667Y0030815
X0002629Y0035197
X00075Y00331
Y00314
X00124Y00306
X00121Y00333
X00132Y00336
X00155Y00335
X00172
X00164Y00327
X00148Y00324
X0011Y00365
X00109Y00375
X00124Y003815
X0008101Y0038021
X001545Y004005
X0018232Y0037293
X00166Y0051
X0015Y00561
X00115Y00564
X00071Y0056264
X00016Y00432
X00298Y00511
X0033005Y0051995
X0029331Y0063131
X00237Y00611
X00042Y00618
X0043Y00672
X0058975Y00644
X006615Y00653
X0066825Y00657
X00681Y00666
X00682Y00681
X0072675Y0069325
X00735Y00613
X0075525Y007005
X0081Y0067975
X00823Y00677
X00843
X0082Y00636
X00859Y00621
X00871Y00594
X00917Y0061
X0089654Y0064192
X00899Y00664
X00993Y00643
T03
X009993Y002886
Y003013
Y00314
Y003267
X01012
Y00314
Y003013
Y002886
T04
X00044Y0000785
Y00024
X00045Y00039
X00047Y00056
X00048Y00073
X00046Y0009
X00029Y00084
X00013Y00083
X00014Y00102
X00031Y00103
X00029Y00064
X00012
X00011Y00046
X00029
X00061Y00008
X00079Y0001
X00096Y00009
X00097Y0003
X00118Y00009
X00138Y0001
X00155
X00173Y00011
X00193Y0001
X0021Y00011
X00225
X00242
X00246Y00029
X00227Y00032
X00231Y00052
X00239Y00068
X00232Y00087
X00218Y00076
X00206Y00087
X00197Y00071
X0021Y0006
X00204Y00043
X00207Y00026
X00188Y00031
X00169Y00029
X00153
Y00047
X0017Y00049
X00172Y00068
X00155Y00067
X0016Y00086
X00174Y00096
X00191Y001
X00185Y00083
X00189Y00052
X00205Y00111
X00219Y00102
X0024Y00104
X00229Y00117
X00236Y00135
X00235Y00154
X0025215Y00152
X00215Y00144
X00213Y00127
X00183Y00125
X00165Y00119
X00149Y00112
X00133Y00111
X00116Y00112
X00097Y00111
X00098Y00097
X00079Y00114
X0076825Y0041925
X0078525Y0042125
X0080125Y0043125
X0080425Y0045125
Y0047125
X0080125Y0048925
X0078225Y0049825
X0076025
T05
X009883Y001162
X01001
Y001289
X009883
Y001416
X01001
Y001543
X009883
Y00167
X01001
X004971Y007
Y007127
X004844
Y007
X004717
Y007127
X00459
Y007
X004463
Y007127
T06
X0100575Y003785
Y003985
T07
X004941Y0003075
X005195
X005449
X005703
X005957
X006211
X006465
X006719
X006973
X007227
X007481
X007735
X007989
X008243
X007358Y0072125
X007104
X00685
X006596
X006342
X007612
X007866
X00812
X008374
X008628
X008882
X009136
X00939
X009644
T08
X00097Y0006175
T09
X0007125Y00036
X0012275
Y000875
X0007125
T10
X00022Y00018
X010095
X0001925Y0072325
X0101Y00724
T12
X00971Y0056125
Y0060275
T13
X00886Y00056
X00926
T14
X00875Y0017925
T15
X00675Y0017925
M30
