G04*
G04 #@! TF.GenerationSoftware,Altium Limited,Altium Designer,22.5.1 (42)*
G04*
G04 Layer_Color=32896*
%FSLAX43Y43*%
%MOMM*%
G71*
G04*
G04 #@! TF.SameCoordinates,B4329D7B-D132-43AD-BD09-584EF951B7D5*
G04*
G04*
G04 #@! TF.FilePolarity,Positive*
G04*
G01*
G75*
%ADD10C,0.200*%
%ADD11C,0.254*%
%ADD12C,0.150*%
%ADD13C,0.250*%
%ADD14C,0.100*%
%ADD15C,0.127*%
%ADD201C,0.152*%
%ADD202C,0.140*%
D10*
X8725Y14075D02*
G03*
X8725Y14075I-50J0D01*
G01*
X95775Y1350D02*
G03*
X95775Y1350I-50J0D01*
G01*
X83625Y4525D02*
G03*
X83625Y4525I-50J0D01*
G01*
X83675Y21325D02*
G03*
X83675Y21325I-50J0D01*
G01*
X71975Y20650D02*
G03*
X71975Y20650I-50J0D01*
G01*
X101500Y8750D02*
G03*
X101500Y8750I-50J0D01*
G01*
X64800Y66100D02*
G03*
X64800Y66100I-50J0D01*
G01*
Y62600D02*
G03*
X64800Y62600I-50J0D01*
G01*
X58375Y36950D02*
G03*
X58375Y36950I-50J0D01*
G01*
X59675Y36550D02*
G03*
X59675Y36550I-50J0D01*
G01*
X93600Y1600D02*
G03*
X93600Y1400I0J-100D01*
G01*
D02*
G03*
X93600Y1600I0J100D01*
G01*
X97875Y20600D02*
G03*
X97875Y20600I-50J0D01*
G01*
X25650Y29375D02*
G03*
X25650Y29375I-100J0D01*
G01*
X81250Y62112D02*
G03*
X81250Y62112I-50J0D01*
G01*
X54181Y47835D02*
G03*
X54181Y47835I-100J0D01*
G01*
X22405Y29961D02*
G03*
X22405Y29961I-50J0D01*
G01*
X39039Y16909D02*
G03*
X39039Y16809I0J-50D01*
G01*
D02*
G03*
X39039Y16909I0J50D01*
G01*
D02*
G03*
X39039Y16809I0J-50D01*
G01*
X18325Y38175D02*
G03*
X18325Y38175I-50J0D01*
G01*
X3634Y27611D02*
G03*
X3634Y27611I-50J0D01*
G01*
X16550Y35300D02*
G03*
X16550Y35300I-50J0D01*
G01*
X65500Y8450D02*
G03*
X65500Y8450I-50J0D01*
G01*
X41799Y19684D02*
G03*
X41799Y19684I-50J0D01*
G01*
X43199D02*
G03*
X43199Y19684I-50J0D01*
G01*
X35099D02*
G03*
X35099Y19684I-50J0D01*
G01*
X40499D02*
G03*
X40499Y19684I-50J0D01*
G01*
X70607Y29205D02*
G03*
X70607Y29205I-27J0D01*
G01*
X58376Y47835D02*
G03*
X58376Y47835I-100J0D01*
G01*
X62831D02*
G03*
X62831Y47835I-100J0D01*
G01*
X66712D02*
G03*
X66712Y47835I-100J0D01*
G01*
X37799Y19684D02*
G03*
X37799Y19684I-50J0D01*
G01*
X36399D02*
G03*
X36399Y19684I-50J0D01*
G01*
X77600Y20700D02*
Y22100D01*
X72550Y42225D02*
X73150D01*
X74150D02*
X74750D01*
X73900Y39500D02*
Y40100D01*
X73950Y38000D02*
Y38600D01*
X61200Y39625D02*
Y40225D01*
Y38075D02*
Y38675D01*
X60825Y35100D02*
X61425D01*
X67200Y34600D02*
Y35200D01*
X69299Y14211D02*
X70699D01*
X71025Y41125D02*
Y41338D01*
X70600Y41550D02*
X70812D01*
X71025Y41338D01*
X65825Y41125D02*
Y41550D01*
X66250D01*
X71025Y36350D02*
Y36775D01*
X70600Y36350D02*
X71025D01*
X65825D02*
Y36775D01*
Y36350D02*
X66250D01*
X94700Y11100D02*
Y12500D01*
Y13200D02*
Y14600D01*
Y15200D02*
Y16600D01*
Y17200D02*
Y18600D01*
Y19200D02*
Y20600D01*
X70825Y58020D02*
X72352D01*
X72702Y58148D02*
Y63052D01*
X75898D01*
Y58148D02*
Y63052D01*
X72702Y58148D02*
X75898D01*
X85800Y63575D02*
Y64625D01*
X82850Y64975D02*
X85750D01*
X82850D02*
Y65425D01*
X85750D01*
Y64975D02*
Y65425D01*
X20873Y27858D02*
Y28458D01*
X10307Y24347D02*
X11782D01*
X12132Y24372D02*
Y29372D01*
X15832D01*
Y24372D02*
Y29372D01*
X12132Y24372D02*
X15832D01*
X27625Y33325D02*
Y33925D01*
X67100Y9650D02*
Y10250D01*
X66396Y42039D02*
Y42639D01*
X72681Y30602D02*
Y31202D01*
X80500Y58600D02*
Y59200D01*
X19100Y36350D02*
X19300D01*
X19100Y34350D02*
Y36350D01*
Y34350D02*
X19300D01*
Y36350D01*
X19650Y36525D02*
X20650D01*
X15550Y37150D02*
X15750D01*
Y39150D01*
X15550D02*
X15750D01*
X15550Y37150D02*
Y39150D01*
X14200Y36975D02*
X15200D01*
X5445Y17775D02*
Y19175D01*
D11*
X26255Y26763D02*
Y28033D01*
X26509Y28287D01*
X27017D01*
X27271Y28033D01*
Y26763D01*
X27779Y27017D02*
X28033Y26763D01*
X28541D01*
X28795Y27017D01*
Y27271D01*
X28541Y27525D01*
X28287D01*
X28541D01*
X28795Y27779D01*
Y28033D01*
X28541Y28287D01*
X28033D01*
X27779Y28033D01*
X13224Y16680D02*
Y18204D01*
X12462D01*
X12208Y17950D01*
Y17442D01*
X12462Y17188D01*
X13224D01*
X12716D02*
X12208Y16680D01*
X10939D02*
Y18204D01*
X11700Y17442D01*
X10685D01*
X10177Y16934D02*
X9923Y16680D01*
X9415D01*
X9161Y16934D01*
Y17950D01*
X9415Y18204D01*
X9923D01*
X10177Y17950D01*
Y17696D01*
X9923Y17442D01*
X9161D01*
X27638Y8754D02*
Y9262D01*
Y9008D01*
X28908D01*
X29162Y9262D01*
Y9516D01*
X28908Y9770D01*
X29162Y7230D02*
Y8246D01*
X28146Y7230D01*
X27892D01*
X27638Y7484D01*
Y7992D01*
X27892Y8246D01*
X70399Y63483D02*
X69891D01*
X70145D01*
Y61959D01*
X70399D01*
X69891D01*
X68114Y63229D02*
X68368Y63483D01*
X68876D01*
X69130Y63229D01*
Y62213D01*
X68876Y61959D01*
X68368D01*
X68114Y62213D01*
X67606Y61959D02*
X67098D01*
X67352D01*
Y63483D01*
X67606Y63229D01*
D12*
X70884Y29095D02*
G03*
X70884Y29095I-292J0D01*
G01*
X69284Y41995D02*
G03*
X69284Y41995I-392J0D01*
G01*
X62900Y7400D02*
G03*
X62900Y7400I-300J0D01*
G01*
X67550Y26450D02*
X67783D01*
X67667D01*
Y25750D01*
X67550D01*
X67783D01*
X68133D02*
Y26450D01*
X68366Y26217D01*
X68600Y26450D01*
Y25750D01*
X68833Y26450D02*
Y25867D01*
X68950Y25750D01*
X69183D01*
X69299Y25867D01*
Y26450D01*
X58350Y9050D02*
X57883D01*
X57650Y9283D01*
X57883Y9517D01*
X58350D01*
X58000D01*
Y9050D01*
X57883Y10216D02*
Y9866D01*
X58000Y9750D01*
X58233D01*
X58350Y9866D01*
Y10216D01*
X57883Y10916D02*
Y10566D01*
X58000Y10450D01*
X58233D01*
X58350Y10566D01*
Y10916D01*
Y11149D02*
Y11383D01*
Y11266D01*
X57650D01*
Y11149D01*
X58350Y11732D02*
X58233D01*
Y11849D01*
X58350D01*
Y11732D01*
X57217Y8450D02*
X56750D01*
X56517Y8683D01*
X56750Y8917D01*
X57217D01*
X56867D01*
Y8450D01*
X57217Y9150D02*
X56750D01*
Y9500D01*
X56867Y9616D01*
X57217D01*
X56750Y9966D02*
Y10199D01*
X56867Y10316D01*
X57217D01*
Y9966D01*
X57100Y9850D01*
X56983Y9966D01*
Y10316D01*
X57217Y10549D02*
Y10783D01*
Y10666D01*
X56517D01*
Y10549D01*
X57217Y11249D02*
Y11482D01*
X57100Y11599D01*
X56867D01*
X56750Y11482D01*
Y11249D01*
X56867Y11132D01*
X57100D01*
X57217Y11249D01*
X57450Y12066D02*
Y12182D01*
X57333Y12299D01*
X56750D01*
Y11949D01*
X56867Y11832D01*
X57100D01*
X57217Y11949D01*
Y12299D01*
X45766Y54997D02*
Y55463D01*
X46116D01*
Y55230D01*
Y55463D01*
X46466D01*
Y54763D02*
Y54530D01*
Y54647D01*
X45766D01*
Y54763D01*
X46000Y54064D02*
Y53830D01*
X46116Y53714D01*
X46466D01*
Y54064D01*
X46350Y54180D01*
X46233Y54064D01*
Y53714D01*
X46466Y53481D02*
Y53131D01*
X46350Y53014D01*
X46233Y53131D01*
Y53364D01*
X46116Y53481D01*
X46000Y53364D01*
Y53014D01*
X45766Y52781D02*
X46466D01*
X46116D01*
X46000Y52664D01*
Y52431D01*
X46116Y52314D01*
X46466D01*
X46583Y52081D02*
Y51614D01*
X45883Y50915D02*
X45766Y51031D01*
Y51265D01*
X45883Y51381D01*
X46350D01*
X46466Y51265D01*
Y51031D01*
X46350Y50915D01*
X45766Y50681D02*
X46466D01*
Y50215D01*
X45766Y49982D02*
X46466D01*
X46233D01*
X45766Y49515D01*
X46116Y49865D01*
X46466Y49515D01*
X48332Y54641D02*
Y55108D01*
X48682D01*
Y54874D01*
Y55108D01*
X49032D01*
Y54408D02*
Y54175D01*
Y54291D01*
X48332D01*
Y54408D01*
X48565Y53708D02*
Y53475D01*
X48682Y53358D01*
X49032D01*
Y53708D01*
X48915Y53825D01*
X48798Y53708D01*
Y53358D01*
X49032Y53125D02*
Y52775D01*
X48915Y52658D01*
X48798Y52775D01*
Y53008D01*
X48682Y53125D01*
X48565Y53008D01*
Y52658D01*
X48332Y52425D02*
X49032D01*
X48682D01*
X48565Y52308D01*
Y52075D01*
X48682Y51959D01*
X49032D01*
X49148Y51725D02*
Y51259D01*
X48332Y51026D02*
Y50792D01*
Y50909D01*
X49032D01*
Y51026D01*
Y50792D01*
X48332Y50093D02*
Y50326D01*
X48448Y50442D01*
X48915D01*
X49032Y50326D01*
Y50093D01*
X48915Y49976D01*
X48448D01*
X48332Y50093D01*
X49032Y49393D02*
X48332D01*
X48682Y49743D01*
Y49276D01*
X39538Y50052D02*
X40004D01*
Y49702D01*
X39771D01*
X40004D01*
Y49352D01*
X39304D02*
X39071D01*
X39188D01*
Y50052D01*
X39304D01*
X38605Y49819D02*
X38371D01*
X38255Y49702D01*
Y49352D01*
X38605D01*
X38721Y49469D01*
X38605Y49585D01*
X38255D01*
X38022Y49352D02*
X37672D01*
X37555Y49469D01*
X37672Y49585D01*
X37905D01*
X38022Y49702D01*
X37905Y49819D01*
X37555D01*
X37322Y50052D02*
Y49352D01*
Y49702D01*
X37205Y49819D01*
X36972D01*
X36855Y49702D01*
Y49352D01*
X36622Y49235D02*
X36155D01*
X35922Y50052D02*
X35689D01*
X35806D01*
Y49352D01*
X35922D01*
X35689D01*
X34989Y50052D02*
X35222D01*
X35339Y49935D01*
Y49469D01*
X35222Y49352D01*
X34989D01*
X34873Y49469D01*
Y49935D01*
X34989Y50052D01*
X34173D02*
X34639D01*
Y49702D01*
X34406Y49819D01*
X34289D01*
X34173Y49702D01*
Y49469D01*
X34289Y49352D01*
X34523D01*
X34639Y49469D01*
X41468Y54319D02*
X41935D01*
Y53969D01*
X41701D01*
X41935D01*
Y53619D01*
X41235D02*
X41002D01*
X41118D01*
Y54319D01*
X41235D01*
X40535Y54086D02*
X40302D01*
X40185Y53969D01*
Y53619D01*
X40535D01*
X40652Y53736D01*
X40535Y53852D01*
X40185D01*
X39952Y53619D02*
X39602D01*
X39485Y53736D01*
X39602Y53852D01*
X39835D01*
X39952Y53969D01*
X39835Y54086D01*
X39485D01*
X39252Y54319D02*
Y53619D01*
Y53969D01*
X39136Y54086D01*
X38902D01*
X38786Y53969D01*
Y53619D01*
X38552Y53503D02*
X38086D01*
X37386Y54202D02*
X37503Y54319D01*
X37736D01*
X37853Y54202D01*
Y53736D01*
X37736Y53619D01*
X37503D01*
X37386Y53736D01*
X36686Y54202D02*
X36803Y54319D01*
X37036D01*
X37153Y54202D01*
Y54086D01*
X37036Y53969D01*
X36803D01*
X36686Y53852D01*
Y53736D01*
X36803Y53619D01*
X37036D01*
X37153Y53736D01*
X82879Y29759D02*
Y30292D01*
X82346Y29759D01*
X82213D01*
X82080Y29892D01*
Y30159D01*
X82213Y30292D01*
X82879Y29492D02*
X82746D01*
Y29359D01*
X82879D01*
Y29492D01*
X82080Y28826D02*
Y28292D01*
X82213D01*
X82746Y28826D01*
X82879D01*
X82080Y28026D02*
X82613D01*
X82879Y27759D01*
X82613Y27493D01*
X82080D01*
X72330Y25457D02*
Y24757D01*
Y25457D02*
X72030D01*
X71930Y25424D01*
X71896Y25390D01*
X71863Y25324D01*
Y25257D01*
X71896Y25190D01*
X71930Y25157D01*
X72030Y25124D01*
X72330D01*
X72096D02*
X71863Y24757D01*
X71240Y25457D02*
X71573Y24757D01*
X71706Y25457D02*
X71240D01*
X70650Y25224D02*
X70683Y25124D01*
X70750Y25057D01*
X70850Y25024D01*
X70883D01*
X70983Y25057D01*
X71050Y25124D01*
X71083Y25224D01*
Y25257D01*
X71050Y25357D01*
X70983Y25424D01*
X70883Y25457D01*
X70850D01*
X70750Y25424D01*
X70683Y25357D01*
X70650Y25224D01*
Y25057D01*
X70683Y24891D01*
X70750Y24791D01*
X70850Y24757D01*
X70917D01*
X71017Y24791D01*
X71050Y24857D01*
X82032Y24111D02*
Y23411D01*
Y24111D02*
X81732D01*
X81632Y24078D01*
X81599Y24044D01*
X81566Y23978D01*
Y23911D01*
X81599Y23844D01*
X81632Y23811D01*
X81732Y23778D01*
X82032D01*
X81799D02*
X81566Y23411D01*
X80943Y24111D02*
X81276Y23411D01*
X81409Y24111D02*
X80943D01*
X80619D02*
X80719Y24078D01*
X80753Y24011D01*
Y23944D01*
X80719Y23878D01*
X80653Y23844D01*
X80519Y23811D01*
X80419Y23778D01*
X80353Y23711D01*
X80319Y23644D01*
Y23544D01*
X80353Y23478D01*
X80386Y23444D01*
X80486Y23411D01*
X80619D01*
X80719Y23444D01*
X80753Y23478D01*
X80786Y23544D01*
Y23644D01*
X80753Y23711D01*
X80686Y23778D01*
X80586Y23811D01*
X80453Y23844D01*
X80386Y23878D01*
X80353Y23944D01*
Y24011D01*
X80386Y24078D01*
X80486Y24111D01*
X80619D01*
X97323Y12376D02*
Y11676D01*
Y12376D02*
X97023D01*
X96923Y12343D01*
X96890Y12309D01*
X96857Y12243D01*
Y12176D01*
X96890Y12109D01*
X96923Y12076D01*
X97023Y12043D01*
X97323D01*
X97090D02*
X96857Y11676D01*
X96233Y12376D02*
X96567Y11676D01*
X96700Y12376D02*
X96233D01*
X95610D02*
X95943Y11676D01*
X96077Y12376D02*
X95610D01*
X96155Y6153D02*
Y5453D01*
Y6153D02*
X95855D01*
X95755Y6120D01*
X95722Y6086D01*
X95688Y6020D01*
Y5953D01*
X95722Y5886D01*
X95755Y5853D01*
X95855Y5820D01*
X96155D01*
X95922D02*
X95688Y5453D01*
X95065Y6153D02*
X95398Y5453D01*
X95532Y6153D02*
X95065D01*
X94508D02*
X94842D01*
X94875Y5853D01*
X94842Y5886D01*
X94742Y5920D01*
X94642D01*
X94542Y5886D01*
X94475Y5820D01*
X94442Y5720D01*
Y5653D01*
X94475Y5553D01*
X94542Y5487D01*
X94642Y5453D01*
X94742D01*
X94842Y5487D01*
X94875Y5520D01*
X94908Y5587D01*
X84039Y9328D02*
Y8628D01*
Y9328D02*
X83739D01*
X83639Y9295D01*
X83606Y9261D01*
X83572Y9195D01*
Y9128D01*
X83606Y9061D01*
X83639Y9028D01*
X83739Y8995D01*
X84039D01*
X83806D02*
X83572Y8628D01*
X82949Y9328D02*
X83282Y8628D01*
X83416Y9328D02*
X82949D01*
X82459D02*
X82793Y8861D01*
X82293D01*
X82459Y9328D02*
Y8628D01*
X59125Y65462D02*
X58425D01*
X59125D02*
Y65762D01*
X59092Y65862D01*
X59058Y65895D01*
X58992Y65928D01*
X58925D01*
X58858Y65895D01*
X58825Y65862D01*
X58792Y65762D01*
Y65462D01*
Y65695D02*
X58425Y65928D01*
X59025Y66485D02*
X59092Y66452D01*
X59125Y66352D01*
Y66285D01*
X59092Y66185D01*
X58992Y66118D01*
X58825Y66085D01*
X58658D01*
X58525Y66118D01*
X58458Y66185D01*
X58425Y66285D01*
Y66318D01*
X58458Y66418D01*
X58525Y66485D01*
X58625Y66518D01*
X58658D01*
X58758Y66485D01*
X58825Y66418D01*
X58858Y66318D01*
Y66285D01*
X58825Y66185D01*
X58758Y66118D01*
X58658Y66085D01*
X58992Y66672D02*
X59025Y66738D01*
X59125Y66838D01*
X58425D01*
X70653Y17888D02*
Y17188D01*
Y17888D02*
X70353D01*
X70253Y17855D01*
X70220Y17821D01*
X70187Y17755D01*
Y17688D01*
X70220Y17621D01*
X70253Y17588D01*
X70353Y17555D01*
X70653D01*
X70420D02*
X70187Y17188D01*
X69630Y17888D02*
X69963D01*
X69997Y17588D01*
X69963Y17621D01*
X69863Y17655D01*
X69763D01*
X69663Y17621D01*
X69597Y17555D01*
X69563Y17455D01*
Y17388D01*
X69597Y17288D01*
X69663Y17221D01*
X69763Y17188D01*
X69863D01*
X69963Y17221D01*
X69997Y17255D01*
X70030Y17321D01*
X68974Y17655D02*
X69007Y17555D01*
X69074Y17488D01*
X69174Y17455D01*
X69207D01*
X69307Y17488D01*
X69373Y17555D01*
X69407Y17655D01*
Y17688D01*
X69373Y17788D01*
X69307Y17855D01*
X69207Y17888D01*
X69174D01*
X69074Y17855D01*
X69007Y17788D01*
X68974Y17655D01*
Y17488D01*
X69007Y17321D01*
X69074Y17221D01*
X69174Y17188D01*
X69240D01*
X69340Y17221D01*
X69373Y17288D01*
X79772Y23933D02*
Y23233D01*
Y23933D02*
X79472D01*
X79372Y23900D01*
X79339Y23866D01*
X79305Y23800D01*
Y23733D01*
X79339Y23666D01*
X79372Y23633D01*
X79472Y23600D01*
X79772D01*
X79539D02*
X79305Y23233D01*
X78749Y23933D02*
X79082D01*
X79115Y23633D01*
X79082Y23666D01*
X78982Y23700D01*
X78882D01*
X78782Y23666D01*
X78715Y23600D01*
X78682Y23500D01*
Y23433D01*
X78715Y23333D01*
X78782Y23267D01*
X78882Y23233D01*
X78982D01*
X79082Y23267D01*
X79115Y23300D01*
X79149Y23367D01*
X78359Y23933D02*
X78459Y23900D01*
X78492Y23833D01*
Y23766D01*
X78459Y23700D01*
X78392Y23666D01*
X78259Y23633D01*
X78159Y23600D01*
X78092Y23533D01*
X78059Y23466D01*
Y23367D01*
X78092Y23300D01*
X78125Y23267D01*
X78225Y23233D01*
X78359D01*
X78459Y23267D01*
X78492Y23300D01*
X78525Y23367D01*
Y23466D01*
X78492Y23533D01*
X78425Y23600D01*
X78325Y23633D01*
X78192Y23666D01*
X78125Y23700D01*
X78092Y23766D01*
Y23833D01*
X78125Y23900D01*
X78225Y23933D01*
X78359D01*
X99913Y22308D02*
Y21608D01*
Y22308D02*
X99613D01*
X99513Y22275D01*
X99480Y22241D01*
X99447Y22175D01*
Y22108D01*
X99480Y22042D01*
X99513Y22008D01*
X99613Y21975D01*
X99913D01*
X99680D02*
X99447Y21608D01*
X98890Y22308D02*
X99223D01*
X99257Y22008D01*
X99223Y22042D01*
X99123Y22075D01*
X99023D01*
X98924Y22042D01*
X98857Y21975D01*
X98824Y21875D01*
Y21808D01*
X98857Y21708D01*
X98924Y21642D01*
X99023Y21608D01*
X99123D01*
X99223Y21642D01*
X99257Y21675D01*
X99290Y21742D01*
X98200Y22308D02*
X98534Y21608D01*
X98667Y22308D02*
X98200D01*
X91912Y19641D02*
Y18941D01*
Y19641D02*
X91612D01*
X91512Y19608D01*
X91479Y19574D01*
X91446Y19508D01*
Y19441D01*
X91479Y19375D01*
X91512Y19341D01*
X91612Y19308D01*
X91912D01*
X91679D02*
X91446Y18941D01*
X90889Y19641D02*
X91222D01*
X91256Y19341D01*
X91222Y19375D01*
X91122Y19408D01*
X91022D01*
X90923Y19375D01*
X90856Y19308D01*
X90823Y19208D01*
Y19141D01*
X90856Y19041D01*
X90923Y18975D01*
X91022Y18941D01*
X91122D01*
X91222Y18975D01*
X91256Y19008D01*
X91289Y19075D01*
X90266Y19541D02*
X90299Y19608D01*
X90399Y19641D01*
X90466D01*
X90566Y19608D01*
X90633Y19508D01*
X90666Y19341D01*
Y19175D01*
X90633Y19041D01*
X90566Y18975D01*
X90466Y18941D01*
X90433D01*
X90333Y18975D01*
X90266Y19041D01*
X90233Y19141D01*
Y19175D01*
X90266Y19275D01*
X90333Y19341D01*
X90433Y19375D01*
X90466D01*
X90566Y19341D01*
X90633Y19275D01*
X90666Y19175D01*
X91912Y18473D02*
Y17773D01*
Y18473D02*
X91612D01*
X91512Y18439D01*
X91479Y18406D01*
X91446Y18339D01*
Y18273D01*
X91479Y18206D01*
X91512Y18173D01*
X91612Y18139D01*
X91912D01*
X91679D02*
X91446Y17773D01*
X90889Y18473D02*
X91222D01*
X91256Y18173D01*
X91222Y18206D01*
X91122Y18239D01*
X91022D01*
X90923Y18206D01*
X90856Y18139D01*
X90823Y18039D01*
Y17973D01*
X90856Y17873D01*
X90923Y17806D01*
X91022Y17773D01*
X91122D01*
X91222Y17806D01*
X91256Y17840D01*
X91289Y17906D01*
X90266Y18473D02*
X90599D01*
X90633Y18173D01*
X90599Y18206D01*
X90499Y18239D01*
X90399D01*
X90299Y18206D01*
X90233Y18139D01*
X90199Y18039D01*
Y17973D01*
X90233Y17873D01*
X90299Y17806D01*
X90399Y17773D01*
X90499D01*
X90599Y17806D01*
X90633Y17840D01*
X90666Y17906D01*
X91912Y17330D02*
Y16630D01*
Y17330D02*
X91612D01*
X91512Y17296D01*
X91479Y17263D01*
X91446Y17196D01*
Y17130D01*
X91479Y17063D01*
X91512Y17030D01*
X91612Y16996D01*
X91912D01*
X91679D02*
X91446Y16630D01*
X90889Y17330D02*
X91222D01*
X91256Y17030D01*
X91222Y17063D01*
X91122Y17096D01*
X91022D01*
X90923Y17063D01*
X90856Y16996D01*
X90823Y16896D01*
Y16830D01*
X90856Y16730D01*
X90923Y16663D01*
X91022Y16630D01*
X91122D01*
X91222Y16663D01*
X91256Y16697D01*
X91289Y16763D01*
X90333Y17330D02*
X90666Y16863D01*
X90166D01*
X90333Y17330D02*
Y16630D01*
X91912Y16212D02*
Y15512D01*
Y16212D02*
X91612D01*
X91512Y16179D01*
X91479Y16145D01*
X91446Y16079D01*
Y16012D01*
X91479Y15946D01*
X91512Y15912D01*
X91612Y15879D01*
X91912D01*
X91679D02*
X91446Y15512D01*
X90889Y16212D02*
X91222D01*
X91256Y15912D01*
X91222Y15946D01*
X91122Y15979D01*
X91022D01*
X90923Y15946D01*
X90856Y15879D01*
X90823Y15779D01*
Y15712D01*
X90856Y15612D01*
X90923Y15546D01*
X91022Y15512D01*
X91122D01*
X91222Y15546D01*
X91256Y15579D01*
X91289Y15646D01*
X90599Y16212D02*
X90233D01*
X90433Y15946D01*
X90333D01*
X90266Y15912D01*
X90233Y15879D01*
X90199Y15779D01*
Y15712D01*
X90233Y15612D01*
X90299Y15546D01*
X90399Y15512D01*
X90499D01*
X90599Y15546D01*
X90633Y15579D01*
X90666Y15646D01*
X91912Y15018D02*
Y14318D01*
Y15018D02*
X91612D01*
X91512Y14985D01*
X91479Y14952D01*
X91446Y14885D01*
Y14818D01*
X91479Y14752D01*
X91512Y14718D01*
X91612Y14685D01*
X91912D01*
X91679D02*
X91446Y14318D01*
X90889Y15018D02*
X91222D01*
X91256Y14718D01*
X91222Y14752D01*
X91122Y14785D01*
X91022D01*
X90923Y14752D01*
X90856Y14685D01*
X90823Y14585D01*
Y14518D01*
X90856Y14418D01*
X90923Y14352D01*
X91022Y14318D01*
X91122D01*
X91222Y14352D01*
X91256Y14385D01*
X91289Y14452D01*
X90633Y14852D02*
Y14885D01*
X90599Y14952D01*
X90566Y14985D01*
X90499Y15018D01*
X90366D01*
X90299Y14985D01*
X90266Y14952D01*
X90233Y14885D01*
Y14818D01*
X90266Y14752D01*
X90333Y14652D01*
X90666Y14318D01*
X90199D01*
X97045Y8043D02*
X96511D01*
X96411Y8010D01*
X96378Y7977D01*
X96345Y7910D01*
Y7844D01*
X96378Y7777D01*
X96411Y7744D01*
X96511Y7710D01*
X96578D01*
X97045Y8557D02*
X96578Y8223D01*
Y8723D01*
X97045Y8557D02*
X96345D01*
X88789Y62047D02*
X88489D01*
X88389Y62081D01*
X88356Y62114D01*
X88322Y62181D01*
Y62281D01*
X88356Y62347D01*
X88389Y62381D01*
X88489Y62414D01*
X88789D01*
Y61714D01*
X87699Y62314D02*
X87766Y62381D01*
X87866Y62414D01*
X87999D01*
X88099Y62381D01*
X88166Y62314D01*
Y62247D01*
X88132Y62181D01*
X88099Y62147D01*
X88032Y62114D01*
X87832Y62047D01*
X87766Y62014D01*
X87732Y61981D01*
X87699Y61914D01*
Y61814D01*
X87766Y61748D01*
X87866Y61714D01*
X87999D01*
X88099Y61748D01*
X88166Y61814D01*
X87542Y62281D02*
X87476Y62314D01*
X87376Y62414D01*
Y61714D01*
X5952Y11234D02*
X5485Y10534D01*
Y11234D02*
X5952Y10534D01*
X5262Y11234D02*
X4895D01*
X5095Y10967D01*
X4995D01*
X4929Y10934D01*
X4895Y10900D01*
X4862Y10800D01*
Y10734D01*
X4895Y10634D01*
X4962Y10567D01*
X5062Y10534D01*
X5162D01*
X5262Y10567D01*
X5295Y10601D01*
X5329Y10667D01*
X65228Y41155D02*
Y40655D01*
X65195Y40555D01*
X65128Y40488D01*
X65028Y40455D01*
X64962D01*
X64862Y40488D01*
X64795Y40555D01*
X64762Y40655D01*
Y41155D01*
X64535Y40988D02*
Y41022D01*
X64502Y41088D01*
X64469Y41122D01*
X64402Y41155D01*
X64269D01*
X64202Y41122D01*
X64169Y41088D01*
X64135Y41022D01*
Y40955D01*
X64169Y40888D01*
X64235Y40788D01*
X64569Y40455D01*
X64102D01*
X16582Y30584D02*
Y29884D01*
X15936Y30417D02*
X15969Y30484D01*
X16036Y30550D01*
X16102Y30584D01*
X16236D01*
X16302Y30550D01*
X16369Y30484D01*
X16402Y30417D01*
X16436Y30317D01*
Y30150D01*
X16402Y30050D01*
X16369Y29984D01*
X16302Y29917D01*
X16236Y29884D01*
X16102D01*
X16036Y29917D01*
X15969Y29984D01*
X15936Y30050D01*
X15706Y30417D02*
Y30450D01*
X15673Y30517D01*
X15639Y30550D01*
X15573Y30584D01*
X15439D01*
X15373Y30550D01*
X15339Y30517D01*
X15306Y30450D01*
Y30384D01*
X15339Y30317D01*
X15406Y30217D01*
X15739Y29884D01*
X15273D01*
X79800Y61682D02*
X80500D01*
X79800D02*
Y61382D01*
X79833Y61282D01*
X79867Y61249D01*
X79933Y61216D01*
X80000D01*
X80067Y61249D01*
X80100Y61282D01*
X80133Y61382D01*
Y61682D01*
Y61449D02*
X80500Y61216D01*
X79800Y60893D02*
X79833Y60993D01*
X79900Y61026D01*
X79967D01*
X80033Y60993D01*
X80067Y60926D01*
X80100Y60793D01*
X80133Y60693D01*
X80200Y60626D01*
X80267Y60593D01*
X80367D01*
X80433Y60626D01*
X80467Y60659D01*
X80500Y60759D01*
Y60893D01*
X80467Y60993D01*
X80433Y61026D01*
X80367Y61059D01*
X80267D01*
X80200Y61026D01*
X80133Y60959D01*
X80100Y60859D01*
X80067Y60726D01*
X80033Y60659D01*
X79967Y60626D01*
X79900D01*
X79833Y60659D01*
X79800Y60759D01*
Y60893D01*
X72075Y30550D02*
Y29967D01*
X71958Y29850D01*
X71725D01*
X71608Y29967D01*
Y30550D01*
X71375Y29850D02*
X71142D01*
X71258D01*
Y30550D01*
X71375Y30433D01*
X70792D02*
X70675Y30550D01*
X70442D01*
X70325Y30433D01*
Y29967D01*
X70442Y29850D01*
X70675D01*
X70792Y29967D01*
Y30433D01*
X21242Y34333D02*
X21708D01*
X21825Y34217D01*
Y33983D01*
X21708Y33867D01*
X21242D01*
X21125Y33983D01*
Y34217D01*
X21358Y34100D02*
X21125Y34333D01*
Y34217D02*
X21242Y34333D01*
Y34567D02*
X21125Y34683D01*
Y34917D01*
X21242Y35033D01*
X21708D01*
X21825Y34917D01*
Y34683D01*
X21708Y34567D01*
X21592D01*
X21475Y34683D01*
Y35033D01*
X13583Y38542D02*
X13117D01*
X13000Y38658D01*
Y38892D01*
X13117Y39008D01*
X13583D01*
X13700Y38892D01*
Y38658D01*
X13467Y38775D02*
X13700Y38542D01*
Y38658D02*
X13583Y38542D01*
X13000Y37842D02*
Y38308D01*
X13350D01*
X13233Y38075D01*
Y37958D01*
X13350Y37842D01*
X13583D01*
X13700Y37958D01*
Y38192D01*
X13583Y38308D01*
X2828Y18133D02*
X2945Y18017D01*
Y17784D01*
X2828Y17667D01*
X2362D01*
X2245Y17784D01*
Y18017D01*
X2362Y18133D01*
X2245Y18717D02*
X2945D01*
X2595Y18367D01*
Y18833D01*
X2945Y19533D02*
Y19067D01*
X2595D01*
X2712Y19300D01*
Y19416D01*
X2595Y19533D01*
X2362D01*
X2245Y19416D01*
Y19183D01*
X2362Y19067D01*
X63633Y6850D02*
Y7433D01*
X63750Y7550D01*
X63983D01*
X64100Y7433D01*
Y6850D01*
X64333Y7550D02*
X64567D01*
X64450D01*
Y6850D01*
X64333Y6967D01*
D13*
X69050Y41840D02*
G03*
X69050Y41840I-125J0D01*
G01*
X90945Y56992D02*
G03*
X90945Y56992I-125J0D01*
G01*
D14*
X87315Y27225D02*
G03*
X87315Y27325I0J50D01*
G01*
D02*
G03*
X87315Y27225I0J-50D01*
G01*
X70398Y28902D02*
X70798Y29302D01*
X70300Y29095D02*
X70900D01*
X70592Y28800D02*
Y29400D01*
X70394Y29294D02*
X70794Y28894D01*
X68492Y41995D02*
X69292D01*
X68892Y41595D02*
Y42395D01*
X68598Y41702D02*
X69148Y42252D01*
X68644Y42244D02*
X69144Y41744D01*
X62400Y7600D02*
X62800Y7200D01*
X62400Y7200D02*
X62800Y7600D01*
X62600Y7100D02*
Y7700D01*
X62300Y7400D02*
X62900D01*
X56300Y33275D02*
X61675D01*
X71450Y44400D02*
X71975D01*
X71400Y44350D02*
X71450Y44400D01*
X71400Y43300D02*
Y44350D01*
Y40725D02*
Y41025D01*
Y40150D02*
Y40575D01*
Y42250D02*
Y43300D01*
Y40575D02*
Y40725D01*
Y39575D02*
Y40150D01*
Y41025D02*
Y42250D01*
X56300Y33275D02*
Y39675D01*
X56925Y40300D01*
X59650D01*
X8500Y2675D02*
X10900D01*
X13200Y4975D02*
Y7375D01*
X8500Y9675D02*
X10900D01*
X6200Y4975D02*
Y7375D01*
X83868Y7607D02*
X85239D01*
X84680Y16726D02*
X85696D01*
X93024Y9398D01*
X82191Y7607D02*
X83868D01*
X80794Y9004D02*
X82191Y7607D01*
X80794Y9004D02*
Y16726D01*
X84680D01*
X89786Y20129D02*
Y21399D01*
X96517D01*
X97177Y20739D01*
Y10401D02*
Y20739D01*
X92351Y10401D02*
X97177D01*
X89786Y12967D02*
X92351Y10401D01*
X89786Y12967D02*
Y20917D01*
X85275Y2600D02*
Y8750D01*
X95925Y2450D02*
Y8750D01*
X34300Y25900D02*
Y26300D01*
Y31600D01*
X19500Y23500D02*
Y26100D01*
X20100Y31300D02*
X24900D01*
X19500Y30700D02*
X20100Y31300D01*
X19500Y29800D02*
Y30700D01*
X22700Y24200D02*
X24600D01*
X24900Y24500D01*
Y31300D01*
X19500Y26100D02*
Y29800D01*
X22150Y23450D02*
X22700Y24200D01*
X30099Y16009D02*
X42349D01*
X30099D02*
X42349D01*
X30099Y809D02*
Y12659D01*
Y809D02*
Y12659D01*
Y809D02*
X30599D01*
X30099D02*
X30599D01*
X33599D02*
X36349D01*
X33599D02*
X36349D01*
X39349D02*
X44099D01*
X39349D02*
X44099D01*
Y13909D01*
Y809D02*
Y13909D01*
X74341Y45721D02*
X74258Y45637D01*
Y45471D01*
X74341Y45387D01*
X74424D01*
X74507Y45471D01*
Y45637D01*
X74591Y45721D01*
X74674D01*
X74757Y45637D01*
Y45471D01*
X74674Y45387D01*
X74757Y45887D02*
X74258D01*
Y46137D01*
X74341Y46220D01*
X74507D01*
X74591Y46137D01*
Y45887D01*
X74258Y46387D02*
Y46554D01*
Y46470D01*
X74757D01*
Y46387D01*
Y46554D01*
X74341Y46804D02*
X74258Y46887D01*
Y47053D01*
X74341Y47137D01*
X74424D01*
X74507Y47053D01*
Y46970D01*
Y47053D01*
X74591Y47137D01*
X74674D01*
X74757Y47053D01*
Y46887D01*
X74674Y46804D01*
X77008Y38122D02*
X77092Y38039D01*
X77258D01*
X77342Y38122D01*
Y38205D01*
X77258Y38289D01*
X77092D01*
X77008Y38372D01*
Y38455D01*
X77092Y38539D01*
X77258D01*
X77342Y38455D01*
X76842Y38539D02*
Y38039D01*
X76592D01*
X76509Y38122D01*
Y38289D01*
X76592Y38372D01*
X76842D01*
X76342Y38039D02*
X76175D01*
X76259D01*
Y38539D01*
X76342D01*
X76175D01*
X75925Y38122D02*
X75842Y38039D01*
X75675D01*
X75592Y38122D01*
Y38205D01*
X75675Y38289D01*
X75759D01*
X75675D01*
X75592Y38372D01*
Y38455D01*
X75675Y38539D01*
X75842D01*
X75925Y38455D01*
X72400Y43900D02*
Y44067D01*
Y43983D01*
X72900D01*
Y43900D01*
Y44067D01*
Y44650D02*
Y44317D01*
X72567Y44650D01*
X72483D01*
X72400Y44566D01*
Y44400D01*
X72483Y44317D01*
Y45150D02*
X72400Y45066D01*
Y44900D01*
X72483Y44816D01*
X72817D01*
X72900Y44900D01*
Y45066D01*
X72817Y45150D01*
X66508Y33142D02*
X66425Y33225D01*
X66258D01*
X66175Y33142D01*
Y33058D01*
X66258Y32975D01*
X66425D01*
X66508Y32892D01*
Y32808D01*
X66425Y32725D01*
X66258D01*
X66175Y32808D01*
X66675Y32725D02*
Y33225D01*
X66925D01*
X67008Y33142D01*
Y32975D01*
X66925Y32892D01*
X66675D01*
X67175Y33225D02*
X67341D01*
X67258D01*
Y32725D01*
X67175D01*
X67341D01*
X67591Y33142D02*
X67675Y33225D01*
X67841D01*
X67924Y33142D01*
Y33058D01*
X67841Y32975D01*
X67758D01*
X67841D01*
X67924Y32892D01*
Y32808D01*
X67841Y32725D01*
X67675D01*
X67591Y32808D01*
X63883Y37783D02*
X63800Y37700D01*
Y37533D01*
X63883Y37450D01*
X63967D01*
X64050Y37533D01*
Y37700D01*
X64133Y37783D01*
X64217D01*
X64300Y37700D01*
Y37533D01*
X64217Y37450D01*
X64300Y37950D02*
X63800D01*
Y38200D01*
X63883Y38283D01*
X64050D01*
X64133Y38200D01*
Y37950D01*
X63800Y38450D02*
Y38616D01*
Y38533D01*
X64300D01*
Y38450D01*
Y38616D01*
X63883Y38866D02*
X63800Y38950D01*
Y39116D01*
X63883Y39199D01*
X63967D01*
X64050Y39116D01*
Y39033D01*
Y39116D01*
X64133Y39199D01*
X64217D01*
X64300Y39116D01*
Y38950D01*
X64217Y38866D01*
X84686Y16306D02*
X85186D01*
Y16056D01*
X85102Y15972D01*
X84936D01*
X84853Y16056D01*
Y16306D01*
Y16139D02*
X84686Y15972D01*
X85102Y15473D02*
X85186Y15556D01*
Y15722D01*
X85102Y15806D01*
X85019D01*
X84936Y15722D01*
Y15556D01*
X84853Y15473D01*
X84769D01*
X84686Y15556D01*
Y15722D01*
X84769Y15806D01*
X85186Y15306D02*
Y14973D01*
Y15139D01*
X84686D01*
X84603Y14806D02*
Y14473D01*
X85102Y13973D02*
X85186Y14056D01*
Y14223D01*
X85102Y14306D01*
X84769D01*
X84686Y14223D01*
Y14056D01*
X84769Y13973D01*
X84936D01*
Y14140D01*
X84686Y13806D02*
X85019D01*
X85186Y13640D01*
X85019Y13473D01*
X84686D01*
X84936D01*
Y13806D01*
X84686Y13307D02*
X85186D01*
Y13057D01*
X85102Y12973D01*
X84936D01*
X84853Y13057D01*
Y13307D01*
X84094Y16306D02*
X83677D01*
X83594Y16222D01*
Y16056D01*
X83677Y15972D01*
X84094D01*
X83594Y15806D02*
X83927D01*
X84094Y15639D01*
X83927Y15473D01*
X83594D01*
X83844D01*
Y15806D01*
X83594Y15306D02*
X84094D01*
Y15056D01*
X84010Y14973D01*
X83844D01*
X83760Y15056D01*
Y15306D01*
Y15139D02*
X83594Y14973D01*
X84094Y14806D02*
Y14473D01*
Y14639D01*
X83594D01*
X84010Y14306D02*
X84094Y14223D01*
Y14056D01*
X84010Y13973D01*
X83677D01*
X83594Y14056D01*
Y14223D01*
X83677Y14306D01*
X84010D01*
X83510Y13806D02*
Y13473D01*
X83594Y13307D02*
X84094D01*
Y13057D01*
X84010Y12973D01*
X83844D01*
X83760Y13057D01*
Y13307D01*
Y13140D02*
X83594Y12973D01*
X83927Y12807D02*
X83594Y12474D01*
X83760Y12640D01*
X83927Y12474D01*
X83594Y12807D01*
X83027Y16306D02*
X82610D01*
X82527Y16222D01*
Y16056D01*
X82610Y15972D01*
X83027D01*
X82527Y15806D02*
X82860D01*
X83027Y15639D01*
X82860Y15473D01*
X82527D01*
X82777D01*
Y15806D01*
X82527Y15306D02*
X83027D01*
Y15056D01*
X82943Y14973D01*
X82777D01*
X82694Y15056D01*
Y15306D01*
Y15139D02*
X82527Y14973D01*
X83027Y14806D02*
Y14473D01*
Y14639D01*
X82527D01*
X82943Y14306D02*
X83027Y14223D01*
Y14056D01*
X82943Y13973D01*
X82610D01*
X82527Y14056D01*
Y14223D01*
X82610Y14306D01*
X82943D01*
X82444Y13806D02*
Y13473D01*
X83027Y13307D02*
Y12973D01*
Y13140D01*
X82527D01*
X82860Y12807D02*
X82527Y12474D01*
X82694Y12640D01*
X82860Y12474D01*
X82527Y12807D01*
X81775Y15972D02*
X81858Y16056D01*
Y16222D01*
X81775Y16306D01*
X81442D01*
X81358Y16222D01*
Y16056D01*
X81442Y15972D01*
X81608D01*
Y16139D01*
X81358Y15806D02*
X81858D01*
Y15556D01*
X81775Y15473D01*
X81608D01*
X81525Y15556D01*
Y15806D01*
X81858Y15306D02*
Y15139D01*
Y15223D01*
X81358D01*
Y15306D01*
Y15139D01*
X81858Y14639D02*
Y14806D01*
X81775Y14889D01*
X81442D01*
X81358Y14806D01*
Y14639D01*
X81442Y14556D01*
X81775D01*
X81858Y14639D01*
X81275Y14390D02*
Y14056D01*
X81358Y13640D02*
X81858D01*
X81608Y13890D01*
Y13556D01*
X81358Y13140D02*
X81858D01*
X81608Y13390D01*
Y13057D01*
X84494Y11110D02*
X84411Y11026D01*
Y10860D01*
X84494Y10776D01*
X84827D01*
X84911Y10860D01*
Y11026D01*
X84827Y11110D01*
X84661D01*
Y10943D01*
X84911Y11276D02*
X84411D01*
X84911Y11609D01*
X84411D01*
Y11776D02*
X84911D01*
Y12026D01*
X84827Y12109D01*
X84494D01*
X84411Y12026D01*
Y11776D01*
X83413Y8444D02*
Y8610D01*
Y8527D01*
X83913D01*
Y8444D01*
Y8610D01*
Y9194D02*
Y8860D01*
X83580Y9194D01*
X83496D01*
X83413Y9110D01*
Y8944D01*
X83496Y8860D01*
Y9693D02*
X83413Y9610D01*
Y9443D01*
X83496Y9360D01*
X83830D01*
X83913Y9443D01*
Y9610D01*
X83830Y9693D01*
X83913Y9860D02*
Y10027D01*
Y9943D01*
X83413D01*
X83496Y9860D01*
X83996Y10277D02*
Y10610D01*
X83496Y11110D02*
X83413Y11026D01*
Y10860D01*
X83496Y10776D01*
X83580D01*
X83663Y10860D01*
Y11026D01*
X83746Y11110D01*
X83830D01*
X83913Y11026D01*
Y10860D01*
X83830Y10776D01*
X83413Y11276D02*
X83913D01*
Y11526D01*
X83830Y11609D01*
X83496D01*
X83413Y11526D01*
Y11276D01*
X83913Y11776D02*
X83580D01*
X83413Y11943D01*
X83580Y12109D01*
X83913D01*
X83663D01*
Y11776D01*
X82422Y8444D02*
Y8610D01*
Y8527D01*
X82922D01*
Y8444D01*
Y8610D01*
Y9194D02*
Y8860D01*
X82589Y9194D01*
X82506D01*
X82422Y9110D01*
Y8944D01*
X82506Y8860D01*
Y9693D02*
X82422Y9610D01*
Y9443D01*
X82506Y9360D01*
X82839D01*
X82922Y9443D01*
Y9610D01*
X82839Y9693D01*
X82922Y9860D02*
Y10027D01*
Y9943D01*
X82422D01*
X82506Y9860D01*
X83006Y10277D02*
Y10610D01*
X82506Y11110D02*
X82422Y11026D01*
Y10860D01*
X82506Y10776D01*
X82589D01*
X82672Y10860D01*
Y11026D01*
X82756Y11110D01*
X82839D01*
X82922Y11026D01*
Y10860D01*
X82839Y10776D01*
X82506Y11609D02*
X82422Y11526D01*
Y11360D01*
X82506Y11276D01*
X82839D01*
X82922Y11360D01*
Y11526D01*
X82839Y11609D01*
X82422Y11776D02*
X82922D01*
Y12109D01*
X81464Y9194D02*
X81381Y9110D01*
Y8944D01*
X81464Y8860D01*
X81798D01*
X81881Y8944D01*
Y9110D01*
X81798Y9194D01*
X81631D01*
Y9027D01*
X81881Y9360D02*
X81381D01*
Y9610D01*
X81464Y9693D01*
X81631D01*
X81714Y9610D01*
Y9360D01*
X81381Y9860D02*
Y10027D01*
Y9943D01*
X81881D01*
Y9860D01*
Y10027D01*
X81381Y10526D02*
Y10360D01*
X81464Y10277D01*
X81798D01*
X81881Y10360D01*
Y10526D01*
X81798Y10610D01*
X81464D01*
X81381Y10526D01*
X81964Y10776D02*
Y11110D01*
X81881Y11526D02*
X81381D01*
X81631Y11276D01*
Y11609D01*
X81381Y12109D02*
Y11776D01*
X81631D01*
X81548Y11943D01*
Y12026D01*
X81631Y12109D01*
X81798D01*
X81881Y12026D01*
Y11859D01*
X81798Y11776D01*
X67200Y44267D02*
Y43867D01*
X67400D01*
X67467Y43933D01*
Y44000D01*
X67400Y44067D01*
X67200D01*
X67400D01*
X67467Y44133D01*
Y44200D01*
X67400Y44267D01*
X67200D01*
X67866D02*
X67600D01*
Y43867D01*
X67866D01*
X67600Y44067D02*
X67733D01*
X68000Y43867D02*
Y44267D01*
X68200D01*
X68266Y44200D01*
Y44067D01*
X68200Y44000D01*
X68000D01*
X68133D02*
X68266Y43867D01*
X68400Y44267D02*
Y43867D01*
Y44000D01*
X68666Y44267D01*
X68466Y44067D01*
X68666Y43867D01*
X68799Y43800D02*
X69066D01*
X69199Y44200D02*
X69266Y44267D01*
X69399D01*
X69466Y44200D01*
Y44133D01*
X69399Y44067D01*
X69333D01*
X69399D01*
X69466Y44000D01*
Y43933D01*
X69399Y43867D01*
X69266D01*
X69199Y43933D01*
X69599Y44267D02*
Y44000D01*
X69733Y43867D01*
X69866Y44000D01*
Y44267D01*
X69999Y44200D02*
X70066Y44267D01*
X70199D01*
X70266Y44200D01*
Y44133D01*
X70199Y44067D01*
X70132D01*
X70199D01*
X70266Y44000D01*
Y43933D01*
X70199Y43867D01*
X70066D01*
X69999Y43933D01*
X68542Y46200D02*
X68475Y46267D01*
X68342D01*
X68275Y46200D01*
Y45933D01*
X68342Y45867D01*
X68475D01*
X68542Y45933D01*
X68941Y46200D02*
X68875Y46267D01*
X68742D01*
X68675Y46200D01*
Y46133D01*
X68742Y46067D01*
X68875D01*
X68941Y46000D01*
Y45933D01*
X68875Y45867D01*
X68742D01*
X68675Y45933D01*
X69075Y45800D02*
X69341D01*
X69475Y46267D02*
Y45867D01*
X69675D01*
X69741Y45933D01*
Y46000D01*
X69675Y46067D01*
X69475D01*
X69675D01*
X69741Y46133D01*
Y46200D01*
X69675Y46267D01*
X69475D01*
X70141D02*
X69874D01*
Y45867D01*
X70141D01*
X69874Y46067D02*
X70008D01*
X70274Y45867D02*
Y46267D01*
X70474D01*
X70541Y46200D01*
Y46067D01*
X70474Y46000D01*
X70274D01*
X70408D02*
X70541Y45867D01*
X70674Y46267D02*
Y45867D01*
Y46000D01*
X70941Y46267D01*
X70741Y46067D01*
X70941Y45867D01*
X63600Y27500D02*
X63733D01*
X63667D01*
Y27100D01*
X63600D01*
X63733D01*
X63933D02*
Y27500D01*
X64200Y27100D01*
Y27500D01*
X64333D02*
X64600D01*
X64466D01*
Y27100D01*
X65020Y34127D02*
X64953Y34060D01*
Y33927D01*
X65020Y33860D01*
X65087D01*
X65153Y33927D01*
Y34060D01*
X65220Y34127D01*
X65287D01*
X65353Y34060D01*
Y33927D01*
X65287Y33860D01*
X65353Y34260D02*
X64953D01*
Y34460D01*
X65020Y34526D01*
X65153D01*
X65220Y34460D01*
Y34260D01*
X64953Y34660D02*
Y34793D01*
Y34726D01*
X65353D01*
Y34660D01*
Y34793D01*
X65020Y34993D02*
X64953Y35060D01*
Y35193D01*
X65020Y35260D01*
X65087D01*
X65153Y35193D01*
Y35126D01*
Y35193D01*
X65220Y35260D01*
X65287D01*
X65353Y35193D01*
Y35060D01*
X65287Y34993D01*
X65420Y35393D02*
Y35659D01*
X65353Y35793D02*
X64953D01*
X65087Y35926D01*
X64953Y36059D01*
X65353D01*
X64953Y36393D02*
Y36259D01*
X65020Y36193D01*
X65287D01*
X65353Y36259D01*
Y36393D01*
X65287Y36459D01*
X65020D01*
X64953Y36393D01*
X65020Y36859D02*
X64953Y36792D01*
Y36659D01*
X65020Y36592D01*
X65087D01*
X65153Y36659D01*
Y36792D01*
X65220Y36859D01*
X65287D01*
X65353Y36792D01*
Y36659D01*
X65287Y36592D01*
X64953Y36992D02*
Y37126D01*
Y37059D01*
X65353D01*
Y36992D01*
Y37126D01*
X52317Y33150D02*
X52250Y33217D01*
X52117D01*
X52050Y33150D01*
Y33083D01*
X52117Y33017D01*
X52250D01*
X52317Y32950D01*
Y32883D01*
X52250Y32817D01*
X52117D01*
X52050Y32883D01*
X52450Y32817D02*
Y33217D01*
X52650D01*
X52716Y33150D01*
Y33017D01*
X52650Y32950D01*
X52450D01*
X52850Y33217D02*
X52983D01*
X52916D01*
Y32817D01*
X52850D01*
X52983D01*
X53183Y33150D02*
X53250Y33217D01*
X53383D01*
X53450Y33150D01*
Y33083D01*
X53383Y33017D01*
X53316D01*
X53383D01*
X53450Y32950D01*
Y32883D01*
X53383Y32817D01*
X53250D01*
X53183Y32883D01*
X53583Y32750D02*
X53849D01*
X54249Y33150D02*
X54183Y33217D01*
X54049D01*
X53983Y33150D01*
Y32883D01*
X54049Y32817D01*
X54183D01*
X54249Y32883D01*
X54383Y33217D02*
Y32817D01*
X54649D01*
X54782Y33217D02*
Y32817D01*
Y32950D01*
X55049Y33217D01*
X54849Y33017D01*
X55049Y32817D01*
X70270Y32697D02*
X70203Y32630D01*
Y32497D01*
X70270Y32430D01*
X70337D01*
X70403Y32497D01*
Y32630D01*
X70470Y32697D01*
X70537D01*
X70603Y32630D01*
Y32497D01*
X70537Y32430D01*
X70603Y32830D02*
X70203D01*
Y33030D01*
X70270Y33096D01*
X70403D01*
X70470Y33030D01*
Y32830D01*
X70203Y33230D02*
Y33363D01*
Y33296D01*
X70603D01*
Y33230D01*
Y33363D01*
X70270Y33563D02*
X70203Y33630D01*
Y33763D01*
X70270Y33830D01*
X70337D01*
X70403Y33763D01*
Y33696D01*
Y33763D01*
X70470Y33830D01*
X70537D01*
X70603Y33763D01*
Y33630D01*
X70537Y33563D01*
X70670Y33963D02*
Y34229D01*
X70603Y34363D02*
X70203D01*
X70337Y34496D01*
X70203Y34629D01*
X70603D01*
X70203Y34763D02*
Y34896D01*
Y34829D01*
X70603D01*
Y34763D01*
Y34896D01*
X70270Y35362D02*
X70203Y35296D01*
Y35162D01*
X70270Y35096D01*
X70337D01*
X70403Y35162D01*
Y35296D01*
X70470Y35362D01*
X70537D01*
X70603Y35296D01*
Y35162D01*
X70537Y35096D01*
X70203Y35696D02*
Y35562D01*
X70270Y35496D01*
X70537D01*
X70603Y35562D01*
Y35696D01*
X70537Y35762D01*
X70270D01*
X70203Y35696D01*
X71825Y40462D02*
X72325D01*
X71825D02*
Y40248D01*
X71849Y40176D01*
X71873Y40152D01*
X71920Y40129D01*
X71968D01*
X72015Y40152D01*
X72039Y40176D01*
X72063Y40248D01*
Y40462D01*
Y40295D02*
X72325Y40129D01*
X71825Y39683D02*
X72325Y39921D01*
X71825Y40017D02*
Y39683D01*
Y39524D02*
Y39262D01*
X72015Y39405D01*
Y39333D01*
X72039Y39286D01*
X72063Y39262D01*
X72135Y39238D01*
X72182D01*
X72254Y39262D01*
X72301Y39310D01*
X72325Y39381D01*
Y39452D01*
X72301Y39524D01*
X72277Y39548D01*
X72230Y39571D01*
X62075Y35987D02*
X62575D01*
X62075D02*
Y35773D01*
X62099Y35701D01*
X62123Y35677D01*
X62170Y35654D01*
X62218D01*
X62265Y35677D01*
X62289Y35701D01*
X62313Y35773D01*
Y35987D01*
Y35820D02*
X62575Y35654D01*
X62075Y35208D02*
X62575Y35446D01*
X62075Y35542D02*
Y35208D01*
X62194Y35073D02*
X62170D01*
X62123Y35049D01*
X62099Y35025D01*
X62075Y34977D01*
Y34882D01*
X62099Y34835D01*
X62123Y34811D01*
X62170Y34787D01*
X62218D01*
X62265Y34811D01*
X62337Y34858D01*
X62575Y35096D01*
Y34763D01*
X63025Y40630D02*
X63525D01*
X63025D02*
Y40415D01*
X63049Y40344D01*
X63073Y40320D01*
X63120Y40296D01*
X63168D01*
X63215Y40320D01*
X63239Y40344D01*
X63263Y40415D01*
Y40630D01*
Y40463D02*
X63525Y40296D01*
X63025Y39851D02*
X63525Y40089D01*
X63025Y40185D02*
Y39851D01*
X63120Y39739D02*
X63096Y39692D01*
X63025Y39620D01*
X63525D01*
X71675Y43037D02*
X72175D01*
X71675D02*
Y42823D01*
X71699Y42751D01*
X71723Y42727D01*
X71770Y42704D01*
X71818D01*
X71865Y42727D01*
X71889Y42751D01*
X71913Y42823D01*
Y43037D01*
Y42870D02*
X72175Y42704D01*
X71675Y42258D02*
X72175Y42496D01*
X71675Y42592D02*
Y42258D01*
Y42004D02*
X71699Y42075D01*
X71770Y42123D01*
X71889Y42146D01*
X71961D01*
X72080Y42123D01*
X72151Y42075D01*
X72175Y42004D01*
Y41956D01*
X72151Y41885D01*
X72080Y41837D01*
X71961Y41813D01*
X71889D01*
X71770Y41837D01*
X71699Y41885D01*
X71675Y41956D01*
Y42004D01*
X57075Y39162D02*
X57575D01*
X57075D02*
Y38948D01*
X57099Y38876D01*
X57123Y38852D01*
X57170Y38829D01*
X57218D01*
X57265Y38852D01*
X57289Y38876D01*
X57313Y38948D01*
Y39162D01*
Y38995D02*
X57575Y38829D01*
X57146Y38431D02*
X57099Y38455D01*
X57075Y38526D01*
Y38574D01*
X57099Y38645D01*
X57170Y38693D01*
X57289Y38717D01*
X57408D01*
X57504Y38693D01*
X57551Y38645D01*
X57575Y38574D01*
Y38550D01*
X57551Y38479D01*
X57504Y38431D01*
X57432Y38407D01*
X57408D01*
X57337Y38431D01*
X57289Y38479D01*
X57265Y38550D01*
Y38574D01*
X57289Y38645D01*
X57337Y38693D01*
X57408Y38717D01*
X57242Y37988D02*
X57313Y38012D01*
X57361Y38060D01*
X57385Y38131D01*
Y38155D01*
X57361Y38226D01*
X57313Y38274D01*
X57242Y38298D01*
X57218D01*
X57146Y38274D01*
X57099Y38226D01*
X57075Y38155D01*
Y38131D01*
X57099Y38060D01*
X57146Y38012D01*
X57242Y37988D01*
X57361D01*
X57480Y38012D01*
X57551Y38060D01*
X57575Y38131D01*
Y38179D01*
X57551Y38250D01*
X57504Y38274D01*
X58050Y35899D02*
X58550D01*
X58050D02*
Y35684D01*
X58074Y35613D01*
X58098Y35589D01*
X58145Y35565D01*
X58193D01*
X58240Y35589D01*
X58264Y35613D01*
X58288Y35684D01*
Y35899D01*
Y35732D02*
X58550Y35565D01*
X58121Y35168D02*
X58074Y35192D01*
X58050Y35263D01*
Y35311D01*
X58074Y35382D01*
X58145Y35430D01*
X58264Y35454D01*
X58383D01*
X58479Y35430D01*
X58526Y35382D01*
X58550Y35311D01*
Y35287D01*
X58526Y35215D01*
X58479Y35168D01*
X58407Y35144D01*
X58383D01*
X58312Y35168D01*
X58264Y35215D01*
X58240Y35287D01*
Y35311D01*
X58264Y35382D01*
X58312Y35430D01*
X58383Y35454D01*
X58050Y34916D02*
X58074Y34987D01*
X58121Y35011D01*
X58169D01*
X58217Y34987D01*
X58240Y34939D01*
X58264Y34844D01*
X58288Y34773D01*
X58336Y34725D01*
X58383Y34701D01*
X58455D01*
X58502Y34725D01*
X58526Y34749D01*
X58550Y34820D01*
Y34916D01*
X58526Y34987D01*
X58502Y35011D01*
X58455Y35035D01*
X58383D01*
X58336Y35011D01*
X58288Y34963D01*
X58264Y34892D01*
X58240Y34797D01*
X58217Y34749D01*
X58169Y34725D01*
X58121D01*
X58074Y34749D01*
X58050Y34820D01*
Y34916D01*
X71850Y38812D02*
X72350D01*
X71850D02*
Y38598D01*
X71874Y38526D01*
X71898Y38502D01*
X71945Y38479D01*
X71993D01*
X72040Y38502D01*
X72064Y38526D01*
X72088Y38598D01*
Y38812D01*
Y38645D02*
X72350Y38479D01*
X71921Y38081D02*
X71874Y38105D01*
X71850Y38176D01*
Y38224D01*
X71874Y38295D01*
X71945Y38343D01*
X72064Y38367D01*
X72183D01*
X72279Y38343D01*
X72326Y38295D01*
X72350Y38224D01*
Y38200D01*
X72326Y38129D01*
X72279Y38081D01*
X72207Y38057D01*
X72183D01*
X72112Y38081D01*
X72064Y38129D01*
X72040Y38200D01*
Y38224D01*
X72064Y38295D01*
X72112Y38343D01*
X72183Y38367D01*
X71921Y37662D02*
X71874Y37686D01*
X71850Y37757D01*
Y37805D01*
X71874Y37876D01*
X71945Y37924D01*
X72064Y37948D01*
X72183D01*
X72279Y37924D01*
X72326Y37876D01*
X72350Y37805D01*
Y37781D01*
X72326Y37710D01*
X72279Y37662D01*
X72207Y37638D01*
X72183D01*
X72112Y37662D01*
X72064Y37710D01*
X72040Y37781D01*
Y37805D01*
X72064Y37876D01*
X72112Y37924D01*
X72183Y37948D01*
X62925Y38874D02*
X63425D01*
X62925D02*
Y38659D01*
X62949Y38588D01*
X62973Y38564D01*
X63020Y38540D01*
X63068D01*
X63115Y38564D01*
X63139Y38588D01*
X63163Y38659D01*
Y38874D01*
Y38707D02*
X63425Y38540D01*
X62996Y38143D02*
X62949Y38167D01*
X62925Y38238D01*
Y38286D01*
X62949Y38357D01*
X63020Y38405D01*
X63139Y38429D01*
X63258D01*
X63354Y38405D01*
X63401Y38357D01*
X63425Y38286D01*
Y38262D01*
X63401Y38190D01*
X63354Y38143D01*
X63282Y38119D01*
X63258D01*
X63187Y38143D01*
X63139Y38190D01*
X63115Y38262D01*
Y38286D01*
X63139Y38357D01*
X63187Y38405D01*
X63258Y38429D01*
X62925Y37724D02*
Y37962D01*
X63139Y37986D01*
X63115Y37962D01*
X63092Y37891D01*
Y37819D01*
X63115Y37748D01*
X63163Y37700D01*
X63235Y37676D01*
X63282D01*
X63354Y37700D01*
X63401Y37748D01*
X63425Y37819D01*
Y37891D01*
X63401Y37962D01*
X63377Y37986D01*
X63330Y38010D01*
X66314Y33600D02*
Y34100D01*
Y33600D02*
X66529D01*
X66600Y33624D01*
X66624Y33648D01*
X66648Y33695D01*
Y33743D01*
X66624Y33790D01*
X66600Y33814D01*
X66529Y33838D01*
X66314D01*
X66481D02*
X66648Y34100D01*
X67045Y33671D02*
X67021Y33624D01*
X66950Y33600D01*
X66902D01*
X66831Y33624D01*
X66783Y33695D01*
X66760Y33814D01*
Y33933D01*
X66783Y34029D01*
X66831Y34076D01*
X66902Y34100D01*
X66926D01*
X66998Y34076D01*
X67045Y34029D01*
X67069Y33957D01*
Y33933D01*
X67045Y33862D01*
X66998Y33814D01*
X66926Y33790D01*
X66902D01*
X66831Y33814D01*
X66783Y33862D01*
X66760Y33933D01*
X67417Y33600D02*
X67179Y33933D01*
X67536D01*
X67417Y33600D02*
Y34100D01*
X74200Y44999D02*
X74700D01*
X74200D02*
Y44784D01*
X74224Y44713D01*
X74248Y44689D01*
X74295Y44665D01*
X74343D01*
X74390Y44689D01*
X74414Y44713D01*
X74438Y44784D01*
Y44999D01*
Y44832D02*
X74700Y44665D01*
X74271Y44268D02*
X74224Y44292D01*
X74200Y44363D01*
Y44411D01*
X74224Y44482D01*
X74295Y44530D01*
X74414Y44554D01*
X74533D01*
X74629Y44530D01*
X74676Y44482D01*
X74700Y44411D01*
Y44387D01*
X74676Y44315D01*
X74629Y44268D01*
X74557Y44244D01*
X74533D01*
X74462Y44268D01*
X74414Y44315D01*
X74390Y44387D01*
Y44411D01*
X74414Y44482D01*
X74462Y44530D01*
X74533Y44554D01*
X74319Y44111D02*
X74295D01*
X74248Y44087D01*
X74224Y44063D01*
X74200Y44016D01*
Y43920D01*
X74224Y43873D01*
X74248Y43849D01*
X74295Y43825D01*
X74343D01*
X74390Y43849D01*
X74462Y43897D01*
X74700Y44135D01*
Y43801D01*
X59200Y62026D02*
X58700D01*
X59200D02*
Y62241D01*
X59176Y62312D01*
X59152Y62336D01*
X59105Y62360D01*
X59057D01*
X59010Y62336D01*
X58986Y62312D01*
X58962Y62241D01*
Y62026D01*
Y62193D02*
X58700Y62360D01*
X59129Y62757D02*
X59176Y62733D01*
X59200Y62662D01*
Y62614D01*
X59176Y62543D01*
X59105Y62495D01*
X58986Y62471D01*
X58867D01*
X58771Y62495D01*
X58724Y62543D01*
X58700Y62614D01*
Y62638D01*
X58724Y62709D01*
X58771Y62757D01*
X58843Y62781D01*
X58867D01*
X58938Y62757D01*
X58986Y62709D01*
X59010Y62638D01*
Y62614D01*
X58986Y62543D01*
X58938Y62495D01*
X58867Y62471D01*
X59200Y63033D02*
X59176Y62962D01*
X59105Y62914D01*
X58986Y62890D01*
X58914D01*
X58795Y62914D01*
X58724Y62962D01*
X58700Y63033D01*
Y63081D01*
X58724Y63152D01*
X58795Y63200D01*
X58914Y63224D01*
X58986D01*
X59105Y63200D01*
X59176Y63152D01*
X59200Y63081D01*
Y63033D01*
X24366Y29350D02*
Y28850D01*
Y29350D02*
X24152D01*
X24081Y29326D01*
X24057Y29302D01*
X24033Y29255D01*
Y29207D01*
X24057Y29160D01*
X24081Y29136D01*
X24152Y29112D01*
X24366D01*
X24200D02*
X24033Y28850D01*
X23874Y29350D02*
X23612D01*
X23755Y29160D01*
X23683D01*
X23636Y29136D01*
X23612Y29112D01*
X23588Y29040D01*
Y28993D01*
X23612Y28921D01*
X23659Y28874D01*
X23731Y28850D01*
X23802D01*
X23874Y28874D01*
X23897Y28898D01*
X23921Y28945D01*
X23452Y29231D02*
Y29255D01*
X23429Y29302D01*
X23405Y29326D01*
X23357Y29350D01*
X23262D01*
X23214Y29326D01*
X23191Y29302D01*
X23167Y29255D01*
Y29207D01*
X23191Y29160D01*
X23238Y29088D01*
X23476Y28850D01*
X23143D01*
X24366Y30350D02*
Y29850D01*
Y30350D02*
X24152D01*
X24081Y30326D01*
X24057Y30302D01*
X24033Y30255D01*
Y30207D01*
X24057Y30160D01*
X24081Y30136D01*
X24152Y30112D01*
X24366D01*
X24200D02*
X24033Y29850D01*
X23874Y30350D02*
X23612D01*
X23755Y30160D01*
X23683D01*
X23636Y30136D01*
X23612Y30112D01*
X23588Y30040D01*
Y29993D01*
X23612Y29921D01*
X23659Y29874D01*
X23731Y29850D01*
X23802D01*
X23874Y29874D01*
X23897Y29898D01*
X23921Y29945D01*
X23429Y30350D02*
X23167D01*
X23310Y30160D01*
X23238D01*
X23191Y30136D01*
X23167Y30112D01*
X23143Y30040D01*
Y29993D01*
X23167Y29921D01*
X23214Y29874D01*
X23286Y29850D01*
X23357D01*
X23429Y29874D01*
X23452Y29898D01*
X23476Y29945D01*
X2856Y12532D02*
X2939Y12448D01*
Y12282D01*
X2856Y12199D01*
X2523D01*
X2439Y12282D01*
Y12448D01*
X2523Y12532D01*
X2439Y12948D02*
X2939D01*
X2689Y12698D01*
Y13032D01*
X2439Y13531D02*
Y13198D01*
X2773Y13531D01*
X2856D01*
X2939Y13448D01*
Y13282D01*
X2856Y13198D01*
X24366Y27850D02*
Y28350D01*
X24117D01*
X24033Y28267D01*
Y28100D01*
X24117Y28017D01*
X24366D01*
X24200D02*
X24033Y27850D01*
X23867D02*
X23700D01*
X23783D01*
Y28350D01*
X23867Y28267D01*
X23117Y28350D02*
X23283Y28267D01*
X23450Y28100D01*
Y27933D01*
X23367Y27850D01*
X23200D01*
X23117Y27933D01*
Y28017D01*
X23200Y28100D01*
X23450D01*
X24366Y26950D02*
Y27450D01*
X24117D01*
X24033Y27367D01*
Y27200D01*
X24117Y27117D01*
X24366D01*
X24200D02*
X24033Y26950D01*
X23867D02*
X23700D01*
X23783D01*
Y27450D01*
X23867Y27367D01*
X23117Y27450D02*
X23450D01*
Y27200D01*
X23283Y27283D01*
X23200D01*
X23117Y27200D01*
Y27033D01*
X23200Y26950D01*
X23367D01*
X23450Y27033D01*
X24366Y26050D02*
Y26550D01*
X24117D01*
X24033Y26467D01*
Y26300D01*
X24117Y26217D01*
X24366D01*
X24200D02*
X24033Y26050D01*
X23867D02*
X23700D01*
X23783D01*
Y26550D01*
X23867Y26467D01*
X23450D02*
X23367Y26550D01*
X23200D01*
X23117Y26467D01*
Y26133D01*
X23200Y26050D01*
X23367D01*
X23450Y26133D01*
Y26467D01*
X40724Y21500D02*
X40224D01*
Y21250D01*
X40307Y21167D01*
X40474D01*
X40557Y21250D01*
Y21500D01*
Y21334D02*
X40724Y21167D01*
Y20750D02*
X40224D01*
X40474Y21000D01*
Y20667D01*
X40724Y20167D02*
Y20500D01*
X40390Y20167D01*
X40307D01*
X40224Y20251D01*
Y20417D01*
X40307Y20500D01*
X88556Y29066D02*
Y28650D01*
X88473Y28566D01*
X88306D01*
X88223Y28650D01*
Y29066D01*
X88057Y28566D02*
X87890D01*
X87973D01*
Y29066D01*
X88057Y28983D01*
X87307Y29066D02*
X87640D01*
Y28816D01*
X87473Y28900D01*
X87390D01*
X87307Y28816D01*
Y28650D01*
X87390Y28566D01*
X87557D01*
X87640Y28650D01*
X89096Y31362D02*
X88596D01*
Y31112D01*
X88679Y31029D01*
X88846D01*
X88929Y31112D01*
Y31362D01*
Y31196D02*
X89096Y31029D01*
Y30529D02*
Y30862D01*
X88763Y30529D01*
X88679D01*
X88596Y30612D01*
Y30779D01*
X88679Y30862D01*
Y30363D02*
X88596Y30279D01*
Y30113D01*
X88679Y30029D01*
X88763D01*
X88846Y30113D01*
X88929Y30029D01*
X89013D01*
X89096Y30113D01*
Y30279D01*
X89013Y30363D01*
X88929D01*
X88846Y30279D01*
X88763Y30363D01*
X88679D01*
X88846Y30279D02*
Y30113D01*
X85743Y32353D02*
X85243D01*
Y32103D01*
X85327Y32020D01*
X85493D01*
X85577Y32103D01*
Y32353D01*
Y32186D02*
X85743Y32020D01*
Y31520D02*
Y31853D01*
X85410Y31520D01*
X85327D01*
X85243Y31603D01*
Y31770D01*
X85327Y31853D01*
X85243Y31353D02*
Y31020D01*
X85327D01*
X85660Y31353D01*
X85743D01*
X90391Y26684D02*
X90344Y26708D01*
X90296Y26756D01*
X90272Y26803D01*
Y26898D01*
X90296Y26946D01*
X90344Y26994D01*
X90391Y27017D01*
X90463Y27041D01*
X90582D01*
X90653Y27017D01*
X90701Y26994D01*
X90749Y26946D01*
X90772Y26898D01*
Y26803D01*
X90749Y26756D01*
X90701Y26708D01*
X90653Y26684D01*
X90272Y26258D02*
Y26496D01*
X90487Y26520D01*
X90463Y26496D01*
X90439Y26425D01*
Y26353D01*
X90463Y26282D01*
X90510Y26234D01*
X90582Y26210D01*
X90630D01*
X90701Y26234D01*
X90749Y26282D01*
X90772Y26353D01*
Y26425D01*
X90749Y26496D01*
X90725Y26520D01*
X90677Y26544D01*
X90272Y25813D02*
Y26051D01*
X90487Y26075D01*
X90463Y26051D01*
X90439Y25979D01*
Y25908D01*
X90463Y25837D01*
X90510Y25789D01*
X90582Y25765D01*
X90630D01*
X90701Y25789D01*
X90749Y25837D01*
X90772Y25908D01*
Y25979D01*
X90749Y26051D01*
X90725Y26075D01*
X90677Y26098D01*
X85242Y25655D02*
X85326Y25739D01*
X85492D01*
X85575Y25655D01*
Y25322D01*
X85492Y25239D01*
X85326D01*
X85242Y25322D01*
X84742Y25739D02*
X85076D01*
Y25489D01*
X84909Y25572D01*
X84826D01*
X84742Y25489D01*
Y25322D01*
X84826Y25239D01*
X84992D01*
X85076Y25322D01*
X84326Y25239D02*
Y25739D01*
X84576Y25489D01*
X84243D01*
X29750Y34366D02*
X29250D01*
Y34117D01*
X29333Y34033D01*
X29500D01*
X29583Y34117D01*
Y34366D01*
Y34200D02*
X29750Y34033D01*
Y33533D02*
Y33867D01*
X29417Y33533D01*
X29333D01*
X29250Y33617D01*
Y33783D01*
X29333Y33867D01*
Y33367D02*
X29250Y33283D01*
Y33117D01*
X29333Y33034D01*
X29667D01*
X29750Y33117D01*
Y33283D01*
X29667Y33367D01*
X29333D01*
X33350Y27075D02*
X33850D01*
Y27325D01*
X33767Y27408D01*
X33600D01*
X33517Y27325D01*
Y27075D01*
Y27242D02*
X33350Y27408D01*
Y27575D02*
Y27742D01*
Y27658D01*
X33850D01*
X33767Y27575D01*
X33433Y27992D02*
X33350Y28075D01*
Y28241D01*
X33433Y28325D01*
X33767D01*
X33850Y28241D01*
Y28075D01*
X33767Y27992D01*
X33683D01*
X33600Y28075D01*
Y28325D01*
X33350Y28775D02*
X33850D01*
Y29025D01*
X33767Y29108D01*
X33600D01*
X33517Y29025D01*
Y28775D01*
Y28942D02*
X33350Y29108D01*
Y29275D02*
Y29442D01*
Y29358D01*
X33850D01*
X33767Y29275D01*
X33350Y30025D02*
Y29692D01*
X33683Y30025D01*
X33767D01*
X33850Y29941D01*
Y29775D01*
X33767Y29692D01*
X73104Y31665D02*
Y32165D01*
X72854D01*
X72771Y32082D01*
Y31915D01*
X72854Y31832D01*
X73104D01*
X72937D02*
X72771Y31665D01*
X72271D02*
X72604D01*
X72271Y31998D01*
Y32082D01*
X72354Y32165D01*
X72521D01*
X72604Y32082D01*
X71771Y31665D02*
X72104D01*
X71771Y31998D01*
Y32082D01*
X71854Y32165D01*
X72021D01*
X72104Y32082D01*
X33350Y30459D02*
X33850D01*
Y30708D01*
X33767Y30792D01*
X33600D01*
X33517Y30708D01*
Y30459D01*
Y30625D02*
X33350Y30792D01*
Y30958D02*
Y31125D01*
Y31042D01*
X33850D01*
X33767Y30958D01*
X33350Y31375D02*
Y31541D01*
Y31458D01*
X33850D01*
X33767Y31375D01*
X33350Y25883D02*
X33850D01*
Y26133D01*
X33767Y26217D01*
X33600D01*
X33517Y26133D01*
Y25883D01*
Y26050D02*
X33350Y26217D01*
X33433Y26383D02*
X33350Y26467D01*
Y26633D01*
X33433Y26717D01*
X33767D01*
X33850Y26633D01*
Y26467D01*
X33767Y26383D01*
X33683D01*
X33600Y26467D01*
Y26717D01*
X55676Y51923D02*
X55176D01*
X55342Y51756D01*
X55176Y51590D01*
X55676D01*
X55259Y51423D02*
X55176Y51340D01*
Y51173D01*
X55259Y51090D01*
X55342D01*
X55426Y51173D01*
Y51256D01*
Y51173D01*
X55509Y51090D01*
X55592D01*
X55676Y51173D01*
Y51340D01*
X55592Y51423D01*
X60156Y52023D02*
X59656D01*
X59823Y51856D01*
X59656Y51690D01*
X60156D01*
Y51190D02*
Y51523D01*
X59823Y51190D01*
X59739D01*
X59656Y51273D01*
Y51440D01*
X59739Y51523D01*
X64037Y51915D02*
X63537D01*
X63703Y51748D01*
X63537Y51581D01*
X64037D01*
Y51415D02*
Y51248D01*
Y51331D01*
X63537D01*
X63620Y51415D01*
X51956Y52398D02*
X51456D01*
X51623Y52231D01*
X51456Y52065D01*
X51956D01*
Y51648D02*
X51456D01*
X51706Y51898D01*
Y51565D01*
X29508Y35358D02*
X29425Y35442D01*
Y35608D01*
X29508Y35692D01*
X29842D01*
X29925Y35608D01*
Y35442D01*
X29842Y35358D01*
X29508Y35192D02*
X29425Y35108D01*
Y34942D01*
X29508Y34858D01*
X29592D01*
X29675Y34942D01*
X29758Y34858D01*
X29842D01*
X29925Y34942D01*
Y35108D01*
X29842Y35192D01*
X29758D01*
X29675Y35108D01*
X29592Y35192D01*
X29508D01*
X29675Y35108D02*
Y34942D01*
X74433Y28073D02*
X74516Y27989D01*
Y27823D01*
X74433Y27739D01*
X74100D01*
X74016Y27823D01*
Y27989D01*
X74100Y28073D01*
Y28239D02*
X74016Y28322D01*
Y28489D01*
X74100Y28572D01*
X74433D01*
X74516Y28489D01*
Y28322D01*
X74433Y28239D01*
X74350D01*
X74266Y28322D01*
Y28572D01*
X71156Y27153D02*
X71240Y27070D01*
Y26903D01*
X71156Y26820D01*
X70823D01*
X70740Y26903D01*
Y27070D01*
X70823Y27153D01*
X70740Y27320D02*
Y27486D01*
Y27403D01*
X71240D01*
X71156Y27320D01*
Y27736D02*
X71240Y27819D01*
Y27986D01*
X71156Y28069D01*
X70823D01*
X70740Y27986D01*
Y27819D01*
X70823Y27736D01*
X71156D01*
X4395Y28505D02*
X4895D01*
Y28755D01*
X4812Y28839D01*
X4645D01*
X4562Y28755D01*
Y28505D01*
Y28672D02*
X4395Y28839D01*
X4895Y29005D02*
Y29338D01*
X4812D01*
X4478Y29005D01*
X4395D01*
X4895Y29838D02*
X4812Y29672D01*
X4645Y29505D01*
X4478D01*
X4395Y29588D01*
Y29755D01*
X4478Y29838D01*
X4562D01*
X4645Y29755D01*
Y29505D01*
X15691Y34175D02*
Y34675D01*
X15442D01*
X15358Y34592D01*
Y34425D01*
X15442Y34342D01*
X15691D01*
X15525D02*
X15358Y34175D01*
X14858Y34675D02*
X15025Y34592D01*
X15192Y34425D01*
Y34258D01*
X15108Y34175D01*
X14942D01*
X14858Y34258D01*
Y34342D01*
X14942Y34425D01*
X15192D01*
X14692Y34675D02*
X14359D01*
Y34592D01*
X14692Y34258D01*
Y34175D01*
X21959Y38375D02*
Y37875D01*
X22208D01*
X22292Y37958D01*
Y38125D01*
X22208Y38208D01*
X21959D01*
X22125D02*
X22292Y38375D01*
X22792Y37875D02*
X22625Y37958D01*
X22458Y38125D01*
Y38292D01*
X22542Y38375D01*
X22708D01*
X22792Y38292D01*
Y38208D01*
X22708Y38125D01*
X22458D01*
X22958Y37958D02*
X23042Y37875D01*
X23208D01*
X23291Y37958D01*
Y38042D01*
X23208Y38125D01*
X23125D01*
X23208D01*
X23291Y38208D01*
Y38292D01*
X23208Y38375D01*
X23042D01*
X22958Y38292D01*
X79709Y58075D02*
Y57575D01*
X79958D01*
X80042Y57658D01*
Y57825D01*
X79958Y57908D01*
X79709D01*
X79875D02*
X80042Y58075D01*
X80458D02*
Y57575D01*
X80208Y57825D01*
X80542D01*
X81041Y57575D02*
X80875Y57658D01*
X80708Y57825D01*
Y57992D01*
X80792Y58075D01*
X80958D01*
X81041Y57992D01*
Y57908D01*
X80958Y57825D01*
X80708D01*
X82270Y65287D02*
Y64787D01*
X82021D01*
X81937Y64870D01*
Y65203D01*
X82021Y65287D01*
X82270D01*
X81771Y64787D02*
X81604D01*
X81687D01*
Y65287D01*
X81771Y65203D01*
X4432Y24938D02*
X4349Y25022D01*
Y25188D01*
X4432Y25271D01*
X4765D01*
X4848Y25188D01*
Y25022D01*
X4765Y24938D01*
X4848Y24522D02*
X4349D01*
X4598Y24772D01*
Y24438D01*
X4765Y24272D02*
X4848Y24188D01*
Y24022D01*
X4765Y23939D01*
X4432D01*
X4349Y24022D01*
Y24188D01*
X4432Y24272D01*
X4515D01*
X4598Y24188D01*
Y23939D01*
X24033Y25567D02*
X24117Y25650D01*
X24283D01*
X24366Y25567D01*
Y25233D01*
X24283Y25150D01*
X24117D01*
X24033Y25233D01*
X23617Y25150D02*
Y25650D01*
X23867Y25400D01*
X23533D01*
X23367Y25567D02*
X23283Y25650D01*
X23117D01*
X23034Y25567D01*
Y25483D01*
X23117Y25400D01*
X23034Y25317D01*
Y25233D01*
X23117Y25150D01*
X23283D01*
X23367Y25233D01*
Y25317D01*
X23283Y25400D01*
X23367Y25483D01*
Y25567D01*
X23283Y25400D02*
X23117D01*
X7620Y32223D02*
X7537Y32307D01*
Y32473D01*
X7620Y32556D01*
X7953D01*
X8037Y32473D01*
Y32307D01*
X7953Y32223D01*
X8037Y31807D02*
X7537D01*
X7787Y32057D01*
Y31723D01*
X7537Y31557D02*
Y31224D01*
X7620D01*
X7953Y31557D01*
X8037D01*
X9241Y32268D02*
X9157Y32351D01*
Y32518D01*
X9241Y32601D01*
X9574D01*
X9657Y32518D01*
Y32351D01*
X9574Y32268D01*
X9657Y31851D02*
X9157D01*
X9407Y32101D01*
Y31768D01*
X9157Y31268D02*
X9241Y31435D01*
X9407Y31601D01*
X9574D01*
X9657Y31518D01*
Y31351D01*
X9574Y31268D01*
X9491D01*
X9407Y31351D01*
Y31601D01*
X2881Y14284D02*
X2965Y14201D01*
Y14034D01*
X2881Y13951D01*
X2548D01*
X2465Y14034D01*
Y14201D01*
X2548Y14284D01*
X2465Y14701D02*
X2965D01*
X2715Y14451D01*
Y14784D01*
X2465Y15201D02*
X2965D01*
X2715Y14951D01*
Y15284D01*
X2937Y16092D02*
X3020Y16008D01*
Y15842D01*
X2937Y15759D01*
X2603D01*
X2520Y15842D01*
Y16008D01*
X2603Y16092D01*
X2520Y16508D02*
X3020D01*
X2770Y16258D01*
Y16592D01*
X2937Y16758D02*
X3020Y16842D01*
Y17008D01*
X2937Y17091D01*
X2853D01*
X2770Y17008D01*
Y16925D01*
Y17008D01*
X2687Y17091D01*
X2603D01*
X2520Y17008D01*
Y16842D01*
X2603Y16758D01*
X74588Y66715D02*
X74672Y66799D01*
X74838D01*
X74922Y66715D01*
Y66382D01*
X74838Y66299D01*
X74672D01*
X74588Y66382D01*
X74422Y66715D02*
X74339Y66799D01*
X74172D01*
X74089Y66715D01*
Y66632D01*
X74172Y66549D01*
X74255D01*
X74172D01*
X74089Y66465D01*
Y66382D01*
X74172Y66299D01*
X74339D01*
X74422Y66382D01*
X73922Y66799D02*
X73589D01*
Y66715D01*
X73922Y66382D01*
Y66299D01*
X39215Y20075D02*
X39299Y19992D01*
Y19826D01*
X39215Y19742D01*
X38882D01*
X38799Y19826D01*
Y19992D01*
X38882Y20075D01*
X39215Y20242D02*
X39299Y20325D01*
Y20492D01*
X39215Y20575D01*
X39132D01*
X39049Y20492D01*
Y20409D01*
Y20492D01*
X38965Y20575D01*
X38882D01*
X38799Y20492D01*
Y20325D01*
X38882Y20242D01*
X39299Y21075D02*
X39215Y20909D01*
X39049Y20742D01*
X38882D01*
X38799Y20825D01*
Y20992D01*
X38882Y21075D01*
X38965D01*
X39049Y20992D01*
Y20742D01*
X38049Y21575D02*
X37549D01*
Y21325D01*
X37632Y21242D01*
X37799D01*
X37882Y21325D01*
Y21575D01*
Y21409D02*
X38049Y21242D01*
Y20825D02*
X37549D01*
X37799Y21075D01*
Y20742D01*
X38049Y20575D02*
Y20409D01*
Y20492D01*
X37549D01*
X37632Y20575D01*
X42049Y21475D02*
X41549D01*
Y21225D01*
X41632Y21142D01*
X41799D01*
X41882Y21225D01*
Y21475D01*
Y21309D02*
X42049Y21142D01*
Y20725D02*
X41549D01*
X41799Y20975D01*
Y20642D01*
X41632Y20475D02*
X41549Y20392D01*
Y20226D01*
X41632Y20142D01*
X41965D01*
X42049Y20226D01*
Y20392D01*
X41965Y20475D01*
X41632D01*
X43399Y21475D02*
X42899D01*
Y21225D01*
X42982Y21142D01*
X43149D01*
X43232Y21225D01*
Y21475D01*
Y21309D02*
X43399Y21142D01*
X42982Y20975D02*
X42899Y20892D01*
Y20725D01*
X42982Y20642D01*
X43065D01*
X43149Y20725D01*
Y20809D01*
Y20725D01*
X43232Y20642D01*
X43315D01*
X43399Y20725D01*
Y20892D01*
X43315Y20975D01*
Y20475D02*
X43399Y20392D01*
Y20226D01*
X43315Y20142D01*
X42982D01*
X42899Y20226D01*
Y20392D01*
X42982Y20475D01*
X43065D01*
X43149Y20392D01*
Y20142D01*
X35299Y21675D02*
X34799D01*
Y21425D01*
X34882Y21342D01*
X35049D01*
X35132Y21425D01*
Y21675D01*
Y21509D02*
X35299Y21342D01*
X34882Y21175D02*
X34799Y21092D01*
Y20925D01*
X34882Y20842D01*
X34965D01*
X35049Y20925D01*
Y21009D01*
Y20925D01*
X35132Y20842D01*
X35215D01*
X35299Y20925D01*
Y21092D01*
X35215Y21175D01*
X34882Y20675D02*
X34799Y20592D01*
Y20426D01*
X34882Y20342D01*
X34965D01*
X35049Y20426D01*
X35132Y20342D01*
X35215D01*
X35299Y20426D01*
Y20592D01*
X35215Y20675D01*
X35132D01*
X35049Y20592D01*
X34965Y20675D01*
X34882D01*
X35049Y20592D02*
Y20426D01*
X36749Y21600D02*
X36249D01*
Y21350D01*
X36332Y21267D01*
X36499D01*
X36582Y21350D01*
Y21600D01*
Y21434D02*
X36749Y21267D01*
X36332Y21100D02*
X36249Y21017D01*
Y20850D01*
X36332Y20767D01*
X36415D01*
X36499Y20850D01*
Y20934D01*
Y20850D01*
X36582Y20767D01*
X36665D01*
X36749Y20850D01*
Y21017D01*
X36665Y21100D01*
X36249Y20600D02*
Y20267D01*
X36332D01*
X36665Y20600D01*
X36749D01*
X64325Y42011D02*
X64825D01*
Y42261D01*
X64742Y42345D01*
X64575D01*
X64492Y42261D01*
Y42011D01*
Y42178D02*
X64325Y42345D01*
X64742Y42511D02*
X64825Y42595D01*
Y42761D01*
X64742Y42845D01*
X64658D01*
X64575Y42761D01*
Y42678D01*
Y42761D01*
X64492Y42845D01*
X64408D01*
X64325Y42761D01*
Y42595D01*
X64408Y42511D01*
X68825Y8892D02*
X68325D01*
Y8642D01*
X68408Y8558D01*
X68575D01*
X68658Y8642D01*
Y8892D01*
Y8725D02*
X68825Y8558D01*
Y8058D02*
Y8392D01*
X68492Y8058D01*
X68408D01*
X68325Y8142D01*
Y8308D01*
X68408Y8392D01*
X65150Y9592D02*
X65650D01*
Y9842D01*
X65567Y9925D01*
X65400D01*
X65317Y9842D01*
Y9592D01*
Y9758D02*
X65150Y9925D01*
Y10092D02*
Y10258D01*
Y10175D01*
X65650D01*
X65567Y10092D01*
X72503Y36329D02*
X72586Y36246D01*
Y36079D01*
X72503Y35996D01*
X72170D01*
X72086Y36079D01*
Y36246D01*
X72170Y36329D01*
X72586Y36495D02*
Y36829D01*
X72503D01*
X72170Y36495D01*
X72086D01*
X72410Y34829D02*
X72493Y34746D01*
Y34579D01*
X72410Y34496D01*
X72077D01*
X71993Y34579D01*
Y34746D01*
X72077Y34829D01*
X72493Y35329D02*
X72410Y35162D01*
X72243Y34996D01*
X72077D01*
X71993Y35079D01*
Y35245D01*
X72077Y35329D01*
X72160D01*
X72243Y35245D01*
Y34996D01*
X62558Y18662D02*
X62642Y18745D01*
X62808D01*
X62892Y18662D01*
Y18328D01*
X62808Y18245D01*
X62642D01*
X62558Y18328D01*
X62058Y18745D02*
X62392D01*
Y18495D01*
X62225Y18578D01*
X62142D01*
X62058Y18495D01*
Y18328D01*
X62142Y18245D01*
X62308D01*
X62392Y18328D01*
X61308Y18642D02*
X61392Y18725D01*
X61558D01*
X61642Y18642D01*
Y18308D01*
X61558Y18225D01*
X61392D01*
X61308Y18308D01*
X60892Y18225D02*
Y18725D01*
X61142Y18475D01*
X60808D01*
X59683Y18642D02*
X59767Y18725D01*
X59933D01*
X60017Y18642D01*
Y18308D01*
X59933Y18225D01*
X59767D01*
X59683Y18308D01*
X59517Y18642D02*
X59433Y18725D01*
X59267D01*
X59183Y18642D01*
Y18558D01*
X59267Y18475D01*
X59350D01*
X59267D01*
X59183Y18392D01*
Y18308D01*
X59267Y18225D01*
X59433D01*
X59517Y18308D01*
X69092Y12417D02*
X69175Y12333D01*
Y12167D01*
X69092Y12083D01*
X68758D01*
X68675Y12167D01*
Y12333D01*
X68758Y12417D01*
X68675Y12917D02*
Y12583D01*
X69008Y12917D01*
X69092D01*
X69175Y12833D01*
Y12667D01*
X69092Y12583D01*
X65452Y12372D02*
X65535Y12288D01*
Y12122D01*
X65452Y12038D01*
X65119D01*
X65035Y12122D01*
Y12288D01*
X65119Y12372D01*
X65035Y12538D02*
Y12705D01*
Y12622D01*
X65535D01*
X65452Y12538D01*
D15*
X27225Y31915D02*
X28725D01*
X27225Y28785D02*
X28725D01*
X51671Y50046D02*
Y50731D01*
X53746D02*
X54591D01*
X51671D02*
X52516D01*
X54591Y50046D02*
Y50731D01*
X58786Y50046D02*
Y50731D01*
X55866D02*
X56711D01*
X57941D02*
X58786D01*
X55866Y50046D02*
Y50731D01*
X63241Y50046D02*
Y50731D01*
X60321D02*
X61166D01*
X62396D02*
X63241D01*
X60321Y50046D02*
Y50731D01*
X67122Y50046D02*
Y50731D01*
X64202D02*
X65047D01*
X66277D02*
X67122D01*
X64202Y50046D02*
Y50731D01*
D201*
X59442Y8167D02*
X60077D01*
X62973D02*
X63608D01*
Y11698D02*
Y12333D01*
X59442D02*
X60077D01*
X59442Y8167D02*
Y8802D01*
X63608Y8167D02*
Y8802D01*
X59442Y11698D02*
Y12333D01*
X62973D02*
X63608D01*
D202*
X56785Y34590D02*
Y34757D01*
Y34673D01*
X57285D01*
Y34590D01*
Y34757D01*
Y35340D02*
Y35007D01*
X56952Y35340D01*
X56868D01*
X56785Y35256D01*
Y35090D01*
X56868Y35007D01*
Y35840D02*
X56785Y35756D01*
Y35590D01*
X56868Y35506D01*
X57202D01*
X57285Y35590D01*
Y35756D01*
X57202Y35840D01*
M02*
