G04*
G04 #@! TF.GenerationSoftware,Altium Limited,Altium Designer,22.5.1 (42)*
G04*
G04 Layer_Color=16711935*
%FSLAX43Y43*%
%MOMM*%
G71*
G04*
G04 #@! TF.SameCoordinates,B4329D7B-D132-43AD-BD09-584EF951B7D5*
G04*
G04*
G04 #@! TF.FilePolarity,Positive*
G04*
G01*
G75*
%ADD10C,0.200*%
%ADD14C,0.100*%
%ADD15C,0.127*%
%ADD16C,0.203*%
%ADD203C,0.000*%
D10*
X26801Y20083D02*
G03*
X26801Y20083I-100J0D01*
G01*
X25650Y29375D02*
G03*
X25650Y29375I-100J0D01*
G01*
X54181Y47835D02*
G03*
X54181Y47835I-100J0D01*
G01*
X58376D02*
G03*
X58376Y47835I-100J0D01*
G01*
X62831D02*
G03*
X62831Y47835I-100J0D01*
G01*
X66712D02*
G03*
X66712Y47835I-100J0D01*
G01*
X9700Y13450D02*
Y14700D01*
X11700D01*
Y13450D02*
Y14700D01*
X9700Y13450D02*
X11700D01*
X95325Y2125D02*
X96125D01*
X95325D02*
Y3725D01*
X96125D01*
Y2125D02*
Y3725D01*
X83175Y5300D02*
X83975D01*
X83175D02*
Y6900D01*
X83975D01*
Y5300D02*
Y6900D01*
X82850Y20925D02*
Y21725D01*
X81250Y20925D02*
X82850D01*
X81250D02*
Y21725D01*
X82850D01*
X71525Y21425D02*
X72325D01*
X71525D02*
Y23025D01*
X72325D01*
Y21425D02*
Y23025D01*
X97025Y10000D02*
X100225D01*
X97025Y7500D02*
Y10000D01*
Y7500D02*
X100225D01*
Y10000D01*
X60325Y67350D02*
X63525D01*
X60325Y64850D02*
Y67350D01*
Y64850D02*
X63525D01*
Y67350D01*
X60325Y63850D02*
X63525D01*
X60325Y61350D02*
Y63850D01*
Y61350D02*
X63525D01*
Y63850D01*
X48140Y1805D02*
X83700D01*
X48140D02*
Y4345D01*
X83700D01*
Y1805D02*
Y4345D01*
X62150Y70855D02*
X97710D01*
X62150D02*
Y73395D01*
X97710D01*
Y70855D02*
Y73395D01*
X66550Y20425D02*
X88450D01*
X66550Y12675D02*
Y20425D01*
Y12675D02*
X88450D01*
Y20425D01*
X58725Y37725D02*
Y39325D01*
X57925D02*
X58725D01*
X57925Y37725D02*
Y39325D01*
Y37725D02*
X58725D01*
X59225Y34175D02*
Y35775D01*
Y34175D02*
X60025D01*
Y35775D01*
X59225D02*
X60025D01*
X6525Y-5425D02*
Y2675D01*
Y-5425D02*
X12875D01*
Y2675D01*
X6200D02*
Y9675D01*
X13200D01*
Y2675D02*
Y9675D01*
X6200Y2675D02*
X13200D01*
X95925Y2450D02*
Y8750D01*
X85275Y2450D02*
X95925D01*
X85275D02*
Y8750D01*
X95925D01*
X98600Y20200D02*
X100200D01*
Y21000D01*
X98600D02*
X100200D01*
X98600Y20200D02*
Y21000D01*
X91785Y46900D02*
X93785D01*
X91785Y44900D02*
Y46900D01*
Y44900D02*
X93785D01*
Y46900D01*
X93300Y41500D02*
X94100D01*
Y43100D01*
X93300D02*
X94100D01*
X93300Y41500D02*
Y43100D01*
X31000Y8100D02*
X37000D01*
Y2100D02*
Y8100D01*
X31000Y2100D02*
X37000D01*
X31000D02*
Y8100D01*
X96700Y54200D02*
Y62200D01*
X101700D01*
Y54200D02*
Y62200D01*
X96700Y54200D02*
X101700D01*
X80950Y61500D02*
X81450D01*
Y60500D02*
Y61500D01*
X80950Y60500D02*
X81450D01*
X80950D02*
Y61500D01*
X17460Y57658D02*
Y73098D01*
X6260D02*
X17460D01*
X6260Y57658D02*
Y73098D01*
Y57658D02*
X17460D01*
X24144Y66221D02*
Y72221D01*
X30144D01*
Y66221D02*
Y72221D01*
X24144Y66221D02*
X30144D01*
X23643Y62952D02*
X25243D01*
Y62152D02*
Y62952D01*
X23643Y62152D02*
X25243D01*
X23643D02*
Y62952D01*
X85950Y61000D02*
Y61800D01*
X84350D02*
X85950D01*
X84350Y61000D02*
Y61800D01*
Y61000D02*
X85950D01*
X21580Y29561D02*
Y30361D01*
X19980Y29561D02*
X21580D01*
X19980D02*
Y30361D01*
X21580D01*
X30099Y16009D02*
X44099D01*
Y809D02*
Y16009D01*
X30099Y809D02*
X44099D01*
X30099D02*
Y16009D01*
X19050Y37775D02*
X20650D01*
Y38575D01*
X19050D02*
X20650D01*
X19050Y37775D02*
Y38575D01*
X3184Y28386D02*
X3984D01*
X3184D02*
Y29986D01*
X3984D01*
Y28386D02*
Y29986D01*
X15725Y34900D02*
Y35700D01*
X14125Y34900D02*
X15725D01*
X14125D02*
Y35700D01*
X15725D01*
X66225Y8050D02*
X67825D01*
Y8850D01*
X66225D02*
X67825D01*
X66225Y8050D02*
Y8850D01*
X41349Y17309D02*
Y18909D01*
Y17309D02*
X42149D01*
Y18909D01*
X41349D02*
X42149D01*
X42749D02*
X43549D01*
Y17309D02*
Y18909D01*
X42749Y17309D02*
X43549D01*
X42749D02*
Y18909D01*
X34649D02*
X35449D01*
Y17309D02*
Y18909D01*
X34649Y17309D02*
X35449D01*
X34649D02*
Y18909D01*
X40049D02*
X40849D01*
Y17309D02*
Y18909D01*
X40049Y17309D02*
X40849D01*
X40049D02*
Y18909D01*
X67175Y29475D02*
X70175D01*
X67175Y26975D02*
Y29475D01*
Y26975D02*
X70175D01*
Y29475D01*
X41950Y15650D02*
X43550D01*
Y14650D02*
Y15650D01*
X41950Y14650D02*
X43550D01*
X41950D02*
Y15650D01*
X87665Y27025D02*
X88965D01*
X87665D02*
Y28225D01*
X88965D01*
Y27025D02*
Y28225D01*
X37349Y17309D02*
Y18909D01*
Y17309D02*
X38149D01*
Y18909D01*
X37349D02*
X38149D01*
X35949Y17309D02*
Y18909D01*
Y17309D02*
X36749D01*
Y18909D01*
X35949D02*
X36749D01*
D14*
X68925Y40550D02*
G03*
X68925Y40550I-500J0D01*
G01*
X30825Y24700D02*
X32425D01*
Y23900D02*
Y24700D01*
X30825Y23900D02*
X32425D01*
X30825D02*
Y24700D01*
X76000Y20600D02*
Y22200D01*
X79200D01*
Y20600D02*
Y22200D01*
X76000Y20600D02*
X79200D01*
X46402Y51702D02*
X50298D01*
Y46798D02*
Y51702D01*
X46402Y46798D02*
X50298D01*
X46402D02*
Y51702D01*
Y50432D02*
X47672Y51702D01*
X64201Y47918D02*
Y48718D01*
Y47918D02*
X65801D01*
Y48718D01*
X64201D02*
X65801D01*
X65462Y49185D02*
X65862Y49585D01*
Y49185D02*
Y49985D01*
X64262D02*
X65862D01*
X64262Y49185D02*
Y49985D01*
Y49185D02*
X65862D01*
X61193D02*
X62793D01*
X61193D02*
Y49985D01*
X62793D01*
Y49185D02*
Y49985D01*
X62393Y49185D02*
X62793Y49585D01*
X39150Y21450D02*
X39650Y20950D01*
X39150D02*
X59150D01*
Y40950D01*
X39150D02*
X59150D01*
X39150Y20950D02*
Y40950D01*
X72450Y43025D02*
X73250D01*
Y41425D02*
Y43025D01*
X72450Y41425D02*
X73250D01*
X72450D02*
Y43025D01*
X74050D02*
X74850D01*
Y41425D02*
Y43025D01*
X74050Y41425D02*
X74850D01*
X74050D02*
Y43025D01*
X74700Y39400D02*
Y40200D01*
X73100Y39400D02*
X74700D01*
X73100D02*
Y40200D01*
X74700D01*
X74750Y37900D02*
Y38700D01*
X73150Y37900D02*
X74750D01*
X73150D02*
Y38700D01*
X74750D01*
X60400Y39525D02*
Y40325D01*
X62000D01*
Y39525D02*
Y40325D01*
X60400Y39525D02*
X62000D01*
X60400Y37975D02*
Y38775D01*
X62000D01*
Y37975D02*
Y38775D01*
X60400Y37975D02*
X62000D01*
X60725Y35900D02*
X61525D01*
Y34300D02*
Y35900D01*
X60725Y34300D02*
X61525D01*
X60725D02*
Y35900D01*
X68000Y34500D02*
Y35300D01*
X66400Y34500D02*
X68000D01*
X66400D02*
Y35300D01*
X68000D01*
X69199Y15811D02*
X70799D01*
Y12611D02*
Y15811D01*
X69199Y12611D02*
X70799D01*
X69199D02*
Y15811D01*
X70925Y36450D02*
Y41237D01*
X65925Y36450D02*
X70925D01*
X70713Y41450D02*
X70925Y41237D01*
X65925Y36450D02*
Y41450D01*
X70713D01*
X96490Y3745D02*
X102290D01*
X96490D02*
Y25075D01*
X102290D01*
Y3745D02*
Y25075D01*
X96300Y11000D02*
Y12600D01*
X93100Y11000D02*
X96300D01*
X93100D02*
Y12600D01*
X96300D01*
Y13100D02*
Y14700D01*
X93100Y13100D02*
X96300D01*
X93100D02*
Y14700D01*
X96300D01*
Y15100D02*
Y16700D01*
X93100Y15100D02*
X96300D01*
X93100D02*
Y16700D01*
X96300D01*
Y17100D02*
Y18700D01*
X93100Y17100D02*
X96300D01*
X93100D02*
Y18700D01*
X96300D01*
Y19100D02*
Y20700D01*
X93100Y19100D02*
X96300D01*
X93100D02*
Y20700D01*
X96300D01*
X93086Y60787D02*
X94686D01*
X93086D02*
Y61587D01*
X94686D01*
Y60787D02*
Y61587D01*
X93200Y19700D02*
Y22200D01*
X91200Y19700D02*
X93200D01*
X91200D02*
Y22200D01*
X93200D01*
X96150Y44900D02*
Y45900D01*
X96650D01*
Y44900D02*
Y45900D01*
X96150Y44900D02*
X96650D01*
X89950Y29000D02*
Y30000D01*
X90450D01*
Y29000D02*
Y30000D01*
X89950Y29000D02*
X90450D01*
X81550Y66800D02*
X82050D01*
X81550Y65800D02*
Y66800D01*
Y65800D02*
X82050D01*
Y66800D01*
X80750D02*
X81250D01*
X80750Y65800D02*
Y66800D01*
Y65800D02*
X81250D01*
Y66800D01*
X30775Y9775D02*
X32375D01*
Y8975D02*
Y9775D01*
X30775Y8975D02*
X32375D01*
X30775D02*
Y9775D01*
X30650Y11900D02*
X32250D01*
Y11100D02*
Y11900D01*
X30650Y11100D02*
X32250D01*
X30650D02*
Y11900D01*
X92245Y26645D02*
Y27755D01*
X93655D01*
Y26645D02*
Y27755D01*
X92245Y26645D02*
X93655D01*
X92000Y41050D02*
Y43550D01*
X90000Y41050D02*
X92000D01*
X90000D02*
Y43550D01*
X92000D01*
X90050Y48500D02*
X90550D01*
X90050Y47500D02*
Y48500D01*
Y47500D02*
X90550D01*
Y48500D01*
Y24400D02*
X91050D01*
X90550Y23400D02*
Y24400D01*
Y23400D02*
X91050D01*
Y24400D01*
X89550Y23600D02*
X90050D01*
X89550Y22600D02*
Y23600D01*
Y22600D02*
X90050D01*
Y23600D01*
X80300Y65600D02*
Y66600D01*
X79800Y65600D02*
X80300D01*
X79800D02*
Y66600D01*
X80300D01*
X89700Y62200D02*
X91300D01*
X89700D02*
Y63000D01*
X91300D01*
Y62200D02*
Y63000D01*
X89875Y53700D02*
X91125D01*
Y55700D01*
X89875D02*
X91125D01*
X89875Y53700D02*
Y55700D01*
X92900Y53800D02*
Y55400D01*
X92100Y53800D02*
X92900D01*
X92100D02*
Y55400D01*
X92900D01*
X22100Y50000D02*
Y51600D01*
X22900D01*
Y50000D02*
Y51600D01*
X22100Y50000D02*
X22900D01*
X20700D02*
Y51600D01*
X21500D01*
Y50000D02*
Y51600D01*
X20700Y50000D02*
X21500D01*
X20100D02*
Y51600D01*
X19300Y50000D02*
X20100D01*
X19300D02*
Y51600D01*
X20100D01*
X16200Y48500D02*
X17000D01*
Y50100D01*
X16200D02*
X17000D01*
X16200Y48500D02*
Y50100D01*
X72352Y59418D02*
X73622Y58148D01*
X72352D02*
Y63052D01*
X76248D01*
Y58148D02*
Y63052D01*
X72352Y58148D02*
X76248D01*
X73500Y64800D02*
X75100D01*
Y65600D01*
X73500D02*
X75100D01*
X73500Y64800D02*
Y65600D01*
X74975Y58450D02*
Y62850D01*
X81475D01*
Y58450D02*
Y62850D01*
X74975Y58450D02*
X81475D01*
X74975Y59100D02*
X75625Y58450D01*
X75200Y65600D02*
X75700D01*
Y66600D01*
X75200D02*
X75700D01*
X75200Y65600D02*
Y66600D01*
X74050Y65575D02*
X74550D01*
Y66575D01*
X74050D02*
X74550D01*
X74050Y65575D02*
Y66575D01*
X76400Y65600D02*
X76900D01*
Y66600D01*
X76400D02*
X76900D01*
X76400Y65600D02*
Y66600D01*
X77525D02*
X78025D01*
X77525Y65600D02*
Y66600D01*
Y65600D02*
X78025D01*
Y66600D01*
X78675D02*
X79175D01*
X78675Y65600D02*
Y66600D01*
Y65600D02*
X79175D01*
Y66600D01*
X61200Y11600D02*
Y12400D01*
Y11600D02*
X62800D01*
Y12400D01*
X61200D02*
X62800D01*
X84500Y56900D02*
Y57700D01*
Y56900D02*
X86100D01*
Y57700D01*
X84500D02*
X86100D01*
X94500Y53800D02*
Y55400D01*
X93700Y53800D02*
X94500D01*
X93700D02*
Y55400D01*
X94500D01*
X93010Y58390D02*
X94610D01*
Y57590D02*
Y58390D01*
X93010Y57590D02*
X94610D01*
X93010D02*
Y58390D01*
X92979Y60015D02*
X94579D01*
Y59215D02*
Y60015D01*
X92979Y59215D02*
X94579D01*
X92979D02*
Y60015D01*
X87451Y54465D02*
X87851Y54065D01*
X87051Y54465D02*
X87851D01*
X87051Y52865D02*
Y54465D01*
Y52865D02*
X87851D01*
Y54465D01*
X89820Y57392D02*
X90570Y58142D01*
X87570Y57392D02*
X90570D01*
X87570D02*
Y60392D01*
X90570D01*
Y57392D02*
Y60392D01*
X52925Y43875D02*
X54525D01*
Y43075D02*
Y43875D01*
X52925Y43075D02*
X54525D01*
X52925D02*
Y43875D01*
X84800Y64550D02*
X85750Y65500D01*
X82850Y64550D02*
X85750D01*
X82850D02*
Y65850D01*
X85750D01*
Y64550D02*
Y65850D01*
X20073Y27758D02*
X21673D01*
Y28559D01*
X20073D02*
X21673D01*
X20073Y27758D02*
Y28559D01*
X11782Y25022D02*
X12432Y24372D01*
X11782D02*
Y29372D01*
X16182D01*
Y24372D02*
Y29372D01*
X11782Y24372D02*
X16182D01*
X20122Y24354D02*
Y24854D01*
X21122D01*
Y24354D02*
Y24854D01*
X20122Y24354D02*
X21122D01*
X40766Y46100D02*
Y46900D01*
X39167D02*
X40766D01*
X39167Y46100D02*
Y46900D01*
Y46100D02*
X40766D01*
X41207Y47624D02*
Y48874D01*
X39207D02*
X41207D01*
X39207Y47624D02*
Y48874D01*
Y47624D02*
X41207D01*
X36718Y18407D02*
Y20007D01*
X33518D02*
X36718D01*
X33518Y18407D02*
Y20007D01*
Y18407D02*
X36718D01*
X84500Y60000D02*
X86100D01*
Y59200D02*
Y60000D01*
X84500Y59200D02*
X86100D01*
X84500D02*
Y60000D01*
X8212Y33815D02*
Y35415D01*
X7412D02*
X8212D01*
X7412Y33815D02*
Y35415D01*
Y33815D02*
X8212D01*
X9032Y35464D02*
X9832D01*
Y33864D02*
Y35464D01*
X9032Y33864D02*
X9832D01*
X9032D02*
Y35464D01*
X3800Y12625D02*
Y13425D01*
X5400D01*
Y12625D02*
Y13425D01*
X3800Y12625D02*
X5400D01*
X3800Y15150D02*
X5400D01*
X3800Y14350D02*
Y15150D01*
Y14350D02*
X5400D01*
Y15150D01*
X3800Y15850D02*
X5400D01*
Y16650D01*
X3800D02*
X5400D01*
X3800Y15850D02*
Y16650D01*
X28555Y34875D02*
Y35675D01*
X26955Y34875D02*
X28555D01*
X26955D02*
Y35675D01*
X28555D01*
X50845Y52508D02*
Y53308D01*
X49245D02*
X50845D01*
X49245Y52508D02*
Y53308D01*
Y52508D02*
X50845D01*
X59186Y49185D02*
X59586Y49585D01*
Y49185D02*
Y49985D01*
X57986D02*
X59586D01*
X57986Y49185D02*
Y49985D01*
Y49185D02*
X59586D01*
X28425Y33225D02*
Y34025D01*
X26825Y33225D02*
X28425D01*
X26825D02*
Y34025D01*
X28425D01*
X61100Y16100D02*
X63100D01*
X61100D02*
Y17350D01*
X63100D01*
Y16100D02*
Y17350D01*
X62750Y18250D02*
Y19050D01*
X61150D02*
X62750D01*
X61150Y18250D02*
Y19050D01*
Y18250D02*
X62750D01*
X61130Y19750D02*
Y20550D01*
Y19750D02*
X62730D01*
Y20550D01*
X61130D02*
X62730D01*
X101700Y41700D02*
Y42500D01*
X100100D02*
X101700D01*
X100100Y41700D02*
Y42500D01*
Y41700D02*
X101700D01*
X62100Y34300D02*
Y35100D01*
Y34300D02*
X63700D01*
Y35100D01*
X62100D02*
X63700D01*
X66300Y10350D02*
X67900D01*
X66300Y9550D02*
Y10350D01*
Y9550D02*
X67900D01*
Y10350D01*
X67196Y41939D02*
Y42739D01*
X65596Y41939D02*
X67196D01*
X65596D02*
Y42739D01*
X67196D01*
X57585Y67660D02*
Y73460D01*
X36255Y67660D02*
X57585D01*
X36255D02*
Y73460D01*
X57585D01*
X99575Y36850D02*
X101575D01*
X99575D02*
Y40850D01*
X101575D01*
Y36850D02*
Y40850D01*
X20208Y26616D02*
X21208D01*
Y27116D01*
X20208D02*
X21208D01*
X20208Y26616D02*
Y27116D01*
X100200Y44100D02*
X101800D01*
Y43300D02*
Y44100D01*
X100200Y43300D02*
X101800D01*
X100200D02*
Y44100D01*
Y43700D02*
X100600Y44100D01*
X101950Y44950D02*
Y45450D01*
X100950D02*
X101950D01*
X100950Y44950D02*
Y45450D01*
Y44950D02*
X101950D01*
X20122Y25510D02*
X21122D01*
Y26010D01*
X20122D02*
X21122D01*
X20122Y25510D02*
Y26010D01*
X61094Y47926D02*
Y48726D01*
Y47926D02*
X62694D01*
Y48726D01*
X61094D02*
X62694D01*
X54834Y48794D02*
X56435D01*
Y47994D02*
Y48794D01*
X54834Y47994D02*
X56435D01*
X54834D02*
Y48794D01*
X57948Y48758D02*
X59548D01*
Y47958D02*
Y48758D01*
X57948Y47958D02*
X59548D01*
X57948D02*
Y48758D01*
X42900Y13325D02*
X43700D01*
X42900Y11725D02*
Y13325D01*
Y11725D02*
X43700D01*
Y13325D01*
X40900D02*
X41700D01*
X40900Y11725D02*
Y13325D01*
Y11725D02*
X41700D01*
Y13325D01*
X47570Y12089D02*
Y13689D01*
X46770Y12089D02*
X47570D01*
X46770D02*
Y13689D01*
X47570D01*
X87763Y30378D02*
Y31378D01*
Y30378D02*
X88263D01*
Y31378D01*
X87763D02*
X88263D01*
X85243Y29282D02*
Y30282D01*
Y29282D02*
X85743D01*
Y30282D01*
X85243D02*
X85743D01*
X90825Y27550D02*
Y28550D01*
X90325D02*
X90825D01*
X90325Y27550D02*
Y28550D01*
Y27550D02*
X90825D01*
X85215Y26205D02*
X85715D01*
X85215D02*
Y27205D01*
X85715D01*
Y26205D02*
Y27205D01*
X32025Y28175D02*
Y28475D01*
X32625D01*
Y28175D02*
Y28475D01*
X32025Y28175D02*
X32625D01*
X32025Y29275D02*
Y29575D01*
X32625D01*
Y29275D02*
Y29575D01*
X32025Y29275D02*
X32625D01*
X71881Y30502D02*
Y31302D01*
X73481D01*
Y30502D02*
Y31302D01*
X71881Y30502D02*
X73481D01*
X32050Y30450D02*
Y30750D01*
X32650D01*
Y30450D02*
Y30750D01*
X32050Y30450D02*
X32650D01*
X32037Y26850D02*
Y27150D01*
X32637D01*
Y26850D02*
Y27150D01*
X32037Y26850D02*
X32637D01*
X72854Y26917D02*
Y28517D01*
Y26917D02*
X73654D01*
Y28517D01*
X72854D02*
X73654D01*
X71485Y26887D02*
Y28487D01*
Y26887D02*
X72285D01*
Y28487D01*
X71485D02*
X72285D01*
X79700Y59300D02*
X81300D01*
X79700Y58500D02*
Y59300D01*
Y58500D02*
X81300D01*
Y59300D01*
X18575Y36350D02*
X19825D01*
X18575Y34350D02*
Y36350D01*
Y34350D02*
X19825D01*
Y36350D01*
X19175D02*
X19825Y35700D01*
X15025Y37150D02*
X16275D01*
Y39150D01*
X15025D02*
X16275D01*
X15025Y37150D02*
Y39150D01*
Y37800D02*
X15675Y37150D01*
X102265Y28225D02*
Y33305D01*
X98865D02*
X102265D01*
X98865Y28225D02*
Y33305D01*
Y28225D02*
X102265D01*
X3198Y24955D02*
X3999D01*
Y23355D02*
Y24955D01*
X3198Y23355D02*
X3999D01*
X3198D02*
Y24955D01*
X19970Y22778D02*
Y23578D01*
X21570D01*
Y22778D02*
Y23578D01*
X19970Y22778D02*
X21570D01*
X3845Y17675D02*
X7045D01*
Y19275D01*
X3845D02*
X7045D01*
X3845Y17675D02*
Y19275D01*
X38649Y17309D02*
X39449D01*
X38649D02*
Y18909D01*
X39449D01*
Y17309D02*
Y18909D01*
X55066Y49185D02*
X56666D01*
X55066D02*
Y49985D01*
X56666D01*
Y49185D02*
Y49985D01*
X56266Y49185D02*
X56666Y49585D01*
X55100Y13300D02*
Y14900D01*
X55900D01*
Y13300D02*
Y14900D01*
X55100Y13300D02*
X55900D01*
X46800Y44800D02*
X48400D01*
Y44000D02*
Y44800D01*
X46800Y44000D02*
X48400D01*
X46800D02*
Y44800D01*
X61300Y41500D02*
X62900D01*
Y40700D02*
Y41500D01*
X61300Y40700D02*
X62900D01*
X61300D02*
Y41500D01*
X62000Y29900D02*
X63600D01*
Y29100D02*
Y29900D01*
X62000Y29100D02*
X63600D01*
X62000D02*
Y29900D01*
X50675Y16950D02*
Y18550D01*
X49875Y16950D02*
X50675D01*
X49875D02*
Y18550D01*
X50675D01*
X62646Y23279D02*
X64246D01*
Y22479D02*
Y23279D01*
X62646Y22479D02*
X64246D01*
X62646D02*
Y23279D01*
X39167Y44072D02*
Y44872D01*
Y44072D02*
X40766D01*
Y44872D01*
X39167D02*
X40766D01*
X36100Y33300D02*
Y34100D01*
X34500D02*
X36100D01*
X34500Y33300D02*
Y34100D01*
Y33300D02*
X36100D01*
X36074Y28371D02*
Y29171D01*
X34474D02*
X36074D01*
X34474Y28371D02*
Y29171D01*
Y28371D02*
X36074D01*
X36100Y21800D02*
Y22600D01*
X34500D02*
X36100D01*
X34500Y21800D02*
Y22600D01*
Y21800D02*
X36100D01*
X73150Y36700D02*
X74750D01*
X73150Y35900D02*
Y36700D01*
Y35900D02*
X74750D01*
Y36700D01*
Y34400D02*
Y35200D01*
X73150Y34400D02*
X74750D01*
X73150D02*
Y35200D01*
X74750D01*
X62100Y15925D02*
X62900D01*
X62100D02*
Y17525D01*
X62900D01*
Y15925D02*
Y17525D01*
X60800Y15900D02*
X61600D01*
X60800D02*
Y17500D01*
X61600D01*
Y15900D02*
Y17500D01*
X59200Y15900D02*
X60000D01*
X59200D02*
Y17500D01*
X60000D01*
Y15900D02*
Y17500D01*
X68350Y12450D02*
Y14050D01*
X67550D02*
X68350D01*
X67550Y12450D02*
Y14050D01*
Y12450D02*
X68350D01*
X65975Y14050D02*
X66775D01*
Y12450D02*
Y14050D01*
X65975Y12450D02*
X66775D01*
X65975D02*
Y14050D01*
D15*
X4676Y17008D02*
X24726D01*
X4676D02*
Y40758D01*
X24726D01*
Y17008D02*
Y40758D01*
X27225Y31800D02*
X28725D01*
Y28900D02*
Y31800D01*
X27225Y28900D02*
X28725D01*
X27225D02*
Y31800D01*
X17630Y51530D02*
X18570D01*
X17630Y49870D02*
X18570D01*
Y51530D01*
X17630Y49870D02*
Y51530D01*
X51671Y49431D02*
X54591D01*
X51671D02*
Y50731D01*
X54591D01*
Y49431D02*
Y50731D01*
X58786Y49431D02*
Y50731D01*
X55866D02*
X58786D01*
X55866Y49431D02*
Y50731D01*
Y49431D02*
X58786D01*
X63241D02*
Y50731D01*
X60321D02*
X63241D01*
X60321Y49431D02*
Y50731D01*
Y49431D02*
X63241D01*
X67122D02*
Y50731D01*
X64202D02*
X67122D01*
X64202Y49431D02*
Y50731D01*
Y49431D02*
X67122D01*
D16*
X48366Y14743D02*
G03*
X48793Y15170I0J427D01*
G01*
X53743D02*
G03*
X54169Y14743I427J0D01*
G01*
Y12293D02*
G03*
X53743Y11866I0J-427D01*
G01*
X48793D02*
G03*
X48366Y12293I-427J0D01*
G01*
X48793Y15168D02*
X50218D01*
X52318D02*
X53743D01*
X54168Y13818D02*
Y14743D01*
Y12293D02*
Y13218D01*
X52318Y11868D02*
X53743D01*
X48793D02*
X50218D01*
X48368Y12293D02*
Y13218D01*
Y13818D02*
Y14743D01*
D203*
X59442Y8167D02*
X63608D01*
Y12333D01*
X59442D02*
X63608D01*
X59442Y8167D02*
Y12333D01*
X62338D02*
X62643D01*
X61703D02*
X62008D01*
X61042D02*
X61347D01*
X60407D02*
X60712D01*
X59442Y11063D02*
Y11368D01*
Y10428D02*
Y10733D01*
Y9767D02*
Y10072D01*
Y9132D02*
Y9437D01*
X60407Y8167D02*
X60712D01*
X61042D02*
X61347D01*
X61703D02*
X62008D01*
X62338D02*
X62643D01*
X63608Y9132D02*
Y9437D01*
Y9767D02*
Y10072D01*
Y10428D02*
Y10733D01*
Y11063D02*
Y11368D01*
X62338Y8167D02*
X63608Y9437D01*
M02*
