M48
;Layer_Color=9474304
;FILE_FORMAT=4:3
METRIC,LZ
;TYPE=PLATED
T2F00S00C0.650
;TYPE=NON_PLATED
%
G90
G05
T02
G00X0100525Y003384
M15
G01X0100575
M16
G00X0101235Y003384
M15
G01X0101285
M16
G00X0101235Y003461
M15
G01X0101285
M16
G00X0100525Y003461
M15
G01X0100575
M16
G00X0100525Y003542
M15
G01X0100575
M16
G00X0101235Y003542
M15
G01X0101285
M16
G00X0096009Y0066561
M15
G01X0096059
M16
G00X0095298Y0066561
M15
G01X0095348
M16
G00X0094561Y0066561
M15
G01X0094611
M16
G00X0093799Y0066561
M15
G01X0093849
M16
G00X0092961Y0066561
M15
G01X0093011
M16
G00X0094675Y00678
M15
G01X0094725
M16
G00X0094675Y00688
M15
G01X0094725
M16
M30
