G04*
G04 #@! TF.GenerationSoftware,Altium Limited,Altium Designer,22.5.1 (42)*
G04*
G04 Layer_Physical_Order=2*
G04 Layer_Color=36540*
%FSLAX43Y43*%
%MOMM*%
G71*
G04*
G04 #@! TF.SameCoordinates,B4329D7B-D132-43AD-BD09-584EF951B7D5*
G04*
G04*
G04 #@! TF.FilePolarity,Positive*
G04*
G01*
G75*
%ADD115C,0.300*%
G04:AMPARAMS|DCode=122|XSize=6mm|YSize=4.24mm|CornerRadius=0mm|HoleSize=0mm|Usage=FLASHONLY|Rotation=90.000|XOffset=0mm|YOffset=0mm|HoleType=Round|Shape=Octagon|*
%AMOCTAGOND122*
4,1,8,1.060,3.000,-1.060,3.000,-2.120,1.940,-2.120,-1.940,-1.060,-3.000,1.060,-3.000,2.120,-1.940,2.120,1.940,1.060,3.000,0.0*
%
%ADD122OCTAGOND122*%

%ADD123C,1.550*%
%ADD127C,2.850*%
%ADD130C,1.150*%
%ADD133C,3.200*%
%ADD135R,1.200X1.200*%
%ADD139C,1.270*%
%ADD140C,0.600*%
G36*
X99313Y73173D02*
X99217Y72941D01*
X99146Y72583D01*
Y72527D01*
X101000D01*
Y72400D01*
X101127D01*
Y70546D01*
X101183D01*
X101541Y70617D01*
X101878Y70757D01*
X102182Y70960D01*
X102440Y71218D01*
X102466Y71257D01*
X102588Y71220D01*
Y2905D01*
X102466Y2868D01*
X102390Y2982D01*
X102132Y3240D01*
X101828Y3443D01*
X101491Y3583D01*
X101133Y3654D01*
X101077D01*
Y1800D01*
X100950D01*
Y1673D01*
X99096D01*
Y1617D01*
X99167Y1259D01*
X99307Y922D01*
X99314Y912D01*
X99254Y800D01*
X25144D01*
X25067Y901D01*
X25086Y973D01*
X24200D01*
Y1227D01*
X25086D01*
X25028Y1443D01*
X24911Y1646D01*
X24746Y1811D01*
X24620Y1884D01*
X24654Y2011D01*
X24717D01*
X24943Y2072D01*
X25146Y2189D01*
X25311Y2354D01*
X25428Y2557D01*
X25486Y2773D01*
X23714D01*
X23772Y2557D01*
X23889Y2354D01*
X24054Y2189D01*
X24180Y2116D01*
X24146Y1989D01*
X24083D01*
X23857Y1928D01*
X23654Y1811D01*
X23489Y1646D01*
X23423Y1533D01*
X23277D01*
X23211Y1646D01*
X23046Y1811D01*
X22843Y1928D01*
X22627Y1986D01*
Y1100D01*
X22373D01*
Y1986D01*
X22157Y1928D01*
X21954Y1811D01*
X21833Y1690D01*
X21750Y1660D01*
X21667Y1690D01*
X21546Y1811D01*
X21421Y1884D01*
X21397Y2040D01*
X21411Y2054D01*
X21528Y2257D01*
X21586Y2473D01*
X19814D01*
X19872Y2257D01*
X19989Y2054D01*
X20154Y1889D01*
X20279Y1816D01*
X20303Y1660D01*
X20289Y1646D01*
X20194Y1483D01*
X20078Y1470D01*
X20051Y1478D01*
X20011Y1546D01*
X19846Y1711D01*
X19643Y1828D01*
X19427Y1886D01*
Y1000D01*
X19300D01*
Y873D01*
X18403D01*
X18361Y818D01*
X18251D01*
X18172Y921D01*
X18186Y973D01*
X17300D01*
Y1227D01*
X18186D01*
X18128Y1443D01*
X18011Y1646D01*
X17846Y1811D01*
X17643Y1928D01*
X17417Y1989D01*
X17354D01*
X17320Y2116D01*
X17446Y2189D01*
X17611Y2354D01*
X17728Y2557D01*
X17789Y2783D01*
Y2913D01*
X17789Y2948D01*
X17916Y2964D01*
X17926Y2926D01*
X17972Y2757D01*
X18089Y2554D01*
X18254Y2389D01*
X18457Y2272D01*
X18673Y2214D01*
Y3100D01*
Y3986D01*
X18457Y3928D01*
X18254Y3811D01*
X18089Y3646D01*
X17972Y3443D01*
X17911Y3217D01*
Y3087D01*
X17911Y3052D01*
X17784Y3036D01*
X17774Y3074D01*
X17728Y3243D01*
X17611Y3446D01*
X17446Y3611D01*
X17243Y3728D01*
X17027Y3786D01*
Y2900D01*
X16773D01*
Y3786D01*
X16557Y3728D01*
X16354Y3611D01*
X16189Y3446D01*
X16163Y3402D01*
X16037D01*
X16011Y3446D01*
X15846Y3611D01*
X15643Y3728D01*
X15621Y3734D01*
Y3866D01*
X15643Y3872D01*
X15846Y3989D01*
X16011Y4154D01*
X16128Y4357D01*
X16136Y4384D01*
X16262Y4401D01*
X16289Y4354D01*
X16454Y4189D01*
X16657Y4072D01*
X16873Y4014D01*
Y4900D01*
X17000D01*
Y5027D01*
X17886D01*
X17828Y5243D01*
X17711Y5446D01*
X17546Y5611D01*
X17343Y5728D01*
X17174Y5774D01*
X17136Y5784D01*
X17152Y5911D01*
X17187Y5911D01*
X17317D01*
X17543Y5972D01*
X17746Y6089D01*
X17911Y6254D01*
X18028Y6457D01*
X18086Y6673D01*
X17200D01*
Y6800D01*
X17073D01*
Y7686D01*
X16857Y7628D01*
X16654Y7511D01*
X16489Y7346D01*
X16394Y7183D01*
X16278Y7170D01*
X16250Y7178D01*
X16211Y7246D01*
X16046Y7411D01*
X15843Y7528D01*
X15627Y7586D01*
Y6700D01*
Y5814D01*
X15843Y5872D01*
X16046Y5989D01*
X16211Y6154D01*
X16306Y6317D01*
X16422Y6330D01*
X16449Y6322D01*
X16489Y6254D01*
X16654Y6089D01*
X16857Y5972D01*
X17026Y5926D01*
X17064Y5916D01*
X17048Y5789D01*
X17013Y5789D01*
X16883D01*
X16657Y5728D01*
X16454Y5611D01*
X16289Y5446D01*
X16172Y5243D01*
X16164Y5216D01*
X16038Y5199D01*
X16011Y5246D01*
X15846Y5411D01*
X15643Y5528D01*
X15427Y5586D01*
Y4700D01*
X15300D01*
Y4573D01*
X14414D01*
X14472Y4357D01*
X14589Y4154D01*
X14754Y3989D01*
X14957Y3872D01*
X14979Y3866D01*
Y3734D01*
X14957Y3728D01*
X14754Y3611D01*
X14589Y3446D01*
X14472Y3243D01*
X14414Y3027D01*
X15300D01*
Y2773D01*
X14414D01*
X14472Y2557D01*
X14589Y2354D01*
X14754Y2189D01*
X14957Y2072D01*
X15183Y2011D01*
X15348D01*
X15364Y1884D01*
X15157Y1828D01*
X14954Y1711D01*
X14789Y1546D01*
X14723Y1433D01*
X14577D01*
X14511Y1546D01*
X14346Y1711D01*
X14143Y1828D01*
X13927Y1886D01*
Y1000D01*
X13800D01*
Y873D01*
X12903D01*
X12847Y800D01*
X12689D01*
Y1017D01*
X12628Y1243D01*
X12511Y1446D01*
X12346Y1611D01*
X12143Y1728D01*
X11927Y1786D01*
Y900D01*
X11673D01*
Y1786D01*
X11457Y1728D01*
X11254Y1611D01*
X11089Y1446D01*
X10972Y1243D01*
X10911Y1017D01*
Y800D01*
X10489D01*
Y1017D01*
X10428Y1243D01*
X10311Y1446D01*
X10146Y1611D01*
X9943Y1728D01*
X9727Y1786D01*
Y900D01*
X9473D01*
Y1786D01*
X9257Y1728D01*
X9054Y1611D01*
X8889Y1446D01*
X8849Y1378D01*
X8822Y1370D01*
X8706Y1383D01*
X8611Y1546D01*
X8446Y1711D01*
X8243Y1828D01*
X8027Y1886D01*
Y1000D01*
X7773D01*
Y1886D01*
X7557Y1828D01*
X7354Y1711D01*
X7189Y1546D01*
X7072Y1343D01*
X7036Y1211D01*
X6900Y1193D01*
X6811Y1346D01*
X6646Y1511D01*
X6443Y1628D01*
X6227Y1686D01*
Y800D01*
X5973D01*
Y1686D01*
X5757Y1628D01*
X5554Y1511D01*
X5389Y1346D01*
X5319Y1225D01*
X5172D01*
X5111Y1331D01*
X4946Y1496D01*
X4889Y1529D01*
Y1656D01*
X4946Y1689D01*
X5111Y1854D01*
X5228Y2057D01*
X5286Y2273D01*
X4400D01*
Y2527D01*
X5286D01*
X5228Y2743D01*
X5111Y2946D01*
X5026Y3031D01*
X5046Y3189D01*
X5211Y3354D01*
X5258Y3436D01*
X5425Y3470D01*
X5446Y3454D01*
Y3435D01*
X5511Y3110D01*
X5637Y2805D01*
X5821Y2530D01*
X6055Y2296D01*
X6330Y2112D01*
X6635Y1986D01*
X6960Y1921D01*
X6998D01*
Y3600D01*
Y5279D01*
X6960D01*
X6635Y5214D01*
X6330Y5088D01*
X6055Y4904D01*
X5821Y4670D01*
X5637Y4395D01*
X5511Y4090D01*
X5506Y4069D01*
X5376Y4065D01*
X5328Y4243D01*
X5211Y4446D01*
X5046Y4611D01*
X4999Y4638D01*
X5016Y4764D01*
X5043Y4772D01*
X5246Y4889D01*
X5411Y5054D01*
X5528Y5257D01*
X5586Y5473D01*
X3814D01*
X3872Y5257D01*
X3989Y5054D01*
X4154Y4889D01*
X4201Y4862D01*
X4184Y4736D01*
X4157Y4728D01*
X3954Y4611D01*
X3916Y4573D01*
X3789Y4626D01*
Y4717D01*
X3728Y4943D01*
X3611Y5146D01*
X3446Y5311D01*
X3243Y5428D01*
X3221Y5434D01*
Y5566D01*
X3243Y5572D01*
X3446Y5689D01*
X3611Y5854D01*
X3728Y6057D01*
X3786Y6273D01*
X2900D01*
Y6400D01*
X2773D01*
Y7286D01*
X2557Y7228D01*
X2354Y7111D01*
X2189Y6946D01*
X2123Y6833D01*
X1977D01*
X1911Y6946D01*
X1746Y7111D01*
X1543Y7228D01*
X1336Y7284D01*
X1352Y7411D01*
X1417D01*
X1643Y7472D01*
X1846Y7589D01*
X2011Y7754D01*
X2056Y7831D01*
X2123Y7843D01*
X2206Y7837D01*
X2354Y7689D01*
X2557Y7572D01*
X2773Y7514D01*
Y8400D01*
X3027D01*
Y7514D01*
X3243Y7572D01*
X3446Y7689D01*
X3611Y7854D01*
X3728Y8057D01*
X3789Y8283D01*
Y8383D01*
X3802Y8392D01*
X3916Y8427D01*
X4054Y8289D01*
X4257Y8172D01*
X4284Y8164D01*
X4301Y8038D01*
X4254Y8011D01*
X4089Y7846D01*
X3972Y7643D01*
X3914Y7427D01*
X5686D01*
X5628Y7643D01*
X5511Y7846D01*
X5346Y8011D01*
X5143Y8128D01*
X5116Y8136D01*
X5099Y8262D01*
X5146Y8289D01*
X5311Y8454D01*
X5334Y8494D01*
X5468Y8472D01*
X5511Y8260D01*
X5637Y7955D01*
X5821Y7680D01*
X6055Y7446D01*
X6330Y7262D01*
X6635Y7136D01*
X6960Y7071D01*
X6998D01*
Y8750D01*
Y10429D01*
X6960D01*
X6635Y10364D01*
X6330Y10238D01*
X6055Y10054D01*
X5821Y9820D01*
X5637Y9545D01*
X5557Y9353D01*
X5470Y9346D01*
X5421Y9356D01*
X5311Y9546D01*
X5146Y9711D01*
X4943Y9828D01*
X4727Y9886D01*
Y9000D01*
X4473D01*
Y9886D01*
X4257Y9828D01*
X4054Y9711D01*
X3889Y9546D01*
X3772Y9343D01*
X3711Y9117D01*
Y9017D01*
X3698Y9008D01*
X3584Y8973D01*
X3446Y9111D01*
X3243Y9228D01*
X3036Y9284D01*
X3052Y9411D01*
X3217D01*
X3443Y9472D01*
X3646Y9589D01*
X3811Y9754D01*
X3928Y9957D01*
X3986Y10173D01*
X3100D01*
Y10300D01*
X2973D01*
Y11186D01*
X2757Y11128D01*
X2554Y11011D01*
X2389Y10846D01*
X2294Y10683D01*
X2178Y10670D01*
X2151Y10678D01*
X2111Y10746D01*
X1946Y10911D01*
X1743Y11028D01*
X1527Y11086D01*
Y10200D01*
X1400D01*
Y10073D01*
X514D01*
X572Y9857D01*
X689Y9654D01*
X854Y9489D01*
X1057Y9372D01*
X1264Y9316D01*
X1248Y9189D01*
X1183D01*
X957Y9128D01*
X754Y9011D01*
X589Y8846D01*
X472Y8643D01*
X411Y8417D01*
X287Y8425D01*
Y71311D01*
X414Y71364D01*
X618Y71160D01*
X922Y70957D01*
X1259Y70817D01*
X1617Y70746D01*
X1673D01*
Y72600D01*
X1800D01*
Y72727D01*
X3654D01*
Y72783D01*
X3583Y73141D01*
X3561Y73194D01*
X3631Y73300D01*
X99229D01*
X99313Y73173D01*
D02*
G37*
G36*
X3027Y3714D02*
X3243Y3772D01*
X3446Y3889D01*
X3484Y3927D01*
X3611Y3874D01*
Y3783D01*
X3672Y3557D01*
X3789Y3354D01*
X3874Y3269D01*
X3854Y3111D01*
X3766Y3023D01*
X3645Y2983D01*
X3598Y3024D01*
X3382Y3240D01*
X3078Y3443D01*
X2741Y3583D01*
X2383Y3654D01*
X2327D01*
Y1800D01*
X2073D01*
Y3654D01*
X2017D01*
X1659Y3583D01*
X1322Y3443D01*
X1018Y3240D01*
X760Y2982D01*
X557Y2678D01*
X417Y2341D01*
X414Y2326D01*
X287Y2339D01*
Y3992D01*
X414Y4028D01*
X554Y3889D01*
X757Y3772D01*
X973Y3714D01*
Y4600D01*
X1227D01*
Y3714D01*
X1443Y3772D01*
X1646Y3889D01*
X1811Y4054D01*
X1928Y4257D01*
X1934Y4279D01*
X2066D01*
X2072Y4257D01*
X2189Y4054D01*
X2354Y3889D01*
X2557Y3772D01*
X2773Y3714D01*
Y4600D01*
X3027D01*
Y3714D01*
D02*
G37*
%LPC*%
G36*
X94035Y73154D02*
X94027D01*
Y72252D01*
X94929D01*
Y72260D01*
X94859Y72522D01*
X94723Y72757D01*
X94532Y72948D01*
X94297Y73084D01*
X94035Y73154D01*
D02*
G37*
G36*
X93773D02*
X93765D01*
X93503Y73084D01*
X93268Y72948D01*
X93077Y72757D01*
X92941Y72522D01*
X92871Y72260D01*
Y72252D01*
X93773D01*
Y73154D01*
D02*
G37*
G36*
X48567Y72094D02*
Y71270D01*
X48313D01*
Y72094D01*
X48120Y72043D01*
X47931Y71933D01*
X47805Y71807D01*
X47679Y71933D01*
X47490Y72043D01*
X47297Y72094D01*
Y71270D01*
X47043D01*
Y72094D01*
X46850Y72043D01*
X46661Y71933D01*
X46507Y71779D01*
X46355Y71770D01*
X46314Y71810D01*
X46161Y71899D01*
X45989Y71945D01*
X45811D01*
X45639Y71899D01*
X45486Y71810D01*
X45360Y71684D01*
X45338Y71647D01*
X45192D01*
X45170Y71684D01*
X45044Y71810D01*
X44891Y71899D01*
X44719Y71945D01*
X44541D01*
X44369Y71899D01*
X44216Y71810D01*
X44090Y71684D01*
X44001Y71531D01*
X43955Y71359D01*
Y71181D01*
X44001Y71009D01*
X44090Y70856D01*
X44216Y70730D01*
X44253Y70708D01*
Y70562D01*
X44216Y70540D01*
X44090Y70414D01*
X44001Y70261D01*
X43955Y70089D01*
Y69911D01*
X44001Y69739D01*
X44090Y69586D01*
X44216Y69460D01*
X44369Y69371D01*
X44541Y69325D01*
X44719D01*
X44891Y69371D01*
X45044Y69460D01*
X45170Y69586D01*
X45192Y69623D01*
X45338D01*
X45360Y69586D01*
X45486Y69460D01*
X45639Y69371D01*
X45811Y69325D01*
X45989D01*
X46161Y69371D01*
X46314Y69460D01*
X46440Y69586D01*
X46462Y69623D01*
X46608D01*
X46630Y69586D01*
X46756Y69460D01*
X46909Y69371D01*
X47081Y69325D01*
X47259D01*
X47431Y69371D01*
X47584Y69460D01*
X47710Y69586D01*
X47732Y69623D01*
X47878D01*
X47900Y69586D01*
X48026Y69460D01*
X48179Y69371D01*
X48351Y69325D01*
X48529D01*
X48701Y69371D01*
X48854Y69460D01*
X48980Y69586D01*
X49002Y69623D01*
X49148D01*
X49170Y69586D01*
X49296Y69460D01*
X49449Y69371D01*
X49621Y69325D01*
X49799D01*
X49971Y69371D01*
X50124Y69460D01*
X50250Y69586D01*
X50339Y69739D01*
X50385Y69911D01*
Y70089D01*
X50339Y70261D01*
X50250Y70414D01*
X50197Y70468D01*
X50249Y70595D01*
X50385D01*
Y71945D01*
X49035D01*
X49035Y71945D01*
X48912Y71955D01*
X48760Y72043D01*
X48567Y72094D01*
D02*
G37*
G36*
X96555Y73000D02*
X96325D01*
X96102Y72940D01*
X95903Y72825D01*
X95740Y72662D01*
X95625Y72463D01*
X95565Y72240D01*
Y72010D01*
X95625Y71787D01*
X95740Y71588D01*
X95903Y71425D01*
X96102Y71310D01*
X96325Y71250D01*
X96555D01*
X96778Y71310D01*
X96977Y71425D01*
X97140Y71588D01*
X97255Y71787D01*
X97315Y72010D01*
Y72240D01*
X97255Y72463D01*
X97140Y72662D01*
X96977Y72825D01*
X96778Y72940D01*
X96555Y73000D01*
D02*
G37*
G36*
X91475D02*
X91245D01*
X91022Y72940D01*
X90823Y72825D01*
X90660Y72662D01*
X90545Y72463D01*
X90485Y72240D01*
Y72010D01*
X90545Y71787D01*
X90660Y71588D01*
X90823Y71425D01*
X91022Y71310D01*
X91245Y71250D01*
X91475D01*
X91698Y71310D01*
X91897Y71425D01*
X92060Y71588D01*
X92175Y71787D01*
X92235Y72010D01*
Y72240D01*
X92175Y72463D01*
X92060Y72662D01*
X91897Y72825D01*
X91698Y72940D01*
X91475Y73000D01*
D02*
G37*
G36*
X88935D02*
X88705D01*
X88482Y72940D01*
X88283Y72825D01*
X88120Y72662D01*
X88005Y72463D01*
X87945Y72240D01*
Y72010D01*
X88005Y71787D01*
X88120Y71588D01*
X88283Y71425D01*
X88482Y71310D01*
X88705Y71250D01*
X88935D01*
X89158Y71310D01*
X89357Y71425D01*
X89520Y71588D01*
X89635Y71787D01*
X89695Y72010D01*
Y72240D01*
X89635Y72463D01*
X89520Y72662D01*
X89357Y72825D01*
X89158Y72940D01*
X88935Y73000D01*
D02*
G37*
G36*
X86395D02*
X86165D01*
X85942Y72940D01*
X85743Y72825D01*
X85580Y72662D01*
X85465Y72463D01*
X85405Y72240D01*
Y72010D01*
X85465Y71787D01*
X85580Y71588D01*
X85743Y71425D01*
X85942Y71310D01*
X86165Y71250D01*
X86395D01*
X86618Y71310D01*
X86817Y71425D01*
X86980Y71588D01*
X87095Y71787D01*
X87155Y72010D01*
Y72240D01*
X87095Y72463D01*
X86980Y72662D01*
X86817Y72825D01*
X86618Y72940D01*
X86395Y73000D01*
D02*
G37*
G36*
X83855D02*
X83625D01*
X83402Y72940D01*
X83203Y72825D01*
X83040Y72662D01*
X82925Y72463D01*
X82865Y72240D01*
Y72010D01*
X82925Y71787D01*
X83040Y71588D01*
X83203Y71425D01*
X83402Y71310D01*
X83625Y71250D01*
X83855D01*
X84078Y71310D01*
X84277Y71425D01*
X84440Y71588D01*
X84555Y71787D01*
X84615Y72010D01*
Y72240D01*
X84555Y72463D01*
X84440Y72662D01*
X84277Y72825D01*
X84078Y72940D01*
X83855Y73000D01*
D02*
G37*
G36*
X81315D02*
X81085D01*
X80862Y72940D01*
X80663Y72825D01*
X80500Y72662D01*
X80385Y72463D01*
X80325Y72240D01*
Y72010D01*
X80385Y71787D01*
X80500Y71588D01*
X80663Y71425D01*
X80862Y71310D01*
X81085Y71250D01*
X81315D01*
X81538Y71310D01*
X81737Y71425D01*
X81900Y71588D01*
X82015Y71787D01*
X82075Y72010D01*
Y72240D01*
X82015Y72463D01*
X81900Y72662D01*
X81737Y72825D01*
X81538Y72940D01*
X81315Y73000D01*
D02*
G37*
G36*
X78775D02*
X78545D01*
X78322Y72940D01*
X78123Y72825D01*
X77960Y72662D01*
X77845Y72463D01*
X77785Y72240D01*
Y72010D01*
X77845Y71787D01*
X77960Y71588D01*
X78123Y71425D01*
X78322Y71310D01*
X78545Y71250D01*
X78775D01*
X78998Y71310D01*
X79197Y71425D01*
X79360Y71588D01*
X79475Y71787D01*
X79535Y72010D01*
Y72240D01*
X79475Y72463D01*
X79360Y72662D01*
X79197Y72825D01*
X78998Y72940D01*
X78775Y73000D01*
D02*
G37*
G36*
X76235D02*
X76005D01*
X75782Y72940D01*
X75583Y72825D01*
X75420Y72662D01*
X75305Y72463D01*
X75245Y72240D01*
Y72010D01*
X75305Y71787D01*
X75420Y71588D01*
X75583Y71425D01*
X75782Y71310D01*
X76005Y71250D01*
X76235D01*
X76458Y71310D01*
X76657Y71425D01*
X76820Y71588D01*
X76935Y71787D01*
X76995Y72010D01*
Y72240D01*
X76935Y72463D01*
X76820Y72662D01*
X76657Y72825D01*
X76458Y72940D01*
X76235Y73000D01*
D02*
G37*
G36*
X73695D02*
X73465D01*
X73242Y72940D01*
X73043Y72825D01*
X72880Y72662D01*
X72765Y72463D01*
X72705Y72240D01*
Y72010D01*
X72765Y71787D01*
X72880Y71588D01*
X73043Y71425D01*
X73242Y71310D01*
X73465Y71250D01*
X73695D01*
X73918Y71310D01*
X74117Y71425D01*
X74280Y71588D01*
X74395Y71787D01*
X74455Y72010D01*
Y72240D01*
X74395Y72463D01*
X74280Y72662D01*
X74117Y72825D01*
X73918Y72940D01*
X73695Y73000D01*
D02*
G37*
G36*
X71155D02*
X70925D01*
X70702Y72940D01*
X70503Y72825D01*
X70340Y72662D01*
X70225Y72463D01*
X70165Y72240D01*
Y72010D01*
X70225Y71787D01*
X70340Y71588D01*
X70503Y71425D01*
X70702Y71310D01*
X70925Y71250D01*
X71155D01*
X71378Y71310D01*
X71577Y71425D01*
X71740Y71588D01*
X71855Y71787D01*
X71915Y72010D01*
Y72240D01*
X71855Y72463D01*
X71740Y72662D01*
X71577Y72825D01*
X71378Y72940D01*
X71155Y73000D01*
D02*
G37*
G36*
X68615D02*
X68385D01*
X68162Y72940D01*
X67963Y72825D01*
X67800Y72662D01*
X67685Y72463D01*
X67625Y72240D01*
Y72010D01*
X67685Y71787D01*
X67800Y71588D01*
X67963Y71425D01*
X68162Y71310D01*
X68385Y71250D01*
X68615D01*
X68838Y71310D01*
X69037Y71425D01*
X69200Y71588D01*
X69315Y71787D01*
X69375Y72010D01*
Y72240D01*
X69315Y72463D01*
X69200Y72662D01*
X69037Y72825D01*
X68838Y72940D01*
X68615Y73000D01*
D02*
G37*
G36*
X66075D02*
X65845D01*
X65622Y72940D01*
X65423Y72825D01*
X65260Y72662D01*
X65145Y72463D01*
X65085Y72240D01*
Y72010D01*
X65145Y71787D01*
X65260Y71588D01*
X65423Y71425D01*
X65622Y71310D01*
X65845Y71250D01*
X66075D01*
X66298Y71310D01*
X66497Y71425D01*
X66660Y71588D01*
X66775Y71787D01*
X66835Y72010D01*
Y72240D01*
X66775Y72463D01*
X66660Y72662D01*
X66497Y72825D01*
X66298Y72940D01*
X66075Y73000D01*
D02*
G37*
G36*
X63535D02*
X63305D01*
X63082Y72940D01*
X62883Y72825D01*
X62720Y72662D01*
X62605Y72463D01*
X62545Y72240D01*
Y72010D01*
X62605Y71787D01*
X62720Y71588D01*
X62883Y71425D01*
X63082Y71310D01*
X63305Y71250D01*
X63535D01*
X63758Y71310D01*
X63957Y71425D01*
X64120Y71588D01*
X64235Y71787D01*
X64295Y72010D01*
Y72240D01*
X64235Y72463D01*
X64120Y72662D01*
X63957Y72825D01*
X63758Y72940D01*
X63535Y73000D01*
D02*
G37*
G36*
X94929Y71998D02*
X94027D01*
Y71096D01*
X94035D01*
X94297Y71166D01*
X94532Y71302D01*
X94723Y71493D01*
X94859Y71728D01*
X94929Y71990D01*
Y71998D01*
D02*
G37*
G36*
X93773D02*
X92871D01*
Y71990D01*
X92941Y71728D01*
X93077Y71493D01*
X93268Y71302D01*
X93503Y71166D01*
X93765Y71096D01*
X93773D01*
Y71998D01*
D02*
G37*
G36*
X3654Y72473D02*
X1927D01*
Y70746D01*
X1983D01*
X2341Y70817D01*
X2678Y70957D01*
X2982Y71160D01*
X3240Y71418D01*
X3443Y71722D01*
X3583Y72059D01*
X3654Y72417D01*
Y72473D01*
D02*
G37*
G36*
X100873Y72273D02*
X99146D01*
Y72217D01*
X99217Y71859D01*
X99357Y71522D01*
X99560Y71218D01*
X99818Y70960D01*
X100122Y70757D01*
X100459Y70617D01*
X100817Y70546D01*
X100873D01*
Y72273D01*
D02*
G37*
G36*
X75605Y70450D02*
X75445D01*
X75298Y70389D01*
X75186Y70277D01*
X75125Y70130D01*
Y69970D01*
X75186Y69823D01*
X75298Y69711D01*
X75445Y69650D01*
X75605D01*
X75752Y69711D01*
X75864Y69823D01*
X75925Y69970D01*
Y70130D01*
X75864Y70277D01*
X75752Y70389D01*
X75605Y70450D01*
D02*
G37*
G36*
X72755Y69725D02*
X72595D01*
X72448Y69664D01*
X72336Y69552D01*
X72275Y69405D01*
Y69245D01*
X72336Y69098D01*
X72448Y68986D01*
X72595Y68925D01*
X72755D01*
X72902Y68986D01*
X73014Y69098D01*
X73075Y69245D01*
Y69405D01*
X73014Y69552D01*
X72902Y69664D01*
X72755Y69725D01*
D02*
G37*
G36*
X84427Y68247D02*
Y67827D01*
X84847D01*
X84770Y68014D01*
X84614Y68170D01*
X84427Y68247D01*
D02*
G37*
G36*
X84173D02*
X83986Y68170D01*
X83830Y68014D01*
X83753Y67827D01*
X84173D01*
Y68247D01*
D02*
G37*
G36*
X68280Y68500D02*
X68120D01*
X67973Y68439D01*
X67861Y68327D01*
X67800Y68180D01*
Y68020D01*
X67861Y67873D01*
X67973Y67761D01*
X68120Y67700D01*
X68280D01*
X68427Y67761D01*
X68539Y67873D01*
X68600Y68020D01*
Y68180D01*
X68539Y68327D01*
X68427Y68439D01*
X68280Y68500D01*
D02*
G37*
G36*
X81080Y68375D02*
X80920D01*
X80773Y68314D01*
X80661Y68202D01*
X80600Y68055D01*
Y67895D01*
X80661Y67748D01*
X80773Y67636D01*
X80920Y67575D01*
X81080D01*
X81227Y67636D01*
X81339Y67748D01*
X81400Y67895D01*
Y68055D01*
X81339Y68202D01*
X81227Y68314D01*
X81080Y68375D01*
D02*
G37*
G36*
X95150Y69250D02*
X94250D01*
Y69145D01*
X94242Y69125D01*
Y68475D01*
X94250Y68455D01*
Y68377D01*
X94250Y68375D01*
Y68225D01*
X94250Y68223D01*
Y68145D01*
X94242Y68125D01*
Y67475D01*
X94250Y67455D01*
Y67350D01*
X95150D01*
Y67455D01*
X95158Y67475D01*
Y68125D01*
X95150Y68145D01*
Y68223D01*
X95150Y68225D01*
Y68375D01*
X95150Y68377D01*
Y68455D01*
X95158Y68475D01*
Y69125D01*
X95150Y69145D01*
Y69225D01*
Y69250D01*
D02*
G37*
G36*
X82380Y68100D02*
X82220D01*
X82073Y68039D01*
X81961Y67927D01*
X81900Y67780D01*
Y67620D01*
X81961Y67473D01*
X82073Y67361D01*
X82220Y67300D01*
X82380D01*
X82527Y67361D01*
X82639Y67473D01*
X82700Y67620D01*
Y67780D01*
X82639Y67927D01*
X82527Y68039D01*
X82380Y68100D01*
D02*
G37*
G36*
X84847Y67573D02*
X84427D01*
Y67153D01*
X84614Y67230D01*
X84770Y67386D01*
X84847Y67573D01*
D02*
G37*
G36*
X84173D02*
X83753D01*
X83830Y67386D01*
X83986Y67230D01*
X84173Y67153D01*
Y67573D01*
D02*
G37*
G36*
X43080Y67600D02*
X42920D01*
X42773Y67539D01*
X42661Y67427D01*
X42600Y67280D01*
Y67120D01*
X42661Y66973D01*
X42773Y66861D01*
X42920Y66800D01*
X43080D01*
X43227Y66861D01*
X43339Y66973D01*
X43400Y67120D01*
Y67280D01*
X43339Y67427D01*
X43227Y67539D01*
X43080Y67600D01*
D02*
G37*
G36*
X68180Y67000D02*
X68020D01*
X67873Y66939D01*
X67761Y66827D01*
X67700Y66680D01*
Y66520D01*
X67761Y66373D01*
X67873Y66261D01*
X68020Y66200D01*
X68180D01*
X68327Y66261D01*
X68439Y66373D01*
X68500Y66520D01*
Y66680D01*
X68439Y66827D01*
X68327Y66939D01*
X68180Y67000D01*
D02*
G37*
G36*
X96484Y67011D02*
X92536D01*
Y66905D01*
X92528Y66886D01*
Y66236D01*
X92536Y66216D01*
Y66111D01*
X96484D01*
Y66216D01*
X96492Y66236D01*
Y66886D01*
X96484Y66905D01*
Y66986D01*
Y67011D01*
D02*
G37*
G36*
X89980Y66800D02*
X89820D01*
X89673Y66739D01*
X89561Y66627D01*
X89500Y66480D01*
Y66320D01*
X89561Y66173D01*
X89673Y66061D01*
X89820Y66000D01*
X89980D01*
X90127Y66061D01*
X90239Y66173D01*
X90300Y66320D01*
Y66480D01*
X90239Y66627D01*
X90127Y66739D01*
X89980Y66800D01*
D02*
G37*
G36*
X66905Y66100D02*
X66745D01*
X66598Y66039D01*
X66486Y65927D01*
X66425Y65780D01*
Y65757D01*
X66298Y65672D01*
X66230Y65700D01*
X66070D01*
X65923Y65639D01*
X65811Y65527D01*
X65750Y65380D01*
Y65220D01*
X65811Y65073D01*
X65923Y64961D01*
X66070Y64900D01*
X66230D01*
X66377Y64961D01*
X66489Y65073D01*
X66550Y65220D01*
Y65243D01*
X66677Y65328D01*
X66745Y65300D01*
X66905D01*
X67052Y65361D01*
X67164Y65473D01*
X67225Y65620D01*
Y65780D01*
X67164Y65927D01*
X67052Y66039D01*
X66905Y66100D01*
D02*
G37*
G36*
X99427Y64847D02*
Y64427D01*
X99847D01*
X99770Y64614D01*
X99614Y64770D01*
X99427Y64847D01*
D02*
G37*
G36*
X99173D02*
X98986Y64770D01*
X98830Y64614D01*
X98753Y64427D01*
X99173D01*
Y64847D01*
D02*
G37*
G36*
X89781Y64739D02*
Y64319D01*
X90201D01*
X90124Y64506D01*
X89968Y64662D01*
X89781Y64739D01*
D02*
G37*
G36*
X89527D02*
X89340Y64662D01*
X89184Y64506D01*
X89107Y64319D01*
X89527D01*
Y64739D01*
D02*
G37*
G36*
X59055Y64800D02*
X58895D01*
X58748Y64739D01*
X58636Y64627D01*
X58575Y64480D01*
Y64320D01*
X58636Y64173D01*
X58748Y64061D01*
X58895Y64000D01*
X59055D01*
X59202Y64061D01*
X59314Y64173D01*
X59375Y64320D01*
Y64480D01*
X59314Y64627D01*
X59202Y64739D01*
X59055Y64800D01*
D02*
G37*
G36*
X99847Y64173D02*
X99427D01*
Y63753D01*
X99614Y63830D01*
X99770Y63986D01*
X99847Y64173D01*
D02*
G37*
G36*
X99173D02*
X98753D01*
X98830Y63986D01*
X98986Y63830D01*
X99173Y63753D01*
Y64173D01*
D02*
G37*
G36*
X82127Y64147D02*
Y63727D01*
X82547D01*
X82470Y63914D01*
X82314Y64070D01*
X82127Y64147D01*
D02*
G37*
G36*
X81873D02*
X81686Y64070D01*
X81530Y63914D01*
X81453Y63727D01*
X81873D01*
Y64147D01*
D02*
G37*
G36*
X90201Y64065D02*
X89781D01*
Y63645D01*
X89968Y63722D01*
X90124Y63878D01*
X90201Y64065D01*
D02*
G37*
G36*
X89527D02*
X89107D01*
X89184Y63878D01*
X89340Y63722D01*
X89527Y63645D01*
Y64065D01*
D02*
G37*
G36*
X82547Y63473D02*
X82127D01*
Y63053D01*
X82314Y63130D01*
X82470Y63286D01*
X82547Y63473D01*
D02*
G37*
G36*
X81873D02*
X81453D01*
X81530Y63286D01*
X81686Y63130D01*
X81873Y63053D01*
Y63473D01*
D02*
G37*
G36*
X29411Y63531D02*
X29252D01*
X29105Y63470D01*
X28992Y63358D01*
X28931Y63211D01*
Y63052D01*
X28992Y62905D01*
X29105Y62792D01*
X29252Y62731D01*
X29411D01*
X29558Y62792D01*
X29670Y62905D01*
X29731Y63052D01*
Y63211D01*
X29670Y63358D01*
X29558Y63470D01*
X29411Y63531D01*
D02*
G37*
G36*
X85980Y62500D02*
X85820D01*
X85673Y62439D01*
X85561Y62327D01*
X85500Y62180D01*
Y62020D01*
X85561Y61873D01*
X85673Y61761D01*
X85820Y61700D01*
X85980D01*
X86127Y61761D01*
X86239Y61873D01*
X86300Y62020D01*
Y62180D01*
X86239Y62327D01*
X86127Y62439D01*
X85980Y62500D01*
D02*
G37*
G36*
X4280Y62200D02*
X4120D01*
X3973Y62139D01*
X3861Y62027D01*
X3800Y61880D01*
Y61720D01*
X3861Y61573D01*
X3973Y61461D01*
X4120Y61400D01*
X4280D01*
X4427Y61461D01*
X4539Y61573D01*
X4600Y61720D01*
Y61880D01*
X4539Y62027D01*
X4427Y62139D01*
X4280Y62200D01*
D02*
G37*
G36*
X23827Y61647D02*
Y61227D01*
X24247D01*
X24170Y61414D01*
X24014Y61570D01*
X23827Y61647D01*
D02*
G37*
G36*
X23573D02*
X23386Y61570D01*
X23230Y61414D01*
X23153Y61227D01*
X23573D01*
Y61647D01*
D02*
G37*
G36*
X73580Y61700D02*
X73420D01*
X73273Y61639D01*
X73161Y61527D01*
X73100Y61380D01*
Y61220D01*
X73161Y61073D01*
X73273Y60961D01*
X73420Y60900D01*
X73580D01*
X73727Y60961D01*
X73839Y61073D01*
X73900Y61220D01*
Y61380D01*
X73839Y61527D01*
X73727Y61639D01*
X73580Y61700D01*
D02*
G37*
G36*
X91780Y61400D02*
X91620D01*
X91473Y61339D01*
X91361Y61227D01*
X91300Y61080D01*
Y60920D01*
X91361Y60773D01*
X91473Y60661D01*
X91620Y60600D01*
X91780D01*
X91927Y60661D01*
X92039Y60773D01*
X92100Y60920D01*
Y61080D01*
X92039Y61227D01*
X91927Y61339D01*
X91780Y61400D01*
D02*
G37*
G36*
X24247Y60973D02*
X23827D01*
Y60553D01*
X24014Y60630D01*
X24170Y60786D01*
X24247Y60973D01*
D02*
G37*
G36*
X23573D02*
X23153D01*
X23230Y60786D01*
X23386Y60630D01*
X23573Y60553D01*
Y60973D01*
D02*
G37*
G36*
X97190Y60725D02*
X97010D01*
X96845Y60656D01*
X96719Y60530D01*
X96650Y60365D01*
Y60185D01*
X96719Y60020D01*
X96845Y59894D01*
X97010Y59825D01*
X97190D01*
X97355Y59894D01*
X97481Y60020D01*
X97550Y60185D01*
Y60365D01*
X97481Y60530D01*
X97355Y60656D01*
X97190Y60725D01*
D02*
G37*
G36*
X87227Y59947D02*
Y59527D01*
X87647D01*
X87570Y59714D01*
X87414Y59870D01*
X87227Y59947D01*
D02*
G37*
G36*
X86973D02*
X86786Y59870D01*
X86630Y59714D01*
X86553Y59527D01*
X86973D01*
Y59947D01*
D02*
G37*
G36*
X73627Y59747D02*
Y59327D01*
X74047D01*
X73970Y59514D01*
X73814Y59670D01*
X73627Y59747D01*
D02*
G37*
G36*
X73373D02*
X73186Y59670D01*
X73030Y59514D01*
X72953Y59327D01*
X73373D01*
Y59747D01*
D02*
G37*
G36*
X87647Y59273D02*
X87227D01*
Y58853D01*
X87414Y58930D01*
X87570Y59086D01*
X87647Y59273D01*
D02*
G37*
G36*
X86973D02*
X86553D01*
X86630Y59086D01*
X86786Y58930D01*
X86973Y58853D01*
Y59273D01*
D02*
G37*
G36*
X74047Y59073D02*
X73627D01*
Y58653D01*
X73814Y58730D01*
X73970Y58886D01*
X74047Y59073D01*
D02*
G37*
G36*
X73373D02*
X72953D01*
X73030Y58886D01*
X73186Y58730D01*
X73373Y58653D01*
Y59073D01*
D02*
G37*
G36*
X82477Y58947D02*
Y58527D01*
X82897D01*
X82820Y58714D01*
X82664Y58870D01*
X82477Y58947D01*
D02*
G37*
G36*
X82223D02*
X82036Y58870D01*
X81880Y58714D01*
X81803Y58527D01*
X82223D01*
Y58947D01*
D02*
G37*
G36*
X82897Y58273D02*
X82477D01*
Y57853D01*
X82664Y57930D01*
X82820Y58086D01*
X82897Y58273D01*
D02*
G37*
G36*
X82223D02*
X81803D01*
X81880Y58086D01*
X82036Y57930D01*
X82223Y57853D01*
Y58273D01*
D02*
G37*
G36*
X94627Y57447D02*
Y57027D01*
X95047D01*
X94970Y57214D01*
X94814Y57370D01*
X94627Y57447D01*
D02*
G37*
G36*
X94373D02*
X94186Y57370D01*
X94030Y57214D01*
X93953Y57027D01*
X94373D01*
Y57447D01*
D02*
G37*
G36*
X95047Y56773D02*
X94627D01*
Y56353D01*
X94814Y56430D01*
X94970Y56586D01*
X95047Y56773D01*
D02*
G37*
G36*
X94373D02*
X93953D01*
X94030Y56586D01*
X94186Y56430D01*
X94373Y56353D01*
Y56773D01*
D02*
G37*
G36*
X84627Y56747D02*
Y56327D01*
X85047D01*
X84970Y56514D01*
X84814Y56670D01*
X84627Y56747D01*
D02*
G37*
G36*
X84373D02*
X84186Y56670D01*
X84030Y56514D01*
X83953Y56327D01*
X84373D01*
Y56747D01*
D02*
G37*
G36*
X11580Y56800D02*
X11420D01*
X11273Y56739D01*
X11161Y56627D01*
X11100Y56480D01*
Y56320D01*
X11161Y56173D01*
X11273Y56061D01*
X11420Y56000D01*
X11580D01*
X11727Y56061D01*
X11839Y56173D01*
X11900Y56320D01*
Y56480D01*
X11839Y56627D01*
X11727Y56739D01*
X11580Y56800D01*
D02*
G37*
G36*
X7180Y56664D02*
X7020D01*
X6873Y56603D01*
X6761Y56491D01*
X6700Y56344D01*
Y56185D01*
X6761Y56038D01*
X6873Y55925D01*
X7020Y55864D01*
X7180D01*
X7327Y55925D01*
X7439Y56038D01*
X7500Y56185D01*
Y56344D01*
X7439Y56491D01*
X7327Y56603D01*
X7180Y56664D01*
D02*
G37*
G36*
X15080Y56500D02*
X14920D01*
X14773Y56439D01*
X14661Y56327D01*
X14600Y56180D01*
Y56020D01*
X14661Y55873D01*
X14773Y55761D01*
X14920Y55700D01*
X15080D01*
X15227Y55761D01*
X15339Y55873D01*
X15400Y56020D01*
Y56180D01*
X15339Y56327D01*
X15227Y56439D01*
X15080Y56500D01*
D02*
G37*
G36*
X97190Y56575D02*
X97010D01*
X96845Y56506D01*
X96719Y56380D01*
X96650Y56215D01*
Y56035D01*
X96719Y55870D01*
X96845Y55744D01*
X97010Y55675D01*
X97190D01*
X97355Y55744D01*
X97481Y55870D01*
X97550Y56035D01*
Y56215D01*
X97481Y56380D01*
X97355Y56506D01*
X97190Y56575D01*
D02*
G37*
G36*
X85047Y56073D02*
X84627D01*
Y55653D01*
X84814Y55730D01*
X84970Y55886D01*
X85047Y56073D01*
D02*
G37*
G36*
X84373D02*
X83953D01*
X84030Y55886D01*
X84186Y55730D01*
X84373Y55653D01*
Y56073D01*
D02*
G37*
G36*
X50430Y56125D02*
X50270D01*
X50123Y56064D01*
X50011Y55952D01*
X49950Y55805D01*
Y55645D01*
X50011Y55498D01*
X50123Y55386D01*
X50270Y55325D01*
X50430D01*
X50577Y55386D01*
X50689Y55498D01*
X50750Y55645D01*
Y55805D01*
X50689Y55952D01*
X50577Y56064D01*
X50430Y56125D01*
D02*
G37*
G36*
X73430Y55900D02*
X73270D01*
X73123Y55839D01*
X73011Y55727D01*
X72950Y55580D01*
Y55420D01*
X73011Y55273D01*
X73123Y55161D01*
X73270Y55100D01*
X73430D01*
X73577Y55161D01*
X73689Y55273D01*
X73750Y55420D01*
Y55580D01*
X73689Y55727D01*
X73577Y55839D01*
X73430Y55900D01*
D02*
G37*
G36*
X79330Y55600D02*
X79170D01*
X79023Y55539D01*
X78911Y55427D01*
X78850Y55280D01*
Y55120D01*
X78911Y54973D01*
X79023Y54861D01*
X79170Y54800D01*
X79330D01*
X79477Y54861D01*
X79589Y54973D01*
X79650Y55120D01*
Y55280D01*
X79589Y55427D01*
X79477Y55539D01*
X79330Y55600D01*
D02*
G37*
G36*
X60180D02*
X60020D01*
X59873Y55539D01*
X59761Y55427D01*
X59700Y55280D01*
Y55120D01*
X59761Y54973D01*
X59873Y54861D01*
X60020Y54800D01*
X60180D01*
X60327Y54861D01*
X60439Y54973D01*
X60500Y55120D01*
Y55280D01*
X60439Y55427D01*
X60327Y55539D01*
X60180Y55600D01*
D02*
G37*
G36*
X84430Y55200D02*
X84270D01*
X84123Y55139D01*
X84011Y55027D01*
X83950Y54880D01*
Y54720D01*
X84011Y54573D01*
X84123Y54461D01*
X84270Y54400D01*
X84430D01*
X84577Y54461D01*
X84689Y54573D01*
X84750Y54720D01*
Y54880D01*
X84689Y55027D01*
X84577Y55139D01*
X84430Y55200D01*
D02*
G37*
G36*
X95227Y54547D02*
Y54127D01*
X95647D01*
X95570Y54314D01*
X95414Y54470D01*
X95227Y54547D01*
D02*
G37*
G36*
X94973D02*
X94786Y54470D01*
X94630Y54314D01*
X94553Y54127D01*
X94973D01*
Y54547D01*
D02*
G37*
G36*
X80580Y54600D02*
X80420D01*
X80273Y54539D01*
X80161Y54427D01*
X80100Y54280D01*
Y54120D01*
X80161Y53973D01*
X80273Y53861D01*
X80420Y53800D01*
X80580D01*
X80727Y53861D01*
X80839Y53973D01*
X80900Y54120D01*
Y54280D01*
X80839Y54427D01*
X80727Y54539D01*
X80580Y54600D01*
D02*
G37*
G36*
X78955Y54525D02*
X78795D01*
X78648Y54464D01*
X78536Y54352D01*
X78475Y54205D01*
Y54045D01*
X78536Y53898D01*
X78648Y53786D01*
X78795Y53725D01*
X78955D01*
X79102Y53786D01*
X79214Y53898D01*
X79275Y54045D01*
Y54205D01*
X79214Y54352D01*
X79102Y54464D01*
X78955Y54525D01*
D02*
G37*
G36*
X85385Y54364D02*
X85226D01*
X85079Y54303D01*
X84966Y54191D01*
X84906Y54044D01*
Y53884D01*
X84966Y53737D01*
X85079Y53625D01*
X85226Y53564D01*
X85385D01*
X85532Y53625D01*
X85645Y53737D01*
X85706Y53884D01*
Y54044D01*
X85645Y54191D01*
X85532Y54303D01*
X85385Y54364D01*
D02*
G37*
G36*
X95647Y53873D02*
X95227D01*
Y53453D01*
X95414Y53530D01*
X95570Y53686D01*
X95647Y53873D01*
D02*
G37*
G36*
X94973D02*
X94553D01*
X94630Y53686D01*
X94786Y53530D01*
X94973Y53453D01*
Y53873D01*
D02*
G37*
G36*
X77622Y53900D02*
X77463D01*
X77316Y53839D01*
X77204Y53727D01*
X77143Y53580D01*
Y53420D01*
X77204Y53273D01*
X77316Y53161D01*
X77463Y53100D01*
X77622D01*
X77770Y53161D01*
X77882Y53273D01*
X77943Y53420D01*
Y53580D01*
X77882Y53727D01*
X77770Y53839D01*
X77622Y53900D01*
D02*
G37*
G36*
X52527Y53447D02*
Y53027D01*
X52947D01*
X52870Y53214D01*
X52714Y53370D01*
X52527Y53447D01*
D02*
G37*
G36*
X52273D02*
X52086Y53370D01*
X51930Y53214D01*
X51853Y53027D01*
X52273D01*
Y53447D01*
D02*
G37*
G36*
X79980Y53600D02*
X79820D01*
X79673Y53539D01*
X79561Y53427D01*
X79500Y53280D01*
Y53120D01*
X79561Y52973D01*
X79673Y52861D01*
X79820Y52800D01*
X79980D01*
X80127Y52861D01*
X80239Y52973D01*
X80300Y53120D01*
Y53280D01*
X80239Y53427D01*
X80127Y53539D01*
X79980Y53600D01*
D02*
G37*
G36*
X33084Y52395D02*
X32925D01*
X32778Y52334D01*
X32666Y52222D01*
X32605Y52075D01*
Y51916D01*
X32666Y51769D01*
X32778Y51656D01*
X32925Y51595D01*
X33084D01*
X33231Y51656D01*
X33344Y51769D01*
X33405Y51916D01*
Y52075D01*
X33344Y52222D01*
X33231Y52334D01*
X33084Y52395D01*
D02*
G37*
G36*
X52947Y52773D02*
X51853D01*
X51930Y52586D01*
X52086Y52430D01*
X52107Y52422D01*
X52111Y52383D01*
X52095Y52289D01*
X51973Y52239D01*
X51861Y52127D01*
X51800Y51980D01*
Y51820D01*
X51861Y51673D01*
X51973Y51561D01*
X52120Y51500D01*
X52280D01*
X52427Y51561D01*
X52539Y51673D01*
X52600Y51820D01*
Y51980D01*
X52539Y52127D01*
X52447Y52219D01*
X52468Y52314D01*
X52486Y52346D01*
X52510D01*
X52714Y52430D01*
X52870Y52586D01*
X52947Y52773D01*
D02*
G37*
G36*
X101480Y51900D02*
X101320D01*
X101173Y51839D01*
X101061Y51727D01*
X101000Y51580D01*
Y51420D01*
X101061Y51273D01*
X101173Y51161D01*
X101320Y51100D01*
X101480D01*
X101627Y51161D01*
X101739Y51273D01*
X101800Y51420D01*
Y51580D01*
X101739Y51727D01*
X101627Y51839D01*
X101480Y51900D01*
D02*
G37*
G36*
X44096Y51666D02*
X43937D01*
X43790Y51605D01*
X43678Y51493D01*
X43617Y51346D01*
Y51187D01*
X43678Y51040D01*
X43790Y50927D01*
X43937Y50866D01*
X44096D01*
X44243Y50927D01*
X44356Y51040D01*
X44417Y51187D01*
Y51346D01*
X44356Y51493D01*
X44243Y51605D01*
X44096Y51666D01*
D02*
G37*
G36*
X29880Y51500D02*
X29720D01*
X29573Y51439D01*
X29461Y51327D01*
X29400Y51180D01*
Y51020D01*
X29461Y50873D01*
X29573Y50761D01*
X29720Y50700D01*
X29880D01*
X30027Y50761D01*
X30139Y50873D01*
X30200Y51020D01*
Y51180D01*
X30139Y51327D01*
X30027Y51439D01*
X29880Y51500D01*
D02*
G37*
G36*
X16680Y51400D02*
X16520D01*
X16373Y51339D01*
X16261Y51227D01*
X16200Y51080D01*
Y50920D01*
X16261Y50773D01*
X16373Y50661D01*
X16520Y50600D01*
X16680D01*
X16827Y50661D01*
X16939Y50773D01*
X17000Y50920D01*
Y51080D01*
X16939Y51227D01*
X16827Y51339D01*
X16680Y51400D01*
D02*
G37*
G36*
X66844Y51359D02*
X66684D01*
X66537Y51299D01*
X66425Y51186D01*
X66364Y51039D01*
Y50880D01*
X66425Y50733D01*
X66537Y50620D01*
X66684Y50559D01*
X66844D01*
X66991Y50620D01*
X67103Y50733D01*
X67164Y50880D01*
Y51039D01*
X67103Y51186D01*
X66991Y51299D01*
X66844Y51359D01*
D02*
G37*
G36*
X55842Y51348D02*
X55683D01*
X55536Y51288D01*
X55423Y51175D01*
X55362Y51028D01*
Y50869D01*
X55423Y50722D01*
X55536Y50609D01*
X55683Y50549D01*
X55842D01*
X55989Y50609D01*
X56101Y50722D01*
X56162Y50869D01*
Y51028D01*
X56101Y51175D01*
X55989Y51288D01*
X55842Y51348D01*
D02*
G37*
G36*
X59667Y51145D02*
X59508D01*
X59361Y51084D01*
X59248Y50972D01*
X59187Y50825D01*
Y50665D01*
X59248Y50518D01*
X59361Y50406D01*
X59508Y50345D01*
X59667D01*
X59814Y50406D01*
X59926Y50518D01*
X59987Y50665D01*
Y50825D01*
X59926Y50972D01*
X59814Y51084D01*
X59667Y51145D01*
D02*
G37*
G36*
X62898Y51131D02*
X62739D01*
X62592Y51071D01*
X62479Y50958D01*
X62418Y50811D01*
Y50652D01*
X62479Y50505D01*
X62592Y50392D01*
X62739Y50331D01*
X62898D01*
X63045Y50392D01*
X63158Y50505D01*
X63218Y50652D01*
Y50811D01*
X63158Y50958D01*
X63045Y51071D01*
X62898Y51131D01*
D02*
G37*
G36*
X90580Y50900D02*
X90420D01*
X90273Y50839D01*
X90161Y50727D01*
X90100Y50580D01*
Y50420D01*
X90161Y50273D01*
X90273Y50161D01*
X90420Y50100D01*
X90580D01*
X90727Y50161D01*
X90839Y50273D01*
X90900Y50420D01*
Y50580D01*
X90839Y50727D01*
X90727Y50839D01*
X90580Y50900D01*
D02*
G37*
G36*
X87780D02*
X87620D01*
X87473Y50839D01*
X87361Y50727D01*
X87300Y50580D01*
Y50420D01*
X87361Y50273D01*
X87473Y50161D01*
X87620Y50100D01*
X87780D01*
X87927Y50161D01*
X88039Y50273D01*
X88100Y50420D01*
Y50580D01*
X88039Y50727D01*
X87927Y50839D01*
X87780Y50900D01*
D02*
G37*
G36*
X78352Y50711D02*
Y49952D01*
X79111D01*
X79053Y50168D01*
X78936Y50371D01*
X78771Y50536D01*
X78568Y50653D01*
X78352Y50711D01*
D02*
G37*
G36*
X78098D02*
X77882Y50653D01*
X77679Y50536D01*
X77514Y50371D01*
X77397Y50168D01*
X77339Y49952D01*
X78098D01*
Y50711D01*
D02*
G37*
G36*
X76152D02*
Y49952D01*
X76911D01*
X76853Y50168D01*
X76736Y50371D01*
X76571Y50536D01*
X76368Y50653D01*
X76152Y50711D01*
D02*
G37*
G36*
X75898D02*
X75682Y50653D01*
X75479Y50536D01*
X75314Y50371D01*
X75197Y50168D01*
X75139Y49952D01*
X75898D01*
Y50711D01*
D02*
G37*
G36*
X43856Y50285D02*
X43697D01*
X43550Y50224D01*
X43438Y50112D01*
X43377Y49965D01*
Y49805D01*
X43438Y49658D01*
X43550Y49546D01*
X43697Y49485D01*
X43856D01*
X44003Y49546D01*
X44116Y49658D01*
X44177Y49805D01*
Y49965D01*
X44116Y50112D01*
X44003Y50224D01*
X43856Y50285D01*
D02*
G37*
G36*
X90427Y49847D02*
Y49427D01*
X90847D01*
X90770Y49614D01*
X90614Y49770D01*
X90427Y49847D01*
D02*
G37*
G36*
X90173D02*
X89986Y49770D01*
X89830Y49614D01*
X89753Y49427D01*
X90173D01*
Y49847D01*
D02*
G37*
G36*
X40980Y50200D02*
X40820D01*
X40673Y50139D01*
X40561Y50027D01*
X40500Y49880D01*
Y49720D01*
X40561Y49573D01*
X40673Y49461D01*
X40820Y49400D01*
X40980D01*
X41127Y49461D01*
X41239Y49573D01*
X41300Y49720D01*
Y49880D01*
X41239Y50027D01*
X41127Y50139D01*
X40980Y50200D01*
D02*
G37*
G36*
X79111Y49698D02*
X77339D01*
X77397Y49482D01*
X77439Y49409D01*
X77364Y49284D01*
X77308Y49279D01*
X76883D01*
X76810Y49406D01*
X76853Y49482D01*
X76911Y49698D01*
X75139D01*
X75197Y49482D01*
X75314Y49279D01*
X75479Y49114D01*
X75682Y48997D01*
X75775Y48972D01*
X75808Y48849D01*
X75051Y48092D01*
Y47022D01*
X75040Y46905D01*
Y46152D01*
X77425D01*
X79810D01*
Y46310D01*
X79937Y46380D01*
X80082Y46297D01*
X80298Y46239D01*
Y47125D01*
X80425D01*
Y47252D01*
X81311D01*
X81253Y47468D01*
X81136Y47671D01*
X80971Y47836D01*
X80768Y47953D01*
X80567Y48007D01*
X80543Y48081D01*
X80544Y48140D01*
X80671Y48214D01*
X80836Y48379D01*
X80953Y48582D01*
X81011Y48798D01*
X79180D01*
X79127Y48764D01*
X78774Y49117D01*
X78936Y49279D01*
X79053Y49482D01*
X79111Y49698D01*
D02*
G37*
G36*
X80252Y49811D02*
Y49052D01*
X81011D01*
X80953Y49268D01*
X80836Y49471D01*
X80671Y49636D01*
X80468Y49753D01*
X80252Y49811D01*
D02*
G37*
G36*
X79998D02*
X79782Y49753D01*
X79579Y49636D01*
X79414Y49471D01*
X79297Y49268D01*
X79239Y49052D01*
X79998D01*
Y49811D01*
D02*
G37*
G36*
X90847Y49173D02*
X90427D01*
Y48753D01*
X90614Y48830D01*
X90770Y48986D01*
X90847Y49173D01*
D02*
G37*
G36*
X90173D02*
X89753D01*
X89830Y48986D01*
X89986Y48830D01*
X90173Y48753D01*
Y49173D01*
D02*
G37*
G36*
X43927Y48647D02*
Y48227D01*
X44347D01*
X44270Y48414D01*
X44114Y48570D01*
X43927Y48647D01*
D02*
G37*
G36*
X43673D02*
X43486Y48570D01*
X43330Y48414D01*
X43253Y48227D01*
X43673D01*
Y48647D01*
D02*
G37*
G36*
X61973Y48450D02*
X61814D01*
X61667Y48389D01*
X61555Y48277D01*
X61494Y48130D01*
Y47970D01*
X61555Y47823D01*
X61667Y47711D01*
X61814Y47650D01*
X61973D01*
X62120Y47711D01*
X62233Y47823D01*
X62294Y47970D01*
Y48130D01*
X62233Y48277D01*
X62120Y48389D01*
X61973Y48450D01*
D02*
G37*
G36*
X54114D02*
X53955D01*
X53808Y48389D01*
X53695Y48277D01*
X53634Y48130D01*
Y47970D01*
X53695Y47823D01*
X53808Y47711D01*
X53955Y47650D01*
X54114D01*
X54261Y47711D01*
X54374Y47823D01*
X54435Y47970D01*
Y48130D01*
X54374Y48277D01*
X54261Y48389D01*
X54114Y48450D01*
D02*
G37*
G36*
X48535Y49030D02*
X48376D01*
X48229Y48969D01*
X48117Y48856D01*
X48056Y48709D01*
Y48550D01*
X48117Y48403D01*
X48229Y48291D01*
X48376Y48230D01*
X48535D01*
X48616Y48263D01*
X48713Y48166D01*
X48698Y48130D01*
Y47970D01*
X48759Y47823D01*
X48871Y47711D01*
X49018Y47650D01*
X49177D01*
X49324Y47711D01*
X49437Y47823D01*
X49498Y47970D01*
Y48130D01*
X49437Y48277D01*
X49324Y48389D01*
X49177Y48450D01*
X49018D01*
X48938Y48417D01*
X48841Y48514D01*
X48856Y48550D01*
Y48709D01*
X48795Y48856D01*
X48682Y48969D01*
X48535Y49030D01*
D02*
G37*
G36*
X44347Y47973D02*
X43927D01*
Y47553D01*
X44114Y47630D01*
X44270Y47786D01*
X44347Y47973D01*
D02*
G37*
G36*
X43673D02*
X43253D01*
X43330Y47786D01*
X43486Y47630D01*
X43673Y47553D01*
Y47973D01*
D02*
G37*
G36*
X66693Y48168D02*
X66534D01*
X66387Y48107D01*
X66274Y47994D01*
X66214Y47847D01*
Y47688D01*
X66274Y47541D01*
X66387Y47429D01*
X66534Y47368D01*
X66693D01*
X66840Y47429D01*
X66953Y47541D01*
X67014Y47688D01*
Y47847D01*
X66953Y47994D01*
X66840Y48107D01*
X66693Y48168D01*
D02*
G37*
G36*
X101027Y47547D02*
Y47127D01*
X101447D01*
X101370Y47314D01*
X101214Y47470D01*
X101027Y47547D01*
D02*
G37*
G36*
X100773D02*
X100586Y47470D01*
X100430Y47314D01*
X100353Y47127D01*
X100773D01*
Y47547D01*
D02*
G37*
G36*
X57783Y47883D02*
X57624D01*
X57477Y47823D01*
X57364Y47710D01*
X57304Y47563D01*
Y47404D01*
X57364Y47257D01*
X57477Y47144D01*
X57624Y47083D01*
X57783D01*
X57930Y47144D01*
X58043Y47257D01*
X58104Y47404D01*
Y47563D01*
X58043Y47710D01*
X57930Y47823D01*
X57783Y47883D01*
D02*
G37*
G36*
X54905Y47775D02*
X54745D01*
X54598Y47714D01*
X54486Y47602D01*
X54425Y47455D01*
Y47295D01*
X54486Y47148D01*
X54598Y47036D01*
X54745Y46975D01*
X54905D01*
X55052Y47036D01*
X55164Y47148D01*
X55225Y47295D01*
Y47455D01*
X55164Y47602D01*
X55052Y47714D01*
X54905Y47775D01*
D02*
G37*
G36*
X101447Y46873D02*
X101027D01*
Y46453D01*
X101214Y46530D01*
X101370Y46686D01*
X101447Y46873D01*
D02*
G37*
G36*
X100773D02*
X100353D01*
X100430Y46686D01*
X100586Y46530D01*
X100773Y46453D01*
Y46873D01*
D02*
G37*
G36*
X81311Y46998D02*
X80552D01*
Y46239D01*
X80768Y46297D01*
X80971Y46414D01*
X81136Y46579D01*
X81253Y46782D01*
X81311Y46998D01*
D02*
G37*
G36*
X80298Y46011D02*
X80082Y45953D01*
X79937Y45870D01*
X79886Y45898D01*
X77425D01*
X75040D01*
Y45145D01*
X75051Y45028D01*
Y43958D01*
X76238Y42771D01*
X76258D01*
X76292Y42644D01*
X76279Y42636D01*
X76114Y42471D01*
X75997Y42268D01*
X75939Y42052D01*
X76825D01*
Y41925D01*
X76952D01*
Y41039D01*
X77168Y41097D01*
X77371Y41214D01*
X77536Y41379D01*
X77653Y41582D01*
X77661Y41609D01*
X77787Y41626D01*
X77814Y41579D01*
X77979Y41414D01*
X78182Y41297D01*
X78398Y41239D01*
Y42125D01*
X78525D01*
Y42252D01*
X79411D01*
X79356Y42457D01*
X79363Y42467D01*
X79491Y42502D01*
X79579Y42414D01*
X79782Y42297D01*
X79998Y42239D01*
Y43125D01*
Y44011D01*
X79900Y43985D01*
X79799Y44062D01*
Y44325D01*
X79926Y44387D01*
X80082Y44297D01*
X80298Y44239D01*
Y45125D01*
Y46011D01*
D02*
G37*
G36*
X49827Y45947D02*
Y45527D01*
X50247D01*
X50170Y45714D01*
X50014Y45870D01*
X49827Y45947D01*
D02*
G37*
G36*
X49573D02*
X49386Y45870D01*
X49230Y45714D01*
X49153Y45527D01*
X49573D01*
Y45947D01*
D02*
G37*
G36*
X80552Y46011D02*
Y45252D01*
X81311D01*
X81253Y45468D01*
X81136Y45671D01*
X80971Y45836D01*
X80768Y45953D01*
X80552Y46011D01*
D02*
G37*
G36*
X48572Y45800D02*
X48413D01*
X48266Y45739D01*
X48153Y45627D01*
X48092Y45480D01*
Y45320D01*
X48153Y45173D01*
X48266Y45061D01*
X48413Y45000D01*
X48572D01*
X48719Y45061D01*
X48831Y45173D01*
X48892Y45320D01*
Y45480D01*
X48831Y45627D01*
X48719Y45739D01*
X48572Y45800D01*
D02*
G37*
G36*
X52827Y45347D02*
Y44927D01*
X53247D01*
X53170Y45114D01*
X53014Y45270D01*
X52827Y45347D01*
D02*
G37*
G36*
X52573D02*
X52386Y45270D01*
X52230Y45114D01*
X52153Y44927D01*
X52573D01*
Y45347D01*
D02*
G37*
G36*
X50247Y45273D02*
X49827D01*
Y44853D01*
X50014Y44930D01*
X50170Y45086D01*
X50247Y45273D01*
D02*
G37*
G36*
X49573D02*
X49153D01*
X49230Y45086D01*
X49386Y44930D01*
X49573Y44853D01*
Y45273D01*
D02*
G37*
G36*
X43430Y45350D02*
X43270D01*
X43123Y45289D01*
X43011Y45177D01*
X42950Y45030D01*
Y44870D01*
X43011Y44723D01*
X43123Y44611D01*
X43270Y44550D01*
X43430D01*
X43577Y44611D01*
X43689Y44723D01*
X43750Y44870D01*
Y45030D01*
X43689Y45177D01*
X43577Y45289D01*
X43430Y45350D01*
D02*
G37*
G36*
X92827Y44947D02*
Y44527D01*
X93247D01*
X93170Y44714D01*
X93014Y44870D01*
X92827Y44947D01*
D02*
G37*
G36*
X92573D02*
X92386Y44870D01*
X92230Y44714D01*
X92153Y44527D01*
X92573D01*
Y44947D01*
D02*
G37*
G36*
X53247Y44673D02*
X52827D01*
Y44253D01*
X53014Y44330D01*
X53170Y44486D01*
X53247Y44673D01*
D02*
G37*
G36*
X52573D02*
X52153D01*
X52230Y44486D01*
X52386Y44330D01*
X52573Y44253D01*
Y44673D01*
D02*
G37*
G36*
X81311Y44998D02*
X80552D01*
Y44239D01*
X80768Y44297D01*
X80971Y44414D01*
X81136Y44579D01*
X81253Y44782D01*
X81311Y44998D01*
D02*
G37*
G36*
X96805Y44347D02*
Y43927D01*
X97225D01*
X97148Y44114D01*
X96992Y44270D01*
X96805Y44347D01*
D02*
G37*
G36*
X96551D02*
X96364Y44270D01*
X96208Y44114D01*
X96131Y43927D01*
X96551D01*
Y44347D01*
D02*
G37*
G36*
X93247Y44273D02*
X92827D01*
Y43853D01*
X93014Y43930D01*
X93170Y44086D01*
X93247Y44273D01*
D02*
G37*
G36*
X92573D02*
X92153D01*
X92230Y44086D01*
X92386Y43930D01*
X92573Y43853D01*
Y44273D01*
D02*
G37*
G36*
X42430Y44600D02*
X42270D01*
X42123Y44539D01*
X42011Y44427D01*
X41950Y44280D01*
Y44120D01*
X42011Y43973D01*
X42123Y43861D01*
X42270Y43800D01*
X42430D01*
X42577Y43861D01*
X42689Y43973D01*
X42750Y44120D01*
Y44280D01*
X42689Y44427D01*
X42577Y44539D01*
X42430Y44600D01*
D02*
G37*
G36*
X65780Y44450D02*
X65620D01*
X65473Y44389D01*
X65361Y44277D01*
X65300Y44130D01*
Y43970D01*
X65361Y43823D01*
X65473Y43711D01*
X65620Y43650D01*
X65780D01*
X65927Y43711D01*
X66039Y43823D01*
X66100Y43970D01*
Y44130D01*
X66039Y44277D01*
X65927Y44389D01*
X65780Y44450D01*
D02*
G37*
G36*
X97225Y43673D02*
X96805D01*
Y43253D01*
X96992Y43330D01*
X97148Y43486D01*
X97225Y43673D01*
D02*
G37*
G36*
X96551D02*
X96131D01*
X96208Y43486D01*
X96364Y43330D01*
X96551Y43253D01*
Y43673D01*
D02*
G37*
G36*
X80252Y44011D02*
Y43252D01*
X81011D01*
X80953Y43468D01*
X80836Y43671D01*
X80671Y43836D01*
X80468Y43953D01*
X80252Y44011D01*
D02*
G37*
G36*
X1680Y43600D02*
X1520D01*
X1373Y43539D01*
X1261Y43427D01*
X1200Y43280D01*
Y43120D01*
X1261Y42973D01*
X1373Y42861D01*
X1520Y42800D01*
X1680D01*
X1827Y42861D01*
X1939Y42973D01*
X2000Y43120D01*
Y43280D01*
X1939Y43427D01*
X1827Y43539D01*
X1680Y43600D01*
D02*
G37*
G36*
X48371Y43511D02*
X48211D01*
X48064Y43450D01*
X47952Y43337D01*
X47891Y43190D01*
Y43031D01*
X47952Y42884D01*
X48064Y42772D01*
X48211Y42711D01*
X48371D01*
X48518Y42772D01*
X48630Y42884D01*
X48691Y43031D01*
Y43190D01*
X48630Y43337D01*
X48518Y43450D01*
X48371Y43511D01*
D02*
G37*
G36*
X46080Y43500D02*
X45920D01*
X45773Y43439D01*
X45661Y43327D01*
X45600Y43180D01*
Y43020D01*
X45661Y42873D01*
X45773Y42761D01*
X45920Y42700D01*
X46080D01*
X46227Y42761D01*
X46339Y42873D01*
X46400Y43020D01*
Y43180D01*
X46339Y43327D01*
X46227Y43439D01*
X46080Y43500D01*
D02*
G37*
G36*
X63927Y42747D02*
Y42327D01*
X64347D01*
X64270Y42514D01*
X64114Y42670D01*
X63927Y42747D01*
D02*
G37*
G36*
X63673D02*
X63486Y42670D01*
X63330Y42514D01*
X63253Y42327D01*
X63673D01*
Y42747D01*
D02*
G37*
G36*
X81011Y42998D02*
X80252D01*
Y42239D01*
X80468Y42297D01*
X80671Y42414D01*
X80836Y42579D01*
X80953Y42782D01*
X81011Y42998D01*
D02*
G37*
G36*
X62805Y42850D02*
X62645D01*
X62498Y42789D01*
X62386Y42677D01*
X62325Y42530D01*
Y42370D01*
X62386Y42223D01*
X62498Y42111D01*
X62645Y42050D01*
X62805D01*
X62952Y42111D01*
X63064Y42223D01*
X63125Y42370D01*
Y42530D01*
X63064Y42677D01*
X62952Y42789D01*
X62805Y42850D01*
D02*
G37*
G36*
X95127Y42147D02*
Y41727D01*
X95547D01*
X95470Y41914D01*
X95314Y42070D01*
X95127Y42147D01*
D02*
G37*
G36*
X94873D02*
X94686Y42070D01*
X94530Y41914D01*
X94453Y41727D01*
X94873D01*
Y42147D01*
D02*
G37*
G36*
X64347Y42073D02*
X63927D01*
Y41653D01*
X64114Y41730D01*
X64270Y41886D01*
X64347Y42073D01*
D02*
G37*
G36*
X63673D02*
X63253D01*
X63330Y41886D01*
X63486Y41730D01*
X63673Y41653D01*
Y42073D01*
D02*
G37*
G36*
X79411Y41998D02*
X78652D01*
Y41239D01*
X78868Y41297D01*
X79071Y41414D01*
X79236Y41579D01*
X79353Y41782D01*
X79411Y41998D01*
D02*
G37*
G36*
X95547Y41473D02*
X95127D01*
Y41053D01*
X95314Y41130D01*
X95470Y41286D01*
X95547Y41473D01*
D02*
G37*
G36*
X94873D02*
X94453D01*
X94530Y41286D01*
X94686Y41130D01*
X94873Y41053D01*
Y41473D01*
D02*
G37*
G36*
X76698Y41798D02*
X75939D01*
X75997Y41582D01*
X76114Y41379D01*
X76279Y41214D01*
X76482Y41097D01*
X76698Y41039D01*
Y41798D01*
D02*
G37*
G36*
X15577Y40597D02*
Y40177D01*
X15997D01*
X15920Y40364D01*
X15764Y40520D01*
X15577Y40597D01*
D02*
G37*
G36*
X15323D02*
X15136Y40520D01*
X14980Y40364D01*
X14903Y40177D01*
X15323D01*
Y40597D01*
D02*
G37*
G36*
X40273Y40347D02*
X40086Y40270D01*
X39930Y40114D01*
X39853Y39927D01*
X40273D01*
Y40347D01*
D02*
G37*
G36*
X43480Y40500D02*
X43320D01*
X43173Y40439D01*
X43061Y40327D01*
X43000Y40180D01*
Y40020D01*
X43061Y39873D01*
X43173Y39761D01*
X43320Y39700D01*
X43480D01*
X43627Y39761D01*
X43739Y39873D01*
X43800Y40020D01*
Y40180D01*
X43739Y40327D01*
X43627Y40439D01*
X43480Y40500D01*
D02*
G37*
G36*
X50991Y40370D02*
X50832D01*
X50685Y40309D01*
X50572Y40197D01*
X50511Y40050D01*
Y39891D01*
X50572Y39744D01*
X50685Y39631D01*
X50832Y39570D01*
X50991D01*
X51138Y39631D01*
X51250Y39744D01*
X51311Y39891D01*
Y40050D01*
X51250Y40197D01*
X51138Y40309D01*
X50991Y40370D01*
D02*
G37*
G36*
X15997Y39923D02*
X15577D01*
Y39503D01*
X15764Y39580D01*
X15920Y39736D01*
X15997Y39923D01*
D02*
G37*
G36*
X15323D02*
X14903D01*
X14980Y39736D01*
X15136Y39580D01*
X15323Y39503D01*
Y39923D01*
D02*
G37*
G36*
X69052Y39772D02*
Y39352D01*
X69472D01*
X69395Y39539D01*
X69239Y39695D01*
X69052Y39772D01*
D02*
G37*
G36*
X68798D02*
X68611Y39695D01*
X68455Y39539D01*
X68378Y39352D01*
X68798D01*
Y39772D01*
D02*
G37*
G36*
X40273Y39673D02*
X39853D01*
X39930Y39486D01*
X40086Y39330D01*
X40273Y39253D01*
Y39673D01*
D02*
G37*
G36*
X100667Y40550D02*
X100483D01*
X100305Y40502D01*
X100145Y40410D01*
X100015Y40280D01*
X99923Y40120D01*
X99875Y39942D01*
Y39758D01*
X99923Y39580D01*
X100015Y39420D01*
X100145Y39290D01*
X100305Y39198D01*
X100483Y39150D01*
X100667D01*
X100845Y39198D01*
X101005Y39290D01*
X101135Y39420D01*
X101227Y39580D01*
X101275Y39758D01*
Y39942D01*
X101227Y40120D01*
X101135Y40280D01*
X101005Y40410D01*
X100845Y40502D01*
X100667Y40550D01*
D02*
G37*
G36*
X40527Y40347D02*
Y39800D01*
Y39253D01*
X40714Y39330D01*
X40870Y39486D01*
X40873Y39494D01*
X41000Y39469D01*
Y39420D01*
X41061Y39273D01*
X41173Y39161D01*
X41320Y39100D01*
X41480D01*
X41627Y39161D01*
X41739Y39273D01*
X41800Y39420D01*
Y39580D01*
X41739Y39727D01*
X41627Y39839D01*
X41480Y39900D01*
X41320D01*
X41173Y39839D01*
X41081Y39747D01*
X40986Y39768D01*
X40954Y39786D01*
Y39910D01*
X40870Y40114D01*
X40714Y40270D01*
X40527Y40347D01*
D02*
G37*
G36*
X69472Y39098D02*
X69052D01*
Y38678D01*
X69239Y38755D01*
X69395Y38911D01*
X69472Y39098D01*
D02*
G37*
G36*
X68798D02*
X68378D01*
X68455Y38911D01*
X68611Y38755D01*
X68798Y38678D01*
Y39098D01*
D02*
G37*
G36*
X42780Y38600D02*
X42620D01*
X42473Y38539D01*
X42361Y38427D01*
X42317Y38321D01*
X42183D01*
X42139Y38427D01*
X42027Y38539D01*
X41880Y38600D01*
X41720D01*
X41573Y38539D01*
X41461Y38427D01*
X41400Y38280D01*
Y38120D01*
X41461Y37973D01*
X41573Y37861D01*
X41720Y37800D01*
X41880D01*
X42027Y37861D01*
X42139Y37973D01*
X42183Y38079D01*
X42317D01*
X42361Y37973D01*
X42473Y37861D01*
X42620Y37800D01*
X42780D01*
X42927Y37861D01*
X43039Y37973D01*
X43100Y38120D01*
Y38280D01*
X43039Y38427D01*
X42927Y38539D01*
X42780Y38600D01*
D02*
G37*
G36*
X101429Y38704D02*
X100702D01*
Y37977D01*
X101429D01*
Y38704D01*
D02*
G37*
G36*
X100448D02*
X99721D01*
Y37977D01*
X100448D01*
Y38704D01*
D02*
G37*
G36*
X22780Y38700D02*
X22620D01*
X22473Y38639D01*
X22361Y38527D01*
X22300Y38380D01*
Y38220D01*
X22361Y38073D01*
X22473Y37961D01*
X22620Y37900D01*
X22780D01*
X22927Y37961D01*
X23039Y38073D01*
X23100Y38220D01*
Y38380D01*
X23039Y38527D01*
X22927Y38639D01*
X22780Y38700D01*
D02*
G37*
G36*
X12480Y38550D02*
X12320D01*
X12173Y38489D01*
X12061Y38377D01*
X12000Y38230D01*
Y38070D01*
X12061Y37923D01*
X12173Y37811D01*
X12320Y37750D01*
X12480D01*
X12627Y37811D01*
X12739Y37923D01*
X12800Y38070D01*
Y38230D01*
X12739Y38377D01*
X12627Y38489D01*
X12480Y38550D01*
D02*
G37*
G36*
X69180Y38525D02*
X69020D01*
X68873Y38464D01*
X68761Y38352D01*
X68700Y38205D01*
Y38045D01*
X68761Y37898D01*
X68873Y37786D01*
X69020Y37725D01*
X69180D01*
X69327Y37786D01*
X69439Y37898D01*
X69500Y38045D01*
Y38205D01*
X69439Y38352D01*
X69327Y38464D01*
X69180Y38525D01*
D02*
G37*
G36*
X11027Y38047D02*
Y37627D01*
X11447D01*
X11370Y37814D01*
X11214Y37970D01*
X11027Y38047D01*
D02*
G37*
G36*
X10773D02*
X10586Y37970D01*
X10430Y37814D01*
X10353Y37627D01*
X10773D01*
Y38047D01*
D02*
G37*
G36*
X8180Y38422D02*
X8021D01*
X7874Y38361D01*
X7761Y38248D01*
X7701Y38101D01*
Y37942D01*
X7761Y37795D01*
X7874Y37682D01*
X8021Y37621D01*
X8180D01*
X8327Y37682D01*
X8440Y37795D01*
X8501Y37942D01*
Y38101D01*
X8440Y38248D01*
X8327Y38361D01*
X8180Y38422D01*
D02*
G37*
G36*
X44885Y37990D02*
X44725D01*
X44578Y37929D01*
X44466Y37817D01*
X44405Y37670D01*
Y37510D01*
X44466Y37363D01*
X44578Y37251D01*
X44725Y37190D01*
X44885D01*
X45032Y37251D01*
X45144Y37363D01*
X45205Y37510D01*
Y37670D01*
X45144Y37817D01*
X45032Y37929D01*
X44885Y37990D01*
D02*
G37*
G36*
X101429Y37723D02*
X100702D01*
Y36996D01*
X101429D01*
Y37723D01*
D02*
G37*
G36*
X100448D02*
X99721D01*
Y36996D01*
X100448D01*
Y37723D01*
D02*
G37*
G36*
X18311Y37694D02*
X18152D01*
X18005Y37633D01*
X17892Y37520D01*
X17831Y37373D01*
Y37214D01*
X17892Y37067D01*
X18005Y36954D01*
X18152Y36894D01*
X18311D01*
X18458Y36954D01*
X18571Y37067D01*
X18632Y37214D01*
Y37373D01*
X18571Y37520D01*
X18458Y37633D01*
X18311Y37694D01*
D02*
G37*
G36*
X33780Y37600D02*
X33620D01*
X33473Y37539D01*
X33361Y37427D01*
X33300Y37280D01*
Y37120D01*
X33361Y36973D01*
X33473Y36861D01*
X33620Y36800D01*
X33780D01*
X33927Y36861D01*
X34039Y36973D01*
X34100Y37120D01*
Y37280D01*
X34039Y37427D01*
X33927Y37539D01*
X33780Y37600D01*
D02*
G37*
G36*
X11447Y37373D02*
X10353D01*
X10430Y37186D01*
X10586Y37030D01*
X10603Y36886D01*
X10530Y36814D01*
X10453Y36627D01*
X11547D01*
X11470Y36814D01*
X11314Y36970D01*
X11297Y37114D01*
X11370Y37186D01*
X11447Y37373D01*
D02*
G37*
G36*
X44310Y37250D02*
X44151D01*
X44004Y37189D01*
X43892Y37077D01*
X43831Y36930D01*
Y36771D01*
X43892Y36624D01*
X44004Y36511D01*
X44151Y36450D01*
X44310D01*
X44457Y36511D01*
X44570Y36624D01*
X44631Y36771D01*
Y36930D01*
X44570Y37077D01*
X44457Y37189D01*
X44310Y37250D01*
D02*
G37*
G36*
X76327Y36797D02*
Y36377D01*
X76747D01*
X76670Y36564D01*
X76514Y36720D01*
X76327Y36797D01*
D02*
G37*
G36*
X76073D02*
X75886Y36720D01*
X75730Y36564D01*
X75653Y36377D01*
X76073D01*
Y36797D01*
D02*
G37*
G36*
X64580Y37075D02*
X64420D01*
X64273Y37014D01*
X64161Y36902D01*
X64100Y36755D01*
Y36595D01*
X64161Y36448D01*
X64273Y36336D01*
X64420Y36275D01*
X64580D01*
X64727Y36336D01*
X64839Y36448D01*
X64900Y36595D01*
Y36755D01*
X64839Y36902D01*
X64727Y37014D01*
X64580Y37075D01*
D02*
G37*
G36*
X46580Y37075D02*
X46420D01*
X46273Y37014D01*
X46161Y36902D01*
X46100Y36755D01*
Y36595D01*
X46161Y36448D01*
X46273Y36336D01*
X46420Y36275D01*
X46580D01*
X46727Y36336D01*
X46839Y36448D01*
X46900Y36595D01*
Y36755D01*
X46839Y36902D01*
X46727Y37014D01*
X46580Y37075D01*
D02*
G37*
G36*
X11547Y36373D02*
X11127D01*
Y35953D01*
X11314Y36030D01*
X11470Y36186D01*
X11547Y36373D01*
D02*
G37*
G36*
X10873D02*
X10453D01*
X10530Y36186D01*
X10686Y36030D01*
X10873Y35953D01*
Y36373D01*
D02*
G37*
G36*
X43567Y36306D02*
X43408D01*
X43261Y36245D01*
X43148Y36132D01*
X43087Y35985D01*
Y35826D01*
X43148Y35679D01*
X43261Y35566D01*
X43408Y35506D01*
X43567D01*
X43714Y35566D01*
X43826Y35679D01*
X43887Y35826D01*
Y35985D01*
X43826Y36132D01*
X43714Y36245D01*
X43567Y36306D01*
D02*
G37*
G36*
X22527Y35747D02*
Y35327D01*
X22947D01*
X22870Y35514D01*
X22714Y35670D01*
X22527Y35747D01*
D02*
G37*
G36*
X22273D02*
X22086Y35670D01*
X21930Y35514D01*
X21853Y35327D01*
X22273D01*
Y35747D01*
D02*
G37*
G36*
X45405Y35875D02*
X45245D01*
X45098Y35814D01*
X44986Y35702D01*
X44925Y35555D01*
Y35395D01*
X44986Y35248D01*
X45098Y35136D01*
X45245Y35075D01*
X45405D01*
X45552Y35136D01*
X45664Y35248D01*
X45725Y35395D01*
Y35555D01*
X45664Y35702D01*
X45552Y35814D01*
X45405Y35875D01*
D02*
G37*
G36*
X32180Y35700D02*
X32020D01*
X31873Y35639D01*
X31761Y35527D01*
X31700Y35380D01*
Y35220D01*
X31761Y35073D01*
X31873Y34961D01*
X32020Y34900D01*
X32180D01*
X32327Y34961D01*
X32439Y35073D01*
X32500Y35220D01*
Y35380D01*
X32439Y35527D01*
X32327Y35639D01*
X32180Y35700D01*
D02*
G37*
G36*
X2709Y35597D02*
X2549D01*
X2402Y35537D01*
X2290Y35424D01*
X2229Y35277D01*
Y35118D01*
X2290Y34971D01*
X2402Y34858D01*
X2549Y34798D01*
X2709D01*
X2856Y34858D01*
X2968Y34971D01*
X3029Y35118D01*
Y35277D01*
X2968Y35424D01*
X2856Y35537D01*
X2709Y35597D01*
D02*
G37*
G36*
X52555Y35575D02*
X52395D01*
X52248Y35514D01*
X52136Y35402D01*
X52075Y35255D01*
Y35095D01*
X52136Y34948D01*
X52248Y34836D01*
X52395Y34775D01*
X52555D01*
X52702Y34836D01*
X52814Y34948D01*
X52875Y35095D01*
Y35255D01*
X52814Y35402D01*
X52702Y35514D01*
X52555Y35575D01*
D02*
G37*
G36*
X22947Y35073D02*
X22527D01*
Y34653D01*
X22714Y34730D01*
X22870Y34886D01*
X22947Y35073D01*
D02*
G37*
G36*
X22273D02*
X21853D01*
X21930Y34886D01*
X22086Y34730D01*
X22273Y34653D01*
Y35073D01*
D02*
G37*
G36*
X43840Y35216D02*
X43681D01*
X43534Y35155D01*
X43422Y35043D01*
X43361Y34896D01*
Y34737D01*
X43422Y34590D01*
X43534Y34477D01*
X43681Y34416D01*
X43840D01*
X43987Y34477D01*
X44100Y34590D01*
X44161Y34737D01*
Y34896D01*
X44100Y35043D01*
X43987Y35155D01*
X43840Y35216D01*
D02*
G37*
G36*
X69505Y35150D02*
X69345D01*
X69198Y35089D01*
X69086Y34977D01*
X69025Y34830D01*
Y34670D01*
X69086Y34523D01*
X69198Y34411D01*
X69345Y34350D01*
X69505D01*
X69652Y34411D01*
X69764Y34523D01*
X69825Y34670D01*
Y34830D01*
X69764Y34977D01*
X69652Y35089D01*
X69505Y35150D01*
D02*
G37*
G36*
X40427Y34747D02*
Y34327D01*
X40847D01*
X40770Y34514D01*
X40614Y34670D01*
X40427Y34747D01*
D02*
G37*
G36*
X40173D02*
X39986Y34670D01*
X39830Y34514D01*
X39753Y34327D01*
X40173D01*
Y34747D01*
D02*
G37*
G36*
X32980Y35050D02*
X32820D01*
X32673Y34989D01*
X32561Y34877D01*
X32500Y34730D01*
Y34570D01*
X32561Y34423D01*
X32673Y34311D01*
X32820Y34250D01*
X32980D01*
X33127Y34311D01*
X33239Y34423D01*
X33300Y34570D01*
Y34730D01*
X33239Y34877D01*
X33127Y34989D01*
X32980Y35050D01*
D02*
G37*
G36*
X47306Y34996D02*
X47147D01*
X47000Y34935D01*
X46887Y34822D01*
X46826Y34675D01*
Y34516D01*
X46887Y34369D01*
X47000Y34257D01*
X47147Y34196D01*
X47306D01*
X47453Y34257D01*
X47566Y34369D01*
X47626Y34516D01*
Y34675D01*
X47566Y34822D01*
X47453Y34935D01*
X47306Y34996D01*
D02*
G37*
G36*
X53828Y34823D02*
X53668D01*
X53521Y34762D01*
X53409Y34650D01*
X53348Y34503D01*
Y34343D01*
X53409Y34196D01*
X53521Y34084D01*
X53668Y34023D01*
X53828D01*
X53975Y34084D01*
X54087Y34196D01*
X54148Y34343D01*
Y34503D01*
X54087Y34650D01*
X53975Y34762D01*
X53828Y34823D01*
D02*
G37*
G36*
X63065Y34409D02*
Y33989D01*
X63485D01*
X63408Y34176D01*
X63252Y34331D01*
X63065Y34409D01*
D02*
G37*
G36*
X62811D02*
X62624Y34331D01*
X62469Y34176D01*
X62391Y33989D01*
X62811D01*
Y34409D01*
D02*
G37*
G36*
X29880Y34700D02*
X29720D01*
X29573Y34639D01*
X29461Y34527D01*
X29400Y34380D01*
Y34220D01*
X29461Y34073D01*
X29573Y33961D01*
X29720Y33900D01*
X29880D01*
X30027Y33961D01*
X30139Y34073D01*
X30200Y34220D01*
Y34380D01*
X30139Y34527D01*
X30027Y34639D01*
X29880Y34700D01*
D02*
G37*
G36*
X13327Y34147D02*
Y33727D01*
X13747D01*
X13670Y33914D01*
X13514Y34070D01*
X13327Y34147D01*
D02*
G37*
G36*
X13073D02*
X12886Y34070D01*
X12730Y33914D01*
X12646Y33710D01*
X12519Y33664D01*
X12414Y33770D01*
X12227Y33847D01*
Y33300D01*
Y32753D01*
X12414Y32830D01*
X12570Y32986D01*
X12654Y33190D01*
X12781Y33236D01*
X12886Y33130D01*
X13073Y33053D01*
Y33600D01*
Y34147D01*
D02*
G37*
G36*
X40847Y34073D02*
X40427D01*
Y33653D01*
X40614Y33730D01*
X40770Y33886D01*
X40847Y34073D01*
D02*
G37*
G36*
X40173D02*
X39753D01*
X39830Y33886D01*
X39986Y33730D01*
X40173Y33653D01*
Y34073D01*
D02*
G37*
G36*
X17327Y34047D02*
Y33627D01*
X17747D01*
X17670Y33814D01*
X17514Y33970D01*
X17327Y34047D01*
D02*
G37*
G36*
X17073D02*
X16886Y33970D01*
X16730Y33814D01*
X16653Y33627D01*
X17073D01*
Y34047D01*
D02*
G37*
G36*
X15627D02*
Y33627D01*
X16047D01*
X15970Y33814D01*
X15814Y33970D01*
X15627Y34047D01*
D02*
G37*
G36*
X15373D02*
X15186Y33970D01*
X15030Y33814D01*
X14953Y33627D01*
X15373D01*
Y34047D01*
D02*
G37*
G36*
X33627Y33947D02*
Y33527D01*
X34047D01*
X33970Y33714D01*
X33814Y33870D01*
X33627Y33947D01*
D02*
G37*
G36*
X33373D02*
X33186Y33870D01*
X33030Y33714D01*
X32953Y33527D01*
X33373D01*
Y33947D01*
D02*
G37*
G36*
X11973Y33847D02*
X11786Y33770D01*
X11630Y33614D01*
X11553Y33427D01*
X11973D01*
Y33847D01*
D02*
G37*
G36*
X63485Y33735D02*
X63065D01*
Y33315D01*
X63252Y33392D01*
X63408Y33548D01*
X63485Y33735D01*
D02*
G37*
G36*
X62811D02*
X62391D01*
X62469Y33548D01*
X62624Y33392D01*
X62811Y33315D01*
Y33735D01*
D02*
G37*
G36*
X53231Y34101D02*
X53072D01*
X52925Y34041D01*
X52812Y33928D01*
X52751Y33781D01*
Y33622D01*
X52812Y33475D01*
X52925Y33362D01*
X53072Y33301D01*
X53231D01*
X53378Y33362D01*
X53491Y33475D01*
X53551Y33622D01*
Y33781D01*
X53491Y33928D01*
X53378Y34041D01*
X53231Y34101D01*
D02*
G37*
G36*
X22027Y33647D02*
Y33227D01*
X22447D01*
X22370Y33414D01*
X22214Y33570D01*
X22027Y33647D01*
D02*
G37*
G36*
X21773D02*
X21586Y33570D01*
X21430Y33414D01*
X21353Y33227D01*
X21773D01*
Y33647D01*
D02*
G37*
G36*
X7627D02*
Y33227D01*
X8047D01*
X7970Y33414D01*
X7814Y33570D01*
X7627Y33647D01*
D02*
G37*
G36*
X7373D02*
X7186Y33570D01*
X7030Y33414D01*
X6953Y33227D01*
X7373D01*
Y33647D01*
D02*
G37*
G36*
X17073Y33373D02*
X16653D01*
X16673Y33324D01*
X16576Y33227D01*
X16527Y33247D01*
Y32827D01*
X16947D01*
X16927Y32876D01*
X17024Y32973D01*
X17073Y32953D01*
Y33373D01*
D02*
G37*
G36*
X61952Y33622D02*
Y33202D01*
X62372D01*
X62295Y33389D01*
X62139Y33545D01*
X61952Y33622D01*
D02*
G37*
G36*
X61698D02*
X61511Y33545D01*
X61355Y33389D01*
X61278Y33202D01*
X61698D01*
Y33622D01*
D02*
G37*
G36*
X72755Y33925D02*
X72595D01*
X72448Y33864D01*
X72336Y33752D01*
X72275Y33605D01*
Y33445D01*
X72336Y33298D01*
X72448Y33186D01*
X72595Y33125D01*
X72755D01*
X72902Y33186D01*
X73014Y33298D01*
X73075Y33445D01*
Y33605D01*
X73014Y33752D01*
X72902Y33864D01*
X72755Y33925D01*
D02*
G37*
G36*
X13747Y33473D02*
X13327D01*
Y33053D01*
X13514Y33130D01*
X13670Y33286D01*
X13747Y33473D01*
D02*
G37*
G36*
X17747Y33373D02*
X17327D01*
Y32953D01*
X17514Y33030D01*
X17670Y33186D01*
X17747Y33373D01*
D02*
G37*
G36*
X15373D02*
X14953D01*
X15030Y33186D01*
X15186Y33030D01*
X15373Y32953D01*
Y33373D01*
D02*
G37*
G36*
X34047Y33273D02*
X33627D01*
Y32853D01*
X33814Y32930D01*
X33970Y33086D01*
X34047Y33273D01*
D02*
G37*
G36*
X33373D02*
X32953D01*
X33030Y33086D01*
X33186Y32930D01*
X33373Y32853D01*
Y33273D01*
D02*
G37*
G36*
X16047Y33373D02*
X15627D01*
Y32953D01*
X15797Y33023D01*
X15850Y32992D01*
X15899Y32939D01*
X15853Y32827D01*
X16273D01*
Y33247D01*
X16103Y33177D01*
X16050Y33208D01*
X16001Y33261D01*
X16047Y33373D01*
D02*
G37*
G36*
X41180Y33600D02*
X41020D01*
X40873Y33539D01*
X40761Y33427D01*
X40700Y33280D01*
Y33120D01*
X40761Y32973D01*
X40873Y32861D01*
X41020Y32800D01*
X41180D01*
X41327Y32861D01*
X41439Y32973D01*
X41500Y33120D01*
Y33280D01*
X41439Y33427D01*
X41327Y33539D01*
X41180Y33600D01*
D02*
G37*
G36*
X11973Y33173D02*
X11553D01*
X11630Y32986D01*
X11786Y32830D01*
X11973Y32753D01*
Y33173D01*
D02*
G37*
G36*
X56655Y33551D02*
X56496D01*
X56349Y33491D01*
X56236Y33378D01*
X56175Y33231D01*
Y33072D01*
X56236Y32925D01*
X56349Y32812D01*
X56496Y32751D01*
X56655D01*
X56802Y32812D01*
X56914Y32925D01*
X56975Y33072D01*
Y33231D01*
X56914Y33378D01*
X56802Y33491D01*
X56655Y33551D01*
D02*
G37*
G36*
X22447Y32973D02*
X22027D01*
Y32553D01*
X22214Y32630D01*
X22370Y32786D01*
X22447Y32973D01*
D02*
G37*
G36*
X21773D02*
X21353D01*
X21430Y32786D01*
X21586Y32630D01*
X21773Y32553D01*
Y32973D01*
D02*
G37*
G36*
X8047D02*
X7627D01*
Y32553D01*
X7814Y32630D01*
X7970Y32786D01*
X8047Y32973D01*
D02*
G37*
G36*
X7373D02*
X6953D01*
X7030Y32786D01*
X7186Y32630D01*
X7373Y32553D01*
Y32973D01*
D02*
G37*
G36*
X62372Y32948D02*
X61952D01*
Y32528D01*
X62139Y32605D01*
X62295Y32761D01*
X62372Y32948D01*
D02*
G37*
G36*
X61698D02*
X61278D01*
X61355Y32761D01*
X61511Y32605D01*
X61698Y32528D01*
Y32948D01*
D02*
G37*
G36*
X14927Y32947D02*
Y32527D01*
X15347D01*
X15270Y32714D01*
X15114Y32870D01*
X14927Y32947D01*
D02*
G37*
G36*
X14673D02*
X14486Y32870D01*
X14330Y32714D01*
X14253Y32527D01*
X14673D01*
Y32947D01*
D02*
G37*
G36*
X36080Y33200D02*
X35920D01*
X35773Y33139D01*
X35661Y33027D01*
X35600Y32880D01*
Y32720D01*
X35661Y32573D01*
X35773Y32461D01*
X35920Y32400D01*
X36080D01*
X36227Y32461D01*
X36339Y32573D01*
X36400Y32720D01*
Y32880D01*
X36339Y33027D01*
X36227Y33139D01*
X36080Y33200D01*
D02*
G37*
G36*
X68605Y33000D02*
X68445D01*
X68298Y32939D01*
X68186Y32827D01*
X68125Y32680D01*
Y32520D01*
X68186Y32373D01*
X68298Y32261D01*
X68445Y32200D01*
X68605D01*
X68752Y32261D01*
X68864Y32373D01*
X68925Y32520D01*
Y32680D01*
X68864Y32827D01*
X68752Y32939D01*
X68605Y33000D01*
D02*
G37*
G36*
X16947Y32573D02*
X16527D01*
Y32153D01*
X16714Y32230D01*
X16870Y32386D01*
X16947Y32573D01*
D02*
G37*
G36*
X16273D02*
X15853D01*
X15930Y32386D01*
X16086Y32230D01*
X16273Y32153D01*
Y32573D01*
D02*
G37*
G36*
X51105Y32925D02*
X50945D01*
X50798Y32864D01*
X50686Y32752D01*
X50625Y32605D01*
Y32445D01*
X50686Y32298D01*
X50798Y32186D01*
X50945Y32125D01*
X51105D01*
X51252Y32186D01*
X51364Y32298D01*
X51425Y32445D01*
Y32605D01*
X51364Y32752D01*
X51252Y32864D01*
X51105Y32925D01*
D02*
G37*
G36*
X15347Y32273D02*
X14927D01*
Y31853D01*
X15114Y31930D01*
X15270Y32086D01*
X15347Y32273D01*
D02*
G37*
G36*
X14673D02*
X14253D01*
X14330Y32086D01*
X14486Y31930D01*
X14673Y31853D01*
Y32273D01*
D02*
G37*
G36*
X22027Y32047D02*
Y31627D01*
X22447D01*
X22370Y31814D01*
X22214Y31970D01*
X22027Y32047D01*
D02*
G37*
G36*
X21773D02*
X21586Y31970D01*
X21430Y31814D01*
X21353Y31627D01*
X21773D01*
Y32047D01*
D02*
G37*
G36*
X7627Y31947D02*
Y31527D01*
X8047D01*
X7970Y31714D01*
X7814Y31870D01*
X7627Y31947D01*
D02*
G37*
G36*
X7373D02*
X7186Y31870D01*
X7030Y31714D01*
X6953Y31527D01*
X7373D01*
Y31947D01*
D02*
G37*
G36*
X31980Y32200D02*
X31820D01*
X31673Y32139D01*
X31561Y32027D01*
X31500Y31880D01*
Y31720D01*
X31561Y31573D01*
X31673Y31461D01*
X31820Y31400D01*
X31980D01*
X32127Y31461D01*
X32239Y31573D01*
X32300Y31720D01*
Y31880D01*
X32239Y32027D01*
X32127Y32139D01*
X31980Y32200D01*
D02*
G37*
G36*
X69455Y31944D02*
X69295D01*
X69148Y31883D01*
X69036Y31770D01*
X68975Y31623D01*
Y31464D01*
X69036Y31317D01*
X69115Y31238D01*
X69148Y31205D01*
X69215Y31176D01*
Y31176D01*
X69215D01*
X69190Y31050D01*
X69187Y31050D01*
X69070D01*
X68923Y30989D01*
X68811Y30877D01*
X68750Y30730D01*
Y30570D01*
X68811Y30423D01*
X68923Y30311D01*
X69070Y30250D01*
X69230D01*
X69377Y30311D01*
X69489Y30423D01*
X69550Y30570D01*
Y30730D01*
X69489Y30877D01*
X69410Y30956D01*
X69377Y30989D01*
X69310Y31018D01*
X69335Y31144D01*
X69338Y31144D01*
X69455D01*
X69602Y31205D01*
X69714Y31317D01*
X69775Y31464D01*
Y31623D01*
X69714Y31770D01*
X69602Y31883D01*
X69455Y31944D01*
D02*
G37*
G36*
X22447Y31373D02*
X22027D01*
Y30953D01*
X22214Y31030D01*
X22370Y31186D01*
X22447Y31373D01*
D02*
G37*
G36*
X21773D02*
X21353D01*
X21430Y31186D01*
X21586Y31030D01*
X21773Y30953D01*
Y31373D01*
D02*
G37*
G36*
X66802Y32600D02*
X66643D01*
X66496Y32539D01*
X66384Y32427D01*
X66323Y32280D01*
Y32120D01*
X66384Y31973D01*
X66496Y31861D01*
X66496Y31859D01*
X66470Y31734D01*
X66409D01*
X66262Y31673D01*
X66150Y31561D01*
X66089Y31414D01*
Y31255D01*
X66150Y31108D01*
X66262Y30995D01*
X66409Y30934D01*
X66568D01*
X66715Y30995D01*
X66828Y31108D01*
X66889Y31255D01*
Y31414D01*
X66828Y31561D01*
X66716Y31673D01*
X66716Y31675D01*
X66742Y31800D01*
X66802D01*
X66949Y31861D01*
X67062Y31973D01*
X67123Y32120D01*
Y32280D01*
X67062Y32427D01*
X66949Y32539D01*
X66802Y32600D01*
D02*
G37*
G36*
X8047Y31273D02*
X7627D01*
Y30853D01*
X7814Y30930D01*
X7970Y31086D01*
X8047Y31273D01*
D02*
G37*
G36*
X7373D02*
X6953D01*
X7030Y31086D01*
X7186Y30930D01*
X7373Y30853D01*
Y31273D01*
D02*
G37*
G36*
X65573Y31611D02*
X65414D01*
X65267Y31550D01*
X65154Y31438D01*
X65093Y31291D01*
Y31132D01*
X65154Y30985D01*
X65267Y30872D01*
X65414Y30811D01*
X65573D01*
X65720Y30872D01*
X65832Y30985D01*
X65893Y31132D01*
Y31291D01*
X65832Y31438D01*
X65720Y31550D01*
X65573Y31611D01*
D02*
G37*
G36*
X51780Y32250D02*
X51620D01*
X51473Y32189D01*
X51361Y32077D01*
X51300Y31930D01*
Y31770D01*
X51361Y31623D01*
X51473Y31511D01*
X51620Y31450D01*
X51728D01*
X51812Y31350D01*
X51817Y31333D01*
X51800Y31291D01*
Y31132D01*
X51861Y30985D01*
X51973Y30872D01*
X52120Y30811D01*
X52280D01*
X52427Y30872D01*
X52539Y30985D01*
X52600Y31132D01*
Y31291D01*
X52539Y31438D01*
X52427Y31550D01*
X52280Y31611D01*
X52172D01*
X52088Y31711D01*
X52083Y31729D01*
X52100Y31770D01*
Y31930D01*
X52039Y32077D01*
X51927Y32189D01*
X51780Y32250D01*
D02*
G37*
G36*
X12527Y31147D02*
Y30727D01*
X12947D01*
X12870Y30914D01*
X12714Y31070D01*
X12527Y31147D01*
D02*
G37*
G36*
X12273D02*
X12086Y31070D01*
X11930Y30914D01*
X11853Y30727D01*
X12273D01*
Y31147D01*
D02*
G37*
G36*
X74505Y31275D02*
X74345D01*
X74198Y31214D01*
X74086Y31102D01*
X74025Y30955D01*
Y30795D01*
X74086Y30648D01*
X74198Y30536D01*
X74345Y30475D01*
X74505D01*
X74652Y30536D01*
X74764Y30648D01*
X74825Y30795D01*
Y30955D01*
X74764Y31102D01*
X74652Y31214D01*
X74505Y31275D01*
D02*
G37*
G36*
X2747Y31215D02*
X2588D01*
X2441Y31154D01*
X2328Y31041D01*
X2267Y30894D01*
Y30735D01*
X2328Y30588D01*
X2441Y30476D01*
X2588Y30415D01*
X2747D01*
X2894Y30476D01*
X3006Y30588D01*
X3067Y30735D01*
Y30894D01*
X3006Y31041D01*
X2894Y31154D01*
X2747Y31215D01*
D02*
G37*
G36*
X12947Y30473D02*
X12527D01*
Y30053D01*
X12714Y30130D01*
X12870Y30286D01*
X12947Y30473D01*
D02*
G37*
G36*
X12273D02*
X11853D01*
X11930Y30286D01*
X12086Y30130D01*
X12273Y30053D01*
Y30473D01*
D02*
G37*
G36*
X40327Y30247D02*
Y29827D01*
X40747D01*
X40670Y30014D01*
X40514Y30170D01*
X40327Y30247D01*
D02*
G37*
G36*
X40073D02*
X39886Y30170D01*
X39730Y30014D01*
X39653Y29827D01*
X40073D01*
Y30247D01*
D02*
G37*
G36*
X57180Y30500D02*
X57020D01*
X56873Y30439D01*
X56761Y30327D01*
X56700Y30180D01*
Y30020D01*
X56761Y29873D01*
X56873Y29761D01*
X57020Y29700D01*
X57180D01*
X57327Y29761D01*
X57439Y29873D01*
X57500Y30020D01*
Y30180D01*
X57439Y30327D01*
X57327Y30439D01*
X57180Y30500D01*
D02*
G37*
G36*
X64527Y30047D02*
Y29627D01*
X64947D01*
X64870Y29814D01*
X64714Y29970D01*
X64527Y30047D01*
D02*
G37*
G36*
X64273D02*
X64086Y29970D01*
X63930Y29814D01*
X63853Y29627D01*
X64273D01*
Y30047D01*
D02*
G37*
G36*
X58127Y29747D02*
Y29327D01*
X58547D01*
X58470Y29514D01*
X58314Y29670D01*
X58127Y29747D01*
D02*
G37*
G36*
X57873D02*
X57686Y29670D01*
X57530Y29514D01*
X57453Y29327D01*
X57873D01*
Y29747D01*
D02*
G37*
G36*
X53855Y30075D02*
X53695D01*
X53548Y30014D01*
X53436Y29902D01*
X53375Y29755D01*
Y29595D01*
X53436Y29448D01*
X53548Y29336D01*
X53695Y29275D01*
X53855D01*
X54002Y29336D01*
X54114Y29448D01*
X54175Y29595D01*
Y29755D01*
X54114Y29902D01*
X54002Y30014D01*
X53855Y30075D01*
D02*
G37*
G36*
X92227Y29647D02*
Y29227D01*
X92647D01*
X92570Y29414D01*
X92414Y29570D01*
X92227Y29647D01*
D02*
G37*
G36*
X91973D02*
X91786Y29570D01*
X91630Y29414D01*
X91553Y29227D01*
X91973D01*
Y29647D01*
D02*
G37*
G36*
X40747Y29573D02*
X40327D01*
Y29153D01*
X40514Y29230D01*
X40670Y29386D01*
X40747Y29573D01*
D02*
G37*
G36*
X40073D02*
X39653D01*
X39730Y29386D01*
X39886Y29230D01*
X40073Y29153D01*
Y29573D01*
D02*
G37*
G36*
X30604Y29804D02*
X30444D01*
X30297Y29743D01*
X30185Y29631D01*
X30124Y29484D01*
Y29325D01*
X30185Y29178D01*
X30297Y29065D01*
X30444Y29004D01*
X30604D01*
X30751Y29065D01*
X30863Y29178D01*
X30924Y29325D01*
Y29484D01*
X30863Y29631D01*
X30751Y29743D01*
X30604Y29804D01*
D02*
G37*
G36*
X64947Y29373D02*
X64527D01*
Y28953D01*
X64714Y29030D01*
X64870Y29186D01*
X64947Y29373D01*
D02*
G37*
G36*
X64273D02*
X63853D01*
X63930Y29186D01*
X64086Y29030D01*
X64273Y28953D01*
Y29373D01*
D02*
G37*
G36*
X33827Y29347D02*
Y28927D01*
X34247D01*
X34170Y29114D01*
X34014Y29270D01*
X33827Y29347D01*
D02*
G37*
G36*
X33573D02*
X33386Y29270D01*
X33230Y29114D01*
X33153Y28927D01*
X33573D01*
Y29347D01*
D02*
G37*
G36*
X65641Y29701D02*
X65482D01*
X65335Y29640D01*
X65222Y29527D01*
X65161Y29380D01*
Y29221D01*
X65222Y29074D01*
X65335Y28961D01*
X65482Y28900D01*
X65641D01*
X65788Y28961D01*
X65900Y29074D01*
X65961Y29221D01*
Y29380D01*
X65900Y29527D01*
X65788Y29640D01*
X65641Y29701D01*
D02*
G37*
G36*
X58547Y29073D02*
X58127D01*
Y28653D01*
X58314Y28730D01*
X58470Y28886D01*
X58547Y29073D01*
D02*
G37*
G36*
X57873D02*
X57453D01*
X57530Y28886D01*
X57686Y28730D01*
X57873Y28653D01*
Y29073D01*
D02*
G37*
G36*
X92647Y28973D02*
X92227D01*
Y28553D01*
X92414Y28630D01*
X92570Y28786D01*
X92647Y28973D01*
D02*
G37*
G36*
X91973D02*
X91553D01*
X91630Y28786D01*
X91786Y28630D01*
X91973Y28553D01*
Y28973D01*
D02*
G37*
G36*
X41380Y29100D02*
X41220D01*
X41073Y29039D01*
X40961Y28927D01*
X40900Y28780D01*
Y28620D01*
X40961Y28473D01*
X41073Y28361D01*
X41220Y28300D01*
X41380D01*
X41527Y28361D01*
X41639Y28473D01*
X41700Y28620D01*
Y28780D01*
X41639Y28927D01*
X41527Y29039D01*
X41380Y29100D01*
D02*
G37*
G36*
X34247Y28673D02*
X33827D01*
Y28253D01*
X34014Y28330D01*
X34170Y28486D01*
X34247Y28673D01*
D02*
G37*
G36*
X33573D02*
X33153D01*
X33230Y28486D01*
X33386Y28330D01*
X33573Y28253D01*
Y28673D01*
D02*
G37*
G36*
X101710Y35870D02*
X100100D01*
Y35765D01*
X100092Y35745D01*
Y35095D01*
X100100Y35075D01*
Y34955D01*
X100092Y34935D01*
Y34285D01*
X100100Y34265D01*
Y34185D01*
X100092Y34165D01*
Y33515D01*
X100100Y33495D01*
Y33429D01*
X100079Y33391D01*
X100039Y33347D01*
X100002Y33320D01*
X99844D01*
X99679Y33276D01*
X99531Y33190D01*
X99410Y33069D01*
X99324Y32921D01*
X99280Y32756D01*
Y32584D01*
X99324Y32419D01*
X99410Y32271D01*
X99531Y32150D01*
X99603Y32108D01*
Y31962D01*
X99531Y31920D01*
X99410Y31799D01*
X99324Y31651D01*
X99280Y31486D01*
Y31314D01*
X99324Y31149D01*
X99410Y31001D01*
X99531Y30880D01*
X99603Y30838D01*
Y30692D01*
X99531Y30650D01*
X99410Y30529D01*
X99324Y30381D01*
X99280Y30216D01*
Y30044D01*
X99324Y29879D01*
X99410Y29731D01*
X99531Y29610D01*
X99603Y29568D01*
Y29422D01*
X99531Y29380D01*
X99410Y29259D01*
X99324Y29111D01*
X99280Y28946D01*
Y28774D01*
X99324Y28609D01*
X99410Y28461D01*
X99531Y28340D01*
X99679Y28254D01*
X99844Y28210D01*
X100016D01*
X100181Y28254D01*
X100329Y28340D01*
X100423Y28434D01*
X100536Y28400D01*
X100550Y28390D01*
Y28210D01*
X101850D01*
Y29510D01*
X101670D01*
X101660Y29524D01*
X101626Y29637D01*
X101720Y29731D01*
X101806Y29879D01*
X101850Y30044D01*
Y30216D01*
X101806Y30381D01*
X101720Y30529D01*
X101599Y30650D01*
X101527Y30692D01*
Y30838D01*
X101599Y30880D01*
X101720Y31001D01*
X101806Y31149D01*
X101850Y31314D01*
Y31486D01*
X101806Y31651D01*
X101720Y31799D01*
X101599Y31920D01*
X101527Y31962D01*
Y32108D01*
X101599Y32150D01*
X101720Y32271D01*
X101806Y32419D01*
X101850Y32584D01*
Y32756D01*
X101806Y32921D01*
X101720Y33069D01*
X101599Y33190D01*
X101473Y33263D01*
X101479Y33348D01*
X101495Y33390D01*
X101710D01*
Y33495D01*
X101718Y33515D01*
Y34165D01*
X101710Y34185D01*
Y34265D01*
X101718Y34285D01*
Y34935D01*
X101710Y34955D01*
Y35075D01*
X101718Y35095D01*
Y35745D01*
X101710Y35765D01*
Y35845D01*
Y35870D01*
D02*
G37*
G36*
X68327Y28547D02*
Y28127D01*
X68747D01*
X68670Y28314D01*
X68514Y28470D01*
X68327Y28547D01*
D02*
G37*
G36*
X68073D02*
X67886Y28470D01*
X67730Y28314D01*
X67653Y28127D01*
X68073D01*
Y28547D01*
D02*
G37*
G36*
X93527Y28507D02*
Y28087D01*
X93947D01*
X93870Y28274D01*
X93714Y28430D01*
X93527Y28507D01*
D02*
G37*
G36*
X93273D02*
X93086Y28430D01*
X92930Y28274D01*
X92853Y28087D01*
X93273D01*
Y28507D01*
D02*
G37*
G36*
X91427D02*
Y28087D01*
X91847D01*
X91770Y28274D01*
X91614Y28430D01*
X91427Y28507D01*
D02*
G37*
G36*
X91173D02*
X90986Y28430D01*
X90830Y28274D01*
X90753Y28087D01*
X91173D01*
Y28507D01*
D02*
G37*
G36*
X31160Y28740D02*
X31000D01*
X30853Y28679D01*
X30741Y28567D01*
X30680Y28420D01*
Y28260D01*
X30741Y28113D01*
X30853Y28001D01*
X31000Y27940D01*
X31160D01*
X31307Y28001D01*
X31419Y28113D01*
X31480Y28260D01*
Y28420D01*
X31419Y28567D01*
X31307Y28679D01*
X31160Y28740D01*
D02*
G37*
G36*
X22880Y28500D02*
X22720D01*
X22573Y28439D01*
X22461Y28327D01*
X22400Y28180D01*
Y28020D01*
X22461Y27873D01*
X22573Y27761D01*
X22720Y27700D01*
X22880D01*
X23027Y27761D01*
X23139Y27873D01*
X23200Y28020D01*
Y28180D01*
X23139Y28327D01*
X23027Y28439D01*
X22880Y28500D01*
D02*
G37*
G36*
X68747Y27873D02*
X68327D01*
Y27453D01*
X68514Y27530D01*
X68670Y27686D01*
X68747Y27873D01*
D02*
G37*
G36*
X68073D02*
X67653D01*
X67730Y27686D01*
X67886Y27530D01*
X68073Y27453D01*
Y27873D01*
D02*
G37*
G36*
X93947Y27833D02*
X93527D01*
Y27413D01*
X93714Y27490D01*
X93870Y27646D01*
X93947Y27833D01*
D02*
G37*
G36*
X93273D02*
X92853D01*
X92930Y27646D01*
X93086Y27490D01*
X93273Y27413D01*
Y27833D01*
D02*
G37*
G36*
X91847D02*
X91427D01*
Y27413D01*
X91614Y27490D01*
X91770Y27646D01*
X91847Y27833D01*
D02*
G37*
G36*
X91173D02*
X90753D01*
X90830Y27646D01*
X90986Y27490D01*
X91173Y27413D01*
Y27833D01*
D02*
G37*
G36*
X28300Y28100D02*
X28140D01*
X27993Y28039D01*
X27881Y27927D01*
X27820Y27780D01*
Y27620D01*
X27881Y27473D01*
X27993Y27361D01*
X28140Y27300D01*
X28300D01*
X28447Y27361D01*
X28559Y27473D01*
X28620Y27620D01*
Y27780D01*
X28559Y27927D01*
X28447Y28039D01*
X28300Y28100D01*
D02*
G37*
G36*
X35034Y28073D02*
X34875D01*
X34728Y28012D01*
X34616Y27899D01*
X34555Y27752D01*
Y27593D01*
X34616Y27446D01*
X34728Y27334D01*
X34875Y27273D01*
X35034D01*
X35181Y27334D01*
X35294Y27446D01*
X35355Y27593D01*
Y27752D01*
X35294Y27899D01*
X35181Y28012D01*
X35034Y28073D01*
D02*
G37*
G36*
X74597Y27636D02*
Y27216D01*
X75017D01*
X74939Y27403D01*
X74783Y27559D01*
X74597Y27636D01*
D02*
G37*
G36*
X74343D02*
X74156Y27559D01*
X74000Y27403D01*
X73923Y27216D01*
X74343D01*
Y27636D01*
D02*
G37*
G36*
X75017Y26962D02*
X74597D01*
Y26542D01*
X74783Y26619D01*
X74939Y26775D01*
X75017Y26962D01*
D02*
G37*
G36*
X74343D02*
X73923D01*
X74000Y26775D01*
X74156Y26619D01*
X74343Y26542D01*
Y26962D01*
D02*
G37*
G36*
X48280Y27225D02*
X48120D01*
X47973Y27164D01*
X47861Y27052D01*
X47800Y26905D01*
Y26745D01*
X47861Y26598D01*
X47973Y26486D01*
X48120Y26425D01*
X48280D01*
X48427Y26486D01*
X48539Y26598D01*
X48600Y26745D01*
Y26905D01*
X48539Y27052D01*
X48427Y27164D01*
X48280Y27225D01*
D02*
G37*
G36*
X69954Y26904D02*
X69795D01*
X69648Y26843D01*
X69535Y26731D01*
X69474Y26584D01*
Y26425D01*
X69535Y26278D01*
X69648Y26165D01*
X69795Y26104D01*
X69954D01*
X70101Y26165D01*
X70214Y26278D01*
X70274Y26425D01*
Y26584D01*
X70214Y26731D01*
X70101Y26843D01*
X69954Y26904D01*
D02*
G37*
G36*
X90002Y26422D02*
Y26002D01*
X90422D01*
X90345Y26189D01*
X90189Y26345D01*
X90002Y26422D01*
D02*
G37*
G36*
X41499Y26772D02*
X41340D01*
X41193Y26711D01*
X41080Y26598D01*
X41019Y26451D01*
Y26292D01*
X41080Y26145D01*
X41193Y26033D01*
X41340Y25972D01*
X41499D01*
X41646Y26033D01*
X41758Y26145D01*
X41819Y26292D01*
Y26451D01*
X41758Y26598D01*
X41646Y26711D01*
X41499Y26772D01*
D02*
G37*
G36*
X2130Y26650D02*
X1970D01*
X1823Y26589D01*
X1711Y26476D01*
X1650Y26329D01*
Y26170D01*
X1711Y26023D01*
X1823Y25910D01*
X1970Y25850D01*
X2130D01*
X2277Y25910D01*
X2389Y26023D01*
X2450Y26170D01*
Y26329D01*
X2389Y26476D01*
X2277Y26589D01*
X2130Y26650D01*
D02*
G37*
G36*
X66081Y26500D02*
X65922D01*
X65775Y26439D01*
X65662Y26327D01*
X65601Y26180D01*
Y26021D01*
X65662Y25874D01*
X65775Y25761D01*
X65922Y25700D01*
X66081D01*
X66228Y25761D01*
X66340Y25874D01*
X66401Y26021D01*
Y26180D01*
X66340Y26327D01*
X66228Y26439D01*
X66081Y26500D01*
D02*
G37*
G36*
X40431Y26482D02*
X40272D01*
X40125Y26421D01*
X40012Y26309D01*
X39952Y26162D01*
Y26002D01*
X40012Y25855D01*
X40125Y25743D01*
X40272Y25682D01*
X40431D01*
X40578Y25743D01*
X40691Y25855D01*
X40752Y26002D01*
Y26162D01*
X40691Y26309D01*
X40578Y26421D01*
X40431Y26482D01*
D02*
G37*
G36*
X90422Y25748D02*
X90002D01*
Y25328D01*
X90189Y25405D01*
X90345Y25561D01*
X90422Y25748D01*
D02*
G37*
G36*
X76747Y36123D02*
X75653D01*
X75730Y35936D01*
X75749Y35917D01*
X75701Y35800D01*
X75200D01*
Y29045D01*
X75096Y28941D01*
X75035Y28794D01*
Y28635D01*
X75096Y28488D01*
X75200Y28384D01*
Y21800D01*
X73806D01*
X73764Y21902D01*
X73652Y22014D01*
X73505Y22075D01*
X73345D01*
X73198Y22014D01*
X73086Y21902D01*
X73044Y21800D01*
X66542D01*
X66421Y21850D01*
X66262D01*
X66141Y21800D01*
X64690D01*
X64619Y21906D01*
X64647Y21973D01*
X63553D01*
X63581Y21906D01*
X63510Y21800D01*
X55200D01*
Y11800D01*
X72155D01*
X72226Y11694D01*
X72195Y11620D01*
X73289D01*
X73259Y11694D01*
X73329Y11800D01*
X74602D01*
X74654Y11673D01*
X74590Y11608D01*
X74512Y11421D01*
X75606D01*
X75529Y11608D01*
X75464Y11673D01*
X75517Y11800D01*
X89200D01*
Y13153D01*
X89236Y13173D01*
X89327Y13192D01*
X89464Y13056D01*
X89650Y12978D01*
Y13525D01*
Y14072D01*
X89464Y13995D01*
X89327Y13858D01*
X89236Y13878D01*
X89200Y13897D01*
Y25750D01*
X89321Y25765D01*
X89405Y25561D01*
X89561Y25405D01*
X89748Y25328D01*
Y25875D01*
Y26422D01*
X89561Y26345D01*
X89405Y26189D01*
X89321Y25985D01*
X89200Y26000D01*
Y35800D01*
X76699D01*
X76651Y35917D01*
X76670Y35936D01*
X76747Y36123D01*
D02*
G37*
G36*
X33979Y26024D02*
X33820D01*
X33673Y25963D01*
X33561Y25850D01*
X33500Y25703D01*
Y25544D01*
X33561Y25397D01*
X33673Y25285D01*
X33820Y25224D01*
X33979D01*
X34126Y25285D01*
X34239Y25397D01*
X34300Y25544D01*
Y25703D01*
X34239Y25850D01*
X34126Y25963D01*
X33979Y26024D01*
D02*
G37*
G36*
X63355Y25865D02*
X63196D01*
X63049Y25804D01*
X62936Y25691D01*
X62875Y25544D01*
Y25385D01*
X62936Y25238D01*
X63049Y25126D01*
X63196Y25065D01*
X63355D01*
X63502Y25126D01*
X63614Y25238D01*
X63675Y25385D01*
Y25544D01*
X63614Y25691D01*
X63502Y25804D01*
X63355Y25865D01*
D02*
G37*
G36*
X68391Y25804D02*
X68231D01*
X68084Y25743D01*
X67972Y25631D01*
X67911Y25484D01*
Y25325D01*
X67972Y25178D01*
X68084Y25065D01*
X68231Y25004D01*
X68391D01*
X68538Y25065D01*
X68650Y25178D01*
X68711Y25325D01*
Y25484D01*
X68650Y25631D01*
X68538Y25743D01*
X68391Y25804D01*
D02*
G37*
G36*
X14127Y25047D02*
Y24627D01*
X14547D01*
X14470Y24814D01*
X14314Y24970D01*
X14127Y25047D01*
D02*
G37*
G36*
X13873D02*
X13686Y24970D01*
X13530Y24814D01*
X13453Y24627D01*
X13873D01*
Y25047D01*
D02*
G37*
G36*
X15627Y24947D02*
Y24527D01*
X16047D01*
X15970Y24714D01*
X15814Y24870D01*
X15627Y24947D01*
D02*
G37*
G36*
X15373D02*
X15186Y24870D01*
X15030Y24714D01*
X14953Y24527D01*
X15373D01*
Y24947D01*
D02*
G37*
G36*
X47230Y25250D02*
X47070D01*
X46923Y25189D01*
X46811Y25077D01*
X46750Y24930D01*
Y24770D01*
X46811Y24623D01*
X46923Y24512D01*
X46852Y24414D01*
X46705Y24475D01*
X46545D01*
X46398Y24414D01*
X46286Y24302D01*
X46225Y24155D01*
Y23995D01*
X46286Y23848D01*
X46398Y23736D01*
X46545Y23675D01*
X46705D01*
X46852Y23736D01*
X46964Y23848D01*
X47025Y23995D01*
Y24155D01*
X46964Y24302D01*
X46852Y24413D01*
X46923Y24511D01*
X47070Y24450D01*
X47230D01*
X47377Y24511D01*
X47489Y24623D01*
X47550Y24770D01*
Y24930D01*
X47489Y25077D01*
X47377Y25189D01*
X47230Y25250D01*
D02*
G37*
G36*
X49880Y25000D02*
X49720D01*
X49573Y24939D01*
X49461Y24827D01*
X49400Y24680D01*
Y24520D01*
X49461Y24373D01*
X49573Y24261D01*
X49720Y24200D01*
X49880D01*
X50027Y24261D01*
X50139Y24373D01*
X50200Y24520D01*
Y24680D01*
X50139Y24827D01*
X50027Y24939D01*
X49880Y25000D01*
D02*
G37*
G36*
X14547Y24373D02*
X14127D01*
Y23953D01*
X14314Y24030D01*
X14470Y24186D01*
X14547Y24373D01*
D02*
G37*
G36*
X13873D02*
X13453D01*
X13530Y24186D01*
X13686Y24030D01*
X13873Y23953D01*
Y24373D01*
D02*
G37*
G36*
X16047Y24273D02*
X15627D01*
Y23853D01*
X15814Y23930D01*
X15970Y24086D01*
X16047Y24273D01*
D02*
G37*
G36*
X15373D02*
X14953D01*
X15030Y24086D01*
X15186Y23930D01*
X15373Y23853D01*
Y24273D01*
D02*
G37*
G36*
X68940Y24621D02*
X68781D01*
X68634Y24560D01*
X68522Y24447D01*
X68461Y24300D01*
Y24141D01*
X68522Y23994D01*
X68634Y23882D01*
X68781Y23821D01*
X68940D01*
X69087Y23882D01*
X69200Y23994D01*
X69261Y24141D01*
Y24300D01*
X69200Y24447D01*
X69087Y24560D01*
X68940Y24621D01*
D02*
G37*
G36*
X7227Y24047D02*
Y23627D01*
X7647D01*
X7570Y23814D01*
X7414Y23970D01*
X7227Y24047D01*
D02*
G37*
G36*
X6973D02*
X6786Y23970D01*
X6630Y23814D01*
X6553Y23627D01*
X6973D01*
Y24047D01*
D02*
G37*
G36*
X35780Y24400D02*
X35620D01*
X35473Y24339D01*
X35361Y24227D01*
X35300Y24080D01*
Y23920D01*
X35361Y23773D01*
X35473Y23661D01*
X35620Y23600D01*
X35780D01*
X35927Y23661D01*
X36039Y23773D01*
X36100Y23920D01*
Y24080D01*
X36039Y24227D01*
X35927Y24339D01*
X35780Y24400D01*
D02*
G37*
G36*
X74030Y24200D02*
X73870D01*
X73723Y24139D01*
X73611Y24027D01*
X73550Y23880D01*
Y23720D01*
X73611Y23573D01*
X73723Y23461D01*
X73870Y23400D01*
X74030D01*
X74177Y23461D01*
X74289Y23573D01*
X74350Y23720D01*
Y23880D01*
X74289Y24027D01*
X74177Y24139D01*
X74030Y24200D01*
D02*
G37*
G36*
X36927Y23747D02*
Y23327D01*
X37347D01*
X37270Y23514D01*
X37114Y23670D01*
X36927Y23747D01*
D02*
G37*
G36*
X36673D02*
X36486Y23670D01*
X36330Y23514D01*
X36253Y23327D01*
X36673D01*
Y23747D01*
D02*
G37*
G36*
X34727Y23647D02*
Y23227D01*
X35147D01*
X35070Y23414D01*
X34914Y23570D01*
X34727Y23647D01*
D02*
G37*
G36*
X34473D02*
X34286Y23570D01*
X34130Y23414D01*
X34053Y23227D01*
X34473D01*
Y23647D01*
D02*
G37*
G36*
X18827Y23447D02*
Y23027D01*
X19247D01*
X19170Y23214D01*
X19014Y23370D01*
X18827Y23447D01*
D02*
G37*
G36*
X18573D02*
X18386Y23370D01*
X18230Y23214D01*
X18153Y23027D01*
X18573D01*
Y23447D01*
D02*
G37*
G36*
X7647Y23373D02*
X7227D01*
Y22953D01*
X7414Y23030D01*
X7570Y23186D01*
X7647Y23373D01*
D02*
G37*
G36*
X6973D02*
X6553D01*
X6630Y23186D01*
X6786Y23030D01*
X6973Y22953D01*
Y23373D01*
D02*
G37*
G36*
X58080Y23700D02*
X57920D01*
X57773Y23639D01*
X57661Y23527D01*
X57600Y23380D01*
Y23220D01*
X57661Y23073D01*
X57773Y22961D01*
X57920Y22900D01*
X58080D01*
X58227Y22961D01*
X58339Y23073D01*
X58400Y23220D01*
Y23380D01*
X58339Y23527D01*
X58227Y23639D01*
X58080Y23700D01*
D02*
G37*
G36*
X56027Y23222D02*
Y22802D01*
X56447D01*
X56370Y22989D01*
X56214Y23145D01*
X56027Y23222D01*
D02*
G37*
G36*
X55773D02*
X55586Y23145D01*
X55430Y22989D01*
X55353Y22802D01*
X55773D01*
Y23222D01*
D02*
G37*
G36*
X37347Y23073D02*
X36927D01*
Y22653D01*
X37114Y22730D01*
X37270Y22886D01*
X37347Y23073D01*
D02*
G37*
G36*
X36673D02*
X36253D01*
X36330Y22886D01*
X36486Y22730D01*
X36673Y22653D01*
Y23073D01*
D02*
G37*
G36*
X35147Y22973D02*
X34727D01*
Y22553D01*
X34914Y22630D01*
X35070Y22786D01*
X35147Y22973D01*
D02*
G37*
G36*
X34473D02*
X34053D01*
X34130Y22786D01*
X34286Y22630D01*
X34473Y22553D01*
Y22973D01*
D02*
G37*
G36*
X46805Y23304D02*
X46645D01*
X46498Y23243D01*
X46386Y23131D01*
X46325Y22984D01*
Y22825D01*
X46386Y22678D01*
X46498Y22565D01*
X46645Y22504D01*
X46805D01*
X46952Y22565D01*
X47064Y22678D01*
X47125Y22825D01*
Y22984D01*
X47064Y23131D01*
X46952Y23243D01*
X46805Y23304D01*
D02*
G37*
G36*
X19247Y22773D02*
X18827D01*
Y22353D01*
X19014Y22430D01*
X19170Y22586D01*
X19247Y22773D01*
D02*
G37*
G36*
X18573D02*
X18153D01*
X18230Y22586D01*
X18386Y22430D01*
X18573Y22353D01*
Y22773D01*
D02*
G37*
G36*
X69672Y23069D02*
X69513D01*
X69366Y23008D01*
X69254Y22896D01*
X69193Y22749D01*
Y22590D01*
X69254Y22443D01*
X69366Y22330D01*
X69513Y22269D01*
X69672D01*
X69819Y22330D01*
X69932Y22443D01*
X69993Y22590D01*
Y22749D01*
X69932Y22896D01*
X69819Y23008D01*
X69672Y23069D01*
D02*
G37*
G36*
X64227Y22647D02*
Y22227D01*
X64647D01*
X64570Y22414D01*
X64414Y22570D01*
X64227Y22647D01*
D02*
G37*
G36*
X63973D02*
X63786Y22570D01*
X63630Y22414D01*
X63553Y22227D01*
X63973D01*
Y22647D01*
D02*
G37*
G36*
X21627D02*
Y22227D01*
X22047D01*
X21970Y22414D01*
X21814Y22570D01*
X21627Y22647D01*
D02*
G37*
G36*
X21373D02*
X21186Y22570D01*
X21030Y22414D01*
X20953Y22227D01*
X21373D01*
Y22647D01*
D02*
G37*
G36*
X68682Y23019D02*
X68523D01*
X68376Y22958D01*
X68263Y22845D01*
X68202Y22698D01*
Y22539D01*
X68263Y22392D01*
X68376Y22279D01*
X68523Y22219D01*
X68682D01*
X68829Y22279D01*
X68941Y22392D01*
X69002Y22539D01*
Y22698D01*
X68941Y22845D01*
X68829Y22958D01*
X68682Y23019D01*
D02*
G37*
G36*
X56447Y22548D02*
X56027D01*
Y22128D01*
X56214Y22205D01*
X56370Y22361D01*
X56447Y22548D01*
D02*
G37*
G36*
X55773D02*
X55353D01*
X55430Y22361D01*
X55586Y22205D01*
X55773Y22128D01*
Y22548D01*
D02*
G37*
G36*
X1116Y22195D02*
X956D01*
X809Y22134D01*
X697Y22022D01*
X636Y21875D01*
Y21716D01*
X697Y21569D01*
X809Y21456D01*
X956Y21395D01*
X1116D01*
X1263Y21456D01*
X1375Y21569D01*
X1436Y21716D01*
Y21875D01*
X1375Y22022D01*
X1263Y22134D01*
X1116Y22195D01*
D02*
G37*
G36*
X18927Y21747D02*
Y21327D01*
X19347D01*
X19270Y21514D01*
X19114Y21670D01*
X18927Y21747D01*
D02*
G37*
G36*
X18673D02*
X18486Y21670D01*
X18330Y21514D01*
X18253Y21327D01*
X18673D01*
Y21747D01*
D02*
G37*
G36*
X51080Y24900D02*
X50920D01*
X50773Y24839D01*
X50661Y24727D01*
X50600Y24580D01*
Y24420D01*
X50661Y24273D01*
X50773Y24161D01*
X50842Y24132D01*
X50817Y24005D01*
X50807D01*
X50660Y23944D01*
X50548Y23832D01*
X50487Y23685D01*
Y23526D01*
X50548Y23379D01*
X50579Y23347D01*
X50642Y23247D01*
X50579Y23181D01*
X50531Y23132D01*
X50470Y22985D01*
Y22826D01*
X50531Y22679D01*
X50556Y22654D01*
X50609Y22541D01*
X50496Y22428D01*
X50435Y22281D01*
Y22122D01*
X50496Y21975D01*
X50609Y21862D01*
X50721Y21816D01*
X50783Y21684D01*
X50777Y21670D01*
Y21511D01*
X50838Y21364D01*
X50950Y21251D01*
X51097Y21190D01*
X51256D01*
X51403Y21251D01*
X51516Y21364D01*
X51577Y21511D01*
Y21670D01*
X51516Y21817D01*
X51403Y21930D01*
X51292Y21976D01*
X51230Y22108D01*
X51235Y22122D01*
Y22281D01*
X51175Y22428D01*
X51149Y22453D01*
X51096Y22567D01*
X51209Y22679D01*
X51270Y22826D01*
Y22985D01*
X51209Y23132D01*
X51177Y23164D01*
X51115Y23264D01*
X51177Y23330D01*
X51226Y23379D01*
X51287Y23526D01*
Y23685D01*
X51226Y23832D01*
X51113Y23944D01*
X51044Y23973D01*
X51070Y24100D01*
X51080D01*
X51227Y24161D01*
X51339Y24273D01*
X51400Y24420D01*
Y24580D01*
X51339Y24727D01*
X51227Y24839D01*
X51080Y24900D01*
D02*
G37*
G36*
X22047Y21973D02*
X20953D01*
X21030Y21786D01*
X21186Y21630D01*
X21264Y21598D01*
X21275Y21533D01*
X21273Y21457D01*
X21130Y21314D01*
X21053Y21127D01*
X22147D01*
X22070Y21314D01*
X21914Y21470D01*
X21836Y21502D01*
X21825Y21567D01*
X21827Y21643D01*
X21970Y21786D01*
X22047Y21973D01*
D02*
G37*
G36*
X43080Y21850D02*
X42920D01*
X42773Y21789D01*
X42661Y21677D01*
X42600Y21530D01*
Y21370D01*
X42661Y21223D01*
X42773Y21111D01*
X42920Y21050D01*
X43080D01*
X43227Y21111D01*
X43339Y21223D01*
X43400Y21370D01*
Y21530D01*
X43339Y21677D01*
X43227Y21789D01*
X43080Y21850D01*
D02*
G37*
G36*
X27580Y21600D02*
X27420D01*
X27273Y21539D01*
X27161Y21427D01*
X27100Y21280D01*
Y21120D01*
X27161Y20973D01*
X27273Y20861D01*
X27420Y20800D01*
X27580D01*
X27727Y20861D01*
X27839Y20973D01*
X27900Y21120D01*
Y21280D01*
X27839Y21427D01*
X27727Y21539D01*
X27580Y21600D01*
D02*
G37*
G36*
X19347Y21073D02*
X18927D01*
Y20653D01*
X19114Y20730D01*
X19270Y20886D01*
X19347Y21073D01*
D02*
G37*
G36*
X18673D02*
X18253D01*
X18330Y20886D01*
X18486Y20730D01*
X18673Y20653D01*
Y21073D01*
D02*
G37*
G36*
X97480Y21300D02*
X97320D01*
X97173Y21239D01*
X97061Y21127D01*
X97000Y20980D01*
Y20820D01*
X97061Y20673D01*
X97173Y20561D01*
X97320Y20500D01*
X97480D01*
X97627Y20561D01*
X97739Y20673D01*
X97800Y20820D01*
Y20980D01*
X97739Y21127D01*
X97627Y21239D01*
X97480Y21300D01*
D02*
G37*
G36*
X8227Y20847D02*
Y20427D01*
X8647D01*
X8570Y20614D01*
X8414Y20770D01*
X8227Y20847D01*
D02*
G37*
G36*
X7973D02*
X7786Y20770D01*
X7630Y20614D01*
X7553Y20427D01*
X7973D01*
Y20847D01*
D02*
G37*
G36*
X22147Y20873D02*
X21053D01*
X21059Y20858D01*
X20990Y20754D01*
X20786Y20670D01*
X20630Y20514D01*
X20553Y20327D01*
X21647D01*
X21641Y20342D01*
X21710Y20446D01*
X21914Y20530D01*
X22070Y20686D01*
X22147Y20873D01*
D02*
G37*
G36*
X28580Y21100D02*
X28420D01*
X28273Y21039D01*
X28161Y20927D01*
X28100Y20780D01*
Y20620D01*
X28161Y20473D01*
X28273Y20361D01*
X28420Y20300D01*
X28580D01*
X28727Y20361D01*
X28839Y20473D01*
X28900Y20620D01*
Y20780D01*
X28839Y20927D01*
X28727Y21039D01*
X28580Y21100D01*
D02*
G37*
G36*
X15627Y20647D02*
Y20227D01*
X16047D01*
X15970Y20414D01*
X15814Y20570D01*
X15627Y20647D01*
D02*
G37*
G36*
X15373D02*
X15186Y20570D01*
X15030Y20414D01*
X14953Y20227D01*
X15373D01*
Y20647D01*
D02*
G37*
G36*
X14027Y20547D02*
Y20127D01*
X14447D01*
X14370Y20314D01*
X14214Y20470D01*
X14027Y20547D01*
D02*
G37*
G36*
X13773D02*
X13586Y20470D01*
X13430Y20314D01*
X13353Y20127D01*
X13773D01*
Y20547D01*
D02*
G37*
G36*
X12227Y20447D02*
Y20027D01*
X12647D01*
X12570Y20214D01*
X12414Y20370D01*
X12227Y20447D01*
D02*
G37*
G36*
X11973D02*
X11786Y20370D01*
X11630Y20214D01*
X11553Y20027D01*
X11973D01*
Y20447D01*
D02*
G37*
G36*
X39127Y20247D02*
Y19827D01*
X39547D01*
X39470Y20014D01*
X39314Y20170D01*
X39127Y20247D01*
D02*
G37*
G36*
X38873D02*
X38686Y20170D01*
X38530Y20014D01*
X38453Y19827D01*
X38873D01*
Y20247D01*
D02*
G37*
G36*
X18873Y20147D02*
X18686Y20070D01*
X18530Y19914D01*
X18469Y19765D01*
X18331D01*
X18270Y19914D01*
X18114Y20070D01*
X17927Y20147D01*
Y19600D01*
Y19053D01*
X18114Y19130D01*
X18270Y19286D01*
X18331Y19435D01*
X18469D01*
X18530Y19286D01*
X18686Y19130D01*
X18873Y19053D01*
Y19600D01*
Y20147D01*
D02*
G37*
G36*
X8647Y20173D02*
X8227D01*
Y19753D01*
X8414Y19830D01*
X8570Y19986D01*
X8647Y20173D01*
D02*
G37*
G36*
X7973D02*
X7553D01*
X7630Y19986D01*
X7786Y19830D01*
X7973Y19753D01*
Y20173D01*
D02*
G37*
G36*
X19127Y20147D02*
Y19727D01*
X19547D01*
X19470Y19914D01*
X19314Y20070D01*
X19127Y20147D01*
D02*
G37*
G36*
X17673D02*
X17486Y20070D01*
X17330Y19914D01*
X17253Y19727D01*
X17673D01*
Y20147D01*
D02*
G37*
G36*
X13773Y19873D02*
X13353D01*
X13373Y19824D01*
X13276Y19727D01*
X13227Y19747D01*
Y19327D01*
X13647D01*
X13627Y19376D01*
X13724Y19473D01*
X13773Y19453D01*
Y19873D01*
D02*
G37*
G36*
X21647Y20073D02*
X21227D01*
Y19653D01*
X21414Y19730D01*
X21570Y19886D01*
X21647Y20073D01*
D02*
G37*
G36*
X20973D02*
X20553D01*
X20630Y19886D01*
X20786Y19730D01*
X20973Y19653D01*
Y20073D01*
D02*
G37*
G36*
X15373Y19973D02*
X14953D01*
X15030Y19786D01*
X15186Y19630D01*
X15373Y19553D01*
Y19973D01*
D02*
G37*
G36*
X16047D02*
X15627D01*
Y19553D01*
X15814Y19630D01*
X15970Y19786D01*
X16047Y19973D01*
D02*
G37*
G36*
X14447Y19873D02*
X14027D01*
Y19453D01*
X14214Y19530D01*
X14370Y19686D01*
X14447Y19873D01*
D02*
G37*
G36*
X31027Y19747D02*
Y19327D01*
X31447D01*
X31370Y19514D01*
X31214Y19670D01*
X31027Y19747D01*
D02*
G37*
G36*
X30773D02*
X30586Y19670D01*
X30430Y19514D01*
X30353Y19327D01*
X30773D01*
Y19747D01*
D02*
G37*
G36*
X39547Y19573D02*
X39127D01*
Y19153D01*
X39314Y19230D01*
X39470Y19386D01*
X39547Y19573D01*
D02*
G37*
G36*
X38873D02*
X38453D01*
X38530Y19386D01*
X38686Y19230D01*
X38873Y19153D01*
Y19573D01*
D02*
G37*
G36*
X19547Y19473D02*
X19127D01*
Y19053D01*
X19314Y19130D01*
X19470Y19286D01*
X19547Y19473D01*
D02*
G37*
G36*
X17673D02*
X17253D01*
X17330Y19286D01*
X17486Y19130D01*
X17673Y19053D01*
Y19473D01*
D02*
G37*
G36*
X9580Y19600D02*
X9420D01*
X9273Y19539D01*
X9161Y19427D01*
X9100Y19280D01*
Y19120D01*
X9161Y18973D01*
X9273Y18861D01*
X9420Y18800D01*
X9580D01*
X9727Y18861D01*
X9839Y18973D01*
X9900Y19120D01*
Y19280D01*
X9839Y19427D01*
X9727Y19539D01*
X9580Y19600D01*
D02*
G37*
G36*
X31447Y19073D02*
X31027D01*
Y18653D01*
X31214Y18730D01*
X31370Y18886D01*
X31447Y19073D01*
D02*
G37*
G36*
X30773D02*
X30353D01*
X30430Y18886D01*
X30586Y18730D01*
X30773Y18653D01*
Y19073D01*
D02*
G37*
G36*
X13647D02*
X13227D01*
Y18653D01*
X13414Y18730D01*
X13570Y18886D01*
X13647Y19073D01*
D02*
G37*
G36*
X12647Y19773D02*
X11553D01*
X11630Y19586D01*
X11667Y19550D01*
X11530Y19414D01*
X11453Y19227D01*
X12000D01*
Y19100D01*
X12127D01*
Y18553D01*
X12314Y18630D01*
X12470Y18786D01*
X12502Y18864D01*
X12567Y18875D01*
X12643Y18873D01*
X12786Y18730D01*
X12973Y18653D01*
Y19200D01*
Y19747D01*
X12786Y19670D01*
X12710Y19594D01*
X12603Y19666D01*
X12647Y19773D01*
D02*
G37*
G36*
X11873Y18973D02*
X11453D01*
X11530Y18786D01*
X11686Y18630D01*
X11873Y18553D01*
Y18973D01*
D02*
G37*
G36*
X48652Y18822D02*
Y18402D01*
X49072D01*
X48995Y18589D01*
X48839Y18745D01*
X48652Y18822D01*
D02*
G37*
G36*
X48398D02*
X48211Y18745D01*
X48055Y18589D01*
X47978Y18402D01*
X48398D01*
Y18822D01*
D02*
G37*
G36*
X52530Y18675D02*
X52370D01*
X52223Y18614D01*
X52111Y18502D01*
X52050Y18355D01*
Y18195D01*
X52111Y18048D01*
X52223Y17936D01*
X52370Y17875D01*
X52530D01*
X52677Y17936D01*
X52789Y18048D01*
X52850Y18195D01*
Y18355D01*
X52789Y18502D01*
X52677Y18614D01*
X52530Y18675D01*
D02*
G37*
G36*
X49072Y18148D02*
X47978D01*
X48055Y17961D01*
X48211Y17805D01*
X48415Y17721D01*
X48445D01*
X48471Y17594D01*
X48398Y17564D01*
X48286Y17452D01*
X48225Y17305D01*
Y17282D01*
X48098Y17197D01*
X48030Y17225D01*
X47870D01*
X47723Y17164D01*
X47611Y17052D01*
X47550Y16905D01*
Y16745D01*
X47611Y16598D01*
X47723Y16486D01*
X47870Y16425D01*
X48030D01*
X48112Y16459D01*
X48209Y16362D01*
X48153Y16227D01*
X48573D01*
Y16647D01*
X48447Y16595D01*
X48346Y16675D01*
X48357Y16759D01*
X48365Y16778D01*
X48477Y16853D01*
X48545Y16825D01*
X48705D01*
X48852Y16886D01*
X48964Y16998D01*
X49025Y17145D01*
Y17305D01*
X48964Y17452D01*
X48852Y17564D01*
X48720Y17619D01*
X48706Y17672D01*
X48707Y17751D01*
X48839Y17805D01*
X48995Y17961D01*
X49072Y18148D01*
D02*
G37*
G36*
X100189Y17375D02*
X100011D01*
X99839Y17329D01*
X99686Y17240D01*
X99560Y17114D01*
X99538Y17077D01*
X99392D01*
X99370Y17114D01*
X99244Y17240D01*
X99091Y17329D01*
X98919Y17375D01*
X98741D01*
X98569Y17329D01*
X98416Y17240D01*
X98290Y17114D01*
X98201Y16961D01*
X98155Y16789D01*
Y16611D01*
X98201Y16439D01*
X98290Y16286D01*
X98416Y16160D01*
X98453Y16138D01*
Y15992D01*
X98416Y15970D01*
X98290Y15844D01*
X98201Y15691D01*
X98155Y15519D01*
Y15341D01*
X98201Y15169D01*
X98290Y15016D01*
X98416Y14890D01*
X98453Y14868D01*
Y14722D01*
X98416Y14700D01*
X98290Y14574D01*
X98201Y14421D01*
X98155Y14249D01*
Y14071D01*
X98201Y13899D01*
X98290Y13746D01*
X98416Y13620D01*
X98453Y13598D01*
Y13452D01*
X98416Y13430D01*
X98290Y13304D01*
X98201Y13151D01*
X98155Y12979D01*
Y12801D01*
X98201Y12629D01*
X98290Y12476D01*
X98416Y12350D01*
X98453Y12328D01*
Y12182D01*
X98416Y12160D01*
X98290Y12034D01*
X98201Y11881D01*
X98155Y11709D01*
Y11531D01*
X98201Y11359D01*
X98290Y11206D01*
X98416Y11080D01*
X98569Y10991D01*
X98741Y10945D01*
X98919D01*
X99091Y10991D01*
X99244Y11080D01*
X99298Y11133D01*
X99425Y11081D01*
Y10945D01*
X100775D01*
Y12295D01*
X100775Y12295D01*
X100785Y12418D01*
X100873Y12570D01*
X100924Y12763D01*
X100100D01*
Y13017D01*
X100924D01*
X100873Y13210D01*
X100763Y13399D01*
X100637Y13525D01*
X100763Y13651D01*
X100873Y13840D01*
X100924Y14033D01*
X100100D01*
Y14287D01*
X100924D01*
X100873Y14480D01*
X100763Y14669D01*
X100609Y14823D01*
X100600Y14975D01*
X100640Y15016D01*
X100729Y15169D01*
X100775Y15341D01*
Y15519D01*
X100729Y15691D01*
X100640Y15844D01*
X100514Y15970D01*
X100477Y15992D01*
Y16138D01*
X100514Y16160D01*
X100640Y16286D01*
X100729Y16439D01*
X100775Y16611D01*
Y16789D01*
X100729Y16961D01*
X100640Y17114D01*
X100514Y17240D01*
X100361Y17329D01*
X100189Y17375D01*
D02*
G37*
G36*
X48827Y16647D02*
Y16227D01*
X49247D01*
X49170Y16414D01*
X49014Y16570D01*
X48827Y16647D01*
D02*
G37*
G36*
X49247Y15973D02*
X48827D01*
Y15553D01*
X49014Y15630D01*
X49170Y15786D01*
X49247Y15973D01*
D02*
G37*
G36*
X48573D02*
X48153D01*
X48230Y15786D01*
X48386Y15630D01*
X48573Y15553D01*
Y15973D01*
D02*
G37*
G36*
X23373Y16286D02*
X23157Y16228D01*
X22954Y16111D01*
X22789Y15946D01*
X22672Y15743D01*
X22614Y15527D01*
X23373D01*
Y16286D01*
D02*
G37*
G36*
X28617Y15787D02*
Y15367D01*
X29037D01*
X28960Y15554D01*
X28804Y15710D01*
X28617Y15787D01*
D02*
G37*
G36*
X28363D02*
X28176Y15710D01*
X28020Y15554D01*
X27943Y15367D01*
X28363D01*
Y15787D01*
D02*
G37*
G36*
X25342Y16086D02*
Y15327D01*
X26101D01*
X26043Y15543D01*
X25926Y15746D01*
X25761Y15911D01*
X25558Y16028D01*
X25342Y16086D01*
D02*
G37*
G36*
X39128Y16101D02*
X38969D01*
X38822Y16040D01*
X38710Y15928D01*
X38649Y15781D01*
Y15622D01*
X38710Y15475D01*
X38822Y15362D01*
X38969Y15301D01*
X39128D01*
X39275Y15362D01*
X39388Y15475D01*
X39449Y15622D01*
Y15781D01*
X39388Y15928D01*
X39275Y16040D01*
X39128Y16101D01*
D02*
G37*
G36*
X29037Y15113D02*
X28617D01*
Y14693D01*
X28804Y14770D01*
X28960Y14926D01*
X29037Y15113D01*
D02*
G37*
G36*
X28363D02*
X27943D01*
X28020Y14926D01*
X28176Y14770D01*
X28363Y14693D01*
Y15113D01*
D02*
G37*
G36*
X21627Y15286D02*
Y14527D01*
X22386D01*
X22328Y14743D01*
X22211Y14946D01*
X22046Y15111D01*
X21843Y15228D01*
X21627Y15286D01*
D02*
G37*
G36*
X21373D02*
X21157Y15228D01*
X20954Y15111D01*
X20789Y14946D01*
X20672Y14743D01*
X20614Y14527D01*
X21373D01*
Y15286D01*
D02*
G37*
G36*
X26101Y15073D02*
X25342D01*
Y14314D01*
X25558Y14372D01*
X25761Y14489D01*
X25926Y14654D01*
X26043Y14857D01*
X26101Y15073D01*
D02*
G37*
G36*
X23627Y16286D02*
Y15400D01*
X23500D01*
Y15273D01*
X22614D01*
X22672Y15057D01*
X22789Y14854D01*
X22954Y14689D01*
X23157Y14572D01*
X23383Y14511D01*
X23448D01*
X23464Y14384D01*
X23257Y14328D01*
X23054Y14211D01*
X22889Y14046D01*
X22772Y13843D01*
X22714Y13627D01*
X24486D01*
X24428Y13843D01*
X24311Y14046D01*
X24146Y14211D01*
X23943Y14328D01*
X23717Y14389D01*
X23652D01*
X23636Y14516D01*
X23843Y14572D01*
X24046Y14689D01*
X24211Y14854D01*
X24242Y14907D01*
X24378Y14889D01*
X24387Y14857D01*
X24504Y14654D01*
X24669Y14489D01*
X24872Y14372D01*
X25088Y14314D01*
Y15200D01*
Y16086D01*
X24872Y16028D01*
X24669Y15911D01*
X24504Y15746D01*
X24473Y15693D01*
X24337Y15711D01*
X24328Y15743D01*
X24211Y15946D01*
X24046Y16111D01*
X23843Y16228D01*
X23627Y16286D01*
D02*
G37*
G36*
X89904Y14072D02*
Y13652D01*
X90324D01*
X90247Y13839D01*
X90091Y13995D01*
X89904Y14072D01*
D02*
G37*
G36*
X90324Y13398D02*
X89904D01*
Y12978D01*
X90091Y13056D01*
X90247Y13212D01*
X90324Y13398D01*
D02*
G37*
G36*
X22386Y14273D02*
X20614D01*
X20672Y14057D01*
X20789Y13854D01*
X20954Y13689D01*
X21001Y13662D01*
X20984Y13536D01*
X20957Y13528D01*
X20754Y13411D01*
X20589Y13246D01*
X20472Y13043D01*
X20414Y12827D01*
X22186D01*
X22128Y13043D01*
X22011Y13246D01*
X21846Y13411D01*
X21799Y13438D01*
X21816Y13564D01*
X21843Y13572D01*
X22046Y13689D01*
X22211Y13854D01*
X22328Y14057D01*
X22386Y14273D01*
D02*
G37*
G36*
X18427Y13386D02*
Y12627D01*
X19186D01*
X19128Y12843D01*
X19011Y13046D01*
X18846Y13211D01*
X18643Y13328D01*
X18427Y13386D01*
D02*
G37*
G36*
X18173D02*
X17957Y13328D01*
X17754Y13211D01*
X17589Y13046D01*
X17472Y12843D01*
X17414Y12627D01*
X18173D01*
Y13386D01*
D02*
G37*
G36*
X24486Y13373D02*
X23727D01*
Y12614D01*
X23943Y12672D01*
X24146Y12789D01*
X24311Y12954D01*
X24428Y13157D01*
X24486Y13373D01*
D02*
G37*
G36*
X23473D02*
X22714D01*
X22772Y13157D01*
X22889Y12954D01*
X23054Y12789D01*
X23257Y12672D01*
X23473Y12614D01*
Y13373D01*
D02*
G37*
G36*
X14180Y13150D02*
X14020D01*
X13873Y13089D01*
X13761Y12977D01*
X13700Y12830D01*
Y12670D01*
X13761Y12523D01*
X13873Y12411D01*
X14020Y12350D01*
X14180D01*
X14327Y12411D01*
X14439Y12523D01*
X14500Y12670D01*
Y12830D01*
X14439Y12977D01*
X14327Y13089D01*
X14180Y13150D01*
D02*
G37*
G36*
X22773Y12586D02*
X22557Y12528D01*
X22354Y12411D01*
X22266Y12323D01*
X22138Y12358D01*
X22131Y12368D01*
X22186Y12573D01*
X20414D01*
X20472Y12357D01*
X20589Y12154D01*
X20633Y12109D01*
X20633Y12108D01*
X20574Y11989D01*
X20383D01*
X20157Y11928D01*
X19954Y11811D01*
X19789Y11646D01*
X19672Y11443D01*
X19614Y11227D01*
X20500D01*
Y11100D01*
X20627D01*
Y10214D01*
X20843Y10272D01*
X20884Y10295D01*
X21011Y10222D01*
Y10083D01*
X21072Y9857D01*
X21189Y9654D01*
X21354Y9489D01*
X21557Y9372D01*
X21773Y9314D01*
Y10200D01*
X21900D01*
Y10327D01*
X22786D01*
X22728Y10543D01*
X22625Y10722D01*
X22663Y10795D01*
X22702Y10833D01*
X22773Y10814D01*
Y11700D01*
Y12586D01*
D02*
G37*
G36*
X16373Y12786D02*
X16157Y12728D01*
X15954Y12611D01*
X15789Y12446D01*
X15672Y12243D01*
X15611Y12017D01*
Y11926D01*
X15484Y11873D01*
X15446Y11911D01*
X15243Y12028D01*
X15027Y12086D01*
Y11200D01*
Y10314D01*
X15243Y10372D01*
X15446Y10489D01*
X15611Y10654D01*
X15728Y10857D01*
X15789Y11083D01*
Y11174D01*
X15916Y11227D01*
X15954Y11189D01*
X16157Y11072D01*
X16373Y11014D01*
Y11900D01*
Y12786D01*
D02*
G37*
G36*
X23027Y12586D02*
Y11827D01*
X23786D01*
X23728Y12043D01*
X23611Y12246D01*
X23446Y12411D01*
X23243Y12528D01*
X23027Y12586D01*
D02*
G37*
G36*
X19186Y12373D02*
X18427D01*
Y11614D01*
X18643Y11672D01*
X18846Y11789D01*
X19011Y11954D01*
X19128Y12157D01*
X19186Y12373D01*
D02*
G37*
G36*
X16627Y12786D02*
Y12027D01*
X17386D01*
X17375Y12071D01*
X17493Y12120D01*
X17589Y11954D01*
X17754Y11789D01*
X17957Y11672D01*
X18173Y11614D01*
Y12373D01*
X17414D01*
X17425Y12329D01*
X17307Y12280D01*
X17211Y12446D01*
X17046Y12611D01*
X16843Y12728D01*
X16627Y12786D01*
D02*
G37*
G36*
X7773Y12286D02*
X7557Y12228D01*
X7354Y12111D01*
X7189Y11946D01*
X7072Y11743D01*
X7014Y11527D01*
X7773D01*
Y12286D01*
D02*
G37*
G36*
X53727Y11447D02*
Y11027D01*
X54147D01*
X54070Y11214D01*
X53914Y11370D01*
X53727Y11447D01*
D02*
G37*
G36*
X53473D02*
X53286Y11370D01*
X53130Y11214D01*
X53053Y11027D01*
X53473D01*
Y11447D01*
D02*
G37*
G36*
X43427D02*
Y11027D01*
X43847D01*
X43770Y11214D01*
X43614Y11370D01*
X43427Y11447D01*
D02*
G37*
G36*
X43173D02*
X42986Y11370D01*
X42830Y11214D01*
X42753Y11027D01*
X43173D01*
Y11447D01*
D02*
G37*
G36*
X17386Y11773D02*
X16627D01*
Y11014D01*
X16843Y11072D01*
X17046Y11189D01*
X17211Y11354D01*
X17328Y11557D01*
X17386Y11773D01*
D02*
G37*
G36*
X73289Y11366D02*
X72869D01*
Y10946D01*
X73056Y11024D01*
X73212Y11180D01*
X73289Y11366D01*
D02*
G37*
G36*
X72615D02*
X72195D01*
X72273Y11180D01*
X72429Y11024D01*
X72615Y10946D01*
Y11366D01*
D02*
G37*
G36*
X20373Y10973D02*
X19614D01*
X19644Y10859D01*
X19535Y10775D01*
X19443Y10828D01*
X19227Y10886D01*
Y10127D01*
X19986D01*
X19956Y10241D01*
X20065Y10325D01*
X20157Y10272D01*
X20373Y10214D01*
Y10973D01*
D02*
G37*
G36*
X75606Y11167D02*
X75186D01*
Y10747D01*
X75373Y10825D01*
X75529Y10981D01*
X75606Y11167D01*
D02*
G37*
G36*
X74932D02*
X74512D01*
X74590Y10981D01*
X74745Y10825D01*
X74932Y10747D01*
Y11167D01*
D02*
G37*
G36*
X61327Y11147D02*
Y10727D01*
X61747D01*
X61670Y10914D01*
X61514Y11070D01*
X61327Y11147D01*
D02*
G37*
G36*
X61073D02*
X60886Y11070D01*
X60730Y10914D01*
X60653Y10727D01*
X61073D01*
Y11147D01*
D02*
G37*
G36*
X67239Y11069D02*
Y10649D01*
X67659D01*
X67582Y10836D01*
X67426Y10992D01*
X67239Y11069D01*
D02*
G37*
G36*
X66985D02*
X66798Y10992D01*
X66642Y10836D01*
X66565Y10649D01*
X66985D01*
Y11069D01*
D02*
G37*
G36*
X24127Y11286D02*
Y10527D01*
X24886D01*
X24828Y10743D01*
X24711Y10946D01*
X24546Y11111D01*
X24343Y11228D01*
X24127Y11286D01*
D02*
G37*
G36*
X23786Y11573D02*
X23027D01*
Y10814D01*
X23073Y10826D01*
X23121Y10785D01*
X23165Y10719D01*
X23114Y10527D01*
X23873D01*
Y11286D01*
X23827Y11274D01*
X23779Y11315D01*
X23735Y11381D01*
X23786Y11573D01*
D02*
G37*
G36*
X7773Y11273D02*
X7014D01*
X7072Y11057D01*
X7189Y10854D01*
X7354Y10689D01*
X7557Y10572D01*
X7773Y10514D01*
Y11273D01*
D02*
G37*
G36*
X3227Y11186D02*
Y10427D01*
X3986D01*
X3928Y10643D01*
X3811Y10846D01*
X3646Y11011D01*
X3443Y11128D01*
X3227Y11186D01*
D02*
G37*
G36*
X54147Y10773D02*
X53727D01*
Y10353D01*
X53914Y10430D01*
X54070Y10586D01*
X54147Y10773D01*
D02*
G37*
G36*
X53473D02*
X53053D01*
X53130Y10586D01*
X53286Y10430D01*
X53473Y10353D01*
Y10773D01*
D02*
G37*
G36*
X43847D02*
X43427D01*
Y10353D01*
X43614Y10430D01*
X43770Y10586D01*
X43847Y10773D01*
D02*
G37*
G36*
X43173D02*
X42753D01*
X42830Y10586D01*
X42986Y10430D01*
X43173Y10353D01*
Y10773D01*
D02*
G37*
G36*
X1273Y11086D02*
X1057Y11028D01*
X854Y10911D01*
X689Y10746D01*
X572Y10543D01*
X514Y10327D01*
X1273D01*
Y11086D01*
D02*
G37*
G36*
X8027Y12286D02*
Y11400D01*
Y10514D01*
X8243Y10572D01*
X8446Y10689D01*
X8611Y10854D01*
X8685Y10981D01*
X8744Y10982D01*
X8818Y10958D01*
X8872Y10757D01*
X8989Y10554D01*
X9115Y10428D01*
X9119Y10276D01*
X9089Y10246D01*
X8972Y10043D01*
X8914Y9827D01*
X9800D01*
Y9700D01*
X9927D01*
Y8814D01*
X10143Y8872D01*
X10346Y8989D01*
X10511Y9154D01*
X10515Y9161D01*
X10636Y9116D01*
X10596Y8915D01*
Y8877D01*
X13954D01*
Y8915D01*
X13889Y9240D01*
X13763Y9545D01*
X13579Y9820D01*
X13345Y10054D01*
X13301Y10084D01*
X13339Y10211D01*
X13417D01*
X13643Y10272D01*
X13846Y10389D01*
X14011Y10554D01*
X14056Y10631D01*
X14123Y10643D01*
X14206Y10637D01*
X14354Y10489D01*
X14557Y10372D01*
X14773Y10314D01*
Y11200D01*
Y12086D01*
X14557Y12028D01*
X14354Y11911D01*
X14189Y11746D01*
X14144Y11669D01*
X14077Y11657D01*
X13994Y11663D01*
X13846Y11811D01*
X13643Y11928D01*
X13427Y11986D01*
Y11100D01*
X13173D01*
Y11986D01*
X12957Y11928D01*
X12754Y11811D01*
X12589Y11646D01*
X12549Y11578D01*
X12522Y11570D01*
X12406Y11583D01*
X12311Y11746D01*
X12146Y11911D01*
X11943Y12028D01*
X11727Y12086D01*
Y11200D01*
X11473D01*
Y12086D01*
X11257Y12028D01*
X11054Y11911D01*
X10889Y11746D01*
X10772Y11543D01*
X10711Y11317D01*
Y11252D01*
X10584Y11236D01*
X10528Y11443D01*
X10411Y11646D01*
X10246Y11811D01*
X10043Y11928D01*
X9827Y11986D01*
Y11100D01*
X9573D01*
Y11986D01*
X9357Y11928D01*
X9154Y11811D01*
X8989Y11646D01*
X8915Y11519D01*
X8856Y11518D01*
X8782Y11542D01*
X8728Y11743D01*
X8611Y11946D01*
X8446Y12111D01*
X8243Y12228D01*
X8027Y12286D01*
D02*
G37*
G36*
X18973Y10886D02*
X18757Y10828D01*
X18554Y10711D01*
X18389Y10546D01*
X18272Y10343D01*
X18231Y10192D01*
X18176Y10171D01*
X18092Y10165D01*
X17946Y10311D01*
X17743Y10428D01*
X17527Y10486D01*
Y9600D01*
Y8714D01*
X17573Y8726D01*
X17621Y8685D01*
X17665Y8619D01*
X17614Y8427D01*
X19386D01*
X19328Y8643D01*
X19211Y8846D01*
X19073Y8984D01*
X19108Y9098D01*
X19117Y9111D01*
X19217D01*
X19443Y9172D01*
X19646Y9289D01*
X19811Y9454D01*
X19928Y9657D01*
X19986Y9873D01*
X19100D01*
Y10000D01*
X18973D01*
Y10886D01*
D02*
G37*
G36*
X61747Y10473D02*
X61327D01*
Y10053D01*
X61514Y10130D01*
X61670Y10286D01*
X61747Y10473D01*
D02*
G37*
G36*
X61073D02*
X60653D01*
X60730Y10286D01*
X60886Y10130D01*
X61073Y10053D01*
Y10473D01*
D02*
G37*
G36*
X67659Y10395D02*
X67239D01*
Y9975D01*
X67426Y10052D01*
X67582Y10208D01*
X67659Y10395D01*
D02*
G37*
G36*
X66985D02*
X66565D01*
X66642Y10208D01*
X66798Y10052D01*
X66985Y9975D01*
Y10395D01*
D02*
G37*
G36*
X70512Y10733D02*
X70353D01*
X70206Y10672D01*
X70094Y10559D01*
X70033Y10412D01*
Y10253D01*
X70094Y10106D01*
X70206Y9994D01*
X70353Y9933D01*
X70512D01*
X70659Y9994D01*
X70772Y10106D01*
X70833Y10253D01*
Y10412D01*
X70772Y10559D01*
X70659Y10672D01*
X70512Y10733D01*
D02*
G37*
G36*
X91491Y10611D02*
X91332D01*
X91185Y10550D01*
X91072Y10438D01*
X91011Y10291D01*
Y10132D01*
X91072Y9985D01*
X91185Y9872D01*
X91332Y9811D01*
X91491D01*
X91638Y9872D01*
X91750Y9985D01*
X91811Y10132D01*
Y10291D01*
X91750Y10438D01*
X91638Y10550D01*
X91491Y10611D01*
D02*
G37*
G36*
X17273Y10486D02*
X17057Y10428D01*
X16854Y10311D01*
X16689Y10146D01*
X16572Y9943D01*
X16514Y9727D01*
X17273D01*
Y10486D01*
D02*
G37*
G36*
X23873Y10273D02*
X23114D01*
X23172Y10057D01*
X23289Y9854D01*
X23454Y9689D01*
X23470Y9680D01*
X23421Y9561D01*
X23327Y9586D01*
Y8827D01*
X24086D01*
X24028Y9043D01*
X23911Y9246D01*
X23746Y9411D01*
X23730Y9420D01*
X23779Y9539D01*
X23873Y9514D01*
Y10273D01*
D02*
G37*
G36*
X24886D02*
X24127D01*
Y9514D01*
X24343Y9572D01*
X24546Y9689D01*
X24711Y9854D01*
X24828Y10057D01*
X24886Y10273D01*
D02*
G37*
G36*
X61427Y9847D02*
Y9427D01*
X61847D01*
X61770Y9614D01*
X61614Y9770D01*
X61427Y9847D01*
D02*
G37*
G36*
X61173D02*
X60986Y9770D01*
X60830Y9614D01*
X60753Y9427D01*
X61173D01*
Y9847D01*
D02*
G37*
G36*
X22786Y10073D02*
X22027D01*
Y9314D01*
X22243Y9372D01*
X22446Y9489D01*
X22611Y9654D01*
X22728Y9857D01*
X22786Y10073D01*
D02*
G37*
G36*
X89678Y10061D02*
X89519D01*
X89372Y10000D01*
X89259Y9888D01*
X89198Y9741D01*
Y9582D01*
X89259Y9435D01*
X89372Y9322D01*
X89519Y9261D01*
X89678D01*
X89825Y9322D01*
X89937Y9435D01*
X89998Y9582D01*
Y9741D01*
X89937Y9888D01*
X89825Y10000D01*
X89678Y10061D01*
D02*
G37*
G36*
X7290Y10429D02*
X7252D01*
Y8877D01*
X8804D01*
Y8915D01*
X8739Y9240D01*
X8613Y9545D01*
X8429Y9820D01*
X8195Y10054D01*
X7920Y10238D01*
X7615Y10364D01*
X7290Y10429D01*
D02*
G37*
G36*
X75667Y9633D02*
X75508D01*
X75361Y9572D01*
X75248Y9459D01*
X75187Y9312D01*
Y9153D01*
X75248Y9006D01*
X75361Y8894D01*
X75508Y8833D01*
X75667D01*
X75814Y8894D01*
X75926Y9006D01*
X75987Y9153D01*
Y9312D01*
X75926Y9459D01*
X75814Y9572D01*
X75667Y9633D01*
D02*
G37*
G36*
X23073Y9586D02*
X22857Y9528D01*
X22654Y9411D01*
X22489Y9246D01*
X22372Y9043D01*
X22314Y8827D01*
X23073D01*
Y9586D01*
D02*
G37*
G36*
X20727D02*
Y8827D01*
X21486D01*
X21428Y9043D01*
X21311Y9246D01*
X21146Y9411D01*
X20943Y9528D01*
X20727Y9586D01*
D02*
G37*
G36*
X20473D02*
X20257Y9528D01*
X20054Y9411D01*
X19889Y9246D01*
X19772Y9043D01*
X19714Y8827D01*
X20473D01*
Y9586D01*
D02*
G37*
G36*
X9673Y9573D02*
X8914D01*
X8972Y9357D01*
X9089Y9154D01*
X9254Y8989D01*
X9457Y8872D01*
X9673Y8814D01*
Y9573D01*
D02*
G37*
G36*
X61847Y9173D02*
X61427D01*
Y8753D01*
X61614Y8830D01*
X61770Y8986D01*
X61847Y9173D01*
D02*
G37*
G36*
X61173D02*
X60753D01*
X60830Y8986D01*
X60986Y8830D01*
X61173Y8753D01*
Y9173D01*
D02*
G37*
G36*
X15873Y9486D02*
X15657Y9428D01*
X15454Y9311D01*
X15289Y9146D01*
X15172Y8943D01*
X15114Y8727D01*
X15873D01*
Y9486D01*
D02*
G37*
G36*
X16127D02*
Y8727D01*
X16893D01*
X16997Y8806D01*
X17057Y8772D01*
X17273Y8714D01*
Y9473D01*
X16507D01*
X16403Y9394D01*
X16343Y9428D01*
X16127Y9486D01*
D02*
G37*
G36*
X83236Y9506D02*
X83077D01*
X82930Y9445D01*
X82817Y9332D01*
X82756Y9185D01*
Y9026D01*
X82817Y8879D01*
X82930Y8767D01*
X83077Y8706D01*
X83236D01*
X83383Y8767D01*
X83495Y8879D01*
X83556Y9026D01*
Y9185D01*
X83495Y9332D01*
X83383Y9445D01*
X83236Y9506D01*
D02*
G37*
G36*
X23073Y8573D02*
X22314D01*
X22344Y8459D01*
X22235Y8375D01*
X22143Y8428D01*
X21927Y8486D01*
Y7727D01*
X22686D01*
X22656Y7841D01*
X22765Y7925D01*
X22857Y7872D01*
X23073Y7814D01*
Y8573D01*
D02*
G37*
G36*
X21486D02*
X19714D01*
X19772Y8357D01*
X19889Y8154D01*
X19961Y8082D01*
X19895Y7968D01*
X19827Y7986D01*
Y7100D01*
Y6214D01*
X20019Y6265D01*
X20085Y6221D01*
X20126Y6173D01*
X20114Y6127D01*
X21886D01*
X21828Y6343D01*
X21711Y6546D01*
X21667Y6591D01*
X21667Y6592D01*
X21726Y6711D01*
X21917D01*
X22143Y6772D01*
X22346Y6889D01*
X22511Y7054D01*
X22628Y7257D01*
X22686Y7473D01*
X21800D01*
Y7600D01*
X21673D01*
Y8486D01*
X21589Y8464D01*
X21485Y8567D01*
X21486Y8573D01*
D02*
G37*
G36*
X24086D02*
X23327D01*
Y7814D01*
X23543Y7872D01*
X23746Y7989D01*
X23911Y8154D01*
X24028Y8357D01*
X24086Y8573D01*
D02*
G37*
G36*
X16886Y8473D02*
X16127D01*
Y7714D01*
X16343Y7772D01*
X16546Y7889D01*
X16711Y8054D01*
X16828Y8257D01*
X16886Y8473D01*
D02*
G37*
G36*
X15873D02*
X15114D01*
X15172Y8257D01*
X15289Y8054D01*
X15454Y7889D01*
X15657Y7772D01*
X15873Y7714D01*
Y8473D01*
D02*
G37*
G36*
X18373Y8173D02*
X17614D01*
X17672Y7957D01*
X17789Y7754D01*
X17954Y7589D01*
X18157Y7472D01*
X18373Y7414D01*
Y8173D01*
D02*
G37*
G36*
X19386D02*
X18627D01*
Y7414D01*
X18740Y7444D01*
X18844Y7340D01*
X18814Y7227D01*
X19573D01*
Y7986D01*
X19460Y7956D01*
X19356Y8060D01*
X19386Y8173D01*
D02*
G37*
G36*
X13954Y8623D02*
X12402D01*
Y7071D01*
X12440D01*
X12765Y7136D01*
X13070Y7262D01*
X13345Y7446D01*
X13579Y7680D01*
X13763Y7955D01*
X13889Y8260D01*
X13954Y8585D01*
Y8623D01*
D02*
G37*
G36*
X12148D02*
X10596D01*
Y8585D01*
X10661Y8260D01*
X10787Y7955D01*
X10971Y7680D01*
X11205Y7446D01*
X11480Y7262D01*
X11785Y7136D01*
X12110Y7071D01*
X12148D01*
Y8623D01*
D02*
G37*
G36*
X8804D02*
X7252D01*
Y7071D01*
X7290D01*
X7615Y7136D01*
X7920Y7262D01*
X8195Y7446D01*
X8429Y7680D01*
X8613Y7955D01*
X8739Y8260D01*
X8804Y8585D01*
Y8623D01*
D02*
G37*
G36*
X34427Y7447D02*
Y7027D01*
X34847D01*
X34770Y7214D01*
X34614Y7370D01*
X34427Y7447D01*
D02*
G37*
G36*
X34173D02*
X33986Y7370D01*
X33830Y7214D01*
X33753Y7027D01*
X34173D01*
Y7447D01*
D02*
G37*
G36*
X24027Y7686D02*
Y6927D01*
X24786D01*
X24728Y7143D01*
X24611Y7346D01*
X24446Y7511D01*
X24243Y7628D01*
X24027Y7686D01*
D02*
G37*
G36*
X23773D02*
X23557Y7628D01*
X23354Y7511D01*
X23189Y7346D01*
X23072Y7143D01*
X23014Y6927D01*
X23773D01*
Y7686D01*
D02*
G37*
G36*
X17327D02*
Y6927D01*
X18086D01*
X18028Y7143D01*
X17911Y7346D01*
X17746Y7511D01*
X17543Y7628D01*
X17327Y7686D01*
D02*
G37*
G36*
X15373Y7586D02*
X15157Y7528D01*
X14954Y7411D01*
X14789Y7246D01*
X14672Y7043D01*
X14614Y6827D01*
X15373D01*
Y7586D01*
D02*
G37*
G36*
X3027Y7286D02*
Y6527D01*
X3786D01*
X3728Y6743D01*
X3611Y6946D01*
X3446Y7111D01*
X3243Y7228D01*
X3027Y7286D01*
D02*
G37*
G36*
X34847Y6773D02*
X34427D01*
Y6353D01*
X34614Y6430D01*
X34770Y6586D01*
X34847Y6773D01*
D02*
G37*
G36*
X34173D02*
X33753D01*
X33830Y6586D01*
X33986Y6430D01*
X34173Y6353D01*
Y6773D01*
D02*
G37*
G36*
X19573Y6973D02*
X18814D01*
X18872Y6757D01*
X18989Y6554D01*
X19154Y6389D01*
X19357Y6272D01*
X19573Y6214D01*
Y6973D01*
D02*
G37*
G36*
X15373Y6573D02*
X14614D01*
X14672Y6357D01*
X14789Y6154D01*
X14954Y5989D01*
X15157Y5872D01*
X15373Y5814D01*
Y6573D01*
D02*
G37*
G36*
X5686Y7173D02*
X3914D01*
X3972Y6957D01*
X4089Y6754D01*
X4254Y6589D01*
X4322Y6549D01*
X4330Y6522D01*
X4317Y6406D01*
X4154Y6311D01*
X3989Y6146D01*
X3872Y5943D01*
X3814Y5727D01*
X5586D01*
X5528Y5943D01*
X5411Y6146D01*
X5246Y6311D01*
X5178Y6351D01*
X5170Y6378D01*
X5183Y6494D01*
X5346Y6589D01*
X5511Y6754D01*
X5628Y6957D01*
X5686Y7173D01*
D02*
G37*
G36*
X94902Y6047D02*
Y5627D01*
X95322D01*
X95245Y5814D01*
X95089Y5970D01*
X94902Y6047D01*
D02*
G37*
G36*
X94648D02*
X94461Y5970D01*
X94305Y5814D01*
X94228Y5627D01*
X94648D01*
Y6047D01*
D02*
G37*
G36*
X45337Y6300D02*
X45178D01*
X45031Y6239D01*
X44918Y6127D01*
X44857Y5980D01*
Y5820D01*
X44918Y5673D01*
X45031Y5561D01*
X45178Y5500D01*
X45337D01*
X45484Y5561D01*
X45597Y5673D01*
X45657Y5820D01*
Y5980D01*
X45597Y6127D01*
X45484Y6239D01*
X45337Y6300D01*
D02*
G37*
G36*
X24786Y6673D02*
X23014D01*
X23072Y6457D01*
X23189Y6254D01*
X23233Y6209D01*
X23233Y6208D01*
X23174Y6089D01*
X22983D01*
X22757Y6028D01*
X22554Y5911D01*
X22389Y5746D01*
X22272Y5543D01*
X22214Y5327D01*
X23986D01*
X23928Y5543D01*
X23811Y5746D01*
X23767Y5791D01*
X23767Y5792D01*
X23826Y5911D01*
X24017D01*
X24243Y5972D01*
X24446Y6089D01*
X24611Y6254D01*
X24728Y6457D01*
X24786Y6673D01*
D02*
G37*
G36*
X19027Y6086D02*
Y5327D01*
X19786D01*
X19728Y5543D01*
X19611Y5746D01*
X19446Y5911D01*
X19243Y6028D01*
X19027Y6086D01*
D02*
G37*
G36*
X18773D02*
X18557Y6028D01*
X18354Y5911D01*
X18189Y5746D01*
X18072Y5543D01*
X18014Y5327D01*
X18773D01*
Y6086D01*
D02*
G37*
G36*
X21886Y5873D02*
X20114D01*
X20172Y5657D01*
X20289Y5454D01*
X20427Y5316D01*
X20392Y5202D01*
X20383Y5189D01*
X20283D01*
X20057Y5128D01*
X19910Y5044D01*
X19869Y5057D01*
X19849Y5073D01*
X19027D01*
Y4314D01*
X19243Y4372D01*
X19390Y4456D01*
X19431Y4443D01*
X19451Y4427D01*
X21286D01*
X21228Y4643D01*
X21111Y4846D01*
X20973Y4984D01*
X21008Y5098D01*
X21017Y5111D01*
X21117D01*
X21343Y5172D01*
X21546Y5289D01*
X21711Y5454D01*
X21828Y5657D01*
X21886Y5873D01*
D02*
G37*
G36*
X92724Y6225D02*
X92476D01*
X92246Y6130D01*
X92070Y5954D01*
X91975Y5724D01*
Y5476D01*
X92070Y5246D01*
X92246Y5070D01*
X92476Y4975D01*
X92724D01*
X92954Y5070D01*
X93130Y5246D01*
X93225Y5476D01*
Y5724D01*
X93130Y5954D01*
X92954Y6130D01*
X92724Y6225D01*
D02*
G37*
G36*
X88724D02*
X88476D01*
X88246Y6130D01*
X88070Y5954D01*
X87975Y5724D01*
Y5476D01*
X88070Y5246D01*
X88246Y5070D01*
X88476Y4975D01*
X88724D01*
X88954Y5070D01*
X89130Y5246D01*
X89225Y5476D01*
Y5724D01*
X89130Y5954D01*
X88954Y6130D01*
X88724Y6225D01*
D02*
G37*
G36*
X95322Y5373D02*
X94902D01*
Y4953D01*
X95089Y5030D01*
X95245Y5186D01*
X95322Y5373D01*
D02*
G37*
G36*
X94648D02*
X94228D01*
X94305Y5186D01*
X94461Y5030D01*
X94648Y4953D01*
Y5373D01*
D02*
G37*
G36*
X9871Y7475D02*
X9529D01*
X9198Y7386D01*
X8902Y7215D01*
X8660Y6973D01*
X8489Y6677D01*
X8400Y6346D01*
Y6004D01*
X8489Y5673D01*
X8660Y5377D01*
X8902Y5135D01*
X9198Y4964D01*
X9529Y4875D01*
X9871D01*
X10202Y4964D01*
X10498Y5135D01*
X10740Y5377D01*
X10911Y5673D01*
X11000Y6004D01*
Y6346D01*
X10911Y6677D01*
X10740Y6973D01*
X10498Y7215D01*
X10202Y7386D01*
X9871Y7475D01*
D02*
G37*
G36*
X15173Y5586D02*
X14957Y5528D01*
X14754Y5411D01*
X14589Y5246D01*
X14472Y5043D01*
X14414Y4827D01*
X15173D01*
Y5586D01*
D02*
G37*
G36*
X23986Y5073D02*
X23227D01*
Y4314D01*
X23443Y4372D01*
X23646Y4489D01*
X23811Y4654D01*
X23928Y4857D01*
X23986Y5073D01*
D02*
G37*
G36*
X22973D02*
X22214D01*
X22272Y4857D01*
X22389Y4654D01*
X22554Y4489D01*
X22757Y4372D01*
X22973Y4314D01*
Y5073D01*
D02*
G37*
G36*
X18773D02*
X18014D01*
X18072Y4857D01*
X18189Y4654D01*
X18354Y4489D01*
X18557Y4372D01*
X18773Y4314D01*
Y5073D01*
D02*
G37*
G36*
X17886Y4773D02*
X17127D01*
Y4014D01*
X17343Y4072D01*
X17546Y4189D01*
X17711Y4354D01*
X17828Y4557D01*
X17886Y4773D01*
D02*
G37*
G36*
X12440Y5279D02*
X12402D01*
Y3727D01*
X13954D01*
Y3765D01*
X13889Y4090D01*
X13763Y4395D01*
X13579Y4670D01*
X13345Y4904D01*
X13070Y5088D01*
X12765Y5214D01*
X12440Y5279D01*
D02*
G37*
G36*
X12148D02*
X12110D01*
X11785Y5214D01*
X11480Y5088D01*
X11205Y4904D01*
X10971Y4670D01*
X10787Y4395D01*
X10661Y4090D01*
X10596Y3765D01*
Y3727D01*
X12148D01*
Y5279D01*
D02*
G37*
G36*
X7290D02*
X7252D01*
Y3727D01*
X8804D01*
Y3765D01*
X8739Y4090D01*
X8613Y4395D01*
X8429Y4670D01*
X8195Y4904D01*
X7920Y5088D01*
X7615Y5214D01*
X7290Y5279D01*
D02*
G37*
G36*
X9573Y3886D02*
X9357Y3828D01*
X9154Y3711D01*
X8989Y3546D01*
X8931Y3446D01*
X8830Y3473D01*
X7252D01*
Y1921D01*
X7290D01*
X7615Y1986D01*
X7920Y2112D01*
X8195Y2296D01*
X8429Y2530D01*
X8613Y2805D01*
X8684Y2976D01*
X8811Y2951D01*
Y2883D01*
X8872Y2657D01*
X8989Y2454D01*
X9154Y2289D01*
X9357Y2172D01*
X9573Y2114D01*
Y3000D01*
Y3886D01*
D02*
G37*
G36*
X22827Y4086D02*
Y3327D01*
X23586D01*
X23528Y3543D01*
X23411Y3746D01*
X23246Y3911D01*
X23043Y4028D01*
X22827Y4086D01*
D02*
G37*
G36*
X22573D02*
X22357Y4028D01*
X22154Y3911D01*
X21989Y3746D01*
X21872Y3543D01*
X21814Y3327D01*
X22573D01*
Y4086D01*
D02*
G37*
G36*
X18927Y3986D02*
Y3227D01*
X19686D01*
X19628Y3443D01*
X19511Y3646D01*
X19346Y3811D01*
X19143Y3928D01*
X18927Y3986D01*
D02*
G37*
G36*
X24727Y3786D02*
Y3027D01*
X25486D01*
X25428Y3243D01*
X25311Y3446D01*
X25146Y3611D01*
X24943Y3728D01*
X24727Y3786D01*
D02*
G37*
G36*
X24473D02*
X24257Y3728D01*
X24054Y3611D01*
X23889Y3446D01*
X23772Y3243D01*
X23714Y3027D01*
X24473D01*
Y3786D01*
D02*
G37*
G36*
X34827Y3347D02*
Y2927D01*
X35247D01*
X35170Y3114D01*
X35014Y3270D01*
X34827Y3347D01*
D02*
G37*
G36*
X34573D02*
X34386Y3270D01*
X34230Y3114D01*
X34153Y2927D01*
X34573D01*
Y3347D01*
D02*
G37*
G36*
X21286Y4173D02*
X19514D01*
X19572Y3957D01*
X19689Y3754D01*
X19854Y3589D01*
X20057Y3472D01*
X20139Y3449D01*
X20157Y3313D01*
X20154Y3311D01*
X19989Y3146D01*
X19872Y2943D01*
X19814Y2727D01*
X21586D01*
X21528Y2943D01*
X21411Y3146D01*
X21246Y3311D01*
X21043Y3428D01*
X20961Y3451D01*
X20943Y3587D01*
X20946Y3589D01*
X21111Y3754D01*
X21228Y3957D01*
X21286Y4173D01*
D02*
G37*
G36*
X23586Y3073D02*
X22827D01*
Y2314D01*
X23043Y2372D01*
X23246Y2489D01*
X23411Y2654D01*
X23528Y2857D01*
X23586Y3073D01*
D02*
G37*
G36*
X22573D02*
X21814D01*
X21872Y2857D01*
X21989Y2654D01*
X22154Y2489D01*
X22357Y2372D01*
X22573Y2314D01*
Y3073D01*
D02*
G37*
G36*
X35247Y2673D02*
X34827D01*
Y2253D01*
X35014Y2330D01*
X35170Y2486D01*
X35247Y2673D01*
D02*
G37*
G36*
X34573D02*
X34153D01*
X34230Y2486D01*
X34386Y2330D01*
X34573Y2253D01*
Y2673D01*
D02*
G37*
G36*
X19686Y2973D02*
X18927D01*
Y2214D01*
X19143Y2272D01*
X19346Y2389D01*
X19511Y2554D01*
X19628Y2757D01*
X19686Y2973D01*
D02*
G37*
G36*
X82545Y3950D02*
X82315D01*
X82092Y3890D01*
X81893Y3775D01*
X81730Y3612D01*
X81615Y3413D01*
X81555Y3190D01*
Y2960D01*
X81615Y2737D01*
X81730Y2538D01*
X81893Y2375D01*
X82092Y2260D01*
X82315Y2200D01*
X82545D01*
X82768Y2260D01*
X82967Y2375D01*
X83130Y2538D01*
X83245Y2737D01*
X83305Y2960D01*
Y3190D01*
X83245Y3413D01*
X83130Y3612D01*
X82967Y3775D01*
X82768Y3890D01*
X82545Y3950D01*
D02*
G37*
G36*
X80005D02*
X79775D01*
X79552Y3890D01*
X79353Y3775D01*
X79190Y3612D01*
X79075Y3413D01*
X79015Y3190D01*
Y2960D01*
X79075Y2737D01*
X79190Y2538D01*
X79353Y2375D01*
X79552Y2260D01*
X79775Y2200D01*
X80005D01*
X80228Y2260D01*
X80427Y2375D01*
X80590Y2538D01*
X80705Y2737D01*
X80765Y2960D01*
Y3190D01*
X80705Y3413D01*
X80590Y3612D01*
X80427Y3775D01*
X80228Y3890D01*
X80005Y3950D01*
D02*
G37*
G36*
X77465D02*
X77235D01*
X77012Y3890D01*
X76813Y3775D01*
X76650Y3612D01*
X76535Y3413D01*
X76475Y3190D01*
Y2960D01*
X76535Y2737D01*
X76650Y2538D01*
X76813Y2375D01*
X77012Y2260D01*
X77235Y2200D01*
X77465D01*
X77688Y2260D01*
X77887Y2375D01*
X78050Y2538D01*
X78165Y2737D01*
X78225Y2960D01*
Y3190D01*
X78165Y3413D01*
X78050Y3612D01*
X77887Y3775D01*
X77688Y3890D01*
X77465Y3950D01*
D02*
G37*
G36*
X74925D02*
X74695D01*
X74472Y3890D01*
X74273Y3775D01*
X74110Y3612D01*
X73995Y3413D01*
X73935Y3190D01*
Y2960D01*
X73995Y2737D01*
X74110Y2538D01*
X74273Y2375D01*
X74472Y2260D01*
X74695Y2200D01*
X74925D01*
X75148Y2260D01*
X75347Y2375D01*
X75510Y2538D01*
X75625Y2737D01*
X75685Y2960D01*
Y3190D01*
X75625Y3413D01*
X75510Y3612D01*
X75347Y3775D01*
X75148Y3890D01*
X74925Y3950D01*
D02*
G37*
G36*
X72385D02*
X72155D01*
X71932Y3890D01*
X71733Y3775D01*
X71570Y3612D01*
X71455Y3413D01*
X71395Y3190D01*
Y2960D01*
X71455Y2737D01*
X71570Y2538D01*
X71733Y2375D01*
X71932Y2260D01*
X72155Y2200D01*
X72385D01*
X72608Y2260D01*
X72807Y2375D01*
X72970Y2538D01*
X73085Y2737D01*
X73145Y2960D01*
Y3190D01*
X73085Y3413D01*
X72970Y3612D01*
X72807Y3775D01*
X72608Y3890D01*
X72385Y3950D01*
D02*
G37*
G36*
X69845D02*
X69615D01*
X69392Y3890D01*
X69193Y3775D01*
X69030Y3612D01*
X68915Y3413D01*
X68855Y3190D01*
Y2960D01*
X68915Y2737D01*
X69030Y2538D01*
X69193Y2375D01*
X69392Y2260D01*
X69615Y2200D01*
X69845D01*
X70068Y2260D01*
X70267Y2375D01*
X70430Y2538D01*
X70545Y2737D01*
X70605Y2960D01*
Y3190D01*
X70545Y3413D01*
X70430Y3612D01*
X70267Y3775D01*
X70068Y3890D01*
X69845Y3950D01*
D02*
G37*
G36*
X67305D02*
X67075D01*
X66852Y3890D01*
X66653Y3775D01*
X66490Y3612D01*
X66375Y3413D01*
X66315Y3190D01*
Y2960D01*
X66375Y2737D01*
X66490Y2538D01*
X66653Y2375D01*
X66852Y2260D01*
X67075Y2200D01*
X67305D01*
X67528Y2260D01*
X67727Y2375D01*
X67890Y2538D01*
X68005Y2737D01*
X68065Y2960D01*
Y3190D01*
X68005Y3413D01*
X67890Y3612D01*
X67727Y3775D01*
X67528Y3890D01*
X67305Y3950D01*
D02*
G37*
G36*
X64765D02*
X64535D01*
X64312Y3890D01*
X64113Y3775D01*
X63950Y3612D01*
X63835Y3413D01*
X63775Y3190D01*
Y2960D01*
X63835Y2737D01*
X63950Y2538D01*
X64113Y2375D01*
X64312Y2260D01*
X64535Y2200D01*
X64765D01*
X64988Y2260D01*
X65187Y2375D01*
X65350Y2538D01*
X65465Y2737D01*
X65525Y2960D01*
Y3190D01*
X65465Y3413D01*
X65350Y3612D01*
X65187Y3775D01*
X64988Y3890D01*
X64765Y3950D01*
D02*
G37*
G36*
X62225D02*
X61995D01*
X61772Y3890D01*
X61573Y3775D01*
X61410Y3612D01*
X61295Y3413D01*
X61235Y3190D01*
Y2960D01*
X61295Y2737D01*
X61410Y2538D01*
X61573Y2375D01*
X61772Y2260D01*
X61995Y2200D01*
X62225D01*
X62448Y2260D01*
X62647Y2375D01*
X62810Y2538D01*
X62925Y2737D01*
X62985Y2960D01*
Y3190D01*
X62925Y3413D01*
X62810Y3612D01*
X62647Y3775D01*
X62448Y3890D01*
X62225Y3950D01*
D02*
G37*
G36*
X59685D02*
X59455D01*
X59232Y3890D01*
X59033Y3775D01*
X58870Y3612D01*
X58755Y3413D01*
X58695Y3190D01*
Y2960D01*
X58755Y2737D01*
X58870Y2538D01*
X59033Y2375D01*
X59232Y2260D01*
X59455Y2200D01*
X59685D01*
X59908Y2260D01*
X60107Y2375D01*
X60270Y2538D01*
X60385Y2737D01*
X60445Y2960D01*
Y3190D01*
X60385Y3413D01*
X60270Y3612D01*
X60107Y3775D01*
X59908Y3890D01*
X59685Y3950D01*
D02*
G37*
G36*
X57145D02*
X56915D01*
X56692Y3890D01*
X56493Y3775D01*
X56330Y3612D01*
X56215Y3413D01*
X56155Y3190D01*
Y2960D01*
X56215Y2737D01*
X56330Y2538D01*
X56493Y2375D01*
X56692Y2260D01*
X56915Y2200D01*
X57145D01*
X57368Y2260D01*
X57567Y2375D01*
X57730Y2538D01*
X57845Y2737D01*
X57905Y2960D01*
Y3190D01*
X57845Y3413D01*
X57730Y3612D01*
X57567Y3775D01*
X57368Y3890D01*
X57145Y3950D01*
D02*
G37*
G36*
X54605D02*
X54375D01*
X54152Y3890D01*
X53953Y3775D01*
X53790Y3612D01*
X53675Y3413D01*
X53615Y3190D01*
Y2960D01*
X53675Y2737D01*
X53790Y2538D01*
X53953Y2375D01*
X54152Y2260D01*
X54375Y2200D01*
X54605D01*
X54828Y2260D01*
X55027Y2375D01*
X55190Y2538D01*
X55305Y2737D01*
X55365Y2960D01*
Y3190D01*
X55305Y3413D01*
X55190Y3612D01*
X55027Y3775D01*
X54828Y3890D01*
X54605Y3950D01*
D02*
G37*
G36*
X52065D02*
X51835D01*
X51612Y3890D01*
X51413Y3775D01*
X51250Y3612D01*
X51135Y3413D01*
X51075Y3190D01*
Y2960D01*
X51135Y2737D01*
X51250Y2538D01*
X51413Y2375D01*
X51612Y2260D01*
X51835Y2200D01*
X52065D01*
X52288Y2260D01*
X52487Y2375D01*
X52650Y2538D01*
X52765Y2737D01*
X52825Y2960D01*
Y3190D01*
X52765Y3413D01*
X52650Y3612D01*
X52487Y3775D01*
X52288Y3890D01*
X52065Y3950D01*
D02*
G37*
G36*
X49525D02*
X49295D01*
X49072Y3890D01*
X48873Y3775D01*
X48710Y3612D01*
X48595Y3413D01*
X48535Y3190D01*
Y2960D01*
X48595Y2737D01*
X48710Y2538D01*
X48873Y2375D01*
X49072Y2260D01*
X49295Y2200D01*
X49525D01*
X49748Y2260D01*
X49947Y2375D01*
X50110Y2538D01*
X50225Y2737D01*
X50285Y2960D01*
Y3190D01*
X50225Y3413D01*
X50110Y3612D01*
X49947Y3775D01*
X49748Y3890D01*
X49525Y3950D01*
D02*
G37*
G36*
X100823Y3654D02*
X100767D01*
X100409Y3583D01*
X100072Y3443D01*
X99768Y3240D01*
X99510Y2982D01*
X99307Y2678D01*
X99167Y2341D01*
X99096Y1983D01*
Y1927D01*
X100823D01*
Y3654D01*
D02*
G37*
G36*
X13954Y3473D02*
X12402D01*
Y1921D01*
X12440D01*
X12765Y1986D01*
X13070Y2112D01*
X13345Y2296D01*
X13579Y2530D01*
X13763Y2805D01*
X13889Y3110D01*
X13954Y3435D01*
Y3473D01*
D02*
G37*
G36*
X9827Y3886D02*
Y3000D01*
Y2114D01*
X10043Y2172D01*
X10246Y2289D01*
X10411Y2454D01*
X10528Y2657D01*
X10589Y2883D01*
Y2951D01*
X10716Y2976D01*
X10787Y2805D01*
X10971Y2530D01*
X11205Y2296D01*
X11480Y2112D01*
X11785Y1986D01*
X12110Y1921D01*
X12148D01*
Y3473D01*
X10570D01*
X10469Y3446D01*
X10411Y3546D01*
X10246Y3711D01*
X10043Y3828D01*
X9827Y3886D01*
D02*
G37*
G36*
X19173Y1886D02*
X18957Y1828D01*
X18754Y1711D01*
X18589Y1546D01*
X18472Y1343D01*
X18414Y1127D01*
X19173D01*
Y1886D01*
D02*
G37*
G36*
X13673D02*
X13457Y1828D01*
X13254Y1711D01*
X13089Y1546D01*
X12972Y1343D01*
X12914Y1127D01*
X13673D01*
Y1886D01*
D02*
G37*
%LPD*%
G36*
X88700Y23800D02*
X88620D01*
X88473Y23739D01*
X88361Y23627D01*
X88300Y23480D01*
Y23320D01*
X88361Y23173D01*
X88473Y23061D01*
X88620Y23000D01*
X88700D01*
Y20486D01*
X87430D01*
X87345Y20570D01*
X87198Y20631D01*
X87039D01*
X86892Y20570D01*
X86780Y20458D01*
X86719Y20311D01*
Y20151D01*
X86780Y20004D01*
X86892Y19892D01*
X87039Y19831D01*
X87198D01*
X87345Y19892D01*
X87430Y19976D01*
X88700D01*
Y12800D01*
X62390D01*
X62319Y12906D01*
X62347Y12973D01*
X61253D01*
X61281Y12906D01*
X61210Y12800D01*
X56700D01*
Y17508D01*
X56827Y17561D01*
X56939Y17673D01*
X57000Y17820D01*
Y17980D01*
X56939Y18127D01*
X56827Y18239D01*
X56700Y18292D01*
Y20800D01*
X68754D01*
Y18332D01*
X68670Y18248D01*
X68609Y18101D01*
Y17942D01*
X68670Y17795D01*
X68782Y17682D01*
X68929Y17621D01*
X69088D01*
X69235Y17682D01*
X69348Y17795D01*
X69409Y17942D01*
Y18101D01*
X69348Y18248D01*
X69263Y18332D01*
Y20800D01*
X75700D01*
Y27400D01*
X75780D01*
X75927Y27461D01*
X76039Y27573D01*
X76100Y27720D01*
Y27880D01*
X76039Y28027D01*
X75927Y28139D01*
X75780Y28200D01*
X75700D01*
Y28414D01*
X75774Y28488D01*
X75835Y28635D01*
Y28794D01*
X75774Y28941D01*
X75700Y29015D01*
Y34300D01*
X88700D01*
Y23800D01*
D02*
G37*
%LPC*%
G36*
X87827Y32847D02*
Y32427D01*
X88247D01*
X88170Y32614D01*
X88014Y32770D01*
X87827Y32847D01*
D02*
G37*
G36*
X87573D02*
X87386Y32770D01*
X87230Y32614D01*
X87153Y32427D01*
X87573D01*
Y32847D01*
D02*
G37*
G36*
X78617Y32800D02*
X78458D01*
X78311Y32739D01*
X78198Y32627D01*
X78137Y32480D01*
Y32320D01*
X78198Y32173D01*
X78311Y32061D01*
X78458Y32000D01*
X78617D01*
X78764Y32061D01*
X78877Y32173D01*
X78937Y32320D01*
Y32480D01*
X78877Y32627D01*
X78764Y32739D01*
X78617Y32800D01*
D02*
G37*
G36*
X76380D02*
X76220D01*
X76073Y32739D01*
X75961Y32627D01*
X75900Y32480D01*
Y32320D01*
X75961Y32173D01*
X76073Y32061D01*
X76220Y32000D01*
X76380D01*
X76527Y32061D01*
X76639Y32173D01*
X76700Y32320D01*
Y32480D01*
X76639Y32627D01*
X76527Y32739D01*
X76380Y32800D01*
D02*
G37*
G36*
X88247Y32173D02*
X87827D01*
Y31753D01*
X88014Y31830D01*
X88170Y31986D01*
X88247Y32173D01*
D02*
G37*
G36*
X87573D02*
X87153D01*
X87230Y31986D01*
X87386Y31830D01*
X87573Y31753D01*
Y32173D01*
D02*
G37*
G36*
X84580Y27600D02*
X84420D01*
X84273Y27539D01*
X84161Y27427D01*
X84100Y27280D01*
Y27120D01*
X84161Y26973D01*
X84253Y26881D01*
X84232Y26786D01*
X84214Y26754D01*
X84090D01*
X83886Y26670D01*
X83730Y26514D01*
X83653Y26327D01*
X84747D01*
X84670Y26514D01*
X84514Y26670D01*
X84506Y26673D01*
X84531Y26800D01*
X84580D01*
X84727Y26861D01*
X84839Y26973D01*
X84900Y27120D01*
Y27280D01*
X84839Y27427D01*
X84727Y27539D01*
X84580Y27600D01*
D02*
G37*
G36*
X84747Y26073D02*
X84327D01*
Y25653D01*
X84514Y25730D01*
X84670Y25886D01*
X84747Y26073D01*
D02*
G37*
G36*
X84073D02*
X83653D01*
X83730Y25886D01*
X83886Y25730D01*
X84073Y25653D01*
Y26073D01*
D02*
G37*
G36*
X87974Y25390D02*
X87815D01*
X87668Y25329D01*
X87555Y25216D01*
X87497Y25077D01*
X87470Y25067D01*
X87367Y25059D01*
X87339Y25127D01*
X87227Y25239D01*
X87080Y25300D01*
X86920D01*
X86773Y25239D01*
X86661Y25127D01*
X86600Y24980D01*
Y24820D01*
X86661Y24673D01*
X86773Y24561D01*
X86920Y24500D01*
X87080D01*
X87227Y24561D01*
X87339Y24673D01*
X87397Y24813D01*
X87424Y24822D01*
X87527Y24831D01*
X87555Y24763D01*
X87668Y24650D01*
X87815Y24590D01*
X87974D01*
X88121Y24650D01*
X88233Y24763D01*
X88294Y24910D01*
Y25069D01*
X88233Y25216D01*
X88121Y25329D01*
X87974Y25390D01*
D02*
G37*
G36*
X77257Y24302D02*
X77098D01*
X76951Y24242D01*
X76838Y24129D01*
X76777Y23982D01*
Y23823D01*
X76838Y23676D01*
X76951Y23563D01*
X77098Y23502D01*
X77257D01*
X77404Y23563D01*
X77517Y23676D01*
X77577Y23823D01*
Y23982D01*
X77517Y24129D01*
X77404Y24242D01*
X77257Y24302D01*
D02*
G37*
G36*
X83772Y23908D02*
X83613D01*
X83466Y23847D01*
X83354Y23734D01*
X83293Y23587D01*
Y23428D01*
X83354Y23281D01*
X83466Y23169D01*
X83613Y23108D01*
X83772D01*
X83919Y23169D01*
X84032Y23281D01*
X84093Y23428D01*
Y23587D01*
X84032Y23734D01*
X83919Y23847D01*
X83772Y23908D01*
D02*
G37*
G36*
X86142Y24715D02*
X85983D01*
X85836Y24654D01*
X85723Y24542D01*
X85662Y24395D01*
Y24235D01*
X85723Y24088D01*
X85836Y23976D01*
X85983Y23915D01*
X86116Y23915D01*
X86141Y23788D01*
X86023Y23739D01*
X85911Y23627D01*
X85850Y23480D01*
Y23320D01*
X85911Y23173D01*
X86023Y23061D01*
X86170Y23000D01*
X86330D01*
X86477Y23061D01*
X86589Y23173D01*
X86650Y23320D01*
Y23480D01*
X86589Y23627D01*
X86477Y23739D01*
X86330Y23800D01*
X86196Y23800D01*
X86171Y23927D01*
X86289Y23976D01*
X86401Y24088D01*
X86462Y24235D01*
Y24395D01*
X86401Y24542D01*
X86289Y24654D01*
X86142Y24715D01*
D02*
G37*
G36*
X78542Y23565D02*
X78382D01*
X78235Y23504D01*
X78123Y23391D01*
X78062Y23244D01*
Y23085D01*
X78123Y22938D01*
X78235Y22826D01*
X78382Y22765D01*
X78542D01*
X78689Y22826D01*
X78801Y22938D01*
X78862Y23085D01*
Y23244D01*
X78801Y23391D01*
X78689Y23504D01*
X78542Y23565D01*
D02*
G37*
G36*
X85674Y22646D02*
X85515D01*
X85368Y22586D01*
X85256Y22473D01*
X85219Y22384D01*
X85082D01*
X85045Y22473D01*
X84932Y22586D01*
X84785Y22646D01*
X84626D01*
X84479Y22586D01*
X84367Y22473D01*
X84306Y22326D01*
Y22167D01*
X84367Y22020D01*
X84479Y21907D01*
X84626Y21846D01*
X84785D01*
X84932Y21907D01*
X85045Y22020D01*
X85082Y22108D01*
X85219D01*
X85256Y22020D01*
X85368Y21907D01*
X85515Y21846D01*
X85674D01*
X85821Y21907D01*
X85934Y22020D01*
X85995Y22167D01*
Y22326D01*
X85934Y22473D01*
X85821Y22586D01*
X85674Y22646D01*
D02*
G37*
G36*
X76365Y23015D02*
X76206D01*
X76059Y22954D01*
X75946Y22841D01*
X75885Y22694D01*
Y22535D01*
X75946Y22388D01*
X76059Y22276D01*
X76206Y22215D01*
X76365D01*
X76512Y22276D01*
X76624Y22388D01*
X76685Y22535D01*
Y22694D01*
X76624Y22841D01*
X76512Y22954D01*
X76365Y23015D01*
D02*
G37*
G36*
X81080Y22750D02*
X80920D01*
X80773Y22689D01*
X80661Y22577D01*
X80600Y22430D01*
Y22270D01*
X80661Y22123D01*
X80773Y22011D01*
X80920Y21950D01*
X81080D01*
X81227Y22011D01*
X81339Y22123D01*
X81400Y22270D01*
Y22430D01*
X81339Y22577D01*
X81227Y22689D01*
X81080Y22750D01*
D02*
G37*
G36*
X87376Y22511D02*
X87217D01*
X87070Y22450D01*
X86957Y22337D01*
X86897Y22190D01*
Y22031D01*
X86957Y21884D01*
X87070Y21771D01*
X87217Y21711D01*
X87376D01*
X87523Y21771D01*
X87636Y21884D01*
X87697Y22031D01*
Y22190D01*
X87636Y22337D01*
X87523Y22450D01*
X87376Y22511D01*
D02*
G37*
G36*
X80355Y21875D02*
X80195D01*
X80048Y21814D01*
X79936Y21702D01*
X79875Y21555D01*
Y21395D01*
X79936Y21248D01*
X80048Y21136D01*
X80195Y21075D01*
X80355D01*
X80502Y21136D01*
X80614Y21248D01*
X80675Y21395D01*
Y21555D01*
X80614Y21702D01*
X80502Y21814D01*
X80355Y21875D01*
D02*
G37*
G36*
X72118Y19425D02*
X71959D01*
X71812Y19364D01*
X71700Y19252D01*
X71639Y19105D01*
Y18945D01*
X71700Y18798D01*
X71812Y18686D01*
X71959Y18625D01*
X72118D01*
X72265Y18686D01*
X72378Y18798D01*
X72439Y18945D01*
Y19105D01*
X72378Y19252D01*
X72265Y19364D01*
X72118Y19425D01*
D02*
G37*
G36*
X81080Y19150D02*
X80921D01*
X80774Y19089D01*
X80661Y18977D01*
X80601Y18830D01*
Y18670D01*
X80661Y18523D01*
X80774Y18411D01*
X80921Y18350D01*
X81080D01*
X81227Y18411D01*
X81340Y18523D01*
X81401Y18670D01*
Y18830D01*
X81340Y18977D01*
X81227Y19089D01*
X81080Y19150D01*
D02*
G37*
G36*
X70930Y18875D02*
X70770D01*
X70623Y18814D01*
X70511Y18702D01*
X70450Y18555D01*
Y18395D01*
X70511Y18248D01*
X70623Y18136D01*
X70770Y18075D01*
X70930D01*
X71077Y18136D01*
X71189Y18248D01*
X71250Y18395D01*
Y18555D01*
X71189Y18702D01*
X71077Y18814D01*
X70930Y18875D01*
D02*
G37*
G36*
X78469Y18711D02*
X78310D01*
X78163Y18650D01*
X78050Y18537D01*
X77989Y18390D01*
Y18231D01*
X78050Y18084D01*
X78163Y17972D01*
X78310Y17911D01*
X78469D01*
X78616Y17972D01*
X78728Y18084D01*
X78789Y18231D01*
Y18390D01*
X78728Y18537D01*
X78616Y18650D01*
X78469Y18711D01*
D02*
G37*
G36*
X74575Y18599D02*
X74415D01*
X74268Y18538D01*
X74156Y18426D01*
X74095Y18279D01*
Y18119D01*
X74156Y17972D01*
X74268Y17860D01*
X74415Y17799D01*
X74575D01*
X74722Y17860D01*
X74834Y17972D01*
X74895Y18119D01*
Y18279D01*
X74834Y18426D01*
X74722Y18538D01*
X74575Y18599D01*
D02*
G37*
G36*
X87589Y18600D02*
X87411D01*
X87239Y18554D01*
X87086Y18465D01*
X86960Y18339D01*
X86871Y18186D01*
X86825Y18014D01*
Y17836D01*
X86871Y17664D01*
X86960Y17511D01*
X87086Y17385D01*
X87239Y17296D01*
X87411Y17250D01*
X87589D01*
X87761Y17296D01*
X87914Y17385D01*
X88040Y17511D01*
X88129Y17664D01*
X88175Y17836D01*
Y18014D01*
X88129Y18186D01*
X88040Y18339D01*
X87914Y18465D01*
X87761Y18554D01*
X87589Y18600D01*
D02*
G37*
G36*
X76180Y17950D02*
X76020D01*
X75873Y17889D01*
X75761Y17777D01*
X75700Y17630D01*
Y17470D01*
X75761Y17323D01*
X75873Y17211D01*
X76020Y17150D01*
X76180D01*
X76327Y17211D01*
X76439Y17323D01*
X76500Y17470D01*
Y17630D01*
X76439Y17777D01*
X76327Y17889D01*
X76180Y17950D01*
D02*
G37*
G36*
X79680Y17900D02*
X79520D01*
X79373Y17839D01*
X79261Y17727D01*
X79200Y17580D01*
Y17420D01*
X79261Y17273D01*
X79373Y17161D01*
X79520Y17100D01*
X79680D01*
X79827Y17161D01*
X79939Y17273D01*
X80000Y17420D01*
Y17580D01*
X79939Y17727D01*
X79827Y17839D01*
X79680Y17900D01*
D02*
G37*
G36*
X67622Y18850D02*
X67378D01*
X67143Y18787D01*
X66932Y18665D01*
X66760Y18493D01*
X66638Y18282D01*
X66575Y18047D01*
Y17803D01*
X66638Y17568D01*
X66760Y17357D01*
X66932Y17185D01*
X67143Y17063D01*
X67378Y17000D01*
X67622D01*
X67857Y17063D01*
X68068Y17185D01*
X68240Y17357D01*
X68362Y17568D01*
X68425Y17803D01*
Y18047D01*
X68362Y18282D01*
X68240Y18493D01*
X68068Y18665D01*
X67857Y18787D01*
X67622Y18850D01*
D02*
G37*
G36*
X78080Y17400D02*
X77920D01*
X77773Y17339D01*
X77661Y17227D01*
X77600Y17080D01*
Y16920D01*
X77653Y16794D01*
X77661Y16773D01*
X77563Y16702D01*
X77554Y16712D01*
X77527Y16739D01*
X77380Y16800D01*
X77220D01*
X77073Y16739D01*
X76961Y16627D01*
X76900Y16480D01*
Y16320D01*
X76961Y16173D01*
X77073Y16061D01*
X77220Y16000D01*
X77380D01*
X77527Y16061D01*
X77639Y16173D01*
X77700Y16320D01*
Y16480D01*
X77647Y16606D01*
X77639Y16627D01*
X77737Y16698D01*
X77746Y16688D01*
X77773Y16661D01*
X77920Y16600D01*
X78080D01*
X78227Y16661D01*
X78339Y16773D01*
X78400Y16920D01*
Y17080D01*
X78339Y17227D01*
X78227Y17339D01*
X78080Y17400D01*
D02*
G37*
G36*
X71198Y17204D02*
X71039D01*
X70892Y17143D01*
X70779Y17030D01*
X70718Y16883D01*
Y16724D01*
X70779Y16577D01*
X70892Y16465D01*
X71039Y16404D01*
X71198D01*
X71345Y16465D01*
X71458Y16577D01*
X71518Y16724D01*
Y16883D01*
X71458Y17030D01*
X71345Y17143D01*
X71198Y17204D01*
D02*
G37*
G36*
X60480Y17100D02*
X60320D01*
X60173Y17039D01*
X60061Y16927D01*
X60000Y16780D01*
Y16620D01*
X60061Y16473D01*
X60173Y16361D01*
X60320Y16300D01*
X60480D01*
X60627Y16361D01*
X60739Y16473D01*
X60800Y16620D01*
Y16780D01*
X60739Y16927D01*
X60627Y17039D01*
X60480Y17100D01*
D02*
G37*
G36*
X63486Y16109D02*
Y15689D01*
X63906D01*
X63829Y15876D01*
X63673Y16032D01*
X63486Y16109D01*
D02*
G37*
G36*
X63232D02*
X63045Y16032D01*
X62889Y15876D01*
X62812Y15689D01*
X63232D01*
Y16109D01*
D02*
G37*
G36*
X71511Y15916D02*
X71352D01*
X71205Y15855D01*
X71092Y15743D01*
X71031Y15596D01*
Y15437D01*
X71092Y15290D01*
X71205Y15177D01*
X71352Y15116D01*
X71511D01*
X71658Y15177D01*
X71770Y15290D01*
X71831Y15437D01*
Y15596D01*
X71770Y15743D01*
X71658Y15855D01*
X71511Y15916D01*
D02*
G37*
G36*
X63906Y15435D02*
X63486D01*
Y15015D01*
X63673Y15092D01*
X63829Y15248D01*
X63906Y15435D01*
D02*
G37*
G36*
X63232D02*
X62812D01*
X62889Y15248D01*
X63045Y15092D01*
X63232Y15015D01*
Y15435D01*
D02*
G37*
G36*
X59080Y14800D02*
X58920D01*
X58773Y14739D01*
X58661Y14627D01*
X58600Y14480D01*
Y14320D01*
X58661Y14173D01*
X58773Y14061D01*
X58920Y14000D01*
X59080D01*
X59227Y14061D01*
X59339Y14173D01*
X59400Y14320D01*
Y14480D01*
X59339Y14627D01*
X59227Y14739D01*
X59080Y14800D01*
D02*
G37*
G36*
X83205Y14775D02*
X83045D01*
X82898Y14714D01*
X82786Y14602D01*
X82725Y14455D01*
Y14295D01*
X82786Y14148D01*
X82898Y14036D01*
X83045Y13975D01*
X83205D01*
X83352Y14036D01*
X83464Y14148D01*
X83525Y14295D01*
Y14455D01*
X83464Y14602D01*
X83352Y14714D01*
X83205Y14775D01*
D02*
G37*
G36*
X60613Y14633D02*
X60454D01*
X60307Y14572D01*
X60194Y14460D01*
X60133Y14313D01*
Y14154D01*
X60194Y14007D01*
X60307Y13894D01*
X60454Y13833D01*
X60613D01*
X60760Y13894D01*
X60872Y14007D01*
X60933Y14154D01*
Y14313D01*
X60872Y14460D01*
X60760Y14572D01*
X60613Y14633D01*
D02*
G37*
G36*
X64780Y14300D02*
X64620D01*
X64473Y14239D01*
X64361Y14127D01*
X64300Y13980D01*
Y13820D01*
X64361Y13673D01*
X64473Y13561D01*
X64620Y13500D01*
X64780D01*
X64927Y13561D01*
X65039Y13673D01*
X65100Y13820D01*
Y13980D01*
X65039Y14127D01*
X64927Y14239D01*
X64780Y14300D01*
D02*
G37*
G36*
X61752Y14272D02*
X61593D01*
X61446Y14211D01*
X61333Y14099D01*
X61272Y13952D01*
Y13793D01*
X61333Y13646D01*
X61358Y13620D01*
X61359Y13442D01*
X61330Y13414D01*
X61253Y13227D01*
X62347D01*
X62270Y13414D01*
X62114Y13570D01*
X62105Y13573D01*
X62048Y13734D01*
X62072Y13793D01*
Y13952D01*
X62011Y14099D01*
X61899Y14211D01*
X61752Y14272D01*
D02*
G37*
%LPD*%
D115*
X69009Y18021D02*
Y21799D01*
X69184Y21975D01*
X71033D01*
X87119Y20231D02*
X91519D01*
D122*
X77425Y46025D02*
D03*
D123*
X93900Y72125D02*
D03*
D127*
X12275Y3600D02*
D03*
Y8750D02*
D03*
X7125D02*
D03*
Y3600D02*
D03*
D130*
X100100Y12890D02*
D03*
Y14160D02*
D03*
X48440Y71270D02*
D03*
X47170D02*
D03*
D133*
X1925Y72325D02*
D03*
X2200Y1800D02*
D03*
X100950D02*
D03*
X101000Y72400D02*
D03*
D135*
X100575Y37850D02*
D03*
D139*
X76025Y49825D02*
D03*
X25215Y15200D02*
D03*
X22700Y3200D02*
D03*
X76825Y41925D02*
D03*
X80125Y43125D02*
D03*
X78525Y42125D02*
D03*
X78225Y49825D02*
D03*
X80125Y48925D02*
D03*
X80425Y47125D02*
D03*
Y45125D02*
D03*
X24200Y1100D02*
D03*
X24600Y2900D02*
D03*
X23900Y6800D02*
D03*
X23100Y5200D02*
D03*
X22500Y1100D02*
D03*
X19300Y1000D02*
D03*
X4600Y9000D02*
D03*
X4800Y7300D02*
D03*
X4700Y5600D02*
D03*
X4400Y2400D02*
D03*
X6100Y800D02*
D03*
X7900Y1000D02*
D03*
X9700Y3000D02*
D03*
X9600Y900D02*
D03*
X11800D02*
D03*
X13800Y1000D02*
D03*
X17300Y1100D02*
D03*
X1100Y4600D02*
D03*
X1400Y10200D02*
D03*
X11600Y11200D02*
D03*
X9800Y9700D02*
D03*
X9700Y11100D02*
D03*
X2900Y4600D02*
D03*
Y6400D02*
D03*
Y8400D02*
D03*
X3100Y10300D02*
D03*
X7900Y11400D02*
D03*
X23500Y15400D02*
D03*
X23600Y13500D02*
D03*
X22900Y11700D02*
D03*
X24000Y10400D02*
D03*
X20700Y2600D02*
D03*
X18800Y3100D02*
D03*
X20400Y4300D02*
D03*
X18900Y5200D02*
D03*
X21000Y6000D02*
D03*
X19700Y7100D02*
D03*
X21800Y7600D02*
D03*
X23200Y8700D02*
D03*
X21900Y10200D02*
D03*
X20600Y8700D02*
D03*
X18500Y8300D02*
D03*
X17200Y6800D02*
D03*
X17000Y4900D02*
D03*
X16900Y2900D02*
D03*
X15300D02*
D03*
Y4700D02*
D03*
X15500Y6700D02*
D03*
X16000Y8600D02*
D03*
X17400Y9600D02*
D03*
X19100Y10000D02*
D03*
X20500Y11100D02*
D03*
X21300Y12700D02*
D03*
X21500Y14400D02*
D03*
X13300Y11100D02*
D03*
X14900Y11200D02*
D03*
X16500Y11900D02*
D03*
X18300Y12500D02*
D03*
D140*
X84200Y26200D02*
D03*
X94775Y5500D02*
D03*
X75059Y11294D02*
D03*
X61825Y33075D02*
D03*
X68925Y39225D02*
D03*
X76200Y36250D02*
D03*
X52700Y44800D02*
D03*
X48525Y18275D02*
D03*
X62938Y33862D02*
D03*
X53600Y10900D02*
D03*
X15450Y40050D02*
D03*
X74470Y27089D02*
D03*
X87700Y32300D02*
D03*
X17800Y19600D02*
D03*
X19000D02*
D03*
X21500Y22100D02*
D03*
X21600Y21000D02*
D03*
X21100Y20200D02*
D03*
X18700Y22900D02*
D03*
X18800Y21200D02*
D03*
X12100Y19900D02*
D03*
X13900Y20000D02*
D03*
X12000Y19100D02*
D03*
X13100Y19200D02*
D03*
X15500Y20100D02*
D03*
X14000Y24500D02*
D03*
X15500Y24400D02*
D03*
X55900Y22675D02*
D03*
X89875Y25875D02*
D03*
X89777Y13525D02*
D03*
X64100Y22100D02*
D03*
X72742Y11493D02*
D03*
X87119Y20231D02*
D03*
X69009Y18021D02*
D03*
X96678Y43800D02*
D03*
X28490Y15240D02*
D03*
X89654Y64192D02*
D03*
X63800Y42200D02*
D03*
X43800Y48100D02*
D03*
X61200Y10600D02*
D03*
X40300Y34200D02*
D03*
X91300Y27960D02*
D03*
X92100Y29100D02*
D03*
X93400Y27960D02*
D03*
X33500Y33400D02*
D03*
X61300Y9300D02*
D03*
X68200Y28000D02*
D03*
X34700Y2800D02*
D03*
X34300Y6900D02*
D03*
X7100Y23500D02*
D03*
X8100Y20300D02*
D03*
X40400Y39800D02*
D03*
X64400Y29500D02*
D03*
X58000Y29200D02*
D03*
X99300Y64300D02*
D03*
X84300Y67700D02*
D03*
X73500Y59200D02*
D03*
X52400Y52900D02*
D03*
X49700Y45400D02*
D03*
X40200Y29700D02*
D03*
X33700Y28800D02*
D03*
X84500Y56200D02*
D03*
X67112Y10522D02*
D03*
X48700Y16100D02*
D03*
X43300Y10900D02*
D03*
X92700Y44400D02*
D03*
X95000Y41600D02*
D03*
X100900Y47000D02*
D03*
X90300Y49300D02*
D03*
X95100Y54000D02*
D03*
X94500Y56900D02*
D03*
X87100Y59400D02*
D03*
X23700Y61100D02*
D03*
X34600Y23100D02*
D03*
X39000Y19700D02*
D03*
X36800Y23200D02*
D03*
X82350Y58400D02*
D03*
X82000Y63600D02*
D03*
X30900Y19200D02*
D03*
X10900Y37500D02*
D03*
X14800Y32400D02*
D03*
X16400Y32700D02*
D03*
X17200Y33500D02*
D03*
X15500D02*
D03*
X13200Y33600D02*
D03*
X11000Y36500D02*
D03*
X22400Y35200D02*
D03*
X21900Y33100D02*
D03*
Y31500D02*
D03*
X12400Y30600D02*
D03*
X7500Y33100D02*
D03*
X12100Y33300D02*
D03*
X7500Y31400D02*
D03*
X63359Y15562D02*
D03*
X61800Y13100D02*
D03*
M02*
