%FSTAX43Y43*%
%MOMM*%
%SFA1B1*%

%IPPOS*%
%AMD98*
4,1,8,-2.222500,1.991360,-2.222500,-1.991360,-1.109980,-3.101340,1.109980,-3.101340,2.222500,-1.991360,2.222500,1.991360,1.109980,3.101340,-1.109980,3.101340,-2.222500,1.991360,0.0*
%
%AMD181*
4,1,8,0.601980,0.391160,-0.601980,0.391160,-0.777240,0.218440,-0.777240,-0.218440,-0.601980,-0.391160,0.601980,-0.391160,0.777240,-0.218440,0.777240,0.218440,0.601980,0.391160,0.0*
1,1,0.348000,0.601980,0.218440*
1,1,0.348000,-0.601980,0.218440*
1,1,0.348000,-0.601980,-0.218440*
1,1,0.348000,0.601980,-0.218440*
%
%AMD183*
4,1,8,-0.396240,0.586740,-0.396240,-0.586740,-0.220980,-0.762000,0.220980,-0.762000,0.396240,-0.586740,0.396240,0.586740,0.220980,0.762000,-0.220980,0.762000,-0.396240,0.586740,0.0*
1,1,0.350000,-0.220980,0.586740*
1,1,0.350000,-0.220980,-0.586740*
1,1,0.350000,0.220980,-0.586740*
1,1,0.350000,0.220980,0.586740*
%
%ADD57R,1.002998X1.152998*%
%ADD58R,1.730997X0.852998*%
%ADD64R,1.202998X1.202998*%
%ADD68C,1.202998*%
%ADD72R,1.102998X0.852998*%
%ADD73R,0.802998X0.952998*%
%ADD75R,1.002998X1.142998*%
%ADD79R,1.152998X1.002998*%
%ADD82R,1.142998X1.002998*%
%ADD88R,0.852998X1.102998*%
%ADD89R,1.142998X1.012998*%
%ADD96R,0.952998X0.802998*%
G04~CAMADD=98~4~0.0~0.0~2442.1~1749.2~0.0~437.3~0~0.0~0.0~0.0~0.0~0~0.0~0.0~0.0~0.0~0~0.0~0.0~0.0~90.0~1750.0~2442.0*
%ADD98D98*%
%ADD99C,1.752996*%
%ADD100C,0.777998*%
%ADD101C,1.027998*%
%ADD102R,0.902998X0.902998*%
%ADD103C,3.052994*%
%ADD104C,2.602995*%
%ADD105R,1.352997X1.352997*%
%ADD106C,1.352997*%
%ADD107C,0.727999*%
%ADD108C,0.902998*%
%ADD109C,3.402993*%
%ADD110R,1.352997X1.352997*%
%ADD111R,1.402997X1.402997*%
%ADD112C,1.402997*%
%ADD113C,1.302997*%
%ADD114R,1.302997X1.302997*%
%ADD171R,1.802996X1.952996*%
%ADD172R,1.452997X2.502995*%
%ADD173R,1.952996X1.802996*%
%ADD174R,0.902998X0.702999*%
%ADD175R,0.702999X0.902998*%
%ADD176R,0.602999X0.702999*%
%ADD177R,0.702999X0.602999*%
%ADD178R,0.752998X0.902998*%
%ADD179R,0.752998X1.602997*%
%ADD180R,1.202998X2.952994*%
G04~CAMADD=181~8~0.0~0.0~611.4~308.3~68.5~0.0~15~0.0~0.0~0.0~0.0~0~0.0~0.0~0.0~0.0~0~0.0~0.0~0.0~0.0~611.4~308.3*
%ADD181D181*%
%ADD182R,0.702999X0.677999*%
G04~CAMADD=183~8~0.0~0.0~599.6~312.2~68.9~0.0~15~0.0~0.0~0.0~0.0~0~0.0~0.0~0.0~0.0~0~0.0~0.0~0.0~90.0~312.0~600.0*
%ADD183D183*%
%ADD184R,0.802998X1.252997*%
%ADD185R,1.677997X0.652999*%
%ADD186R,1.002998X1.702997*%
%ADD187R,1.602997X2.102996*%
%ADD188R,2.002996X1.602997*%
%ADD189R,0.913998X0.507999*%
%ADD190R,0.507999X0.913998*%
%ADD191R,0.677999X0.452999*%
%ADD192R,0.452999X0.677999*%
%ADD193R,0.732999X0.482999*%
%ADD194R,0.822998X0.802998*%
%ADD195R,0.827998X0.602999*%
%ADD196R,1.202998X0.752998*%
%ADD197R,1.272997X2.022996*%
%ADD198R,1.072998X1.222998*%
%ADD199R,1.222998X1.072998*%
%ADD200C,1.472997*%
%LNshm_pcb-1*%
%LPD*%
G36*
X0066737Y00378D02*
X006675Y0037797D01*
X0066763Y0037793*
X0066775Y0037787*
X0066782Y0037782*
X0066786Y003778*
X0066796Y0037771*
X0066805Y0037761*
X0066807Y0037757*
X0066812Y003775*
X0066818Y0037738*
X0066822Y0037725*
X0066825Y0037712*
X0066826Y0037699*
Y0037379*
X0066825Y0037366*
X0066822Y0037353*
Y003735*
X0066832Y0037351*
X0067174*
X0067187Y003735*
X00672Y0037347*
X0067213Y0037343*
X0067225Y0037338*
X0067236Y003733*
X0067246Y0037321*
X0067255Y0037311*
X0067262Y00373*
X0067268Y0037288*
X0067272Y0037275*
X0067275Y0037262*
X0067276Y0037249*
Y0036944*
X0067275Y0036931*
X0067272Y0036918*
X0067268Y0036905*
X0067262Y0036893*
X0067255Y0036882*
X0067246Y0036872*
X0067236Y0036863*
X0067225Y0036856*
X0067213Y003685*
X00672Y0036846*
X0067187Y0036843*
X0067174Y0036842*
X0066675*
X0066661Y0036843*
X0066648Y0036846*
X0066635Y003685*
X0066623Y0036856*
X0066612Y0036863*
X0066602Y0036872*
X0066593Y0036882*
X0066586Y0036893*
X006658Y0036905*
X0066576Y0036918*
X0066573Y0036931*
X0066572Y0036944*
Y0037091*
X0066573Y0037102*
X006657Y0037101*
X0066557Y0037098*
X0066544Y0037097*
X0066424*
X0066411Y0037098*
X0066398Y0037101*
X0066385Y0037105*
X0066373Y0037111*
X0066362Y0037118*
X0066352Y0037127*
X0066343Y0037137*
X0066336Y0037148*
X006633Y003716*
X0066326Y0037173*
X0066323Y0037186*
X0066322Y0037199*
Y0037699*
X0066323Y0037712*
X0066326Y0037725*
X006633Y0037738*
X0066336Y003775*
X0066343Y0037761*
X0066352Y0037771*
X0066362Y003778*
X0066373Y0037787*
X0066385Y0037793*
X0066398Y0037797*
X0066411Y00378*
X0066424Y0037801*
X0066724*
X0066737Y00378*
G37*
G36*
X0070437D02*
X007045Y0037797D01*
X0070463Y0037793*
X0070475Y0037787*
X0070486Y003778*
X0070496Y0037771*
X0070505Y0037761*
X0070512Y003775*
X0070518Y0037738*
X0070522Y0037725*
X0070525Y0037712*
X0070526Y0037699*
Y0037199*
X0070525Y0037186*
X0070522Y0037173*
X0070518Y003716*
X0070512Y0037148*
X0070505Y0037137*
X0070496Y0037127*
X0070486Y0037118*
X0070475Y0037111*
X0070463Y0037105*
X007045Y0037101*
X0070437Y0037098*
X0070424Y0037097*
X0070277*
X0070272Y0037098*
Y0037095*
X0070275Y0037082*
X0070276Y0037069*
Y0036949*
X0070275Y0036936*
X0070272Y0036923*
X0070268Y003691*
X0070262Y0036898*
X0070255Y0036887*
X0070246Y0036877*
X0070236Y0036868*
X0070225Y0036861*
X0070213Y0036855*
X00702Y0036851*
X0070187Y0036848*
X0070174Y0036847*
X0069674*
X0069661Y0036848*
X0069648Y0036851*
X0069635Y0036855*
X0069623Y0036861*
X0069612Y0036868*
X0069602Y0036877*
X0069593Y0036887*
X0069586Y0036898*
X006958Y003691*
X0069576Y0036923*
X0069573Y0036936*
X0069572Y0036949*
Y0037249*
X0069573Y0037262*
X0069576Y0037275*
X006958Y0037288*
X0069586Y00373*
X0069591Y0037307*
X0069593Y0037311*
X0069602Y0037321*
X0069612Y003733*
X0069616Y0037332*
X0069623Y0037338*
X0069635Y0037343*
X0069648Y0037347*
X0069661Y003735*
X0069674Y0037351*
X0069994*
X0070007Y003735*
X007002Y0037347*
X0070022*
Y0037352*
Y0037699*
X0070023Y0037712*
X0070026Y0037725*
X007003Y0037738*
X0070036Y003775*
X0070043Y0037761*
X0070052Y0037771*
X0070062Y003778*
X0070073Y0037787*
X0070085Y0037793*
X0070098Y0037797*
X0070111Y00378*
X0070124Y0037801*
X0070424*
X0070437Y00378*
G37*
G36*
X0067187Y004105D02*
X00672Y0041047D01*
X0067213Y0041043*
X0067225Y0041037*
X0067236Y004103*
X0067246Y0041021*
X0067255Y0041011*
X0067262Y0041*
X0067268Y0040988*
X0067272Y0040975*
X0067275Y0040962*
X0067276Y0040949*
Y0040649*
X0067275Y0040636*
X0067272Y0040623*
X0067268Y004061*
X0067262Y0040598*
X0067257Y0040591*
X0067255Y0040587*
X0067246Y0040577*
X0067236Y0040568*
X0067232Y0040566*
X0067225Y0040561*
X0067213Y0040555*
X00672Y0040551*
X0067187Y0040548*
X0067174Y0040547*
X0066854*
X0066841Y0040548*
X0066828Y0040551*
X0066825Y0040552*
X0066826Y0040539*
Y0040199*
X0066825Y0040186*
X0066822Y0040173*
X0066818Y004016*
X0066812Y0040148*
X0066805Y0040137*
X0066796Y0040127*
X0066786Y0040118*
X0066775Y0040111*
X0066763Y0040105*
X006675Y0040101*
X0066737Y0040098*
X0066724Y0040097*
X0066424*
X0066411Y0040098*
X0066398Y0040101*
X0066385Y0040105*
X0066373Y0040111*
X0066362Y0040118*
X0066352Y0040127*
X0066343Y0040137*
X0066336Y0040148*
X006633Y004016*
X0066326Y0040173*
X0066323Y0040186*
X0066322Y0040199*
Y0040699*
X0066323Y0040712*
X0066326Y0040725*
X006633Y0040738*
X0066336Y004075*
X0066343Y0040761*
X0066352Y0040771*
X0066362Y004078*
X0066373Y0040787*
X0066385Y0040793*
X0066398Y0040797*
X0066411Y00408*
X0066424Y0040801*
X0066564*
X0066577Y00408*
X0066576Y0040803*
X0066573Y0040816*
X0066572Y0040829*
Y0040949*
X0066573Y0040962*
X0066576Y0040975*
X006658Y0040988*
X0066586Y0041*
X0066593Y0041011*
X0066602Y0041021*
X0066612Y004103*
X0066623Y0041037*
X0066635Y0041043*
X0066648Y0041047*
X0066661Y004105*
X0066675Y0041051*
X0067174*
X0067187Y004105*
G37*
G36*
X0070187D02*
X00702Y0041047D01*
X0070213Y0041043*
X0070225Y0041037*
X0070236Y004103*
X0070246Y0041021*
X0070255Y0041011*
X0070262Y0041*
X0070268Y0040988*
X0070272Y0040975*
X0070275Y0040962*
X0070276Y0040949*
Y0040809*
X0070275Y0040796*
X0070278Y0040797*
X0070291Y00408*
X0070304Y0040801*
X0070424*
X0070437Y00408*
X007045Y0040797*
X0070463Y0040793*
X0070475Y0040787*
X0070486Y004078*
X0070496Y0040771*
X0070505Y0040761*
X0070512Y004075*
X0070518Y0040738*
X0070522Y0040725*
X0070525Y0040712*
X0070526Y0040699*
Y0040199*
X0070525Y0040186*
X0070522Y0040173*
X0070518Y004016*
X0070512Y0040148*
X0070505Y0040137*
X0070496Y0040127*
X0070486Y0040118*
X0070475Y0040111*
X0070463Y0040105*
X007045Y0040101*
X0070437Y0040098*
X0070424Y0040097*
X0070124*
X0070111Y0040098*
X0070098Y0040101*
X0070085Y0040105*
X0070073Y0040111*
X0070066Y0040116*
X0070062Y0040118*
X0070052Y0040127*
X0070043Y0040137*
X0070041Y0040141*
X0070036Y0040148*
X007003Y004016*
X0070026Y0040173*
X0070023Y0040186*
X0070022Y0040199*
Y0040519*
X0070023Y0040532*
X0070026Y0040545*
X0070027Y0040548*
X0070014Y0040547*
X0069674*
X0069661Y0040548*
X0069648Y0040551*
X0069635Y0040555*
X0069623Y0040561*
X0069612Y0040568*
X0069602Y0040577*
X0069593Y0040587*
X0069586Y0040598*
X006958Y004061*
X0069576Y0040623*
X0069573Y0040636*
X0069572Y0040649*
Y0040949*
X0069573Y0040962*
X0069576Y0040975*
X006958Y0040988*
X0069586Y0041*
X0069593Y0041011*
X0069602Y0041021*
X0069612Y004103*
X0069623Y0041037*
X0069635Y0041043*
X0069648Y0041047*
X0069661Y004105*
X0069674Y0041051*
X0070174*
X0070187Y004105*
G37*
G54D57*
X0073099Y0039799D03*
X0074699D03*
X0073149Y0038299D03*
X0074749D03*
X0061999Y0039924D03*
X0060399D03*
X0061999Y0038374D03*
X0060399D03*
X0066399Y0034899D03*
X0067999D03*
X0020072Y0028158D03*
X0021672D03*
X0026824Y0033624D03*
X0028424D03*
X0067899Y0009949D03*
X0066299D03*
X0065595Y0042338D03*
X0067195D03*
X007348Y0030901D03*
X007188D03*
X0081299Y0058899D03*
X0079699D03*
G54D58*
X007701Y0058694D03*
Y0059964D03*
Y0061234D03*
Y0062504D03*
X0071588D03*
Y0061234D03*
Y0059964D03*
Y0058694D03*
G54D64*
X0047371Y0053848D03*
Y0052705D03*
Y0051638D03*
Y0050571D03*
X0049816Y00537D03*
Y0052531D03*
Y0051363D03*
Y005022D03*
Y0049052D03*
X003635Y0048329D03*
X0037443D03*
X0038611D03*
X0039729D03*
X003859Y0052738D03*
X0039783D03*
X0040977D03*
X0024179Y0027249D03*
X0023939Y0025659D03*
X0023889Y0023949D03*
X0040909Y0048329D03*
X0047371Y0049389D03*
X0042159Y0052738D03*
X0083699Y0027619D03*
Y0028609D03*
Y0029599D03*
Y0030589D03*
X0086739Y0026199D03*
X0087719D03*
X0058769Y0013189D03*
X0060429Y0013369D03*
X0063399Y0013469D03*
G54D68*
X006014Y0032902D03*
X0059365D03*
X0058565Y0032877D03*
X0070261Y0045121D03*
X0068362Y0045099D03*
X0068989D03*
X006966Y0045134D03*
X0064049Y0033299D03*
X0057849Y0032874D03*
X0068852Y0043018D03*
X0064674Y0033599D03*
X0065499Y0033649D03*
X0068482Y0033678D03*
X0070452Y0031738D03*
X0066422Y0029848D03*
X0065189Y0027759D03*
G54D72*
X0095724Y0003649D03*
Y0002199D03*
X0083574Y0006824D03*
Y0005374D03*
X0071924Y0022949D03*
Y0021499D03*
X0058324Y0037799D03*
Y0039249D03*
X0059624Y0035699D03*
Y0034249D03*
X0003583Y002991D03*
Y002846D03*
X0041748Y0018833D03*
Y0017383D03*
X0043148D03*
Y0018833D03*
X0035048Y0017383D03*
Y0018833D03*
X0040448Y0017383D03*
Y0018833D03*
X0037748D03*
Y0017383D03*
X0036348Y0018833D03*
Y0017383D03*
G54D73*
X0088012Y0031427D03*
Y0030327D03*
X0085492Y0030331D03*
Y0029231D03*
G54D75*
X0073629Y0065199D03*
X0074969D03*
X0005269Y0013024D03*
X0003929D03*
X0005269Y0014749D03*
X0003929D03*
Y0016249D03*
X0005269D03*
X0027084Y0035274D03*
X0028424D03*
X0021439Y0023177D03*
X0020099D03*
X0074619Y0036299D03*
X0073279D03*
G54D79*
X0072849Y0041424D03*
Y0043024D03*
X0074449Y0041424D03*
Y0043024D03*
X0061124Y0034299D03*
Y0035899D03*
G54D82*
X0009431Y0033993D03*
Y0035333D03*
X0073253Y0028386D03*
Y0027046D03*
X0071884Y0028356D03*
Y0027016D03*
X0003598Y0023484D03*
Y0024824D03*
X0039048Y0018778D03*
Y0017438D03*
X0062499Y0017394D03*
Y0016054D03*
X0061199Y0017369D03*
Y0016029D03*
X0059599Y0017369D03*
Y0016029D03*
X0067949Y0012579D03*
Y0013919D03*
G54D88*
X0081324Y0021324D03*
X0082774D03*
X0098674Y0020599D03*
X0100124D03*
X0020054Y002996D03*
X0021504D03*
X0019124Y0038174D03*
X0020574D03*
X0014199Y0035299D03*
X0015649D03*
X0066299Y0008449D03*
X0067749D03*
G54D89*
X0007811Y0033944D03*
Y0035284D03*
G54D96*
X0021171Y0024603D03*
X0020071D03*
X0020158Y0026865D03*
X0021257D03*
X0020071Y0025759D03*
X0021171D03*
G54D98*
X0077424Y0046024D03*
G54D99*
X0082429Y0003074D03*
X0079889D03*
X0077349D03*
X0074809D03*
X0072269D03*
X0069729D03*
X0067189D03*
X0064649D03*
X0062109D03*
X0059569D03*
X0057029D03*
X0054489D03*
X0051949D03*
X0049409D03*
X0096439Y0072124D03*
X0093899D03*
X0091359D03*
X0088819D03*
X0086279D03*
X0083739D03*
X0081199D03*
X0078659D03*
X0076119D03*
X0073579D03*
X0071039D03*
X0068499D03*
X0065959D03*
X0063419D03*
G54D100*
X0087499Y0017924D03*
G54D101*
X0067499Y0017924D03*
G54D102*
X0094699Y0068799D03*
Y0067799D03*
X0100549Y0033839D03*
Y0034609D03*
Y0035419D03*
X0101259D03*
Y0034609D03*
Y0033839D03*
X0096033Y006656D03*
X0095322D03*
X0094585D03*
X0093823D03*
X0092985D03*
G54D103*
X0012274Y0003599D03*
Y0008749D03*
X0007124D03*
Y0003599D03*
G54D104*
X0009699Y0006174D03*
G54D105*
X0100099Y0011619D03*
G54D106*
X0098829Y0011619D03*
X0100099Y0012889D03*
X0098829D03*
X0100099Y0014159D03*
X0098829D03*
X0100099Y0015429D03*
X0098829D03*
X0100099Y0016699D03*
X0098829D03*
X0049709Y0069999D03*
X0048439Y0071269D03*
Y0069999D03*
X0047169Y0071269D03*
Y0069999D03*
X0045899Y0071269D03*
Y0069999D03*
X0044629Y0071269D03*
Y0069999D03*
G54D107*
X0088599Y0005599D03*
X0092599D03*
G54D108*
X0097099Y0056124D03*
Y0060274D03*
G54D109*
X0001924Y0072324D03*
X0002199Y0001799D03*
X0100949D03*
X0100999Y0072399D03*
G54D110*
X0011874Y0014074D03*
X0009525D03*
X0049709Y0071269D03*
G54D111*
X0100574Y0037849D03*
G54D112*
X0100574Y0039849D03*
G54D113*
X0099929Y0032669D03*
X0101199D03*
X0099929Y0031399D03*
X0101199D03*
X0099929Y0030129D03*
X0101199D03*
X0099929Y0028859D03*
G54D114*
X0101199Y0028859D03*
G54D171*
X0078849Y0021399D03*
X0076349D03*
X0093449Y0011799D03*
X0095949D03*
X0093449Y0013899D03*
X0095949D03*
X0093449Y0015899D03*
X0095949D03*
X0093449Y0017899D03*
X0095949D03*
X0093449Y0019899D03*
X0095949D03*
G54D172*
X0100349Y0008749D03*
X0096899D03*
X0063649Y0066099D03*
X0060199D03*
X0063649Y0062599D03*
X0060199D03*
G54D173*
X0069998Y001296D03*
Y001546D03*
G54D174*
X0066374Y0039449D03*
X0070474D03*
Y0038449D03*
X0066374D03*
G54D175*
X0068924Y0036899D03*
X0067924D03*
G54D176*
X0066224Y0037449D03*
Y0040449D03*
X0070624D03*
Y0037449D03*
G54D177*
X0066924Y0036749D03*
Y0041149D03*
X0069924D03*
Y0036749D03*
G54D178*
X0067924Y0040999D03*
G54D179*
X0068924Y0040649D03*
G54D180*
X0087599Y0007724D03*
Y0003474D03*
X0089599Y0007724D03*
Y0003474D03*
X0091599Y0007724D03*
Y0003474D03*
X0093599Y0007724D03*
Y0003474D03*
G54D181*
X0029159Y0029399D03*
Y0030349D03*
Y0031299D03*
X0026789D03*
Y0030349D03*
Y0029399D03*
G54D182*
X0081199Y0060486D03*
Y0061512D03*
G54D183*
X005408Y0049065D03*
X005218D03*
X005313Y0051095D03*
X0057325D03*
X0056375Y0049065D03*
X0058275D03*
X006178Y0051095D03*
X006083Y0049065D03*
X006273D03*
X0065661Y0051095D03*
X0064711Y0049065D03*
X0066611D03*
G54D184*
X0084299Y0066299D03*
X0083349Y0064099D03*
X0085249D03*
G54D185*
X0016919Y0024921D03*
Y0025571D03*
Y0026221D03*
Y0026871D03*
Y0027521D03*
Y0028171D03*
Y0028821D03*
X0011043D03*
Y0028171D03*
Y0027521D03*
Y0026871D03*
Y0026221D03*
Y0025571D03*
Y0024921D03*
G54D186*
X0039038Y0011508D03*
X0037938Y0011108D03*
X0036838Y0011508D03*
X0035738Y0011708D03*
X0034638Y0011508D03*
X0033538Y0011708D03*
X0032438Y0011508D03*
X0031338D03*
G54D187*
X0043698Y0015358D03*
X0030548Y0014358D03*
G54D188*
X0037848Y0001208D03*
X0032148D03*
G54D189*
X0063454Y0009284D03*
Y0009919D03*
Y0010579D03*
Y0011214D03*
X0059594D03*
Y0010579D03*
Y0009919D03*
Y0009284D03*
G54D190*
X0062489Y0012179D03*
X0061854D03*
X0061194D03*
X0060559D03*
Y0008319D03*
X0061194D03*
X0061854D03*
X0062489D03*
G54D191*
X0069837Y0028974D03*
Y0028474D03*
Y0027974D03*
Y0027474D03*
X0067511D03*
Y0027974D03*
Y0028474D03*
Y0028974D03*
G54D192*
X0069174Y0027311D03*
X0068674D03*
X0068174D03*
Y0029137D03*
X0068674D03*
X0069174D03*
G54D193*
X0088654Y0027224D03*
Y0027624D03*
Y0028024D03*
X0087974D03*
Y0027624D03*
Y0027224D03*
G54D194*
X0090574Y0027589D03*
Y0028509D03*
X0085464Y0027163D03*
Y0026243D03*
G54D195*
X0032736Y0028324D03*
X0031912D03*
X0032736Y0029424D03*
X0031912D03*
X0032761Y0030599D03*
X0031937D03*
X0032748Y0026999D03*
X0031924D03*
G54D196*
X0020149Y0035999D03*
Y0034699D03*
X0018249Y0035349D03*
X0014699Y0037499D03*
Y0038799D03*
X0016599Y0038149D03*
G54D197*
X0004064Y0018474D03*
X0006824D03*
G54D198*
X0073269Y0034799D03*
X0074629D03*
G54D199*
X0066374Y0012569D03*
Y0013929D03*
G54D200*
X0020999Y0001099D03*
X0022699Y0003199D03*
X0024199Y0001099D03*
X0024599Y0002899D03*
X0022499Y0001099D03*
X0023599Y0013499D03*
X0020699Y0002599D03*
M02*