%FSTAX43Y43*%
%MOMM*%
%SFA1B1*%

%IPPOS*%
%AMD122*
4,1,8,-2.120900,1.940560,-2.120900,-1.940560,-1.059180,-2.999740,1.059180,-2.999740,2.120900,-1.940560,2.120900,1.940560,1.059180,2.999740,-1.059180,2.999740,-2.120900,1.940560,0.0*
%
%AMD152*
4,1,8,0.601980,0.289560,-0.601980,0.289560,-0.675640,0.218440,-0.675640,-0.218440,-0.601980,-0.289560,0.601980,-0.289560,0.675640,-0.218440,0.675640,0.218440,0.601980,0.289560,0.0*
1,1,0.144000,0.601980,0.218440*
1,1,0.144000,-0.601980,0.218440*
1,1,0.144000,-0.601980,-0.218440*
1,1,0.144000,0.601980,-0.218440*
%
%AMD154*
4,1,8,-0.294640,0.586740,-0.294640,-0.586740,-0.220980,-0.660400,0.220980,-0.660400,0.294640,-0.586740,0.294640,0.586740,0.220980,0.660400,-0.220980,0.660400,-0.294640,0.586740,0.0*
1,1,0.148000,-0.220980,0.586740*
1,1,0.148000,-0.220980,-0.586740*
1,1,0.148000,0.220980,-0.586740*
1,1,0.148000,0.220980,0.586740*
%
%ADD18R,0.799998X0.949998*%
%ADD19R,1.527997X0.649999*%
%ADD25R,0.999998X0.999998*%
%ADD27C,0.999998*%
%ADD31R,0.899998X0.649999*%
%ADD32R,0.599999X0.749999*%
%ADD34R,0.799998X0.939998*%
%ADD38R,0.949998X0.799998*%
%ADD41R,0.939998X0.799998*%
%ADD47R,0.649999X0.899998*%
%ADD48R,0.939998X0.809998*%
%ADD55R,0.749999X0.599999*%
G04~CAMADD=122~4~0.0~0.0~2362.2~1669.3~0.0~417.3~0~0.0~0.0~0.0~0.0~0~0.0~0.0~0.0~0.0~0~0.0~0.0~0.0~90.0~1670.0~2362.0*
%ADD122D122*%
%ADD123C,1.549997*%
%ADD124C,0.574999*%
%ADD125C,0.824998*%
%ADD126R,0.699999X0.699999*%
%ADD127C,2.849994*%
%ADD128C,2.399995*%
%ADD129R,1.149998X1.149998*%
%ADD130C,1.149998*%
%ADD131C,0.524999*%
%ADD132C,0.699999*%
%ADD133C,3.199994*%
%ADD134R,1.149998X1.149998*%
%ADD135R,1.199998X1.199998*%
%ADD136C,1.199998*%
%ADD137C,1.099998*%
%ADD138R,1.099998X1.099998*%
%ADD142R,1.599997X1.749997*%
%ADD143R,1.249998X2.299995*%
%ADD144R,1.749997X1.599997*%
%ADD145R,0.699999X0.499999*%
%ADD146R,0.499999X0.699999*%
%ADD147R,0.399999X0.499999*%
%ADD148R,0.499999X0.399999*%
%ADD149R,0.549999X0.699999*%
%ADD150R,0.549999X1.399997*%
%ADD151R,0.999998X2.749995*%
G04~CAMADD=152~8~0.0~0.0~531.5~228.3~28.3~0.0~15~0.0~0.0~0.0~0.0~0~0.0~0.0~0.0~0.0~0~0.0~0.0~0.0~0.0~531.5~228.3*
%ADD152D152*%
%ADD153R,0.499999X0.474999*%
G04~CAMADD=154~8~0.0~0.0~519.7~232.3~29.1~0.0~15~0.0~0.0~0.0~0.0~0~0.0~0.0~0.0~0.0~0~0.0~0.0~0.0~90.0~233.0~520.0*
%ADD154D154*%
%ADD155R,0.599999X1.049998*%
%ADD156R,1.474997X0.449999*%
%ADD157R,0.799998X1.499997*%
%ADD158R,1.399997X1.899996*%
%ADD159R,1.799996X1.399997*%
%ADD160R,0.710999X0.304999*%
%ADD161R,0.304999X0.710999*%
%ADD162R,0.474999X0.250000*%
%ADD163R,0.250000X0.474999*%
%ADD164R,0.529999X0.279999*%
%ADD165R,0.619999X0.599999*%
%ADD166R,0.624999X0.399999*%
%ADD167R,0.999998X0.549999*%
%ADD168R,1.069998X1.819996*%
%ADD169R,0.869998X1.019998*%
%ADD170R,1.019998X0.869998*%
%LNshm_pcb-1*%
%LPD*%
G54D18*
X0073099Y0039799D03*
X0074699D03*
X0073149Y0038299D03*
X0074749D03*
X0061999Y0039924D03*
X0060399D03*
X0061999Y0038374D03*
X0060399D03*
X0066399Y0034899D03*
X0067999D03*
X0020072Y0028158D03*
X0021672D03*
X0026824Y0033624D03*
X0028424D03*
X0067899Y0009949D03*
X0066299D03*
X0065595Y0042338D03*
X0067195D03*
X007348Y0030901D03*
X007188D03*
X0081299Y0058899D03*
X0079699D03*
G54D19*
X007701Y0058694D03*
Y0059964D03*
Y0061234D03*
Y0062504D03*
X0071588D03*
Y0061234D03*
Y0059964D03*
Y0058694D03*
G54D25*
X0047371Y0053848D03*
Y0052705D03*
Y0051638D03*
Y0050571D03*
X0049816Y00537D03*
Y0052531D03*
Y0051363D03*
Y005022D03*
Y0049052D03*
X003635Y0048329D03*
X0037443D03*
X0038611D03*
X0039729D03*
X003859Y0052738D03*
X0039783D03*
X0040977D03*
X0024179Y0027249D03*
X0023939Y0025659D03*
X0023889Y0023949D03*
X0040909Y0048329D03*
X0047371Y0049389D03*
X0042159Y0052738D03*
X0083699Y0027619D03*
Y0028609D03*
Y0029599D03*
Y0030589D03*
X0086739Y0026199D03*
X0087719D03*
X0058769Y0013189D03*
X0060429Y0013369D03*
X0063399Y0013469D03*
G54D27*
X006014Y0032902D03*
X0059365D03*
X0058565Y0032877D03*
X0070261Y0045121D03*
X0068362Y0045099D03*
X0068989D03*
X006966Y0045134D03*
X0064049Y0033299D03*
X0057849Y0032874D03*
X0068852Y0043018D03*
X0064674Y0033599D03*
X0065499Y0033649D03*
X0068482Y0033678D03*
X0070452Y0031738D03*
X0066422Y0029848D03*
X0065189Y0027759D03*
G54D31*
X0095724Y0003649D03*
Y0002199D03*
X0083574Y0006824D03*
Y0005374D03*
X0071924Y0022949D03*
Y0021499D03*
X0058324Y0037799D03*
Y0039249D03*
X0059624Y0035699D03*
Y0034249D03*
X0003583Y002991D03*
Y002846D03*
X0041748Y0018833D03*
Y0017383D03*
X0043148D03*
Y0018833D03*
X0035048Y0017383D03*
Y0018833D03*
X0040448Y0017383D03*
Y0018833D03*
X0037748D03*
Y0017383D03*
X0036348Y0018833D03*
Y0017383D03*
G54D32*
X0088012Y0031427D03*
Y0030327D03*
X0085492Y0030331D03*
Y0029231D03*
G54D34*
X0073629Y0065199D03*
X0074969D03*
X0005269Y0013024D03*
X0003929D03*
X0005269Y0014749D03*
X0003929D03*
Y0016249D03*
X0005269D03*
X0027084Y0035274D03*
X0028424D03*
X0021439Y0023177D03*
X0020099D03*
X0074619Y0036299D03*
X0073279D03*
G54D38*
X0072849Y0041424D03*
Y0043024D03*
X0074449Y0041424D03*
Y0043024D03*
X0061124Y0034299D03*
Y0035899D03*
G54D41*
X0009431Y0033993D03*
Y0035333D03*
X0073253Y0028386D03*
Y0027046D03*
X0071884Y0028356D03*
Y0027016D03*
X0003598Y0023484D03*
Y0024824D03*
X0039048Y0018778D03*
Y0017438D03*
X0062499Y0017394D03*
Y0016054D03*
X0061199Y0017369D03*
Y0016029D03*
X0059599Y0017369D03*
Y0016029D03*
X0067949Y0012579D03*
Y0013919D03*
G54D47*
X0081324Y0021324D03*
X0082774D03*
X0098674Y0020599D03*
X0100124D03*
X0020054Y002996D03*
X0021504D03*
X0019124Y0038174D03*
X0020574D03*
X0014199Y0035299D03*
X0015649D03*
X0066299Y0008449D03*
X0067749D03*
G54D48*
X0007811Y0033944D03*
Y0035284D03*
G54D55*
X0021171Y0024603D03*
X0020071D03*
X0020158Y0026865D03*
X0021257D03*
X0020071Y0025759D03*
X0021171D03*
G54D122*
X0077424Y0046024D03*
G54D123*
X0082429Y0003074D03*
X0079889D03*
X0077349D03*
X0074809D03*
X0072269D03*
X0069729D03*
X0067189D03*
X0064649D03*
X0062109D03*
X0059569D03*
X0057029D03*
X0054489D03*
X0051949D03*
X0049409D03*
X0096439Y0072124D03*
X0093899D03*
X0091359D03*
X0088819D03*
X0086279D03*
X0083739D03*
X0081199D03*
X0078659D03*
X0076119D03*
X0073579D03*
X0071039D03*
X0068499D03*
X0065959D03*
X0063419D03*
G54D124*
X0087499Y0017924D03*
G54D125*
X0067499Y0017924D03*
G54D126*
X0094699Y0068799D03*
Y0067799D03*
X0100549Y0033839D03*
Y0034609D03*
Y0035419D03*
X0101259D03*
Y0034609D03*
Y0033839D03*
X0096033Y006656D03*
X0095322D03*
X0094585D03*
X0093823D03*
X0092985D03*
G54D127*
X0012274Y0003599D03*
Y0008749D03*
X0007124D03*
Y0003599D03*
G54D128*
X0009699Y0006174D03*
G54D129*
X0100099Y0011619D03*
G54D130*
X0098829Y0011619D03*
X0100099Y0012889D03*
X0098829D03*
X0100099Y0014159D03*
X0098829D03*
X0100099Y0015429D03*
X0098829D03*
X0100099Y0016699D03*
X0098829D03*
X0049709Y0069999D03*
X0048439Y0071269D03*
Y0069999D03*
X0047169Y0071269D03*
Y0069999D03*
X0045899Y0071269D03*
Y0069999D03*
X0044629Y0071269D03*
Y0069999D03*
G54D131*
X0088599Y0005599D03*
X0092599D03*
G54D132*
X0097099Y0056124D03*
Y0060274D03*
G54D133*
X0001924Y0072324D03*
X0002199Y0001799D03*
X0100949D03*
X0100999Y0072399D03*
G54D134*
X0011874Y0014074D03*
X0009525D03*
X0049709Y0071269D03*
G54D135*
X0100574Y0037849D03*
G54D136*
X0100574Y0039849D03*
G54D137*
X0099929Y0032669D03*
X0101199D03*
X0099929Y0031399D03*
X0101199D03*
X0099929Y0030129D03*
X0101199D03*
X0099929Y0028859D03*
G54D138*
X0101199Y0028859D03*
G54D142*
X0078849Y0021399D03*
X0076349D03*
X0093449Y0011799D03*
X0095949D03*
X0093449Y0013899D03*
X0095949D03*
X0093449Y0015899D03*
X0095949D03*
X0093449Y0017899D03*
X0095949D03*
X0093449Y0019899D03*
X0095949D03*
G54D143*
X0100349Y0008749D03*
X0096899D03*
X0063649Y0066099D03*
X0060199D03*
X0063649Y0062599D03*
X0060199D03*
G54D144*
X0069998Y001296D03*
Y001546D03*
G54D145*
X0066374Y0039449D03*
X0070474D03*
Y0038449D03*
X0066374D03*
G54D146*
X0068924Y0036899D03*
X0067924D03*
G54D147*
X0066224Y0037449D03*
Y0040449D03*
X0070624D03*
Y0037449D03*
G54D148*
X0066924Y0036749D03*
Y0041149D03*
X0069924D03*
Y0036749D03*
G54D149*
X0067924Y0040999D03*
G54D150*
X0068924Y0040649D03*
G54D151*
X0087599Y0007724D03*
Y0003474D03*
X0089599Y0007724D03*
Y0003474D03*
X0091599Y0007724D03*
Y0003474D03*
X0093599Y0007724D03*
Y0003474D03*
G54D152*
X0029159Y0029399D03*
Y0030349D03*
Y0031299D03*
X0026789D03*
Y0030349D03*
Y0029399D03*
G54D153*
X0081199Y0060486D03*
Y0061512D03*
G54D154*
X005408Y0049065D03*
X005218D03*
X005313Y0051095D03*
X0057325D03*
X0056375Y0049065D03*
X0058275D03*
X006178Y0051095D03*
X006083Y0049065D03*
X006273D03*
X0065661Y0051095D03*
X0064711Y0049065D03*
X0066611D03*
G54D155*
X0084299Y0066299D03*
X0083349Y0064099D03*
X0085249D03*
G54D156*
X0016919Y0024921D03*
Y0025571D03*
Y0026221D03*
Y0026871D03*
Y0027521D03*
Y0028171D03*
Y0028821D03*
X0011043D03*
Y0028171D03*
Y0027521D03*
Y0026871D03*
Y0026221D03*
Y0025571D03*
Y0024921D03*
G54D157*
X0039038Y0011508D03*
X0037938Y0011108D03*
X0036838Y0011508D03*
X0035738Y0011708D03*
X0034638Y0011508D03*
X0033538Y0011708D03*
X0032438Y0011508D03*
X0031338D03*
G54D158*
X0043698Y0015358D03*
X0030548Y0014358D03*
G54D159*
X0037848Y0001208D03*
X0032148D03*
G54D160*
X0063454Y0009284D03*
Y0009919D03*
Y0010579D03*
Y0011214D03*
X0059594D03*
Y0010579D03*
Y0009919D03*
Y0009284D03*
G54D161*
X0062489Y0012179D03*
X0061854D03*
X0061194D03*
X0060559D03*
Y0008319D03*
X0061194D03*
X0061854D03*
X0062489D03*
G54D162*
X0069837Y0028974D03*
Y0028474D03*
Y0027974D03*
Y0027474D03*
X0067511D03*
Y0027974D03*
Y0028474D03*
Y0028974D03*
G54D163*
X0069174Y0027311D03*
X0068674D03*
X0068174D03*
Y0029137D03*
X0068674D03*
X0069174D03*
G54D164*
X0088654Y0027224D03*
Y0027624D03*
Y0028024D03*
X0087974D03*
Y0027624D03*
Y0027224D03*
G54D165*
X0090574Y0027589D03*
Y0028509D03*
X0085464Y0027163D03*
Y0026243D03*
G54D166*
X0032736Y0028324D03*
X0031912D03*
X0032736Y0029424D03*
X0031912D03*
X0032761Y0030599D03*
X0031937D03*
X0032748Y0026999D03*
X0031924D03*
G54D167*
X0020149Y0035999D03*
Y0034699D03*
X0018249Y0035349D03*
X0014699Y0037499D03*
Y0038799D03*
X0016599Y0038149D03*
G54D168*
X0004064Y0018474D03*
X0006824D03*
G54D169*
X0073269Y0034799D03*
X0074629D03*
G54D170*
X0066374Y0012569D03*
Y0013929D03*
M02*