%FSTAX43Y43*%
%MOMM*%
%SFA1B1*%

%IPPOS*%
%ADD115C,0.299999*%
%ADD120C,0.999998*%
%ADD123C,1.549997*%
%ADD126R,0.699999X0.699999*%
%ADD129R,1.149998X1.149998*%
%ADD137C,1.099998*%
%ADD138R,1.099998X1.099998*%
%ADD140C,0.599999*%
%ADD141C,0.799998*%
%LNshm_pcb-1*%
%LPD*%
G36*
X0102449Y0033799D02*
Y0026299D01*
X0100699*
Y0028055*
X0101072*
Y0028859*
X0101199*
Y0028986*
X0102003*
Y0029663*
X0101985*
X0101922Y0029773*
X0101948Y0029819*
X0101997Y0030002*
X0101199*
Y0030256*
X0101997*
X0101948Y0030439*
X0101842Y0030623*
X0101701Y0030764*
X0101842Y0030905*
X0101948Y0031089*
X0101997Y0031272*
X0101199*
Y0031526*
X0101997*
X0101948Y0031709*
X0101842Y0031893*
X0101701Y0032034*
X0101842Y0032175*
X0101948Y0032359*
X0101997Y0032542*
X0101199*
Y0032796*
X0101997*
X0101948Y0032979*
X0101872Y0033112*
X0101863Y0033235*
Y0033712*
X0101259*
Y0033966*
X0101863*
Y0034005*
Y0034482*
X0101259*
Y0034736*
X0101863*
Y0034815*
Y0035292*
X0101259*
Y0035419*
X0101132*
Y0036023*
X0100676*
Y0035419*
X0100549*
Y0035292*
X0099945*
Y003484*
Y0034736*
X0100549*
Y0034482*
X0099945*
Y0033799*
X0091949*
Y0060683*
X0092038Y0060772*
X0092099Y0060919*
Y0061079*
X0092038Y0061226*
X0091949Y0061315*
Y0070799*
X0100419*
X0100503Y0070764*
X0100832Y0070699*
X0101166*
X0101495Y0070764*
X0101579Y0070799*
X0102449*
Y0033799*
G37*
G36*
X0091299Y0061079D02*
Y0060919D01*
Y0041699*
X0089099*
Y0068618*
X0089216Y0068667*
X0089516Y0068366*
X0089715Y0068234*
X0089949Y0068187*
X0090183Y0068234*
X0090382Y0068366*
X0090514Y0068565*
X0090561Y0068799*
X0090514Y0069033*
X0090382Y0069232*
X0089691Y0069922*
X0089744Y0070049*
X0091299*
Y0061079*
G37*
G36*
X0086199Y0062531D02*
X0086072Y006246D01*
X0085979Y0062499*
X0085819*
X0085672Y0062438*
X008556Y0062326*
X0085499Y0062179*
Y0062019*
X008556Y0061872*
X0085672Y006176*
X0085819Y0061699*
X0085979*
X0086072Y0061738*
X0086199Y0061667*
Y0058299*
X0082763*
X0082749Y0058319*
Y0058479*
X0082688Y0058626*
X0082576Y0058738*
X0082429Y0058799*
X0082269*
X0082122Y0058738*
X008201Y0058626*
X0081949Y0058479*
Y0058319*
X0081935Y0058299*
X0015199*
Y0056563*
X0015093Y0056493*
X0015079Y0056499*
X0014919*
X0014772Y0056438*
X001466Y0056326*
X0014599Y0056179*
Y0056019*
X001466Y0055872*
X0014772Y005576*
X0014919Y0055699*
X0015079*
X0015093Y0055705*
X0015199Y0055635*
Y0040365*
X001511Y0040276*
X0015049Y0040129*
Y0039969*
X001511Y0039822*
X0015199Y0039733*
Y0033765*
X001516Y0033726*
X0015099Y0033579*
Y0033419*
X001516Y0033272*
X0015199Y0033233*
Y0032744*
X0015072Y0032692*
X0015026Y0032738*
X0014879Y0032799*
X0014719*
X0014572Y0032738*
X001446Y0032626*
X0014399Y0032479*
Y0032319*
X001446Y0032172*
X0014572Y003206*
X0014719Y0031999*
X0014879*
X0015026Y003206*
X0015072Y0032106*
X0015199Y0032054*
Y0024665*
X001516Y0024626*
X0015099Y0024479*
Y0024319*
X001516Y0024172*
X0015199Y0024133*
Y0020365*
X001516Y0020326*
X0015099Y0020179*
Y0020019*
X001516Y0019872*
X0015199Y0019833*
Y0012011*
X0015072Y0011914*
X0014996Y0011934*
X0014802*
X0014615Y0011884*
X0014448Y0011787*
X0014311Y001165*
X0014214Y0011483*
X0014164Y0011296*
Y0011102*
X0014188Y0011012*
X0014112Y0010899*
X0014033Y0010997*
X0014034Y0011002*
Y0011196*
X0013984Y0011383*
X0013887Y001155*
X001375Y0011687*
X0013583Y0011784*
X0013396Y0011834*
X0013202*
X0013015Y0011784*
X0012848Y0011687*
X0012711Y001155*
X0012614Y0011383*
X0012564Y0011196*
Y0011002*
X0012584Y0010926*
X0012487Y0010799*
X0012344*
X001229Y0010892*
X0012287Y0010926*
X0012334Y0011102*
Y0011296*
X0012284Y0011483*
X0012187Y001165*
X001205Y0011787*
X0011883Y0011884*
X0011696Y0011934*
X0011502*
X0011315Y0011884*
X0011148Y0011787*
X0011011Y001165*
X0010914Y0011483*
X0010864Y0011296*
Y0011102*
X0010911Y0010926*
X0010908Y0010892*
X0010854Y0010799*
X0010511*
X0010414Y0010926*
X0010434Y0011002*
Y0011196*
X0010384Y0011383*
X0010287Y001155*
X001015Y0011687*
X0009983Y0011784*
X0009796Y0011834*
X0009602*
X0009415Y0011784*
X0009248Y0011687*
X0009111Y001155*
X0009014Y0011383*
X0008964Y0011196*
Y0011002*
X0008984Y0010926*
X0008887Y0010799*
X0008518*
X0008465Y0010926*
X0008487Y0010948*
X0008584Y0011115*
X0008634Y0011303*
Y0011496*
X0008584Y0011684*
X0008487Y001185*
X000835Y0011987*
X0008183Y0012084*
X0007996Y0012134*
X0007802*
X0007615Y0012084*
X0007448Y0011987*
X0007311Y001185*
X0007214Y0011684*
X0007164Y0011496*
Y0011303*
X0007214Y0011115*
X0007311Y0010948*
X0007333Y0010926*
X000728Y0010799*
X0003638*
X000355Y0010887*
X0003383Y0010984*
X0003196Y0011034*
X0003002*
X0002826Y0010987*
X0002792Y001099*
X0002699Y0011044*
Y0030414*
X0002746*
X0002893Y0030475*
X0003005Y0030587*
X0003066Y0030734*
Y0030893*
X0003005Y003104*
X0002893Y0031153*
X0002746Y0031214*
X0002699*
Y0034798*
X0002708*
X0002855Y0034857*
X0002967Y003497*
X0003028Y0035117*
Y0035276*
X0002967Y0035423*
X0002855Y0035536*
X0002708Y0035596*
X0002699*
Y0065799*
X0065979*
X0066004Y0065672*
X0065922Y0065638*
X006581Y0065526*
X0065749Y0065379*
Y0065219*
X006581Y0065072*
X0065922Y006496*
X0066069Y0064899*
X0066229*
X0066376Y006496*
X0066488Y0065072*
X0066549Y0065219*
Y0065242*
X0066676Y0065327*
X0066744Y0065299*
X0066904*
X0067051Y006536*
X0067163Y0065472*
X0067224Y0065619*
Y0065779*
X0067238Y0065799*
X0086199*
Y0062531*
G37*
G36*
X0085799Y0054146D02*
X0085672Y0054121D01*
X0085644Y005419*
X0085531Y0054302*
X0085384Y0054363*
X0085225*
X0085078Y0054302*
X0084965Y005419*
X0084905Y0054043*
Y0053883*
X0084965Y0053736*
X0085078Y0053624*
X0085225Y0053563*
X0085384*
X0085531Y0053624*
X0085644Y0053736*
X0085672Y0053805*
X0085799Y005378*
Y0031999*
X0087433*
X0087472Y003196*
X0087619Y0031899*
X0087779*
X0087926Y003196*
X0087965Y0031999*
X0099231*
X0099274Y0031872*
X009918Y0031709*
X0099131Y0031526*
X0099929*
Y0031272*
X0099131*
X009918Y0031089*
X0099274Y0030926*
X0099268Y0030908*
X0099192Y0030807*
X0083499*
Y0048299*
X0080718*
X0080665Y0048426*
X0080712Y0048473*
X0080809Y0048641*
X0080859Y0048827*
Y0049022*
X0080809Y0049208*
X0080712Y0049375*
X0080575Y0049512*
X0080408Y0049609*
X0080221Y0049659*
X0080027*
X007984Y0049609*
X0079673Y0049512*
X0079536Y0049375*
X0079439Y0049208*
X0079389Y0049022*
Y0048827*
X0079439Y0048641*
X0079536Y0048473*
X0079583Y0048426*
X007953Y0048299*
X0079359*
X0078608Y004905*
X0078629Y0049209*
X0078675Y0049236*
X0078812Y0049373*
X0078909Y004954*
X0078959Y0049727*
Y0049921*
X0078909Y0050108*
X0078812Y0050275*
X0078675Y0050412*
X0078508Y0050509*
X0078321Y0050559*
X0078127*
X007794Y0050509*
X0077773Y0050412*
X0077636Y0050275*
X0077539Y0050108*
X0077489Y0049921*
Y0049727*
X0077539Y004954*
X0077636Y0049373*
X0077758Y0049251*
X0077747Y0049188*
X0077712Y0049124*
X0077533*
X0077424Y0049135*
X0077315Y0049124*
X0076536*
X0076501Y0049188*
X007649Y0049251*
X0076612Y0049373*
X0076709Y004954*
X0076759Y0049727*
Y0049921*
X0076709Y0050108*
X0076612Y0050275*
X0076475Y0050412*
X0076308Y0050509*
X0076121Y0050559*
X0075927*
X007574Y0050509*
X0075573Y0050412*
X0075436Y0050275*
X0075339Y0050108*
X0075289Y0049921*
Y0049727*
X0075339Y004954*
X0075436Y0049373*
X0075573Y0049236*
X007574Y0049139*
X0075927Y0049089*
X0076099*
X0076136Y0049037*
X0076157Y0048967*
X0075489Y0048299*
X0065199*
Y0031483*
X0065153Y0031437*
X0065092Y003129*
Y0031131*
X0065153Y0030984*
X0065199Y0030938*
Y0029473*
X006516Y0029379*
Y002922*
X0065199Y0029126*
Y0020799*
X0043209*
X0043184Y0020926*
X0043313Y0020979*
X0043469Y0021135*
X0043546Y0021322*
X0042452*
X0042529Y0021135*
X0042685Y0020979*
X0042814Y0020926*
X0042789Y0020799*
X0029053*
Y0020809*
X0028969Y0021013*
X0028813Y0021169*
X0028626Y0021246*
Y0020699*
X0028372*
Y0021246*
X0028185Y0021169*
X002818Y0021163*
X0028053Y0021216*
Y0021309*
X0027969Y0021513*
X0027813Y0021669*
X0027626Y0021746*
Y0021199*
X0027499*
Y0021072*
X0026952*
X0027012Y0020926*
X002695Y0020799*
X0022063*
X0021993Y0020905*
X0021999Y0020919*
Y0021079*
X0021938Y0021226*
X0021826Y0021338*
X0021679Y0021399*
X0021519*
X0021372Y0021338*
X0021326Y0021292*
X0021199Y0021344*
Y0021663*
X0021204Y002167*
X0021326Y0021738*
X0021419Y0021699*
X0021579*
X0021726Y002176*
X0021838Y0021872*
X0021899Y0022019*
Y0022179*
X0021838Y0022326*
X0021726Y0022438*
X0021579Y0022499*
X0021419*
X0021326Y002246*
X0021199Y0022531*
Y0030799*
X0032699*
Y0034185*
X0032805Y0034255*
X0032819Y0034249*
X0032979*
X0033126Y003431*
X0033238Y0034422*
X0033299Y0034569*
Y0034729*
X0033238Y0034876*
X0033126Y0034988*
X0032979Y0035049*
X0032819*
X0032805Y0035043*
X0032699Y0035113*
Y0038299*
X0023253*
Y0038409*
X0023169Y0038613*
X0023013Y0038769*
X0022826Y0038846*
Y0038299*
X0022572*
Y0038846*
X0022385Y0038769*
X0022229Y0038613*
X0022145Y0038409*
Y0038299*
X0017699*
Y0055799*
X0049795*
Y0055614*
X0049879Y005541*
X0050035Y0055254*
X0050222Y0055177*
Y0055724*
X0050476*
Y0055177*
X0050663Y0055254*
X0050819Y005541*
X0050903Y0055614*
Y0055799*
X0059768*
X0059793Y0055672*
X0059785Y0055669*
X0059629Y0055513*
X0059552Y0055326*
X0060646*
X0060569Y0055513*
X0060413Y0055669*
X0060405Y0055672*
X006043Y0055799*
X0072917*
X0072988Y0055672*
X0072949Y0055579*
Y0055419*
X007301Y0055272*
X0073122Y005516*
X0073269Y0055099*
X0073429*
X0073576Y005516*
X0073688Y0055272*
X0073749Y0055419*
Y0055579*
X007371Y0055672*
X0073781Y0055799*
X0085799*
Y0054146*
G37*
G36*
X0088599Y0033199D02*
X009916D01*
X0099233Y0033072*
X009918Y0032979*
X0099131Y0032796*
X0099929*
Y0032542*
X0099131*
X009918Y0032359*
X0099256Y0032226*
Y0032221*
X0099182Y0032107*
X0088167*
X0088096Y0032213*
X0088099Y0032219*
Y0032379*
X0088038Y0032526*
X0087926Y0032639*
X0087779Y0032699*
X0087619*
X0087472Y0032639*
X008736Y0032526*
X0087299Y0032379*
Y0032219*
X0087302Y0032213*
X0087231Y0032107*
X0086199*
Y0033199*
Y0061833*
X0086238Y0061872*
X0086299Y0062019*
Y0062179*
X0086238Y0062326*
X0086199Y0062365*
Y0065799*
X0088599*
Y0033199*
G37*
G36*
X0072199Y0039799D02*
X0080199D01*
Y0038799*
Y0030699*
X0099192*
X0099256Y0030572*
X009918Y0030439*
X0099131Y0030256*
X0099929*
Y0030002*
X0099131*
X009918Y0029819*
X0099286Y0029635*
X0099305Y0029616*
X0099256Y0029499*
X0080199*
Y0021874*
X0080194*
X0080047Y0021813*
X0079935Y0021701*
X0079874Y0021554*
Y0021394*
X0079935Y0021247*
X0080047Y0021135*
X0080194Y0021074*
X0080199*
Y0009799*
X0070862*
X0070809Y0009926*
X0070901Y0010018*
X0070979Y0010205*
X0069885*
X0069962Y0010018*
X0070054Y0009926*
X0070002Y0009799*
X0066199*
Y0016799*
X0060991*
X0060964Y0016933*
X0060833Y0017132*
X0060633Y0017264*
X0060399Y0017311*
X0060165Y0017264*
X0059966Y0017132*
X0059834Y0016933*
X0059807Y0016799*
X0048944*
X0048892Y0016926*
X0048963Y0016997*
X0049024Y0017145*
Y0017304*
X0048963Y0017451*
X0048851Y0017563*
X0048704Y0017624*
X0048544*
X0048397Y0017563*
X0048285Y0017451*
X0048224Y0017304*
Y0017281*
X0048097Y0017196*
X0048029Y0017224*
X0047869*
X0047722Y0017163*
X004761Y0017051*
X0047549Y0016904*
Y0016799*
X0017199*
Y0033099*
X0017279*
X0017426Y003316*
X0017538Y0033272*
X0017599Y0033419*
Y0033579*
X0017538Y0033726*
X0017426Y0033838*
X0017279Y0033899*
X0017199*
Y0036799*
X0032099*
Y0035699*
X0032019*
X0031872Y0035638*
X003176Y0035526*
X0031699Y0035379*
Y0035219*
X003176Y0035072*
X0031872Y003496*
X0032019Y0034899*
X0032099*
Y0032413*
X0032026Y0032364*
Y0031799*
X0031899*
Y0031672*
X0031334*
X0031285Y0031599*
X0022291*
X0022238Y0031726*
X0022126Y0031838*
X0021979Y0031899*
X0021819*
X0021672Y0031838*
X002156Y0031726*
X0021507Y0031599*
X0020199*
Y0019799*
X0038585*
X0038599Y0019779*
Y0019619*
X003866Y0019472*
X0038772Y001936*
X0038919Y0019299*
X0039079*
X0039226Y001936*
X0039338Y0019472*
X0039399Y0019619*
Y0019779*
X0039413Y0019799*
X0066199*
Y0021008*
X0066261Y0021049*
X0066421*
X0066567Y002111*
X006668Y0021223*
X0066741Y002137*
Y0021529*
X006668Y0021676*
X0066567Y0021788*
X0066421Y0021849*
X0066261*
X0066199Y0021891*
Y0025749*
X0066227Y002576*
X0066339Y0025873*
X00664Y002602*
Y0026179*
X0066339Y0026326*
X0066227Y0026438*
X0066199Y002645*
Y0030891*
X0066326Y0030967*
X0066408Y0030933*
X0066567*
X0066714Y0030994*
X0066827Y0031107*
X0066888Y0031254*
Y0031413*
X0066827Y003156*
X0066715Y0031672*
Y0031674*
X0066741Y0031799*
X0066802*
X0066948Y003186*
X0067061Y0031972*
X0067122Y0032119*
Y0032279*
X0067061Y0032426*
X0066948Y0032538*
X0066802Y0032599*
X0066642*
X0066495Y0032538*
X0066383Y0032426*
X0066322Y0032279*
X0066199Y0032288*
Y0043808*
X0066253Y0043939*
Y0044159*
X0066199Y004429*
Y0045549*
X0072199*
Y0039799*
G37*
G36*
X0099191Y0029189D02*
X009918Y0029169D01*
X0099131Y0028986*
X0099929*
Y0028732*
X0099131*
X009918Y0028549*
X0099203Y0028509*
X0099139Y0028399*
X0090399*
Y0025958*
X0090274Y0025954*
X0090213Y0026101*
X0090101Y0026213*
X0089954Y0026274*
X0089794*
X0089647Y0026213*
X0089535Y0026101*
X0089474Y0025954*
Y0025794*
X0089535Y0025647*
X0089647Y0025535*
X0089794Y0025474*
X0089954*
X0090101Y0025535*
X0090213Y0025647*
X0090274Y0025794*
X0090399Y002579*
Y0023654*
X008901*
X0088926Y0023738*
X0088779Y0023799*
X0088619*
X0088472Y0023738*
X008836Y0023626*
X0088299Y0023479*
Y0023319*
X008836Y0023172*
X0088472Y002306*
X0088619Y0022999*
X0088779*
X0088926Y002306*
X008901Y0023144*
X0090399*
Y0004799*
Y0000779*
X0027855*
Y0014555*
X0028231Y0014931*
X0028262Y00149*
X0028409Y0014839*
X0028569*
X0028716Y00149*
X0028829Y0015012*
X0028889Y0015159*
Y0015319*
X0028829Y0015466*
X0028797Y0015497*
X0029379Y0016079*
X0038477*
X0038553Y0015952*
X0038501Y0015827*
X0039595*
X0039543Y0015952*
X0039618Y0016079*
X0044197*
Y0004799*
X0087899*
Y0005324*
X0088026Y0005349*
X0088069Y0005245*
X0088245Y0005069*
X0088475Y0004974*
X0088723*
X0088953Y0005069*
X0089129Y0005245*
X0089224Y0005475*
Y0005723*
X0089129Y0005953*
X0088953Y0006129*
X0088723Y0006224*
X0088475*
X0088245Y0006129*
X0088069Y0005953*
X0088026Y0005849*
X0087899Y0005874*
Y0017376*
X0087913Y0017384*
X0088039Y001751*
X0088128Y0017663*
X0088174Y0017835*
Y0018013*
X0088128Y0018185*
X0088039Y0018338*
X0087913Y0018464*
X0087899Y0018472*
Y0024589*
X0087973*
X008812Y0024649*
X0088232Y0024762*
X0088293Y0024909*
Y0025068*
X0088232Y0025215*
X008812Y0025328*
X0087973Y0025389*
X0087899*
Y0028399*
Y0029299*
X0091635*
X0091705Y0029193*
X0091699Y0029179*
Y0029019*
X009176Y0028872*
X0091872Y002876*
X0092019Y0028699*
X0092179*
X0092326Y002876*
X0092438Y0028872*
X0092499Y0029019*
Y0029179*
X0092493Y0029193*
X0092563Y0029299*
X0099128*
X0099191Y0029189*
G37*
G36*
X0100299Y0025799D02*
X0102587Y0023511D01*
Y000262*
X010246Y0002594*
X0102456Y0002604*
X0102269Y0002883*
X0102033Y0003119*
X0101754Y0003306*
X0101445Y0003434*
X0101116Y0003499*
X0100782*
X0100453Y0003434*
X0100144Y0003306*
X0099865Y0003119*
X0099629Y0002883*
X0099442Y0002604*
X0099314Y0002295*
X0099249Y0001966*
Y0001632*
X0099314Y0001303*
X0099442Y0000994*
X0099498Y0000911*
X0099438Y0000799*
X0090599*
Y0027799*
X0090932*
X009096Y0027732*
X0091072Y002762*
X0091219Y0027559*
X0091379*
X0091526Y002762*
X0091638Y0027732*
X0091666Y0027799*
X0093032*
X009306Y0027732*
X0093172Y002762*
X0093319Y0027559*
X0093479*
X0093626Y002762*
X0093738Y0027732*
X0093766Y0027799*
X0100299*
Y0025799*
G37*
G36*
X0086199Y0024753D02*
X0086141Y0024714D01*
X0085982*
X0085835Y0024653*
X0085722Y0024541*
X0085661Y0024394*
Y0024234*
X0085722Y0024087*
X0085835Y0023975*
X0085982Y0023914*
X0086115*
X008614Y0023787*
X0086022Y0023738*
X008591Y0023626*
X0085849Y0023479*
Y0023319*
X008591Y0023172*
X0086022Y002306*
X0086169Y0022999*
X0086199*
Y0005799*
X004567*
X0045656Y0005819*
Y0005979*
X0045596Y0006126*
X0045483Y0006238*
X0045336Y0006299*
X0045199*
Y0015799*
X0048433*
X0048472Y001576*
X0048619Y0015699*
X0048779*
X0048926Y001576*
X0048965Y0015799*
X0062886*
X0062971Y0015672*
X0062958Y0015641*
Y0015481*
X0063019Y0015334*
X0063131Y0015222*
X0063278Y0015161*
X0063438*
X0063585Y0015222*
X0063697Y0015334*
X0063758Y0015481*
Y0015641*
X0063745Y0015672*
X006383Y0015799*
X0065199*
Y0014069*
X0065072Y0014044*
X0065038Y0014126*
X0064926Y0014238*
X0064779Y0014299*
X0064619*
X0064472Y0014238*
X006436Y0014126*
X0064299Y0013979*
Y0013819*
X006436Y0013672*
X0064472Y001356*
X0064619Y0013499*
X0064779*
X0064926Y001356*
X0065038Y0013672*
X0065072Y0013754*
X0065199Y0013729*
Y0008799*
X0082896*
X0082929Y0008766*
X0083076Y0008705*
X0083235*
X0083382Y0008766*
X0083494Y0008878*
X0083555Y0009025*
Y0009184*
X0083494Y0009331*
X0083382Y0009444*
X0083235Y0009505*
X0083199*
Y0013974*
X0083204*
X0083351Y0014035*
X0083463Y0014147*
X0083524Y0014294*
Y0014454*
X0083463Y0014601*
X0083351Y0014713*
X0083204Y0014774*
X0083199*
Y0023319*
X0083326Y0023344*
X0083353Y002328*
X0083465Y0023168*
X0083612Y0023107*
X0083771*
X0083918Y0023168*
X0084031Y002328*
X0084092Y0023427*
Y0023586*
X0084031Y0023733*
X0083918Y0023846*
X0083771Y0023907*
X0083612*
X0083465Y0023846*
X0083353Y0023733*
X0083326Y0023669*
X0083199Y0023694*
Y0027799*
X0084168*
X0084193Y0027672*
X0084185Y0027669*
X0084029Y0027513*
X0083952Y0027326*
X0085046*
X0084969Y0027513*
X0084813Y0027669*
X0084805Y0027672*
X008483Y0027799*
X0086199*
Y0024753*
G37*
%LNshm_pcb-2*%
%LPC*%
G36*
X0095149Y0069249D02*
X0094249D01*
Y0069144*
X0094241Y0069124*
Y0068474*
X0094249Y0068454*
Y0068376*
Y0068374*
Y0068224*
Y0068222*
Y0068144*
X0094241Y0068124*
Y0067474*
X0094249Y0067454*
Y0067349*
X0095149*
Y0067454*
X0095157Y0067474*
Y0068124*
X0095149Y0068144*
Y0068222*
Y0068224*
Y0068374*
Y0068376*
Y0068454*
X0095157Y0068474*
Y0069124*
X0095149Y0069144*
Y0069224*
Y0069249*
G37*
G36*
X0096483Y006701D02*
X0092535D01*
Y0066904*
X0092527Y0066885*
Y0066235*
X0092535Y0066215*
Y006611*
X0096483*
Y0066215*
X0096491Y0066235*
Y0066885*
X0096483Y0066904*
Y0066985*
Y006701*
G37*
G36*
X0099379Y0064699D02*
X0099219D01*
X0099072Y0064638*
X009896Y0064526*
X0098899Y0064379*
Y0064219*
X009896Y0064072*
X0099072Y006396*
X0099219Y0063899*
X0099379*
X0099526Y006396*
X0099638Y0064072*
X0099699Y0064219*
Y0064379*
X0099638Y0064526*
X0099526Y0064638*
X0099379Y0064699*
G37*
G36*
X0097189Y0060724D02*
X0097009D01*
X0096844Y0060655*
X0096718Y0060529*
X0096649Y0060364*
Y0060184*
X0096718Y0060019*
X0096844Y0059893*
X0097009Y0059824*
X0097189*
X0097354Y0059893*
X009748Y0060019*
X0097549Y0060184*
Y0060364*
X009748Y0060529*
X0097354Y0060655*
X0097189Y0060724*
G37*
G36*
X0094579Y0057299D02*
X0094419D01*
X0094272Y0057238*
X009416Y0057126*
X0094099Y0056979*
Y0056819*
X009416Y0056672*
X0094272Y005656*
X0094419Y0056499*
X0094579*
X0094726Y005656*
X0094838Y0056672*
X0094899Y0056819*
Y0056979*
X0094838Y0057126*
X0094726Y0057238*
X0094579Y0057299*
G37*
G36*
X0097189Y0056574D02*
X0097009D01*
X0096844Y0056505*
X0096718Y0056379*
X0096649Y0056214*
Y0056034*
X0096718Y0055869*
X0096844Y0055743*
X0097009Y0055674*
X0097189*
X0097354Y0055743*
X009748Y0055869*
X0097549Y0056034*
Y0056214*
X009748Y0056379*
X0097354Y0056505*
X0097189Y0056574*
G37*
G36*
X0095179Y0054399D02*
X0095019D01*
X0094872Y0054338*
X009476Y0054226*
X0094699Y0054079*
Y0053919*
X009476Y0053772*
X0094872Y005366*
X0095019Y0053599*
X0095179*
X0095326Y005366*
X0095438Y0053772*
X0095499Y0053919*
Y0054079*
X0095438Y0054226*
X0095326Y0054338*
X0095179Y0054399*
G37*
G36*
X0101526Y0052046D02*
Y0051626D01*
X0101946*
X0101869Y0051813*
X0101713Y0051969*
X0101526Y0052046*
G37*
G36*
X0101272D02*
X0101085Y0051969D01*
X0100929Y0051813*
X0100852Y0051626*
X0101272*
Y0052046*
G37*
G36*
X0101946Y0051372D02*
X0101526D01*
Y0050952*
X0101713Y0051029*
X0101869Y0051185*
X0101946Y0051372*
G37*
G36*
X0101272D02*
X0100852D01*
X0100929Y0051185*
X0101085Y0051029*
X0101272Y0050952*
Y0051372*
G37*
G36*
X0100979Y0047399D02*
X0100819D01*
X0100672Y0047338*
X010056Y0047226*
X0100499Y0047079*
Y0046919*
X010056Y0046772*
X0100672Y004666*
X0100819Y0046599*
X0100979*
X0101126Y004666*
X0101238Y0046772*
X0101299Y0046919*
Y0047079*
X0101238Y0047226*
X0101126Y0047338*
X0100979Y0047399*
G37*
G36*
X0092779Y0044799D02*
X0092619D01*
X0092472Y0044738*
X009236Y0044626*
X0092299Y0044479*
Y0044319*
X009236Y0044172*
X0092472Y004406*
X0092619Y0043999*
X0092779*
X0092926Y004406*
X0093038Y0044172*
X0093099Y0044319*
Y0044479*
X0093038Y0044626*
X0092926Y0044738*
X0092779Y0044799*
G37*
G36*
X0096757Y0044199D02*
X0096597D01*
X009645Y0044138*
X0096338Y0044026*
X0096277Y0043879*
Y0043719*
X0096338Y0043572*
X009645Y004346*
X0096597Y0043399*
X0096757*
X0096904Y004346*
X0097016Y0043572*
X0097077Y0043719*
Y0043879*
X0097016Y0044026*
X0096904Y0044138*
X0096757Y0044199*
G37*
G36*
X0095079Y0041999D02*
X0094919D01*
X0094772Y0041938*
X009466Y0041826*
X0094599Y0041679*
Y0041519*
X009466Y0041372*
X0094772Y004126*
X0094919Y0041199*
X0095079*
X0095226Y004126*
X0095338Y0041372*
X0095399Y0041519*
Y0041679*
X0095338Y0041826*
X0095226Y0041938*
X0095079Y0041999*
G37*
G36*
X0100666Y0040549D02*
X0100482D01*
X0100304Y0040501*
X0100144Y0040409*
X0100014Y0040279*
X0099922Y0040119*
X0099874Y0039941*
Y0039757*
X0099922Y0039579*
X0100014Y0039419*
X0100144Y0039289*
X0100304Y0039197*
X0100482Y0039149*
X0100666*
X0100844Y0039197*
X0101004Y0039289*
X0101134Y0039419*
X0101226Y0039579*
X0101274Y0039757*
Y0039941*
X0101226Y0040119*
X0101134Y0040279*
X0101004Y0040409*
X0100844Y0040501*
X0100699Y004054*
X0100666Y0040549*
G37*
G36*
X0101274Y0038549D02*
X0099874D01*
Y0037149*
X0101274*
Y0038549*
G37*
G36*
X0101863Y0036023D02*
X0101386D01*
Y0035546*
X0101863*
Y0036023*
G37*
G36*
X0100422D02*
X0099945D01*
Y0035546*
X0100422*
Y0036023*
G37*
G36*
X0102003Y0028732D02*
X0101326D01*
Y0028055*
X0102003*
Y0028732*
G37*
G36*
X0090026Y0066946D02*
Y0066526D01*
X0090446*
X0090369Y0066713*
X0090213Y0066869*
X0090026Y0066946*
G37*
G36*
X0089772D02*
X0089585Y0066869D01*
X0089429Y0066713*
X0089352Y0066526*
X0089772*
Y0066946*
G37*
G36*
X0090446Y0066272D02*
X0090026D01*
Y0065852*
X0090213Y0065929*
X0090369Y0066085*
X0090446Y0066272*
G37*
G36*
X0089772D02*
X0089352D01*
X0089429Y0066085*
X0089585Y0065929*
X0089772Y0065852*
Y0066272*
G37*
G36*
X0089733Y0064591D02*
X0089573D01*
X0089426Y006453*
X0089314Y0064418*
X0089253Y006427*
Y0064111*
X0089314Y0063964*
X0089426Y0063852*
X0089573Y0063791*
X0089733*
X008988Y0063852*
X0089992Y0063964*
X0090053Y0064111*
Y006427*
X0089992Y0064418*
X008988Y006453*
X0089733Y0064591*
G37*
G36*
X0090579Y0050899D02*
X0090419D01*
X0090272Y0050838*
X009016Y0050726*
X0090099Y0050579*
Y0050419*
X009016Y0050272*
X0090272Y005016*
X0090419Y0050099*
X0090579*
X0090726Y005016*
X0090838Y0050272*
X0090899Y0050419*
Y0050579*
X0090838Y0050726*
X0090726Y0050838*
X0090579Y0050899*
G37*
G36*
X0090379Y0049699D02*
X0090219D01*
X0090072Y0049638*
X008996Y0049526*
X0089899Y0049379*
Y0049219*
X008996Y0049072*
X0090072Y004896*
X0090219Y0048899*
X0090379*
X0090526Y004896*
X0090638Y0049072*
X0090699Y0049219*
Y0049379*
X0090638Y0049526*
X0090526Y0049638*
X0090379Y0049699*
G37*
G36*
X0059055Y0064799D02*
X0058894D01*
X0058747Y0064738*
X0058635Y0064626*
X0058574Y0064479*
Y0064319*
X0058635Y0064172*
X0058747Y006406*
X0058894Y0063999*
X0059055*
X0059201Y006406*
X0059313Y0064172*
X0059374Y0064319*
Y0064479*
X0059313Y0064626*
X0059201Y0064738*
X0059055Y0064799*
G37*
G36*
X0082079Y0063999D02*
X0081919D01*
X0081772Y0063938*
X0081661Y0063826*
X0081599Y0063679*
Y0063519*
X0081661Y0063373*
X0081772Y006326*
X0081919Y0063199*
X0082079*
X0082226Y006326*
X0082338Y0063373*
X0082399Y0063519*
Y0063679*
X0082338Y0063826*
X0082226Y0063938*
X0082079Y0063999*
G37*
G36*
X002941Y006353D02*
X0029251D01*
X0029104Y0063469*
X0028991Y0063357*
X002893Y006321*
Y0063051*
X0028991Y0062904*
X0029104Y0062791*
X0029251Y006273*
X002941*
X0029557Y0062791*
X0029669Y0062904*
X002973Y0063051*
Y006321*
X0029669Y0063357*
X0029557Y0063469*
X002941Y006353*
G37*
G36*
X0004279Y0062199D02*
X0004119D01*
X0003972Y0062138*
X000386Y0062026*
X0003799Y0061879*
Y0061719*
X000386Y0061572*
X0003972Y006146*
X0004119Y0061399*
X0004279*
X0004426Y006146*
X0004538Y0061572*
X0004599Y0061719*
Y0061879*
X0004538Y0062026*
X0004426Y0062138*
X0004279Y0062199*
G37*
G36*
X0073579Y0061699D02*
X0073419D01*
X0073272Y0061638*
X007316Y0061526*
X0073099Y0061379*
Y0061219*
X007316Y0061072*
X0073272Y006096*
X0073419Y0060899*
X0073579*
X0073726Y006096*
X0073838Y0061072*
X0073899Y0061219*
Y0061379*
X0073838Y0061526*
X0073726Y0061638*
X0073579Y0061699*
G37*
G36*
X0023779Y0061499D02*
X0023619D01*
X0023472Y0061438*
X002336Y0061326*
X0023299Y0061179*
Y0061019*
X002336Y0060872*
X0023472Y006076*
X0023619Y0060699*
X0023779*
X0023926Y006076*
X0024038Y0060872*
X0024099Y0061019*
Y0061179*
X0024038Y0061326*
X0023926Y0061438*
X0023779Y0061499*
G37*
G36*
X0073579Y0059599D02*
X0073419D01*
X0073272Y0059538*
X007316Y0059426*
X0073099Y0059279*
Y0059119*
X007316Y0058972*
X0073272Y005886*
X0073419Y0058799*
X0073579*
X0073726Y005886*
X0073838Y0058972*
X0073899Y0059119*
Y0059279*
X0073838Y0059426*
X0073726Y0059538*
X0073579Y0059599*
G37*
G36*
X0011579Y0056799D02*
X0011419D01*
X0011272Y0056738*
X001116Y0056626*
X0011099Y0056479*
Y0056319*
X001116Y0056172*
X0011272Y005606*
X0011419Y0055999*
X0011579*
X0011726Y005606*
X0011838Y0056172*
X0011899Y0056319*
Y0056479*
X0011838Y0056626*
X0011726Y0056738*
X0011579Y0056799*
G37*
G36*
X0007179Y0056663D02*
X0007019D01*
X0006872Y0056602*
X000676Y005649*
X0006699Y0056343*
Y0056184*
X000676Y0056037*
X0006872Y0055924*
X0007019Y0055863*
X0007179*
X0007326Y0055924*
X0007438Y0056037*
X0007499Y0056184*
Y0056343*
X0007438Y005649*
X0007326Y0056602*
X0007179Y0056663*
G37*
G36*
X0012479Y0038549D02*
X0012319D01*
X0012172Y0038488*
X001206Y0038376*
X0011999Y0038229*
Y0038069*
X001206Y0037922*
X0012172Y003781*
X0012319Y0037749*
X0012479*
X0012626Y003781*
X0012738Y0037922*
X0012799Y0038069*
Y0038229*
X0012738Y0038376*
X0012626Y0038488*
X0012479Y0038549*
G37*
G36*
X0008179Y0038421D02*
X000802D01*
X0007874Y003836*
X000776Y0038247*
X00077Y00381*
Y0037941*
X000776Y0037794*
X0007874Y0037681*
X000802Y003762*
X0008179*
X0008326Y0037681*
X0008439Y0037794*
X00085Y0037941*
Y00381*
X0008439Y0038247*
X0008326Y003836*
X0008179Y0038421*
G37*
G36*
X0010979Y0037899D02*
X0010819D01*
X0010672Y0037838*
X001056Y0037726*
X0010499Y0037579*
Y0037419*
X001056Y0037272*
X0010672Y003716*
X0010819Y0037099*
X0010979*
X0011126Y003716*
X0011238Y0037272*
X0011299Y0037419*
Y0037579*
X0011238Y0037726*
X0011126Y0037838*
X0010979Y0037899*
G37*
G36*
X0011079Y0036899D02*
X0010919D01*
X0010772Y0036838*
X001066Y0036726*
X0010599Y0036579*
Y0036419*
X001066Y0036272*
X0010772Y003616*
X0010919Y0036099*
X0011079*
X0011226Y003616*
X0011338Y0036272*
X0011399Y0036419*
Y0036579*
X0011338Y0036726*
X0011226Y0036838*
X0011079Y0036899*
G37*
G36*
X0013279Y0033999D02*
X0013119D01*
X0012972Y0033938*
X001286Y0033826*
X0012799Y0033679*
Y0033519*
X001286Y0033372*
X0012972Y003326*
X0013119Y0033199*
X0013279*
X0013426Y003326*
X0013538Y0033372*
X0013599Y0033519*
Y0033679*
X0013538Y0033826*
X0013426Y0033938*
X0013279Y0033999*
G37*
G36*
X0012179Y0033699D02*
X0012019D01*
X0011872Y0033638*
X001176Y0033526*
X0011699Y0033379*
Y0033219*
X001176Y0033072*
X0011872Y003296*
X0012019Y0032899*
X0012179*
X0012326Y003296*
X0012438Y0033072*
X0012499Y0033219*
Y0033379*
X0012438Y0033526*
X0012326Y0033638*
X0012179Y0033699*
G37*
G36*
X0007579Y0033499D02*
X0007419D01*
X0007272Y0033438*
X000716Y0033326*
X0007099Y0033179*
Y003302*
X000716Y0032872*
X0007272Y003276*
X0007419Y0032699*
X0007579*
X0007726Y003276*
X0007838Y0032872*
X0007899Y003302*
Y0033179*
X0007838Y0033326*
X0007726Y0033438*
X0007579Y0033499*
G37*
G36*
Y0031799D02*
X0007419D01*
X0007272Y0031738*
X000716Y0031626*
X0007099Y0031479*
Y0031319*
X000716Y0031172*
X0007272Y003106*
X0007419Y0030999*
X0007579*
X0007726Y003106*
X0007838Y0031172*
X0007899Y0031319*
Y0031479*
X0007838Y0031626*
X0007726Y0031738*
X0007579Y0031799*
G37*
G36*
X0012479Y0030999D02*
X0012319D01*
X0012172Y0030938*
X001206Y0030826*
X0011999Y0030679*
Y0030519*
X001206Y0030372*
X0012172Y003026*
X0012319Y0030199*
X0012479*
X0012626Y003026*
X0012738Y0030372*
X0012799Y0030519*
Y0030679*
X0012738Y0030826*
X0012626Y0030938*
X0012479Y0030999*
G37*
G36*
X0014079Y0024899D02*
X0013919D01*
X0013772Y0024838*
X001366Y0024726*
X0013599Y0024579*
Y0024419*
X001366Y0024272*
X0013772Y002416*
X0013919Y0024099*
X0014079*
X0014226Y002416*
X0014338Y0024272*
X0014399Y0024419*
Y0024579*
X0014338Y0024726*
X0014226Y0024838*
X0014079Y0024899*
G37*
G36*
X0007179Y0023899D02*
X0007019D01*
X0006872Y0023838*
X000676Y0023726*
X0006699Y0023579*
Y0023419*
X000676Y0023272*
X0006872Y002316*
X0007019Y0023099*
X0007179*
X0007326Y002316*
X0007438Y0023272*
X0007499Y0023419*
Y0023579*
X0007438Y0023726*
X0007326Y0023838*
X0007179Y0023899*
G37*
G36*
X0008179Y0020699D02*
X0008019D01*
X0007872Y0020638*
X000776Y0020526*
X0007699Y0020379*
Y0020219*
X000776Y0020072*
X0007872Y001996*
X0008019Y0019899*
X0008179*
X0008326Y001996*
X0008438Y0020072*
X0008499Y0020219*
Y0020379*
X0008438Y0020526*
X0008326Y0020638*
X0008179Y0020699*
G37*
G36*
X0013979Y0020399D02*
X0013819D01*
X0013672Y0020338*
X001356Y0020226*
X0013499Y0020079*
Y0019919*
X001356Y0019772*
X0013672Y001966*
X0013819Y0019599*
X0013979*
X0014126Y001966*
X0014238Y0019772*
X0014299Y0019919*
Y0020079*
X0014238Y0020226*
X0014126Y0020338*
X0013979Y0020399*
G37*
G36*
X0009626Y0019746D02*
Y0019326D01*
X0010046*
X0009969Y0019513*
X0009813Y0019669*
X0009626Y0019746*
G37*
G36*
X0009372D02*
X0009185Y0019669D01*
X0009029Y0019513*
X0008952Y0019326*
X0009372*
Y0019746*
G37*
G36*
X0013179Y0019599D02*
X0013019D01*
X0012872Y0019538*
X001276Y0019426*
X00127Y0019279*
Y0019119*
X001276Y0018972*
X0012872Y001886*
X0013019Y0018799*
X0013179*
X0013326Y001886*
X0013438Y0018972*
X0013499Y0019119*
Y0019279*
X0013438Y0019426*
X0013326Y0019538*
X0013179Y0019599*
G37*
G36*
X0012179Y0020299D02*
X0012019D01*
X0011872Y0020238*
X001176Y0020126*
X0011699Y0019979*
Y0019819*
X001176Y0019672*
X0011832Y00196*
X0011817Y0019463*
X0011812Y0019454*
X0011772Y0019438*
X001166Y0019326*
X0011599Y0019179*
Y0019019*
X001166Y0018872*
X0011772Y001876*
X0011919Y0018699*
X0012079*
X0012226Y001876*
X0012338Y0018872*
X0012399Y0019019*
Y0019179*
X0012338Y0019326*
X0012266Y0019398*
X0012281Y0019535*
X0012286Y0019544*
X0012326Y001956*
X0012438Y0019672*
X0012499Y0019819*
Y0019979*
X0012438Y0020126*
X0012326Y0020238*
X0012179Y0020299*
G37*
G36*
X0010046Y0019072D02*
X0009626D01*
Y0018652*
X0009813Y0018729*
X0009969Y0018885*
X0010046Y0019072*
G37*
G36*
X0009372D02*
X0008952D01*
X0009029Y0018885*
X0009185Y0018729*
X0009372Y0018652*
Y0019072*
G37*
G36*
X0014226Y0013296D02*
Y0012876D01*
X0014646*
X0014569Y0013063*
X0014413Y0013219*
X0014226Y0013296*
G37*
G36*
X0013972D02*
X0013785Y0013219D01*
X0013629Y0013063*
X0013552Y0012876*
X0013972*
Y0013296*
G37*
G36*
X0014646Y0012622D02*
X0014226D01*
Y0012202*
X0014413Y0012279*
X0014569Y0012435*
X0014646Y0012622*
G37*
G36*
X0013972D02*
X0013552D01*
X0013629Y0012435*
X0013785Y0012279*
X0013972Y0012202*
Y0012622*
G37*
G36*
X0079329Y0055599D02*
X0079169D01*
X0079022Y0055538*
X007891Y0055426*
X0078849Y0055279*
Y0055119*
X007891Y0054972*
X0079022Y005486*
X0079169Y0054799*
X0079329*
X0079476Y005486*
X0079588Y0054972*
X0079649Y0055119*
Y0055279*
X0079588Y0055426*
X0079476Y0055538*
X0079329Y0055599*
G37*
G36*
X0060646Y0055072D02*
X0060226D01*
Y0054652*
X0060413Y0054729*
X0060569Y0054885*
X0060646Y0055072*
G37*
G36*
X0059972D02*
X0059552D01*
X0059629Y0054885*
X0059785Y0054729*
X0059972Y0054652*
Y0055072*
G37*
G36*
X0084429Y0055199D02*
X0084269D01*
X0084122Y0055138*
X008401Y0055026*
X0083949Y0054879*
Y0054719*
X008401Y0054572*
X0084122Y005446*
X0084269Y0054399*
X0084429*
X0084576Y005446*
X0084688Y0054572*
X0084749Y0054719*
Y0054879*
X0084688Y0055026*
X0084576Y0055138*
X0084429Y0055199*
G37*
G36*
X0080579Y0054599D02*
X0080419D01*
X0080272Y0054538*
X008016Y0054426*
X0080099Y0054279*
Y0054119*
X008016Y0053972*
X0080272Y005386*
X0080419Y0053799*
X0080579*
X0080726Y005386*
X0080838Y0053972*
X0080899Y0054119*
Y0054279*
X0080838Y0054426*
X0080726Y0054538*
X0080579Y0054599*
G37*
G36*
X0078954Y0054524D02*
X0078794D01*
X0078647Y0054463*
X0078535Y0054351*
X0078474Y0054204*
Y0054044*
X0078535Y0053897*
X0078647Y0053785*
X0078794Y0053724*
X0078954*
X0079101Y0053785*
X0079213Y0053897*
X0079274Y0054044*
Y0054204*
X0079213Y0054351*
X0079101Y0054463*
X0078954Y0054524*
G37*
G36*
X0077621Y0053899D02*
X0077462D01*
X0077315Y0053838*
X0077203Y0053726*
X0077142Y0053579*
Y0053419*
X0077203Y0053272*
X0077315Y005316*
X0077462Y0053099*
X0077621*
X0077769Y005316*
X0077881Y0053272*
X0077942Y0053419*
Y0053579*
X0077881Y0053726*
X0077769Y0053838*
X0077621Y0053899*
G37*
G36*
X0079979Y0053599D02*
X0079819D01*
X0079672Y0053538*
X007956Y0053426*
X0079499Y0053279*
Y0053119*
X007956Y0052972*
X0079672Y005286*
X0079819Y0052799*
X0079979*
X0080126Y005286*
X0080238Y0052972*
X0080299Y0053119*
Y0053279*
X0080238Y0053426*
X0080126Y0053538*
X0079979Y0053599*
G37*
G36*
X0052479Y0053299D02*
X0052319D01*
X0052172Y0053238*
X005206Y0053126*
X0051999Y0052979*
Y0052819*
X005206Y0052672*
X0052152Y005258*
X0052131Y0052485*
X0052113Y0052453*
X0052089*
X0051885Y0052369*
X0051729Y0052213*
X0051652Y0052026*
X0052746*
X0052669Y0052213*
X0052513Y0052369*
X0052492Y0052377*
X0052488Y0052416*
X0052504Y005251*
X0052626Y005256*
X0052738Y0052672*
X0052799Y0052819*
Y0052979*
X0052738Y0053126*
X0052626Y0053238*
X0052479Y0053299*
G37*
G36*
X0033083Y0052394D02*
X0032924D01*
X0032777Y0052333*
X0032665Y0052221*
X0032604Y0052074*
Y0051915*
X0032665Y0051768*
X0032777Y0051655*
X0032924Y0051594*
X0033083*
X003323Y0051655*
X0033343Y0051768*
X0033404Y0051915*
Y0052074*
X0033343Y0052221*
X003323Y0052333*
X0033083Y0052394*
G37*
G36*
X0052746Y0051772D02*
X0052326D01*
Y0051352*
X0052513Y0051429*
X0052669Y0051585*
X0052746Y0051772*
G37*
G36*
X0052072D02*
X0051652D01*
X0051729Y0051585*
X0051885Y0051429*
X0052072Y0051352*
Y0051772*
G37*
G36*
X0044095Y0051665D02*
X0043936D01*
X0043789Y0051604*
X0043677Y0051492*
X0043616Y0051345*
Y0051186*
X0043677Y0051039*
X0043789Y0050927*
X0043936Y0050865*
X0044095*
X0044242Y0050927*
X0044355Y0051039*
X0044416Y0051186*
Y0051345*
X0044355Y0051492*
X0044242Y0051604*
X0044095Y0051665*
G37*
G36*
X0029879Y0051499D02*
X0029719D01*
X0029572Y0051438*
X002946Y0051326*
X0029399Y0051179*
Y0051019*
X002946Y0050872*
X0029572Y005076*
X0029719Y0050699*
X0029879*
X0030026Y005076*
X0030138Y0050872*
X0030199Y0051019*
Y0051179*
X0030138Y0051326*
X0030026Y0051438*
X0029879Y0051499*
G37*
G36*
X0066843Y0051358D02*
X0066683D01*
X0066536Y0051298*
X0066424Y0051185*
X0066363Y0051038*
Y0050879*
X0066424Y0050732*
X0066536Y0050619*
X0066683Y0050558*
X0066843*
X006699Y0050619*
X0067102Y0050732*
X0067163Y0050879*
Y0051038*
X0067102Y0051185*
X006699Y0051298*
X0066843Y0051358*
G37*
G36*
X0055841Y0051347D02*
X0055682D01*
X0055535Y0051287*
X0055422Y0051174*
X0055361Y0051027*
Y0050868*
X0055422Y0050721*
X0055535Y0050608*
X0055682Y0050548*
X0055841*
X0055988Y0050608*
X00561Y0050721*
X0056161Y0050868*
Y0051027*
X00561Y0051174*
X0055988Y0051287*
X0055841Y0051347*
G37*
G36*
X0059666Y0051144D02*
X0059507D01*
X005936Y0051083*
X0059247Y0050971*
X0059186Y0050824*
Y0050664*
X0059247Y0050517*
X005936Y0050405*
X0059507Y0050344*
X0059666*
X0059813Y0050405*
X0059925Y0050517*
X0059986Y0050664*
Y0050824*
X0059925Y0050971*
X0059813Y0051083*
X0059666Y0051144*
G37*
G36*
X0062897Y005113D02*
X0062738D01*
X0062591Y005107*
X0062478Y0050957*
X0062417Y005081*
Y0050651*
X0062478Y0050504*
X0062591Y0050391*
X0062738Y005033*
X0062897*
X0063044Y0050391*
X0063157Y0050504*
X0063217Y0050651*
Y005081*
X0063157Y0050957*
X0063044Y005107*
X0062897Y005113*
G37*
G36*
X0041026Y0050346D02*
Y0049926D01*
X0041446*
X0041369Y0050113*
X0041213Y0050269*
X0041026Y0050346*
G37*
G36*
X0040772D02*
X0040585Y0050269D01*
X0040429Y0050113*
X0040352Y0049926*
X0040772*
Y0050346*
G37*
G36*
X0043855Y0050284D02*
X0043696D01*
X0043549Y0050223*
X0043437Y0050111*
X0043376Y0049964*
Y0049804*
X0043437Y0049657*
X0043549Y0049545*
X0043696Y0049484*
X0043855*
X0044002Y0049545*
X0044115Y0049657*
X0044176Y0049804*
Y0049964*
X0044115Y0050111*
X0044002Y0050223*
X0043855Y0050284*
G37*
G36*
X0041446Y0049672D02*
X0041026D01*
Y0049252*
X0041213Y0049329*
X0041369Y0049485*
X0041446Y0049672*
G37*
G36*
X0040772D02*
X0040352D01*
X0040429Y0049485*
X0040585Y0049329*
X0040772Y0049252*
Y0049672*
G37*
G36*
X0043879Y0048499D02*
X0043719D01*
X0043572Y0048438*
X004346Y0048326*
X0043399Y0048179*
Y0048019*
X004346Y0047872*
X0043572Y004776*
X0043719Y0047699*
X0043879*
X0044026Y004776*
X0044138Y0047872*
X0044199Y0048019*
Y0048179*
X0044138Y0048326*
X0044026Y0048438*
X0043879Y0048499*
G37*
G36*
X0061972Y0048449D02*
X0061813D01*
X0061666Y0048388*
X0061554Y0048276*
X0061493Y0048129*
Y0047969*
X0061554Y0047822*
X0061666Y004771*
X0061813Y0047649*
X0061972*
X0062119Y004771*
X0062232Y0047822*
X0062293Y0047969*
Y0048129*
X0062232Y0048276*
X0062119Y0048388*
X0061972Y0048449*
G37*
G36*
X0048534Y0049029D02*
X0048375D01*
X0048228Y0048968*
X0048116Y0048855*
X0048055Y0048708*
Y0048549*
X0048116Y0048402*
X0048228Y004829*
X0048375Y0048229*
X0048534*
X0048615Y0048262*
X0048712Y0048165*
X0048697Y0048129*
Y0047969*
X0048758Y0047822*
X004887Y004771*
X0049017Y0047649*
X0049176*
X0049323Y004771*
X0049436Y0047822*
X0049497Y0047969*
Y0048129*
X0049436Y0048276*
X0049323Y0048388*
X0049176Y0048449*
X0049017*
X0048937Y0048416*
X004884Y0048514*
X0048855Y0048549*
Y0048708*
X0048794Y0048855*
X0048681Y0048968*
X0048534Y0049029*
G37*
G36*
X0054951Y0047921D02*
Y0047501D01*
X0055372*
X0055294Y0047688*
X0055138Y0047844*
X0054951Y0047921*
G37*
G36*
X0054113Y0048449D02*
X0053954D01*
X0053807Y0048388*
X0053694Y0048276*
X0053633Y0048129*
Y0047969*
X0053694Y0047822*
X0053807Y004771*
X0053954Y0047649*
X0054113*
X0054219Y0047693*
X0054319Y0047603*
X0054277Y0047501*
X0054697*
Y0047921*
X0054521Y0047848*
X0054486Y0047866*
X0054417Y004793*
X0054434Y0047969*
Y0048129*
X0054373Y0048276*
X005426Y0048388*
X0054113Y0048449*
G37*
G36*
X0057782Y0047882D02*
X0057623D01*
X0057476Y0047822*
X0057363Y0047709*
X0057303Y0047562*
Y0047403*
X0057363Y0047256*
X0057476Y0047143*
X0057623Y0047082*
X0057782*
X0057929Y0047143*
X0058042Y0047256*
X0058103Y0047403*
Y0047562*
X0058042Y0047709*
X0057929Y0047822*
X0057782Y0047882*
G37*
G36*
X0055372Y0047247D02*
X0054951D01*
Y0046827*
X0055138Y0046904*
X0055294Y004706*
X0055372Y0047247*
G37*
G36*
X0054697D02*
X0054277D01*
X0054354Y004706*
X005451Y0046904*
X0054697Y0046827*
Y0047247*
G37*
G36*
X0048618Y0045946D02*
Y0045526D01*
X0049038*
X0048961Y0045713*
X0048805Y0045869*
X0048618Y0045946*
G37*
G36*
X0048364D02*
X0048177Y0045869D01*
X0048022Y0045713*
X0047944Y0045526*
X0048364*
Y0045946*
G37*
G36*
X0049779Y0045799D02*
X0049619D01*
X0049472Y0045738*
X004936Y0045626*
X0049299Y0045479*
Y0045319*
X004936Y0045172*
X0049472Y004506*
X0049619Y0044999*
X0049779*
X0049926Y004506*
X0050038Y0045172*
X0050099Y0045319*
Y0045479*
X0050038Y0045626*
X0049926Y0045738*
X0049779Y0045799*
G37*
G36*
X0049038Y0045272D02*
X0048618D01*
Y0044852*
X0048805Y0044929*
X0048961Y0045085*
X0049038Y0045272*
G37*
G36*
X0048364D02*
X0047944D01*
X0048022Y0045085*
X0048177Y0044929*
X0048364Y0044852*
Y0045272*
G37*
G36*
X0043429Y0045349D02*
X0043269D01*
X0043122Y0045288*
X004301Y0045176*
X0042949Y0045029*
Y0044869*
X004301Y0044722*
X0043122Y004461*
X0043269Y0044549*
X0043429*
X0043576Y004461*
X0043688Y0044722*
X0043749Y0044869*
Y0045029*
X0043688Y0045176*
X0043576Y0045288*
X0043429Y0045349*
G37*
G36*
X0052779Y0045199D02*
X0052619D01*
X0052472Y0045138*
X005236Y0045026*
X0052299Y0044879*
Y0044719*
X005236Y0044572*
X0052472Y004446*
X0052619Y0044399*
X0052779*
X0052926Y004446*
X0053038Y0044572*
X0053099Y0044719*
Y0044879*
X0053038Y0045026*
X0052926Y0045138*
X0052779Y0045199*
G37*
G36*
X0042429Y0044599D02*
X0042269D01*
X0042122Y0044538*
X004201Y0044426*
X0041949Y0044279*
Y0044119*
X004201Y0043972*
X0042122Y004386*
X0042269Y0043799*
X0042429*
X0042576Y004386*
X0042688Y0043972*
X0042749Y0044119*
Y0044279*
X0042688Y0044426*
X0042576Y0044538*
X0042429Y0044599*
G37*
G36*
X004837Y004351D02*
X004821D01*
X0048063Y0043449*
X0047951Y0043336*
X004789Y0043189*
Y004303*
X0047951Y0042883*
X0048063Y0042771*
X004821Y004271*
X004837*
X0048517Y0042771*
X0048629Y0042883*
X004869Y004303*
Y0043189*
X0048629Y0043336*
X0048517Y0043449*
X004837Y004351*
G37*
G36*
X0046079Y0043499D02*
X0045919D01*
X0045772Y0043438*
X004566Y0043326*
X0045599Y004318*
Y0043019*
X004566Y0042872*
X0045772Y004276*
X0045919Y0042699*
X0046079*
X0046226Y004276*
X0046338Y0042872*
X0046399Y0043019*
Y004318*
X0046338Y0043326*
X0046226Y0043438*
X0046079Y0043499*
G37*
G36*
X0062851Y0042996D02*
Y0042576D01*
X0063271*
X0063194Y0042763*
X0063038Y0042919*
X0062851Y0042996*
G37*
G36*
X0062597D02*
X006241Y0042919D01*
X0062254Y0042763*
X0062177Y0042576*
X0062597*
Y0042996*
G37*
G36*
X0063271Y0042322D02*
X0062851D01*
Y0041902*
X0063038Y0041979*
X0063194Y0042135*
X0063271Y0042322*
G37*
G36*
X0062597D02*
X0062177D01*
X0062254Y0042135*
X006241Y0041979*
X0062597Y0041902*
Y0042322*
G37*
G36*
X0063879Y0042599D02*
X0063719D01*
X0063572Y0042538*
X006346Y0042426*
X0063399Y0042279*
Y0042119*
X006346Y0041972*
X0063572Y004186*
X0063719Y0041799*
X0063879*
X0064026Y004186*
X0064138Y0041972*
X0064199Y0042119*
Y0042279*
X0064138Y0042426*
X0064026Y0042538*
X0063879Y0042599*
G37*
G36*
X0043479Y0040499D02*
X0043319D01*
X0043172Y0040438*
X004306Y0040326*
X0042999Y0040179*
Y0040019*
X004306Y0039872*
X0043172Y003976*
X0043319Y0039699*
X0043479*
X0043626Y003976*
X0043738Y0039872*
X0043799Y0040019*
Y0040179*
X0043738Y0040326*
X0043626Y0040438*
X0043479Y0040499*
G37*
G36*
X0041526Y0040046D02*
Y0039626D01*
X0041946*
X0041869Y0039813*
X0041713Y0039969*
X0041526Y0040046*
G37*
G36*
X005099Y0040369D02*
X0050831D01*
X0050684Y0040308*
X0050571Y0040196*
X005051Y0040049*
Y003989*
X0050571Y0039743*
X0050684Y003963*
X0050831Y0039569*
X005099*
X0051137Y003963*
X0051249Y0039743*
X005131Y003989*
Y0040049*
X0051249Y0040196*
X0051137Y0040308*
X005099Y0040369*
G37*
G36*
X0041946Y0039372D02*
X0041526D01*
Y0038952*
X0041713Y0039029*
X0041869Y0039185*
X0041946Y0039372*
G37*
G36*
X0040479Y0040199D02*
X0040319D01*
X0040172Y0040138*
X004006Y0040026*
X0039999Y0039879*
Y0039719*
X004006Y0039572*
X0040172Y003946*
X0040319Y0039399*
X0040479*
X0040626Y003946*
X0040718Y0039552*
X0040813Y0039531*
X0040845Y0039513*
Y0039389*
X0040929Y0039185*
X0041085Y0039029*
X0041272Y0038952*
Y0039499*
Y0040046*
X0041085Y0039969*
X0040929Y0039813*
X0040926Y0039805*
X0040799Y003983*
Y0039879*
X0040738Y0040026*
X0040626Y0040138*
X0040479Y0040199*
G37*
G36*
X0042779Y0038599D02*
X0042619D01*
X0042472Y0038538*
X004236Y0038426*
X0042316Y003832*
X0042182*
X0042138Y0038426*
X0042026Y0038538*
X0041879Y0038599*
X0041719*
X0041572Y0038538*
X004146Y0038426*
X0041399Y0038279*
Y0038119*
X004146Y0037973*
X0041572Y003786*
X0041719Y0037799*
X0041879*
X0042026Y003786*
X0042138Y0037973*
X0042182Y0038078*
X0042316*
X004236Y0037973*
X0042472Y003786*
X0042619Y0037799*
X0042779*
X0042926Y003786*
X0043038Y0037973*
X0043099Y0038119*
Y0038279*
X0043038Y0038426*
X0042926Y0038538*
X0042779Y0038599*
G37*
G36*
X0044884Y0037989D02*
X0044724D01*
X0044577Y0037928*
X0044465Y0037816*
X0044404Y0037669*
Y0037509*
X0044465Y0037362*
X0044577Y003725*
X0044724Y0037189*
X0044884*
X0045031Y003725*
X0045143Y0037362*
X0045204Y0037509*
Y0037669*
X0045143Y0037816*
X0045031Y0037928*
X0044884Y0037989*
G37*
G36*
X0033779Y0037599D02*
X0033619D01*
X0033472Y0037538*
X003336Y0037426*
X0033299Y0037279*
Y0037119*
X003336Y0036972*
X0033472Y003686*
X0033619Y0036799*
X0033779*
X0033926Y003686*
X0034038Y0036972*
X0034099Y0037119*
Y0037279*
X0034038Y0037426*
X0033926Y0037538*
X0033779Y0037599*
G37*
G36*
X0044309Y0037249D02*
X004415D01*
X0044003Y0037188*
X0043891Y0037076*
X004383Y0036929*
Y003677*
X0043891Y0036623*
X0044003Y003651*
X004415Y0036449*
X0044309*
X0044456Y003651*
X0044569Y0036623*
X004463Y003677*
Y0036929*
X0044569Y0037076*
X0044456Y0037188*
X0044309Y0037249*
G37*
G36*
X0064579Y0037074D02*
X0064419D01*
X0064272Y0037013*
X006416Y0036901*
X0064099Y0036754*
Y0036594*
X006416Y0036447*
X0064272Y0036335*
X0064419Y0036274*
X0064579*
X0064726Y0036335*
X0064838Y0036447*
X0064899Y0036594*
Y0036754*
X0064838Y0036901*
X0064726Y0037013*
X0064579Y0037074*
G37*
G36*
X0046579D02*
X0046419D01*
X0046272Y0037013*
X004616Y0036901*
X0046099Y0036754*
Y0036594*
X004616Y0036447*
X0046272Y0036335*
X0046419Y0036274*
X0046579*
X0046726Y0036335*
X0046838Y0036447*
X0046899Y0036594*
Y0036754*
X0046838Y0036901*
X0046726Y0037013*
X0046579Y0037074*
G37*
G36*
X0043566Y0036305D02*
X0043407D01*
X004326Y0036244*
X0043147Y0036131*
X0043086Y0035984*
Y0035825*
X0043147Y0035678*
X004326Y0035565*
X0043407Y0035505*
X0043566*
X0043713Y0035565*
X0043825Y0035678*
X0043886Y0035825*
Y0035984*
X0043825Y0036131*
X0043713Y0036244*
X0043566Y0036305*
G37*
G36*
X0045404Y0035874D02*
X0045244D01*
X0045097Y0035814*
X0044985Y0035701*
X0044924Y0035554*
Y0035394*
X0044985Y0035247*
X0045097Y0035135*
X0045244Y0035074*
X0045404*
X0045551Y0035135*
X0045663Y0035247*
X0045724Y0035394*
Y0035554*
X0045663Y0035701*
X0045551Y0035814*
X0045404Y0035874*
G37*
G36*
X0052554Y0035574D02*
X0052394D01*
X0052247Y0035513*
X0052135Y0035401*
X0052074Y0035254*
Y0035094*
X0052135Y0034947*
X0052247Y0034835*
X0052394Y0034774*
X0052554*
X0052701Y0034835*
X0052813Y0034947*
X0052874Y0035094*
Y0035254*
X0052813Y0035401*
X0052701Y0035513*
X0052554Y0035574*
G37*
G36*
X0043839Y0035215D02*
X004368D01*
X0043533Y0035154*
X0043421Y0035042*
X004336Y0034895*
Y0034736*
X0043421Y0034589*
X0043533Y0034476*
X004368Y0034415*
X0043839*
X0043986Y0034476*
X0044099Y0034589*
X004416Y0034736*
Y0034895*
X0044099Y0035042*
X0043986Y0035154*
X0043839Y0035215*
G37*
G36*
X0047305Y0034995D02*
X0047146D01*
X0046999Y0034934*
X0046886Y0034821*
X0046825Y0034674*
Y0034515*
X0046886Y0034368*
X0046999Y0034256*
X0047146Y0034195*
X0047305*
X0047452Y0034256*
X0047565Y0034368*
X0047625Y0034515*
Y0034674*
X0047565Y0034821*
X0047452Y0034934*
X0047305Y0034995*
G37*
G36*
X0053827Y0034822D02*
X0053667D01*
X005352Y0034761*
X0053408Y0034649*
X0053347Y0034502*
Y0034342*
X0053408Y0034195*
X005352Y0034083*
X0053667Y0034022*
X0053827*
X0053975Y0034083*
X0054086Y0034195*
X0054147Y0034342*
Y0034502*
X0054086Y0034649*
X0053975Y0034761*
X0053827Y0034822*
G37*
G36*
X0040379Y0034599D02*
X0040219D01*
X0040072Y0034538*
X003996Y0034426*
X0039899Y0034279*
Y0034119*
X003996Y0033972*
X0040072Y003386*
X0040219Y0033799*
X0040379*
X0040526Y003386*
X0040638Y0033972*
X0040699Y0034119*
Y0034279*
X0040638Y0034426*
X0040526Y0034538*
X0040379Y0034599*
G37*
G36*
X0063017Y0034261D02*
X0062858D01*
X0062711Y00342*
X0062598Y0034087*
X0062537Y003394*
Y0033782*
X0062598Y0033634*
X0062711Y0033522*
X0062858Y0033461*
X0063017*
X0063164Y0033522*
X0063276Y0033634*
X0063337Y0033782*
Y003394*
X0063276Y0034087*
X0063164Y00342*
X0063017Y0034261*
G37*
G36*
X005323Y00341D02*
X0053071D01*
X0052924Y003404*
X0052811Y0033927*
X005275Y003378*
Y0033621*
X0052811Y0033474*
X0052924Y0033361*
X0053071Y00333*
X005323*
X0053377Y0033361*
X005349Y0033474*
X005355Y0033621*
Y003378*
X005349Y0033927*
X0053377Y003404*
X005323Y00341*
G37*
G36*
X0033579Y0033799D02*
X0033419D01*
X0033272Y0033738*
X003316Y0033626*
X0033099Y0033479*
Y0033319*
X003316Y0033172*
X0033272Y003306*
X0033419Y0032999*
X0033579*
X0033726Y003306*
X0033838Y0033172*
X0033899Y0033319*
Y0033479*
X0033838Y0033626*
X0033726Y0033738*
X0033579Y0033799*
G37*
G36*
X0036126Y0033346D02*
Y0032926D01*
X0036546*
X0036469Y0033113*
X0036313Y0033269*
X0036126Y0033346*
G37*
G36*
X0035872D02*
X0035685Y0033269D01*
X0035529Y0033113*
X0035452Y0032926*
X0035872*
Y0033346*
G37*
G36*
X0041179Y0033599D02*
X0041019D01*
X0040872Y0033538*
X004076Y0033426*
X0040699Y0033279*
Y0033119*
X004076Y0032972*
X0040872Y003286*
X0041019Y0032799*
X0041179*
X0041326Y003286*
X0041438Y0032972*
X0041499Y0033119*
Y0033279*
X0041438Y0033426*
X0041326Y0033538*
X0041179Y0033599*
G37*
G36*
X0056654Y003355D02*
X0056495D01*
X0056348Y003349*
X0056235Y0033377*
X0056174Y003323*
Y0033071*
X0056235Y0032924*
X0056348Y0032811*
X0056495Y003275*
X0056654*
X0056801Y0032811*
X0056913Y0032924*
X0056974Y0033071*
Y003323*
X0056913Y0033377*
X0056801Y003349*
X0056654Y003355*
G37*
G36*
X0061904Y0033474D02*
X0061744D01*
X0061597Y0033413*
X0061485Y0033301*
X0061424Y0033154*
Y0032994*
X0061485Y0032847*
X0061597Y0032735*
X0061744Y0032674*
X0061904*
X0062051Y0032735*
X0062163Y0032847*
X0062224Y0032994*
Y0033154*
X0062163Y0033301*
X0062051Y0033413*
X0061904Y0033474*
G37*
G36*
X0036546Y0032672D02*
X0036126D01*
Y0032252*
X0036313Y0032329*
X0036469Y0032485*
X0036546Y0032672*
G37*
G36*
X0035872D02*
X0035452D01*
X0035529Y0032485*
X0035685Y0032329*
X0035872Y0032252*
Y0032672*
G37*
G36*
X0051104Y0032924D02*
X0050944D01*
X0050797Y0032863*
X0050685Y0032751*
X0050624Y0032604*
Y0032444*
X0050685Y0032297*
X0050797Y0032185*
X0050944Y0032124*
X0051104*
X0051251Y0032185*
X0051363Y0032297*
X0051424Y0032444*
Y0032604*
X0051363Y0032751*
X0051251Y0032863*
X0051104Y0032924*
G37*
G36*
X0051779Y0032249D02*
X0051619D01*
X0051472Y0032188*
X005136Y0032076*
X0051299Y0031929*
Y0031769*
X005136Y0031623*
X0051472Y003151*
X0051619Y0031449*
X0051727*
X0051811Y0031349*
X0051816Y0031332*
X0051799Y003129*
Y0031131*
X005186Y0030984*
X0051972Y0030871*
X0052119Y003081*
X0052279*
X0052426Y0030871*
X0052538Y0030984*
X0052599Y0031131*
Y003129*
X0052538Y0031437*
X0052426Y0031549*
X0052279Y003161*
X0052171*
X0052087Y003171*
X0052082Y0031728*
X0052099Y0031769*
Y0031929*
X0052038Y0032076*
X0051926Y0032188*
X0051779Y0032249*
G37*
G36*
X0057226Y0030646D02*
Y0030226D01*
X0057646*
X0057569Y0030413*
X0057413Y0030569*
X0057226Y0030646*
G37*
G36*
X0056972D02*
X0056785Y0030569D01*
X0056629Y0030413*
X0056552Y0030226*
X0056972*
Y0030646*
G37*
G36*
X0057646Y0029972D02*
X0057226D01*
Y0029552*
X0057413Y0029629*
X0057569Y0029785*
X0057646Y0029972*
G37*
G36*
X0056972D02*
X0056552D01*
X0056629Y0029785*
X0056785Y0029629*
X0056972Y0029552*
Y0029972*
G37*
G36*
X0040279Y0030099D02*
X0040119D01*
X0039972Y0030038*
X003986Y0029926*
X0039799Y0029779*
Y0029619*
X003986Y0029472*
X0039972Y002936*
X0040119Y0029299*
X0040279*
X0040426Y002936*
X0040538Y0029472*
X0040599Y0029619*
Y0029779*
X0040538Y0029926*
X0040426Y0030038*
X0040279Y0030099*
G37*
G36*
X0053854Y0030074D02*
X0053694D01*
X0053547Y0030013*
X0053435Y0029901*
X0053374Y0029754*
Y0029594*
X0053435Y0029447*
X0053547Y0029335*
X0053694Y0029274*
X0053854*
X0054001Y0029335*
X0054113Y0029447*
X0054174Y0029594*
Y0029754*
X0054113Y0029901*
X0054001Y0030013*
X0053854Y0030074*
G37*
G36*
X0064479Y0029899D02*
X0064319D01*
X0064172Y0029838*
X006406Y0029726*
X0063999Y0029579*
Y0029419*
X006406Y0029272*
X0064172Y002916*
X0064319Y0029099*
X0064479*
X0064626Y002916*
X0064738Y0029272*
X0064799Y0029419*
Y0029579*
X0064738Y0029726*
X0064626Y0029838*
X0064479Y0029899*
G37*
G36*
X0030603Y0029803D02*
X0030443D01*
X0030296Y0029742*
X0030184Y002963*
X0030123Y0029483*
Y0029324*
X0030184Y0029177*
X0030296Y0029064*
X0030443Y0029003*
X0030603*
X003075Y0029064*
X0030862Y0029177*
X0030923Y0029324*
Y0029483*
X0030862Y002963*
X003075Y0029742*
X0030603Y0029803*
G37*
G36*
X0041426Y0029246D02*
Y0028826D01*
X0041846*
X0041769Y0029013*
X0041613Y0029169*
X0041426Y0029246*
G37*
G36*
X0041172D02*
X0040985Y0029169D01*
X0040829Y0029013*
X0040752Y0028826*
X0041172*
Y0029246*
G37*
G36*
X0058079Y0029599D02*
X0057919D01*
X0057772Y0029538*
X005766Y0029426*
X0057599Y0029279*
Y0029119*
X005766Y0028972*
X0057772Y002886*
X0057919Y0028799*
X0058079*
X0058226Y002886*
X0058338Y0028972*
X0058399Y0029119*
Y0029279*
X0058338Y0029426*
X0058226Y0029538*
X0058079Y0029599*
G37*
G36*
X0033779Y0029199D02*
X0033619D01*
X0033472Y0029138*
X003336Y0029026*
X0033299Y0028879*
Y0028719*
X003336Y0028572*
X0033472Y002846*
X0033619Y0028399*
X0033779*
X0033926Y002846*
X0034038Y0028572*
X0034099Y0028719*
Y0028879*
X0034038Y0029026*
X0033926Y0029138*
X0033779Y0029199*
G37*
G36*
X0022926Y0028646D02*
Y0028226D01*
X0023346*
X0023269Y0028413*
X0023114Y0028569*
X0022926Y0028646*
G37*
G36*
X0022672D02*
X0022485Y0028569D01*
X0022329Y0028413*
X0022252Y0028226*
X0022672*
Y0028646*
G37*
G36*
X0041846Y0028572D02*
X0041426D01*
Y0028152*
X0041613Y0028229*
X0041769Y0028385*
X0041846Y0028572*
G37*
G36*
X0041172D02*
X0040752D01*
X0040829Y0028385*
X0040985Y0028229*
X0041172Y0028152*
Y0028572*
G37*
G36*
X0031159Y0028739D02*
X0030999D01*
X0030852Y0028678*
X003074Y0028566*
X0030679Y0028419*
Y0028259*
X003074Y0028112*
X0030852Y0028*
X0030999Y002794*
X0031159*
X0031306Y0028*
X0031418Y0028112*
X0031479Y0028259*
Y0028419*
X0031418Y0028566*
X0031306Y0028678*
X0031159Y0028739*
G37*
G36*
X0023346Y0027972D02*
X0022926D01*
Y0027552*
X0023114Y0027629*
X0023269Y0027785*
X0023346Y0027972*
G37*
G36*
X0022672D02*
X0022252D01*
X0022329Y0027785*
X0022485Y0027629*
X0022672Y0027552*
Y0027972*
G37*
G36*
X0028299Y0028099D02*
X0028139D01*
X0027992Y0028038*
X002788Y0027926*
X0027819Y0027779*
Y0027619*
X002788Y0027472*
X0027992Y002736*
X0028139Y0027299*
X0028299*
X0028446Y002736*
X0028558Y0027472*
X0028619Y0027619*
Y0027779*
X0028558Y0027926*
X0028446Y0028038*
X0028299Y0028099*
G37*
G36*
X0035033Y0028072D02*
X0034874D01*
X0034727Y0028011*
X0034615Y0027898*
X0034554Y0027751*
Y0027592*
X0034615Y0027445*
X0034727Y0027333*
X0034874Y0027272*
X0035033*
X003518Y0027333*
X0035293Y0027445*
X0035354Y0027592*
Y0027751*
X0035293Y0027898*
X003518Y0028011*
X0035033Y0028072*
G37*
G36*
X0048279Y0027224D02*
X0048119D01*
X0047972Y0027163*
X004786Y0027051*
X0047799Y0026904*
Y0026744*
X004786Y0026597*
X0047972Y0026485*
X0048119Y0026424*
X0048279*
X0048426Y0026485*
X0048538Y0026597*
X0048599Y0026744*
Y0026904*
X0048538Y0027051*
X0048426Y0027163*
X0048279Y0027224*
G37*
G36*
X0041498Y0026771D02*
X0041339D01*
X0041192Y002671*
X0041079Y0026597*
X0041018Y002645*
Y0026291*
X0041079Y0026144*
X0041192Y0026032*
X0041339Y0025971*
X0041498*
X0041645Y0026032*
X0041757Y0026144*
X0041818Y0026291*
Y002645*
X0041757Y0026597*
X0041645Y002671*
X0041498Y0026771*
G37*
G36*
X004043Y0026481D02*
X0040271D01*
X0040124Y002642*
X0040011Y0026308*
X0039951Y0026162*
Y0026001*
X0040011Y0025854*
X0040124Y0025742*
X0040271Y0025681*
X004043*
X0040577Y0025742*
X004069Y0025854*
X0040751Y0026001*
Y0026162*
X004069Y0026308*
X0040577Y002642*
X004043Y0026481*
G37*
G36*
X0033978Y0026023D02*
X0033819D01*
X0033672Y0025962*
X003356Y0025849*
X0033499Y0025702*
Y0025543*
X003356Y0025396*
X0033672Y0025284*
X0033819Y0025223*
X0033978*
X0034125Y0025284*
X0034238Y0025396*
X0034299Y0025543*
Y0025702*
X0034238Y0025849*
X0034125Y0025962*
X0033978Y0026023*
G37*
G36*
X0063354Y0025864D02*
X0063195D01*
X0063048Y0025803*
X0062935Y002569*
X0062874Y0025543*
Y0025384*
X0062935Y0025237*
X0063048Y0025125*
X0063195Y0025064*
X0063354*
X0063501Y0025125*
X0063613Y0025237*
X0063674Y0025384*
Y0025543*
X0063613Y002569*
X0063501Y0025803*
X0063354Y0025864*
G37*
G36*
X0049926Y0025146D02*
Y0024726D01*
X0050346*
X0050269Y0024913*
X0050113Y0025069*
X0049926Y0025146*
G37*
G36*
X0049672D02*
X0049485Y0025069D01*
X0049329Y0024913*
X0049252Y0024726*
X0049672*
Y0025146*
G37*
G36*
X0047229Y0025249D02*
X0047069D01*
X0046922Y0025188*
X004681Y0025076*
X0046749Y0024929*
Y0024769*
X004681Y0024622*
X0046922Y0024511*
X0046851Y0024413*
X0046704Y0024474*
X0046544*
X0046397Y0024413*
X0046285Y0024301*
X0046224Y0024154*
Y0023994*
X0046285Y0023847*
X0046397Y0023735*
X0046544Y0023674*
X0046704*
X0046851Y0023735*
X0046963Y0023847*
X0047024Y0023994*
Y0024154*
X0046963Y0024301*
X0046851Y0024412*
X0046922Y0024511*
X0047069Y0024449*
X0047229*
X0047376Y0024511*
X0047488Y0024622*
X0047549Y0024769*
Y0024929*
X0047488Y0025076*
X0047376Y0025188*
X0047229Y0025249*
G37*
G36*
X0035826Y0024546D02*
Y0024126D01*
X0036246*
X0036169Y0024313*
X0036013Y0024469*
X0035826Y0024546*
G37*
G36*
X0035572D02*
X0035385Y0024469D01*
X0035229Y0024313*
X0035152Y0024126*
X0035572*
Y0024546*
G37*
G36*
X0050346Y0024472D02*
X0049926D01*
Y0024052*
X0050113Y002413*
X0050269Y0024285*
X0050346Y0024472*
G37*
G36*
X0049672D02*
X0049252D01*
X0049329Y0024285*
X0049485Y002413*
X0049672Y0024052*
Y0024472*
G37*
G36*
X0036246Y0023872D02*
X0035826D01*
Y0023452*
X0036013Y0023529*
X0036169Y0023685*
X0036246Y0023872*
G37*
G36*
X0035572D02*
X0035152D01*
X0035229Y0023685*
X0035385Y0023529*
X0035572Y0023452*
Y0023872*
G37*
G36*
X0058126Y0023846D02*
Y0023426D01*
X0058547*
X0058469Y0023613*
X0058313Y0023769*
X0058126Y0023846*
G37*
G36*
X0057872D02*
X0057685Y0023769D01*
X0057529Y0023613*
X0057452Y0023426*
X0057872*
Y0023846*
G37*
G36*
X0036879Y0023599D02*
X0036719D01*
X0036572Y0023538*
X003646Y0023426*
X0036399Y0023279*
Y0023119*
X003646Y0022972*
X0036572Y002286*
X0036719Y0022799*
X0036879*
X0037026Y002286*
X0037138Y0022972*
X0037199Y0023119*
Y0023279*
X0037138Y0023426*
X0037026Y0023538*
X0036879Y0023599*
G37*
G36*
X0058547Y0023172D02*
X0058126D01*
Y0022752*
X0058313Y0022829*
X0058469Y0022985*
X0058547Y0023172*
G37*
G36*
X0057872D02*
X0057452D01*
X0057529Y0022985*
X0057685Y0022829*
X0057872Y0022752*
Y0023172*
G37*
G36*
X0034679Y0023499D02*
X0034519D01*
X0034372Y0023438*
X003426Y0023326*
X0034199Y0023179*
Y0023019*
X003426Y0022872*
X0034372Y002276*
X0034519Y0022699*
X0034679*
X0034826Y002276*
X0034938Y0022872*
X0034999Y0023019*
Y0023179*
X0034938Y0023326*
X0034826Y0023438*
X0034679Y0023499*
G37*
G36*
X0046804Y0023303D02*
X0046644D01*
X0046497Y0023242*
X0046385Y002313*
X0046324Y0022983*
Y0022824*
X0046385Y0022677*
X0046497Y0022564*
X0046644Y0022503*
X0046804*
X0046951Y0022564*
X0047063Y0022677*
X0047124Y0022824*
Y0022983*
X0047063Y002313*
X0046951Y0023242*
X0046804Y0023303*
G37*
G36*
X0055979Y0023074D02*
X0055819D01*
X0055672Y0023013*
X005556Y0022901*
X0055499Y0022754*
Y0022594*
X005556Y0022447*
X0055672Y0022335*
X0055819Y0022274*
X0055979*
X0056126Y0022335*
X0056238Y0022447*
X0056299Y0022594*
Y0022754*
X0056238Y0022901*
X0056126Y0023013*
X0055979Y0023074*
G37*
G36*
X0064179Y0022499D02*
X0064019D01*
X0063872Y0022438*
X006376Y0022326*
X0063699Y0022179*
Y0022019*
X006376Y0021872*
X0063872Y002176*
X0064019Y0021699*
X0064179*
X0064326Y002176*
X0064438Y0021872*
X0064499Y0022019*
Y0022179*
X0064438Y0022326*
X0064326Y0022438*
X0064179Y0022499*
G37*
G36*
X0043126Y0021996D02*
Y0021576D01*
X0043546*
X0043469Y0021763*
X0043313Y0021919*
X0043126Y0021996*
G37*
G36*
X0042872D02*
X0042685Y0021919D01*
X0042529Y0021763*
X0042452Y0021576*
X0042872*
Y0021996*
G37*
G36*
X0027372Y0021746D02*
X0027185Y0021669D01*
X0027029Y0021513*
X0026952Y0021326*
X0027372*
Y0021746*
G37*
G36*
X0051079Y0024899D02*
X0050919D01*
X0050772Y0024838*
X005066Y0024726*
X0050599Y0024579*
Y0024419*
X005066Y0024272*
X0050772Y002416*
X0050841Y0024131*
X0050816Y0024004*
X0050806*
X0050659Y0023943*
X0050547Y0023831*
X0050486Y0023684*
Y0023525*
X0050547Y0023378*
X0050578Y0023346*
X0050641Y0023246*
X0050578Y002318*
X005053Y0023131*
X0050469Y0022984*
Y0022825*
X005053Y0022678*
X0050555Y0022653*
X0050608Y002254*
X0050495Y0022427*
X0050434Y002228*
Y0022121*
X0050495Y0021974*
X0050608Y0021861*
X005072Y0021815*
X0050782Y0021683*
X0050776Y0021669*
Y002151*
X0050837Y0021363*
X0050949Y002125*
X0051096Y0021189*
X0051255*
X0051402Y002125*
X0051515Y0021363*
X0051576Y002151*
Y0021669*
X0051515Y0021816*
X0051402Y0021929*
X0051291Y0021975*
X0051229Y0022107*
X0051234Y0022121*
Y002228*
X0051174Y0022427*
X0051148Y0022452*
X0051095Y0022566*
X0051208Y0022678*
X0051269Y0022825*
Y0022984*
X0051208Y0023131*
X0051176Y0023163*
X0051114Y0023263*
X0051176Y0023329*
X0051225Y0023378*
X0051286Y0023525*
Y0023684*
X0051225Y0023831*
X0051112Y0023943*
X0051043Y0023972*
X0051069Y0024099*
X0051079*
X0051226Y002416*
X0051338Y0024272*
X0051399Y0024419*
Y0024579*
X0051338Y0024726*
X0051226Y0024838*
X0051079Y0024899*
G37*
G36*
X0087179Y0059799D02*
X0087019D01*
X0086872Y0059738*
X008676Y0059626*
X0086699Y0059479*
Y0059319*
X008676Y0059172*
X0086872Y005906*
X0087019Y0058999*
X0087179*
X0087326Y005906*
X0087438Y0059172*
X0087499Y0059319*
Y0059479*
X0087438Y0059626*
X0087326Y0059738*
X0087179Y0059799*
G37*
G36*
X0087779Y0050899D02*
X0087619D01*
X0087472Y0050838*
X008736Y0050726*
X0087299Y0050579*
Y0050419*
X008736Y0050272*
X0087472Y005016*
X0087619Y0050099*
X0087779*
X0087926Y005016*
X0088038Y0050272*
X0088099Y0050419*
Y0050579*
X0088038Y0050726*
X0087926Y0050838*
X0087779Y0050899*
G37*
G36*
X0069004Y0039624D02*
X0068844D01*
X0068697Y0039563*
X0068585Y0039451*
X0068524Y0039304*
Y0039144*
X0068585Y0038997*
X0068697Y0038885*
X0068844Y0038824*
X0069004*
X0069151Y0038885*
X0069263Y0038997*
X0069324Y0039144*
Y0039304*
X0069263Y0039451*
X0069151Y0039563*
X0069004Y0039624*
G37*
G36*
X0069179Y0038524D02*
X0069019D01*
X0068872Y0038463*
X006876Y0038351*
X0068699Y0038204*
Y0038044*
X006876Y0037897*
X0068872Y0037785*
X0069019Y0037724*
X0069179*
X0069326Y0037785*
X0069438Y0037897*
X0069499Y0038044*
Y0038204*
X0069438Y0038351*
X0069326Y0038463*
X0069179Y0038524*
G37*
G36*
X0076279Y0036649D02*
X0076119D01*
X0075972Y0036588*
X007586Y0036476*
X0075799Y0036329*
Y0036169*
X007586Y0036022*
X0075972Y003591*
X0076119Y0035849*
X0076279*
X0076426Y003591*
X0076538Y0036022*
X0076599Y0036169*
Y0036329*
X0076538Y0036476*
X0076426Y0036588*
X0076279Y0036649*
G37*
G36*
X0022479Y0035599D02*
X0022319D01*
X0022172Y0035538*
X002206Y0035426*
X0021999Y0035279*
Y0035119*
X002206Y0034972*
X0022172Y003486*
X0022319Y0034799*
X0022479*
X0022626Y003486*
X0022738Y0034972*
X0022799Y0035119*
Y0035279*
X0022738Y0035426*
X0022626Y0035538*
X0022479Y0035599*
G37*
G36*
X0029926Y0034846D02*
Y0034426D01*
X0030346*
X0030269Y0034613*
X0030113Y0034769*
X0029926Y0034846*
G37*
G36*
X0029672D02*
X0029485Y0034769D01*
X0029329Y0034613*
X0029252Y0034426*
X0029672*
Y0034846*
G37*
G36*
X0069504Y0035149D02*
X0069344D01*
X0069197Y0035088*
X0069085Y0034976*
X0069024Y0034829*
Y0034669*
X0069085Y0034522*
X0069197Y003441*
X0069344Y0034349*
X0069504*
X0069651Y003441*
X0069763Y0034522*
X0069824Y0034669*
Y0034829*
X0069763Y0034976*
X0069651Y0035088*
X0069504Y0035149*
G37*
G36*
X0030346Y0034172D02*
X0029926D01*
Y0033752*
X0030113Y0033829*
X0030269Y0033985*
X0030346Y0034172*
G37*
G36*
X0029672D02*
X0029252D01*
X0029329Y0033985*
X0029485Y0033829*
X0029672Y0033752*
Y0034172*
G37*
G36*
X0072801Y0034071D02*
Y0033651D01*
X0073221*
X0073144Y0033838*
X0072988Y0033994*
X0072801Y0034071*
G37*
G36*
X0072547D02*
X007236Y0033994D01*
X0072204Y0033838*
X0072127Y0033651*
X0072547*
Y0034071*
G37*
G36*
X0073221Y0033397D02*
X0072801D01*
Y0032977*
X0072988Y0033054*
X0073144Y003321*
X0073221Y0033397*
G37*
G36*
X0072547D02*
X0072127D01*
X0072204Y003321*
X007236Y0033054*
X0072547Y0032977*
Y0033397*
G37*
G36*
X0021979Y0033499D02*
X0021819D01*
X0021672Y0033438*
X002156Y0033326*
X0021499Y0033179*
Y003302*
X002156Y0032872*
X0021672Y003276*
X0021819Y0032699*
X0021979*
X0022126Y003276*
X0022238Y0032872*
X0022299Y003302*
Y0033179*
X0022238Y0033326*
X0022126Y0033438*
X0021979Y0033499*
G37*
G36*
X0068604Y0032999D02*
X0068444D01*
X0068297Y0032938*
X0068185Y0032826*
X0068124Y0032679*
Y0032519*
X0068185Y0032372*
X0068297Y003226*
X0068444Y0032199*
X0068604*
X0068751Y003226*
X0068863Y0032372*
X0068924Y0032519*
Y0032679*
X0068863Y0032826*
X0068751Y0032938*
X0068604Y0032999*
G37*
G36*
X0078616Y0032799D02*
X0078457D01*
X007831Y0032738*
X0078197Y0032626*
X0078136Y0032479*
Y0032319*
X0078197Y0032172*
X007831Y003206*
X0078457Y0031999*
X0078616*
X0078763Y003206*
X0078876Y0032172*
X0078936Y0032319*
Y0032479*
X0078876Y0032626*
X0078763Y0032738*
X0078616Y0032799*
G37*
G36*
X0076379D02*
X0076219D01*
X0076073Y0032738*
X007596Y0032626*
X0075899Y0032479*
Y0032319*
X007596Y0032172*
X0076073Y003206*
X0076219Y0031999*
X0076379*
X0076526Y003206*
X0076638Y0032172*
X0076699Y0032319*
Y0032479*
X0076638Y0032626*
X0076526Y0032738*
X0076379Y0032799*
G37*
G36*
X0031772Y0032346D02*
X0031585Y0032269D01*
X0031429Y0032113*
X0031352Y0031926*
X0031772*
Y0032346*
G37*
G36*
X0069454Y0031943D02*
X0069294D01*
X0069147Y0031882*
X0069035Y0031769*
X0068974Y0031623*
Y0031463*
X0069035Y0031316*
X0069114Y0031237*
X0069147Y0031204*
X0069215Y0031175*
X0069189Y0031049*
X0069186*
X0069069*
X0068922Y0030988*
X006881Y0030876*
X0068749Y0030729*
Y0030569*
X006881Y0030422*
X0068922Y003031*
X0069069Y0030249*
X0069229*
X0069376Y003031*
X0069488Y0030422*
X0069549Y0030569*
Y0030729*
X0069488Y0030876*
X0069409Y0030955*
X0069376Y0030988*
X0069309Y0031017*
X0069334Y0031143*
X0069337*
X0069454*
X0069601Y0031204*
X0069713Y0031316*
X0069774Y0031463*
Y0031623*
X0069713Y0031769*
X0069601Y0031882*
X0069454Y0031943*
G37*
G36*
X0074551Y0031421D02*
Y0031001D01*
X0074971*
X0074894Y0031188*
X0074738Y0031344*
X0074551Y0031421*
G37*
G36*
X0074297D02*
X007411Y0031344D01*
X0073954Y0031188*
X0073877Y0031001*
X0074297*
Y0031421*
G37*
G36*
X0074971Y0030747D02*
X0074551D01*
Y0030327*
X0074738Y0030404*
X0074894Y003056*
X0074971Y0030747*
G37*
G36*
X0074297D02*
X0073877D01*
X0073954Y003056*
X007411Y0030404*
X0074297Y0030327*
Y0030747*
G37*
G36*
X0075513Y0029114D02*
X0075354D01*
X0075207Y0029053*
X0075095Y002894*
X0075034Y0028793*
Y0028634*
X0075095Y0028487*
X0075207Y0028374*
X0075354Y0028314*
X0075513*
X007566Y0028374*
X0075773Y0028487*
X0075834Y0028634*
Y0028793*
X0075773Y002894*
X007566Y0029053*
X0075513Y0029114*
G37*
G36*
X0068279Y0028399D02*
X0068119D01*
X0067972Y0028338*
X006786Y0028226*
X0067799Y0028079*
Y0027919*
X006786Y0027772*
X0067972Y002766*
X0068119Y0027599*
X0068279*
X0068426Y002766*
X0068538Y0027772*
X0068599Y0027919*
Y0028079*
X0068538Y0028226*
X0068426Y0028338*
X0068279Y0028399*
G37*
G36*
X0075779Y0028199D02*
X0075619D01*
X0075472Y0028138*
X007536Y0028026*
X0075299Y0027879*
Y0027719*
X007536Y0027572*
X0075472Y002746*
X0075619Y0027399*
X0075779*
X0075926Y002746*
X0076038Y0027572*
X0076099Y0027719*
Y0027879*
X0076038Y0028026*
X0075926Y0028138*
X0075779Y0028199*
G37*
G36*
X0074549Y0027488D02*
X0074389D01*
X0074242Y0027427*
X007413Y0027315*
X0074069Y0027168*
Y0027008*
X007413Y0026861*
X0074242Y0026749*
X0074389Y0026688*
X0074549*
X0074695Y0026749*
X0074808Y0026861*
X0074869Y0027008*
Y0027168*
X0074808Y0027315*
X0074695Y0027427*
X0074549Y0027488*
G37*
G36*
X0069953Y0026903D02*
X0069794D01*
X0069647Y0026842*
X0069534Y002673*
X0069473Y0026583*
Y0026424*
X0069534Y0026277*
X0069647Y0026164*
X0069794Y0026103*
X0069953*
X00701Y0026164*
X0070213Y0026277*
X0070273Y0026424*
Y0026583*
X0070213Y002673*
X00701Y0026842*
X0069953Y0026903*
G37*
G36*
X006839Y0025803D02*
X006823D01*
X0068083Y0025742*
X0067971Y002563*
X006791Y0025483*
Y0025324*
X0067971Y0025177*
X0068083Y0025064*
X006823Y0025003*
X006839*
X0068537Y0025064*
X0068649Y0025177*
X006871Y0025324*
Y0025483*
X0068649Y002563*
X0068537Y0025742*
X006839Y0025803*
G37*
G36*
X0068939Y002462D02*
X006878D01*
X0068633Y0024559*
X0068521Y0024446*
X006846Y0024299*
Y002414*
X0068521Y0023993*
X0068633Y0023881*
X006878Y002382*
X0068939*
X0069086Y0023881*
X0069199Y0023993*
X006926Y002414*
Y0024299*
X0069199Y0024446*
X0069086Y0024559*
X0068939Y002462*
G37*
G36*
X0077256Y0024301D02*
X0077097D01*
X007695Y0024241*
X0076837Y0024128*
X0076776Y0023981*
Y0023822*
X0076837Y0023675*
X007695Y0023562*
X0077097Y0023501*
X0077256*
X0077403Y0023562*
X0077516Y0023675*
X0077576Y0023822*
Y0023981*
X0077516Y0024128*
X0077403Y0024241*
X0077256Y0024301*
G37*
G36*
X0074029Y0024199D02*
X0073869D01*
X0073722Y0024138*
X007361Y0024026*
X0073549Y0023879*
Y0023719*
X007361Y0023572*
X0073722Y002346*
X0073869Y0023399*
X0074029*
X0074176Y002346*
X0074288Y0023572*
X0074349Y0023719*
Y0023879*
X0074288Y0024026*
X0074176Y0024138*
X0074029Y0024199*
G37*
G36*
X0078541Y0023564D02*
X0078381D01*
X0078234Y0023503*
X0078122Y002339*
X0078061Y0023243*
Y0023084*
X0078122Y0022937*
X0078234Y0022825*
X0078381Y0022764*
X0078541*
X0078688Y0022825*
X00788Y0022937*
X0078861Y0023084*
Y0023243*
X00788Y002339*
X0078688Y0023503*
X0078541Y0023564*
G37*
G36*
X0018779Y0023299D02*
X0018619D01*
X0018472Y0023238*
X001836Y0023126*
X0018299Y0022979*
Y0022819*
X001836Y0022672*
X0018472Y002256*
X0018619Y0022499*
X0018779*
X0018926Y002256*
X0019038Y0022672*
X0019099Y0022819*
Y0022979*
X0019038Y0023126*
X0018926Y0023238*
X0018779Y0023299*
G37*
G36*
X0069671Y0023068D02*
X0069512D01*
X0069365Y0023007*
X0069253Y0022895*
X0069192Y0022748*
Y0022589*
X0069253Y0022442*
X0069365Y0022329*
X0069512Y0022268*
X0069671*
X0069818Y0022329*
X0069931Y0022442*
X0069992Y0022589*
Y0022748*
X0069931Y0022895*
X0069818Y0023007*
X0069671Y0023068*
G37*
G36*
X0068681Y0023018D02*
X0068522D01*
X0068375Y0022957*
X0068262Y0022844*
X0068201Y0022697*
Y0022538*
X0068262Y0022391*
X0068375Y0022278*
X0068522Y0022218*
X0068681*
X0068828Y0022278*
X006894Y0022391*
X0069001Y0022538*
Y0022697*
X006894Y0022844*
X0068828Y0022957*
X0068681Y0023018*
G37*
G36*
X0076364Y0023014D02*
X0076205D01*
X0076058Y0022953*
X0075946Y002284*
X0075884Y0022693*
Y0022534*
X0075946Y0022387*
X0076058Y0022275*
X0076205Y0022214*
X0076364*
X0076511Y0022275*
X0076623Y0022387*
X0076684Y0022534*
Y0022693*
X0076623Y002284*
X0076511Y0022953*
X0076364Y0023014*
G37*
G36*
X0073504Y0022074D02*
X0073344D01*
X0073197Y0022013*
X0073085Y0021901*
X0073025Y0021754*
Y0021594*
X0073085Y0021447*
X0073197Y0021336*
X0073344Y0021274*
X0073504*
X0073651Y0021336*
X0073763Y0021447*
X0073824Y0021594*
Y0021754*
X0073763Y0021901*
X0073651Y0022013*
X0073504Y0022074*
G37*
G36*
X0018879Y0021599D02*
X0018719D01*
X0018572Y0021538*
X001846Y0021426*
X0018399Y0021279*
Y0021119*
X001846Y0020972*
X0018572Y002086*
X0018719Y0020799*
X0018879*
X0019026Y002086*
X0019138Y0020972*
X0019199Y0021119*
Y0021279*
X0019138Y0021426*
X0019026Y0021538*
X0018879Y0021599*
G37*
G36*
X0019079Y0019999D02*
X0018919D01*
X0018772Y0019939*
X001866Y0019826*
X0018599Y0019679*
Y0019519*
X001866Y0019372*
X0018772Y001926*
X0018919Y0019199*
X0019079*
X0019226Y001926*
X0019338Y0019372*
X0019399Y0019519*
Y0019679*
X0019338Y0019826*
X0019226Y0019939*
X0019079Y0019999*
G37*
G36*
X0017879D02*
X0017719D01*
X0017572Y0019939*
X001746Y0019826*
X0017399Y0019679*
Y0019519*
X001746Y0019372*
X0017572Y001926*
X0017719Y0019199*
X0017879*
X0018026Y001926*
X0018138Y0019372*
X0018199Y0019519*
Y0019679*
X0018138Y0019826*
X0018026Y0019939*
X0017879Y0019999*
G37*
G36*
X0030979Y0019599D02*
X0030819D01*
X0030672Y0019538*
X003056Y0019426*
X0030499Y0019279*
Y0019119*
X003056Y0018972*
X0030672Y001886*
X0030819Y0018799*
X0030979*
X0031126Y001886*
X0031238Y0018972*
X0031299Y0019119*
Y0019279*
X0031238Y0019426*
X0031126Y0019538*
X0030979Y0019599*
G37*
G36*
X0072117Y0019424D02*
X0071958D01*
X0071811Y0019363*
X0071699Y0019251*
X0071638Y0019104*
Y0018944*
X0071699Y0018797*
X0071811Y0018685*
X0071958Y0018624*
X0072117*
X0072264Y0018685*
X0072377Y0018797*
X0072438Y0018944*
Y0019104*
X0072377Y0019251*
X0072264Y0019363*
X0072117Y0019424*
G37*
G36*
X0056079Y0019199D02*
X0055919D01*
X0055772Y0019138*
X005566Y0019026*
X0055599Y0018879*
Y0018719*
X005566Y0018572*
X0055772Y001846*
X0055919Y0018399*
X0056079*
X0056226Y001846*
X0056338Y0018572*
X0056399Y0018719*
Y0018879*
X0056338Y0019026*
X0056226Y0019138*
X0056079Y0019199*
G37*
G36*
X0070929Y0018874D02*
X0070769D01*
X0070622Y0018813*
X007051Y0018701*
X0070449Y0018554*
Y0018394*
X007051Y0018247*
X0070622Y0018135*
X0070769Y0018074*
X0070929*
X0071076Y0018135*
X0071188Y0018247*
X0071249Y0018394*
Y0018554*
X0071188Y0018701*
X0071076Y0018813*
X0070929Y0018874*
G37*
G36*
X0078468Y001871D02*
X0078309D01*
X0078162Y0018649*
X0078049Y0018536*
X0077988Y0018389*
Y001823*
X0078049Y0018083*
X0078162Y0017971*
X0078309Y001791*
X0078468*
X0078615Y0017971*
X0078727Y0018083*
X0078788Y001823*
Y0018389*
X0078727Y0018536*
X0078615Y0018649*
X0078468Y001871*
G37*
G36*
X0052529Y0018674D02*
X0052369D01*
X0052222Y0018613*
X005211Y0018501*
X0052049Y0018354*
Y0018194*
X005211Y0018047*
X0052222Y0017935*
X0052369Y0017874*
X0052529*
X0052676Y0017935*
X0052788Y0018047*
X0052849Y0018194*
Y0018354*
X0052788Y0018501*
X0052676Y0018613*
X0052529Y0018674*
G37*
G36*
X0048604D02*
X0048444D01*
X0048297Y0018613*
X0048185Y0018501*
X0048124Y0018354*
Y0018194*
X0048185Y0018047*
X0048297Y0017935*
X0048444Y0017874*
X0048604*
X0048751Y0017935*
X0048863Y0018047*
X0048924Y0018194*
Y0018354*
X0048863Y0018501*
X0048751Y0018613*
X0048604Y0018674*
G37*
G36*
X0074574Y0018598D02*
X0074414D01*
X0074267Y0018537*
X0074155Y0018425*
X0074094Y0018278*
Y0018118*
X0074155Y0017971*
X0074267Y0017859*
X0074414Y0017798*
X0074574*
X0074721Y0017859*
X0074833Y0017971*
X0074894Y0018118*
Y0018278*
X0074833Y0018425*
X0074721Y0018537*
X0074574Y0018598*
G37*
G36*
X0069088Y001842D02*
X0068928D01*
X0068781Y0018359*
X0068669Y0018247*
X0068608Y00181*
Y0017941*
X0068669Y0017794*
X0068781Y0017681*
X0068928Y001762*
X0069088*
X0069234Y0017681*
X0069347Y0017794*
X0069408Y0017941*
Y00181*
X0069347Y0018247*
X0069234Y0018359*
X0069088Y001842*
G37*
G36*
X0056679Y0018299D02*
X0056519D01*
X0056372Y0018238*
X0056261Y0018126*
X0056199Y0017979*
Y0017819*
X0056261Y0017672*
X0056372Y001756*
X0056519Y0017499*
X0056679*
X0056826Y001756*
X0056938Y0017672*
X0056999Y0017819*
Y0017979*
X0056938Y0018126*
X0056826Y0018238*
X0056679Y0018299*
G37*
G36*
X0076179Y0017949D02*
X0076019D01*
X0075872Y0017888*
X007576Y0017776*
X0075699Y0017629*
Y0017469*
X007576Y0017322*
X0075872Y001721*
X0076019Y0017149*
X0076179*
X0076327Y001721*
X0076438Y0017322*
X0076499Y0017469*
Y0017629*
X0076438Y0017776*
X0076327Y0017888*
X0076179Y0017949*
G37*
G36*
X0079679Y0017899D02*
X0079519D01*
X0079372Y0017838*
X007926Y0017726*
X0079199Y0017579*
Y0017419*
X007926Y0017272*
X0079372Y001716*
X0079519Y0017099*
X0079679*
X0079826Y001716*
X0079938Y0017272*
X0079999Y0017419*
Y0017579*
X0079938Y0017726*
X0079826Y0017838*
X0079679Y0017899*
G37*
G36*
X0067621Y0018849D02*
X0067377D01*
X0067142Y0018786*
X0066931Y0018664*
X0066759Y0018492*
X0066637Y0018281*
X0066574Y0018046*
Y0017802*
X0066637Y0017567*
X0066759Y0017356*
X0066931Y0017184*
X0067142Y0017062*
X0067377Y0016999*
X0067621*
X0067856Y0017062*
X0068067Y0017184*
X0068239Y0017356*
X0068361Y0017567*
X0068424Y0017802*
Y0018046*
X0068361Y0018281*
X0068239Y0018492*
X0068067Y0018664*
X0067856Y0018786*
X0067621Y0018849*
G37*
G36*
X0078079Y0017399D02*
X0077919D01*
X0077772Y0017338*
X007766Y0017226*
X0077599Y0017079*
Y0016919*
X0077652Y0016793*
X007766Y0016772*
X0077562Y0016701*
X0077553Y0016711*
X0077526Y0016738*
X0077379Y0016799*
X0077219*
X0077072Y0016738*
X007696Y0016626*
X0076899Y0016479*
Y0016319*
X007696Y0016172*
X0077072Y001606*
X0077219Y0015999*
X0077379*
X0077526Y001606*
X0077638Y0016172*
X0077699Y0016319*
Y0016479*
X0077646Y0016605*
X0077638Y0016626*
X0077736Y0016697*
X0077745Y0016687*
X0077772Y001666*
X0077919Y0016599*
X0078079*
X0078226Y001666*
X0078338Y0016772*
X0078399Y0016919*
Y0017079*
X0078338Y0017226*
X0078226Y0017338*
X0078079Y0017399*
G37*
G36*
X0071197Y0017203D02*
X0071038D01*
X0070891Y0017142*
X0070778Y0017029*
X0070717Y0016882*
Y0016723*
X0070778Y0016576*
X0070891Y0016464*
X0071038Y0016403*
X0071197*
X0071344Y0016464*
X0071457Y0016576*
X0071517Y0016723*
Y0016882*
X0071457Y0017029*
X0071344Y0017142*
X0071197Y0017203*
G37*
G36*
X007151Y0015915D02*
X0071351D01*
X0071204Y0015854*
X0071091Y0015742*
X007103Y0015595*
Y0015436*
X0071091Y0015289*
X0071204Y0015176*
X0071351Y0015115*
X007151*
X0071657Y0015176*
X0071769Y0015289*
X007183Y0015436*
Y0015595*
X0071769Y0015742*
X0071657Y0015854*
X007151Y0015915*
G37*
G36*
X0072821Y0011892D02*
X0072662D01*
X0072515Y0011832*
X0072402Y0011719*
X0072341Y0011572*
Y0011413*
X0072402Y0011266*
X0072515Y0011153*
X0072662Y0011092*
X0072821*
X0072968Y0011153*
X007308Y0011266*
X0073141Y0011413*
Y0011572*
X007308Y0011719*
X0072968Y0011832*
X0072821Y0011892*
G37*
G36*
X0075138Y0011693D02*
X0074979D01*
X0074832Y0011633*
X0074719Y001152*
X0074658Y0011373*
Y0011214*
X0074719Y0011067*
X0074832Y0010954*
X0074979Y0010893*
X0075138*
X0075285Y0010954*
X0075397Y0011067*
X0075458Y0011214*
Y0011373*
X0075397Y001152*
X0075285Y0011633*
X0075138Y0011693*
G37*
G36*
X0070559Y0010879D02*
Y0010459D01*
X0070979*
X0070901Y0010646*
X0070746Y0010801*
X0070559Y0010879*
G37*
G36*
X0070305D02*
X0070118Y0010801D01*
X0069962Y0010646*
X0069885Y0010459*
X0070305*
Y0010879*
G37*
G36*
X0067191Y0010922D02*
X0067031D01*
X0066884Y001086*
X0066772Y0010748*
X0066711Y0010601*
Y0010441*
X0066772Y0010294*
X0066884Y0010182*
X0067031Y0010121*
X0067191*
X0067338Y0010182*
X006745Y0010294*
X0067511Y0010441*
Y0010601*
X006745Y0010748*
X0067338Y001086*
X0067191Y0010922*
G37*
G36*
X0039595Y0015573D02*
X0039175D01*
Y0015153*
X0039362Y0015231*
X0039517Y0015386*
X0039595Y0015573*
G37*
G36*
X0038921D02*
X0038501D01*
X0038578Y0015386*
X0038735Y0015231*
X0038921Y0015153*
Y0015573*
G37*
G36*
X0089856Y0013924D02*
X0089697D01*
X008955Y0013864*
X0089437Y0013751*
X0089376Y0013604*
Y0013445*
X0089437Y0013298*
X008955Y0013185*
X0089697Y0013124*
X0089856*
X0090003Y0013185*
X0090116Y0013298*
X0090176Y0013445*
Y0013604*
X0090116Y0013751*
X0090003Y0013864*
X0089856Y0013924*
G37*
G36*
X0043379Y0011299D02*
X0043219D01*
X0043072Y0011238*
X004296Y0011126*
X0042899Y0010979*
Y0010819*
X004296Y0010672*
X0043072Y001056*
X0043219Y0010499*
X0043379*
X0043526Y001056*
X0043638Y0010672*
X0043699Y0010819*
Y0010979*
X0043638Y0011126*
X0043526Y0011238*
X0043379Y0011299*
G37*
G36*
X0089677Y001006D02*
X0089518D01*
X0089371Y0009999*
X0089258Y0009887*
X0089197Y000974*
Y0009581*
X0089258Y0009434*
X0089371Y0009321*
X0089518Y000926*
X0089677*
X0089824Y0009321*
X0089936Y0009434*
X0089997Y0009581*
Y000974*
X0089936Y0009887*
X0089824Y0009999*
X0089677Y001006*
G37*
G36*
X0034379Y0007299D02*
X0034219D01*
X0034072Y0007239*
X003396Y0007126*
X0033899Y0006979*
Y0006819*
X003396Y0006672*
X0034072Y000656*
X0034219Y0006499*
X0034379*
X0034526Y000656*
X0034638Y0006672*
X0034699Y0006819*
Y0006979*
X0034638Y0007126*
X0034526Y0007239*
X0034379Y0007299*
G37*
G36*
X0034779Y0003199D02*
X0034619D01*
X0034472Y0003138*
X003436Y0003026*
X0034299Y0002879*
Y0002719*
X003436Y0002572*
X0034472Y000246*
X0034619Y0002399*
X0034779*
X0034926Y000246*
X0035038Y0002572*
X0035099Y0002719*
Y0002879*
X0035038Y0003026*
X0034926Y0003138*
X0034779Y0003199*
G37*
G36*
X0082544Y0003949D02*
X0082314D01*
X0082091Y0003889*
X0081892Y0003774*
X0081729Y0003611*
X0081614Y0003412*
X0081554Y0003189*
Y0002959*
X0081614Y0002736*
X0081729Y0002537*
X0081892Y0002374*
X0082091Y0002259*
X0082314Y0002199*
X0082544*
X0082767Y0002259*
X0082966Y0002374*
X0083129Y0002537*
X0083244Y0002736*
X0083304Y0002959*
Y0003189*
X0083244Y0003412*
X0083129Y0003611*
X0082966Y0003774*
X0082767Y0003889*
X0082544Y0003949*
G37*
G36*
X0080004D02*
X0079774D01*
X0079551Y0003889*
X0079352Y0003774*
X0079189Y0003611*
X0079074Y0003412*
X0079014Y0003189*
Y0002959*
X0079074Y0002736*
X0079189Y0002537*
X0079352Y0002374*
X0079551Y0002259*
X0079774Y0002199*
X0080004*
X0080227Y0002259*
X0080426Y0002374*
X0080589Y0002537*
X0080704Y0002736*
X0080764Y0002959*
Y0003189*
X0080704Y0003412*
X0080589Y0003611*
X0080426Y0003774*
X0080227Y0003889*
X0080004Y0003949*
G37*
G36*
X0077464D02*
X0077234D01*
X0077011Y0003889*
X0076812Y0003774*
X0076649Y0003611*
X0076534Y0003412*
X0076474Y0003189*
Y0002959*
X0076534Y0002736*
X0076649Y0002537*
X0076812Y0002374*
X0077011Y0002259*
X0077234Y0002199*
X0077464*
X0077687Y0002259*
X0077886Y0002374*
X0078049Y0002537*
X0078164Y0002736*
X0078224Y0002959*
Y0003189*
X0078164Y0003412*
X0078049Y0003611*
X0077886Y0003774*
X0077687Y0003889*
X0077464Y0003949*
G37*
G36*
X0074924D02*
X0074694D01*
X0074471Y0003889*
X0074272Y0003774*
X0074109Y0003611*
X0073994Y0003412*
X0073934Y0003189*
Y0002959*
X0073994Y0002736*
X0074109Y0002537*
X0074272Y0002374*
X0074471Y0002259*
X0074694Y0002199*
X0074924*
X0075147Y0002259*
X0075346Y0002374*
X0075509Y0002537*
X0075624Y0002736*
X0075684Y0002959*
Y0003189*
X0075624Y0003412*
X0075509Y0003611*
X0075346Y0003774*
X0075147Y0003889*
X0074924Y0003949*
G37*
G36*
X0072384D02*
X0072154D01*
X0071931Y0003889*
X0071732Y0003774*
X0071569Y0003611*
X0071454Y0003412*
X0071394Y0003189*
Y0002959*
X0071454Y0002736*
X0071569Y0002537*
X0071732Y0002374*
X0071931Y0002259*
X0072154Y0002199*
X0072384*
X0072607Y0002259*
X0072806Y0002374*
X0072969Y0002537*
X0073084Y0002736*
X0073144Y0002959*
Y0003189*
X0073084Y0003412*
X0072969Y0003611*
X0072806Y0003774*
X0072607Y0003889*
X0072384Y0003949*
G37*
G36*
X0069844D02*
X0069614D01*
X0069391Y0003889*
X0069192Y0003774*
X0069029Y0003611*
X0068914Y0003412*
X0068854Y0003189*
Y0002959*
X0068914Y0002736*
X0069029Y0002537*
X0069192Y0002374*
X0069391Y0002259*
X0069614Y0002199*
X0069844*
X0070067Y0002259*
X0070266Y0002374*
X0070429Y0002537*
X0070544Y0002736*
X0070604Y0002959*
Y0003189*
X0070544Y0003412*
X0070429Y0003611*
X0070266Y0003774*
X0070067Y0003889*
X0069844Y0003949*
G37*
G36*
X0067304D02*
X0067074D01*
X0066851Y0003889*
X0066652Y0003774*
X0066489Y0003611*
X0066374Y0003412*
X0066314Y0003189*
Y0002959*
X0066374Y0002736*
X0066489Y0002537*
X0066652Y0002374*
X0066851Y0002259*
X0067074Y0002199*
X0067304*
X0067527Y0002259*
X0067726Y0002374*
X0067889Y0002537*
X0068004Y0002736*
X0068064Y0002959*
Y0003189*
X0068004Y0003412*
X0067889Y0003611*
X0067726Y0003774*
X0067527Y0003889*
X0067304Y0003949*
G37*
G36*
X0064764D02*
X0064534D01*
X0064311Y0003889*
X0064112Y0003774*
X0063949Y0003611*
X0063834Y0003412*
X0063774Y0003189*
Y0002959*
X0063834Y0002736*
X0063949Y0002537*
X0064112Y0002374*
X0064311Y0002259*
X0064534Y0002199*
X0064764*
X0064987Y0002259*
X0065186Y0002374*
X0065349Y0002537*
X0065464Y0002736*
X0065524Y0002959*
Y0003189*
X0065464Y0003412*
X0065349Y0003611*
X0065186Y0003774*
X0064987Y0003889*
X0064764Y0003949*
G37*
G36*
X0062224D02*
X0061994D01*
X0061771Y0003889*
X0061572Y0003774*
X0061409Y0003611*
X0061294Y0003412*
X0061234Y0003189*
Y0002959*
X0061294Y0002736*
X0061409Y0002537*
X0061572Y0002374*
X0061771Y0002259*
X0061994Y0002199*
X0062224*
X0062447Y0002259*
X0062646Y0002374*
X0062809Y0002537*
X0062924Y0002736*
X0062984Y0002959*
Y0003189*
X0062924Y0003412*
X0062809Y0003611*
X0062646Y0003774*
X0062447Y0003889*
X0062224Y0003949*
G37*
G36*
X0059684D02*
X0059454D01*
X0059231Y0003889*
X0059032Y0003774*
X0058869Y0003611*
X0058754Y0003412*
X0058694Y0003189*
Y0002959*
X0058754Y0002736*
X0058869Y0002537*
X0059032Y0002374*
X0059231Y0002259*
X0059454Y0002199*
X0059684*
X0059907Y0002259*
X0060106Y0002374*
X0060269Y0002537*
X0060384Y0002736*
X0060444Y0002959*
Y0003189*
X0060384Y0003412*
X0060269Y0003611*
X0060106Y0003774*
X0059907Y0003889*
X0059684Y0003949*
G37*
G36*
X0057144D02*
X0056914D01*
X0056691Y0003889*
X0056492Y0003774*
X0056329Y0003611*
X0056214Y0003412*
X0056154Y0003189*
Y0002959*
X0056214Y0002736*
X0056329Y0002537*
X0056492Y0002374*
X0056691Y0002259*
X0056914Y0002199*
X0057144*
X0057367Y0002259*
X0057566Y0002374*
X0057729Y0002537*
X0057844Y0002736*
X0057904Y0002959*
Y0003189*
X0057844Y0003412*
X0057729Y0003611*
X0057566Y0003774*
X0057367Y0003889*
X0057144Y0003949*
G37*
G36*
X0054604D02*
X0054374D01*
X0054151Y0003889*
X0053952Y0003774*
X0053789Y0003611*
X0053674Y0003412*
X0053614Y0003189*
Y0002959*
X0053674Y0002736*
X0053789Y0002537*
X0053952Y0002374*
X0054151Y0002259*
X0054374Y0002199*
X0054604*
X0054827Y0002259*
X0055026Y0002374*
X0055189Y0002537*
X0055304Y0002736*
X0055364Y0002959*
Y0003189*
X0055304Y0003412*
X0055189Y0003611*
X0055026Y0003774*
X0054827Y0003889*
X0054604Y0003949*
G37*
G36*
X0052064D02*
X0051834D01*
X0051611Y0003889*
X0051412Y0003774*
X0051249Y0003611*
X0051134Y0003412*
X0051074Y0003189*
Y0002959*
X0051134Y0002736*
X0051249Y0002537*
X0051412Y0002374*
X0051611Y0002259*
X0051834Y0002199*
X0052064*
X0052287Y0002259*
X0052486Y0002374*
X0052649Y0002537*
X0052764Y0002736*
X0052824Y0002959*
Y0003189*
X0052764Y0003412*
X0052649Y0003611*
X0052486Y0003774*
X0052287Y0003889*
X0052064Y0003949*
G37*
G36*
X0049524D02*
X0049294D01*
X0049071Y0003889*
X0048872Y0003774*
X0048709Y0003611*
X0048594Y0003412*
X0048534Y0003189*
Y0002959*
X0048594Y0002736*
X0048709Y0002537*
X0048872Y0002374*
X0049071Y0002259*
X0049294Y0002199*
X0049524*
X0049747Y0002259*
X0049946Y0002374*
X0050109Y0002537*
X0050224Y0002736*
X0050284Y0002959*
Y0003189*
X0050224Y0003412*
X0050109Y0003611*
X0049946Y0003774*
X0049747Y0003889*
X0049524Y0003949*
G37*
G36*
X0097526Y0021446D02*
Y0021026D01*
X0097946*
X0097869Y0021213*
X0097713Y0021369*
X0097526Y0021446*
G37*
G36*
X0097272D02*
X0097085Y0021369D01*
X0096929Y0021213*
X0096852Y0021026*
X0097272*
Y0021446*
G37*
G36*
X0097946Y0020772D02*
X0097526D01*
Y0020352*
X0097713Y0020429*
X0097869Y0020585*
X0097946Y0020772*
G37*
G36*
X0097272D02*
X0096852D01*
X0096929Y0020585*
X0097085Y0020429*
X0097272Y0020352*
Y0020772*
G37*
G36*
X0100188Y0017374D02*
X010001D01*
X0099838Y0017328*
X0099685Y0017239*
X0099559Y0017113*
X0099537Y0017076*
X0099391*
X0099369Y0017113*
X0099243Y0017239*
X009909Y0017328*
X0098918Y0017374*
X009874*
X0098568Y0017328*
X0098415Y0017239*
X0098289Y0017113*
X00982Y001696*
X0098154Y0016788*
Y001661*
X00982Y0016438*
X0098289Y0016285*
X0098415Y0016159*
X0098452Y0016137*
Y0015991*
X0098415Y0015969*
X0098289Y0015843*
X00982Y001569*
X0098154Y0015518*
Y001534*
X00982Y0015168*
X0098289Y0015015*
X0098415Y0014889*
X0098452Y0014867*
Y0014721*
X0098415Y0014699*
X0098289Y0014573*
X00982Y001442*
X0098154Y0014248*
Y001407*
X00982Y0013898*
X0098289Y0013745*
X0098415Y0013619*
X0098452Y0013597*
Y0013451*
X0098415Y0013429*
X0098289Y0013303*
X00982Y001315*
X0098154Y0012978*
Y00128*
X00982Y0012628*
X0098289Y0012475*
X0098415Y0012349*
X0098452Y0012327*
Y0012181*
X0098415Y0012159*
X0098289Y0012033*
X00982Y001188*
X0098154Y0011708*
Y001153*
X00982Y0011358*
X0098289Y0011205*
X0098415Y0011079*
X0098568Y001099*
X009874Y0010944*
X0098918*
X009909Y001099*
X0099143Y0011021*
X009927Y0010948*
Y001079*
X0099972*
Y0011619*
X0100099*
Y0011746*
X0100928*
Y0012448*
X010077*
X0100697Y0012575*
X0100728Y0012628*
X0100774Y00128*
Y0012978*
X0100728Y001315*
X0100639Y0013303*
X0100513Y0013429*
X0100476Y0013451*
Y0013597*
X0100513Y0013619*
X0100639Y0013745*
X0100728Y0013898*
X0100774Y001407*
Y0014248*
X0100728Y001442*
X0100639Y0014573*
X0100513Y0014699*
X0100476Y0014721*
Y0014867*
X0100513Y0014889*
X0100639Y0015015*
X0100728Y0015168*
X0100774Y001534*
Y0015518*
X0100728Y001569*
X0100639Y0015843*
X0100513Y0015969*
X0100476Y0015991*
Y0016137*
X0100513Y0016159*
X0100639Y0016285*
X0100728Y0016438*
X0100774Y001661*
Y0016788*
X0100728Y001696*
X0100639Y0017113*
X0100513Y0017239*
X010036Y0017328*
X0100188Y0017374*
G37*
G36*
X0100928Y0011492D02*
X0100226D01*
Y001079*
X0100928*
Y0011492*
G37*
G36*
X009149Y001061D02*
X0091331D01*
X0091184Y0010549*
X0091071Y0010437*
X009101Y001029*
Y0010131*
X0091071Y0009984*
X0091184Y0009871*
X0091331Y000981*
X009149*
X0091637Y0009871*
X0091749Y0009984*
X009181Y0010131*
Y001029*
X0091749Y0010437*
X0091637Y0010549*
X009149Y001061*
G37*
G36*
X0094854Y0005899D02*
X0094694D01*
X0094547Y0005838*
X0094435Y0005726*
X0094374Y0005579*
Y0005419*
X0094435Y0005272*
X0094547Y000516*
X0094694Y0005099*
X0094854*
X0095001Y000516*
X0095113Y0005272*
X0095174Y0005419*
Y0005579*
X0095113Y0005726*
X0095001Y0005838*
X0094854Y0005899*
G37*
G36*
X0092723Y0006224D02*
X0092475D01*
X0092245Y0006129*
X0092069Y0005953*
X0091974Y0005723*
Y0005475*
X0092069Y0005245*
X0092245Y0005069*
X0092475Y0004974*
X0092723*
X0092953Y0005069*
X0093129Y0005245*
X0093224Y0005475*
Y0005723*
X0093129Y0005953*
X0092953Y0006129*
X0092723Y0006224*
G37*
G36*
X0085046Y0027072D02*
X0083952D01*
X0084029Y0026885*
X0084185Y0026729*
X0084193Y0026726*
X0084168Y0026599*
X0084119*
X0083972Y0026538*
X008386Y0026426*
X0083799Y0026279*
Y0026119*
X008386Y0025972*
X0083972Y002586*
X0084119Y0025799*
X0084279*
X0084426Y002586*
X0084538Y0025972*
X0084599Y0026119*
Y0026279*
X0084538Y0026426*
X0084446Y0026518*
X0084467Y0026613*
X0084485Y0026645*
X0084609*
X0084813Y0026729*
X0084969Y0026885*
X0085046Y0027072*
G37*
G36*
X0085673Y0022645D02*
X0085514D01*
X0085367Y0022585*
X0085255Y0022472*
X0085218Y0022383*
X0085081*
X0085044Y0022472*
X0084931Y0022585*
X0084784Y0022645*
X0084625*
X0084478Y0022585*
X0084366Y0022472*
X0084305Y0022325*
Y0022166*
X0084366Y0022019*
X0084478Y0021906*
X0084625Y0021845*
X0084784*
X0084931Y0021906*
X0085044Y0022019*
X0085081Y0022107*
X0085218*
X0085255Y0022019*
X0085367Y0021906*
X0085514Y0021845*
X0085673*
X008582Y0021906*
X0085933Y0022019*
X0085994Y0022166*
Y0022325*
X0085933Y0022472*
X008582Y0022585*
X0085673Y0022645*
G37*
G36*
X0059079Y0014799D02*
X0058919D01*
X0058772Y0014738*
X005866Y0014626*
X0058599Y0014479*
Y0014319*
X005866Y0014172*
X0058772Y001406*
X0058919Y0013999*
X0059079*
X0059226Y001406*
X0059338Y0014172*
X0059399Y0014319*
Y0014479*
X0059338Y0014626*
X0059226Y0014738*
X0059079Y0014799*
G37*
G36*
X0060612Y0014632D02*
X0060453D01*
X0060306Y0014571*
X0060193Y0014459*
X0060132Y0014312*
Y0014153*
X0060193Y0014006*
X0060306Y0013893*
X0060453Y0013832*
X0060612*
X0060759Y0013893*
X0060871Y0014006*
X0060932Y0014153*
Y0014312*
X0060871Y0014459*
X0060759Y0014571*
X0060612Y0014632*
G37*
G36*
X0061751Y0014271D02*
X0061592D01*
X0061445Y001421*
X0061332Y0014098*
X0061271Y0013951*
Y0013792*
X0061332Y0013645*
X0061445Y0013532*
X0061474Y001352*
X0061504Y001337*
X006146Y0013326*
X0061399Y0013179*
Y0013019*
X006146Y0012872*
X0061572Y001276*
X0061719Y00127*
X0061879*
X0062026Y001276*
X0062138Y0012872*
X0062199Y0013019*
Y0013179*
X0062138Y0013326*
X0062026Y0013438*
X0061996Y001345*
X0061966Y00136*
X006201Y0013645*
X0062071Y0013792*
Y0013951*
X006201Y0014098*
X0061898Y001421*
X0061751Y0014271*
G37*
G36*
X0053679Y0011299D02*
X0053519D01*
X0053372Y0011238*
X005326Y0011126*
X0053199Y0010979*
Y0010819*
X005326Y0010672*
X0053372Y001056*
X0053519Y0010499*
X0053679*
X0053826Y001056*
X0053938Y0010672*
X0053999Y0010819*
Y0010979*
X0053938Y0011126*
X0053826Y0011238*
X0053679Y0011299*
G37*
G36*
X0061279Y0010999D02*
X0061119D01*
X0060972Y0010938*
X006086Y0010826*
X0060799Y0010679*
Y0010519*
X006086Y0010372*
X0060972Y001026*
X0061119Y0010199*
X0061279*
X0061426Y001026*
X0061538Y0010372*
X0061599Y0010519*
Y0010679*
X0061538Y0010826*
X0061426Y0010938*
X0061279Y0010999*
G37*
G36*
X0061379Y0009699D02*
X0061219D01*
X0061072Y0009638*
X006096Y0009526*
X0060899Y0009379*
Y0009219*
X006096Y0009072*
X0061072Y000896*
X0061219Y0008899*
X0061379*
X0061526Y000896*
X0061638Y0009072*
X0061699Y0009219*
Y0009379*
X0061638Y0009526*
X0061526Y0009638*
X0061379Y0009699*
G37*
%LNshm_pcb-3*%
%LPD*%
G54D115*
X0065699Y0044049D02*
X0067699D01*
X0088699Y0023399D02*
X0091749D01*
X0101229Y0033799D02*
X0101249Y0033819D01*
X0101199Y0032669D02*
X0101229Y0032699D01*
Y0033799*
G54D120*
X0089018Y006973D02*
X0089949Y0068799D01*
X0089018Y006973D02*
Y007168D01*
X00889Y0071799D02*
X0089018Y007168D01*
X0060399Y0016199D02*
Y0016699D01*
X0059699Y0015499D02*
X0060399Y0016199D01*
G54D123*
X0088819Y0072124D03*
G54D126*
X0100549Y0034609D03*
Y0035419D03*
X0101259D03*
Y0034609D03*
Y0033839D03*
G54D129*
X0100099Y0011619D03*
G54D137*
X0099929Y0032669D03*
X0101199D03*
X0099929Y0031399D03*
X0101199D03*
X0099929Y0030129D03*
X0101199D03*
X0099929Y0028859D03*
G54D138*
X0101199Y0028859D03*
G54D140*
X0062724Y0042449D03*
X0050349Y0055724D03*
X0074424Y0030874D03*
X0072674Y0033524D03*
X0060099Y0055199D03*
X0049799Y0024599D03*
X0040899Y0049799D03*
X0052199Y0051899D03*
X0065699Y0044049D03*
X0039048Y00157D03*
X0054824Y0047374D03*
X0080999Y0022349D03*
X0086999Y0024899D03*
X0084499Y0027199D03*
X0088699Y0023399D03*
X0070432Y0010332D03*
X0042999Y0021449D03*
X0097399Y0020899D03*
X0048491Y0045399D03*
X0041399Y0039499D03*
X0029799Y0034299D03*
X0022699Y0038299D03*
X0031899Y0031799D03*
X0014099Y0012749D03*
X0009499Y0019199D03*
X0057099Y0030099D03*
X0089899Y0066399D03*
X0035999Y0032799D03*
X0101399Y0051499D03*
X0060399Y0016699D03*
X0041299Y0028699D03*
X0057999Y0023299D03*
X0035699Y0023999D03*
X0028499Y0020699D03*
X0027499Y0021199D03*
X0022799Y0028099D03*
G54D141*
X0083174Y0028824D02*
X008653D01*
X0086999Y0028355*
Y002491D02*
Y0028355D01*
X0082474Y0022999D02*
Y0028124D01*
X0081824Y0022349D02*
X0082474Y0022999D01*
X0080999Y0022349D02*
X0081824D01*
X0082474Y0028124D02*
X0083174Y0028824D01*
M02*