%FSTAX43Y43*%
%MOMM*%
%SFA1B1*%

%IPPOS*%
%AMD122*
4,1,8,-2.120900,1.940560,-2.120900,-1.940560,-1.059180,-2.999740,1.059180,-2.999740,2.120900,-1.940560,2.120900,1.940560,1.059180,2.999740,-1.059180,2.999740,-2.120900,1.940560,0.0*
%
%ADD18R,0.799998X0.949998*%
%ADD19R,1.527997X0.649999*%
%ADD20R,0.999998X0.799998*%
%ADD21R,0.299999X1.549997*%
%ADD22R,1.199998X2.749995*%
%ADD23R,1.474997X0.299999*%
%ADD24R,0.299999X1.474997*%
%ADD25R,0.999998X0.999998*%
%ADD26R,0.999998X0.999998*%
%ADD27C,0.999998*%
%ADD28R,2.199996X1.349997*%
%ADD29R,0.799998X0.349999*%
%ADD30R,0.719999X0.689999*%
%ADD31R,0.899998X0.649999*%
%ADD32R,0.599999X0.749999*%
%ADD33R,1.499997X1.299997*%
%ADD34R,0.799998X0.939998*%
%ADD35C,0.250000*%
%ADD36R,0.809998X0.939998*%
%ADD37R,1.399997X0.999998*%
%ADD38R,0.949998X0.799998*%
%ADD39R,1.349997X0.399999*%
%ADD40R,1.899996X1.899996*%
%ADD41R,0.939998X0.799998*%
%ADD42R,0.979998X0.859998*%
%ADD43R,0.449999X1.474997*%
%ADD44R,1.299997X1.799996*%
%ADD45R,0.899998X1.199998*%
%ADD46R,1.299997X1.499997*%
%ADD47R,0.649999X0.899998*%
%ADD48R,0.939998X0.809998*%
%ADD49R,0.799998X0.999998*%
%ADD50R,2.119996X1.309997*%
%ADD51R,0.250000X0.899998*%
%ADD52R,1.019998X1.469997*%
%ADD53R,1.019998X1.819996*%
%ADD54R,1.899996X1.399997*%
%ADD55R,0.749999X0.599999*%
%ADD56R,0.499999X0.999998*%
%ADD118O,2.399995X0.749999*%
%ADD119O,0.749999X2.399995*%
G04~CAMADD=122~4~0.0~0.0~2362.2~1669.3~0.0~417.3~0~0.0~0.0~0.0~0.0~0~0.0~0.0~0.0~0.0~0~0.0~0.0~0.0~90.0~1670.0~2362.0*
%ADD122D122*%
%ADD123C,1.549997*%
%ADD124C,0.574999*%
%ADD125C,0.824998*%
%ADD126R,0.699999X0.699999*%
%ADD127C,2.849994*%
%ADD128C,2.399995*%
%ADD129R,1.149998X1.149998*%
%ADD130C,1.149998*%
%ADD131C,0.524999*%
%ADD132C,0.699999*%
%ADD133C,3.199994*%
%ADD134R,1.149998X1.149998*%
%ADD135R,1.199998X1.199998*%
%ADD136C,1.199998*%
%ADD137C,1.099998*%
%ADD138R,1.099998X1.099998*%
%LNshm_pcb-1*%
%LPD*%
G54D18*
X0030824Y0024299D03*
X0032424D03*
X00658Y0048317D03*
X00642D03*
X0094685Y0061186D03*
X0093085D03*
X0030774Y0009374D03*
X0032374D03*
X0062799Y0011999D03*
X0061199D03*
X0086099Y0057299D03*
X0084499D03*
Y0059599D03*
X0086099D03*
X0100099Y0042099D03*
X0101699D03*
X0062693Y0048325D03*
X0061093D03*
X0054833Y0048393D03*
X0056434D03*
X0057947Y0048358D03*
X0059547D03*
G54D19*
X0045638Y0051154D03*
Y0049884D03*
Y0048614D03*
Y0047344D03*
X005106D03*
Y0048614D03*
Y0049884D03*
Y0051154D03*
G54D20*
X0064211Y0049584D03*
X0065911D03*
X0062842D03*
X0061142D03*
X0057935D03*
X0059635D03*
X0100149Y0043699D03*
X0101849D03*
X0056715Y0049584D03*
X0055015D03*
G54D21*
X0086749Y0012649D03*
X0086499Y0020199D03*
X0086249Y0012649D03*
X0085999Y0020199D03*
X0085749Y0012649D03*
X0085499Y0020199D03*
X0085249Y0012649D03*
X0084999Y0020199D03*
X0084749Y0012649D03*
X0084499Y0020199D03*
X0084249Y0012649D03*
X0081999Y0020199D03*
X0081749Y0012649D03*
X0081499Y0020199D03*
X0081249Y0012649D03*
X0080999Y0020199D03*
X0080749Y0012649D03*
X0080499Y0020199D03*
X0080249Y0012649D03*
X0079999Y0020199D03*
X0079749Y0012649D03*
X0079499Y0020199D03*
X0079249Y0012649D03*
X0078999Y0020199D03*
X0078749Y0012649D03*
X0078499Y0020199D03*
X0078249Y0012649D03*
X0077999Y0020199D03*
X0077749Y0012649D03*
X0077499Y0020199D03*
X0077249Y0012649D03*
X0076999Y0020199D03*
X0076749Y0012649D03*
X0076499Y0020199D03*
X0076249Y0012649D03*
X0075999Y0020199D03*
X0075749Y0012649D03*
X0075499Y0020199D03*
X0075249Y0012649D03*
X0074999Y0020199D03*
X0074749Y0012649D03*
X0074499Y0020199D03*
X0074249Y0012649D03*
X0073999Y0020199D03*
X0073749Y0012649D03*
X0073499Y0020199D03*
X0073249Y0012649D03*
X0072999Y0020199D03*
X0072749Y0012649D03*
X0072499Y0020199D03*
X0072249Y0012649D03*
X0071999Y0020199D03*
X0071749Y0012649D03*
X0071499Y0020199D03*
X0071249Y0012649D03*
X0070999Y0020199D03*
X0070749Y0012649D03*
X0070499Y0020199D03*
X0070249Y0012649D03*
X0069999Y0020199D03*
X0069749Y0012649D03*
X0069499Y0020199D03*
X0069249Y0012649D03*
X0068999Y0020199D03*
X0068749Y0012649D03*
X0068499Y0020199D03*
X0068249Y0012649D03*
G54D22*
X0087849Y0013424D03*
X0067149D03*
G54D23*
X0038411Y0022199D03*
Y0022699D03*
Y0023199D03*
Y0023699D03*
Y0024199D03*
Y0024699D03*
Y0025199D03*
Y0025699D03*
Y0026199D03*
Y0026699D03*
Y0027199D03*
Y0027699D03*
Y0028199D03*
Y0028699D03*
Y0029199D03*
Y0029699D03*
Y0030199D03*
Y0030699D03*
Y0031199D03*
Y0031699D03*
Y0032199D03*
Y0032699D03*
Y0033199D03*
Y0033699D03*
Y0034199D03*
Y0034699D03*
Y0035199D03*
Y0035699D03*
Y0036199D03*
Y0036699D03*
Y0037199D03*
Y0037699D03*
Y0038199D03*
Y0038699D03*
Y0039199D03*
Y0039699D03*
X0059887D03*
Y0039199D03*
Y0038699D03*
Y0038199D03*
Y0037699D03*
Y0037199D03*
Y0036699D03*
Y0036199D03*
Y0035699D03*
Y0035199D03*
Y0034699D03*
Y0034199D03*
Y0033699D03*
Y0033199D03*
Y0032699D03*
Y0032199D03*
Y0031699D03*
Y0031199D03*
Y0030699D03*
Y0030199D03*
Y0029699D03*
Y0029199D03*
Y0028699D03*
Y0028199D03*
Y0027699D03*
Y0027199D03*
Y0026699D03*
Y0026199D03*
Y0025699D03*
Y0025199D03*
Y0024699D03*
Y0024199D03*
Y0023699D03*
Y0023199D03*
Y0022699D03*
Y0022199D03*
G54D24*
X0040399Y0041687D03*
X0040899D03*
X0041399D03*
X0041899D03*
X0042399D03*
X0042899D03*
X0043399D03*
X0043899D03*
X0044399D03*
X0044899D03*
X0045399D03*
X0045899D03*
X0046399D03*
X0046899D03*
X0047399D03*
X0047899D03*
X0048399D03*
X0048899D03*
X0049399D03*
X0049899D03*
X0050399D03*
X0050899D03*
X0051399D03*
X0051899D03*
X0052399D03*
X0052899D03*
X0053399D03*
X0053899D03*
X0054399D03*
X0054899D03*
X0055399D03*
X0055899D03*
X0056399D03*
X0056899D03*
X0057399D03*
X0057899D03*
Y0020211D03*
X0057399D03*
X0056899D03*
X0056399D03*
X0055899D03*
X0055399D03*
X0054899D03*
X0054399D03*
X0053899D03*
X0053399D03*
X0052899D03*
X0052399D03*
X0051899D03*
X0051399D03*
X0050899D03*
X0050399D03*
X0049899D03*
X0049399D03*
X0048899D03*
X0048399D03*
X0047899D03*
X0047399D03*
X0046899D03*
X0046399D03*
X0045899D03*
X0045399D03*
X0044899D03*
X0044399D03*
X0043899D03*
X0043399D03*
X0042899D03*
X0042399D03*
X0041899D03*
X0041399D03*
X0040899D03*
X0040399D03*
G54D25*
X0053614Y0061628D03*
X0054614D03*
X0055614D03*
X0056614D03*
Y0062628D03*
X0055614D03*
X0054614D03*
X0053614D03*
Y0063628D03*
X0054614D03*
X0055614D03*
X0056614D03*
Y0064628D03*
X0055614D03*
X0054614D03*
X0053614D03*
X0056614Y0065628D03*
X0055614D03*
X0054614D03*
X0053614D03*
X002065Y0024632D03*
Y0026332D03*
Y0028032D03*
Y0029732D03*
Y0031432D03*
Y0033132D03*
X001725Y0036532D03*
X001555D03*
X001385D03*
X001215D03*
X000875Y0033132D03*
Y0031432D03*
Y0029732D03*
Y0028032D03*
Y0026332D03*
Y0024632D03*
X001215Y0021232D03*
X001385D03*
X001555D03*
X001725D03*
X001895Y0024632D03*
Y0026332D03*
Y0028032D03*
Y0029732D03*
Y0031432D03*
Y0033132D03*
X001725Y0034832D03*
X001555D03*
X001385D03*
X001215D03*
X001045Y0033132D03*
Y0031432D03*
Y0029732D03*
Y0028032D03*
Y0026332D03*
Y0024632D03*
X001215Y0022932D03*
X001385D03*
X001555D03*
X001725D03*
X0090623Y0039824D03*
Y0038772D03*
Y0037654D03*
Y0036537D03*
Y0035343D03*
X0092159Y0012629D03*
Y0013799D03*
Y0014979D03*
Y0017319D03*
Y0016139D03*
X0097699Y0039799D03*
X0094969Y0028899D03*
X0095949D03*
X0096939D03*
X0094669Y0030139D03*
X0093679D03*
X0092855Y0030137D03*
X0091999Y0031399D03*
X0092999D03*
X0093799D03*
X0094599D03*
X0091999Y0032699D03*
X0092999D03*
X0093899D03*
X0094799D03*
X0094299Y0039799D03*
X0095499D03*
X0096599D03*
G54D26*
X0077279Y0007789D03*
X0076099D03*
X007493D03*
G54D27*
X0032914Y002745D03*
X0031844Y00275D03*
X0032354Y002768D03*
X0029409Y0027469D03*
X0029799Y0028059D03*
X0029459Y0030361D03*
X0029006Y0029984D03*
X0003472Y0053305D03*
X0003982Y0053765D03*
X0004512Y0054185D03*
X0005032Y0054605D03*
X0005597Y005503D03*
X0005886Y0044133D03*
X0007406Y0044333D03*
Y0045273D03*
Y0046193D03*
Y0047123D03*
Y0048093D03*
Y0049023D03*
X0005886Y0045033D03*
Y0045873D03*
Y0046663D03*
Y0047493D03*
Y0048203D03*
Y0048913D03*
X0004389Y0051119D03*
X0005059Y0051759D03*
X0005649Y0052359D03*
X0006249Y0052959D03*
X0006789Y0053529D03*
X0007309Y0054029D03*
X0006219Y0055499D03*
X0030219Y0028639D03*
X0028456Y0029544D03*
X0032369Y0028249D03*
X0059479Y0015759D03*
X0057969Y0016109D03*
X0056929Y0016829D03*
G54D28*
X0092199Y0021999D03*
Y0019899D03*
X0090999Y0043349D03*
Y0041249D03*
G54D29*
X0093699Y0046549D03*
Y0045899D03*
Y0045249D03*
X0091869D03*
Y0045899D03*
Y0046549D03*
G54D30*
X0096399Y0044939D03*
Y0045859D03*
X0090199Y0029039D03*
Y0029959D03*
X0090299Y0047539D03*
Y0048459D03*
X0089799Y0022639D03*
Y0023559D03*
G54D31*
X0093699Y0043024D03*
Y0041574D03*
G54D32*
X0081799Y0065749D03*
Y0066849D03*
X0080999Y0065749D03*
Y0066849D03*
X0090799Y0023349D03*
Y0024449D03*
X0080049Y0066649D03*
Y0065549D03*
X0075449D03*
Y0066649D03*
X0074299Y0066624D03*
Y0065524D03*
X0076649Y0066649D03*
Y0065549D03*
X0077774D03*
Y0066649D03*
X0078924Y0065549D03*
Y0066649D03*
G54D33*
X0030999Y0007349D03*
X0036999D03*
X0030999Y0002849D03*
X0036999D03*
G54D34*
X0030779Y0011499D03*
X0032119D03*
X0053054Y0043474D03*
X0054394D03*
X0039296Y0046499D03*
X0040636D03*
X0049374Y0052907D03*
X0050714D03*
X0061279Y0018649D03*
X0062619D03*
X0062599Y0020149D03*
X0061259D03*
X0063569Y0034699D03*
X006223D03*
X0046929Y0044399D03*
X0048269D03*
X0061429Y0041099D03*
X0062769D03*
X0062129Y0029499D03*
X0063469D03*
X0062775Y0022878D03*
X0064115D03*
X0040636Y0044471D03*
X0039296D03*
X0034629Y0033699D03*
X0035969D03*
X0034603Y002877D03*
X0035943D03*
X0034629Y0022199D03*
X0035969D03*
G54D35*
X0093449Y0027511D03*
Y0026887D03*
X0093199Y0027199D03*
X0092949Y0027511D03*
Y0026887D03*
X0092699Y0027199D03*
X0092449Y0027511D03*
Y0026887D03*
G54D36*
X0091169Y0062599D03*
X0089829D03*
X0093139Y0057989D03*
X0094479D03*
X0093108Y0059614D03*
X0094449D03*
G54D37*
X0090499Y0055649D03*
Y0053749D03*
G54D38*
X0092499Y0055399D03*
Y0053799D03*
G54D39*
X0096874Y0056899D03*
Y0057549D03*
Y0058199D03*
Y0058849D03*
Y0059499D03*
G54D40*
X0099549Y0054149D03*
Y0056999D03*
Y0059399D03*
Y0062249D03*
G54D41*
X0022499Y0050129D03*
Y0051469D03*
X0021099Y0050129D03*
Y0051469D03*
X0019699D03*
Y0050129D03*
X0016599Y0049969D03*
Y0048629D03*
X0043299Y0011854D03*
Y0013194D03*
X0041299Y0011854D03*
Y0013194D03*
X0047169Y0013558D03*
Y0012218D03*
X0055499Y0013429D03*
Y0014769D03*
X0050274Y0018419D03*
Y0017079D03*
G54D42*
X0018099Y0049934D03*
Y0051464D03*
G54D43*
X0075299Y0057711D03*
X0075949D03*
X0076599D03*
X0077249D03*
X0077899D03*
X0078549D03*
X0079199D03*
X0079849D03*
X0080499D03*
X0081149D03*
Y0063587D03*
X0080499D03*
X0079849D03*
X0079199D03*
X0078549D03*
X0077899D03*
X0077249D03*
X0076599D03*
X0075949D03*
X0075299D03*
G54D44*
X0005715Y0070757D03*
X0018014D03*
X0005715Y0061957D03*
X0018014D03*
G54D45*
X0008684Y0057857D03*
X0011224D03*
X0013764D03*
X0009954D03*
X0012494D03*
X0015034D03*
G54D46*
X0024893Y006622D03*
Y007222D03*
X0029393Y006622D03*
Y007222D03*
G54D47*
X0023718Y0062551D03*
X0025168D03*
X0084424Y0061399D03*
X0085874D03*
G54D48*
X0094099Y0055269D03*
Y0053929D03*
G54D49*
X008745Y0052814D03*
Y0054514D03*
G54D50*
X0089069Y0058891D03*
G54D51*
X0090194Y0060341D03*
X0089744D03*
X0089294D03*
X0088844D03*
X0088394D03*
X0087944D03*
Y0057441D03*
X0088394D03*
X0088844D03*
X0089294D03*
X0089744D03*
X0090194D03*
G54D52*
X0039406Y0048248D03*
X0041006D03*
X0062899Y0016724D03*
X0061299D03*
G54D53*
X0033717Y0019206D03*
X0036517D03*
G54D54*
X0049067Y0012317D03*
X0053467D03*
Y0014717D03*
X0049067D03*
G54D55*
X0100899Y0045199D03*
X0101999D03*
G54D56*
X0042199Y0015149D03*
X0043299D03*
G54D118*
X00245Y0020282D03*
Y0021382D03*
Y0022482D03*
Y0023582D03*
Y0024682D03*
Y0025782D03*
Y0026882D03*
Y0027982D03*
Y0029083D03*
Y0030782D03*
Y0031882D03*
Y0032982D03*
Y0034082D03*
Y0035182D03*
Y0036282D03*
Y0037382D03*
X00049D03*
Y0036282D03*
Y0035182D03*
Y0034082D03*
Y0032982D03*
Y0031882D03*
Y0030782D03*
Y0029083D03*
Y0027982D03*
Y0026882D03*
Y0025782D03*
Y0024682D03*
Y0023582D03*
Y0022482D03*
Y0021382D03*
Y0020282D03*
G54D119*
X002105Y0040532D03*
X001995D03*
X001885D03*
X001775D03*
X001665D03*
X001415D03*
X001305D03*
X001195D03*
X001085D03*
X000975D03*
X000865D03*
Y0017232D03*
X000975D03*
X001085D03*
X001195D03*
X001305D03*
X001415D03*
X001665D03*
X001775D03*
X001885D03*
X001995D03*
X002105D03*
G54D122*
X0077424Y0046024D03*
G54D123*
X0082429Y0003074D03*
X0079889D03*
X0077349D03*
X0074809D03*
X0072269D03*
X0069729D03*
X0067189D03*
X0064649D03*
X0062109D03*
X0059569D03*
X0057029D03*
X0054489D03*
X0051949D03*
X0049409D03*
X0096439Y0072124D03*
X0093899D03*
X0091359D03*
X0088819D03*
X0086279D03*
X0083739D03*
X0081199D03*
X0078659D03*
X0076119D03*
X0073579D03*
X0071039D03*
X0068499D03*
X0065959D03*
X0063419D03*
G54D124*
X0087499Y0017924D03*
G54D125*
X0067499Y0017924D03*
G54D126*
X0094699Y0068799D03*
Y0067799D03*
X0100549Y0033839D03*
Y0034609D03*
Y0035419D03*
X0101259D03*
Y0034609D03*
Y0033839D03*
X0096033Y006656D03*
X0095322D03*
X0094585D03*
X0093823D03*
X0092985D03*
G54D127*
X0012274Y0003599D03*
Y0008749D03*
X0007124D03*
Y0003599D03*
G54D128*
X0009699Y0006174D03*
G54D129*
X0100099Y0011619D03*
G54D130*
X0098829Y0011619D03*
X0100099Y0012889D03*
X0098829D03*
X0100099Y0014159D03*
X0098829D03*
X0100099Y0015429D03*
X0098829D03*
X0100099Y0016699D03*
X0098829D03*
X0049709Y0069999D03*
X0048439Y0071269D03*
Y0069999D03*
X0047169Y0071269D03*
Y0069999D03*
X0045899Y0071269D03*
Y0069999D03*
X0044629Y0071269D03*
Y0069999D03*
G54D131*
X0088599Y0005599D03*
X0092599D03*
G54D132*
X0097099Y0056124D03*
Y0060274D03*
G54D133*
X0001924Y0072324D03*
X0002199Y0001799D03*
X0100949D03*
X0100999Y0072399D03*
G54D134*
X0049709Y0071269D03*
G54D135*
X0100574Y0037849D03*
G54D136*
X0100574Y0039849D03*
G54D137*
X0099929Y0032669D03*
X0101199D03*
X0099929Y0031399D03*
X0101199D03*
X0099929Y0030129D03*
X0101199D03*
X0099929Y0028859D03*
G54D138*
X0101199Y0028859D03*
M02*