%FSTAX43Y43*%
%MOMM*%
%SFA1B1*%

%IPPOS*%
%ADD205C,0.051000*%
%LNshm_pcb-1*%
%LPD*%
G54D205*
X0075304Y0046024D02*
X0079544D01*
X0077424Y0043904D02*
Y0048144D01*
X0081919Y0003074D02*
X0082939D01*
X0082429Y0002564D02*
Y0003584D01*
X0079379Y0003074D02*
X0080399D01*
X0079889Y0002564D02*
Y0003584D01*
X0076839Y0003074D02*
X0077859D01*
X0077349Y0002564D02*
Y0003584D01*
X0074299Y0003074D02*
X0075319D01*
X0074809Y0002564D02*
Y0003584D01*
X0071759Y0003074D02*
X0072779D01*
X0072269Y0002564D02*
Y0003584D01*
X0069219Y0003074D02*
X0070239D01*
X0069729Y0002564D02*
Y0003584D01*
X0066679Y0003074D02*
X0067699D01*
X0067189Y0002564D02*
Y0003584D01*
X0064139Y0003074D02*
X0065159D01*
X0064649Y0002564D02*
Y0003584D01*
X0061599Y0003074D02*
X0062619D01*
X0062109Y0002564D02*
Y0003584D01*
X0059059Y0003074D02*
X0060079D01*
X0059569Y0002564D02*
Y0003584D01*
X0056519Y0003074D02*
X0057539D01*
X0057029Y0002564D02*
Y0003584D01*
X0053979Y0003074D02*
X0054999D01*
X0054489Y0002564D02*
Y0003584D01*
X0051439Y0003074D02*
X0052459D01*
X0051949Y0002564D02*
Y0003584D01*
X0048899Y0003074D02*
X0049919D01*
X0049409Y0002564D02*
Y0003584D01*
X0095929Y0072124D02*
X0096949D01*
X0096439Y0071614D02*
Y0072634D01*
X0093389Y0072124D02*
X0094409D01*
X0093899Y0071614D02*
Y0072634D01*
X0090849Y0072124D02*
X0091869D01*
X0091359Y0071614D02*
Y0072634D01*
X0088309Y0072124D02*
X0089329D01*
X0088819Y0071614D02*
Y0072634D01*
X0085769Y0072124D02*
X0086789D01*
X0086279Y0071614D02*
Y0072634D01*
X0083229Y0072124D02*
X0084249D01*
X0083739Y0071614D02*
Y0072634D01*
X0080689Y0072124D02*
X0081709D01*
X0081199Y0071614D02*
Y0072634D01*
X0078149Y0072124D02*
X0079169D01*
X0078659Y0071614D02*
Y0072634D01*
X0075609Y0072124D02*
X0076629D01*
X0076119Y0071614D02*
Y0072634D01*
X0073069Y0072124D02*
X0074089D01*
X0073579Y0071614D02*
Y0072634D01*
X0070529Y0072124D02*
X0071549D01*
X0071039Y0071614D02*
Y0072634D01*
X0067989Y0072124D02*
X0069009D01*
X0068499Y0071614D02*
Y0072634D01*
X0065449Y0072124D02*
X0066469D01*
X0065959Y0071614D02*
Y0072634D01*
X0062909Y0072124D02*
X0063929D01*
X0063419Y0071614D02*
Y0072634D01*
X0086924Y0017924D02*
X0088074D01*
X0087499Y0017349D02*
Y0018499D01*
X0066675Y0017924D02*
X0068324D01*
X0067499Y0017099D02*
Y0018749D01*
X0094374Y0068799D02*
X0095024D01*
X0094699Y0068474D02*
Y0069124D01*
X0094374Y0067799D02*
X0095024D01*
X0094699Y0067474D02*
Y0068124D01*
X0011324Y0003599D02*
X0013224D01*
X0012274Y0002649D02*
Y0004549D01*
X0011324Y0008749D02*
X0013224D01*
X0012274Y0007799D02*
Y0009699D01*
X0006174Y0008749D02*
X0008074D01*
X0007124Y0007799D02*
Y0009699D01*
X0006174Y0003599D02*
X0008074D01*
X0007124Y0002649D02*
Y0004549D01*
X0008899Y0006174D02*
X0010499D01*
X0009699Y0005374D02*
Y0006974D01*
X0099724Y0011619D02*
X0100474D01*
X0100099Y0011244D02*
Y0011994D01*
X0098454Y0011619D02*
X0099204D01*
X0098829Y0011244D02*
Y0011994D01*
X0099724Y0012889D02*
X0100474D01*
X0100099Y0012514D02*
Y0013264D01*
X0098454Y0012889D02*
X0099204D01*
X0098829Y0012514D02*
Y0013264D01*
X0099724Y0014159D02*
X0100474D01*
X0100099Y0013784D02*
Y0014534D01*
X0098454Y0014159D02*
X0099204D01*
X0098829Y0013784D02*
Y0014534D01*
X0099724Y0015429D02*
X0100474D01*
X0100099Y0015054D02*
Y0015804D01*
X0098454Y0015429D02*
X0099204D01*
X0098829Y0015054D02*
Y0015804D01*
X0099724Y0016699D02*
X0100474D01*
X0100099Y0016324D02*
Y0017074D01*
X0098454Y0016699D02*
X0099204D01*
X0098829Y0016324D02*
Y0017074D01*
X0088074Y0005599D02*
X0089124D01*
X0088599Y0005074D02*
Y0006124D01*
X0092075Y0005599D02*
X0093124D01*
X0092599Y0005074D02*
Y0006124D01*
X0100224Y0033839D02*
X0100874D01*
X0100549Y0033514D02*
Y0034164D01*
X0100224Y0034609D02*
X0100874D01*
X0100549Y0034284D02*
Y0034934D01*
X0100224Y0035419D02*
X0100874D01*
X0100549Y0035094D02*
Y0035744D01*
X0100934Y0035419D02*
X0101584D01*
X0101259Y0035094D02*
Y0035744D01*
X0100934Y0034609D02*
X0101584D01*
X0101259Y0034284D02*
Y0034934D01*
X0100934Y0033839D02*
X0101584D01*
X0101259Y0033514D02*
Y0034164D01*
X0095708Y006656D02*
X0096358D01*
X0096033Y0066235D02*
Y0066885D01*
X0094997Y006656D02*
X0095647D01*
X0095322Y0066235D02*
Y0066885D01*
X009426Y006656D02*
X009491D01*
X0094585Y0066235D02*
Y0066885D01*
X0093498Y006656D02*
X0094148D01*
X0093823Y0066235D02*
Y0066885D01*
X009266Y006656D02*
X009331D01*
X0092985Y0066235D02*
Y0066885D01*
X0096749Y0056124D02*
X0097449D01*
X0097099Y0055774D02*
Y0056474D01*
X0096749Y0060274D02*
X0097449D01*
X0097099Y0059924D02*
Y0060624D01*
X0000324Y0072324D02*
X0003524D01*
X0001924Y0070724D02*
Y0073924D01*
X0049334Y0071269D02*
X0050084D01*
X0049709Y0070894D02*
Y0071644D01*
X0049334Y0069999D02*
X0050084D01*
X0049709Y0069624D02*
Y0070374D01*
X0048064Y0071269D02*
X0048814D01*
X0048439Y0070894D02*
Y0071644D01*
X0048064Y0069999D02*
X0048814D01*
X0048439Y0069624D02*
Y0070374D01*
X0046794Y0071269D02*
X0047544D01*
X0047169Y0070894D02*
Y0071644D01*
X0046794Y0069999D02*
X0047544D01*
X0047169Y0069624D02*
Y0070374D01*
X0045524Y0071269D02*
X0046274D01*
X0045899Y0070894D02*
Y0071644D01*
X0045524Y0069999D02*
X0046274D01*
X0045899Y0069624D02*
Y0070374D01*
X0044254Y0071269D02*
X0045004D01*
X0044629Y0070894D02*
Y0071644D01*
X0044254Y0069999D02*
X0045004D01*
X0044629Y0069624D02*
Y0070374D01*
X0100174Y0037849D02*
X0100974D01*
X0100574Y0037449D02*
Y0038249D01*
X0100174Y0039849D02*
X0100974D01*
X0100574Y0039449D02*
Y0040249D01*
X0000599Y0001799D02*
X0003799D01*
X0002199Y0000199D02*
Y0003399D01*
X0099349Y0001799D02*
X0102549D01*
X0100949Y0000199D02*
Y0003399D01*
X0099399Y0072399D02*
X0102599D01*
X0100999Y0070799D02*
Y0073999D01*
X0099579Y0032669D02*
X0100279D01*
X0099929Y0032319D02*
Y003302D01*
X0100849Y0032669D02*
X0101549D01*
X0101199Y0032319D02*
Y003302D01*
X0099579Y0031399D02*
X0100279D01*
X0099929Y0031049D02*
Y003175D01*
X0100849Y0031399D02*
X0101549D01*
X0101199Y0031049D02*
Y003175D01*
X0099579Y0030129D02*
X0100279D01*
X0099929Y0029779D02*
Y003048D01*
X0100849Y0030129D02*
X0101549D01*
X0101199Y0029779D02*
Y003048D01*
X0099579Y0028859D02*
X0100279D01*
X0099929Y0028509D02*
Y002921D01*
X0100849Y0028859D02*
X0101549D01*
X0101199Y0028509D02*
Y002921D01*
X0004043Y0000784D02*
X0004755D01*
X0004399Y0000428D02*
Y000114D01*
X0075668Y0049824D02*
X007638D01*
X0076024Y0049468D02*
Y005018D01*
X0080124Y0021474D02*
X0080424D01*
X0080274Y0021324D02*
Y0021624D01*
X0086099Y0023399D02*
X0086399D01*
X0086249Y0023249D02*
Y0023549D01*
X0076134Y0022614D02*
X0076434D01*
X0076284Y0022464D02*
Y0022764D01*
X0073799Y0023799D02*
X0074099D01*
X0073949Y0023649D02*
Y0023949D01*
X0077026Y0023901D02*
X0077326D01*
X0077176Y0023751D02*
Y0024051D01*
X0078311Y0023164D02*
X0078611D01*
X0078461Y0023014D02*
Y0023314D01*
X0083542Y0023507D02*
X0083842D01*
X0083693Y0023357D02*
Y0023657D01*
X0085911Y0024314D02*
X0086211D01*
X0086061Y0024164D02*
Y0024464D01*
X0085444Y0022245D02*
X0085744D01*
X0085594Y0022095D02*
Y0022395D01*
X0071888Y0019024D02*
X0072188D01*
X0072038Y0018874D02*
Y0019174D01*
X0070967Y0016803D02*
X0071267D01*
X0071117Y0016653D02*
Y0016953D01*
X0084049Y0026199D02*
X0084349D01*
X0084199Y0026049D02*
Y0026349D01*
X0089447Y000966D02*
X0089747D01*
X0089597Y000951D02*
Y000981D01*
X009126Y001021D02*
X009156D01*
X009141Y001006D02*
Y001036D01*
X0094624Y0005499D02*
X0094924D01*
X0094774Y0005349D02*
Y0005649D01*
X007128Y0015515D02*
X007158D01*
X007143Y0015365D02*
Y0015665D01*
X0074908Y0011293D02*
X0075208D01*
X0075058Y0011143D02*
Y0011443D01*
X0083005Y0009105D02*
X0083305D01*
X0083155Y0008955D02*
Y0009255D01*
X0058824Y0064399D02*
X0059124D01*
X0058974Y0064249D02*
Y0064549D01*
X0062574Y0042449D02*
X0062874D01*
X0062724Y0042299D02*
Y0042599D01*
X0061674Y0033074D02*
X0061974D01*
X0061824Y0032924D02*
Y0033224D01*
X006871Y002422D02*
X006901D01*
X006886Y002407D02*
Y002437D01*
X0069442Y0022668D02*
X0069742D01*
X0069592Y0022518D02*
Y0022818D01*
X0056424Y003315D02*
X0056724D01*
X0056574Y0033D02*
Y00333D01*
X0069274Y0034749D02*
X0069574D01*
X0069424Y0034599D02*
Y0034899D01*
X0069224Y0031543D02*
X0069524D01*
X0069374Y0031393D02*
Y0031693D01*
X0068774Y0039224D02*
X0069074D01*
X0068924Y0039074D02*
Y0039374D01*
X0064349Y0036674D02*
X0064649D01*
X0064499Y0036524D02*
Y0036824D01*
X0050199Y0055724D02*
X0050499D01*
X0050349Y0055574D02*
Y0055874D01*
X0068949Y0038124D02*
X0069249D01*
X0069099Y0037974D02*
Y0038274D01*
X0074274Y0030874D02*
X0074574D01*
X0074424Y0030724D02*
Y0031024D01*
X0076049Y0036249D02*
X0076349D01*
X00762Y0036099D02*
Y0036399D01*
X0076149Y0032399D02*
X0076449D01*
X0076299Y0032249D02*
Y0032549D01*
X0072524Y0033524D02*
X0072824D01*
X0072674Y0033374D02*
Y0033674D01*
X0066463Y0047767D02*
X0066763D01*
X0066613Y0047617D02*
Y0047917D01*
X0075374Y0070049D02*
X0075674D01*
X0075524Y0069899D02*
Y0070199D01*
X0072524Y0069324D02*
X0072824D01*
X0072674Y0069174D02*
Y0069474D01*
X0068049Y0068099D02*
X0068349D01*
X0068199Y0067949D02*
Y0068249D01*
X0067949Y0066599D02*
X0068249D01*
X0068099Y0066449D02*
Y0066749D01*
X0066675Y0065699D02*
X0066974D01*
X0066824Y0065549D02*
Y0065849D01*
X0066613Y0050958D02*
X0066913D01*
X0066763Y0050808D02*
Y0051108D01*
X0065999Y0065299D02*
X0066299D01*
X0066149Y0065149D02*
Y0065449D01*
X0080849Y0067974D02*
X0081149D01*
X0080999Y0067824D02*
Y0068124D01*
X0059949Y0055199D02*
X0060249D01*
X0060099Y0055049D02*
Y0055349D01*
X0052324Y0035174D02*
X0052624D01*
X0052474Y0035024D02*
Y0035324D01*
X0052049Y003121D02*
X0052349D01*
X0052199Y003106D02*
Y003136D01*
X0051549Y0031849D02*
X0051849D01*
X0051699Y0031699D02*
Y0031999D01*
X0052549Y0044799D02*
X0052849D01*
X0052699Y0044649D02*
Y0044949D01*
X0047799Y0016824D02*
X0048099D01*
X0047949Y0016674D02*
Y0016974D01*
X0048374Y0018274D02*
X0048674D01*
X0048524Y0018124D02*
Y0018424D01*
X0049649Y0024599D02*
X0049949D01*
X0049799Y0024449D02*
Y0024749D01*
X0046574Y0022903D02*
X0046874D01*
X0046724Y0022753D02*
Y0023053D01*
X0046474Y0024074D02*
X0046774D01*
X0046624Y0023924D02*
Y0024224D01*
X0046999Y0024849D02*
X0047299D01*
X0047149Y0024699D02*
Y0024999D01*
X0048049Y0026824D02*
X0048349D01*
X0048199Y0026674D02*
Y0026974D01*
X0053624Y0029674D02*
X0053924D01*
X0053774Y0029524D02*
Y0029824D01*
X0053597Y0034422D02*
X0053897D01*
X0053747Y0034272D02*
Y0034572D01*
X0053Y00337D02*
X00533D01*
X005315Y003355D02*
Y003385D01*
X0046349Y0036674D02*
X0046649D01*
X0046499Y0036524D02*
Y0036824D01*
X0050874Y0032524D02*
X0051174D01*
X0051024Y0032374D02*
Y0032674D01*
X0047075Y0034595D02*
X0047375D01*
X0047225Y0034445D02*
Y0034745D01*
X0045174Y0035474D02*
X0045474D01*
X0045324Y0035324D02*
Y0035624D01*
X0048474Y0017224D02*
X0048774D01*
X0048624Y0017074D02*
Y0017374D01*
X0066572Y0032199D02*
X0066872D01*
X0066722Y0032049D02*
Y0032349D01*
X0062787Y0033861D02*
X0063087D01*
X0062937Y0033711D02*
Y0034011D01*
X0012249Y0038149D02*
X0012549D01*
X0012399Y0037999D02*
Y0038299D01*
X0053449Y0010899D02*
X0053749D01*
X0053599Y0010749D02*
Y0011049D01*
X0015299Y0040049D02*
X0015599D01*
X0015449Y0039899D02*
Y0040199D01*
X0040749Y0049799D02*
X0041049D01*
X0040899Y0049649D02*
Y0049949D01*
X0004049Y0061799D02*
X0004349D01*
X0004199Y0061649D02*
Y0061949D01*
X0052049Y0051899D02*
X0052349D01*
X0052199Y0051749D02*
Y0052049D01*
X0074319Y0027088D02*
X0074619D01*
X0074469Y0026938D02*
Y0027238D01*
X0002478Y0035196D02*
X0002778D01*
X0002628Y0035047D02*
Y0035346D01*
X0087549Y0032299D02*
X0087849D01*
X0087699Y0032149D02*
Y0032449D01*
X0065549Y0044049D02*
X0065849D01*
X0065699Y0043899D02*
Y0044199D01*
X0017649Y0019599D02*
X0017949D01*
X0017799Y0019449D02*
Y0019749D01*
X0018849Y0019599D02*
X0019149D01*
X0018999Y0019449D02*
Y0019749D01*
X0021349Y0022099D02*
X0021649D01*
X0021499Y0021949D02*
Y0022249D01*
X0021449Y0020999D02*
X0021749D01*
X0021599Y0020849D02*
Y0021149D01*
X0020949Y0020199D02*
X0021249D01*
X0021099Y0020049D02*
Y0020349D01*
X0018549Y0022899D02*
X0018849D01*
X0018699Y0022749D02*
Y0023049D01*
X0018649Y0021199D02*
X0018949D01*
X0018799Y0021049D02*
Y0021349D01*
X0011949Y0019899D02*
X0012249D01*
X0012099Y0019749D02*
Y0020049D01*
X0013749Y0019999D02*
X0014049D01*
X0013899Y0019849D02*
Y0020149D01*
X0011849Y0019099D02*
X0012149D01*
X0011999Y0018949D02*
Y0019249D01*
X0012949Y0019199D02*
X0013249D01*
X0013099Y001905D02*
Y0019349D01*
X0015349Y0020099D02*
X0015649D01*
X0015499Y0019949D02*
Y0020249D01*
X0013849Y0024499D02*
X0014149D01*
X0013999Y0024349D02*
Y0024649D01*
X0015349Y0024399D02*
X0015649D01*
X0015499Y0024249D02*
Y0024549D01*
X0038898Y00157D02*
X0039198D01*
X0039048Y001555D02*
Y001585D01*
X0055749Y0022674D02*
X0056049D01*
X0055899Y0022524D02*
Y0022824D01*
X0054674Y0047374D02*
X0054974D01*
X0054824Y0047224D02*
Y0047524D01*
X0057553Y0047483D02*
X0057853D01*
X0057702Y0047332D02*
Y0047632D01*
X0089724Y0025874D02*
X0090024D01*
X0089874Y0025724D02*
Y0026024D01*
X0002516Y0030814D02*
X0002816D01*
X0002667Y0030664D02*
Y0030964D01*
X0024858Y0015199D02*
X002557D01*
X0025214Y0014843D02*
Y0015555D01*
X0087743Y0024989D02*
X0088043D01*
X0087893Y0024839D02*
Y0025139D01*
X0080849Y0022349D02*
X0081149D01*
X0080999Y0022199D02*
Y0022499D01*
X0073274Y0021674D02*
X0073574D01*
X0073424Y0021524D02*
Y0021824D01*
X0084555Y0022245D02*
X0084855D01*
X0084705Y0022095D02*
Y0022395D01*
X0082974Y0014374D02*
X0083274D01*
X0083124Y0014224D02*
Y0014524D01*
X0089626Y0013524D02*
X0089926D01*
X0089776Y0013374D02*
Y0013674D01*
X0087146Y002211D02*
X0087446D01*
X0087296Y002196D02*
Y002226D01*
X008085Y0018749D02*
X008115D01*
X0081Y0018599D02*
Y0018899D01*
X0070699Y0018474D02*
X0070999D01*
X0070849Y0018324D02*
Y0018624D01*
X0068451Y0022618D02*
X0068751D01*
X0068601Y0022468D02*
Y0022768D01*
X0086849Y0024899D02*
X0087149D01*
X0086999Y0024749D02*
Y0025049D01*
X0084349Y0027199D02*
X0084649D01*
X0084499Y0027049D02*
Y0027349D01*
X0088549Y0023399D02*
X0088849D01*
X0088699Y0023249D02*
Y0023549D01*
X0075284Y0028714D02*
X0075584D01*
X0075434Y0028564D02*
Y0028864D01*
X0075549Y0027799D02*
X0075849D01*
X0075699Y0027649D02*
Y0027949D01*
X0066191Y0021449D02*
X0066491D01*
X0066341Y0021299D02*
Y0021599D01*
X006816Y0025403D02*
X006846D01*
X006831Y0025253D02*
Y0025553D01*
X0063949Y0022099D02*
X0064249D01*
X0064099Y0021949D02*
Y0022249D01*
X0050849Y0024499D02*
X0051149D01*
X0050999Y0024349D02*
Y0024649D01*
X0074344Y0018198D02*
X0074644D01*
X0074494Y0018048D02*
Y0018348D01*
X0078386Y0032399D02*
X0078686D01*
X0078536Y0032249D02*
Y0032549D01*
X0075436Y0009232D02*
X0075736D01*
X0075586Y0009082D02*
Y0009382D01*
X0070282Y0010332D02*
X0070582D01*
X0070432Y0010182D02*
Y0010482D01*
X0079449Y0017499D02*
X0079749D01*
X0079599Y0017349D02*
Y0017649D01*
X0020643Y0001099D02*
X0021355D01*
X0020999Y0000743D02*
Y0001455D01*
X0072591Y0011492D02*
X0072891D01*
X0072741Y0011342D02*
Y0011642D01*
X0086968Y002023D02*
X0087268D01*
X0087118Y002008D02*
Y002038D01*
X0068858Y001802D02*
X0069158D01*
X0069008Y001787D02*
Y001817D01*
X0022343Y0003199D02*
X0023055D01*
X0022699Y0002843D02*
Y0003556D01*
X0096527Y0043799D02*
X0096827D01*
X0096677Y0043649D02*
Y0043949D01*
X0028339Y001524D02*
X0028639D01*
X0028489Y0015089D02*
Y0015389D01*
X0028069Y0027699D02*
X0028369D01*
X0028219Y0027549D02*
Y0027849D01*
X0030929Y0028339D02*
X0031229D01*
X0031079Y0028189D02*
Y0028489D01*
X0058849Y0014399D02*
X0059149D01*
X0058999Y0014249D02*
Y0014549D01*
X0060382Y0014232D02*
X0060682D01*
X0060532Y0014082D02*
Y0014382D01*
X0061521Y0013871D02*
X0061821D01*
X0061671Y0013721D02*
Y0014021D01*
X0089503Y0064191D02*
X0089803D01*
X0089653Y0064041D02*
Y0064341D01*
X0066338Y0031333D02*
X0066638D01*
X0066488Y0031183D02*
Y0031483D01*
X0042849Y0021449D02*
X0043149D01*
X0042999Y0021299D02*
Y0021599D01*
X0076468Y0041924D02*
X007718D01*
X0076824Y0041568D02*
Y004228D01*
X0079768Y0043124D02*
X008048D01*
X0080124Y0042768D02*
Y004348D01*
X0078168Y0042124D02*
X007888D01*
X0078524Y0041768D02*
Y004248D01*
X0077868Y0049824D02*
X007858D01*
X0078224Y0049468D02*
Y005018D01*
X0079768Y0048924D02*
X008048D01*
X0080124Y0048568D02*
Y004928D01*
X0080068Y0047124D02*
X008078D01*
X0080424Y0046768D02*
Y004748D01*
X0080068Y0045124D02*
X008078D01*
X0080424Y0044768D02*
Y004548D01*
X0097249Y0020899D02*
X0097549D01*
X0097399Y0020749D02*
Y0021049D01*
X0078238Y001831D02*
X0078538D01*
X0078388Y0018161D02*
Y001846D01*
X0063649Y0042199D02*
X0063949D01*
X0063799Y0042049D02*
Y0042349D01*
X0061743Y0048049D02*
X0062043D01*
X0061893Y0047899D02*
Y0048199D01*
X0048341Y0045399D02*
X0048641D01*
X0048491Y0045249D02*
Y0045549D01*
X0015143Y0000999D02*
X0015855D01*
X0015499Y0000643D02*
Y0001355D01*
X0000843Y0006399D02*
X0001555D01*
X0001199Y0006043D02*
Y0006755D01*
X0043199Y0044949D02*
X0043499D01*
X0043349Y0044799D02*
Y0045099D01*
X0042199Y0044199D02*
X0042499D01*
X0042349Y0044049D02*
Y0044349D01*
X0043249Y0040099D02*
X0043549D01*
X0043399Y0039949D02*
Y0040249D01*
X0043649Y0048099D02*
X0043949D01*
X0043799Y0047949D02*
Y0048249D01*
X0041249Y0039499D02*
X0041549D01*
X0041399Y0039349D02*
Y0039649D01*
X0042549Y0038199D02*
X0042849D01*
X0042699Y0038049D02*
Y0038349D01*
X0041268Y0026371D02*
X0041568D01*
X0041418Y0026221D02*
Y0026521D01*
X0041649Y0038199D02*
X0041949D01*
X0041799Y0038049D02*
Y0038349D01*
X004361Y0034815D02*
X004391D01*
X004376Y0034665D02*
Y0034965D01*
X0065342Y003121D02*
X0065642D01*
X0065492Y003106D02*
Y003136D01*
X0050684Y00222D02*
X0050984D01*
X0050834Y0022051D02*
Y002235D01*
X0050719Y0022905D02*
X0051019D01*
X0050869Y0022755D02*
Y0023055D01*
X0050736Y0023604D02*
X0051036D01*
X0050886Y0023454D02*
Y0023754D01*
X0075949Y0017549D02*
X0076249D01*
X0076099Y0017399D02*
Y0017699D01*
X0061049Y0010599D02*
X0061349D01*
X0061199Y0010449D02*
Y0010749D01*
X0032749Y0034649D02*
X0033049D01*
X0032899Y0034499D02*
Y0034799D01*
X0031949Y0035299D02*
X0032249D01*
X0032099Y0035149D02*
Y0035449D01*
X0040149Y0034199D02*
X0040449D01*
X0040299Y0034049D02*
Y0034349D01*
X0033549Y0037199D02*
X0033849D01*
X0033699Y0037049D02*
Y0037349D01*
X0029649Y0051099D02*
X0029949D01*
X0029799Y0050949D02*
Y0051249D01*
X0029649Y0034299D02*
X0029949D01*
X0029799Y0034149D02*
Y0034449D01*
X0042849Y0067199D02*
X0043149D01*
X0042999Y0067049D02*
Y0067349D01*
X0091149Y0027959D02*
X0091449D01*
X0091299Y0027809D02*
Y0028109D01*
X0073199Y0055499D02*
X0073499D01*
X0073349Y0055349D02*
Y0055649D01*
X0091949Y0029099D02*
X0092249D01*
X0092099Y0028949D02*
Y0029249D01*
X0093249Y0027959D02*
X0093549D01*
X0093399Y0027809D02*
Y0028109D01*
X0022549Y0038299D02*
X0022849D01*
X0022699Y0038149D02*
Y0038449D01*
X003175Y0031799D02*
X0032049D01*
X0031899Y0031649D02*
Y0031949D01*
X0033349Y0033399D02*
X0033649D01*
X0033499Y0033249D02*
Y0033549D01*
X0061149Y0009299D02*
X0061449D01*
X0061299Y0009149D02*
Y0009449D01*
X0068049Y0027999D02*
X0068349D01*
X0068199Y0027849D02*
Y0028149D01*
X0034549Y0002799D02*
X0034849D01*
X0034699Y0002649D02*
Y0002949D01*
X0034149Y0006899D02*
X0034449D01*
X0034299Y0006749D02*
Y0007049D01*
X0006949Y0023499D02*
X0007249D01*
X0007099Y0023349D02*
Y0023649D01*
X0007949Y0020299D02*
X0008249D01*
X0008099Y0020149D02*
Y0020449D01*
X0040249Y0039799D02*
X0040549D01*
X0040399Y0039649D02*
Y0039949D01*
X0064249Y0029499D02*
X0064549D01*
X0064399Y0029349D02*
Y0029649D01*
X0057849Y0029199D02*
X0058149D01*
X0057999Y0029049D02*
Y0029349D01*
X0099149Y0064299D02*
X0099449D01*
X0099299Y0064149D02*
Y0064449D01*
X0084149Y0067699D02*
X0084449D01*
X0084299Y0067549D02*
Y0067849D01*
X0073349Y0059199D02*
X0073649D01*
X0073499Y0059049D02*
Y0059349D01*
X0052249Y0052899D02*
X0052549D01*
X0052399Y0052749D02*
Y0053049D01*
X0049549Y0045399D02*
X0049849D01*
X0049699Y0045249D02*
Y0045549D01*
X0040049Y0029699D02*
X0040349D01*
X0040199Y0029549D02*
Y0029849D01*
X0033549Y0028799D02*
X0033849D01*
X0033699Y0028649D02*
Y0028949D01*
X0064549Y0013899D02*
X0064849D01*
X0064699Y0013749D02*
Y0014049D01*
X0084349Y0056199D02*
X0084649D01*
X0084499Y0056049D02*
Y0056349D01*
X0066961Y0010521D02*
X0067261D01*
X0067111Y0010371D02*
Y0010671D01*
X0048549Y0016099D02*
X0048849D01*
X0048699Y0015949D02*
Y0016249D01*
X0043149Y0010899D02*
X0043449D01*
X0043299Y0010749D02*
Y0011049D01*
X0092549Y0044399D02*
X0092849D01*
X0092699Y0044249D02*
Y0044549D01*
X0094849Y0041599D02*
X0095149D01*
X0094999Y0041449D02*
Y0041749D01*
X0100749Y0046999D02*
X0101049D01*
X0100899Y0046849D02*
Y0047149D01*
X0090149Y0049299D02*
X0090449D01*
X0090299Y0049149D02*
Y0049449D01*
X0094949Y0053999D02*
X009525D01*
X0095099Y0053849D02*
Y0054149D01*
X0094349Y0056899D02*
X0094649D01*
X0094499Y0056749D02*
Y0057049D01*
X0086949Y0059399D02*
X0087249D01*
X0087099Y0059249D02*
Y0059549D01*
X0023549Y0061099D02*
X0023849D01*
X0023699Y0060949D02*
Y0061249D01*
X0034449Y0023099D02*
X0034749D01*
X0034599Y0022949D02*
Y0023249D01*
X0038849Y0019699D02*
X0039149D01*
X0038999Y0019549D02*
Y0019849D01*
X0036649Y0023199D02*
X0036949D01*
X0036799Y0023049D02*
Y0023349D01*
X0082199Y0058399D02*
X0082499D01*
X0082349Y0058249D02*
Y0058549D01*
X0081849Y0063599D02*
X0082149D01*
X0081999Y0063449D02*
Y0063749D01*
X0030749Y0019199D02*
X0031049D01*
X0030899Y001905D02*
Y0019349D01*
X0023843Y0001099D02*
X0024555D01*
X0024199Y0000743D02*
Y0001455D01*
X0024243Y0002899D02*
X0024955D01*
X0024599Y0002543D02*
Y0003255D01*
X0023543Y0006799D02*
X0024255D01*
X0023899Y0006443D02*
Y0007155D01*
X0022743Y0005199D02*
X0023455D01*
X0023099Y0004843D02*
Y0005555D01*
X0022143Y0001099D02*
X0022855D01*
X0022499Y0000743D02*
Y0001455D01*
X0018943Y0000999D02*
X0019655D01*
X0019299Y0000643D02*
Y0001355D01*
X0004243Y0008999D02*
X0004955D01*
X0004599Y0008643D02*
Y0009355D01*
X0004443Y0007299D02*
X0005155D01*
X0004799Y0006943D02*
Y0007655D01*
X0004343Y0005599D02*
X0005055D01*
X0004699Y0005243D02*
Y0005955D01*
X0004143Y0003899D02*
X0004855D01*
X0004499Y0003543D02*
Y0004255D01*
X0004043Y0002399D02*
X0004755D01*
X0004399Y0002043D02*
Y0002755D01*
X0005743Y0000799D02*
X0006455D01*
X0006099Y0000443D02*
Y0001155D01*
X0007543Y0000999D02*
X0008255D01*
X0007899Y0000643D02*
Y0001355D01*
X0009343Y0002999D02*
X0010055D01*
X0009699Y0002643D02*
Y0003355D01*
X0009243Y0000899D02*
X0009955D01*
X0009599Y0000543D02*
Y0001255D01*
X0011443Y0000899D02*
X0012155D01*
X0011799Y0000543D02*
Y0001255D01*
X0013443Y0000999D02*
X0014155D01*
X0013799Y0000643D02*
Y0001355D01*
X0016943Y0001099D02*
X0017655D01*
X0017299Y0000743D02*
Y0001455D01*
X0000743Y0004599D02*
X0001455D01*
X0001099Y0004243D02*
Y0004955D01*
X0000943Y0008299D02*
X0001655D01*
X0001299Y0007943D02*
Y0008655D01*
X0001043Y0010199D02*
X0001755D01*
X0001399Y0009843D02*
Y0010555D01*
X0011243Y0011199D02*
X0011955D01*
X0011599Y0010843D02*
Y0011555D01*
X0009443Y0009699D02*
X0010155D01*
X0009799Y0009343D02*
Y0010055D01*
X0009343Y0011099D02*
X0010055D01*
X0009699Y0010743D02*
Y0011455D01*
X0002543Y0004599D02*
X0003255D01*
X0002899Y0004243D02*
Y0004955D01*
X0002543Y0006399D02*
X0003255D01*
X0002899Y0006043D02*
Y0006755D01*
X0002543Y0008399D02*
X0003255D01*
X0002899Y0008043D02*
Y0008755D01*
X0002743Y0010299D02*
X0003455D01*
X0003099Y0009943D02*
Y0010655D01*
X0007543Y0011399D02*
X0008255D01*
X0007899Y0011043D02*
Y0011755D01*
X0023143Y0015399D02*
X0023855D01*
X0023499Y0015043D02*
Y0015755D01*
X0023243Y0013499D02*
X0023955D01*
X0023599Y0013143D02*
Y0013855D01*
X0022543Y0011699D02*
X0023255D01*
X0022899Y0011343D02*
Y0012055D01*
X0023643Y0010399D02*
X0024355D01*
X0023999Y0010043D02*
Y0010755D01*
X0020343Y0002599D02*
X0021055D01*
X0020699Y0002243D02*
Y0002955D01*
X0018443Y0003099D02*
X0019155D01*
X0018799Y0002743D02*
Y0003455D01*
X0020043Y0004299D02*
X0020755D01*
X0020399Y0003943D02*
Y0004655D01*
X0018543Y0005199D02*
X0019255D01*
X0018899Y0004843D02*
Y0005555D01*
X0020643Y0005999D02*
X0021355D01*
X0020999Y0005643D02*
Y0006355D01*
X0019343Y0007099D02*
X0020055D01*
X0019699Y0006743D02*
Y0007455D01*
X0021443Y0007599D02*
X0022155D01*
X0021799Y0007243D02*
Y0007955D01*
X0022843Y0008699D02*
X0023555D01*
X0023199Y0008343D02*
Y0009055D01*
X0021543Y0010199D02*
X0022255D01*
X0021899Y0009843D02*
Y0010555D01*
X0020243Y0008699D02*
X0020955D01*
X0020599Y0008343D02*
Y0009055D01*
X0018143Y0008299D02*
X0018855D01*
X0018499Y0007943D02*
Y0008655D01*
X0016843Y0006799D02*
X0017555D01*
X0017199Y0006443D02*
Y0007155D01*
X0016643Y0004899D02*
X0017355D01*
X0016999Y0004543D02*
Y0005255D01*
X0016543Y0002899D02*
X0017255D01*
X0016899Y0002543D02*
Y0003255D01*
X0014943Y0002899D02*
X0015655D01*
X0015299Y0002543D02*
Y0003255D01*
X0014943Y0004699D02*
X0015655D01*
X0015299Y0004343D02*
Y0005055D01*
X0015143Y0006699D02*
X0015855D01*
X0015499Y0006343D02*
Y0007055D01*
X0015643Y0008599D02*
X0016355D01*
X0015999Y0008243D02*
Y0008955D01*
X0017043Y0009599D02*
X0017755D01*
X0017399Y0009243D02*
Y0009955D01*
X0018743Y0009999D02*
X0019455D01*
X0019099Y0009643D02*
Y0010355D01*
X0020143Y0011099D02*
X0020855D01*
X0020499Y0010743D02*
Y0011455D01*
X0020943Y00127D02*
X0021655D01*
X0021299Y0012343D02*
Y0013055D01*
X0021143Y0014399D02*
X0021855D01*
X0021499Y0014043D02*
Y0014755D01*
X0012943Y0011099D02*
X0013655D01*
X0013299Y0010743D02*
Y0011455D01*
X0014543Y0011199D02*
X0015255D01*
X0014899Y0010843D02*
Y0011555D01*
X0016143Y0011899D02*
X0016855D01*
X0016499Y0011543D02*
Y0012255D01*
X0017943Y0012499D02*
X0018655D01*
X0018299Y0012143D02*
Y0012855D01*
X0010749Y0037499D02*
X0011049D01*
X0010899Y0037349D02*
Y0037649D01*
X0014649Y0032399D02*
X0014949D01*
X0014799Y0032249D02*
Y0032549D01*
X0016249Y0032699D02*
X0016549D01*
X0016399Y0032549D02*
Y0032849D01*
X0017049Y0033499D02*
X0017349D01*
X0017199Y0033349D02*
Y0033649D01*
X0015349Y0033499D02*
X0015649D01*
X0015499Y0033349D02*
Y0033649D01*
X0013049Y0033599D02*
X0013349D01*
X0013199Y0033449D02*
Y0033749D01*
X0010849Y0036499D02*
X0011149D01*
X0010999Y0036349D02*
Y0036649D01*
X0022249Y0035199D02*
X0022549D01*
X0022399Y0035049D02*
Y0035349D01*
X0021749Y0033099D02*
X0022049D01*
X0021899Y0032949D02*
Y0033249D01*
X0021749Y0031499D02*
X0022049D01*
X0021899Y0031349D02*
Y0031649D01*
X0012249Y0030599D02*
X0012549D01*
X0012399Y0030449D02*
Y0030749D01*
X0007349Y0033099D02*
X0007649D01*
X0007499Y0032949D02*
Y0033249D01*
X0011949Y0033299D02*
X0012249D01*
X0012099Y0033149D02*
Y0033449D01*
X0007349Y0031399D02*
X0007649D01*
X0007499Y0031249D02*
Y0031549D01*
X0073349Y0061299D02*
X0073649D01*
X0073499Y0061149D02*
Y0061449D01*
X0013949Y0012749D02*
X0014249D01*
X0014099Y0012599D02*
Y0012899D01*
X0009349Y0019199D02*
X0009649D01*
X0009499Y001905D02*
Y0019349D01*
X0056949Y0030099D02*
X0057249D01*
X0057099Y0029949D02*
Y0030249D01*
X0089749Y0066399D02*
X0090049D01*
X0089899Y0066249D02*
Y0066549D01*
X0045849Y0043099D02*
X0046149D01*
X0045999Y0042949D02*
Y0043249D01*
X0035849Y0032799D02*
X0036149D01*
X0035999Y0032649D02*
Y0032949D01*
X0101249Y0051499D02*
X0101549D01*
X0101399Y0051349D02*
Y0051649D01*
X0060249Y0016699D02*
X0060549D01*
X0060399Y0016549D02*
Y0016849D01*
X0063208Y0015561D02*
X0063508D01*
X0063358Y0015411D02*
Y0015711D01*
X0061649Y0013099D02*
X0061949D01*
X0061799Y0012949D02*
Y0013249D01*
X0091549Y0060999D02*
X0091849D01*
X0091699Y0060849D02*
Y0061149D01*
X0090349Y0050499D02*
X0090649D01*
X0090499Y0050349D02*
Y0050649D01*
X0087549Y0050499D02*
X0087849D01*
X0087699Y0050349D02*
Y0050649D01*
X0041149Y0028699D02*
X0041449D01*
X0041299Y0028549D02*
Y0028849D01*
X0057849Y0023299D02*
X0058149D01*
X0057999Y0023149D02*
Y0023449D01*
X0035549Y0023999D02*
X0035849D01*
X0035699Y0023849D02*
Y0024149D01*
X0028349Y0020699D02*
X0028649D01*
X0028499Y0020549D02*
Y0020849D01*
X0027349Y0021199D02*
X0027649D01*
X0027499Y0021049D02*
Y0021349D01*
X0077149Y0016399D02*
X0077449D01*
X0077299Y0016249D02*
Y0016549D01*
X0082149Y0067699D02*
X0082449D01*
X0082299Y0067549D02*
Y0067849D01*
X0084199Y0054799D02*
X0084499D01*
X0084349Y0054649D02*
Y0054949D01*
X0079749Y0053199D02*
X0080049D01*
X0079899Y0053049D02*
Y0053349D01*
X0080349Y0054199D02*
X0080649D01*
X0080499Y0054049D02*
Y0054349D01*
X0077849Y0016999D02*
X0078149D01*
X0077999Y0016849D02*
Y0017149D01*
X0014849Y0056099D02*
X0015149D01*
X0014999Y0055949D02*
Y0056249D01*
X0022649Y0028099D02*
X0022949D01*
X0022799Y0027949D02*
Y0028249D01*
X0053883Y0048049D02*
X0054184D01*
X0054034Y0047899D02*
Y0048199D01*
X0048947Y0048049D02*
X0049247D01*
X0049097Y0047899D02*
Y0048199D01*
X0085155Y0053963D02*
X0085455D01*
X0085305Y0053813D02*
Y0054113D01*
X0085749Y0062099D02*
X0086049D01*
X0085899Y0061949D02*
Y0062249D01*
X0032854Y0051994D02*
X0033154D01*
X0033004Y0051844D02*
Y0052144D01*
X0011349Y0056399D02*
X0011649D01*
X0011499Y0056249D02*
Y0056549D01*
X0016449Y0050999D02*
X0016749D01*
X0016599Y0050849D02*
Y0051149D01*
X0001449Y0043199D02*
X0001749D01*
X0001599Y0043049D02*
Y0043349D01*
X0006949Y0056263D02*
X0007249D01*
X0007099Y0056113D02*
Y0056413D01*
X000795Y003802D02*
X000825D01*
X00081Y003787D02*
Y0038171D01*
X0077392Y0053499D02*
X0077692D01*
X0077542Y0053349D02*
Y0053649D01*
X0078724Y0054124D02*
X0079024D01*
X0078874Y0053975D02*
Y0054274D01*
X0079099Y0055199D02*
X0079399D01*
X0079249Y0055049D02*
Y0055349D01*
X002918Y006313D02*
X002948D01*
X002933Y006298D02*
Y006328D01*
X0045106Y0005899D02*
X0045406D01*
X0045256Y0005749D02*
Y0006049D01*
X0056449Y0017899D02*
X0056749D01*
X0056599Y0017749D02*
Y0018049D01*
X0055849Y0018799D02*
X0056149D01*
X0055999Y0018649D02*
Y0018949D01*
X0040949Y0033199D02*
X0041249D01*
X0041099Y0033049D02*
Y0033349D01*
X004408Y0036849D02*
X004438D01*
X004423Y0036699D02*
Y0036999D01*
X0044654Y0037589D02*
X0044954D01*
X0044804Y0037439D02*
Y0037739D01*
X0043336Y0035904D02*
X0043636D01*
X0043486Y0035755D02*
Y0036055D01*
X0034804Y0027672D02*
X0035104D01*
X0034954Y0027522D02*
Y0027822D01*
X0001899Y0026249D02*
X0002199D01*
X0002049Y0026099D02*
Y0026399D01*
X0043866Y0051265D02*
X0044166D01*
X0044016Y0051115D02*
Y0051415D01*
X0040201Y0026081D02*
X0040501D01*
X0040351Y0025931D02*
Y0026231D01*
X0069723Y0026503D02*
X0070023D01*
X0069873Y0026353D02*
Y0026653D01*
X006585Y0026099D02*
X006615D01*
X0066Y0025949D02*
Y0026249D01*
X0063124Y0025464D02*
X0063424D01*
X0063274Y0025314D02*
Y0025614D01*
X006541Y00293D02*
X006571D01*
X006556Y0029149D02*
Y002945D01*
X0048305Y0048629D02*
X0048605D01*
X0048455Y0048479D02*
Y0048779D01*
X0043626Y0049884D02*
X0043926D01*
X0043776Y0049734D02*
Y0050034D01*
X0033749Y0025623D02*
X0034049D01*
X0033899Y0025473D02*
Y0025773D01*
X004814Y004311D02*
X004844D01*
X004829Y004296D02*
Y004326D01*
X0068999Y0030649D02*
X0069299D01*
X0069149Y0030499D02*
Y0030799D01*
X0068374Y0032599D02*
X0068674D01*
X0068524Y0032449D02*
Y0032749D01*
X001808Y0037292D02*
X0018381D01*
X0018231Y0037143D02*
Y0037443D01*
X0000885Y0021794D02*
X0001185D01*
X0001035Y0021644D02*
Y0021944D01*
X005076Y0039969D02*
X005106D01*
X005091Y0039819D02*
Y0040119D01*
X0062667Y005073D02*
X0062967D01*
X0062817Y005058D02*
Y005088D01*
X0059436Y0050744D02*
X0059736D01*
X0059586Y0050594D02*
Y0050894D01*
X0055611Y0050948D02*
X0055911D01*
X0055761Y0050798D02*
Y0051097D01*
X0051026Y002159D02*
X0051326D01*
X0051176Y0021439D02*
Y0021739D01*
X0052299Y0018274D02*
X0052599D01*
X0052449Y0018124D02*
Y0018424D01*
X0030373Y0029403D02*
X0030673D01*
X0030523Y0029253D02*
Y0029553D01*
M02*