%FSTAX43Y43*%
%MOMM*%
%SFA1B1*%

%IPPOS*%
%ADD18R,0.799998X0.949998*%
%ADD19R,1.527997X0.649999*%
%ADD20R,0.999998X0.799998*%
%ADD21R,0.299999X1.549997*%
%ADD22R,1.199998X2.749995*%
%ADD23R,1.474997X0.299999*%
%ADD24R,0.299999X1.474997*%
%ADD25R,0.999998X0.999998*%
%ADD26R,0.999998X0.999998*%
%ADD27C,0.999998*%
%ADD28R,2.199996X1.349997*%
%ADD29R,0.799998X0.349999*%
%ADD30R,0.719999X0.689999*%
%ADD31R,0.899998X0.649999*%
%ADD32R,0.599999X0.749999*%
%ADD33R,1.499997X1.299997*%
%ADD34R,0.799998X0.939998*%
%ADD35C,0.250000*%
%ADD36R,0.809998X0.939998*%
%ADD37R,1.399997X0.999998*%
%ADD38R,0.949998X0.799998*%
%ADD39R,1.349997X0.399999*%
%ADD40R,1.899996X1.899996*%
%ADD41R,0.939998X0.799998*%
%ADD42R,0.979998X0.859998*%
%ADD43R,0.449999X1.474997*%
%ADD44R,1.299997X1.799996*%
%ADD45R,0.899998X1.199998*%
%ADD46R,1.299997X1.499997*%
%ADD47R,0.649999X0.899998*%
%ADD48R,0.939998X0.809998*%
%ADD49R,0.799998X0.999998*%
%ADD50R,2.119996X1.309997*%
%ADD51R,0.250000X0.899998*%
%ADD52R,1.019998X1.469997*%
%ADD53R,1.019998X1.819996*%
%ADD54R,1.899996X1.399997*%
%ADD55R,0.749999X0.599999*%
%ADD56R,0.499999X0.999998*%
%LNshm_pcb-1*%
%LPD*%
G36*
X0026091Y0028299D02*
X0026098Y0028298D01*
X0026105Y0028296*
X0026112Y0028293*
X0026118Y0028291*
X0026125Y0028288*
X0026131Y0028285*
X0026149Y0028273*
X0026154Y0028268*
X002616Y0028264*
X0026165Y0028259*
X0026169Y0028253*
X0026174Y0028248*
X0026178Y0028242*
X0026182Y0028236*
X0026185Y002823*
X0026188Y0028224*
X0026194Y002821*
X0026196Y0028204*
X0026197Y0028197*
X0026199Y002819*
X00262Y0028182*
Y0027782*
X0026199Y0027774*
X0026197Y0027767*
X0026196Y002776*
X0026194Y0027754*
X0026188Y002774*
X0026185Y0027734*
X0026182Y0027728*
X0026178Y0027722*
X0026174Y0027716*
X0026169Y0027711*
X0026165Y0027705*
X002616Y00277*
X0026154Y0027696*
X0026149Y0027691*
X0026143Y0027687*
X0026131Y0027679*
X0026125Y0027676*
X0026118Y0027673*
X0026112Y0027671*
X0026105Y0027668*
X0026098Y0027666*
X0026084Y0027664*
X0026077Y0027663*
X002607Y0027662*
X0026063*
X0026056Y0027663*
X0023644*
X0023637Y0027662*
X002363*
X0023623Y0027663*
X0023616Y0027664*
X0023602Y0027666*
X0023595Y0027668*
X0023588Y0027671*
X0023582Y0027673*
X0023575Y0027676*
X0023569Y0027679*
X0023557Y0027687*
X0023551Y0027691*
X0023546Y0027696*
X002354Y00277*
X0023535Y0027705*
X0023531Y0027711*
X0023526Y0027716*
X0023522Y0027722*
X0023518Y0027728*
X0023515Y0027734*
X0023512Y002774*
X0023506Y0027754*
X0023504Y002776*
X0023503Y0027767*
X0023501Y0027774*
X00235Y0027782*
Y0028182*
X0023501Y002819*
X0023503Y0028197*
X0023504Y0028204*
X0023506Y002821*
X0023512Y0028224*
X0023515Y002823*
X0023518Y0028236*
X0023522Y0028242*
X0023526Y0028248*
X0023531Y0028253*
X0023535Y0028259*
X002354Y0028264*
X0023546Y0028268*
X0023551Y0028273*
X0023569Y0028285*
X0023575Y0028288*
X0023582Y0028291*
X0023588Y0028293*
X0023595Y0028296*
X0023602Y0028298*
X0023609Y0028299*
X002363Y0028302*
X0023637*
X0023644Y0028301*
X0026056*
X0026063Y0028302*
X002607*
X0026091Y0028299*
G37*
G36*
X0005791D02*
X0005798Y0028298D01*
X0005805Y0028296*
X0005812Y0028293*
X0005818Y0028291*
X0005825Y0028288*
X0005831Y0028285*
X0005849Y0028273*
X0005854Y0028268*
X000586Y0028264*
X0005865Y0028259*
X0005869Y0028253*
X0005874Y0028248*
X0005878Y0028242*
X0005882Y0028236*
X0005885Y002823*
X0005888Y0028224*
X0005894Y002821*
X0005896Y0028204*
X0005897Y0028197*
X0005899Y002819*
X00059Y0028182*
Y0027782*
X0005899Y0027774*
X0005897Y0027767*
X0005896Y002776*
X0005894Y0027754*
X0005888Y002774*
X0005885Y0027734*
X0005882Y0027728*
X0005878Y0027722*
X0005874Y0027716*
X0005869Y0027711*
X0005865Y0027705*
X000586Y00277*
X0005854Y0027696*
X0005849Y0027691*
X0005843Y0027687*
X0005831Y0027679*
X0005825Y0027676*
X0005818Y0027673*
X0005812Y0027671*
X0005805Y0027668*
X0005798Y0027666*
X0005784Y0027664*
X0005777Y0027663*
X000577Y0027662*
X0005763*
X0005756Y0027663*
X0003344*
X0003337Y0027662*
X000333*
X0003323Y0027663*
X0003316Y0027664*
X0003302Y0027666*
X0003295Y0027668*
X0003288Y0027671*
X0003282Y0027673*
X0003275Y0027676*
X0003269Y0027679*
X0003257Y0027687*
X0003251Y0027691*
X0003246Y0027696*
X000324Y00277*
X0003235Y0027705*
X0003231Y0027711*
X0003226Y0027716*
X0003222Y0027722*
X0003218Y0027728*
X0003215Y0027734*
X0003212Y002774*
X0003206Y0027754*
X0003204Y002776*
X0003203Y0027767*
X0003201Y0027774*
X00032Y0027782*
Y0028182*
X0003201Y002819*
X0003203Y0028197*
X0003204Y0028204*
X0003206Y002821*
X0003212Y0028224*
X0003215Y002823*
X0003218Y0028236*
X0003222Y0028242*
X0003226Y0028248*
X0003231Y0028253*
X0003235Y0028259*
X000324Y0028264*
X0003246Y0028268*
X0003251Y0028273*
X0003269Y0028285*
X0003275Y0028288*
X0003282Y0028291*
X0003288Y0028293*
X0003295Y0028296*
X0003302Y0028298*
X0003309Y0028299*
X000333Y0028302*
X0003337*
X0003344Y0028301*
X0005756*
X0005763Y0028302*
X000577*
X0005791Y0028299*
G37*
G36*
X0020675Y0028503D02*
X0020699Y0028501D01*
X0020724Y0028498*
X0020748Y0028494*
X0020772Y0028488*
X0020796Y0028481*
X0020819Y0028473*
X0020842Y0028463*
X0020864Y0028453*
X0020886Y0028441*
X0020907Y0028428*
X0020927Y0028414*
X0020947Y0028399*
X0020966Y0028383*
X0020984Y0028366*
X0021001Y0028348*
X0021017Y0028329*
X0021032Y0028309*
X0021046Y0028289*
X0021059Y0028268*
X0021071Y0028246*
X0021082Y0028224*
X0021091Y0028201*
X0021099Y0028178*
X0021106Y0028154*
X0021112Y002813*
X0021116Y0028106*
X0021119Y0028081*
X0021121Y0028057*
X0021122Y0028032*
X0021121Y0028007*
X0021119Y0027983*
X0021116Y0027958*
X0021112Y0027934*
X0021106Y002791*
X0021099Y0027886*
X0021091Y0027863*
X0021082Y002784*
X0021071Y0027818*
X0021059Y0027796*
X0021046Y0027775*
X0021032Y0027755*
X0021017Y0027735*
X0021001Y0027716*
X0020984Y0027698*
X0020966Y0027681*
X0020947Y0027665*
X0020927Y002765*
X0020907Y0027636*
X0020886Y0027623*
X0020864Y0027611*
X0020842Y0027601*
X0020819Y0027591*
X0020796Y0027583*
X0020772Y0027576*
X0020748Y002757*
X0020724Y0027566*
X0020699Y0027563*
X0020675Y0027561*
X002065Y002756*
X0020629*
X0020604Y0027562*
X002058Y0027565*
X0020556Y0027569*
X0020532Y0027574*
X0020508Y002758*
X0020485Y0027588*
X0020463Y0027597*
X002044Y0027607*
X0020419Y0027619*
X0020398Y0027631*
X0020377Y0027644*
X0020357Y0027659*
X0020339Y0027675*
X0020321Y0027691*
X0020303Y0027708*
X0020287Y0027727*
X0020272Y0027746*
X0020258Y0027766*
X0020245Y0027786*
X0020233Y0027808*
X0020222Y002783*
X0020212Y0027852*
X0020203Y0027875*
X0020196Y0027898*
X002019Y0027922*
X0020185Y0027946*
X0020181Y002797*
X0020179Y0027994*
X0020178Y0028022*
X002065*
Y0028032*
X0020178*
X0020179Y0028057*
X0020181Y0028081*
X0020184Y0028106*
X0020188Y002813*
X0020194Y0028154*
X0020201Y0028178*
X0020209Y0028201*
X0020219Y0028224*
X0020229Y0028246*
X0020241Y0028268*
X0020254Y0028289*
X0020268Y0028309*
X0020283Y0028329*
X0020299Y0028348*
X0020316Y0028366*
X0020334Y0028383*
X0020353Y0028399*
X0020373Y0028414*
X0020393Y0028428*
X0020414Y0028441*
X0020436Y0028453*
X0020458Y0028463*
X0020481Y0028473*
X0020504Y0028481*
X0020528Y0028488*
X0020552Y0028494*
X0020576Y0028498*
X0020601Y0028501*
X0020625Y0028503*
X002065Y0028504*
X0020675Y0028503*
G37*
G36*
X0018975D02*
X0018999Y0028501D01*
X0019024Y0028498*
X0019048Y0028494*
X0019072Y0028488*
X0019096Y0028481*
X0019119Y0028473*
X0019142Y0028463*
X0019164Y0028453*
X0019186Y0028441*
X0019207Y0028428*
X0019227Y0028414*
X0019247Y0028399*
X0019266Y0028383*
X0019284Y0028366*
X0019301Y0028348*
X0019317Y0028329*
X0019332Y0028309*
X0019346Y0028289*
X0019359Y0028268*
X0019371Y0028246*
X0019381Y0028224*
X0019391Y0028201*
X0019399Y0028178*
X0019406Y0028154*
X0019412Y002813*
X0019416Y0028106*
X0019419Y0028081*
X0019421Y0028057*
X0019422Y0028032*
X0019421Y0028007*
X0019419Y0027983*
X0019416Y0027958*
X0019412Y0027934*
X0019406Y002791*
X0019399Y0027886*
X0019391Y0027863*
X0019381Y002784*
X0019371Y0027818*
X0019359Y0027796*
X0019346Y0027775*
X0019332Y0027755*
X0019317Y0027735*
X0019301Y0027716*
X0019284Y0027698*
X0019266Y0027681*
X0019247Y0027665*
X0019227Y002765*
X0019207Y0027636*
X0019186Y0027623*
X0019164Y0027611*
X0019142Y0027601*
X0019119Y0027591*
X0019096Y0027583*
X0019072Y0027576*
X0019048Y002757*
X0019024Y0027566*
X0018999Y0027563*
X0018975Y0027561*
X001895Y002756*
X0018929*
X0018904Y0027562*
X001888Y0027565*
X0018856Y0027569*
X0018832Y0027574*
X0018808Y002758*
X0018785Y0027588*
X0018763Y0027597*
X001874Y0027607*
X0018719Y0027619*
X0018698Y0027631*
X0018677Y0027644*
X0018657Y0027659*
X0018639Y0027675*
X0018621Y0027691*
X0018603Y0027708*
X0018587Y0027727*
X0018572Y0027746*
X0018558Y0027766*
X0018545Y0027786*
X0018533Y0027808*
X0018522Y002783*
X0018512Y0027852*
X0018503Y0027875*
X0018496Y0027898*
X001849Y0027922*
X0018485Y0027946*
X0018481Y002797*
X0018479Y0027994*
X0018478Y0028022*
X001895*
Y0028032*
X0018478*
X0018479Y0028057*
X0018481Y0028081*
X0018484Y0028106*
X0018488Y002813*
X0018494Y0028154*
X0018501Y0028178*
X0018509Y0028201*
X0018519Y0028224*
X0018529Y0028246*
X0018542Y0028268*
X0018554Y0028289*
X0018568Y0028309*
X0018583Y0028329*
X0018599Y0028348*
X0018616Y0028366*
X0018634Y0028383*
X0018653Y0028399*
X0018673Y0028414*
X0018693Y0028428*
X0018714Y0028441*
X0018736Y0028453*
X0018758Y0028463*
X0018781Y0028473*
X0018804Y0028481*
X0018828Y0028488*
X0018852Y0028494*
X0018876Y0028498*
X0018901Y0028501*
X0018925Y0028503*
X001895Y0028504*
X0018975Y0028503*
G37*
G36*
X0010475D02*
X0010499Y0028501D01*
X0010524Y0028498*
X0010548Y0028494*
X0010572Y0028488*
X0010596Y0028481*
X0010619Y0028473*
X0010642Y0028463*
X0010664Y0028453*
X0010686Y0028441*
X0010707Y0028428*
X0010727Y0028414*
X0010747Y0028399*
X0010766Y0028383*
X0010784Y0028366*
X0010801Y0028348*
X0010817Y0028329*
X0010832Y0028309*
X0010846Y0028289*
X0010859Y0028268*
X0010871Y0028246*
X0010881Y0028224*
X0010891Y0028201*
X0010899Y0028178*
X0010906Y0028154*
X0010912Y002813*
X0010916Y0028106*
X0010919Y0028081*
X0010922Y0028057*
X0010922Y0028032*
X0010922Y0028007*
X0010919Y0027983*
X0010916Y0027958*
X0010912Y0027934*
X0010906Y002791*
X0010899Y0027886*
X0010891Y0027863*
X0010881Y002784*
X0010871Y0027818*
X0010859Y0027796*
X0010846Y0027775*
X0010832Y0027755*
X0010817Y0027735*
X0010801Y0027716*
X0010784Y0027698*
X0010766Y0027681*
X0010747Y0027665*
X0010727Y002765*
X0010707Y0027636*
X0010686Y0027623*
X0010664Y0027611*
X0010642Y0027601*
X0010619Y0027591*
X0010596Y0027583*
X0010572Y0027576*
X0010548Y002757*
X0010524Y0027566*
X0010499Y0027563*
X0010475Y0027561*
X001045Y002756*
X0010429*
X0010404Y0027562*
X001038Y0027565*
X0010356Y0027569*
X0010332Y0027574*
X0010308Y002758*
X0010285Y0027588*
X0010263Y0027597*
X001024Y0027607*
X0010219Y0027619*
X0010198Y0027631*
X0010177Y0027644*
X0010157Y0027659*
X0010139Y0027675*
X0010121Y0027691*
X0010103Y0027708*
X0010087Y0027727*
X0010072Y0027746*
X0010058Y0027766*
X0010045Y0027786*
X0010033Y0027808*
X0010022Y002783*
X0010012Y0027852*
X0010003Y0027875*
X0009996Y0027898*
X000999Y0027922*
X0009985Y0027946*
X0009981Y002797*
X0009979Y0027994*
X0009978Y0028022*
X001045*
Y0028032*
X0009978*
X0009979Y0028057*
X0009981Y0028081*
X0009984Y0028106*
X0009988Y002813*
X0009994Y0028154*
X0010001Y0028178*
X0010009Y0028201*
X0010019Y0028224*
X0010029Y0028246*
X0010041Y0028268*
X0010054Y0028289*
X0010068Y0028309*
X0010083Y0028329*
X0010099Y0028348*
X0010116Y0028366*
X0010134Y0028383*
X0010153Y0028399*
X0010173Y0028414*
X0010193Y0028428*
X0010214Y0028441*
X0010236Y0028453*
X0010258Y0028463*
X0010281Y0028473*
X0010304Y0028481*
X0010328Y0028488*
X0010352Y0028494*
X0010376Y0028498*
X0010401Y0028501*
X0010425Y0028503*
X001045Y0028504*
X0010475Y0028503*
G37*
G36*
X0008775D02*
X0008799Y0028501D01*
X0008824Y0028498*
X0008848Y0028494*
X0008872Y0028488*
X0008896Y0028481*
X0008919Y0028473*
X0008942Y0028463*
X0008964Y0028453*
X0008986Y0028441*
X0009007Y0028428*
X0009027Y0028414*
X0009047Y0028399*
X0009066Y0028383*
X0009084Y0028366*
X0009101Y0028348*
X0009117Y0028329*
X0009132Y0028309*
X0009146Y0028289*
X0009159Y0028268*
X0009171Y0028246*
X0009181Y0028224*
X0009191Y0028201*
X0009199Y0028178*
X0009206Y0028154*
X0009212Y002813*
X0009216Y0028106*
X0009219Y0028081*
X0009221Y0028057*
X0009222Y0028032*
X0009221Y0028007*
X0009219Y0027983*
X0009216Y0027958*
X0009212Y0027934*
X0009206Y002791*
X0009199Y0027886*
X0009191Y0027863*
X0009181Y002784*
X0009171Y0027818*
X0009159Y0027796*
X0009146Y0027775*
X0009132Y0027755*
X0009117Y0027735*
X0009101Y0027716*
X0009084Y0027698*
X0009066Y0027681*
X0009047Y0027665*
X0009027Y002765*
X0009007Y0027636*
X0008986Y0027623*
X0008964Y0027611*
X0008942Y0027601*
X0008919Y0027591*
X0008896Y0027583*
X0008872Y0027576*
X0008848Y002757*
X0008824Y0027566*
X0008799Y0027563*
X0008775Y0027561*
X000875Y002756*
X0008729*
X0008704Y0027562*
X000868Y0027565*
X0008656Y0027569*
X0008632Y0027574*
X0008608Y002758*
X0008585Y0027588*
X0008563Y0027597*
X000854Y0027607*
X0008519Y0027619*
X0008498Y0027631*
X0008477Y0027644*
X0008457Y0027659*
X0008439Y0027675*
X0008421Y0027691*
X0008403Y0027708*
X0008387Y0027727*
X0008372Y0027746*
X0008358Y0027766*
X0008345Y0027786*
X0008333Y0027808*
X0008322Y002783*
X0008312Y0027852*
X0008303Y0027875*
X0008296Y0027898*
X000829Y0027922*
X0008285Y0027946*
X0008281Y002797*
X0008279Y0027994*
X0008278Y0028022*
X000875*
Y0028032*
X0008278*
X0008279Y0028057*
X0008281Y0028081*
X0008284Y0028106*
X0008288Y002813*
X0008294Y0028154*
X0008301Y0028178*
X0008309Y0028201*
X0008319Y0028224*
X0008329Y0028246*
X0008341Y0028268*
X0008354Y0028289*
X0008368Y0028309*
X0008383Y0028329*
X0008399Y0028348*
X0008416Y0028366*
X0008434Y0028383*
X0008453Y0028399*
X0008473Y0028414*
X0008493Y0028428*
X0008514Y0028441*
X0008536Y0028453*
X0008558Y0028463*
X0008581Y0028473*
X0008604Y0028481*
X0008628Y0028488*
X0008652Y0028494*
X0008676Y0028498*
X0008701Y0028501*
X0008725Y0028503*
X000875Y0028504*
X0008775Y0028503*
G37*
G36*
X0026084Y00272D02*
X0026091Y0027199D01*
X0026098Y0027198*
X0026105Y0027196*
X0026112Y0027193*
X0026118Y0027191*
X0026125Y0027188*
X0026131Y0027185*
X0026149Y0027173*
X0026154Y0027168*
X002616Y0027164*
X0026165Y0027159*
X0026169Y0027153*
X0026174Y0027148*
X0026178Y0027142*
X0026182Y0027136*
X0026185Y002713*
X0026188Y0027124*
X0026194Y002711*
X0026196Y0027104*
X0026197Y0027097*
X0026199Y002709*
X00262Y0027082*
Y0026682*
X0026199Y0026674*
X0026197Y0026667*
X0026196Y002666*
X0026194Y0026654*
X0026188Y002664*
X0026185Y0026634*
X0026182Y0026628*
X0026178Y0026622*
X0026174Y0026616*
X0026169Y0026611*
X0026165Y0026605*
X002616Y00266*
X0026154Y0026596*
X0026149Y0026591*
X0026143Y0026587*
X0026131Y0026579*
X0026125Y0026576*
X0026118Y0026573*
X0026112Y0026571*
X0026105Y0026568*
X0026098Y0026566*
X0026091Y0026565*
X0026084Y0026564*
X002607Y0026562*
X0026063*
X0026056Y0026563*
X0023644*
X0023637Y0026562*
X002363*
X0023616Y0026564*
X0023609Y0026565*
X0023602Y0026566*
X0023595Y0026568*
X0023588Y0026571*
X0023582Y0026573*
X0023575Y0026576*
X0023569Y0026579*
X0023557Y0026587*
X0023551Y0026591*
X0023546Y0026596*
X002354Y00266*
X0023535Y0026605*
X0023531Y0026611*
X0023526Y0026616*
X0023522Y0026622*
X0023518Y0026628*
X0023515Y0026634*
X0023512Y002664*
X0023506Y0026654*
X0023504Y002666*
X0023503Y0026667*
X0023501Y0026674*
X00235Y0026682*
Y0027082*
X0023501Y002709*
X0023503Y0027097*
X0023504Y0027104*
X0023506Y002711*
X0023512Y0027124*
X0023515Y002713*
X0023518Y0027136*
X0023522Y0027142*
X0023526Y0027148*
X0023531Y0027153*
X0023535Y0027159*
X002354Y0027164*
X0023546Y0027168*
X0023551Y0027173*
X0023569Y0027185*
X0023575Y0027188*
X0023582Y0027191*
X0023588Y0027193*
X0023595Y0027196*
X0023602Y0027198*
X0023609Y0027199*
X0023616Y00272*
X002363Y0027202*
X0023637*
X0023644Y0027201*
X0026056*
X0026063Y0027202*
X002607*
X0026084Y00272*
G37*
G36*
X0005784D02*
X0005791Y0027199D01*
X0005798Y0027198*
X0005805Y0027196*
X0005812Y0027193*
X0005818Y0027191*
X0005825Y0027188*
X0005831Y0027185*
X0005849Y0027173*
X0005854Y0027168*
X000586Y0027164*
X0005865Y0027159*
X0005869Y0027153*
X0005874Y0027148*
X0005878Y0027142*
X0005882Y0027136*
X0005885Y002713*
X0005888Y0027124*
X0005894Y002711*
X0005896Y0027104*
X0005897Y0027097*
X0005899Y002709*
X00059Y0027082*
Y0026682*
X0005899Y0026674*
X0005897Y0026667*
X0005896Y002666*
X0005894Y0026654*
X0005888Y002664*
X0005885Y0026634*
X0005882Y0026628*
X0005878Y0026622*
X0005874Y0026616*
X0005869Y0026611*
X0005865Y0026605*
X000586Y00266*
X0005854Y0026596*
X0005849Y0026591*
X0005843Y0026587*
X0005831Y0026579*
X0005825Y0026576*
X0005818Y0026573*
X0005812Y0026571*
X0005805Y0026568*
X0005798Y0026566*
X0005791Y0026565*
X0005784Y0026564*
X000577Y0026562*
X0005763*
X0005756Y0026563*
X0003344*
X0003337Y0026562*
X000333*
X0003316Y0026564*
X0003309Y0026565*
X0003302Y0026566*
X0003295Y0026568*
X0003288Y0026571*
X0003282Y0026573*
X0003275Y0026576*
X0003269Y0026579*
X0003257Y0026587*
X0003251Y0026591*
X0003246Y0026596*
X000324Y00266*
X0003235Y0026605*
X0003231Y0026611*
X0003226Y0026616*
X0003222Y0026622*
X0003218Y0026628*
X0003215Y0026634*
X0003212Y002664*
X0003206Y0026654*
X0003204Y002666*
X0003203Y0026667*
X0003201Y0026674*
X00032Y0026682*
Y0027082*
X0003201Y002709*
X0003203Y0027097*
X0003204Y0027104*
X0003206Y002711*
X0003212Y0027124*
X0003215Y002713*
X0003218Y0027136*
X0003222Y0027142*
X0003226Y0027148*
X0003231Y0027153*
X0003235Y0027159*
X000324Y0027164*
X0003246Y0027168*
X0003251Y0027173*
X0003269Y0027185*
X0003275Y0027188*
X0003282Y0027191*
X0003288Y0027193*
X0003295Y0027196*
X0003302Y0027198*
X0003309Y0027199*
X0003316Y00272*
X000333Y0027202*
X0003337*
X0003344Y0027201*
X0005756*
X0005763Y0027202*
X000577*
X0005784Y00272*
G37*
G36*
X0026084Y00261D02*
X0026091Y0026099D01*
X0026098Y0026098*
X0026105Y0026096*
X0026112Y0026093*
X0026118Y0026091*
X0026125Y0026088*
X0026131Y0026085*
X0026149Y0026073*
X0026154Y0026068*
X002616Y0026064*
X0026165Y0026059*
X0026169Y0026053*
X0026174Y0026048*
X0026178Y0026042*
X0026182Y0026036*
X0026185Y002603*
X0026188Y0026024*
X0026194Y002601*
X0026196Y0026004*
X0026197Y0025997*
X0026199Y002599*
X00262Y0025982*
Y0025582*
X0026199Y0025574*
X0026197Y0025567*
X0026196Y002556*
X0026194Y0025554*
X0026188Y002554*
X0026185Y0025534*
X0026182Y0025528*
X0026178Y0025522*
X0026174Y0025516*
X0026169Y0025511*
X0026165Y0025505*
X002616Y00255*
X0026154Y0025496*
X0026149Y0025491*
X0026131Y0025479*
X0026125Y0025476*
X0026118Y0025473*
X0026112Y0025471*
X0026105Y0025468*
X0026098Y0025466*
X0026091Y0025465*
X0026084Y0025464*
X002607Y0025462*
X0026063*
X0026056Y0025463*
X0023644*
X0023637Y0025462*
X002363*
X0023616Y0025464*
X0023609Y0025465*
X0023602Y0025466*
X0023595Y0025468*
X0023588Y0025471*
X0023582Y0025473*
X0023575Y0025476*
X0023569Y0025479*
X0023551Y0025491*
X0023546Y0025496*
X002354Y00255*
X0023535Y0025505*
X0023531Y0025511*
X0023526Y0025516*
X0023522Y0025522*
X0023518Y0025528*
X0023515Y0025534*
X0023512Y002554*
X0023506Y0025554*
X0023504Y002556*
X0023503Y0025567*
X0023501Y0025574*
X00235Y0025582*
Y0025982*
X0023501Y002599*
X0023503Y0025997*
X0023504Y0026004*
X0023506Y002601*
X0023512Y0026024*
X0023515Y002603*
X0023518Y0026036*
X0023522Y0026042*
X0023526Y0026048*
X0023531Y0026053*
X0023535Y0026059*
X002354Y0026064*
X0023546Y0026068*
X0023551Y0026073*
X0023569Y0026085*
X0023575Y0026088*
X0023582Y0026091*
X0023588Y0026093*
X0023595Y0026096*
X0023602Y0026098*
X0023609Y0026099*
X0023616Y00261*
X002363Y0026102*
X0023637*
X0023644Y0026101*
X0026056*
X0026063Y0026102*
X002607*
X0026084Y00261*
G37*
G36*
X0005784D02*
X0005791Y0026099D01*
X0005798Y0026098*
X0005805Y0026096*
X0005812Y0026093*
X0005818Y0026091*
X0005825Y0026088*
X0005831Y0026085*
X0005849Y0026073*
X0005854Y0026068*
X000586Y0026064*
X0005865Y0026059*
X0005869Y0026053*
X0005874Y0026048*
X0005878Y0026042*
X0005882Y0026036*
X0005885Y002603*
X0005888Y0026024*
X0005894Y002601*
X0005896Y0026004*
X0005897Y0025997*
X0005899Y002599*
X00059Y0025982*
Y0025582*
X0005899Y0025574*
X0005897Y0025567*
X0005896Y002556*
X0005894Y0025554*
X0005888Y002554*
X0005885Y0025534*
X0005882Y0025528*
X0005878Y0025522*
X0005874Y0025516*
X0005869Y0025511*
X0005865Y0025505*
X000586Y00255*
X0005854Y0025496*
X0005849Y0025491*
X0005831Y0025479*
X0005825Y0025476*
X0005818Y0025473*
X0005812Y0025471*
X0005805Y0025468*
X0005798Y0025466*
X0005791Y0025465*
X0005784Y0025464*
X000577Y0025462*
X0005763*
X0005756Y0025463*
X0003344*
X0003337Y0025462*
X000333*
X0003316Y0025464*
X0003309Y0025465*
X0003302Y0025466*
X0003295Y0025468*
X0003288Y0025471*
X0003282Y0025473*
X0003275Y0025476*
X0003269Y0025479*
X0003251Y0025491*
X0003246Y0025496*
X000324Y00255*
X0003235Y0025505*
X0003231Y0025511*
X0003226Y0025516*
X0003222Y0025522*
X0003218Y0025528*
X0003215Y0025534*
X0003212Y002554*
X0003206Y0025554*
X0003204Y002556*
X0003203Y0025567*
X0003201Y0025574*
X00032Y0025582*
Y0025982*
X0003201Y002599*
X0003203Y0025997*
X0003204Y0026004*
X0003206Y002601*
X0003212Y0026024*
X0003215Y002603*
X0003218Y0026036*
X0003222Y0026042*
X0003226Y0026048*
X0003231Y0026053*
X0003235Y0026059*
X000324Y0026064*
X0003246Y0026068*
X0003251Y0026073*
X0003269Y0026085*
X0003275Y0026088*
X0003282Y0026091*
X0003288Y0026093*
X0003295Y0026096*
X0003302Y0026098*
X0003309Y0026099*
X0003316Y00261*
X000333Y0026102*
X0003337*
X0003344Y0026101*
X0005756*
X0005763Y0026102*
X000577*
X0005784Y00261*
G37*
G36*
X0020675Y0026803D02*
X0020699Y0026801D01*
X0020724Y0026798*
X0020748Y0026794*
X0020772Y0026788*
X0020796Y0026781*
X0020819Y0026773*
X0020842Y0026763*
X0020864Y0026753*
X0020886Y0026741*
X0020907Y0026728*
X0020927Y0026714*
X0020947Y0026699*
X0020966Y0026683*
X0020984Y0026666*
X0021001Y0026648*
X0021017Y0026629*
X0021032Y0026609*
X0021046Y0026589*
X0021059Y0026568*
X0021071Y0026546*
X0021082Y0026524*
X0021091Y0026501*
X0021099Y0026478*
X0021106Y0026454*
X0021112Y002643*
X0021116Y0026406*
X0021119Y0026381*
X0021121Y0026357*
X0021122Y0026332*
X0021121Y0026307*
X0021119Y0026283*
X0021116Y0026258*
X0021112Y0026234*
X0021106Y002621*
X0021099Y0026186*
X0021091Y0026163*
X0021082Y002614*
X0021071Y0026118*
X0021059Y0026096*
X0021046Y0026075*
X0021032Y0026055*
X0021017Y0026035*
X0021001Y0026016*
X0020984Y0025998*
X0020966Y0025981*
X0020947Y0025965*
X0020927Y002595*
X0020907Y0025936*
X0020886Y0025923*
X0020864Y0025911*
X0020842Y0025901*
X0020819Y0025891*
X0020796Y0025883*
X0020772Y0025876*
X0020748Y002587*
X0020724Y0025866*
X0020699Y0025863*
X0020675Y0025861*
X002065Y002586*
X0020629*
X0020604Y0025862*
X002058Y0025865*
X0020556Y0025869*
X0020532Y0025874*
X0020508Y002588*
X0020485Y0025888*
X0020463Y0025897*
X002044Y0025908*
X0020419Y0025919*
X0020398Y0025931*
X0020377Y0025944*
X0020357Y0025959*
X0020339Y0025975*
X0020321Y0025991*
X0020303Y0026008*
X0020287Y0026027*
X0020272Y0026046*
X0020258Y0026066*
X0020245Y0026086*
X0020233Y0026108*
X0020222Y002613*
X0020212Y0026152*
X0020203Y0026175*
X0020196Y0026198*
X002019Y0026222*
X0020185Y0026246*
X0020181Y002627*
X0020179Y0026294*
X0020178Y0026322*
X002065*
Y0026332*
X0020178*
X0020179Y0026357*
X0020181Y0026381*
X0020184Y0026406*
X0020188Y002643*
X0020194Y0026454*
X0020201Y0026478*
X0020209Y0026501*
X0020219Y0026524*
X0020229Y0026546*
X0020241Y0026568*
X0020254Y0026589*
X0020268Y0026609*
X0020283Y0026629*
X0020299Y0026648*
X0020316Y0026666*
X0020334Y0026683*
X0020353Y0026699*
X0020373Y0026714*
X0020393Y0026728*
X0020414Y0026741*
X0020436Y0026753*
X0020458Y0026763*
X0020481Y0026773*
X0020504Y0026781*
X0020528Y0026788*
X0020552Y0026794*
X0020576Y0026798*
X0020601Y0026801*
X0020625Y0026803*
X002065Y0026804*
X0020675Y0026803*
G37*
G36*
X0018975D02*
X0018999Y0026801D01*
X0019024Y0026798*
X0019048Y0026794*
X0019072Y0026788*
X0019096Y0026781*
X0019119Y0026773*
X0019142Y0026763*
X0019164Y0026753*
X0019186Y0026741*
X0019207Y0026728*
X0019227Y0026714*
X0019247Y0026699*
X0019266Y0026683*
X0019284Y0026666*
X0019301Y0026648*
X0019317Y0026629*
X0019332Y0026609*
X0019346Y0026589*
X0019359Y0026568*
X0019371Y0026546*
X0019381Y0026524*
X0019391Y0026501*
X0019399Y0026478*
X0019406Y0026454*
X0019412Y002643*
X0019416Y0026406*
X0019419Y0026381*
X0019421Y0026357*
X0019422Y0026332*
X0019421Y0026307*
X0019419Y0026283*
X0019416Y0026258*
X0019412Y0026234*
X0019406Y002621*
X0019399Y0026186*
X0019391Y0026163*
X0019381Y002614*
X0019371Y0026118*
X0019359Y0026096*
X0019346Y0026075*
X0019332Y0026055*
X0019317Y0026035*
X0019301Y0026016*
X0019284Y0025998*
X0019266Y0025981*
X0019247Y0025965*
X0019227Y002595*
X0019207Y0025936*
X0019186Y0025923*
X0019164Y0025911*
X0019142Y0025901*
X0019119Y0025891*
X0019096Y0025883*
X0019072Y0025876*
X0019048Y002587*
X0019024Y0025866*
X0018999Y0025863*
X0018975Y0025861*
X001895Y002586*
X0018929*
X0018904Y0025862*
X001888Y0025865*
X0018856Y0025869*
X0018832Y0025874*
X0018808Y002588*
X0018785Y0025888*
X0018763Y0025897*
X001874Y0025908*
X0018719Y0025919*
X0018698Y0025931*
X0018677Y0025944*
X0018657Y0025959*
X0018639Y0025975*
X0018621Y0025991*
X0018603Y0026008*
X0018587Y0026027*
X0018572Y0026046*
X0018558Y0026066*
X0018545Y0026086*
X0018533Y0026108*
X0018522Y002613*
X0018512Y0026152*
X0018503Y0026175*
X0018496Y0026198*
X001849Y0026222*
X0018485Y0026246*
X0018481Y002627*
X0018479Y0026294*
X0018478Y0026322*
X001895*
Y0026332*
X0018478*
X0018479Y0026357*
X0018481Y0026381*
X0018484Y0026406*
X0018488Y002643*
X0018494Y0026454*
X0018501Y0026478*
X0018509Y0026501*
X0018519Y0026524*
X0018529Y0026546*
X0018542Y0026568*
X0018554Y0026589*
X0018568Y0026609*
X0018583Y0026629*
X0018599Y0026648*
X0018616Y0026666*
X0018634Y0026683*
X0018653Y0026699*
X0018673Y0026714*
X0018693Y0026728*
X0018714Y0026741*
X0018736Y0026753*
X0018758Y0026763*
X0018781Y0026773*
X0018804Y0026781*
X0018828Y0026788*
X0018852Y0026794*
X0018876Y0026798*
X0018901Y0026801*
X0018925Y0026803*
X001895Y0026804*
X0018975Y0026803*
G37*
G36*
X0010475D02*
X0010499Y0026801D01*
X0010524Y0026798*
X0010548Y0026794*
X0010572Y0026788*
X0010596Y0026781*
X0010619Y0026773*
X0010642Y0026763*
X0010664Y0026753*
X0010686Y0026741*
X0010707Y0026728*
X0010727Y0026714*
X0010747Y0026699*
X0010766Y0026683*
X0010784Y0026666*
X0010801Y0026648*
X0010817Y0026629*
X0010832Y0026609*
X0010846Y0026589*
X0010859Y0026568*
X0010871Y0026546*
X0010881Y0026524*
X0010891Y0026501*
X0010899Y0026478*
X0010906Y0026454*
X0010912Y002643*
X0010916Y0026406*
X0010919Y0026381*
X0010922Y0026357*
X0010922Y0026332*
X0010922Y0026307*
X0010919Y0026283*
X0010916Y0026258*
X0010912Y0026234*
X0010906Y002621*
X0010899Y0026186*
X0010891Y0026163*
X0010881Y002614*
X0010871Y0026118*
X0010859Y0026096*
X0010846Y0026075*
X0010832Y0026055*
X0010817Y0026035*
X0010801Y0026016*
X0010784Y0025998*
X0010766Y0025981*
X0010747Y0025965*
X0010727Y002595*
X0010707Y0025936*
X0010686Y0025923*
X0010664Y0025911*
X0010642Y0025901*
X0010619Y0025891*
X0010596Y0025883*
X0010572Y0025876*
X0010548Y002587*
X0010524Y0025866*
X0010499Y0025863*
X0010475Y0025861*
X001045Y002586*
X0010429*
X0010404Y0025862*
X001038Y0025865*
X0010356Y0025869*
X0010332Y0025874*
X0010308Y002588*
X0010285Y0025888*
X0010263Y0025897*
X001024Y0025908*
X0010219Y0025919*
X0010198Y0025931*
X0010177Y0025944*
X0010157Y0025959*
X0010139Y0025975*
X0010121Y0025991*
X0010103Y0026008*
X0010087Y0026027*
X0010072Y0026046*
X0010058Y0026066*
X0010045Y0026086*
X0010033Y0026108*
X0010022Y002613*
X0010012Y0026152*
X0010003Y0026175*
X0009996Y0026198*
X000999Y0026222*
X0009985Y0026246*
X0009981Y002627*
X0009979Y0026294*
X0009978Y0026322*
X001045*
Y0026332*
X0009978*
X0009979Y0026357*
X0009981Y0026381*
X0009984Y0026406*
X0009988Y002643*
X0009994Y0026454*
X0010001Y0026478*
X0010009Y0026501*
X0010019Y0026524*
X0010029Y0026546*
X0010041Y0026568*
X0010054Y0026589*
X0010068Y0026609*
X0010083Y0026629*
X0010099Y0026648*
X0010116Y0026666*
X0010134Y0026683*
X0010153Y0026699*
X0010173Y0026714*
X0010193Y0026728*
X0010214Y0026741*
X0010236Y0026753*
X0010258Y0026763*
X0010281Y0026773*
X0010304Y0026781*
X0010328Y0026788*
X0010352Y0026794*
X0010376Y0026798*
X0010401Y0026801*
X0010425Y0026803*
X001045Y0026804*
X0010475Y0026803*
G37*
G36*
X0008775D02*
X0008799Y0026801D01*
X0008824Y0026798*
X0008848Y0026794*
X0008872Y0026788*
X0008896Y0026781*
X0008919Y0026773*
X0008942Y0026763*
X0008964Y0026753*
X0008986Y0026741*
X0009007Y0026728*
X0009027Y0026714*
X0009047Y0026699*
X0009066Y0026683*
X0009084Y0026666*
X0009101Y0026648*
X0009117Y0026629*
X0009132Y0026609*
X0009146Y0026589*
X0009159Y0026568*
X0009171Y0026546*
X0009181Y0026524*
X0009191Y0026501*
X0009199Y0026478*
X0009206Y0026454*
X0009212Y002643*
X0009216Y0026406*
X0009219Y0026381*
X0009221Y0026357*
X0009222Y0026332*
X0009221Y0026307*
X0009219Y0026283*
X0009216Y0026258*
X0009212Y0026234*
X0009206Y002621*
X0009199Y0026186*
X0009191Y0026163*
X0009181Y002614*
X0009171Y0026118*
X0009159Y0026096*
X0009146Y0026075*
X0009132Y0026055*
X0009117Y0026035*
X0009101Y0026016*
X0009084Y0025998*
X0009066Y0025981*
X0009047Y0025965*
X0009027Y002595*
X0009007Y0025936*
X0008986Y0025923*
X0008964Y0025911*
X0008942Y0025901*
X0008919Y0025891*
X0008896Y0025883*
X0008872Y0025876*
X0008848Y002587*
X0008824Y0025866*
X0008799Y0025863*
X0008775Y0025861*
X000875Y002586*
X0008729*
X0008704Y0025862*
X000868Y0025865*
X0008656Y0025869*
X0008632Y0025874*
X0008608Y002588*
X0008585Y0025888*
X0008563Y0025897*
X000854Y0025908*
X0008519Y0025919*
X0008498Y0025931*
X0008477Y0025944*
X0008457Y0025959*
X0008439Y0025975*
X0008421Y0025991*
X0008403Y0026008*
X0008387Y0026027*
X0008372Y0026046*
X0008358Y0026066*
X0008345Y0026086*
X0008333Y0026108*
X0008322Y002613*
X0008312Y0026152*
X0008303Y0026175*
X0008296Y0026198*
X000829Y0026222*
X0008285Y0026246*
X0008281Y002627*
X0008279Y0026294*
X0008278Y0026322*
X000875*
Y0026332*
X0008278*
X0008279Y0026357*
X0008281Y0026381*
X0008284Y0026406*
X0008288Y002643*
X0008294Y0026454*
X0008301Y0026478*
X0008309Y0026501*
X0008319Y0026524*
X0008329Y0026546*
X0008341Y0026568*
X0008354Y0026589*
X0008368Y0026609*
X0008383Y0026629*
X0008399Y0026648*
X0008416Y0026666*
X0008434Y0026683*
X0008453Y0026699*
X0008473Y0026714*
X0008493Y0026728*
X0008514Y0026741*
X0008536Y0026753*
X0008558Y0026763*
X0008581Y0026773*
X0008604Y0026781*
X0008628Y0026788*
X0008652Y0026794*
X0008676Y0026798*
X0008701Y0026801*
X0008725Y0026803*
X000875Y0026804*
X0008775Y0026803*
G37*
G36*
X0026077Y0025001D02*
X0026084Y0025D01*
X0026098Y0024998*
X0026105Y0024996*
X0026112Y0024993*
X0026118Y0024991*
X0026125Y0024988*
X0026131Y0024985*
X0026143Y0024977*
X0026149Y0024973*
X0026154Y0024968*
X002616Y0024964*
X0026165Y0024959*
X0026169Y0024953*
X0026174Y0024948*
X0026178Y0024942*
X0026182Y0024936*
X0026185Y002493*
X0026188Y0024924*
X0026194Y002491*
X0026196Y0024904*
X0026197Y0024897*
X0026199Y002489*
X00262Y0024882*
Y0024482*
X0026199Y0024474*
X0026197Y0024467*
X0026196Y002446*
X0026194Y0024454*
X0026188Y002444*
X0026185Y0024434*
X0026182Y0024428*
X0026178Y0024422*
X0026174Y0024416*
X0026169Y0024411*
X0026165Y0024405*
X002616Y00244*
X0026154Y0024396*
X0026149Y0024391*
X0026131Y0024379*
X0026125Y0024376*
X0026118Y0024373*
X0026112Y0024371*
X0026105Y0024368*
X0026098Y0024366*
X0026091Y0024365*
X002607Y0024362*
X0026063*
X0026056Y0024363*
X0023644*
X0023637Y0024362*
X002363*
X0023609Y0024365*
X0023602Y0024366*
X0023595Y0024368*
X0023588Y0024371*
X0023582Y0024373*
X0023575Y0024376*
X0023569Y0024379*
X0023551Y0024391*
X0023546Y0024396*
X002354Y00244*
X0023535Y0024405*
X0023531Y0024411*
X0023526Y0024416*
X0023522Y0024422*
X0023518Y0024428*
X0023515Y0024434*
X0023512Y002444*
X0023506Y0024454*
X0023504Y002446*
X0023503Y0024467*
X0023501Y0024474*
X00235Y0024482*
Y0024882*
X0023501Y002489*
X0023503Y0024897*
X0023504Y0024904*
X0023506Y002491*
X0023512Y0024924*
X0023515Y002493*
X0023518Y0024936*
X0023522Y0024942*
X0023526Y0024948*
X0023531Y0024953*
X0023535Y0024959*
X002354Y0024964*
X0023546Y0024968*
X0023551Y0024973*
X0023557Y0024977*
X0023569Y0024985*
X0023575Y0024988*
X0023582Y0024991*
X0023588Y0024993*
X0023595Y0024996*
X0023602Y0024998*
X0023616Y0025*
X0023623Y0025001*
X002363Y0025002*
X0023637*
X0023644Y0025001*
X0026056*
X0026063Y0025002*
X002607*
X0026077Y0025001*
G37*
G36*
X0005777D02*
X0005784Y0025D01*
X0005798Y0024998*
X0005805Y0024996*
X0005812Y0024993*
X0005818Y0024991*
X0005825Y0024988*
X0005831Y0024985*
X0005843Y0024977*
X0005849Y0024973*
X0005854Y0024968*
X000586Y0024964*
X0005865Y0024959*
X0005869Y0024953*
X0005874Y0024948*
X0005878Y0024942*
X0005882Y0024936*
X0005885Y002493*
X0005888Y0024924*
X0005894Y002491*
X0005896Y0024904*
X0005897Y0024897*
X0005899Y002489*
X00059Y0024882*
Y0024482*
X0005899Y0024474*
X0005897Y0024467*
X0005896Y002446*
X0005894Y0024454*
X0005888Y002444*
X0005885Y0024434*
X0005882Y0024428*
X0005878Y0024422*
X0005874Y0024416*
X0005869Y0024411*
X0005865Y0024405*
X000586Y00244*
X0005854Y0024396*
X0005849Y0024391*
X0005831Y0024379*
X0005825Y0024376*
X0005818Y0024373*
X0005812Y0024371*
X0005805Y0024368*
X0005798Y0024366*
X0005791Y0024365*
X000577Y0024362*
X0005763*
X0005756Y0024363*
X0003344*
X0003337Y0024362*
X000333*
X0003309Y0024365*
X0003302Y0024366*
X0003295Y0024368*
X0003288Y0024371*
X0003282Y0024373*
X0003275Y0024376*
X0003269Y0024379*
X0003251Y0024391*
X0003246Y0024396*
X000324Y00244*
X0003235Y0024405*
X0003231Y0024411*
X0003226Y0024416*
X0003222Y0024422*
X0003218Y0024428*
X0003215Y0024434*
X0003212Y002444*
X0003206Y0024454*
X0003204Y002446*
X0003203Y0024467*
X0003201Y0024474*
X00032Y0024482*
Y0024882*
X0003201Y002489*
X0003203Y0024897*
X0003204Y0024904*
X0003206Y002491*
X0003212Y0024924*
X0003215Y002493*
X0003218Y0024936*
X0003222Y0024942*
X0003226Y0024948*
X0003231Y0024953*
X0003235Y0024959*
X000324Y0024964*
X0003246Y0024968*
X0003251Y0024973*
X0003257Y0024977*
X0003269Y0024985*
X0003275Y0024988*
X0003282Y0024991*
X0003288Y0024993*
X0003295Y0024996*
X0003302Y0024998*
X0003316Y0025*
X0003323Y0025001*
X000333Y0025002*
X0003337*
X0003344Y0025001*
X0005756*
X0005763Y0025002*
X000577*
X0005777Y0025001*
G37*
G36*
X0020675Y0025103D02*
X0020699Y0025101D01*
X0020724Y0025098*
X0020748Y0025094*
X0020772Y0025088*
X0020796Y0025081*
X0020819Y0025073*
X0020842Y0025063*
X0020864Y0025053*
X0020886Y0025041*
X0020907Y0025028*
X0020927Y0025014*
X0020947Y0024999*
X0020966Y0024983*
X0020984Y0024966*
X0021001Y0024948*
X0021017Y0024929*
X0021032Y0024909*
X0021046Y0024889*
X0021059Y0024868*
X0021071Y0024846*
X0021082Y0024824*
X0021091Y0024801*
X0021099Y0024778*
X0021106Y0024754*
X0021112Y002473*
X0021116Y0024706*
X0021119Y0024681*
X0021121Y0024657*
X0021122Y0024632*
X0021121Y0024607*
X0021119Y0024583*
X0021116Y0024558*
X0021112Y0024534*
X0021106Y0024511*
X0021099Y0024486*
X0021091Y0024463*
X0021082Y002444*
X0021071Y0024418*
X0021059Y0024396*
X0021046Y0024375*
X0021032Y0024355*
X0021017Y0024335*
X0021001Y0024316*
X0020984Y0024298*
X0020966Y0024281*
X0020947Y0024265*
X0020927Y002425*
X0020907Y0024236*
X0020886Y0024223*
X0020864Y0024211*
X0020842Y0024201*
X0020819Y0024191*
X0020796Y0024183*
X0020772Y0024176*
X0020748Y002417*
X0020724Y0024166*
X0020699Y0024163*
X0020675Y0024161*
X002065Y002416*
X0020629*
X0020604Y0024162*
X002058Y0024165*
X0020556Y0024169*
X0020532Y0024174*
X0020508Y002418*
X0020485Y0024188*
X0020463Y0024197*
X002044Y0024207*
X0020419Y0024219*
X0020398Y0024231*
X0020377Y0024244*
X0020357Y0024259*
X0020339Y0024275*
X0020321Y0024291*
X0020303Y0024308*
X0020287Y0024327*
X0020272Y0024346*
X0020258Y0024366*
X0020245Y0024386*
X0020233Y0024408*
X0020222Y002443*
X0020212Y0024452*
X0020203Y0024475*
X0020196Y0024498*
X002019Y0024522*
X0020185Y0024546*
X0020181Y002457*
X0020179Y0024594*
X0020178Y0024622*
X002065*
Y0024632*
X0020178*
X0020179Y0024657*
X0020181Y0024681*
X0020184Y0024706*
X0020188Y002473*
X0020194Y0024754*
X0020201Y0024778*
X0020209Y0024801*
X0020219Y0024824*
X0020229Y0024846*
X0020241Y0024868*
X0020254Y0024889*
X0020268Y0024909*
X0020283Y0024929*
X0020299Y0024948*
X0020316Y0024966*
X0020334Y0024983*
X0020353Y0024999*
X0020373Y0025014*
X0020393Y0025028*
X0020414Y0025041*
X0020436Y0025053*
X0020458Y0025063*
X0020481Y0025073*
X0020504Y0025081*
X0020528Y0025088*
X0020552Y0025094*
X0020576Y0025098*
X0020601Y0025101*
X0020625Y0025103*
X002065Y0025104*
X0020675Y0025103*
G37*
G36*
X0018975D02*
X0018999Y0025101D01*
X0019024Y0025098*
X0019048Y0025094*
X0019072Y0025088*
X0019096Y0025081*
X0019119Y0025073*
X0019142Y0025063*
X0019164Y0025053*
X0019186Y0025041*
X0019207Y0025028*
X0019227Y0025014*
X0019247Y0024999*
X0019266Y0024983*
X0019284Y0024966*
X0019301Y0024948*
X0019317Y0024929*
X0019332Y0024909*
X0019346Y0024889*
X0019359Y0024868*
X0019371Y0024846*
X0019381Y0024824*
X0019391Y0024801*
X0019399Y0024778*
X0019406Y0024754*
X0019412Y002473*
X0019416Y0024706*
X0019419Y0024681*
X0019421Y0024657*
X0019422Y0024632*
X0019421Y0024607*
X0019419Y0024583*
X0019416Y0024558*
X0019412Y0024534*
X0019406Y0024511*
X0019399Y0024486*
X0019391Y0024463*
X0019381Y002444*
X0019371Y0024418*
X0019359Y0024396*
X0019346Y0024375*
X0019332Y0024355*
X0019317Y0024335*
X0019301Y0024316*
X0019284Y0024298*
X0019266Y0024281*
X0019247Y0024265*
X0019227Y002425*
X0019207Y0024236*
X0019186Y0024223*
X0019164Y0024211*
X0019142Y0024201*
X0019119Y0024191*
X0019096Y0024183*
X0019072Y0024176*
X0019048Y002417*
X0019024Y0024166*
X0018999Y0024163*
X0018975Y0024161*
X001895Y002416*
X0018929*
X0018904Y0024162*
X001888Y0024165*
X0018856Y0024169*
X0018832Y0024174*
X0018808Y002418*
X0018785Y0024188*
X0018763Y0024197*
X001874Y0024207*
X0018719Y0024219*
X0018698Y0024231*
X0018677Y0024244*
X0018657Y0024259*
X0018639Y0024275*
X0018621Y0024291*
X0018603Y0024308*
X0018587Y0024327*
X0018572Y0024346*
X0018558Y0024366*
X0018545Y0024386*
X0018533Y0024408*
X0018522Y002443*
X0018512Y0024452*
X0018503Y0024475*
X0018496Y0024498*
X001849Y0024522*
X0018485Y0024546*
X0018481Y002457*
X0018479Y0024594*
X0018478Y0024622*
X001895*
Y0024632*
X0018478*
X0018479Y0024657*
X0018481Y0024681*
X0018484Y0024706*
X0018488Y002473*
X0018494Y0024754*
X0018501Y0024778*
X0018509Y0024801*
X0018519Y0024824*
X0018529Y0024846*
X0018542Y0024868*
X0018554Y0024889*
X0018568Y0024909*
X0018583Y0024929*
X0018599Y0024948*
X0018616Y0024966*
X0018634Y0024983*
X0018653Y0024999*
X0018673Y0025014*
X0018693Y0025028*
X0018714Y0025041*
X0018736Y0025053*
X0018758Y0025063*
X0018781Y0025073*
X0018804Y0025081*
X0018828Y0025088*
X0018852Y0025094*
X0018876Y0025098*
X0018901Y0025101*
X0018925Y0025103*
X001895Y0025104*
X0018975Y0025103*
G37*
G36*
X0010475D02*
X0010499Y0025101D01*
X0010524Y0025098*
X0010548Y0025094*
X0010572Y0025088*
X0010596Y0025081*
X0010619Y0025073*
X0010642Y0025063*
X0010664Y0025053*
X0010686Y0025041*
X0010707Y0025028*
X0010727Y0025014*
X0010747Y0024999*
X0010766Y0024983*
X0010784Y0024966*
X0010801Y0024948*
X0010817Y0024929*
X0010832Y0024909*
X0010846Y0024889*
X0010859Y0024868*
X0010871Y0024846*
X0010881Y0024824*
X0010891Y0024801*
X0010899Y0024778*
X0010906Y0024754*
X0010912Y002473*
X0010916Y0024706*
X0010919Y0024681*
X0010922Y0024657*
X0010922Y0024632*
X0010922Y0024607*
X0010919Y0024583*
X0010916Y0024558*
X0010912Y0024534*
X0010906Y0024511*
X0010899Y0024486*
X0010891Y0024463*
X0010881Y002444*
X0010871Y0024418*
X0010859Y0024396*
X0010846Y0024375*
X0010832Y0024355*
X0010817Y0024335*
X0010801Y0024316*
X0010784Y0024298*
X0010766Y0024281*
X0010747Y0024265*
X0010727Y002425*
X0010707Y0024236*
X0010686Y0024223*
X0010664Y0024211*
X0010642Y0024201*
X0010619Y0024191*
X0010596Y0024183*
X0010572Y0024176*
X0010548Y002417*
X0010524Y0024166*
X0010499Y0024163*
X0010475Y0024161*
X001045Y002416*
X0010429*
X0010404Y0024162*
X001038Y0024165*
X0010356Y0024169*
X0010332Y0024174*
X0010308Y002418*
X0010285Y0024188*
X0010263Y0024197*
X001024Y0024207*
X0010219Y0024219*
X0010198Y0024231*
X0010177Y0024244*
X0010157Y0024259*
X0010139Y0024275*
X0010121Y0024291*
X0010103Y0024308*
X0010087Y0024327*
X0010072Y0024346*
X0010058Y0024366*
X0010045Y0024386*
X0010033Y0024408*
X0010022Y002443*
X0010012Y0024452*
X0010003Y0024475*
X0009996Y0024498*
X000999Y0024522*
X0009985Y0024546*
X0009981Y002457*
X0009979Y0024594*
X0009978Y0024622*
X001045*
Y0024632*
X0009978*
X0009979Y0024657*
X0009981Y0024681*
X0009984Y0024706*
X0009988Y002473*
X0009994Y0024754*
X0010001Y0024778*
X0010009Y0024801*
X0010019Y0024824*
X0010029Y0024846*
X0010041Y0024868*
X0010054Y0024889*
X0010068Y0024909*
X0010083Y0024929*
X0010099Y0024948*
X0010116Y0024966*
X0010134Y0024983*
X0010153Y0024999*
X0010173Y0025014*
X0010193Y0025028*
X0010214Y0025041*
X0010236Y0025053*
X0010258Y0025063*
X0010281Y0025073*
X0010304Y0025081*
X0010328Y0025088*
X0010352Y0025094*
X0010376Y0025098*
X0010401Y0025101*
X0010425Y0025103*
X001045Y0025104*
X0010475Y0025103*
G37*
G36*
X0008775D02*
X0008799Y0025101D01*
X0008824Y0025098*
X0008848Y0025094*
X0008872Y0025088*
X0008896Y0025081*
X0008919Y0025073*
X0008942Y0025063*
X0008964Y0025053*
X0008986Y0025041*
X0009007Y0025028*
X0009027Y0025014*
X0009047Y0024999*
X0009066Y0024983*
X0009084Y0024966*
X0009101Y0024948*
X0009117Y0024929*
X0009132Y0024909*
X0009146Y0024889*
X0009159Y0024868*
X0009171Y0024846*
X0009181Y0024824*
X0009191Y0024801*
X0009199Y0024778*
X0009206Y0024754*
X0009212Y002473*
X0009216Y0024706*
X0009219Y0024681*
X0009221Y0024657*
X0009222Y0024632*
X0009221Y0024607*
X0009219Y0024583*
X0009216Y0024558*
X0009212Y0024534*
X0009206Y0024511*
X0009199Y0024486*
X0009191Y0024463*
X0009181Y002444*
X0009171Y0024418*
X0009159Y0024396*
X0009146Y0024375*
X0009132Y0024355*
X0009117Y0024335*
X0009101Y0024316*
X0009084Y0024298*
X0009066Y0024281*
X0009047Y0024265*
X0009027Y002425*
X0009007Y0024236*
X0008986Y0024223*
X0008964Y0024211*
X0008942Y0024201*
X0008919Y0024191*
X0008896Y0024183*
X0008872Y0024176*
X0008848Y002417*
X0008824Y0024166*
X0008799Y0024163*
X0008775Y0024161*
X000875Y002416*
X0008729*
X0008704Y0024162*
X000868Y0024165*
X0008656Y0024169*
X0008632Y0024174*
X0008608Y002418*
X0008585Y0024188*
X0008563Y0024197*
X000854Y0024207*
X0008519Y0024219*
X0008498Y0024231*
X0008477Y0024244*
X0008457Y0024259*
X0008439Y0024275*
X0008421Y0024291*
X0008403Y0024308*
X0008387Y0024327*
X0008372Y0024346*
X0008358Y0024366*
X0008345Y0024386*
X0008333Y0024408*
X0008322Y002443*
X0008312Y0024452*
X0008303Y0024475*
X0008296Y0024498*
X000829Y0024522*
X0008285Y0024546*
X0008281Y002457*
X0008279Y0024594*
X0008278Y0024622*
X000875*
Y0024632*
X0008278*
X0008279Y0024657*
X0008281Y0024681*
X0008284Y0024706*
X0008288Y002473*
X0008294Y0024754*
X0008301Y0024778*
X0008309Y0024801*
X0008319Y0024824*
X0008329Y0024846*
X0008341Y0024868*
X0008354Y0024889*
X0008368Y0024909*
X0008383Y0024929*
X0008399Y0024948*
X0008416Y0024966*
X0008434Y0024983*
X0008453Y0024999*
X0008473Y0025014*
X0008493Y0025028*
X0008514Y0025041*
X0008536Y0025053*
X0008558Y0025063*
X0008581Y0025073*
X0008604Y0025081*
X0008628Y0025088*
X0008652Y0025094*
X0008676Y0025098*
X0008701Y0025101*
X0008725Y0025103*
X000875Y0025104*
X0008775Y0025103*
G37*
G36*
X0026077Y0023901D02*
X0026084Y00239D01*
X0026098Y0023898*
X0026105Y0023896*
X0026112Y0023893*
X0026118Y0023891*
X0026125Y0023888*
X0026131Y0023885*
X0026137Y0023881*
X0026143Y0023877*
X0026149Y0023873*
X0026154Y0023868*
X002616Y0023864*
X0026165Y0023859*
X0026169Y0023853*
X0026174Y0023848*
X0026178Y0023842*
X0026182Y0023836*
X0026185Y002383*
X0026188Y0023824*
X0026191Y0023817*
X0026194Y002381*
X0026196Y0023804*
X0026197Y0023797*
X0026199Y002379*
X00262Y0023782*
Y0023382*
X0026199Y0023374*
X0026197Y0023368*
X0026196Y002336*
X0026194Y0023354*
X0026188Y002334*
X0026185Y0023334*
X0026182Y0023328*
X0026178Y0023322*
X0026174Y0023316*
X0026169Y0023311*
X0026165Y0023305*
X002616Y00233*
X0026154Y0023296*
X0026149Y0023291*
X0026131Y0023279*
X0026125Y0023276*
X0026118Y0023273*
X0026112Y0023271*
X0026105Y0023268*
X0026098Y0023266*
X0026091Y0023265*
X0026077Y0023263*
X002607Y0023262*
X0026063*
X0026056Y0023263*
X0023644*
X0023637Y0023262*
X002363*
X0023623Y0023263*
X0023609Y0023265*
X0023602Y0023266*
X0023595Y0023268*
X0023588Y0023271*
X0023582Y0023273*
X0023575Y0023276*
X0023569Y0023279*
X0023551Y0023291*
X0023546Y0023296*
X002354Y00233*
X0023535Y0023305*
X0023531Y0023311*
X0023526Y0023316*
X0023522Y0023322*
X0023518Y0023328*
X0023515Y0023334*
X0023512Y002334*
X0023506Y0023354*
X0023504Y002336*
X0023503Y0023368*
X0023501Y0023374*
X00235Y0023382*
Y0023782*
X0023501Y002379*
X0023503Y0023797*
X0023504Y0023804*
X0023506Y002381*
X0023509Y0023817*
X0023512Y0023824*
X0023515Y002383*
X0023518Y0023836*
X0023522Y0023842*
X0023526Y0023848*
X0023531Y0023853*
X0023535Y0023859*
X002354Y0023864*
X0023546Y0023868*
X0023551Y0023873*
X0023557Y0023877*
X0023563Y0023881*
X0023569Y0023885*
X0023575Y0023888*
X0023582Y0023891*
X0023588Y0023893*
X0023595Y0023896*
X0023602Y0023898*
X0023616Y00239*
X0023623Y0023901*
X002363Y0023902*
X0023637*
X0023644Y0023901*
X0026056*
X0026063Y0023902*
X002607*
X0026077Y0023901*
G37*
G36*
X0005777D02*
X0005784Y00239D01*
X0005798Y0023898*
X0005805Y0023896*
X0005812Y0023893*
X0005818Y0023891*
X0005825Y0023888*
X0005831Y0023885*
X0005837Y0023881*
X0005843Y0023877*
X0005849Y0023873*
X0005854Y0023868*
X000586Y0023864*
X0005865Y0023859*
X0005869Y0023853*
X0005874Y0023848*
X0005878Y0023842*
X0005882Y0023836*
X0005885Y002383*
X0005888Y0023824*
X0005891Y0023817*
X0005894Y002381*
X0005896Y0023804*
X0005897Y0023797*
X0005899Y002379*
X00059Y0023782*
Y0023382*
X0005899Y0023374*
X0005897Y0023368*
X0005896Y002336*
X0005894Y0023354*
X0005888Y002334*
X0005885Y0023334*
X0005882Y0023328*
X0005878Y0023322*
X0005874Y0023316*
X0005869Y0023311*
X0005865Y0023305*
X000586Y00233*
X0005854Y0023296*
X0005849Y0023291*
X0005831Y0023279*
X0005825Y0023276*
X0005818Y0023273*
X0005812Y0023271*
X0005805Y0023268*
X0005798Y0023266*
X0005791Y0023265*
X0005777Y0023263*
X000577Y0023262*
X0005763*
X0005756Y0023263*
X0003344*
X0003337Y0023262*
X000333*
X0003323Y0023263*
X0003309Y0023265*
X0003302Y0023266*
X0003295Y0023268*
X0003288Y0023271*
X0003282Y0023273*
X0003275Y0023276*
X0003269Y0023279*
X0003251Y0023291*
X0003246Y0023296*
X000324Y00233*
X0003235Y0023305*
X0003231Y0023311*
X0003226Y0023316*
X0003222Y0023322*
X0003218Y0023328*
X0003215Y0023334*
X0003212Y002334*
X0003206Y0023354*
X0003204Y002336*
X0003203Y0023368*
X0003201Y0023374*
X00032Y0023382*
Y0023782*
X0003201Y002379*
X0003203Y0023797*
X0003204Y0023804*
X0003206Y002381*
X0003209Y0023817*
X0003212Y0023824*
X0003215Y002383*
X0003218Y0023836*
X0003222Y0023842*
X0003226Y0023848*
X0003231Y0023853*
X0003235Y0023859*
X000324Y0023864*
X0003246Y0023868*
X0003251Y0023873*
X0003257Y0023877*
X0003263Y0023881*
X0003269Y0023885*
X0003275Y0023888*
X0003282Y0023891*
X0003288Y0023893*
X0003295Y0023896*
X0003302Y0023898*
X0003316Y00239*
X0003323Y0023901*
X000333Y0023902*
X0003337*
X0003344Y0023901*
X0005756*
X0005763Y0023902*
X000577*
X0005777Y0023901*
G37*
G36*
X0026077Y0022801D02*
X0026098Y0022798D01*
X0026105Y0022796*
X0026112Y0022793*
X0026118Y0022791*
X0026125Y0022788*
X0026131Y0022785*
X0026137Y0022781*
X0026143Y0022777*
X0026149Y0022773*
X0026154Y0022768*
X002616Y0022764*
X0026165Y0022759*
X0026169Y0022753*
X0026174Y0022748*
X0026178Y0022742*
X0026182Y0022736*
X0026185Y002273*
X0026188Y0022724*
X0026194Y002271*
X0026196Y0022704*
X0026197Y0022697*
X0026199Y002269*
X00262Y0022682*
Y0022282*
X0026199Y0022274*
X0026197Y0022267*
X0026196Y002226*
X0026194Y0022254*
X0026188Y002224*
X0026185Y0022234*
X0026182Y0022228*
X0026178Y0022222*
X0026174Y0022216*
X0026169Y0022211*
X0026165Y0022205*
X002616Y00222*
X0026154Y0022196*
X0026149Y0022191*
X0026137Y0022183*
X0026131Y0022179*
X0026125Y0022176*
X0026118Y0022173*
X0026112Y0022171*
X0026105Y0022168*
X0026098Y0022166*
X0026077Y0022163*
X002607Y0022162*
X0026063*
X0026056Y0022163*
X0023644*
X0023637Y0022162*
X002363*
X0023623Y0022163*
X0023602Y0022166*
X0023595Y0022168*
X0023588Y0022171*
X0023582Y0022173*
X0023575Y0022176*
X0023569Y0022179*
X0023563Y0022183*
X0023551Y0022191*
X0023546Y0022196*
X002354Y00222*
X0023535Y0022205*
X0023531Y0022211*
X0023526Y0022216*
X0023522Y0022222*
X0023518Y0022228*
X0023515Y0022234*
X0023512Y002224*
X0023506Y0022254*
X0023504Y002226*
X0023503Y0022267*
X0023501Y0022274*
X00235Y0022282*
Y0022682*
X0023501Y002269*
X0023503Y0022697*
X0023504Y0022704*
X0023506Y002271*
X0023512Y0022724*
X0023515Y002273*
X0023518Y0022736*
X0023522Y0022742*
X0023526Y0022748*
X0023531Y0022753*
X0023535Y0022759*
X002354Y0022764*
X0023546Y0022768*
X0023551Y0022773*
X0023557Y0022777*
X0023563Y0022781*
X0023569Y0022785*
X0023575Y0022788*
X0023582Y0022791*
X0023588Y0022793*
X0023595Y0022796*
X0023602Y0022798*
X0023623Y0022801*
X002363Y0022802*
X0023637*
X0023644Y0022801*
X0026056*
X0026063Y0022802*
X002607*
X0026077Y0022801*
G37*
G36*
X0005777D02*
X0005798Y0022798D01*
X0005805Y0022796*
X0005812Y0022793*
X0005818Y0022791*
X0005825Y0022788*
X0005831Y0022785*
X0005837Y0022781*
X0005843Y0022777*
X0005849Y0022773*
X0005854Y0022768*
X000586Y0022764*
X0005865Y0022759*
X0005869Y0022753*
X0005874Y0022748*
X0005878Y0022742*
X0005882Y0022736*
X0005885Y002273*
X0005888Y0022724*
X0005894Y002271*
X0005896Y0022704*
X0005897Y0022697*
X0005899Y002269*
X00059Y0022682*
Y0022282*
X0005899Y0022274*
X0005897Y0022267*
X0005896Y002226*
X0005894Y0022254*
X0005888Y002224*
X0005885Y0022234*
X0005882Y0022228*
X0005878Y0022222*
X0005874Y0022216*
X0005869Y0022211*
X0005865Y0022205*
X000586Y00222*
X0005854Y0022196*
X0005849Y0022191*
X0005837Y0022183*
X0005831Y0022179*
X0005825Y0022176*
X0005818Y0022173*
X0005812Y0022171*
X0005805Y0022168*
X0005798Y0022166*
X0005777Y0022163*
X000577Y0022162*
X0005763*
X0005756Y0022163*
X0003344*
X0003337Y0022162*
X000333*
X0003323Y0022163*
X0003302Y0022166*
X0003295Y0022168*
X0003288Y0022171*
X0003282Y0022173*
X0003275Y0022176*
X0003269Y0022179*
X0003263Y0022183*
X0003251Y0022191*
X0003246Y0022196*
X000324Y00222*
X0003235Y0022205*
X0003231Y0022211*
X0003226Y0022216*
X0003222Y0022222*
X0003218Y0022228*
X0003215Y0022234*
X0003212Y002224*
X0003206Y0022254*
X0003204Y002226*
X0003203Y0022267*
X0003201Y0022274*
X00032Y0022282*
Y0022682*
X0003201Y002269*
X0003203Y0022697*
X0003204Y0022704*
X0003206Y002271*
X0003212Y0022724*
X0003215Y002273*
X0003218Y0022736*
X0003222Y0022742*
X0003226Y0022748*
X0003231Y0022753*
X0003235Y0022759*
X000324Y0022764*
X0003246Y0022768*
X0003251Y0022773*
X0003257Y0022777*
X0003263Y0022781*
X0003269Y0022785*
X0003275Y0022788*
X0003282Y0022791*
X0003288Y0022793*
X0003295Y0022796*
X0003302Y0022798*
X0003323Y0022801*
X000333Y0022802*
X0003337*
X0003344Y0022801*
X0005756*
X0005763Y0022802*
X000577*
X0005777Y0022801*
G37*
G36*
X0017275Y0023403D02*
X0017299Y0023401D01*
X0017324Y0023398*
X0017348Y0023394*
X0017372Y0023388*
X0017396Y0023381*
X0017419Y0023373*
X0017442Y0023363*
X0017464Y0023353*
X0017486Y0023341*
X0017507Y0023328*
X0017527Y0023314*
X0017547Y0023299*
X0017566Y0023283*
X0017584Y0023266*
X0017601Y0023248*
X0017617Y0023229*
X0017632Y0023209*
X0017646Y0023189*
X0017659Y0023168*
X0017671Y0023146*
X0017681Y0023124*
X0017691Y0023101*
X0017699Y0023078*
X0017706Y0023054*
X0017712Y002303*
X0017716Y0023006*
X0017719Y0022981*
X0017721Y0022957*
X0017722Y0022932*
X0017721Y0022907*
X0017719Y0022883*
X0017716Y0022858*
X0017712Y0022834*
X0017706Y002281*
X0017699Y0022786*
X0017691Y0022763*
X0017681Y002274*
X0017671Y0022718*
X0017659Y0022696*
X0017646Y0022675*
X0017632Y0022655*
X0017617Y0022635*
X0017601Y0022616*
X0017584Y0022598*
X0017566Y0022581*
X0017547Y0022565*
X0017527Y002255*
X0017507Y0022536*
X0017486Y0022523*
X0017464Y0022511*
X0017442Y0022501*
X0017419Y0022491*
X0017396Y0022483*
X0017372Y0022476*
X0017348Y002247*
X0017324Y0022466*
X0017299Y0022463*
X0017275Y0022461*
X001725Y002246*
X0017229*
X0017204Y0022462*
X001718Y0022465*
X0017156Y0022469*
X0017132Y0022474*
X0017108Y002248*
X0017085Y0022488*
X0017063Y0022497*
X001704Y0022507*
X0017019Y0022519*
X0016998Y0022531*
X0016977Y0022544*
X0016957Y0022559*
X0016939Y0022575*
X0016921Y0022591*
X0016903Y0022608*
X0016887Y0022627*
X0016872Y0022646*
X0016858Y0022666*
X0016845Y0022686*
X0016833Y0022708*
X0016822Y002273*
X0016812Y0022752*
X0016803Y0022775*
X0016796Y0022798*
X001679Y0022822*
X0016785Y0022846*
X0016781Y002287*
X0016779Y0022894*
X0016778Y0022922*
X001725*
Y0022932*
X0016778*
X0016779Y0022957*
X0016781Y0022981*
X0016784Y0023006*
X0016788Y002303*
X0016794Y0023054*
X0016801Y0023078*
X0016809Y0023101*
X0016819Y0023124*
X0016829Y0023146*
X0016841Y0023168*
X0016854Y0023189*
X0016868Y0023209*
X0016883Y0023229*
X0016899Y0023248*
X0016916Y0023266*
X0016934Y0023283*
X0016953Y0023299*
X0016973Y0023314*
X0016993Y0023328*
X0017014Y0023341*
X0017036Y0023353*
X0017058Y0023363*
X0017081Y0023373*
X0017104Y0023381*
X0017128Y0023388*
X0017152Y0023394*
X0017176Y0023398*
X0017201Y0023401*
X0017225Y0023403*
X001725Y0023404*
X0017275Y0023403*
G37*
G36*
X0015575D02*
X0015599Y0023401D01*
X0015624Y0023398*
X0015648Y0023394*
X0015672Y0023388*
X0015696Y0023381*
X0015719Y0023373*
X0015742Y0023363*
X0015764Y0023353*
X0015786Y0023341*
X0015807Y0023328*
X0015827Y0023314*
X0015847Y0023299*
X0015866Y0023283*
X0015884Y0023266*
X0015901Y0023248*
X0015917Y0023229*
X0015932Y0023209*
X0015946Y0023189*
X0015959Y0023168*
X0015971Y0023146*
X0015981Y0023124*
X0015991Y0023101*
X0015999Y0023078*
X0016006Y0023054*
X0016012Y002303*
X0016016Y0023006*
X0016019Y0022981*
X0016021Y0022957*
X0016022Y0022932*
X0016021Y0022907*
X0016019Y0022883*
X0016016Y0022858*
X0016012Y0022834*
X0016006Y002281*
X0015999Y0022786*
X0015991Y0022763*
X0015981Y002274*
X0015971Y0022718*
X0015959Y0022696*
X0015946Y0022675*
X0015932Y0022655*
X0015917Y0022635*
X0015901Y0022616*
X0015884Y0022598*
X0015866Y0022581*
X0015847Y0022565*
X0015827Y002255*
X0015807Y0022536*
X0015786Y0022523*
X0015764Y0022511*
X0015742Y0022501*
X0015719Y0022491*
X0015696Y0022483*
X0015672Y0022476*
X0015648Y002247*
X0015624Y0022466*
X0015599Y0022463*
X0015575Y0022461*
X001555Y002246*
X0015529*
X0015504Y0022462*
X001548Y0022465*
X0015456Y0022469*
X0015432Y0022474*
X0015408Y002248*
X0015385Y0022488*
X0015363Y0022497*
X001534Y0022507*
X0015319Y0022519*
X0015298Y0022531*
X0015277Y0022544*
X0015257Y0022559*
X001524Y0022575*
X0015221Y0022591*
X0015203Y0022608*
X0015187Y0022627*
X0015172Y0022646*
X0015158Y0022666*
X0015145Y0022686*
X0015133Y0022708*
X0015122Y002273*
X0015113Y0022752*
X0015103Y0022775*
X0015096Y0022798*
X001509Y0022822*
X0015085Y0022846*
X0015081Y002287*
X0015079Y0022894*
X0015078Y0022922*
X001555*
Y0022932*
X0015078*
X0015079Y0022957*
X0015081Y0022981*
X0015084Y0023006*
X0015088Y002303*
X0015094Y0023054*
X0015101Y0023078*
X0015109Y0023101*
X0015119Y0023124*
X0015129Y0023146*
X0015141Y0023168*
X0015154Y0023189*
X0015168Y0023209*
X0015183Y0023229*
X0015199Y0023248*
X0015216Y0023266*
X0015234Y0023283*
X0015253Y0023299*
X0015273Y0023314*
X0015293Y0023328*
X0015314Y0023341*
X0015336Y0023353*
X0015358Y0023363*
X0015381Y0023373*
X0015404Y0023381*
X0015428Y0023388*
X0015452Y0023394*
X0015476Y0023398*
X0015501Y0023401*
X0015525Y0023403*
X001555Y0023404*
X0015575Y0023403*
G37*
G36*
X0013875D02*
X0013899Y0023401D01*
X0013924Y0023398*
X0013948Y0023394*
X0013972Y0023388*
X0013996Y0023381*
X0014019Y0023373*
X0014042Y0023363*
X0014064Y0023353*
X0014086Y0023341*
X0014107Y0023328*
X0014127Y0023314*
X0014147Y0023299*
X0014166Y0023283*
X0014184Y0023266*
X0014201Y0023248*
X0014217Y0023229*
X0014232Y0023209*
X0014246Y0023189*
X0014259Y0023168*
X0014271Y0023146*
X0014281Y0023124*
X0014291Y0023101*
X0014299Y0023078*
X0014306Y0023054*
X0014312Y002303*
X0014316Y0023006*
X0014319Y0022981*
X0014321Y0022957*
X0014322Y0022932*
X0014321Y0022907*
X0014319Y0022883*
X0014316Y0022858*
X0014312Y0022834*
X0014306Y002281*
X0014299Y0022786*
X0014291Y0022763*
X0014281Y002274*
X0014271Y0022718*
X0014259Y0022696*
X0014246Y0022675*
X0014232Y0022655*
X0014217Y0022635*
X0014201Y0022616*
X0014184Y0022598*
X0014166Y0022581*
X0014147Y0022565*
X0014127Y002255*
X0014107Y0022536*
X0014086Y0022523*
X0014064Y0022511*
X0014042Y0022501*
X0014019Y0022491*
X0013996Y0022483*
X0013972Y0022476*
X0013948Y002247*
X0013924Y0022466*
X0013899Y0022463*
X0013875Y0022461*
X001385Y002246*
X0013829*
X0013804Y0022462*
X001378Y0022465*
X0013756Y0022469*
X0013732Y0022474*
X0013708Y002248*
X0013685Y0022488*
X0013663Y0022497*
X001364Y0022507*
X0013619Y0022519*
X0013598Y0022531*
X0013577Y0022544*
X0013557Y0022559*
X0013539Y0022575*
X0013521Y0022591*
X0013503Y0022608*
X0013487Y0022627*
X0013472Y0022646*
X0013458Y0022666*
X0013445Y0022686*
X0013433Y0022708*
X0013422Y002273*
X0013412Y0022752*
X0013403Y0022775*
X0013396Y0022798*
X001339Y0022822*
X0013385Y0022846*
X0013381Y002287*
X0013379Y0022894*
X0013378Y0022922*
X001385*
Y0022932*
X0013378*
X0013379Y0022957*
X0013381Y0022981*
X0013384Y0023006*
X0013388Y002303*
X0013394Y0023054*
X0013401Y0023078*
X0013409Y0023101*
X0013419Y0023124*
X0013429Y0023146*
X0013441Y0023168*
X0013454Y0023189*
X0013468Y0023209*
X0013483Y0023229*
X0013499Y0023248*
X0013516Y0023266*
X0013534Y0023283*
X0013553Y0023299*
X0013573Y0023314*
X0013593Y0023328*
X0013614Y0023341*
X0013636Y0023353*
X0013658Y0023363*
X0013681Y0023373*
X0013704Y0023381*
X0013728Y0023388*
X0013752Y0023394*
X0013776Y0023398*
X0013801Y0023401*
X0013825Y0023403*
X001385Y0023404*
X0013875Y0023403*
G37*
G36*
X0012175D02*
X0012199Y0023401D01*
X0012224Y0023398*
X0012248Y0023394*
X0012272Y0023388*
X0012296Y0023381*
X0012319Y0023373*
X0012342Y0023363*
X0012364Y0023353*
X0012386Y0023341*
X0012407Y0023328*
X0012427Y0023314*
X0012447Y0023299*
X0012466Y0023283*
X0012484Y0023266*
X0012501Y0023248*
X0012517Y0023229*
X0012532Y0023209*
X0012546Y0023189*
X0012559Y0023168*
X0012571Y0023146*
X0012581Y0023124*
X0012591Y0023101*
X0012599Y0023078*
X0012606Y0023054*
X0012612Y002303*
X0012616Y0023006*
X0012619Y0022981*
X0012621Y0022957*
X0012622Y0022932*
X0012621Y0022907*
X0012619Y0022883*
X0012616Y0022858*
X0012612Y0022834*
X0012606Y002281*
X0012599Y0022786*
X0012591Y0022763*
X0012581Y002274*
X0012571Y0022718*
X0012559Y0022696*
X0012546Y0022675*
X0012532Y0022655*
X0012517Y0022635*
X0012501Y0022616*
X0012484Y0022598*
X0012466Y0022581*
X0012447Y0022565*
X0012427Y002255*
X0012407Y0022536*
X0012386Y0022523*
X0012364Y0022511*
X0012342Y0022501*
X0012319Y0022491*
X0012296Y0022483*
X0012272Y0022476*
X0012248Y002247*
X0012224Y0022466*
X0012199Y0022463*
X0012175Y0022461*
X001215Y002246*
X0012129*
X0012104Y0022462*
X001208Y0022465*
X0012056Y0022469*
X0012032Y0022474*
X0012008Y002248*
X0011985Y0022488*
X0011963Y0022497*
X001194Y0022507*
X0011919Y0022519*
X0011898Y0022531*
X0011877Y0022544*
X0011857Y0022559*
X0011839Y0022575*
X0011821Y0022591*
X0011803Y0022608*
X0011787Y0022627*
X0011772Y0022646*
X0011758Y0022666*
X0011745Y0022686*
X0011733Y0022708*
X0011722Y002273*
X0011712Y0022752*
X0011703Y0022775*
X0011696Y0022798*
X001169Y0022822*
X0011685Y0022846*
X0011681Y002287*
X0011679Y0022894*
X0011678Y0022922*
X001215*
Y0022932*
X0011678*
X0011679Y0022957*
X0011681Y0022981*
X0011684Y0023006*
X0011688Y002303*
X0011694Y0023054*
X0011701Y0023078*
X0011709Y0023101*
X0011719Y0023124*
X0011729Y0023146*
X0011741Y0023168*
X0011754Y0023189*
X0011768Y0023209*
X0011783Y0023229*
X0011799Y0023248*
X0011816Y0023266*
X0011834Y0023283*
X0011853Y0023299*
X0011873Y0023314*
X0011893Y0023328*
X0011914Y0023341*
X0011936Y0023353*
X0011958Y0023363*
X0011981Y0023373*
X0012004Y0023381*
X0012028Y0023388*
X0012052Y0023394*
X0012076Y0023398*
X0012101Y0023401*
X0012125Y0023403*
X001215Y0023404*
X0012175Y0023403*
G37*
G36*
X0026077Y0021701D02*
X0026091Y0021699D01*
X0026098Y0021698*
X0026105Y0021696*
X0026112Y0021693*
X0026118Y0021691*
X0026125Y0021688*
X0026131Y0021685*
X0026137Y0021681*
X0026149Y0021673*
X0026154Y0021668*
X002616Y0021664*
X0026165Y0021659*
X0026169Y0021653*
X0026174Y0021648*
X0026178Y0021642*
X0026182Y0021636*
X0026185Y002163*
X0026188Y0021624*
X0026194Y002161*
X0026196Y0021604*
X0026197Y0021597*
X0026199Y002159*
X00262Y0021582*
Y0021182*
X0026199Y0021174*
X0026197Y0021167*
X0026196Y002116*
X0026194Y0021154*
X0026191Y0021147*
X0026188Y002114*
X0026185Y0021134*
X0026182Y0021128*
X0026178Y0021122*
X0026174Y0021116*
X0026169Y0021111*
X0026165Y0021105*
X002616Y00211*
X0026154Y0021096*
X0026149Y0021091*
X0026143Y0021087*
X0026137Y0021083*
X0026131Y0021079*
X0026125Y0021076*
X0026118Y0021073*
X0026112Y0021071*
X0026105Y0021068*
X0026098Y0021066*
X0026084Y0021064*
X0026077Y0021063*
X002607Y0021062*
X0026063*
X0026056Y0021063*
X0023644*
X0023637Y0021062*
X002363*
X0023623Y0021063*
X0023616Y0021064*
X0023602Y0021066*
X0023595Y0021068*
X0023588Y0021071*
X0023582Y0021073*
X0023575Y0021076*
X0023569Y0021079*
X0023563Y0021083*
X0023557Y0021087*
X0023551Y0021091*
X0023546Y0021096*
X002354Y00211*
X0023535Y0021105*
X0023531Y0021111*
X0023526Y0021116*
X0023522Y0021122*
X0023518Y0021128*
X0023515Y0021134*
X0023512Y002114*
X0023509Y0021147*
X0023506Y0021154*
X0023504Y002116*
X0023503Y0021167*
X0023501Y0021174*
X00235Y0021182*
Y0021582*
X0023501Y002159*
X0023503Y0021597*
X0023504Y0021604*
X0023506Y002161*
X0023512Y0021624*
X0023515Y002163*
X0023518Y0021636*
X0023522Y0021642*
X0023526Y0021648*
X0023531Y0021653*
X0023535Y0021659*
X002354Y0021664*
X0023546Y0021668*
X0023551Y0021673*
X0023563Y0021681*
X0023569Y0021685*
X0023575Y0021688*
X0023582Y0021691*
X0023588Y0021693*
X0023595Y0021696*
X0023602Y0021698*
X0023609Y0021699*
X0023623Y0021701*
X002363Y0021702*
X0023637*
X0023644Y0021701*
X0026056*
X0026063Y0021702*
X002607*
X0026077Y0021701*
G37*
G36*
X0005777D02*
X0005791Y0021699D01*
X0005798Y0021698*
X0005805Y0021696*
X0005812Y0021693*
X0005818Y0021691*
X0005825Y0021688*
X0005831Y0021685*
X0005837Y0021681*
X0005849Y0021673*
X0005854Y0021668*
X000586Y0021664*
X0005865Y0021659*
X0005869Y0021653*
X0005874Y0021648*
X0005878Y0021642*
X0005882Y0021636*
X0005885Y002163*
X0005888Y0021624*
X0005894Y002161*
X0005896Y0021604*
X0005897Y0021597*
X0005899Y002159*
X00059Y0021582*
Y0021182*
X0005899Y0021174*
X0005897Y0021167*
X0005896Y002116*
X0005894Y0021154*
X0005891Y0021147*
X0005888Y002114*
X0005885Y0021134*
X0005882Y0021128*
X0005878Y0021122*
X0005874Y0021116*
X0005869Y0021111*
X0005865Y0021105*
X000586Y00211*
X0005854Y0021096*
X0005849Y0021091*
X0005843Y0021087*
X0005837Y0021083*
X0005831Y0021079*
X0005825Y0021076*
X0005818Y0021073*
X0005812Y0021071*
X0005805Y0021068*
X0005798Y0021066*
X0005784Y0021064*
X0005777Y0021063*
X000577Y0021062*
X0005763*
X0005756Y0021063*
X0003344*
X0003337Y0021062*
X000333*
X0003323Y0021063*
X0003316Y0021064*
X0003302Y0021066*
X0003295Y0021068*
X0003288Y0021071*
X0003282Y0021073*
X0003275Y0021076*
X0003269Y0021079*
X0003263Y0021083*
X0003257Y0021087*
X0003251Y0021091*
X0003246Y0021096*
X000324Y00211*
X0003235Y0021105*
X0003231Y0021111*
X0003226Y0021116*
X0003222Y0021122*
X0003218Y0021128*
X0003215Y0021134*
X0003212Y002114*
X0003209Y0021147*
X0003206Y0021154*
X0003204Y002116*
X0003203Y0021167*
X0003201Y0021174*
X00032Y0021182*
Y0021582*
X0003201Y002159*
X0003203Y0021597*
X0003204Y0021604*
X0003206Y002161*
X0003212Y0021624*
X0003215Y002163*
X0003218Y0021636*
X0003222Y0021642*
X0003226Y0021648*
X0003231Y0021653*
X0003235Y0021659*
X000324Y0021664*
X0003246Y0021668*
X0003251Y0021673*
X0003263Y0021681*
X0003269Y0021685*
X0003275Y0021688*
X0003282Y0021691*
X0003288Y0021693*
X0003295Y0021696*
X0003302Y0021698*
X0003309Y0021699*
X0003323Y0021701*
X000333Y0021702*
X0003337*
X0003344Y0021701*
X0005756*
X0005763Y0021702*
X000577*
X0005777Y0021701*
G37*
G36*
X0017275Y0021703D02*
X0017299Y0021701D01*
X0017324Y0021698*
X0017348Y0021694*
X0017372Y0021688*
X0017396Y0021681*
X0017419Y0021673*
X0017442Y0021663*
X0017464Y0021653*
X0017486Y0021641*
X0017507Y0021628*
X0017527Y0021614*
X0017547Y0021599*
X0017566Y0021583*
X0017584Y0021566*
X0017601Y0021548*
X0017617Y0021529*
X0017632Y0021509*
X0017646Y0021489*
X0017659Y0021468*
X0017671Y0021446*
X0017681Y0021424*
X0017691Y0021401*
X0017699Y0021378*
X0017706Y0021354*
X0017712Y002133*
X0017716Y0021306*
X0017719Y0021281*
X0017721Y0021257*
X0017722Y0021232*
X0017721Y0021207*
X0017719Y0021183*
X0017716Y0021158*
X0017712Y0021134*
X0017706Y002111*
X0017699Y0021086*
X0017691Y0021063*
X0017681Y002104*
X0017671Y0021018*
X0017659Y0020996*
X0017646Y0020975*
X0017632Y0020955*
X0017617Y0020935*
X0017601Y0020916*
X0017584Y0020898*
X0017566Y0020881*
X0017547Y0020865*
X0017527Y002085*
X0017507Y0020836*
X0017486Y0020823*
X0017464Y0020811*
X0017442Y0020801*
X0017419Y0020791*
X0017396Y0020783*
X0017372Y0020776*
X0017348Y002077*
X0017324Y0020766*
X0017299Y0020763*
X0017275Y0020761*
X001725Y002076*
X0017229*
X0017204Y0020762*
X001718Y0020765*
X0017156Y0020769*
X0017132Y0020774*
X0017108Y002078*
X0017085Y0020788*
X0017063Y0020797*
X001704Y0020807*
X0017019Y0020819*
X0016998Y0020831*
X0016977Y0020844*
X0016957Y0020859*
X0016939Y0020875*
X0016921Y0020891*
X0016903Y0020908*
X0016887Y0020927*
X0016872Y0020946*
X0016858Y0020966*
X0016845Y0020986*
X0016833Y0021008*
X0016822Y002103*
X0016812Y0021052*
X0016803Y0021075*
X0016796Y0021098*
X001679Y0021122*
X0016785Y0021146*
X0016781Y002117*
X0016779Y0021194*
X0016778Y0021222*
X001725*
Y0021232*
X0016778*
X0016779Y0021257*
X0016781Y0021281*
X0016784Y0021306*
X0016788Y002133*
X0016794Y0021354*
X0016801Y0021378*
X0016809Y0021401*
X0016819Y0021424*
X0016829Y0021446*
X0016841Y0021468*
X0016854Y0021489*
X0016868Y0021509*
X0016883Y0021529*
X0016899Y0021548*
X0016916Y0021566*
X0016934Y0021583*
X0016953Y0021599*
X0016973Y0021614*
X0016993Y0021628*
X0017014Y0021641*
X0017036Y0021653*
X0017058Y0021663*
X0017081Y0021673*
X0017104Y0021681*
X0017128Y0021688*
X0017152Y0021694*
X0017176Y0021698*
X0017201Y0021701*
X0017225Y0021703*
X001725Y0021704*
X0017275Y0021703*
G37*
G36*
X0015575D02*
X0015599Y0021701D01*
X0015624Y0021698*
X0015648Y0021694*
X0015672Y0021688*
X0015696Y0021681*
X0015719Y0021673*
X0015742Y0021663*
X0015764Y0021653*
X0015786Y0021641*
X0015807Y0021628*
X0015827Y0021614*
X0015847Y0021599*
X0015866Y0021583*
X0015884Y0021566*
X0015901Y0021548*
X0015917Y0021529*
X0015932Y0021509*
X0015946Y0021489*
X0015959Y0021468*
X0015971Y0021446*
X0015981Y0021424*
X0015991Y0021401*
X0015999Y0021378*
X0016006Y0021354*
X0016012Y002133*
X0016016Y0021306*
X0016019Y0021281*
X0016021Y0021257*
X0016022Y0021232*
X0016021Y0021207*
X0016019Y0021183*
X0016016Y0021158*
X0016012Y0021134*
X0016006Y002111*
X0015999Y0021086*
X0015991Y0021063*
X0015981Y002104*
X0015971Y0021018*
X0015959Y0020996*
X0015946Y0020975*
X0015932Y0020955*
X0015917Y0020935*
X0015901Y0020916*
X0015884Y0020898*
X0015866Y0020881*
X0015847Y0020865*
X0015827Y002085*
X0015807Y0020836*
X0015786Y0020823*
X0015764Y0020811*
X0015742Y0020801*
X0015719Y0020791*
X0015696Y0020783*
X0015672Y0020776*
X0015648Y002077*
X0015624Y0020766*
X0015599Y0020763*
X0015575Y0020761*
X001555Y002076*
X0015529*
X0015504Y0020762*
X001548Y0020765*
X0015456Y0020769*
X0015432Y0020774*
X0015408Y002078*
X0015385Y0020788*
X0015363Y0020797*
X001534Y0020807*
X0015319Y0020819*
X0015298Y0020831*
X0015277Y0020844*
X0015257Y0020859*
X001524Y0020875*
X0015221Y0020891*
X0015203Y0020908*
X0015187Y0020927*
X0015172Y0020946*
X0015158Y0020966*
X0015145Y0020986*
X0015133Y0021008*
X0015122Y002103*
X0015113Y0021052*
X0015103Y0021075*
X0015096Y0021098*
X001509Y0021122*
X0015085Y0021146*
X0015081Y002117*
X0015079Y0021194*
X0015078Y0021222*
X001555*
Y0021232*
X0015078*
X0015079Y0021257*
X0015081Y0021281*
X0015084Y0021306*
X0015088Y002133*
X0015094Y0021354*
X0015101Y0021378*
X0015109Y0021401*
X0015119Y0021424*
X0015129Y0021446*
X0015141Y0021468*
X0015154Y0021489*
X0015168Y0021509*
X0015183Y0021529*
X0015199Y0021548*
X0015216Y0021566*
X0015234Y0021583*
X0015253Y0021599*
X0015273Y0021614*
X0015293Y0021628*
X0015314Y0021641*
X0015336Y0021653*
X0015358Y0021663*
X0015381Y0021673*
X0015404Y0021681*
X0015428Y0021688*
X0015452Y0021694*
X0015476Y0021698*
X0015501Y0021701*
X0015525Y0021703*
X001555Y0021704*
X0015575Y0021703*
G37*
G36*
X0013875D02*
X0013899Y0021701D01*
X0013924Y0021698*
X0013948Y0021694*
X0013972Y0021688*
X0013996Y0021681*
X0014019Y0021673*
X0014042Y0021663*
X0014064Y0021653*
X0014086Y0021641*
X0014107Y0021628*
X0014127Y0021614*
X0014147Y0021599*
X0014166Y0021583*
X0014184Y0021566*
X0014201Y0021548*
X0014217Y0021529*
X0014232Y0021509*
X0014246Y0021489*
X0014259Y0021468*
X0014271Y0021446*
X0014281Y0021424*
X0014291Y0021401*
X0014299Y0021378*
X0014306Y0021354*
X0014312Y002133*
X0014316Y0021306*
X0014319Y0021281*
X0014321Y0021257*
X0014322Y0021232*
X0014321Y0021207*
X0014319Y0021183*
X0014316Y0021158*
X0014312Y0021134*
X0014306Y002111*
X0014299Y0021086*
X0014291Y0021063*
X0014281Y002104*
X0014271Y0021018*
X0014259Y0020996*
X0014246Y0020975*
X0014232Y0020955*
X0014217Y0020935*
X0014201Y0020916*
X0014184Y0020898*
X0014166Y0020881*
X0014147Y0020865*
X0014127Y002085*
X0014107Y0020836*
X0014086Y0020823*
X0014064Y0020811*
X0014042Y0020801*
X0014019Y0020791*
X0013996Y0020783*
X0013972Y0020776*
X0013948Y002077*
X0013924Y0020766*
X0013899Y0020763*
X0013875Y0020761*
X001385Y002076*
X0013829*
X0013804Y0020762*
X001378Y0020765*
X0013756Y0020769*
X0013732Y0020774*
X0013708Y002078*
X0013685Y0020788*
X0013663Y0020797*
X001364Y0020807*
X0013619Y0020819*
X0013598Y0020831*
X0013577Y0020844*
X0013557Y0020859*
X0013539Y0020875*
X0013521Y0020891*
X0013503Y0020908*
X0013487Y0020927*
X0013472Y0020946*
X0013458Y0020966*
X0013445Y0020986*
X0013433Y0021008*
X0013422Y002103*
X0013412Y0021052*
X0013403Y0021075*
X0013396Y0021098*
X001339Y0021122*
X0013385Y0021146*
X0013381Y002117*
X0013379Y0021194*
X0013378Y0021222*
X001385*
Y0021232*
X0013378*
X0013379Y0021257*
X0013381Y0021281*
X0013384Y0021306*
X0013388Y002133*
X0013394Y0021354*
X0013401Y0021378*
X0013409Y0021401*
X0013419Y0021424*
X0013429Y0021446*
X0013441Y0021468*
X0013454Y0021489*
X0013468Y0021509*
X0013483Y0021529*
X0013499Y0021548*
X0013516Y0021566*
X0013534Y0021583*
X0013553Y0021599*
X0013573Y0021614*
X0013593Y0021628*
X0013614Y0021641*
X0013636Y0021653*
X0013658Y0021663*
X0013681Y0021673*
X0013704Y0021681*
X0013728Y0021688*
X0013752Y0021694*
X0013776Y0021698*
X0013801Y0021701*
X0013825Y0021703*
X001385Y0021704*
X0013875Y0021703*
G37*
G36*
X0012175D02*
X0012199Y0021701D01*
X0012224Y0021698*
X0012248Y0021694*
X0012272Y0021688*
X0012296Y0021681*
X0012319Y0021673*
X0012342Y0021663*
X0012364Y0021653*
X0012386Y0021641*
X0012407Y0021628*
X0012427Y0021614*
X0012447Y0021599*
X0012466Y0021583*
X0012484Y0021566*
X0012501Y0021548*
X0012517Y0021529*
X0012532Y0021509*
X0012546Y0021489*
X0012559Y0021468*
X0012571Y0021446*
X0012581Y0021424*
X0012591Y0021401*
X0012599Y0021378*
X0012606Y0021354*
X0012612Y002133*
X0012616Y0021306*
X0012619Y0021281*
X0012621Y0021257*
X0012622Y0021232*
X0012621Y0021207*
X0012619Y0021183*
X0012616Y0021158*
X0012612Y0021134*
X0012606Y002111*
X0012599Y0021086*
X0012591Y0021063*
X0012581Y002104*
X0012571Y0021018*
X0012559Y0020996*
X0012546Y0020975*
X0012532Y0020955*
X0012517Y0020935*
X0012501Y0020916*
X0012484Y0020898*
X0012466Y0020881*
X0012447Y0020865*
X0012427Y002085*
X0012407Y0020836*
X0012386Y0020823*
X0012364Y0020811*
X0012342Y0020801*
X0012319Y0020791*
X0012296Y0020783*
X0012272Y0020776*
X0012248Y002077*
X0012224Y0020766*
X0012199Y0020763*
X0012175Y0020761*
X001215Y002076*
X0012129*
X0012104Y0020762*
X001208Y0020765*
X0012056Y0020769*
X0012032Y0020774*
X0012008Y002078*
X0011985Y0020788*
X0011963Y0020797*
X001194Y0020807*
X0011919Y0020819*
X0011898Y0020831*
X0011877Y0020844*
X0011857Y0020859*
X0011839Y0020875*
X0011821Y0020891*
X0011803Y0020908*
X0011787Y0020927*
X0011772Y0020946*
X0011758Y0020966*
X0011745Y0020986*
X0011733Y0021008*
X0011722Y002103*
X0011712Y0021052*
X0011703Y0021075*
X0011696Y0021098*
X001169Y0021122*
X0011685Y0021146*
X0011681Y002117*
X0011679Y0021194*
X0011678Y0021222*
X001215*
Y0021232*
X0011678*
X0011679Y0021257*
X0011681Y0021281*
X0011684Y0021306*
X0011688Y002133*
X0011694Y0021354*
X0011701Y0021378*
X0011709Y0021401*
X0011719Y0021424*
X0011729Y0021446*
X0011741Y0021468*
X0011754Y0021489*
X0011768Y0021509*
X0011783Y0021529*
X0011799Y0021548*
X0011816Y0021566*
X0011834Y0021583*
X0011853Y0021599*
X0011873Y0021614*
X0011893Y0021628*
X0011914Y0021641*
X0011936Y0021653*
X0011958Y0021663*
X0011981Y0021673*
X0012004Y0021681*
X0012028Y0021688*
X0012052Y0021694*
X0012076Y0021698*
X0012101Y0021701*
X0012125Y0021703*
X001215Y0021704*
X0012175Y0021703*
G37*
G36*
X0026077Y0020601D02*
X0026091Y0020599D01*
X0026098Y0020598*
X0026105Y0020596*
X0026112Y0020593*
X0026118Y0020591*
X0026125Y0020588*
X0026131Y0020585*
X0026149Y0020574*
X0026154Y0020568*
X002616Y0020564*
X0026165Y0020559*
X0026169Y0020553*
X0026174Y0020548*
X0026178Y0020542*
X0026182Y0020536*
X0026185Y002053*
X0026188Y0020524*
X0026194Y002051*
X0026196Y0020504*
X0026197Y0020497*
X0026199Y002049*
X00262Y0020482*
Y0020082*
X0026199Y0020074*
X0026197Y0020067*
X0026196Y002006*
X0026194Y0020054*
X0026191Y0020047*
X0026188Y002004*
X0026185Y0020034*
X0026182Y0020028*
X0026178Y0020022*
X0026174Y0020016*
X0026169Y0020011*
X0026165Y0020005*
X002616Y002*
X0026154Y0019996*
X0026149Y0019991*
X0026143Y0019987*
X0026137Y0019983*
X0026131Y0019979*
X0026125Y0019976*
X0026118Y0019973*
X0026112Y0019971*
X0026105Y0019968*
X0026098Y0019966*
X0026084Y0019964*
X0026077Y0019963*
X002607Y0019962*
X0026063*
X0026056Y0019963*
X0023644*
X0023637Y0019962*
X002363*
X0023623Y0019963*
X0023616Y0019964*
X0023602Y0019966*
X0023595Y0019968*
X0023588Y0019971*
X0023582Y0019973*
X0023575Y0019976*
X0023569Y0019979*
X0023563Y0019983*
X0023557Y0019987*
X0023551Y0019991*
X0023546Y0019996*
X002354Y002*
X0023535Y0020005*
X0023531Y0020011*
X0023526Y0020016*
X0023522Y0020022*
X0023518Y0020028*
X0023515Y0020034*
X0023512Y002004*
X0023509Y0020047*
X0023506Y0020054*
X0023504Y002006*
X0023503Y0020067*
X0023501Y0020074*
X00235Y0020082*
Y0020482*
X0023501Y002049*
X0023503Y0020497*
X0023504Y0020504*
X0023506Y002051*
X0023512Y0020524*
X0023515Y002053*
X0023518Y0020536*
X0023522Y0020542*
X0023526Y0020548*
X0023531Y0020553*
X0023535Y0020559*
X002354Y0020564*
X0023546Y0020568*
X0023551Y0020574*
X0023569Y0020585*
X0023575Y0020588*
X0023582Y0020591*
X0023588Y0020593*
X0023595Y0020596*
X0023602Y0020598*
X0023609Y0020599*
X0023623Y0020601*
X002363Y0020602*
X0023637*
X0023644Y0020601*
X0026056*
X0026063Y0020602*
X002607*
X0026077Y0020601*
G37*
G36*
X0005777D02*
X0005791Y0020599D01*
X0005798Y0020598*
X0005805Y0020596*
X0005812Y0020593*
X0005818Y0020591*
X0005825Y0020588*
X0005831Y0020585*
X0005849Y0020574*
X0005854Y0020568*
X000586Y0020564*
X0005865Y0020559*
X0005869Y0020553*
X0005874Y0020548*
X0005878Y0020542*
X0005882Y0020536*
X0005885Y002053*
X0005888Y0020524*
X0005894Y002051*
X0005896Y0020504*
X0005897Y0020497*
X0005899Y002049*
X00059Y0020482*
Y0020082*
X0005899Y0020074*
X0005897Y0020067*
X0005896Y002006*
X0005894Y0020054*
X0005891Y0020047*
X0005888Y002004*
X0005885Y0020034*
X0005882Y0020028*
X0005878Y0020022*
X0005874Y0020016*
X0005869Y0020011*
X0005865Y0020005*
X000586Y002*
X0005854Y0019996*
X0005849Y0019991*
X0005843Y0019987*
X0005837Y0019983*
X0005831Y0019979*
X0005825Y0019976*
X0005818Y0019973*
X0005812Y0019971*
X0005805Y0019968*
X0005798Y0019966*
X0005784Y0019964*
X0005777Y0019963*
X000577Y0019962*
X0005763*
X0005756Y0019963*
X0003344*
X0003337Y0019962*
X000333*
X0003323Y0019963*
X0003316Y0019964*
X0003302Y0019966*
X0003295Y0019968*
X0003288Y0019971*
X0003282Y0019973*
X0003275Y0019976*
X0003269Y0019979*
X0003263Y0019983*
X0003257Y0019987*
X0003251Y0019991*
X0003246Y0019996*
X000324Y002*
X0003235Y0020005*
X0003231Y0020011*
X0003226Y0020016*
X0003222Y0020022*
X0003218Y0020028*
X0003215Y0020034*
X0003212Y002004*
X0003209Y0020047*
X0003206Y0020054*
X0003204Y002006*
X0003203Y0020067*
X0003201Y0020074*
X00032Y0020082*
Y0020482*
X0003201Y002049*
X0003203Y0020497*
X0003204Y0020504*
X0003206Y002051*
X0003212Y0020524*
X0003215Y002053*
X0003218Y0020536*
X0003222Y0020542*
X0003226Y0020548*
X0003231Y0020553*
X0003235Y0020559*
X000324Y0020564*
X0003246Y0020568*
X0003251Y0020574*
X0003269Y0020585*
X0003275Y0020588*
X0003282Y0020591*
X0003288Y0020593*
X0003295Y0020596*
X0003302Y0020598*
X0003309Y0020599*
X0003323Y0020601*
X000333Y0020602*
X0003337*
X0003344Y0020601*
X0005756*
X0005763Y0020602*
X000577*
X0005777Y0020601*
G37*
G36*
X0021267Y0018231D02*
X0021273Y0018229D01*
X002128Y0018227*
X0021286Y0018225*
X0021293Y0018222*
X0021299Y0018219*
X0021305Y0018216*
X0021311Y0018212*
X0021316Y0018209*
X0021322Y0018204*
X0021327Y00182*
X0021332Y0018195*
X0021337Y001819*
X0021341Y0018185*
X0021345Y001818*
X0021349Y0018174*
X0021353Y0018168*
X0021356Y0018162*
X0021359Y0018156*
X0021362Y001815*
X0021364Y0018143*
X0021366Y0018137*
X0021368Y001813*
X0021369Y0018123*
X002137Y0018116*
Y0018089*
X0021369Y0018082*
Y0015682*
X002137Y0015675*
Y0015648*
X0021369Y0015641*
X0021368Y0015634*
X0021366Y0015627*
X0021364Y0015621*
X0021362Y0015614*
X0021359Y0015608*
X0021356Y0015602*
X0021353Y0015596*
X0021349Y001559*
X0021345Y0015584*
X0021341Y0015579*
X0021337Y0015574*
X0021332Y0015569*
X0021327Y0015564*
X0021322Y001556*
X0021316Y0015555*
X0021311Y0015552*
X0021305Y0015548*
X0021299Y0015545*
X0021293Y0015542*
X0021286Y0015539*
X002128Y0015537*
X0021273Y0015535*
X0021267Y0015533*
X002126Y0015532*
X002086*
X0020854Y0015533*
X0020846Y0015534*
X0020839Y0015535*
X0020825Y0015539*
X0020818Y0015542*
X0020812Y0015545*
X0020805Y0015548*
X0020799Y0015552*
X0020792Y0015555*
X0020787Y001556*
X0020781Y0015564*
X0020775Y0015569*
X002077Y0015574*
X0020765Y001558*
X002076Y0015585*
X0020752Y0015597*
X0020748Y0015604*
X0020745Y001561*
X0020739Y0015624*
X0020737Y0015631*
X0020735Y0015638*
X0020733Y0015645*
X0020732Y0015652*
X0020731Y0015659*
Y0018105*
X0020732Y0018112*
X0020733Y0018119*
X0020735Y0018126*
X0020737Y0018133*
X0020739Y001814*
X0020745Y0018154*
X0020748Y0018161*
X0020752Y0018167*
X002076Y0018179*
X0020765Y0018184*
X002077Y001819*
X0020775Y0018195*
X0020781Y00182*
X0020787Y0018204*
X0020792Y0018209*
X0020799Y0018212*
X0020805Y0018216*
X0020812Y0018219*
X0020818Y0018222*
X0020825Y0018225*
X0020832Y0018227*
X0020839Y0018229*
X0020846Y001823*
X0020854Y0018231*
X002086Y0018232*
X002126*
X0021267Y0018231*
G37*
G36*
X0020167D02*
X0020173Y0018229D01*
X002018Y0018227*
X0020186Y0018225*
X0020193Y0018222*
X0020199Y0018219*
X0020205Y0018216*
X0020211Y0018212*
X0020216Y0018209*
X0020222Y0018204*
X0020227Y00182*
X0020232Y0018195*
X0020237Y001819*
X0020241Y0018185*
X0020245Y001818*
X0020249Y0018174*
X0020253Y0018168*
X0020256Y0018162*
X0020259Y0018156*
X0020262Y001815*
X0020264Y0018143*
X0020266Y0018137*
X0020268Y001813*
X0020269Y0018123*
X002027Y0018116*
Y0018089*
X0020269Y0018082*
Y0015682*
X002027Y0015675*
Y0015648*
X0020269Y0015641*
X0020268Y0015634*
X0020266Y0015627*
X0020264Y0015621*
X0020262Y0015614*
X0020256Y0015602*
X0020253Y0015596*
X0020249Y001559*
X0020245Y0015584*
X0020241Y0015579*
X0020237Y0015574*
X0020232Y0015569*
X0020227Y0015564*
X0020222Y001556*
X0020216Y0015555*
X0020211Y0015552*
X0020205Y0015548*
X0020199Y0015545*
X0020193Y0015542*
X0020186Y0015539*
X002018Y0015537*
X0020173Y0015535*
X0020167Y0015533*
X002016Y0015532*
X001976*
X0019754Y0015533*
X0019746Y0015534*
X0019739Y0015535*
X0019725Y0015539*
X0019718Y0015542*
X0019712Y0015545*
X0019705Y0015548*
X0019699Y0015552*
X0019692Y0015555*
X0019687Y001556*
X0019681Y0015564*
X0019675Y0015569*
X001967Y0015574*
X0019665Y001558*
X001966Y0015585*
X0019652Y0015597*
X0019648Y0015604*
X0019645Y001561*
X0019639Y0015624*
X0019637Y0015631*
X0019635Y0015638*
X0019633Y0015645*
X0019632Y0015652*
X0019631Y0015659*
Y0018105*
X0019632Y0018112*
X0019633Y0018119*
X0019635Y0018126*
X0019637Y0018133*
X0019639Y001814*
X0019645Y0018154*
X0019648Y0018161*
X0019652Y0018167*
X001966Y0018179*
X0019665Y0018184*
X001967Y001819*
X0019675Y0018195*
X0019681Y00182*
X0019687Y0018204*
X0019692Y0018209*
X0019699Y0018212*
X0019705Y0018216*
X0019712Y0018219*
X0019718Y0018222*
X0019725Y0018225*
X0019732Y0018227*
X0019739Y0018229*
X0019746Y001823*
X0019754Y0018231*
X001976Y0018232*
X002016*
X0020167Y0018231*
G37*
G36*
X0019067D02*
X0019073Y0018229D01*
X001908Y0018227*
X0019086Y0018225*
X0019093Y0018222*
X0019099Y0018219*
X0019105Y0018216*
X0019111Y0018212*
X0019116Y0018209*
X0019122Y0018204*
X0019127Y00182*
X0019132Y0018195*
X0019137Y001819*
X0019141Y0018185*
X0019145Y001818*
X0019153Y0018168*
X0019156Y0018162*
X0019159Y0018156*
X0019162Y001815*
X0019164Y0018143*
X0019166Y0018137*
X0019168Y001813*
X001917Y0018116*
Y0018089*
X0019169Y0018082*
Y0015682*
X001917Y0015675*
Y0015648*
X0019168Y0015634*
X0019166Y0015627*
X0019164Y0015621*
X0019162Y0015614*
X0019156Y0015602*
X0019153Y0015596*
X0019145Y0015584*
X0019141Y0015579*
X0019137Y0015574*
X0019132Y0015569*
X0019127Y0015564*
X0019122Y001556*
X0019116Y0015555*
X0019111Y0015552*
X0019105Y0015548*
X0019099Y0015545*
X0019093Y0015542*
X0019086Y0015539*
X001908Y0015537*
X0019073Y0015535*
X0019067Y0015533*
X001906Y0015532*
X001866*
X0018654Y0015533*
X0018646Y0015534*
X0018639Y0015535*
X0018632Y0015537*
X0018625Y0015539*
X0018618Y0015542*
X0018612Y0015545*
X0018605Y0015548*
X0018599Y0015552*
X0018592Y0015555*
X0018587Y001556*
X0018581Y0015564*
X0018575Y0015569*
X001857Y0015574*
X0018565Y001558*
X001856Y0015585*
X0018552Y0015597*
X0018548Y0015604*
X0018545Y001561*
X0018542Y0015617*
X0018539Y0015624*
X0018535Y0015638*
X0018533Y0015645*
X0018532Y0015652*
X0018531Y0015659*
Y0018105*
X0018532Y0018112*
X0018533Y0018119*
X0018535Y0018126*
X0018539Y001814*
X0018542Y0018147*
X0018545Y0018154*
X0018548Y0018161*
X0018552Y0018167*
X001856Y0018179*
X0018565Y0018184*
X001857Y001819*
X0018575Y0018195*
X0018581Y00182*
X0018587Y0018204*
X0018592Y0018209*
X0018599Y0018212*
X0018605Y0018216*
X0018612Y0018219*
X0018618Y0018222*
X0018625Y0018225*
X0018632Y0018227*
X0018639Y0018229*
X0018646Y001823*
X0018654Y0018231*
X001866Y0018232*
X001906*
X0019067Y0018231*
G37*
G36*
X0017967D02*
X0017973Y0018229D01*
X001798Y0018227*
X0017986Y0018225*
X0017993Y0018222*
X0017999Y0018219*
X0018005Y0018216*
X0018011Y0018212*
X0018016Y0018209*
X0018022Y0018204*
X0018027Y00182*
X0018037Y001819*
X0018041Y0018185*
X0018045Y001818*
X0018053Y0018168*
X0018056Y0018162*
X0018059Y0018156*
X0018062Y001815*
X0018064Y0018143*
X0018066Y0018137*
X0018068Y001813*
X001807Y0018116*
Y0018089*
X0018069Y0018082*
Y0015682*
X001807Y0015675*
Y0015648*
X0018068Y0015634*
X0018066Y0015627*
X0018064Y0015621*
X0018062Y0015614*
X0018056Y0015602*
X0018053Y0015596*
X0018045Y0015584*
X0018041Y0015579*
X0018037Y0015574*
X0018027Y0015564*
X0018022Y001556*
X0018016Y0015555*
X0018011Y0015552*
X0018005Y0015548*
X0017999Y0015545*
X0017993Y0015542*
X0017986Y0015539*
X001798Y0015537*
X0017973Y0015535*
X0017967Y0015533*
X001796Y0015532*
X001756*
X0017554Y0015533*
X0017546Y0015534*
X0017539Y0015535*
X0017526Y0015539*
X0017518Y0015542*
X0017512Y0015545*
X0017505Y0015548*
X0017499Y0015552*
X0017492Y0015555*
X0017487Y001556*
X0017481Y0015564*
X0017475Y0015569*
X001747Y0015574*
X0017465Y001558*
X001746Y0015585*
X0017456Y0015591*
X0017452Y0015597*
X0017448Y0015604*
X0017445Y001561*
X0017442Y0015617*
X0017439Y0015624*
X0017435Y0015638*
X0017433Y0015645*
X0017432Y0015652*
X0017431Y0015659*
Y0018105*
X0017432Y0018112*
X0017433Y0018119*
X0017435Y0018126*
X0017439Y001814*
X0017442Y0018147*
X0017445Y0018154*
X0017448Y0018161*
X0017452Y0018167*
X0017456Y0018173*
X001746Y0018179*
X0017465Y0018184*
X001747Y001819*
X0017475Y0018195*
X0017481Y00182*
X0017487Y0018204*
X0017492Y0018209*
X0017499Y0018212*
X0017505Y0018216*
X0017512Y0018219*
X0017518Y0018222*
X0017526Y0018225*
X0017532Y0018227*
X0017539Y0018229*
X0017546Y001823*
X0017554Y0018231*
X001756Y0018232*
X001796*
X0017967Y0018231*
G37*
G36*
X0016867D02*
X0016873Y0018229D01*
X001688Y0018227*
X0016886Y0018225*
X0016893Y0018222*
X0016899Y0018219*
X0016905Y0018216*
X0016911Y0018212*
X0016916Y0018209*
X0016922Y0018204*
X0016927Y00182*
X0016937Y001819*
X0016941Y0018185*
X0016945Y001818*
X0016953Y0018168*
X0016956Y0018162*
X0016959Y0018156*
X0016962Y001815*
X0016964Y0018143*
X0016966Y0018137*
X0016968Y001813*
X001697Y0018116*
Y0018089*
X0016969Y0018082*
Y0015682*
X001697Y0015675*
Y0015648*
X0016968Y0015634*
X0016966Y0015627*
X0016964Y0015621*
X0016962Y0015614*
X0016956Y0015602*
X0016953Y0015596*
X0016945Y0015584*
X0016941Y0015579*
X0016937Y0015574*
X0016927Y0015564*
X0016922Y001556*
X0016916Y0015555*
X0016911Y0015552*
X0016905Y0015548*
X0016899Y0015545*
X0016893Y0015542*
X0016886Y0015539*
X001688Y0015537*
X0016873Y0015535*
X0016867Y0015533*
X001686Y0015532*
X001646*
X0016454Y0015533*
X0016446Y0015534*
X0016439Y0015535*
X0016425Y0015539*
X0016418Y0015542*
X0016412Y0015545*
X0016405Y0015548*
X0016399Y0015552*
X0016392Y0015555*
X0016387Y001556*
X0016381Y0015564*
X0016375Y0015569*
X001637Y0015574*
X0016365Y001558*
X001636Y0015585*
X0016356Y0015591*
X0016352Y0015597*
X0016348Y0015604*
X0016345Y001561*
X0016339Y0015624*
X0016337Y0015631*
X0016335Y0015638*
X0016333Y0015645*
X0016332Y0015652*
X0016331Y0015659*
Y0018105*
X0016332Y0018112*
X0016333Y0018119*
X0016335Y0018126*
X0016337Y0018133*
X0016339Y001814*
X0016345Y0018154*
X0016348Y0018161*
X0016352Y0018167*
X0016356Y0018173*
X001636Y0018179*
X0016365Y0018184*
X001637Y001819*
X0016375Y0018195*
X0016381Y00182*
X0016387Y0018204*
X0016392Y0018209*
X0016399Y0018212*
X0016405Y0018216*
X0016412Y0018219*
X0016418Y0018222*
X0016425Y0018225*
X0016432Y0018227*
X0016439Y0018229*
X0016446Y001823*
X0016454Y0018231*
X001646Y0018232*
X001686*
X0016867Y0018231*
G37*
G36*
X0014367D02*
X0014373Y0018229D01*
X001438Y0018227*
X0014386Y0018225*
X0014393Y0018222*
X0014399Y0018219*
X0014405Y0018216*
X0014411Y0018212*
X0014416Y0018209*
X0014422Y0018204*
X0014427Y00182*
X0014437Y001819*
X0014441Y0018185*
X0014445Y001818*
X0014453Y0018168*
X0014456Y0018162*
X0014459Y0018156*
X0014462Y001815*
X0014464Y0018143*
X0014466Y0018137*
X0014468Y001813*
X001447Y0018116*
Y0018089*
X0014469Y0018082*
Y0015682*
X001447Y0015675*
Y0015648*
X0014468Y0015634*
X0014466Y0015627*
X0014464Y0015621*
X0014462Y0015614*
X0014456Y0015602*
X0014453Y0015596*
X0014445Y0015584*
X0014441Y0015579*
X0014437Y0015574*
X0014427Y0015564*
X0014422Y001556*
X0014416Y0015555*
X0014411Y0015552*
X0014405Y0015548*
X0014399Y0015545*
X0014393Y0015542*
X0014386Y0015539*
X001438Y0015537*
X0014373Y0015535*
X0014367Y0015533*
X001436Y0015532*
X001396*
X0013954Y0015533*
X0013946Y0015534*
X0013939Y0015535*
X0013925Y0015539*
X0013918Y0015542*
X0013912Y0015545*
X0013905Y0015548*
X0013899Y0015552*
X0013892Y0015555*
X0013887Y001556*
X0013881Y0015564*
X0013875Y0015569*
X001387Y0015574*
X0013865Y001558*
X001386Y0015585*
X0013856Y0015591*
X0013852Y0015597*
X0013848Y0015604*
X0013845Y001561*
X0013839Y0015624*
X0013837Y0015631*
X0013835Y0015638*
X0013833Y0015645*
X0013832Y0015652*
X0013831Y0015659*
Y0018105*
X0013832Y0018112*
X0013833Y0018119*
X0013835Y0018126*
X0013837Y0018133*
X0013839Y001814*
X0013845Y0018154*
X0013848Y0018161*
X0013852Y0018167*
X0013856Y0018173*
X001386Y0018179*
X0013865Y0018184*
X001387Y001819*
X0013875Y0018195*
X0013881Y00182*
X0013887Y0018204*
X0013892Y0018209*
X0013899Y0018212*
X0013905Y0018216*
X0013912Y0018219*
X0013918Y0018222*
X0013925Y0018225*
X0013932Y0018227*
X0013939Y0018229*
X0013946Y001823*
X0013954Y0018231*
X001396Y0018232*
X001436*
X0014367Y0018231*
G37*
G36*
X0013267D02*
X0013273Y0018229D01*
X001328Y0018227*
X0013286Y0018225*
X0013293Y0018222*
X0013299Y0018219*
X0013305Y0018216*
X0013311Y0018212*
X0013316Y0018209*
X0013322Y0018204*
X0013327Y00182*
X0013337Y001819*
X0013341Y0018185*
X0013345Y001818*
X0013353Y0018168*
X0013356Y0018162*
X0013359Y0018156*
X0013362Y001815*
X0013364Y0018143*
X0013366Y0018137*
X0013368Y001813*
X0013369Y0018123*
X001337Y0018116*
Y0018089*
X0013369Y0018082*
Y0015682*
X001337Y0015675*
Y0015648*
X0013369Y0015641*
X0013368Y0015634*
X0013366Y0015627*
X0013364Y0015621*
X0013362Y0015614*
X0013356Y0015602*
X0013353Y0015596*
X0013345Y0015584*
X0013341Y0015579*
X0013337Y0015574*
X0013327Y0015564*
X0013322Y001556*
X0013316Y0015555*
X0013311Y0015552*
X0013305Y0015548*
X0013299Y0015545*
X0013293Y0015542*
X0013286Y0015539*
X001328Y0015537*
X0013273Y0015535*
X0013267Y0015533*
X001326Y0015532*
X001286*
X0012854Y0015533*
X0012846Y0015534*
X0012839Y0015535*
X0012825Y0015539*
X0012818Y0015542*
X0012812Y0015545*
X0012805Y0015548*
X0012799Y0015552*
X0012792Y0015555*
X0012787Y001556*
X0012781Y0015564*
X0012775Y0015569*
X001277Y0015574*
X0012765Y001558*
X001276Y0015585*
X0012756Y0015591*
X0012752Y0015597*
X0012748Y0015604*
X0012745Y001561*
X0012739Y0015624*
X0012737Y0015631*
X0012733Y0015645*
X0012732Y0015652*
X0012731Y0015659*
Y0018105*
X0012732Y0018112*
X0012733Y0018119*
X0012737Y0018133*
X0012739Y001814*
X0012745Y0018154*
X0012748Y0018161*
X0012752Y0018167*
X0012756Y0018173*
X001276Y0018179*
X0012765Y0018184*
X001277Y001819*
X0012775Y0018195*
X0012781Y00182*
X0012787Y0018204*
X0012792Y0018209*
X0012799Y0018212*
X0012805Y0018216*
X0012812Y0018219*
X0012818Y0018222*
X0012825Y0018225*
X0012832Y0018227*
X0012839Y0018229*
X0012846Y001823*
X0012854Y0018231*
X001286Y0018232*
X001326*
X0013267Y0018231*
G37*
G36*
X0012167D02*
X0012173Y0018229D01*
X001218Y0018227*
X0012186Y0018225*
X0012193Y0018222*
X0012199Y0018219*
X0012205Y0018216*
X0012211Y0018212*
X0012216Y0018209*
X0012222Y0018204*
X0012227Y00182*
X0012237Y001819*
X0012241Y0018185*
X0012245Y001818*
X0012249Y0018174*
X0012253Y0018168*
X0012256Y0018162*
X0012259Y0018156*
X0012262Y001815*
X0012264Y0018143*
X0012266Y0018137*
X0012268Y001813*
X0012269Y0018123*
X001227Y0018116*
Y0018089*
X0012269Y0018082*
Y0015682*
X001227Y0015675*
Y0015648*
X0012269Y0015641*
X0012268Y0015634*
X0012266Y0015627*
X0012264Y0015621*
X0012262Y0015614*
X0012256Y0015602*
X0012253Y0015596*
X0012249Y001559*
X0012245Y0015584*
X0012241Y0015579*
X0012237Y0015574*
X0012227Y0015564*
X0012222Y001556*
X0012216Y0015555*
X0012211Y0015552*
X0012205Y0015548*
X0012199Y0015545*
X0012193Y0015542*
X0012186Y0015539*
X001218Y0015537*
X0012173Y0015535*
X0012167Y0015533*
X001216Y0015532*
X001176*
X0011754Y0015533*
X0011746Y0015534*
X0011739Y0015535*
X0011725Y0015539*
X0011718Y0015542*
X0011712Y0015545*
X0011705Y0015548*
X0011699Y0015552*
X0011692Y0015555*
X0011687Y001556*
X0011681Y0015564*
X0011675Y0015569*
X001167Y0015574*
X0011665Y001558*
X001166Y0015585*
X0011652Y0015597*
X0011648Y0015604*
X0011645Y001561*
X0011639Y0015624*
X0011637Y0015631*
X0011633Y0015645*
X0011632Y0015652*
X0011631Y0015659*
Y0018105*
X0011632Y0018112*
X0011633Y0018119*
X0011637Y0018133*
X0011639Y001814*
X0011645Y0018154*
X0011648Y0018161*
X0011652Y0018167*
X001166Y0018179*
X0011665Y0018184*
X001167Y001819*
X0011675Y0018195*
X0011681Y00182*
X0011687Y0018204*
X0011692Y0018209*
X0011699Y0018212*
X0011705Y0018216*
X0011712Y0018219*
X0011718Y0018222*
X0011725Y0018225*
X0011732Y0018227*
X0011739Y0018229*
X0011746Y001823*
X0011754Y0018231*
X001176Y0018232*
X001216*
X0012167Y0018231*
G37*
G36*
X0011067D02*
X0011073Y0018229D01*
X001108Y0018227*
X0011086Y0018225*
X0011093Y0018222*
X0011099Y0018219*
X0011105Y0018216*
X0011111Y0018212*
X0011116Y0018209*
X0011122Y0018204*
X0011127Y00182*
X0011132Y0018195*
X0011137Y001819*
X0011141Y0018185*
X0011145Y001818*
X0011149Y0018174*
X0011153Y0018168*
X0011156Y0018162*
X0011159Y0018156*
X0011162Y001815*
X0011164Y0018143*
X0011166Y0018137*
X0011168Y001813*
X0011169Y0018123*
X001117Y0018116*
Y0018089*
X0011169Y0018082*
Y0015682*
X001117Y0015675*
Y0015648*
X0011169Y0015641*
X0011168Y0015634*
X0011166Y0015627*
X0011164Y0015621*
X0011162Y0015614*
X0011159Y0015608*
X0011156Y0015602*
X0011153Y0015596*
X0011149Y001559*
X0011145Y0015584*
X0011141Y0015579*
X0011137Y0015574*
X0011132Y0015569*
X0011127Y0015564*
X0011122Y001556*
X0011116Y0015555*
X0011111Y0015552*
X0011105Y0015548*
X0011099Y0015545*
X0011093Y0015542*
X0011086Y0015539*
X001108Y0015537*
X0011073Y0015535*
X0011067Y0015533*
X001106Y0015532*
X001066*
X0010654Y0015533*
X0010646Y0015534*
X0010639Y0015535*
X0010625Y0015539*
X0010618Y0015542*
X0010612Y0015545*
X0010605Y0015548*
X0010599Y0015552*
X0010592Y0015555*
X0010587Y001556*
X0010581Y0015564*
X0010575Y0015569*
X001057Y0015574*
X0010565Y001558*
X001056Y0015585*
X0010552Y0015597*
X0010548Y0015604*
X0010545Y001561*
X0010539Y0015624*
X0010537Y0015631*
X0010535Y0015638*
X0010533Y0015645*
X0010532Y0015652*
X0010531Y0015659*
Y0018105*
X0010532Y0018112*
X0010533Y0018119*
X0010535Y0018126*
X0010537Y0018133*
X0010539Y001814*
X0010545Y0018154*
X0010548Y0018161*
X0010552Y0018167*
X001056Y0018179*
X0010565Y0018184*
X001057Y001819*
X0010575Y0018195*
X0010581Y00182*
X0010587Y0018204*
X0010592Y0018209*
X0010599Y0018212*
X0010605Y0018216*
X0010612Y0018219*
X0010618Y0018222*
X0010625Y0018225*
X0010632Y0018227*
X0010639Y0018229*
X0010646Y001823*
X0010654Y0018231*
X001066Y0018232*
X001106*
X0011067Y0018231*
G37*
G36*
X0009967D02*
X0009973Y0018229D01*
X000998Y0018227*
X0009986Y0018225*
X0009993Y0018222*
X0009999Y0018219*
X0010005Y0018216*
X0010011Y0018212*
X0010016Y0018209*
X0010022Y0018204*
X0010027Y00182*
X0010033Y0018195*
X0010037Y001819*
X0010041Y0018185*
X0010045Y001818*
X0010049Y0018174*
X0010053Y0018168*
X0010056Y0018162*
X0010059Y0018156*
X0010062Y001815*
X0010064Y0018143*
X0010066Y0018137*
X0010068Y001813*
X0010069Y0018123*
X001007Y0018116*
Y0018089*
X0010069Y0018082*
Y0015682*
X001007Y0015675*
Y0015648*
X0010069Y0015641*
X0010068Y0015634*
X0010066Y0015627*
X0010064Y0015621*
X0010062Y0015614*
X0010056Y0015602*
X0010053Y0015596*
X0010049Y001559*
X0010045Y0015584*
X0010041Y0015579*
X0010037Y0015574*
X0010033Y0015569*
X0010027Y0015564*
X0010022Y001556*
X0010016Y0015555*
X0010011Y0015552*
X0010005Y0015548*
X0009999Y0015545*
X0009993Y0015542*
X0009986Y0015539*
X000998Y0015537*
X0009973Y0015535*
X0009967Y0015533*
X000996Y0015532*
X000956*
X0009554Y0015533*
X0009546Y0015534*
X0009539Y0015535*
X0009525Y0015539*
X0009518Y0015542*
X0009512Y0015545*
X0009505Y0015548*
X0009499Y0015552*
X0009492Y0015555*
X0009487Y001556*
X0009481Y0015564*
X0009475Y0015569*
X000947Y0015574*
X0009465Y001558*
X000946Y0015585*
X0009452Y0015597*
X0009448Y0015604*
X0009445Y001561*
X0009439Y0015624*
X0009437Y0015631*
X0009435Y0015638*
X0009433Y0015645*
X0009432Y0015652*
X0009431Y0015659*
Y0018105*
X0009432Y0018112*
X0009433Y0018119*
X0009435Y0018126*
X0009437Y0018133*
X0009439Y001814*
X0009445Y0018154*
X0009448Y0018161*
X0009452Y0018167*
X000946Y0018179*
X0009465Y0018184*
X000947Y001819*
X0009475Y0018195*
X0009481Y00182*
X0009487Y0018204*
X0009492Y0018209*
X0009499Y0018212*
X0009505Y0018216*
X0009512Y0018219*
X0009518Y0018222*
X0009525Y0018225*
X0009532Y0018227*
X0009539Y0018229*
X0009546Y001823*
X0009554Y0018231*
X000956Y0018232*
X000996*
X0009967Y0018231*
G37*
G36*
X0008867D02*
X0008873Y0018229D01*
X000888Y0018227*
X0008886Y0018225*
X0008893Y0018222*
X0008899Y0018219*
X0008905Y0018216*
X0008911Y0018212*
X0008916Y0018209*
X0008922Y0018204*
X0008927Y00182*
X0008932Y0018195*
X0008937Y001819*
X0008941Y0018185*
X0008945Y001818*
X0008953Y0018168*
X0008956Y0018162*
X0008959Y0018156*
X0008962Y001815*
X0008964Y0018143*
X0008966Y0018137*
X0008968Y001813*
X0008969Y0018123*
X000897Y0018116*
Y0018089*
X0008969Y0018082*
Y0015682*
X000897Y0015675*
Y0015648*
X0008969Y0015641*
X0008968Y0015634*
X0008966Y0015627*
X0008964Y0015621*
X0008962Y0015614*
X0008956Y0015602*
X0008953Y0015596*
X0008945Y0015584*
X0008941Y0015579*
X0008937Y0015574*
X0008932Y0015569*
X0008927Y0015564*
X0008922Y001556*
X0008916Y0015555*
X0008911Y0015552*
X0008905Y0015548*
X0008899Y0015545*
X0008893Y0015542*
X0008886Y0015539*
X000888Y0015537*
X0008873Y0015535*
X0008867Y0015533*
X000886Y0015532*
X000846*
X0008454Y0015533*
X0008446Y0015534*
X0008439Y0015535*
X0008432Y0015537*
X0008425Y0015539*
X0008418Y0015542*
X0008412Y0015545*
X0008405Y0015548*
X0008399Y0015552*
X0008392Y0015555*
X0008387Y001556*
X0008382Y0015564*
X0008375Y0015569*
X000837Y0015574*
X0008365Y001558*
X000836Y0015585*
X0008352Y0015597*
X0008348Y0015604*
X0008345Y001561*
X0008339Y0015624*
X0008337Y0015631*
X0008335Y0015638*
X0008333Y0015645*
X0008332Y0015652*
X0008331Y0015659*
Y0018105*
X0008332Y0018112*
X0008333Y0018119*
X0008335Y0018126*
X0008337Y0018133*
X0008339Y001814*
X0008345Y0018154*
X0008348Y0018161*
X0008352Y0018167*
X000836Y0018179*
X0008365Y0018184*
X000837Y001819*
X0008375Y0018195*
X0008382Y00182*
X0008387Y0018204*
X0008392Y0018209*
X0008399Y0018212*
X0008405Y0018216*
X0008412Y0018219*
X0008418Y0018222*
X0008425Y0018225*
X0008432Y0018227*
X0008439Y0018229*
X0008446Y001823*
X0008454Y0018231*
X000846Y0018232*
X000886*
X0008867Y0018231*
G37*
G36*
X0014346Y0042231D02*
X0014354Y004223D01*
X0014361Y0042229*
X0014375Y0042225*
X0014382Y0042222*
X0014388Y0042219*
X0014395Y0042216*
X0014401Y0042212*
X0014408Y0042209*
X0014413Y0042204*
X0014419Y00422*
X0014425Y0042195*
X001443Y004219*
X0014435Y0042184*
X001444Y0042179*
X0014444Y0042173*
X0014448Y0042167*
X0014452Y004216*
X0014455Y0042154*
X0014458Y0042147*
X0014461Y004214*
X0014465Y0042126*
X0014467Y0042119*
X0014468Y0042112*
X0014469Y0042105*
Y0039659*
X0014468Y0039652*
X0014467Y0039645*
X0014465Y0039638*
X0014461Y0039624*
X0014458Y0039617*
X0014455Y003961*
X0014452Y0039604*
X0014448Y0039597*
X0014444Y0039591*
X001444Y0039585*
X0014435Y003958*
X001443Y0039574*
X0014425Y0039569*
X0014419Y0039564*
X0014413Y003956*
X0014408Y0039555*
X0014401Y0039552*
X0014395Y0039548*
X0014388Y0039545*
X0014382Y0039542*
X0014375Y0039539*
X0014368Y0039537*
X0014361Y0039535*
X0014354Y0039534*
X0014346Y0039533*
X001434Y0039532*
X001394*
X0013933Y0039533*
X0013927Y0039535*
X001392Y0039537*
X0013914Y0039539*
X0013907Y0039542*
X0013901Y0039545*
X0013895Y0039548*
X0013889Y0039552*
X0013884Y0039555*
X0013878Y003956*
X0013873Y0039564*
X0013863Y0039574*
X0013859Y0039579*
X0013855Y0039584*
X0013847Y0039596*
X0013844Y0039602*
X0013841Y0039608*
X0013838Y0039614*
X0013836Y0039621*
X0013834Y0039627*
X0013832Y0039634*
X001383Y0039648*
Y0039675*
X0013831Y0039682*
Y0042082*
X001383Y0042089*
Y0042116*
X0013832Y004213*
X0013834Y0042137*
X0013836Y0042143*
X0013838Y004215*
X0013844Y0042162*
X0013847Y0042168*
X0013855Y004218*
X0013859Y0042185*
X0013863Y004219*
X0013873Y00422*
X0013878Y0042204*
X0013884Y0042209*
X0013889Y0042212*
X0013895Y0042216*
X0013901Y0042219*
X0013907Y0042222*
X0013914Y0042225*
X001392Y0042227*
X0013927Y0042229*
X0013933Y0042231*
X001394Y0042232*
X001434*
X0014346Y0042231*
G37*
G36*
X0013246D02*
X0013254Y004223D01*
X0013261Y0042229*
X0013268Y0042227*
X0013275Y0042225*
X0013282Y0042222*
X0013288Y0042219*
X0013295Y0042216*
X0013301Y0042212*
X0013308Y0042209*
X0013313Y0042204*
X0013319Y00422*
X0013325Y0042195*
X001333Y004219*
X0013335Y0042184*
X001334Y0042179*
X0013348Y0042167*
X0013352Y004216*
X0013355Y0042154*
X0013358Y0042147*
X0013361Y004214*
X0013365Y0042126*
X0013367Y0042119*
X0013368Y0042112*
X0013369Y0042105*
Y0039659*
X0013368Y0039652*
X0013367Y0039645*
X0013365Y0039638*
X0013361Y0039624*
X0013358Y0039617*
X0013355Y003961*
X0013352Y0039604*
X0013348Y0039597*
X001334Y0039585*
X0013335Y003958*
X001333Y0039574*
X0013325Y0039569*
X0013319Y0039564*
X0013313Y003956*
X0013308Y0039555*
X0013301Y0039552*
X0013295Y0039548*
X0013288Y0039545*
X0013282Y0039542*
X0013275Y0039539*
X0013268Y0039537*
X0013261Y0039535*
X0013254Y0039534*
X0013246Y0039533*
X001324Y0039532*
X001284*
X0012833Y0039533*
X0012827Y0039535*
X001282Y0039537*
X0012814Y0039539*
X0012807Y0039542*
X0012801Y0039545*
X0012795Y0039548*
X0012789Y0039552*
X0012784Y0039555*
X0012778Y003956*
X0012773Y0039564*
X0012768Y0039569*
X0012763Y0039574*
X0012759Y0039579*
X0012755Y0039584*
X0012747Y0039596*
X0012744Y0039602*
X0012741Y0039608*
X0012738Y0039614*
X0012736Y0039621*
X0012734Y0039627*
X0012732Y0039634*
X001273Y0039648*
Y0039675*
X0012731Y0039682*
Y0042082*
X001273Y0042089*
Y0042116*
X0012732Y004213*
X0012734Y0042137*
X0012736Y0042143*
X0012738Y004215*
X0012744Y0042162*
X0012747Y0042168*
X0012755Y004218*
X0012759Y0042185*
X0012763Y004219*
X0012768Y0042195*
X0012773Y00422*
X0012778Y0042204*
X0012784Y0042209*
X0012789Y0042212*
X0012795Y0042216*
X0012801Y0042219*
X0012807Y0042222*
X0012814Y0042225*
X001282Y0042227*
X0012827Y0042229*
X0012833Y0042231*
X001284Y0042232*
X001324*
X0013246Y0042231*
G37*
G36*
X0012146D02*
X0012154Y004223D01*
X0012161Y0042229*
X0012175Y0042225*
X0012182Y0042222*
X0012188Y0042219*
X0012195Y0042216*
X0012201Y0042212*
X0012208Y0042209*
X0012213Y0042204*
X0012219Y00422*
X0012225Y0042195*
X001223Y004219*
X0012235Y0042184*
X001224Y0042179*
X0012248Y0042167*
X0012252Y004216*
X0012255Y0042154*
X0012261Y004214*
X0012263Y0042133*
X0012265Y0042126*
X0012267Y0042119*
X0012268Y0042112*
X0012269Y0042105*
Y0039659*
X0012268Y0039652*
X0012267Y0039645*
X0012265Y0039638*
X0012263Y0039631*
X0012261Y0039624*
X0012255Y003961*
X0012252Y0039604*
X0012248Y0039597*
X001224Y0039585*
X0012235Y003958*
X001223Y0039574*
X0012225Y0039569*
X0012219Y0039564*
X0012213Y003956*
X0012208Y0039555*
X0012201Y0039552*
X0012195Y0039548*
X0012188Y0039545*
X0012182Y0039542*
X0012175Y0039539*
X0012168Y0039537*
X0012161Y0039535*
X0012154Y0039534*
X0012146Y0039533*
X001214Y0039532*
X001174*
X0011733Y0039533*
X0011727Y0039535*
X001172Y0039537*
X0011714Y0039539*
X0011707Y0039542*
X0011701Y0039545*
X0011695Y0039548*
X0011689Y0039552*
X0011684Y0039555*
X0011678Y003956*
X0011673Y0039564*
X0011668Y0039569*
X0011663Y0039574*
X0011659Y0039579*
X0011655Y0039584*
X0011647Y0039596*
X0011644Y0039602*
X0011641Y0039608*
X0011638Y0039614*
X0011636Y0039621*
X0011634Y0039627*
X0011632Y0039634*
X0011631Y0039641*
X001163Y0039648*
Y0039675*
X0011631Y0039682*
Y0042082*
X001163Y0042089*
Y0042116*
X0011631Y0042123*
X0011632Y004213*
X0011634Y0042137*
X0011636Y0042143*
X0011638Y004215*
X0011644Y0042162*
X0011647Y0042168*
X0011655Y004218*
X0011659Y0042185*
X0011663Y004219*
X0011668Y0042195*
X0011673Y00422*
X0011678Y0042204*
X0011684Y0042209*
X0011689Y0042212*
X0011695Y0042216*
X0011701Y0042219*
X0011707Y0042222*
X0011714Y0042225*
X001172Y0042227*
X0011727Y0042229*
X0011733Y0042231*
X001174Y0042232*
X001214*
X0012146Y0042231*
G37*
G36*
X0011046D02*
X0011054Y004223D01*
X0011061Y0042229*
X0011075Y0042225*
X0011082Y0042222*
X0011088Y0042219*
X0011095Y0042216*
X0011101Y0042212*
X0011108Y0042209*
X0011113Y0042204*
X0011119Y00422*
X0011125Y0042195*
X001113Y004219*
X0011135Y0042184*
X001114Y0042179*
X0011148Y0042167*
X0011152Y004216*
X0011155Y0042154*
X0011161Y004214*
X0011163Y0042133*
X0011165Y0042126*
X0011167Y0042119*
X0011168Y0042112*
X0011169Y0042105*
Y0039659*
X0011168Y0039652*
X0011167Y0039645*
X0011165Y0039638*
X0011163Y0039631*
X0011161Y0039624*
X0011155Y003961*
X0011152Y0039604*
X0011148Y0039597*
X001114Y0039585*
X0011135Y003958*
X001113Y0039574*
X0011125Y0039569*
X0011119Y0039564*
X0011113Y003956*
X0011108Y0039555*
X0011101Y0039552*
X0011095Y0039548*
X0011088Y0039545*
X0011082Y0039542*
X0011075Y0039539*
X0011068Y0039537*
X0011061Y0039535*
X0011054Y0039534*
X0011046Y0039533*
X001104Y0039532*
X001064*
X0010633Y0039533*
X0010627Y0039535*
X001062Y0039537*
X0010614Y0039539*
X0010607Y0039542*
X0010601Y0039545*
X0010595Y0039548*
X0010589Y0039552*
X0010584Y0039555*
X0010578Y003956*
X0010573Y0039564*
X0010568Y0039569*
X0010563Y0039574*
X0010559Y0039579*
X0010555Y0039584*
X0010551Y003959*
X0010547Y0039596*
X0010544Y0039602*
X0010541Y0039608*
X0010538Y0039614*
X0010536Y0039621*
X0010534Y0039627*
X0010532Y0039634*
X0010531Y0039641*
X001053Y0039648*
Y0039675*
X0010531Y0039682*
Y0042082*
X001053Y0042089*
Y0042116*
X0010531Y0042123*
X0010532Y004213*
X0010534Y0042137*
X0010536Y0042143*
X0010538Y004215*
X0010541Y0042156*
X0010544Y0042162*
X0010547Y0042168*
X0010551Y0042174*
X0010555Y004218*
X0010559Y0042185*
X0010563Y004219*
X0010568Y0042195*
X0010573Y00422*
X0010578Y0042204*
X0010584Y0042209*
X0010589Y0042212*
X0010595Y0042216*
X0010601Y0042219*
X0010607Y0042222*
X0010614Y0042225*
X001062Y0042227*
X0010627Y0042229*
X0010633Y0042231*
X001064Y0042232*
X001104*
X0011046Y0042231*
G37*
G36*
X0009946D02*
X0009954Y004223D01*
X0009961Y0042229*
X0009975Y0042225*
X0009982Y0042222*
X0009988Y0042219*
X0009995Y0042216*
X0010001Y0042212*
X0010008Y0042209*
X0010013Y0042204*
X0010019Y00422*
X0010025Y0042195*
X001003Y004219*
X0010035Y0042184*
X001004Y0042179*
X0010048Y0042167*
X0010052Y004216*
X0010055Y0042154*
X0010061Y004214*
X0010063Y0042133*
X0010065Y0042126*
X0010067Y0042119*
X0010068Y0042112*
X0010069Y0042105*
Y0039659*
X0010068Y0039652*
X0010067Y0039645*
X0010065Y0039638*
X0010063Y0039631*
X0010061Y0039624*
X0010055Y003961*
X0010052Y0039604*
X0010048Y0039597*
X001004Y0039585*
X0010035Y003958*
X001003Y0039574*
X0010025Y0039569*
X0010019Y0039564*
X0010013Y003956*
X0010008Y0039555*
X0010001Y0039552*
X0009995Y0039548*
X0009988Y0039545*
X0009982Y0039542*
X0009975Y0039539*
X0009968Y0039537*
X0009961Y0039535*
X0009954Y0039534*
X0009946Y0039533*
X000994Y0039532*
X000954*
X0009533Y0039533*
X0009527Y0039535*
X000952Y0039537*
X0009514Y0039539*
X0009507Y0039542*
X0009501Y0039545*
X0009495Y0039548*
X0009489Y0039552*
X0009484Y0039555*
X0009478Y003956*
X0009473Y0039564*
X0009468Y0039569*
X0009463Y0039574*
X0009459Y0039579*
X0009455Y0039584*
X0009451Y003959*
X0009447Y0039596*
X0009444Y0039602*
X0009441Y0039608*
X0009438Y0039614*
X0009436Y0039621*
X0009434Y0039627*
X0009432Y0039634*
X0009431Y0039641*
X000943Y0039648*
Y0039675*
X0009431Y0039682*
Y0042082*
X000943Y0042089*
Y0042116*
X0009431Y0042123*
X0009432Y004213*
X0009434Y0042137*
X0009436Y0042143*
X0009438Y004215*
X0009441Y0042156*
X0009444Y0042162*
X0009447Y0042168*
X0009451Y0042174*
X0009455Y004218*
X0009459Y0042185*
X0009463Y004219*
X0009468Y0042195*
X0009473Y00422*
X0009478Y0042204*
X0009484Y0042209*
X0009489Y0042212*
X0009495Y0042216*
X0009501Y0042219*
X0009507Y0042222*
X0009514Y0042225*
X000952Y0042227*
X0009527Y0042229*
X0009533Y0042231*
X000954Y0042232*
X000994*
X0009946Y0042231*
G37*
G36*
X0008846D02*
X0008854Y004223D01*
X0008861Y0042229*
X0008875Y0042225*
X0008882Y0042222*
X0008888Y0042219*
X0008895Y0042216*
X0008901Y0042212*
X0008908Y0042209*
X0008913Y0042204*
X0008919Y00422*
X0008925Y0042195*
X000893Y004219*
X0008935Y0042184*
X000894Y0042179*
X0008948Y0042167*
X0008952Y004216*
X0008955Y0042154*
X0008961Y004214*
X0008963Y0042133*
X0008967Y0042119*
X0008968Y0042112*
X0008969Y0042105*
Y0039659*
X0008968Y0039652*
X0008967Y0039645*
X0008963Y0039631*
X0008961Y0039624*
X0008955Y003961*
X0008952Y0039604*
X0008948Y0039597*
X000894Y0039585*
X0008935Y003958*
X000893Y0039574*
X0008925Y0039569*
X0008919Y0039564*
X0008913Y003956*
X0008908Y0039555*
X0008901Y0039552*
X0008895Y0039548*
X0008888Y0039545*
X0008882Y0039542*
X0008875Y0039539*
X0008868Y0039537*
X0008861Y0039535*
X0008854Y0039534*
X0008846Y0039533*
X000884Y0039532*
X000844*
X0008433Y0039533*
X0008427Y0039535*
X000842Y0039537*
X0008414Y0039539*
X0008407Y0039542*
X0008401Y0039545*
X0008395Y0039548*
X0008389Y0039552*
X0008384Y0039555*
X0008378Y003956*
X0008373Y0039564*
X0008363Y0039574*
X0008359Y0039579*
X0008355Y0039584*
X0008347Y0039596*
X0008344Y0039602*
X0008341Y0039608*
X0008338Y0039614*
X0008336Y0039621*
X0008334Y0039627*
X0008332Y0039634*
X0008331Y0039641*
X000833Y0039648*
Y0039675*
X0008331Y0039682*
Y0042082*
X000833Y0042089*
Y0042116*
X0008331Y0042123*
X0008332Y004213*
X0008334Y0042137*
X0008336Y0042143*
X0008338Y004215*
X0008344Y0042162*
X0008347Y0042168*
X0008355Y004218*
X0008359Y0042185*
X0008363Y004219*
X0008373Y00422*
X0008378Y0042204*
X0008384Y0042209*
X0008389Y0042212*
X0008395Y0042216*
X0008401Y0042219*
X0008407Y0042222*
X0008414Y0042225*
X000842Y0042227*
X0008427Y0042229*
X0008433Y0042231*
X000844Y0042232*
X000884*
X0008846Y0042231*
G37*
G36*
X0005777Y0037701D02*
X0005784Y00377D01*
X0005798Y0037698*
X0005805Y0037696*
X0005812Y0037693*
X0005818Y0037691*
X0005825Y0037688*
X0005831Y0037685*
X0005843Y0037677*
X0005849Y0037673*
X0005854Y0037668*
X000586Y0037664*
X0005865Y0037659*
X0005869Y0037653*
X0005874Y0037648*
X0005878Y0037642*
X0005882Y0037636*
X0005885Y003763*
X0005888Y0037624*
X0005894Y003761*
X0005896Y0037604*
X0005897Y0037597*
X0005899Y003759*
X00059Y0037582*
Y0037182*
X0005899Y0037174*
X0005897Y0037167*
X0005896Y003716*
X0005894Y0037154*
X0005888Y003714*
X0005885Y0037134*
X0005882Y0037128*
X0005878Y0037122*
X0005874Y0037116*
X0005869Y0037111*
X0005865Y0037105*
X000586Y00371*
X0005854Y0037096*
X0005849Y0037091*
X0005831Y0037079*
X0005825Y0037076*
X0005818Y0037073*
X0005812Y0037071*
X0005805Y0037068*
X0005798Y0037066*
X0005791Y0037065*
X000577Y0037062*
X0005763*
X0005756Y0037063*
X0003344*
X0003337Y0037062*
X000333*
X0003309Y0037065*
X0003302Y0037066*
X0003295Y0037068*
X0003288Y0037071*
X0003282Y0037073*
X0003275Y0037076*
X0003269Y0037079*
X0003251Y0037091*
X0003246Y0037096*
X000324Y00371*
X0003235Y0037105*
X0003231Y0037111*
X0003226Y0037116*
X0003222Y0037122*
X0003218Y0037128*
X0003215Y0037134*
X0003212Y003714*
X0003206Y0037154*
X0003204Y003716*
X0003203Y0037167*
X0003201Y0037174*
X00032Y0037182*
Y0037582*
X0003201Y003759*
X0003203Y0037597*
X0003204Y0037604*
X0003206Y003761*
X0003212Y0037624*
X0003215Y003763*
X0003218Y0037636*
X0003222Y0037642*
X0003226Y0037648*
X0003231Y0037653*
X0003235Y0037659*
X000324Y0037664*
X0003246Y0037668*
X0003251Y0037673*
X0003257Y0037677*
X0003269Y0037685*
X0003275Y0037688*
X0003282Y0037691*
X0003288Y0037693*
X0003295Y0037696*
X0003302Y0037698*
X0003316Y00377*
X0003323Y0037701*
X000333Y0037702*
X0003337*
X0003344Y0037701*
X0005756*
X0005763Y0037702*
X000577*
X0005777Y0037701*
G37*
G36*
Y0036601D02*
X0005784Y00366D01*
X0005798Y0036598*
X0005805Y0036596*
X0005812Y0036593*
X0005818Y0036591*
X0005825Y0036588*
X0005831Y0036585*
X0005837Y0036581*
X0005843Y0036577*
X0005849Y0036573*
X0005854Y0036568*
X000586Y0036564*
X0005865Y0036559*
X0005869Y0036553*
X0005874Y0036548*
X0005878Y0036542*
X0005882Y0036536*
X0005885Y003653*
X0005888Y0036524*
X0005891Y0036517*
X0005894Y003651*
X0005896Y0036504*
X0005897Y0036497*
X0005899Y003649*
X00059Y0036482*
Y0036082*
X0005899Y0036074*
X0005897Y0036068*
X0005896Y003606*
X0005894Y0036054*
X0005888Y003604*
X0005885Y0036034*
X0005882Y0036028*
X0005878Y0036022*
X0005874Y0036016*
X0005869Y0036011*
X0005865Y0036005*
X000586Y0036*
X0005854Y0035996*
X0005849Y0035991*
X0005831Y0035979*
X0005825Y0035976*
X0005818Y0035973*
X0005812Y0035971*
X0005805Y0035968*
X0005798Y0035966*
X0005791Y0035965*
X0005777Y0035963*
X000577Y0035962*
X0005763*
X0005756Y0035963*
X0003344*
X0003337Y0035962*
X000333*
X0003323Y0035963*
X0003309Y0035965*
X0003302Y0035966*
X0003295Y0035968*
X0003288Y0035971*
X0003282Y0035973*
X0003275Y0035976*
X0003269Y0035979*
X0003251Y0035991*
X0003246Y0035996*
X000324Y0036*
X0003235Y0036005*
X0003231Y0036011*
X0003226Y0036016*
X0003222Y0036022*
X0003218Y0036028*
X0003215Y0036034*
X0003212Y003604*
X0003206Y0036054*
X0003204Y003606*
X0003203Y0036068*
X0003201Y0036074*
X00032Y0036082*
Y0036482*
X0003201Y003649*
X0003203Y0036497*
X0003204Y0036504*
X0003206Y003651*
X0003209Y0036517*
X0003212Y0036524*
X0003215Y003653*
X0003218Y0036536*
X0003222Y0036542*
X0003226Y0036548*
X0003231Y0036553*
X0003235Y0036559*
X000324Y0036564*
X0003246Y0036568*
X0003251Y0036573*
X0003257Y0036577*
X0003263Y0036581*
X0003269Y0036585*
X0003275Y0036588*
X0003282Y0036591*
X0003288Y0036593*
X0003295Y0036596*
X0003302Y0036598*
X0003316Y00366*
X0003323Y0036601*
X000333Y0036602*
X0003337*
X0003344Y0036601*
X0005756*
X0005763Y0036602*
X000577*
X0005777Y0036601*
G37*
G36*
X0013875Y0037003D02*
X0013899Y0037001D01*
X0013924Y0036998*
X0013948Y0036994*
X0013972Y0036988*
X0013996Y0036981*
X0014019Y0036973*
X0014042Y0036963*
X0014064Y0036953*
X0014086Y0036941*
X0014107Y0036928*
X0014127Y0036914*
X0014147Y0036899*
X0014166Y0036883*
X0014184Y0036866*
X0014201Y0036848*
X0014217Y003683*
X0014232Y0036809*
X0014246Y0036789*
X0014259Y0036768*
X0014271Y0036746*
X0014281Y0036724*
X0014291Y0036701*
X0014299Y0036678*
X0014306Y0036654*
X0014312Y003663*
X0014316Y0036606*
X0014319Y0036581*
X0014321Y0036557*
X0014322Y0036532*
X0014321Y0036507*
X0014319Y0036483*
X0014316Y0036458*
X0014312Y0036434*
X0014306Y003641*
X0014299Y0036386*
X0014291Y0036363*
X0014281Y003634*
X0014271Y0036318*
X0014259Y0036296*
X0014246Y0036275*
X0014232Y0036255*
X0014217Y0036235*
X0014201Y0036216*
X0014184Y0036198*
X0014166Y0036181*
X0014147Y0036165*
X0014127Y003615*
X0014107Y0036136*
X0014086Y0036123*
X0014064Y0036111*
X0014042Y0036101*
X0014019Y0036091*
X0013996Y0036083*
X0013972Y0036076*
X0013948Y003607*
X0013924Y0036066*
X0013899Y0036063*
X0013875Y0036061*
X001385Y003606*
X0013829*
X0013804Y0036062*
X001378Y0036065*
X0013756Y0036069*
X0013732Y0036074*
X0013708Y003608*
X0013685Y0036088*
X0013663Y0036097*
X001364Y0036107*
X0013619Y0036119*
X0013598Y0036131*
X0013577Y0036144*
X0013557Y0036159*
X0013539Y0036175*
X0013521Y0036191*
X0013503Y0036208*
X0013487Y0036227*
X0013472Y0036246*
X0013458Y0036266*
X0013445Y0036286*
X0013433Y0036308*
X0013422Y003633*
X0013412Y0036352*
X0013403Y0036375*
X0013396Y0036398*
X001339Y0036422*
X0013385Y0036446*
X0013381Y003647*
X0013379Y0036494*
X0013378Y0036522*
X001385*
Y0036532*
X0013378*
X0013379Y0036557*
X0013381Y0036581*
X0013384Y0036606*
X0013388Y003663*
X0013394Y0036654*
X0013401Y0036678*
X0013409Y0036701*
X0013419Y0036724*
X0013429Y0036746*
X0013441Y0036768*
X0013454Y0036789*
X0013468Y0036809*
X0013483Y003683*
X0013499Y0036848*
X0013516Y0036866*
X0013534Y0036883*
X0013553Y0036899*
X0013573Y0036914*
X0013593Y0036928*
X0013614Y0036941*
X0013636Y0036953*
X0013658Y0036963*
X0013681Y0036973*
X0013704Y0036981*
X0013728Y0036988*
X0013752Y0036994*
X0013776Y0036998*
X0013801Y0037001*
X0013825Y0037003*
X001385Y0037004*
X0013875Y0037003*
G37*
G36*
X0012175D02*
X0012199Y0037001D01*
X0012224Y0036998*
X0012248Y0036994*
X0012272Y0036988*
X0012296Y0036981*
X0012319Y0036973*
X0012342Y0036963*
X0012364Y0036953*
X0012386Y0036941*
X0012407Y0036928*
X0012427Y0036914*
X0012447Y0036899*
X0012466Y0036883*
X0012484Y0036866*
X0012501Y0036848*
X0012517Y003683*
X0012532Y0036809*
X0012546Y0036789*
X0012559Y0036768*
X0012571Y0036746*
X0012581Y0036724*
X0012591Y0036701*
X0012599Y0036678*
X0012606Y0036654*
X0012612Y003663*
X0012616Y0036606*
X0012619Y0036581*
X0012621Y0036557*
X0012622Y0036532*
X0012621Y0036507*
X0012619Y0036483*
X0012616Y0036458*
X0012612Y0036434*
X0012606Y003641*
X0012599Y0036386*
X0012591Y0036363*
X0012581Y003634*
X0012571Y0036318*
X0012559Y0036296*
X0012546Y0036275*
X0012532Y0036255*
X0012517Y0036235*
X0012501Y0036216*
X0012484Y0036198*
X0012466Y0036181*
X0012447Y0036165*
X0012427Y003615*
X0012407Y0036136*
X0012386Y0036123*
X0012364Y0036111*
X0012342Y0036101*
X0012319Y0036091*
X0012296Y0036083*
X0012272Y0036076*
X0012248Y003607*
X0012224Y0036066*
X0012199Y0036063*
X0012175Y0036061*
X001215Y003606*
X0012129*
X0012104Y0036062*
X001208Y0036065*
X0012056Y0036069*
X0012032Y0036074*
X0012008Y003608*
X0011985Y0036088*
X0011963Y0036097*
X001194Y0036107*
X0011919Y0036119*
X0011898Y0036131*
X0011877Y0036144*
X0011857Y0036159*
X0011839Y0036175*
X0011821Y0036191*
X0011803Y0036208*
X0011787Y0036227*
X0011772Y0036246*
X0011758Y0036266*
X0011745Y0036286*
X0011733Y0036308*
X0011722Y003633*
X0011712Y0036352*
X0011703Y0036375*
X0011696Y0036398*
X001169Y0036422*
X0011685Y0036446*
X0011681Y003647*
X0011679Y0036494*
X0011678Y0036522*
X001215*
Y0036532*
X0011678*
X0011679Y0036557*
X0011681Y0036581*
X0011684Y0036606*
X0011688Y003663*
X0011694Y0036654*
X0011701Y0036678*
X0011709Y0036701*
X0011719Y0036724*
X0011729Y0036746*
X0011741Y0036768*
X0011754Y0036789*
X0011768Y0036809*
X0011783Y003683*
X0011799Y0036848*
X0011816Y0036866*
X0011834Y0036883*
X0011853Y0036899*
X0011873Y0036914*
X0011893Y0036928*
X0011914Y0036941*
X0011936Y0036953*
X0011958Y0036963*
X0011981Y0036973*
X0012004Y0036981*
X0012028Y0036988*
X0012052Y0036994*
X0012076Y0036998*
X0012101Y0037001*
X0012125Y0037003*
X001215Y0037004*
X0012175Y0037003*
G37*
G36*
X0005777Y0035501D02*
X0005798Y0035498D01*
X0005805Y0035496*
X0005812Y0035493*
X0005818Y0035491*
X0005825Y0035488*
X0005831Y0035485*
X0005837Y0035481*
X0005843Y0035477*
X0005849Y0035473*
X0005854Y0035468*
X000586Y0035464*
X0005865Y0035459*
X0005869Y0035453*
X0005874Y0035448*
X0005878Y0035442*
X0005882Y0035436*
X0005885Y003543*
X0005888Y0035424*
X0005894Y003541*
X0005896Y0035404*
X0005897Y0035397*
X0005899Y003539*
X00059Y0035382*
Y0034982*
X0005899Y0034974*
X0005897Y0034967*
X0005896Y003496*
X0005894Y0034954*
X0005888Y003494*
X0005885Y0034934*
X0005882Y0034928*
X0005878Y0034922*
X0005874Y0034916*
X0005869Y0034911*
X0005865Y0034905*
X000586Y00349*
X0005854Y0034896*
X0005849Y0034891*
X0005837Y0034883*
X0005831Y0034879*
X0005825Y0034876*
X0005818Y0034873*
X0005812Y0034871*
X0005805Y0034868*
X0005798Y0034866*
X0005777Y0034863*
X000577Y0034862*
X0005763*
X0005756Y0034863*
X0003344*
X0003337Y0034862*
X000333*
X0003323Y0034863*
X0003302Y0034866*
X0003295Y0034868*
X0003288Y0034871*
X0003282Y0034873*
X0003275Y0034876*
X0003269Y0034879*
X0003263Y0034883*
X0003251Y0034891*
X0003246Y0034896*
X000324Y00349*
X0003235Y0034905*
X0003231Y0034911*
X0003226Y0034916*
X0003222Y0034922*
X0003218Y0034928*
X0003215Y0034934*
X0003212Y003494*
X0003206Y0034954*
X0003204Y003496*
X0003203Y0034967*
X0003201Y0034974*
X00032Y0034982*
Y0035382*
X0003201Y003539*
X0003203Y0035397*
X0003204Y0035404*
X0003206Y003541*
X0003212Y0035424*
X0003215Y003543*
X0003218Y0035436*
X0003222Y0035442*
X0003226Y0035448*
X0003231Y0035453*
X0003235Y0035459*
X000324Y0035464*
X0003246Y0035468*
X0003251Y0035473*
X0003257Y0035477*
X0003263Y0035481*
X0003269Y0035485*
X0003275Y0035488*
X0003282Y0035491*
X0003288Y0035493*
X0003295Y0035496*
X0003302Y0035498*
X0003323Y0035501*
X000333Y0035502*
X0003337*
X0003344Y0035501*
X0005756*
X0005763Y0035502*
X000577*
X0005777Y0035501*
G37*
G36*
Y0034401D02*
X0005791Y0034399D01*
X0005798Y0034398*
X0005805Y0034396*
X0005812Y0034393*
X0005818Y0034391*
X0005825Y0034388*
X0005831Y0034385*
X0005837Y0034381*
X0005849Y0034373*
X0005854Y0034368*
X000586Y0034364*
X0005865Y0034359*
X0005869Y0034353*
X0005874Y0034348*
X0005878Y0034342*
X0005882Y0034336*
X0005885Y003433*
X0005888Y0034324*
X0005894Y003431*
X0005896Y0034304*
X0005897Y0034297*
X0005899Y003429*
X00059Y0034282*
Y0033882*
X0005899Y0033874*
X0005897Y0033867*
X0005896Y003386*
X0005894Y0033854*
X0005891Y0033847*
X0005888Y003384*
X0005885Y0033834*
X0005882Y0033828*
X0005878Y0033822*
X0005874Y0033816*
X0005869Y0033811*
X0005865Y0033805*
X000586Y00338*
X0005854Y0033796*
X0005849Y0033791*
X0005843Y0033787*
X0005837Y0033783*
X0005831Y0033779*
X0005825Y0033776*
X0005818Y0033773*
X0005812Y0033771*
X0005805Y0033768*
X0005798Y0033766*
X0005784Y0033764*
X0005777Y0033763*
X000577Y0033762*
X0005763*
X0005756Y0033763*
X0003344*
X0003337Y0033762*
X000333*
X0003323Y0033763*
X0003316Y0033764*
X0003302Y0033766*
X0003295Y0033768*
X0003288Y0033771*
X0003282Y0033773*
X0003275Y0033776*
X0003269Y0033779*
X0003263Y0033783*
X0003257Y0033787*
X0003251Y0033791*
X0003246Y0033796*
X000324Y00338*
X0003235Y0033805*
X0003231Y0033811*
X0003226Y0033816*
X0003222Y0033822*
X0003218Y0033828*
X0003215Y0033834*
X0003212Y003384*
X0003209Y0033847*
X0003206Y0033854*
X0003204Y003386*
X0003203Y0033867*
X0003201Y0033874*
X00032Y0033882*
Y0034282*
X0003201Y003429*
X0003203Y0034297*
X0003204Y0034304*
X0003206Y003431*
X0003212Y0034324*
X0003215Y003433*
X0003218Y0034336*
X0003222Y0034342*
X0003226Y0034348*
X0003231Y0034353*
X0003235Y0034359*
X000324Y0034364*
X0003246Y0034368*
X0003251Y0034373*
X0003263Y0034381*
X0003269Y0034385*
X0003275Y0034388*
X0003282Y0034391*
X0003288Y0034393*
X0003295Y0034396*
X0003302Y0034398*
X0003309Y0034399*
X0003323Y0034401*
X000333Y0034402*
X0003337*
X0003344Y0034401*
X0005756*
X0005763Y0034402*
X000577*
X0005777Y0034401*
G37*
G36*
X0013875Y0035303D02*
X0013899Y0035301D01*
X0013924Y0035298*
X0013948Y0035294*
X0013972Y0035288*
X0013996Y0035281*
X0014019Y0035273*
X0014042Y0035263*
X0014064Y0035253*
X0014086Y0035241*
X0014107Y0035228*
X0014127Y0035214*
X0014147Y0035199*
X0014166Y0035183*
X0014184Y0035166*
X0014201Y0035148*
X0014217Y0035129*
X0014232Y0035109*
X0014246Y0035089*
X0014259Y0035068*
X0014271Y0035046*
X0014281Y0035024*
X0014291Y0035001*
X0014299Y0034978*
X0014306Y0034954*
X0014312Y003493*
X0014316Y0034906*
X0014319Y0034881*
X0014321Y0034857*
X0014322Y0034832*
X0014321Y0034807*
X0014319Y0034783*
X0014316Y0034758*
X0014312Y0034734*
X0014306Y003471*
X0014299Y0034686*
X0014291Y0034663*
X0014281Y003464*
X0014271Y0034618*
X0014259Y0034596*
X0014246Y0034575*
X0014232Y0034555*
X0014217Y0034535*
X0014201Y0034516*
X0014184Y0034498*
X0014166Y0034481*
X0014147Y0034465*
X0014127Y003445*
X0014107Y0034436*
X0014086Y0034423*
X0014064Y0034411*
X0014042Y0034401*
X0014019Y0034391*
X0013996Y0034383*
X0013972Y0034376*
X0013948Y003437*
X0013924Y0034366*
X0013899Y0034363*
X0013875Y0034361*
X001385Y003436*
X0013829*
X0013804Y0034362*
X001378Y0034365*
X0013756Y0034369*
X0013732Y0034374*
X0013708Y003438*
X0013685Y0034388*
X0013663Y0034397*
X001364Y0034407*
X0013619Y0034419*
X0013598Y0034431*
X0013577Y0034444*
X0013557Y0034459*
X0013539Y0034475*
X0013521Y0034491*
X0013503Y0034508*
X0013487Y0034527*
X0013472Y0034546*
X0013458Y0034566*
X0013445Y0034586*
X0013433Y0034608*
X0013422Y003463*
X0013412Y0034652*
X0013403Y0034675*
X0013396Y0034698*
X001339Y0034722*
X0013385Y0034746*
X0013381Y003477*
X0013379Y0034794*
X0013378Y0034822*
X001385*
Y0034832*
X0013378*
X0013379Y0034857*
X0013381Y0034881*
X0013384Y0034906*
X0013388Y003493*
X0013394Y0034954*
X0013401Y0034978*
X0013409Y0035001*
X0013419Y0035024*
X0013429Y0035046*
X0013441Y0035068*
X0013454Y0035089*
X0013468Y0035109*
X0013483Y0035129*
X0013499Y0035148*
X0013516Y0035166*
X0013534Y0035183*
X0013553Y0035199*
X0013573Y0035214*
X0013593Y0035228*
X0013614Y0035241*
X0013636Y0035253*
X0013658Y0035263*
X0013681Y0035273*
X0013704Y0035281*
X0013728Y0035288*
X0013752Y0035294*
X0013776Y0035298*
X0013801Y0035301*
X0013825Y0035303*
X001385Y0035304*
X0013875Y0035303*
G37*
G36*
X0012175D02*
X0012199Y0035301D01*
X0012224Y0035298*
X0012248Y0035294*
X0012272Y0035288*
X0012296Y0035281*
X0012319Y0035273*
X0012342Y0035263*
X0012364Y0035253*
X0012386Y0035241*
X0012407Y0035228*
X0012427Y0035214*
X0012447Y0035199*
X0012466Y0035183*
X0012484Y0035166*
X0012501Y0035148*
X0012517Y0035129*
X0012532Y0035109*
X0012546Y0035089*
X0012559Y0035068*
X0012571Y0035046*
X0012581Y0035024*
X0012591Y0035001*
X0012599Y0034978*
X0012606Y0034954*
X0012612Y003493*
X0012616Y0034906*
X0012619Y0034881*
X0012621Y0034857*
X0012622Y0034832*
X0012621Y0034807*
X0012619Y0034783*
X0012616Y0034758*
X0012612Y0034734*
X0012606Y003471*
X0012599Y0034686*
X0012591Y0034663*
X0012581Y003464*
X0012571Y0034618*
X0012559Y0034596*
X0012546Y0034575*
X0012532Y0034555*
X0012517Y0034535*
X0012501Y0034516*
X0012484Y0034498*
X0012466Y0034481*
X0012447Y0034465*
X0012427Y003445*
X0012407Y0034436*
X0012386Y0034423*
X0012364Y0034411*
X0012342Y0034401*
X0012319Y0034391*
X0012296Y0034383*
X0012272Y0034376*
X0012248Y003437*
X0012224Y0034366*
X0012199Y0034363*
X0012175Y0034361*
X001215Y003436*
X0012129*
X0012104Y0034362*
X001208Y0034365*
X0012056Y0034369*
X0012032Y0034374*
X0012008Y003438*
X0011985Y0034388*
X0011963Y0034397*
X001194Y0034407*
X0011919Y0034419*
X0011898Y0034431*
X0011877Y0034444*
X0011857Y0034459*
X0011839Y0034475*
X0011821Y0034491*
X0011803Y0034508*
X0011787Y0034527*
X0011772Y0034546*
X0011758Y0034566*
X0011745Y0034586*
X0011733Y0034608*
X0011722Y003463*
X0011712Y0034652*
X0011703Y0034675*
X0011696Y0034698*
X001169Y0034722*
X0011685Y0034746*
X0011681Y003477*
X0011679Y0034794*
X0011678Y0034822*
X001215*
Y0034832*
X0011678*
X0011679Y0034857*
X0011681Y0034881*
X0011684Y0034906*
X0011688Y003493*
X0011694Y0034954*
X0011701Y0034978*
X0011709Y0035001*
X0011719Y0035024*
X0011729Y0035046*
X0011741Y0035068*
X0011754Y0035089*
X0011768Y0035109*
X0011783Y0035129*
X0011799Y0035148*
X0011816Y0035166*
X0011834Y0035183*
X0011853Y0035199*
X0011873Y0035214*
X0011893Y0035228*
X0011914Y0035241*
X0011936Y0035253*
X0011958Y0035263*
X0011981Y0035273*
X0012004Y0035281*
X0012028Y0035288*
X0012052Y0035294*
X0012076Y0035298*
X0012101Y0035301*
X0012125Y0035303*
X001215Y0035304*
X0012175Y0035303*
G37*
G36*
X0005777Y0033301D02*
X0005791Y0033299D01*
X0005798Y0033298*
X0005805Y0033296*
X0005812Y0033293*
X0005818Y0033291*
X0005825Y0033288*
X0005831Y0033285*
X0005849Y0033274*
X0005854Y0033268*
X000586Y0033264*
X0005865Y0033259*
X0005869Y0033253*
X0005874Y0033248*
X0005878Y0033242*
X0005882Y0033236*
X0005885Y003323*
X0005888Y0033224*
X0005894Y003321*
X0005896Y0033204*
X0005897Y0033197*
X0005899Y003319*
X00059Y0033182*
Y0032782*
X0005899Y0032774*
X0005897Y0032767*
X0005896Y003276*
X0005894Y0032754*
X0005891Y0032747*
X0005888Y003274*
X0005885Y0032734*
X0005882Y0032728*
X0005878Y0032722*
X0005874Y0032716*
X0005869Y0032711*
X0005865Y0032705*
X000586Y00327*
X0005854Y0032696*
X0005849Y0032691*
X0005843Y0032687*
X0005837Y0032683*
X0005831Y0032679*
X0005825Y0032676*
X0005818Y0032673*
X0005812Y0032671*
X0005805Y0032668*
X0005798Y0032666*
X0005784Y0032664*
X0005777Y0032663*
X000577Y0032662*
X0005763*
X0005756Y0032663*
X0003344*
X0003337Y0032662*
X000333*
X0003323Y0032663*
X0003316Y0032664*
X0003302Y0032666*
X0003295Y0032668*
X0003288Y0032671*
X0003282Y0032673*
X0003275Y0032676*
X0003269Y0032679*
X0003263Y0032683*
X0003257Y0032687*
X0003251Y0032691*
X0003246Y0032696*
X000324Y00327*
X0003235Y0032705*
X0003231Y0032711*
X0003226Y0032716*
X0003222Y0032722*
X0003218Y0032728*
X0003215Y0032734*
X0003212Y003274*
X0003209Y0032747*
X0003206Y0032754*
X0003204Y003276*
X0003203Y0032767*
X0003201Y0032774*
X00032Y0032782*
Y0033182*
X0003201Y003319*
X0003203Y0033197*
X0003204Y0033204*
X0003206Y003321*
X0003212Y0033224*
X0003215Y003323*
X0003218Y0033236*
X0003222Y0033242*
X0003226Y0033248*
X0003231Y0033253*
X0003235Y0033259*
X000324Y0033264*
X0003246Y0033268*
X0003251Y0033274*
X0003269Y0033285*
X0003275Y0033288*
X0003282Y0033291*
X0003288Y0033293*
X0003295Y0033296*
X0003302Y0033298*
X0003309Y0033299*
X0003323Y0033301*
X000333Y0033302*
X0003337*
X0003344Y0033301*
X0005756*
X0005763Y0033302*
X000577*
X0005777Y0033301*
G37*
G36*
X0010475Y0033603D02*
X0010499Y0033601D01*
X0010524Y0033598*
X0010548Y0033594*
X0010572Y0033588*
X0010596Y0033581*
X0010619Y0033573*
X0010642Y0033563*
X0010664Y0033553*
X0010686Y0033541*
X0010707Y0033528*
X0010727Y0033514*
X0010747Y0033499*
X0010766Y0033483*
X0010784Y0033466*
X0010801Y0033448*
X0010817Y0033429*
X0010832Y0033409*
X0010846Y0033389*
X0010859Y0033368*
X0010871Y0033346*
X0010881Y0033324*
X0010891Y0033301*
X0010899Y0033278*
X0010906Y0033254*
X0010912Y003323*
X0010916Y0033206*
X0010919Y0033181*
X0010922Y0033157*
X0010922Y0033132*
X0010922Y0033107*
X0010919Y0033083*
X0010916Y0033058*
X0010912Y0033034*
X0010906Y003301*
X0010899Y0032986*
X0010891Y0032963*
X0010881Y003294*
X0010871Y0032918*
X0010859Y0032896*
X0010846Y0032875*
X0010832Y0032855*
X0010817Y0032835*
X0010801Y0032816*
X0010784Y0032798*
X0010766Y0032781*
X0010747Y0032766*
X0010727Y003275*
X0010707Y0032736*
X0010686Y0032723*
X0010664Y0032711*
X0010642Y0032701*
X0010619Y0032691*
X0010596Y0032683*
X0010572Y0032676*
X0010548Y003267*
X0010524Y0032666*
X0010499Y0032663*
X0010475Y0032661*
X001045Y003266*
X0010429*
X0010404Y0032662*
X001038Y0032665*
X0010356Y0032669*
X0010332Y0032674*
X0010308Y003268*
X0010285Y0032688*
X0010263Y0032697*
X001024Y0032707*
X0010219Y0032719*
X0010198Y0032731*
X0010177Y0032744*
X0010157Y0032759*
X0010139Y0032775*
X0010121Y0032791*
X0010103Y0032808*
X0010087Y0032827*
X0010072Y0032846*
X0010058Y0032866*
X0010045Y0032886*
X0010033Y0032908*
X0010022Y003293*
X0010012Y0032952*
X0010003Y0032975*
X0009996Y0032998*
X000999Y0033022*
X0009985Y0033046*
X0009981Y003307*
X0009979Y0033094*
X0009978Y0033122*
X001045*
Y0033132*
X0009978*
X0009979Y0033157*
X0009981Y0033181*
X0009984Y0033206*
X0009988Y003323*
X0009994Y0033254*
X0010001Y0033278*
X0010009Y0033301*
X0010019Y0033324*
X0010029Y0033346*
X0010041Y0033368*
X0010054Y0033389*
X0010068Y0033409*
X0010083Y0033429*
X0010099Y0033448*
X0010116Y0033466*
X0010134Y0033483*
X0010153Y0033499*
X0010173Y0033514*
X0010193Y0033528*
X0010214Y0033541*
X0010236Y0033553*
X0010258Y0033563*
X0010281Y0033573*
X0010304Y0033581*
X0010328Y0033588*
X0010352Y0033594*
X0010376Y0033598*
X0010401Y0033601*
X0010425Y0033603*
X001045Y0033604*
X0010475Y0033603*
G37*
G36*
X0008775D02*
X0008799Y0033601D01*
X0008824Y0033598*
X0008848Y0033594*
X0008872Y0033588*
X0008896Y0033581*
X0008919Y0033573*
X0008942Y0033563*
X0008964Y0033553*
X0008986Y0033541*
X0009007Y0033528*
X0009027Y0033514*
X0009047Y0033499*
X0009066Y0033483*
X0009084Y0033466*
X0009101Y0033448*
X0009117Y0033429*
X0009132Y0033409*
X0009146Y0033389*
X0009159Y0033368*
X0009171Y0033346*
X0009181Y0033324*
X0009191Y0033301*
X0009199Y0033278*
X0009206Y0033254*
X0009212Y003323*
X0009216Y0033206*
X0009219Y0033181*
X0009221Y0033157*
X0009222Y0033132*
X0009221Y0033107*
X0009219Y0033083*
X0009216Y0033058*
X0009212Y0033034*
X0009206Y003301*
X0009199Y0032986*
X0009191Y0032963*
X0009181Y003294*
X0009171Y0032918*
X0009159Y0032896*
X0009146Y0032875*
X0009132Y0032855*
X0009117Y0032835*
X0009101Y0032816*
X0009084Y0032798*
X0009066Y0032781*
X0009047Y0032766*
X0009027Y003275*
X0009007Y0032736*
X0008986Y0032723*
X0008964Y0032711*
X0008942Y0032701*
X0008919Y0032691*
X0008896Y0032683*
X0008872Y0032676*
X0008848Y003267*
X0008824Y0032666*
X0008799Y0032663*
X0008775Y0032661*
X000875Y003266*
X0008729*
X0008704Y0032662*
X000868Y0032665*
X0008656Y0032669*
X0008632Y0032674*
X0008608Y003268*
X0008585Y0032688*
X0008563Y0032697*
X000854Y0032707*
X0008519Y0032719*
X0008498Y0032731*
X0008477Y0032744*
X0008457Y0032759*
X0008439Y0032775*
X0008421Y0032791*
X0008403Y0032808*
X0008387Y0032827*
X0008372Y0032846*
X0008358Y0032866*
X0008345Y0032886*
X0008333Y0032908*
X0008322Y003293*
X0008312Y0032952*
X0008303Y0032975*
X0008296Y0032998*
X000829Y0033022*
X0008285Y0033046*
X0008281Y003307*
X0008279Y0033094*
X0008278Y0033122*
X000875*
Y0033132*
X0008278*
X0008279Y0033157*
X0008281Y0033181*
X0008284Y0033206*
X0008288Y003323*
X0008294Y0033254*
X0008301Y0033278*
X0008309Y0033301*
X0008319Y0033324*
X0008329Y0033346*
X0008341Y0033368*
X0008354Y0033389*
X0008368Y0033409*
X0008383Y0033429*
X0008399Y0033448*
X0008416Y0033466*
X0008434Y0033483*
X0008453Y0033499*
X0008473Y0033514*
X0008493Y0033528*
X0008514Y0033541*
X0008536Y0033553*
X0008558Y0033563*
X0008581Y0033573*
X0008604Y0033581*
X0008628Y0033588*
X0008652Y0033594*
X0008676Y0033598*
X0008701Y0033601*
X0008725Y0033603*
X000875Y0033604*
X0008775Y0033603*
G37*
G36*
X0005784Y00322D02*
X0005791Y0032199D01*
X0005798Y0032198*
X0005805Y0032196*
X0005812Y0032193*
X0005818Y0032191*
X0005825Y0032188*
X0005831Y0032185*
X0005849Y0032173*
X0005854Y0032168*
X000586Y0032164*
X0005865Y0032159*
X0005869Y0032153*
X0005874Y0032148*
X0005878Y0032142*
X0005882Y0032136*
X0005885Y0032131*
X0005888Y0032124*
X0005894Y003211*
X0005896Y0032104*
X0005897Y0032097*
X0005899Y003209*
X00059Y0032082*
Y0031682*
X0005899Y0031674*
X0005897Y0031667*
X0005896Y003166*
X0005894Y0031654*
X0005888Y003164*
X0005885Y0031634*
X0005882Y0031628*
X0005878Y0031623*
X0005874Y0031616*
X0005869Y0031611*
X0005865Y0031605*
X000586Y00316*
X0005854Y0031596*
X0005849Y0031591*
X0005843Y0031587*
X0005831Y0031579*
X0005825Y0031576*
X0005818Y0031573*
X0005812Y0031571*
X0005805Y0031568*
X0005798Y0031566*
X0005791Y0031565*
X0005784Y0031564*
X000577Y0031562*
X0005763*
X0005756Y0031563*
X0003344*
X0003337Y0031562*
X000333*
X0003316Y0031564*
X0003309Y0031565*
X0003302Y0031566*
X0003295Y0031568*
X0003288Y0031571*
X0003282Y0031573*
X0003275Y0031576*
X0003269Y0031579*
X0003257Y0031587*
X0003251Y0031591*
X0003246Y0031596*
X000324Y00316*
X0003235Y0031605*
X0003231Y0031611*
X0003226Y0031616*
X0003222Y0031623*
X0003218Y0031628*
X0003215Y0031634*
X0003212Y003164*
X0003206Y0031654*
X0003204Y003166*
X0003203Y0031667*
X0003201Y0031674*
X00032Y0031682*
Y0032082*
X0003201Y003209*
X0003203Y0032097*
X0003204Y0032104*
X0003206Y003211*
X0003212Y0032124*
X0003215Y0032131*
X0003218Y0032136*
X0003222Y0032142*
X0003226Y0032148*
X0003231Y0032153*
X0003235Y0032159*
X000324Y0032164*
X0003246Y0032168*
X0003251Y0032173*
X0003269Y0032185*
X0003275Y0032188*
X0003282Y0032191*
X0003288Y0032193*
X0003295Y0032196*
X0003302Y0032198*
X0003309Y0032199*
X0003316Y00322*
X000333Y0032202*
X0003337*
X0003344Y0032201*
X0005756*
X0005763Y0032202*
X000577*
X0005784Y00322*
G37*
G36*
Y00311D02*
X0005791Y0031099D01*
X0005798Y0031098*
X0005805Y0031096*
X0005812Y0031093*
X0005818Y0031091*
X0005825Y0031088*
X0005831Y0031085*
X0005849Y0031073*
X0005854Y0031068*
X000586Y0031064*
X0005865Y0031059*
X0005869Y0031053*
X0005874Y0031048*
X0005878Y0031042*
X0005882Y0031036*
X0005885Y003103*
X0005888Y0031024*
X0005894Y003101*
X0005896Y0031004*
X0005897Y0030997*
X0005899Y003099*
X00059Y0030982*
Y0030582*
X0005899Y0030574*
X0005897Y0030567*
X0005896Y003056*
X0005894Y0030554*
X0005888Y003054*
X0005885Y0030534*
X0005882Y0030528*
X0005878Y0030522*
X0005874Y0030516*
X0005869Y0030511*
X0005865Y0030505*
X000586Y00305*
X0005854Y0030496*
X0005849Y0030491*
X0005831Y003048*
X0005825Y0030476*
X0005818Y0030473*
X0005812Y0030471*
X0005805Y0030468*
X0005798Y0030466*
X0005791Y0030465*
X0005784Y0030464*
X000577Y0030462*
X0005763*
X0005756Y0030463*
X0003344*
X0003337Y0030462*
X000333*
X0003316Y0030464*
X0003309Y0030465*
X0003302Y0030466*
X0003295Y0030468*
X0003288Y0030471*
X0003282Y0030473*
X0003275Y0030476*
X0003269Y003048*
X0003251Y0030491*
X0003246Y0030496*
X000324Y00305*
X0003235Y0030505*
X0003231Y0030511*
X0003226Y0030516*
X0003222Y0030522*
X0003218Y0030528*
X0003215Y0030534*
X0003212Y003054*
X0003206Y0030554*
X0003204Y003056*
X0003203Y0030567*
X0003201Y0030574*
X00032Y0030582*
Y0030982*
X0003201Y003099*
X0003203Y0030997*
X0003204Y0031004*
X0003206Y003101*
X0003212Y0031024*
X0003215Y003103*
X0003218Y0031036*
X0003222Y0031042*
X0003226Y0031048*
X0003231Y0031053*
X0003235Y0031059*
X000324Y0031064*
X0003246Y0031068*
X0003251Y0031073*
X0003269Y0031085*
X0003275Y0031088*
X0003282Y0031091*
X0003288Y0031093*
X0003295Y0031096*
X0003302Y0031098*
X0003309Y0031099*
X0003316Y00311*
X000333Y0031102*
X0003337*
X0003344Y0031101*
X0005756*
X0005763Y0031102*
X000577*
X0005784Y00311*
G37*
G36*
X0010475Y0031903D02*
X0010499Y0031901D01*
X0010524Y0031898*
X0010548Y0031894*
X0010572Y0031888*
X0010596Y0031881*
X0010619Y0031873*
X0010642Y0031863*
X0010664Y0031853*
X0010686Y0031841*
X0010707Y0031828*
X0010727Y0031814*
X0010747Y0031799*
X0010766Y0031783*
X0010784Y0031766*
X0010801Y0031748*
X0010817Y0031729*
X0010832Y0031709*
X0010846Y0031689*
X0010859Y0031668*
X0010871Y0031646*
X0010881Y0031624*
X0010891Y0031601*
X0010899Y0031578*
X0010906Y0031554*
X0010912Y003153*
X0010916Y0031506*
X0010919Y0031481*
X0010922Y0031457*
X0010922Y0031432*
X0010922Y0031407*
X0010919Y0031383*
X0010916Y0031358*
X0010912Y0031334*
X0010906Y003131*
X0010899Y0031286*
X0010891Y0031263*
X0010881Y003124*
X0010871Y0031218*
X0010859Y0031196*
X0010846Y0031175*
X0010832Y0031155*
X0010817Y0031135*
X0010801Y0031116*
X0010784Y0031098*
X0010766Y0031081*
X0010747Y0031065*
X0010727Y003105*
X0010707Y0031036*
X0010686Y0031023*
X0010664Y0031011*
X0010642Y0031001*
X0010619Y0030991*
X0010596Y0030983*
X0010572Y0030976*
X0010548Y003097*
X0010524Y0030966*
X0010499Y0030963*
X0010475Y0030961*
X001045Y003096*
X0010429*
X0010404Y0030962*
X001038Y0030965*
X0010356Y0030969*
X0010332Y0030974*
X0010308Y003098*
X0010285Y0030988*
X0010263Y0030997*
X001024Y0031007*
X0010219Y0031019*
X0010198Y0031031*
X0010177Y0031044*
X0010157Y0031059*
X0010139Y0031075*
X0010121Y0031091*
X0010103Y0031108*
X0010087Y0031127*
X0010072Y0031146*
X0010058Y0031166*
X0010045Y0031186*
X0010033Y0031208*
X0010022Y003123*
X0010012Y0031252*
X0010003Y0031275*
X0009996Y0031298*
X000999Y0031322*
X0009985Y0031346*
X0009981Y003137*
X0009979Y0031394*
X0009978Y0031422*
X001045*
Y0031432*
X0009978*
X0009979Y0031457*
X0009981Y0031481*
X0009984Y0031506*
X0009988Y003153*
X0009994Y0031554*
X0010001Y0031578*
X0010009Y0031601*
X0010019Y0031624*
X0010029Y0031646*
X0010041Y0031668*
X0010054Y0031689*
X0010068Y0031709*
X0010083Y0031729*
X0010099Y0031748*
X0010116Y0031766*
X0010134Y0031783*
X0010153Y0031799*
X0010173Y0031814*
X0010193Y0031828*
X0010214Y0031841*
X0010236Y0031853*
X0010258Y0031863*
X0010281Y0031873*
X0010304Y0031881*
X0010328Y0031888*
X0010352Y0031894*
X0010376Y0031898*
X0010401Y0031901*
X0010425Y0031903*
X001045Y0031904*
X0010475Y0031903*
G37*
G36*
X0008775D02*
X0008799Y0031901D01*
X0008824Y0031898*
X0008848Y0031894*
X0008872Y0031888*
X0008896Y0031881*
X0008919Y0031873*
X0008942Y0031863*
X0008964Y0031853*
X0008986Y0031841*
X0009007Y0031828*
X0009027Y0031814*
X0009047Y0031799*
X0009066Y0031783*
X0009084Y0031766*
X0009101Y0031748*
X0009117Y0031729*
X0009132Y0031709*
X0009146Y0031689*
X0009159Y0031668*
X0009171Y0031646*
X0009181Y0031624*
X0009191Y0031601*
X0009199Y0031578*
X0009206Y0031554*
X0009212Y003153*
X0009216Y0031506*
X0009219Y0031481*
X0009221Y0031457*
X0009222Y0031432*
X0009221Y0031407*
X0009219Y0031383*
X0009216Y0031358*
X0009212Y0031334*
X0009206Y003131*
X0009199Y0031286*
X0009191Y0031263*
X0009181Y003124*
X0009171Y0031218*
X0009159Y0031196*
X0009146Y0031175*
X0009132Y0031155*
X0009117Y0031135*
X0009101Y0031116*
X0009084Y0031098*
X0009066Y0031081*
X0009047Y0031065*
X0009027Y003105*
X0009007Y0031036*
X0008986Y0031023*
X0008964Y0031011*
X0008942Y0031001*
X0008919Y0030991*
X0008896Y0030983*
X0008872Y0030976*
X0008848Y003097*
X0008824Y0030966*
X0008799Y0030963*
X0008775Y0030961*
X000875Y003096*
X0008729*
X0008704Y0030962*
X000868Y0030965*
X0008656Y0030969*
X0008632Y0030974*
X0008608Y003098*
X0008585Y0030988*
X0008563Y0030997*
X000854Y0031007*
X0008519Y0031019*
X0008498Y0031031*
X0008477Y0031044*
X0008457Y0031059*
X0008439Y0031075*
X0008421Y0031091*
X0008403Y0031108*
X0008387Y0031127*
X0008372Y0031146*
X0008358Y0031166*
X0008345Y0031186*
X0008333Y0031208*
X0008322Y003123*
X0008312Y0031252*
X0008303Y0031275*
X0008296Y0031298*
X000829Y0031322*
X0008285Y0031346*
X0008281Y003137*
X0008279Y0031394*
X0008278Y0031422*
X000875*
Y0031432*
X0008278*
X0008279Y0031457*
X0008281Y0031481*
X0008284Y0031506*
X0008288Y003153*
X0008294Y0031554*
X0008301Y0031578*
X0008309Y0031601*
X0008319Y0031624*
X0008329Y0031646*
X0008341Y0031668*
X0008354Y0031689*
X0008368Y0031709*
X0008383Y0031729*
X0008399Y0031748*
X0008416Y0031766*
X0008434Y0031783*
X0008453Y0031799*
X0008473Y0031814*
X0008493Y0031828*
X0008514Y0031841*
X0008536Y0031853*
X0008558Y0031863*
X0008581Y0031873*
X0008604Y0031881*
X0008628Y0031888*
X0008652Y0031894*
X0008676Y0031898*
X0008701Y0031901*
X0008725Y0031903*
X000875Y0031904*
X0008775Y0031903*
G37*
G36*
X0005777Y0029401D02*
X0005791Y0029399D01*
X0005798Y0029398*
X0005805Y0029396*
X0005812Y0029393*
X0005818Y0029391*
X0005825Y0029388*
X0005831Y0029385*
X0005837Y0029381*
X0005849Y0029373*
X0005854Y0029368*
X000586Y0029364*
X0005865Y0029359*
X0005869Y0029353*
X0005874Y0029348*
X0005878Y0029342*
X0005882Y0029337*
X0005885Y002933*
X0005888Y0029324*
X0005894Y002931*
X0005896Y0029304*
X0005897Y0029297*
X0005899Y002929*
X00059Y0029282*
Y0028882*
X0005899Y0028874*
X0005897Y0028867*
X0005896Y002886*
X0005894Y0028854*
X0005891Y0028847*
X0005888Y002884*
X0005885Y0028834*
X0005882Y0028829*
X0005878Y0028822*
X0005874Y0028816*
X0005869Y0028811*
X0005865Y0028805*
X000586Y00288*
X0005854Y0028796*
X0005849Y0028791*
X0005843Y0028787*
X0005837Y0028783*
X0005831Y0028779*
X0005825Y0028776*
X0005818Y0028773*
X0005812Y0028771*
X0005805Y0028768*
X0005798Y0028766*
X0005784Y0028764*
X0005777Y0028763*
X000577Y0028762*
X0005763*
X0005756Y0028763*
X0003344*
X0003337Y0028762*
X000333*
X0003323Y0028763*
X0003316Y0028764*
X0003302Y0028766*
X0003295Y0028768*
X0003288Y0028771*
X0003282Y0028773*
X0003275Y0028776*
X0003269Y0028779*
X0003263Y0028783*
X0003257Y0028787*
X0003251Y0028791*
X0003246Y0028796*
X000324Y00288*
X0003235Y0028805*
X0003231Y0028811*
X0003226Y0028816*
X0003222Y0028822*
X0003218Y0028829*
X0003215Y0028834*
X0003212Y002884*
X0003209Y0028847*
X0003206Y0028854*
X0003204Y002886*
X0003203Y0028867*
X0003201Y0028874*
X00032Y0028882*
Y0029282*
X0003201Y002929*
X0003203Y0029297*
X0003204Y0029304*
X0003206Y002931*
X0003212Y0029324*
X0003215Y002933*
X0003218Y0029337*
X0003222Y0029342*
X0003226Y0029348*
X0003231Y0029353*
X0003235Y0029359*
X000324Y0029364*
X0003246Y0029368*
X0003251Y0029373*
X0003263Y0029381*
X0003269Y0029385*
X0003275Y0029388*
X0003282Y0029391*
X0003288Y0029393*
X0003295Y0029396*
X0003302Y0029398*
X0003309Y0029399*
X0003323Y0029401*
X000333Y0029402*
X0003337*
X0003344Y0029401*
X0005756*
X0005763Y0029402*
X000577*
X0005777Y0029401*
G37*
G36*
X0010475Y0030203D02*
X0010499Y0030201D01*
X0010524Y0030198*
X0010548Y0030194*
X0010572Y0030188*
X0010596Y0030181*
X0010619Y0030173*
X0010642Y0030163*
X0010664Y0030153*
X0010686Y0030141*
X0010707Y0030128*
X0010727Y0030114*
X0010747Y0030099*
X0010766Y0030083*
X0010784Y0030066*
X0010801Y0030048*
X0010817Y0030029*
X0010832Y0030009*
X0010846Y0029989*
X0010859Y0029968*
X0010871Y0029946*
X0010881Y0029924*
X0010891Y0029901*
X0010899Y0029878*
X0010906Y0029854*
X0010912Y002983*
X0010916Y0029806*
X0010919Y0029781*
X0010922Y0029757*
X0010922Y0029732*
X0010922Y0029707*
X0010919Y0029683*
X0010916Y0029658*
X0010912Y0029634*
X0010906Y002961*
X0010899Y0029586*
X0010891Y0029563*
X0010881Y002954*
X0010871Y0029518*
X0010859Y0029496*
X0010846Y0029475*
X0010832Y0029455*
X0010817Y0029435*
X0010801Y0029416*
X0010784Y0029398*
X0010766Y0029381*
X0010747Y0029365*
X0010727Y002935*
X0010707Y0029337*
X0010686Y0029323*
X0010664Y0029311*
X0010642Y0029301*
X0010619Y0029291*
X0010596Y0029283*
X0010572Y0029276*
X0010548Y002927*
X0010524Y0029266*
X0010499Y0029263*
X0010475Y0029261*
X001045Y002926*
X0010429*
X0010404Y0029262*
X001038Y0029265*
X0010356Y0029269*
X0010332Y0029274*
X0010308Y002928*
X0010285Y0029288*
X0010263Y0029297*
X001024Y0029307*
X0010219Y0029319*
X0010198Y0029331*
X0010177Y0029344*
X0010157Y0029359*
X0010139Y0029375*
X0010121Y0029391*
X0010103Y0029408*
X0010087Y0029427*
X0010072Y0029446*
X0010058Y0029466*
X0010045Y0029486*
X0010033Y0029508*
X0010022Y002953*
X0010012Y0029552*
X0010003Y0029575*
X0009996Y0029598*
X000999Y0029622*
X0009985Y0029646*
X0009981Y002967*
X0009979Y0029694*
X0009978Y0029722*
X001045*
Y0029732*
X0009978*
X0009979Y0029757*
X0009981Y0029781*
X0009984Y0029806*
X0009988Y002983*
X0009994Y0029854*
X0010001Y0029878*
X0010009Y0029901*
X0010019Y0029924*
X0010029Y0029946*
X0010041Y0029968*
X0010054Y0029989*
X0010068Y0030009*
X0010083Y0030029*
X0010099Y0030048*
X0010116Y0030066*
X0010134Y0030083*
X0010153Y0030099*
X0010173Y0030114*
X0010193Y0030128*
X0010214Y0030141*
X0010236Y0030153*
X0010258Y0030163*
X0010281Y0030173*
X0010304Y0030181*
X0010328Y0030188*
X0010352Y0030194*
X0010376Y0030198*
X0010401Y0030201*
X0010425Y0030203*
X001045Y0030204*
X0010475Y0030203*
G37*
G36*
X0008775D02*
X0008799Y0030201D01*
X0008824Y0030198*
X0008848Y0030194*
X0008872Y0030188*
X0008896Y0030181*
X0008919Y0030173*
X0008942Y0030163*
X0008964Y0030153*
X0008986Y0030141*
X0009007Y0030128*
X0009027Y0030114*
X0009047Y0030099*
X0009066Y0030083*
X0009084Y0030066*
X0009101Y0030048*
X0009117Y0030029*
X0009132Y0030009*
X0009146Y0029989*
X0009159Y0029968*
X0009171Y0029946*
X0009181Y0029924*
X0009191Y0029901*
X0009199Y0029878*
X0009206Y0029854*
X0009212Y002983*
X0009216Y0029806*
X0009219Y0029781*
X0009221Y0029757*
X0009222Y0029732*
X0009221Y0029707*
X0009219Y0029683*
X0009216Y0029658*
X0009212Y0029634*
X0009206Y002961*
X0009199Y0029586*
X0009191Y0029563*
X0009181Y002954*
X0009171Y0029518*
X0009159Y0029496*
X0009146Y0029475*
X0009132Y0029455*
X0009117Y0029435*
X0009101Y0029416*
X0009084Y0029398*
X0009066Y0029381*
X0009047Y0029365*
X0009027Y002935*
X0009007Y0029337*
X0008986Y0029323*
X0008964Y0029311*
X0008942Y0029301*
X0008919Y0029291*
X0008896Y0029283*
X0008872Y0029276*
X0008848Y002927*
X0008824Y0029266*
X0008799Y0029263*
X0008775Y0029261*
X000875Y002926*
X0008729*
X0008704Y0029262*
X000868Y0029265*
X0008656Y0029269*
X0008632Y0029274*
X0008608Y002928*
X0008585Y0029288*
X0008563Y0029297*
X000854Y0029307*
X0008519Y0029319*
X0008498Y0029331*
X0008477Y0029344*
X0008457Y0029359*
X0008439Y0029375*
X0008421Y0029391*
X0008403Y0029408*
X0008387Y0029427*
X0008372Y0029446*
X0008358Y0029466*
X0008345Y0029486*
X0008333Y0029508*
X0008322Y002953*
X0008312Y0029552*
X0008303Y0029575*
X0008296Y0029598*
X000829Y0029622*
X0008285Y0029646*
X0008281Y002967*
X0008279Y0029694*
X0008278Y0029722*
X000875*
Y0029732*
X0008278*
X0008279Y0029757*
X0008281Y0029781*
X0008284Y0029806*
X0008288Y002983*
X0008294Y0029854*
X0008301Y0029878*
X0008309Y0029901*
X0008319Y0029924*
X0008329Y0029946*
X0008341Y0029968*
X0008354Y0029989*
X0008368Y0030009*
X0008383Y0030029*
X0008399Y0030048*
X0008416Y0030066*
X0008434Y0030083*
X0008453Y0030099*
X0008473Y0030114*
X0008493Y0030128*
X0008514Y0030141*
X0008536Y0030153*
X0008558Y0030163*
X0008581Y0030173*
X0008604Y0030181*
X0008628Y0030188*
X0008652Y0030194*
X0008676Y0030198*
X0008701Y0030201*
X0008725Y0030203*
X000875Y0030204*
X0008775Y0030203*
G37*
G36*
X0021246Y0042231D02*
X0021254Y004223D01*
X0021261Y0042229*
X0021275Y0042225*
X0021282Y0042222*
X0021288Y0042219*
X0021295Y0042216*
X0021301Y0042212*
X0021308Y0042209*
X0021313Y0042204*
X0021319Y00422*
X0021325Y0042195*
X002133Y004219*
X0021336Y0042184*
X002134Y0042179*
X0021348Y0042167*
X0021352Y004216*
X0021355Y0042154*
X0021361Y004214*
X0021363Y0042133*
X0021365Y0042126*
X0021367Y0042119*
X0021368Y0042112*
X0021369Y0042105*
Y0039659*
X0021368Y0039652*
X0021367Y0039645*
X0021365Y0039638*
X0021363Y0039631*
X0021361Y0039624*
X0021355Y003961*
X0021352Y0039604*
X0021348Y0039597*
X002134Y0039585*
X0021336Y003958*
X002133Y0039574*
X0021325Y0039569*
X0021319Y0039564*
X0021313Y003956*
X0021308Y0039555*
X0021301Y0039552*
X0021295Y0039548*
X0021288Y0039545*
X0021282Y0039542*
X0021275Y0039539*
X0021268Y0039537*
X0021261Y0039535*
X0021254Y0039534*
X0021246Y0039533*
X002124Y0039532*
X002084*
X0020833Y0039533*
X0020828Y0039535*
X002082Y0039537*
X0020814Y0039539*
X0020807Y0039542*
X0020801Y0039545*
X0020795Y0039548*
X0020789Y0039552*
X0020784Y0039555*
X0020778Y003956*
X0020773Y0039564*
X0020768Y0039569*
X0020763Y0039574*
X0020759Y0039579*
X0020755Y0039584*
X0020751Y003959*
X0020747Y0039596*
X0020744Y0039602*
X0020741Y0039608*
X0020738Y0039614*
X0020736Y0039621*
X0020734Y0039627*
X0020732Y0039634*
X0020731Y0039641*
X002073Y0039648*
Y0039675*
X0020731Y0039682*
Y0042082*
X002073Y0042089*
Y0042116*
X0020731Y0042123*
X0020732Y004213*
X0020734Y0042137*
X0020736Y0042143*
X0020738Y004215*
X0020741Y0042156*
X0020744Y0042162*
X0020747Y0042168*
X0020751Y0042174*
X0020755Y004218*
X0020759Y0042185*
X0020763Y004219*
X0020768Y0042195*
X0020773Y00422*
X0020778Y0042204*
X0020784Y0042209*
X0020789Y0042212*
X0020795Y0042216*
X0020801Y0042219*
X0020807Y0042222*
X0020814Y0042225*
X002082Y0042227*
X0020828Y0042229*
X0020833Y0042231*
X002084Y0042232*
X002124*
X0021246Y0042231*
G37*
G36*
X0020146D02*
X0020154Y004223D01*
X0020161Y0042229*
X0020175Y0042225*
X0020182Y0042222*
X0020188Y0042219*
X0020195Y0042216*
X0020201Y0042212*
X0020208Y0042209*
X0020213Y0042204*
X0020219Y00422*
X0020225Y0042195*
X002023Y004219*
X0020235Y0042184*
X002024Y0042179*
X0020248Y0042167*
X0020252Y004216*
X0020255Y0042154*
X0020261Y004214*
X0020263Y0042133*
X0020265Y0042126*
X0020267Y0042119*
X0020268Y0042112*
X0020269Y0042105*
Y0039659*
X0020268Y0039652*
X0020267Y0039645*
X0020265Y0039638*
X0020263Y0039631*
X0020261Y0039624*
X0020255Y003961*
X0020252Y0039604*
X0020248Y0039597*
X002024Y0039585*
X0020235Y003958*
X002023Y0039574*
X0020225Y0039569*
X0020219Y0039564*
X0020213Y003956*
X0020208Y0039555*
X0020201Y0039552*
X0020195Y0039548*
X0020188Y0039545*
X0020182Y0039542*
X0020175Y0039539*
X0020168Y0039537*
X0020161Y0039535*
X0020154Y0039534*
X0020146Y0039533*
X002014Y0039532*
X001974*
X0019733Y0039533*
X0019727Y0039535*
X001972Y0039537*
X0019714Y0039539*
X0019707Y0039542*
X0019701Y0039545*
X0019695Y0039548*
X0019689Y0039552*
X0019685Y0039555*
X0019678Y003956*
X0019673Y0039564*
X0019663Y0039574*
X0019659Y0039579*
X0019655Y0039584*
X0019651Y003959*
X0019647Y0039596*
X0019644Y0039602*
X0019641Y0039608*
X0019638Y0039614*
X0019636Y0039621*
X0019634Y0039627*
X0019632Y0039634*
X0019631Y0039641*
X001963Y0039648*
Y0039675*
X0019631Y0039682*
Y0042082*
X001963Y0042089*
Y0042116*
X0019631Y0042123*
X0019632Y004213*
X0019634Y0042137*
X0019636Y0042143*
X0019638Y004215*
X0019641Y0042156*
X0019644Y0042162*
X0019647Y0042168*
X0019651Y0042174*
X0019655Y004218*
X0019659Y0042185*
X0019663Y004219*
X0019673Y00422*
X0019678Y0042204*
X0019685Y0042209*
X0019689Y0042212*
X0019695Y0042216*
X0019701Y0042219*
X0019707Y0042222*
X0019714Y0042225*
X001972Y0042227*
X0019727Y0042229*
X0019733Y0042231*
X001974Y0042232*
X002014*
X0020146Y0042231*
G37*
G36*
X0019046D02*
X0019054Y004223D01*
X0019061Y0042229*
X0019075Y0042225*
X0019082Y0042222*
X0019088Y0042219*
X0019095Y0042216*
X0019101Y0042212*
X0019108Y0042209*
X0019113Y0042204*
X0019119Y00422*
X0019125Y0042195*
X001913Y004219*
X0019135Y0042184*
X001914Y0042179*
X0019148Y0042167*
X0019152Y004216*
X0019155Y0042154*
X0019161Y004214*
X0019163Y0042133*
X0019167Y0042119*
X0019168Y0042112*
X0019169Y0042105*
Y0039659*
X0019168Y0039652*
X0019167Y0039645*
X0019163Y0039631*
X0019161Y0039624*
X0019155Y003961*
X0019152Y0039604*
X0019148Y0039597*
X001914Y0039585*
X0019135Y003958*
X001913Y0039574*
X0019125Y0039569*
X0019119Y0039564*
X0019113Y003956*
X0019108Y0039555*
X0019101Y0039552*
X0019095Y0039548*
X0019088Y0039545*
X0019082Y0039542*
X0019075Y0039539*
X0019068Y0039537*
X0019061Y0039535*
X0019054Y0039534*
X0019046Y0039533*
X001904Y0039532*
X001864*
X0018633Y0039533*
X0018627Y0039535*
X001862Y0039537*
X0018614Y0039539*
X0018607Y0039542*
X0018601Y0039545*
X0018595Y0039548*
X0018589Y0039552*
X0018584Y0039555*
X0018578Y003956*
X0018573Y0039564*
X0018563Y0039574*
X0018559Y0039579*
X0018555Y0039584*
X0018547Y0039596*
X0018544Y0039602*
X0018542Y0039608*
X0018538Y0039614*
X0018536Y0039621*
X0018534Y0039627*
X0018532Y0039634*
X0018531Y0039641*
X001853Y0039648*
Y0039675*
X0018531Y0039682*
Y0042082*
X001853Y0042089*
Y0042116*
X0018531Y0042123*
X0018532Y004213*
X0018534Y0042137*
X0018536Y0042143*
X0018538Y004215*
X0018544Y0042162*
X0018547Y0042168*
X0018555Y004218*
X0018559Y0042185*
X0018563Y004219*
X0018573Y00422*
X0018578Y0042204*
X0018584Y0042209*
X0018589Y0042212*
X0018595Y0042216*
X0018601Y0042219*
X0018607Y0042222*
X0018614Y0042225*
X001862Y0042227*
X0018627Y0042229*
X0018633Y0042231*
X001864Y0042232*
X001904*
X0019046Y0042231*
G37*
G36*
X0017946D02*
X0017954Y004223D01*
X0017961Y0042229*
X0017975Y0042225*
X0017982Y0042222*
X0017988Y0042219*
X0017995Y0042216*
X0018001Y0042212*
X0018008Y0042209*
X0018013Y0042204*
X0018019Y00422*
X0018025Y0042195*
X001803Y004219*
X0018035Y0042184*
X001804Y0042179*
X0018044Y0042173*
X0018048Y0042167*
X0018052Y004216*
X0018055Y0042154*
X0018061Y004214*
X0018063Y0042133*
X0018065Y0042126*
X0018067Y0042119*
X0018068Y0042112*
X0018069Y0042105*
Y0039659*
X0018068Y0039652*
X0018067Y0039645*
X0018065Y0039638*
X0018063Y0039631*
X0018061Y0039624*
X0018055Y003961*
X0018052Y0039604*
X0018048Y0039597*
X0018044Y0039591*
X001804Y0039585*
X0018035Y003958*
X001803Y0039574*
X0018025Y0039569*
X0018019Y0039564*
X0018013Y003956*
X0018008Y0039555*
X0018001Y0039552*
X0017995Y0039548*
X0017988Y0039545*
X0017982Y0039542*
X0017975Y0039539*
X0017968Y0039537*
X0017961Y0039535*
X0017954Y0039534*
X0017946Y0039533*
X001794Y0039532*
X001754*
X0017533Y0039533*
X0017527Y0039535*
X001752Y0039537*
X0017514Y0039539*
X0017507Y0039542*
X0017501Y0039545*
X0017495Y0039548*
X0017489Y0039552*
X0017484Y0039555*
X0017478Y003956*
X0017473Y0039564*
X0017463Y0039574*
X0017459Y0039579*
X0017455Y0039584*
X0017447Y0039596*
X0017444Y0039602*
X0017441Y0039608*
X0017438Y0039614*
X0017436Y0039621*
X0017434Y0039627*
X0017432Y0039634*
X001743Y0039648*
Y0039675*
X0017431Y0039682*
Y0042082*
X001743Y0042089*
Y0042116*
X0017432Y004213*
X0017434Y0042137*
X0017436Y0042143*
X0017438Y004215*
X0017444Y0042162*
X0017447Y0042168*
X0017455Y004218*
X0017459Y0042185*
X0017463Y004219*
X0017473Y00422*
X0017478Y0042204*
X0017484Y0042209*
X0017489Y0042212*
X0017495Y0042216*
X0017501Y0042219*
X0017507Y0042222*
X0017514Y0042225*
X001752Y0042227*
X0017527Y0042229*
X0017533Y0042231*
X001754Y0042232*
X001794*
X0017946Y0042231*
G37*
G36*
X0016846D02*
X0016854Y004223D01*
X0016861Y0042229*
X0016875Y0042225*
X0016882Y0042222*
X0016888Y0042219*
X0016895Y0042216*
X0016901Y0042212*
X0016908Y0042209*
X0016913Y0042204*
X0016919Y00422*
X0016925Y0042195*
X001693Y004219*
X0016935Y0042184*
X001694Y0042179*
X0016944Y0042173*
X0016948Y0042167*
X0016952Y004216*
X0016955Y0042154*
X0016961Y004214*
X0016963Y0042133*
X0016965Y0042126*
X0016967Y0042119*
X0016968Y0042112*
X0016969Y0042105*
Y0039659*
X0016968Y0039652*
X0016967Y0039645*
X0016965Y0039638*
X0016963Y0039631*
X0016961Y0039624*
X0016955Y003961*
X0016952Y0039604*
X0016948Y0039597*
X0016944Y0039591*
X001694Y0039585*
X0016935Y003958*
X001693Y0039574*
X0016925Y0039569*
X0016919Y0039564*
X0016913Y003956*
X0016908Y0039555*
X0016901Y0039552*
X0016895Y0039548*
X0016888Y0039545*
X0016882Y0039542*
X0016875Y0039539*
X0016868Y0039537*
X0016861Y0039535*
X0016854Y0039534*
X0016846Y0039533*
X001684Y0039532*
X001644*
X0016433Y0039533*
X0016427Y0039535*
X001642Y0039537*
X0016414Y0039539*
X0016407Y0039542*
X0016401Y0039545*
X0016395Y0039548*
X0016389Y0039552*
X0016384Y0039555*
X0016378Y003956*
X0016373Y0039564*
X0016363Y0039574*
X0016359Y0039579*
X0016355Y0039584*
X0016347Y0039596*
X0016344Y0039602*
X0016341Y0039608*
X0016338Y0039614*
X0016336Y0039621*
X0016334Y0039627*
X0016332Y0039634*
X001633Y0039648*
Y0039675*
X0016331Y0039682*
Y0042082*
X001633Y0042089*
Y0042116*
X0016332Y004213*
X0016334Y0042137*
X0016336Y0042143*
X0016338Y004215*
X0016344Y0042162*
X0016347Y0042168*
X0016355Y004218*
X0016359Y0042185*
X0016363Y004219*
X0016373Y00422*
X0016378Y0042204*
X0016384Y0042209*
X0016389Y0042212*
X0016395Y0042216*
X0016401Y0042219*
X0016407Y0042222*
X0016414Y0042225*
X001642Y0042227*
X0016427Y0042229*
X0016433Y0042231*
X001644Y0042232*
X001684*
X0016846Y0042231*
G37*
G36*
X0026077Y0037701D02*
X0026084Y00377D01*
X0026098Y0037698*
X0026105Y0037696*
X0026112Y0037693*
X0026118Y0037691*
X0026125Y0037688*
X0026131Y0037685*
X0026143Y0037677*
X0026149Y0037673*
X0026154Y0037668*
X002616Y0037664*
X0026165Y0037659*
X0026169Y0037653*
X0026174Y0037648*
X0026178Y0037642*
X0026182Y0037636*
X0026185Y003763*
X0026188Y0037624*
X0026194Y003761*
X0026196Y0037604*
X0026197Y0037597*
X0026199Y003759*
X00262Y0037582*
Y0037182*
X0026199Y0037174*
X0026197Y0037167*
X0026196Y003716*
X0026194Y0037154*
X0026188Y003714*
X0026185Y0037134*
X0026182Y0037128*
X0026178Y0037122*
X0026174Y0037116*
X0026169Y0037111*
X0026165Y0037105*
X002616Y00371*
X0026154Y0037096*
X0026149Y0037091*
X0026131Y0037079*
X0026125Y0037076*
X0026118Y0037073*
X0026112Y0037071*
X0026105Y0037068*
X0026098Y0037066*
X0026091Y0037065*
X002607Y0037062*
X0026063*
X0026056Y0037063*
X0023644*
X0023637Y0037062*
X002363*
X0023609Y0037065*
X0023602Y0037066*
X0023595Y0037068*
X0023588Y0037071*
X0023582Y0037073*
X0023575Y0037076*
X0023569Y0037079*
X0023551Y0037091*
X0023546Y0037096*
X002354Y00371*
X0023535Y0037105*
X0023531Y0037111*
X0023526Y0037116*
X0023522Y0037122*
X0023518Y0037128*
X0023515Y0037134*
X0023512Y003714*
X0023506Y0037154*
X0023504Y003716*
X0023503Y0037167*
X0023501Y0037174*
X00235Y0037182*
Y0037582*
X0023501Y003759*
X0023503Y0037597*
X0023504Y0037604*
X0023506Y003761*
X0023512Y0037624*
X0023515Y003763*
X0023518Y0037636*
X0023522Y0037642*
X0023526Y0037648*
X0023531Y0037653*
X0023535Y0037659*
X002354Y0037664*
X0023546Y0037668*
X0023551Y0037673*
X0023557Y0037677*
X0023569Y0037685*
X0023575Y0037688*
X0023582Y0037691*
X0023588Y0037693*
X0023595Y0037696*
X0023602Y0037698*
X0023616Y00377*
X0023623Y0037701*
X002363Y0037702*
X0023637*
X0023644Y0037701*
X0026056*
X0026063Y0037702*
X002607*
X0026077Y0037701*
G37*
G36*
Y0036601D02*
X0026084Y00366D01*
X0026098Y0036598*
X0026105Y0036596*
X0026112Y0036593*
X0026118Y0036591*
X0026125Y0036588*
X0026131Y0036585*
X0026137Y0036581*
X0026143Y0036577*
X0026149Y0036573*
X0026154Y0036568*
X002616Y0036564*
X0026165Y0036559*
X0026169Y0036553*
X0026174Y0036548*
X0026178Y0036542*
X0026182Y0036536*
X0026185Y003653*
X0026188Y0036524*
X0026191Y0036517*
X0026194Y003651*
X0026196Y0036504*
X0026197Y0036497*
X0026199Y003649*
X00262Y0036482*
Y0036082*
X0026199Y0036074*
X0026197Y0036068*
X0026196Y003606*
X0026194Y0036054*
X0026188Y003604*
X0026185Y0036034*
X0026182Y0036028*
X0026178Y0036022*
X0026174Y0036016*
X0026169Y0036011*
X0026165Y0036005*
X002616Y0036*
X0026154Y0035996*
X0026149Y0035991*
X0026131Y0035979*
X0026125Y0035976*
X0026118Y0035973*
X0026112Y0035971*
X0026105Y0035968*
X0026098Y0035966*
X0026091Y0035965*
X0026077Y0035963*
X002607Y0035962*
X0026063*
X0026056Y0035963*
X0023644*
X0023637Y0035962*
X002363*
X0023623Y0035963*
X0023609Y0035965*
X0023602Y0035966*
X0023595Y0035968*
X0023588Y0035971*
X0023582Y0035973*
X0023575Y0035976*
X0023569Y0035979*
X0023551Y0035991*
X0023546Y0035996*
X002354Y0036*
X0023535Y0036005*
X0023531Y0036011*
X0023526Y0036016*
X0023522Y0036022*
X0023518Y0036028*
X0023515Y0036034*
X0023512Y003604*
X0023506Y0036054*
X0023504Y003606*
X0023503Y0036068*
X0023501Y0036074*
X00235Y0036082*
Y0036482*
X0023501Y003649*
X0023503Y0036497*
X0023504Y0036504*
X0023506Y003651*
X0023509Y0036517*
X0023512Y0036524*
X0023515Y003653*
X0023518Y0036536*
X0023522Y0036542*
X0023526Y0036548*
X0023531Y0036553*
X0023535Y0036559*
X002354Y0036564*
X0023546Y0036568*
X0023551Y0036573*
X0023557Y0036577*
X0023563Y0036581*
X0023569Y0036585*
X0023575Y0036588*
X0023582Y0036591*
X0023588Y0036593*
X0023595Y0036596*
X0023602Y0036598*
X0023616Y00366*
X0023623Y0036601*
X002363Y0036602*
X0023637*
X0023644Y0036601*
X0026056*
X0026063Y0036602*
X002607*
X0026077Y0036601*
G37*
G36*
X0017275Y0037003D02*
X0017299Y0037001D01*
X0017324Y0036998*
X0017348Y0036994*
X0017372Y0036988*
X0017396Y0036981*
X0017419Y0036973*
X0017442Y0036963*
X0017464Y0036953*
X0017486Y0036941*
X0017507Y0036928*
X0017527Y0036914*
X0017547Y0036899*
X0017566Y0036883*
X0017584Y0036866*
X0017601Y0036848*
X0017617Y003683*
X0017632Y0036809*
X0017646Y0036789*
X0017659Y0036768*
X0017671Y0036746*
X0017681Y0036724*
X0017691Y0036701*
X0017699Y0036678*
X0017706Y0036654*
X0017712Y003663*
X0017716Y0036606*
X0017719Y0036581*
X0017721Y0036557*
X0017722Y0036532*
X0017721Y0036507*
X0017719Y0036483*
X0017716Y0036458*
X0017712Y0036434*
X0017706Y003641*
X0017699Y0036386*
X0017691Y0036363*
X0017681Y003634*
X0017671Y0036318*
X0017659Y0036296*
X0017646Y0036275*
X0017632Y0036255*
X0017617Y0036235*
X0017601Y0036216*
X0017584Y0036198*
X0017566Y0036181*
X0017547Y0036165*
X0017527Y003615*
X0017507Y0036136*
X0017486Y0036123*
X0017464Y0036111*
X0017442Y0036101*
X0017419Y0036091*
X0017396Y0036083*
X0017372Y0036076*
X0017348Y003607*
X0017324Y0036066*
X0017299Y0036063*
X0017275Y0036061*
X001725Y003606*
X0017229*
X0017204Y0036062*
X001718Y0036065*
X0017156Y0036069*
X0017132Y0036074*
X0017108Y003608*
X0017085Y0036088*
X0017063Y0036097*
X001704Y0036107*
X0017019Y0036119*
X0016998Y0036131*
X0016977Y0036144*
X0016957Y0036159*
X0016939Y0036175*
X0016921Y0036191*
X0016903Y0036208*
X0016887Y0036227*
X0016872Y0036246*
X0016858Y0036266*
X0016845Y0036286*
X0016833Y0036308*
X0016822Y003633*
X0016812Y0036352*
X0016803Y0036375*
X0016796Y0036398*
X001679Y0036422*
X0016785Y0036446*
X0016781Y003647*
X0016779Y0036494*
X0016778Y0036522*
X001725*
Y0036532*
X0016778*
X0016779Y0036557*
X0016781Y0036581*
X0016784Y0036606*
X0016788Y003663*
X0016794Y0036654*
X0016801Y0036678*
X0016809Y0036701*
X0016819Y0036724*
X0016829Y0036746*
X0016841Y0036768*
X0016854Y0036789*
X0016868Y0036809*
X0016883Y003683*
X0016899Y0036848*
X0016916Y0036866*
X0016934Y0036883*
X0016953Y0036899*
X0016973Y0036914*
X0016993Y0036928*
X0017014Y0036941*
X0017036Y0036953*
X0017058Y0036963*
X0017081Y0036973*
X0017104Y0036981*
X0017128Y0036988*
X0017152Y0036994*
X0017176Y0036998*
X0017201Y0037001*
X0017225Y0037003*
X001725Y0037004*
X0017275Y0037003*
G37*
G36*
X0015575D02*
X0015599Y0037001D01*
X0015624Y0036998*
X0015648Y0036994*
X0015672Y0036988*
X0015696Y0036981*
X0015719Y0036973*
X0015742Y0036963*
X0015764Y0036953*
X0015786Y0036941*
X0015807Y0036928*
X0015827Y0036914*
X0015847Y0036899*
X0015866Y0036883*
X0015884Y0036866*
X0015901Y0036848*
X0015917Y003683*
X0015932Y0036809*
X0015946Y0036789*
X0015959Y0036768*
X0015971Y0036746*
X0015981Y0036724*
X0015991Y0036701*
X0015999Y0036678*
X0016006Y0036654*
X0016012Y003663*
X0016016Y0036606*
X0016019Y0036581*
X0016021Y0036557*
X0016022Y0036532*
X0016021Y0036507*
X0016019Y0036483*
X0016016Y0036458*
X0016012Y0036434*
X0016006Y003641*
X0015999Y0036386*
X0015991Y0036363*
X0015981Y003634*
X0015971Y0036318*
X0015959Y0036296*
X0015946Y0036275*
X0015932Y0036255*
X0015917Y0036235*
X0015901Y0036216*
X0015884Y0036198*
X0015866Y0036181*
X0015847Y0036165*
X0015827Y003615*
X0015807Y0036136*
X0015786Y0036123*
X0015764Y0036111*
X0015742Y0036101*
X0015719Y0036091*
X0015696Y0036083*
X0015672Y0036076*
X0015648Y003607*
X0015624Y0036066*
X0015599Y0036063*
X0015575Y0036061*
X001555Y003606*
X0015529*
X0015504Y0036062*
X001548Y0036065*
X0015456Y0036069*
X0015432Y0036074*
X0015408Y003608*
X0015385Y0036088*
X0015363Y0036097*
X001534Y0036107*
X0015319Y0036119*
X0015298Y0036131*
X0015277Y0036144*
X0015257Y0036159*
X001524Y0036175*
X0015221Y0036191*
X0015203Y0036208*
X0015187Y0036227*
X0015172Y0036246*
X0015158Y0036266*
X0015145Y0036286*
X0015133Y0036308*
X0015122Y003633*
X0015113Y0036352*
X0015103Y0036375*
X0015096Y0036398*
X001509Y0036422*
X0015085Y0036446*
X0015081Y003647*
X0015079Y0036494*
X0015078Y0036522*
X001555*
Y0036532*
X0015078*
X0015079Y0036557*
X0015081Y0036581*
X0015084Y0036606*
X0015088Y003663*
X0015094Y0036654*
X0015101Y0036678*
X0015109Y0036701*
X0015119Y0036724*
X0015129Y0036746*
X0015141Y0036768*
X0015154Y0036789*
X0015168Y0036809*
X0015183Y003683*
X0015199Y0036848*
X0015216Y0036866*
X0015234Y0036883*
X0015253Y0036899*
X0015273Y0036914*
X0015293Y0036928*
X0015314Y0036941*
X0015336Y0036953*
X0015358Y0036963*
X0015381Y0036973*
X0015404Y0036981*
X0015428Y0036988*
X0015452Y0036994*
X0015476Y0036998*
X0015501Y0037001*
X0015525Y0037003*
X001555Y0037004*
X0015575Y0037003*
G37*
G36*
X0026077Y0035501D02*
X0026098Y0035498D01*
X0026105Y0035496*
X0026112Y0035493*
X0026118Y0035491*
X0026125Y0035488*
X0026131Y0035485*
X0026137Y0035481*
X0026143Y0035477*
X0026149Y0035473*
X0026154Y0035468*
X002616Y0035464*
X0026165Y0035459*
X0026169Y0035453*
X0026174Y0035448*
X0026178Y0035442*
X0026182Y0035436*
X0026185Y003543*
X0026188Y0035424*
X0026194Y003541*
X0026196Y0035404*
X0026197Y0035397*
X0026199Y003539*
X00262Y0035382*
Y0034982*
X0026199Y0034974*
X0026197Y0034967*
X0026196Y003496*
X0026194Y0034954*
X0026188Y003494*
X0026185Y0034934*
X0026182Y0034928*
X0026178Y0034922*
X0026174Y0034916*
X0026169Y0034911*
X0026165Y0034905*
X002616Y00349*
X0026154Y0034896*
X0026149Y0034891*
X0026137Y0034883*
X0026131Y0034879*
X0026125Y0034876*
X0026118Y0034873*
X0026112Y0034871*
X0026105Y0034868*
X0026098Y0034866*
X0026077Y0034863*
X002607Y0034862*
X0026063*
X0026056Y0034863*
X0023644*
X0023637Y0034862*
X002363*
X0023623Y0034863*
X0023602Y0034866*
X0023595Y0034868*
X0023588Y0034871*
X0023582Y0034873*
X0023575Y0034876*
X0023569Y0034879*
X0023563Y0034883*
X0023551Y0034891*
X0023546Y0034896*
X002354Y00349*
X0023535Y0034905*
X0023531Y0034911*
X0023526Y0034916*
X0023522Y0034922*
X0023518Y0034928*
X0023515Y0034934*
X0023512Y003494*
X0023506Y0034954*
X0023504Y003496*
X0023503Y0034967*
X0023501Y0034974*
X00235Y0034982*
Y0035382*
X0023501Y003539*
X0023503Y0035397*
X0023504Y0035404*
X0023506Y003541*
X0023512Y0035424*
X0023515Y003543*
X0023518Y0035436*
X0023522Y0035442*
X0023526Y0035448*
X0023531Y0035453*
X0023535Y0035459*
X002354Y0035464*
X0023546Y0035468*
X0023551Y0035473*
X0023557Y0035477*
X0023563Y0035481*
X0023569Y0035485*
X0023575Y0035488*
X0023582Y0035491*
X0023588Y0035493*
X0023595Y0035496*
X0023602Y0035498*
X0023623Y0035501*
X002363Y0035502*
X0023637*
X0023644Y0035501*
X0026056*
X0026063Y0035502*
X002607*
X0026077Y0035501*
G37*
G36*
Y0034401D02*
X0026091Y0034399D01*
X0026098Y0034398*
X0026105Y0034396*
X0026112Y0034393*
X0026118Y0034391*
X0026125Y0034388*
X0026131Y0034385*
X0026137Y0034381*
X0026149Y0034373*
X0026154Y0034368*
X002616Y0034364*
X0026165Y0034359*
X0026169Y0034353*
X0026174Y0034348*
X0026178Y0034342*
X0026182Y0034336*
X0026185Y003433*
X0026188Y0034324*
X0026194Y003431*
X0026196Y0034304*
X0026197Y0034297*
X0026199Y003429*
X00262Y0034282*
Y0033882*
X0026199Y0033874*
X0026197Y0033867*
X0026196Y003386*
X0026194Y0033854*
X0026191Y0033847*
X0026188Y003384*
X0026185Y0033834*
X0026182Y0033828*
X0026178Y0033822*
X0026174Y0033816*
X0026169Y0033811*
X0026165Y0033805*
X002616Y00338*
X0026154Y0033796*
X0026149Y0033791*
X0026143Y0033787*
X0026137Y0033783*
X0026131Y0033779*
X0026125Y0033776*
X0026118Y0033773*
X0026112Y0033771*
X0026105Y0033768*
X0026098Y0033766*
X0026084Y0033764*
X0026077Y0033763*
X002607Y0033762*
X0026063*
X0026056Y0033763*
X0023644*
X0023637Y0033762*
X002363*
X0023623Y0033763*
X0023616Y0033764*
X0023602Y0033766*
X0023595Y0033768*
X0023588Y0033771*
X0023582Y0033773*
X0023575Y0033776*
X0023569Y0033779*
X0023563Y0033783*
X0023557Y0033787*
X0023551Y0033791*
X0023546Y0033796*
X002354Y00338*
X0023535Y0033805*
X0023531Y0033811*
X0023526Y0033816*
X0023522Y0033822*
X0023518Y0033828*
X0023515Y0033834*
X0023512Y003384*
X0023509Y0033847*
X0023506Y0033854*
X0023504Y003386*
X0023503Y0033867*
X0023501Y0033874*
X00235Y0033882*
Y0034282*
X0023501Y003429*
X0023503Y0034297*
X0023504Y0034304*
X0023506Y003431*
X0023512Y0034324*
X0023515Y003433*
X0023518Y0034336*
X0023522Y0034342*
X0023526Y0034348*
X0023531Y0034353*
X0023535Y0034359*
X002354Y0034364*
X0023546Y0034368*
X0023551Y0034373*
X0023563Y0034381*
X0023569Y0034385*
X0023575Y0034388*
X0023582Y0034391*
X0023588Y0034393*
X0023595Y0034396*
X0023602Y0034398*
X0023609Y0034399*
X0023623Y0034401*
X002363Y0034402*
X0023637*
X0023644Y0034401*
X0026056*
X0026063Y0034402*
X002607*
X0026077Y0034401*
G37*
G36*
X0017275Y0035303D02*
X0017299Y0035301D01*
X0017324Y0035298*
X0017348Y0035294*
X0017372Y0035288*
X0017396Y0035281*
X0017419Y0035273*
X0017442Y0035263*
X0017464Y0035253*
X0017486Y0035241*
X0017507Y0035228*
X0017527Y0035214*
X0017547Y0035199*
X0017566Y0035183*
X0017584Y0035166*
X0017601Y0035148*
X0017617Y0035129*
X0017632Y0035109*
X0017646Y0035089*
X0017659Y0035068*
X0017671Y0035046*
X0017681Y0035024*
X0017691Y0035001*
X0017699Y0034978*
X0017706Y0034954*
X0017712Y003493*
X0017716Y0034906*
X0017719Y0034881*
X0017721Y0034857*
X0017722Y0034832*
X0017721Y0034807*
X0017719Y0034783*
X0017716Y0034758*
X0017712Y0034734*
X0017706Y003471*
X0017699Y0034686*
X0017691Y0034663*
X0017681Y003464*
X0017671Y0034618*
X0017659Y0034596*
X0017646Y0034575*
X0017632Y0034555*
X0017617Y0034535*
X0017601Y0034516*
X0017584Y0034498*
X0017566Y0034481*
X0017547Y0034465*
X0017527Y003445*
X0017507Y0034436*
X0017486Y0034423*
X0017464Y0034411*
X0017442Y0034401*
X0017419Y0034391*
X0017396Y0034383*
X0017372Y0034376*
X0017348Y003437*
X0017324Y0034366*
X0017299Y0034363*
X0017275Y0034361*
X001725Y003436*
X0017229*
X0017204Y0034362*
X001718Y0034365*
X0017156Y0034369*
X0017132Y0034374*
X0017108Y003438*
X0017085Y0034388*
X0017063Y0034397*
X001704Y0034407*
X0017019Y0034419*
X0016998Y0034431*
X0016977Y0034444*
X0016957Y0034459*
X0016939Y0034475*
X0016921Y0034491*
X0016903Y0034508*
X0016887Y0034527*
X0016872Y0034546*
X0016858Y0034566*
X0016845Y0034586*
X0016833Y0034608*
X0016822Y003463*
X0016812Y0034652*
X0016803Y0034675*
X0016796Y0034698*
X001679Y0034722*
X0016785Y0034746*
X0016781Y003477*
X0016779Y0034794*
X0016778Y0034822*
X001725*
Y0034832*
X0016778*
X0016779Y0034857*
X0016781Y0034881*
X0016784Y0034906*
X0016788Y003493*
X0016794Y0034954*
X0016801Y0034978*
X0016809Y0035001*
X0016819Y0035024*
X0016829Y0035046*
X0016841Y0035068*
X0016854Y0035089*
X0016868Y0035109*
X0016883Y0035129*
X0016899Y0035148*
X0016916Y0035166*
X0016934Y0035183*
X0016953Y0035199*
X0016973Y0035214*
X0016993Y0035228*
X0017014Y0035241*
X0017036Y0035253*
X0017058Y0035263*
X0017081Y0035273*
X0017104Y0035281*
X0017128Y0035288*
X0017152Y0035294*
X0017176Y0035298*
X0017201Y0035301*
X0017225Y0035303*
X001725Y0035304*
X0017275Y0035303*
G37*
G36*
X0015575D02*
X0015599Y0035301D01*
X0015624Y0035298*
X0015648Y0035294*
X0015672Y0035288*
X0015696Y0035281*
X0015719Y0035273*
X0015742Y0035263*
X0015764Y0035253*
X0015786Y0035241*
X0015807Y0035228*
X0015827Y0035214*
X0015847Y0035199*
X0015866Y0035183*
X0015884Y0035166*
X0015901Y0035148*
X0015917Y0035129*
X0015932Y0035109*
X0015946Y0035089*
X0015959Y0035068*
X0015971Y0035046*
X0015981Y0035024*
X0015991Y0035001*
X0015999Y0034978*
X0016006Y0034954*
X0016012Y003493*
X0016016Y0034906*
X0016019Y0034881*
X0016021Y0034857*
X0016022Y0034832*
X0016021Y0034807*
X0016019Y0034783*
X0016016Y0034758*
X0016012Y0034734*
X0016006Y003471*
X0015999Y0034686*
X0015991Y0034663*
X0015981Y003464*
X0015971Y0034618*
X0015959Y0034596*
X0015946Y0034575*
X0015932Y0034555*
X0015917Y0034535*
X0015901Y0034516*
X0015884Y0034498*
X0015866Y0034481*
X0015847Y0034465*
X0015827Y003445*
X0015807Y0034436*
X0015786Y0034423*
X0015764Y0034411*
X0015742Y0034401*
X0015719Y0034391*
X0015696Y0034383*
X0015672Y0034376*
X0015648Y003437*
X0015624Y0034366*
X0015599Y0034363*
X0015575Y0034361*
X001555Y003436*
X0015529*
X0015504Y0034362*
X001548Y0034365*
X0015456Y0034369*
X0015432Y0034374*
X0015408Y003438*
X0015385Y0034388*
X0015363Y0034397*
X001534Y0034407*
X0015319Y0034419*
X0015298Y0034431*
X0015277Y0034444*
X0015257Y0034459*
X001524Y0034475*
X0015221Y0034491*
X0015203Y0034508*
X0015187Y0034527*
X0015172Y0034546*
X0015158Y0034566*
X0015145Y0034586*
X0015133Y0034608*
X0015122Y003463*
X0015113Y0034652*
X0015103Y0034675*
X0015096Y0034698*
X001509Y0034722*
X0015085Y0034746*
X0015081Y003477*
X0015079Y0034794*
X0015078Y0034822*
X001555*
Y0034832*
X0015078*
X0015079Y0034857*
X0015081Y0034881*
X0015084Y0034906*
X0015088Y003493*
X0015094Y0034954*
X0015101Y0034978*
X0015109Y0035001*
X0015119Y0035024*
X0015129Y0035046*
X0015141Y0035068*
X0015154Y0035089*
X0015168Y0035109*
X0015183Y0035129*
X0015199Y0035148*
X0015216Y0035166*
X0015234Y0035183*
X0015253Y0035199*
X0015273Y0035214*
X0015293Y0035228*
X0015314Y0035241*
X0015336Y0035253*
X0015358Y0035263*
X0015381Y0035273*
X0015404Y0035281*
X0015428Y0035288*
X0015452Y0035294*
X0015476Y0035298*
X0015501Y0035301*
X0015525Y0035303*
X001555Y0035304*
X0015575Y0035303*
G37*
G36*
X0026077Y0033301D02*
X0026091Y0033299D01*
X0026098Y0033298*
X0026105Y0033296*
X0026112Y0033293*
X0026118Y0033291*
X0026125Y0033288*
X0026131Y0033285*
X0026149Y0033274*
X0026154Y0033268*
X002616Y0033264*
X0026165Y0033259*
X0026169Y0033253*
X0026174Y0033248*
X0026178Y0033242*
X0026182Y0033236*
X0026185Y003323*
X0026188Y0033224*
X0026194Y003321*
X0026196Y0033204*
X0026197Y0033197*
X0026199Y003319*
X00262Y0033182*
Y0032782*
X0026199Y0032774*
X0026197Y0032767*
X0026196Y003276*
X0026194Y0032754*
X0026191Y0032747*
X0026188Y003274*
X0026185Y0032734*
X0026182Y0032728*
X0026178Y0032722*
X0026174Y0032716*
X0026169Y0032711*
X0026165Y0032705*
X002616Y00327*
X0026154Y0032696*
X0026149Y0032691*
X0026143Y0032687*
X0026137Y0032683*
X0026131Y0032679*
X0026125Y0032676*
X0026118Y0032673*
X0026112Y0032671*
X0026105Y0032668*
X0026098Y0032666*
X0026084Y0032664*
X0026077Y0032663*
X002607Y0032662*
X0026063*
X0026056Y0032663*
X0023644*
X0023637Y0032662*
X002363*
X0023623Y0032663*
X0023616Y0032664*
X0023602Y0032666*
X0023595Y0032668*
X0023588Y0032671*
X0023582Y0032673*
X0023575Y0032676*
X0023569Y0032679*
X0023563Y0032683*
X0023557Y0032687*
X0023551Y0032691*
X0023546Y0032696*
X002354Y00327*
X0023535Y0032705*
X0023531Y0032711*
X0023526Y0032716*
X0023522Y0032722*
X0023518Y0032728*
X0023515Y0032734*
X0023512Y003274*
X0023509Y0032747*
X0023506Y0032754*
X0023504Y003276*
X0023503Y0032767*
X0023501Y0032774*
X00235Y0032782*
Y0033182*
X0023501Y003319*
X0023503Y0033197*
X0023504Y0033204*
X0023506Y003321*
X0023512Y0033224*
X0023515Y003323*
X0023518Y0033236*
X0023522Y0033242*
X0023526Y0033248*
X0023531Y0033253*
X0023535Y0033259*
X002354Y0033264*
X0023546Y0033268*
X0023551Y0033274*
X0023569Y0033285*
X0023575Y0033288*
X0023582Y0033291*
X0023588Y0033293*
X0023595Y0033296*
X0023602Y0033298*
X0023609Y0033299*
X0023623Y0033301*
X002363Y0033302*
X0023637*
X0023644Y0033301*
X0026056*
X0026063Y0033302*
X002607*
X0026077Y0033301*
G37*
G36*
X0020675Y0033603D02*
X0020699Y0033601D01*
X0020724Y0033598*
X0020748Y0033594*
X0020772Y0033588*
X0020796Y0033581*
X0020819Y0033573*
X0020842Y0033563*
X0020864Y0033553*
X0020886Y0033541*
X0020907Y0033528*
X0020927Y0033514*
X0020947Y0033499*
X0020966Y0033483*
X0020984Y0033466*
X0021001Y0033448*
X0021017Y0033429*
X0021032Y0033409*
X0021046Y0033389*
X0021059Y0033368*
X0021071Y0033346*
X0021082Y0033324*
X0021091Y0033301*
X0021099Y0033278*
X0021106Y0033254*
X0021112Y003323*
X0021116Y0033206*
X0021119Y0033181*
X0021121Y0033157*
X0021122Y0033132*
X0021121Y0033107*
X0021119Y0033083*
X0021116Y0033058*
X0021112Y0033034*
X0021106Y003301*
X0021099Y0032986*
X0021091Y0032963*
X0021082Y003294*
X0021071Y0032918*
X0021059Y0032896*
X0021046Y0032875*
X0021032Y0032855*
X0021017Y0032835*
X0021001Y0032816*
X0020984Y0032798*
X0020966Y0032781*
X0020947Y0032766*
X0020927Y003275*
X0020907Y0032736*
X0020886Y0032723*
X0020864Y0032711*
X0020842Y0032701*
X0020819Y0032691*
X0020796Y0032683*
X0020772Y0032676*
X0020748Y003267*
X0020724Y0032666*
X0020699Y0032663*
X0020675Y0032661*
X002065Y003266*
X0020629*
X0020604Y0032662*
X002058Y0032665*
X0020556Y0032669*
X0020532Y0032674*
X0020508Y003268*
X0020485Y0032688*
X0020463Y0032697*
X002044Y0032707*
X0020419Y0032719*
X0020398Y0032731*
X0020377Y0032744*
X0020357Y0032759*
X0020339Y0032775*
X0020321Y0032791*
X0020303Y0032808*
X0020287Y0032827*
X0020272Y0032846*
X0020258Y0032866*
X0020245Y0032886*
X0020233Y0032908*
X0020222Y003293*
X0020212Y0032952*
X0020203Y0032975*
X0020196Y0032998*
X002019Y0033022*
X0020185Y0033046*
X0020181Y003307*
X0020179Y0033094*
X0020178Y0033122*
X002065*
Y0033132*
X0020178*
X0020179Y0033157*
X0020181Y0033181*
X0020184Y0033206*
X0020188Y003323*
X0020194Y0033254*
X0020201Y0033278*
X0020209Y0033301*
X0020219Y0033324*
X0020229Y0033346*
X0020241Y0033368*
X0020254Y0033389*
X0020268Y0033409*
X0020283Y0033429*
X0020299Y0033448*
X0020316Y0033466*
X0020334Y0033483*
X0020353Y0033499*
X0020373Y0033514*
X0020393Y0033528*
X0020414Y0033541*
X0020436Y0033553*
X0020458Y0033563*
X0020481Y0033573*
X0020504Y0033581*
X0020528Y0033588*
X0020552Y0033594*
X0020576Y0033598*
X0020601Y0033601*
X0020625Y0033603*
X002065Y0033604*
X0020675Y0033603*
G37*
G36*
X0018975D02*
X0018999Y0033601D01*
X0019024Y0033598*
X0019048Y0033594*
X0019072Y0033588*
X0019096Y0033581*
X0019119Y0033573*
X0019142Y0033563*
X0019164Y0033553*
X0019186Y0033541*
X0019207Y0033528*
X0019227Y0033514*
X0019247Y0033499*
X0019266Y0033483*
X0019284Y0033466*
X0019301Y0033448*
X0019317Y0033429*
X0019332Y0033409*
X0019346Y0033389*
X0019359Y0033368*
X0019371Y0033346*
X0019381Y0033324*
X0019391Y0033301*
X0019399Y0033278*
X0019406Y0033254*
X0019412Y003323*
X0019416Y0033206*
X0019419Y0033181*
X0019421Y0033157*
X0019422Y0033132*
X0019421Y0033107*
X0019419Y0033083*
X0019416Y0033058*
X0019412Y0033034*
X0019406Y003301*
X0019399Y0032986*
X0019391Y0032963*
X0019381Y003294*
X0019371Y0032918*
X0019359Y0032896*
X0019346Y0032875*
X0019332Y0032855*
X0019317Y0032835*
X0019301Y0032816*
X0019284Y0032798*
X0019266Y0032781*
X0019247Y0032766*
X0019227Y003275*
X0019207Y0032736*
X0019186Y0032723*
X0019164Y0032711*
X0019142Y0032701*
X0019119Y0032691*
X0019096Y0032683*
X0019072Y0032676*
X0019048Y003267*
X0019024Y0032666*
X0018999Y0032663*
X0018975Y0032661*
X001895Y003266*
X0018929*
X0018904Y0032662*
X001888Y0032665*
X0018856Y0032669*
X0018832Y0032674*
X0018808Y003268*
X0018785Y0032688*
X0018763Y0032697*
X001874Y0032707*
X0018719Y0032719*
X0018698Y0032731*
X0018677Y0032744*
X0018657Y0032759*
X0018639Y0032775*
X0018621Y0032791*
X0018603Y0032808*
X0018587Y0032827*
X0018572Y0032846*
X0018558Y0032866*
X0018545Y0032886*
X0018533Y0032908*
X0018522Y003293*
X0018512Y0032952*
X0018503Y0032975*
X0018496Y0032998*
X001849Y0033022*
X0018485Y0033046*
X0018481Y003307*
X0018479Y0033094*
X0018478Y0033122*
X001895*
Y0033132*
X0018478*
X0018479Y0033157*
X0018481Y0033181*
X0018484Y0033206*
X0018488Y003323*
X0018494Y0033254*
X0018501Y0033278*
X0018509Y0033301*
X0018519Y0033324*
X0018529Y0033346*
X0018542Y0033368*
X0018554Y0033389*
X0018568Y0033409*
X0018583Y0033429*
X0018599Y0033448*
X0018616Y0033466*
X0018634Y0033483*
X0018653Y0033499*
X0018673Y0033514*
X0018693Y0033528*
X0018714Y0033541*
X0018736Y0033553*
X0018758Y0033563*
X0018781Y0033573*
X0018804Y0033581*
X0018828Y0033588*
X0018852Y0033594*
X0018876Y0033598*
X0018901Y0033601*
X0018925Y0033603*
X001895Y0033604*
X0018975Y0033603*
G37*
G36*
X0026084Y00322D02*
X0026091Y0032199D01*
X0026098Y0032198*
X0026105Y0032196*
X0026112Y0032193*
X0026118Y0032191*
X0026125Y0032188*
X0026131Y0032185*
X0026149Y0032173*
X0026154Y0032168*
X002616Y0032164*
X0026165Y0032159*
X0026169Y0032153*
X0026174Y0032148*
X0026178Y0032142*
X0026182Y0032136*
X0026185Y0032131*
X0026188Y0032124*
X0026194Y003211*
X0026196Y0032104*
X0026197Y0032097*
X0026199Y003209*
X00262Y0032082*
Y0031682*
X0026199Y0031674*
X0026197Y0031667*
X0026196Y003166*
X0026194Y0031654*
X0026188Y003164*
X0026185Y0031634*
X0026182Y0031628*
X0026178Y0031623*
X0026174Y0031616*
X0026169Y0031611*
X0026165Y0031605*
X002616Y00316*
X0026154Y0031596*
X0026149Y0031591*
X0026143Y0031587*
X0026131Y0031579*
X0026125Y0031576*
X0026118Y0031573*
X0026112Y0031571*
X0026105Y0031568*
X0026098Y0031566*
X0026091Y0031565*
X0026084Y0031564*
X002607Y0031562*
X0026063*
X0026056Y0031563*
X0023644*
X0023637Y0031562*
X002363*
X0023616Y0031564*
X0023609Y0031565*
X0023602Y0031566*
X0023595Y0031568*
X0023588Y0031571*
X0023582Y0031573*
X0023575Y0031576*
X0023569Y0031579*
X0023557Y0031587*
X0023551Y0031591*
X0023546Y0031596*
X002354Y00316*
X0023535Y0031605*
X0023531Y0031611*
X0023526Y0031616*
X0023522Y0031623*
X0023518Y0031628*
X0023515Y0031634*
X0023512Y003164*
X0023506Y0031654*
X0023504Y003166*
X0023503Y0031667*
X0023501Y0031674*
X00235Y0031682*
Y0032082*
X0023501Y003209*
X0023503Y0032097*
X0023504Y0032104*
X0023506Y003211*
X0023512Y0032124*
X0023515Y0032131*
X0023518Y0032136*
X0023522Y0032142*
X0023526Y0032148*
X0023531Y0032153*
X0023535Y0032159*
X002354Y0032164*
X0023546Y0032168*
X0023551Y0032173*
X0023569Y0032185*
X0023575Y0032188*
X0023582Y0032191*
X0023588Y0032193*
X0023595Y0032196*
X0023602Y0032198*
X0023609Y0032199*
X0023616Y00322*
X002363Y0032202*
X0023637*
X0023644Y0032201*
X0026056*
X0026063Y0032202*
X002607*
X0026084Y00322*
G37*
G36*
Y00311D02*
X0026091Y0031099D01*
X0026098Y0031098*
X0026105Y0031096*
X0026112Y0031093*
X0026118Y0031091*
X0026125Y0031088*
X0026131Y0031085*
X0026149Y0031073*
X0026154Y0031068*
X002616Y0031064*
X0026165Y0031059*
X0026169Y0031053*
X0026174Y0031048*
X0026178Y0031042*
X0026182Y0031036*
X0026185Y003103*
X0026188Y0031024*
X0026194Y003101*
X0026196Y0031004*
X0026197Y0030997*
X0026199Y003099*
X00262Y0030982*
Y0030582*
X0026199Y0030574*
X0026197Y0030567*
X0026196Y003056*
X0026194Y0030554*
X0026188Y003054*
X0026185Y0030534*
X0026182Y0030528*
X0026178Y0030522*
X0026174Y0030516*
X0026169Y0030511*
X0026165Y0030505*
X002616Y00305*
X0026154Y0030496*
X0026149Y0030491*
X0026131Y003048*
X0026125Y0030476*
X0026118Y0030473*
X0026112Y0030471*
X0026105Y0030468*
X0026098Y0030466*
X0026091Y0030465*
X0026084Y0030464*
X002607Y0030462*
X0026063*
X0026056Y0030463*
X0023644*
X0023637Y0030462*
X002363*
X0023616Y0030464*
X0023609Y0030465*
X0023602Y0030466*
X0023595Y0030468*
X0023588Y0030471*
X0023582Y0030473*
X0023575Y0030476*
X0023569Y003048*
X0023551Y0030491*
X0023546Y0030496*
X002354Y00305*
X0023535Y0030505*
X0023531Y0030511*
X0023526Y0030516*
X0023522Y0030522*
X0023518Y0030528*
X0023515Y0030534*
X0023512Y003054*
X0023506Y0030554*
X0023504Y003056*
X0023503Y0030567*
X0023501Y0030574*
X00235Y0030582*
Y0030982*
X0023501Y003099*
X0023503Y0030997*
X0023504Y0031004*
X0023506Y003101*
X0023512Y0031024*
X0023515Y003103*
X0023518Y0031036*
X0023522Y0031042*
X0023526Y0031048*
X0023531Y0031053*
X0023535Y0031059*
X002354Y0031064*
X0023546Y0031068*
X0023551Y0031073*
X0023569Y0031085*
X0023575Y0031088*
X0023582Y0031091*
X0023588Y0031093*
X0023595Y0031096*
X0023602Y0031098*
X0023609Y0031099*
X0023616Y00311*
X002363Y0031102*
X0023637*
X0023644Y0031101*
X0026056*
X0026063Y0031102*
X002607*
X0026084Y00311*
G37*
G36*
X0020675Y0031903D02*
X0020699Y0031901D01*
X0020724Y0031898*
X0020748Y0031894*
X0020772Y0031888*
X0020796Y0031881*
X0020819Y0031873*
X0020842Y0031863*
X0020864Y0031853*
X0020886Y0031841*
X0020907Y0031828*
X0020927Y0031814*
X0020947Y0031799*
X0020966Y0031783*
X0020984Y0031766*
X0021001Y0031748*
X0021017Y0031729*
X0021032Y0031709*
X0021046Y0031689*
X0021059Y0031668*
X0021071Y0031646*
X0021082Y0031624*
X0021091Y0031601*
X0021099Y0031578*
X0021106Y0031554*
X0021112Y003153*
X0021116Y0031506*
X0021119Y0031481*
X0021121Y0031457*
X0021122Y0031432*
X0021121Y0031407*
X0021119Y0031383*
X0021116Y0031358*
X0021112Y0031334*
X0021106Y003131*
X0021099Y0031286*
X0021091Y0031263*
X0021082Y003124*
X0021071Y0031218*
X0021059Y0031196*
X0021046Y0031175*
X0021032Y0031155*
X0021017Y0031135*
X0021001Y0031116*
X0020984Y0031098*
X0020966Y0031081*
X0020947Y0031065*
X0020927Y003105*
X0020907Y0031036*
X0020886Y0031023*
X0020864Y0031011*
X0020842Y0031001*
X0020819Y0030991*
X0020796Y0030983*
X0020772Y0030976*
X0020748Y003097*
X0020724Y0030966*
X0020699Y0030963*
X0020675Y0030961*
X002065Y003096*
X0020629*
X0020604Y0030962*
X002058Y0030965*
X0020556Y0030969*
X0020532Y0030974*
X0020508Y003098*
X0020485Y0030988*
X0020463Y0030997*
X002044Y0031007*
X0020419Y0031019*
X0020398Y0031031*
X0020377Y0031044*
X0020357Y0031059*
X0020339Y0031075*
X0020321Y0031091*
X0020303Y0031108*
X0020287Y0031127*
X0020272Y0031146*
X0020258Y0031166*
X0020245Y0031186*
X0020233Y0031208*
X0020222Y003123*
X0020212Y0031252*
X0020203Y0031275*
X0020196Y0031298*
X002019Y0031322*
X0020185Y0031346*
X0020181Y003137*
X0020179Y0031394*
X0020178Y0031422*
X002065*
Y0031432*
X0020178*
X0020179Y0031457*
X0020181Y0031481*
X0020184Y0031506*
X0020188Y003153*
X0020194Y0031554*
X0020201Y0031578*
X0020209Y0031601*
X0020219Y0031624*
X0020229Y0031646*
X0020241Y0031668*
X0020254Y0031689*
X0020268Y0031709*
X0020283Y0031729*
X0020299Y0031748*
X0020316Y0031766*
X0020334Y0031783*
X0020353Y0031799*
X0020373Y0031814*
X0020393Y0031828*
X0020414Y0031841*
X0020436Y0031853*
X0020458Y0031863*
X0020481Y0031873*
X0020504Y0031881*
X0020528Y0031888*
X0020552Y0031894*
X0020576Y0031898*
X0020601Y0031901*
X0020625Y0031903*
X002065Y0031904*
X0020675Y0031903*
G37*
G36*
X0018975D02*
X0018999Y0031901D01*
X0019024Y0031898*
X0019048Y0031894*
X0019072Y0031888*
X0019096Y0031881*
X0019119Y0031873*
X0019142Y0031863*
X0019164Y0031853*
X0019186Y0031841*
X0019207Y0031828*
X0019227Y0031814*
X0019247Y0031799*
X0019266Y0031783*
X0019284Y0031766*
X0019301Y0031748*
X0019317Y0031729*
X0019332Y0031709*
X0019346Y0031689*
X0019359Y0031668*
X0019371Y0031646*
X0019381Y0031624*
X0019391Y0031601*
X0019399Y0031578*
X0019406Y0031554*
X0019412Y003153*
X0019416Y0031506*
X0019419Y0031481*
X0019421Y0031457*
X0019422Y0031432*
X0019421Y0031407*
X0019419Y0031383*
X0019416Y0031358*
X0019412Y0031334*
X0019406Y003131*
X0019399Y0031286*
X0019391Y0031263*
X0019381Y003124*
X0019371Y0031218*
X0019359Y0031196*
X0019346Y0031175*
X0019332Y0031155*
X0019317Y0031135*
X0019301Y0031116*
X0019284Y0031098*
X0019266Y0031081*
X0019247Y0031065*
X0019227Y003105*
X0019207Y0031036*
X0019186Y0031023*
X0019164Y0031011*
X0019142Y0031001*
X0019119Y0030991*
X0019096Y0030983*
X0019072Y0030976*
X0019048Y003097*
X0019024Y0030966*
X0018999Y0030963*
X0018975Y0030961*
X001895Y003096*
X0018929*
X0018904Y0030962*
X001888Y0030965*
X0018856Y0030969*
X0018832Y0030974*
X0018808Y003098*
X0018785Y0030988*
X0018763Y0030997*
X001874Y0031007*
X0018719Y0031019*
X0018698Y0031031*
X0018677Y0031044*
X0018657Y0031059*
X0018639Y0031075*
X0018621Y0031091*
X0018603Y0031108*
X0018587Y0031127*
X0018572Y0031146*
X0018558Y0031166*
X0018545Y0031186*
X0018533Y0031208*
X0018522Y003123*
X0018512Y0031252*
X0018503Y0031275*
X0018496Y0031298*
X001849Y0031322*
X0018485Y0031346*
X0018481Y003137*
X0018479Y0031394*
X0018478Y0031422*
X001895*
Y0031432*
X0018478*
X0018479Y0031457*
X0018481Y0031481*
X0018484Y0031506*
X0018488Y003153*
X0018494Y0031554*
X0018501Y0031578*
X0018509Y0031601*
X0018519Y0031624*
X0018529Y0031646*
X0018542Y0031668*
X0018554Y0031689*
X0018568Y0031709*
X0018583Y0031729*
X0018599Y0031748*
X0018616Y0031766*
X0018634Y0031783*
X0018653Y0031799*
X0018673Y0031814*
X0018693Y0031828*
X0018714Y0031841*
X0018736Y0031853*
X0018758Y0031863*
X0018781Y0031873*
X0018804Y0031881*
X0018828Y0031888*
X0018852Y0031894*
X0018876Y0031898*
X0018901Y0031901*
X0018925Y0031903*
X001895Y0031904*
X0018975Y0031903*
G37*
G36*
X0026077Y0029401D02*
X0026091Y0029399D01*
X0026098Y0029398*
X0026105Y0029396*
X0026112Y0029393*
X0026118Y0029391*
X0026125Y0029388*
X0026131Y0029385*
X0026137Y0029381*
X0026149Y0029373*
X0026154Y0029368*
X002616Y0029364*
X0026165Y0029359*
X0026169Y0029353*
X0026174Y0029348*
X0026178Y0029342*
X0026182Y0029337*
X0026185Y002933*
X0026188Y0029324*
X0026194Y002931*
X0026196Y0029304*
X0026197Y0029297*
X0026199Y002929*
X00262Y0029282*
Y0028882*
X0026199Y0028874*
X0026197Y0028867*
X0026196Y002886*
X0026194Y0028854*
X0026191Y0028847*
X0026188Y002884*
X0026185Y0028834*
X0026182Y0028829*
X0026178Y0028822*
X0026174Y0028816*
X0026169Y0028811*
X0026165Y0028805*
X002616Y00288*
X0026154Y0028796*
X0026149Y0028791*
X0026143Y0028787*
X0026137Y0028783*
X0026131Y0028779*
X0026125Y0028776*
X0026118Y0028773*
X0026112Y0028771*
X0026105Y0028768*
X0026098Y0028766*
X0026084Y0028764*
X0026077Y0028763*
X002607Y0028762*
X0026063*
X0026056Y0028763*
X0023644*
X0023637Y0028762*
X002363*
X0023623Y0028763*
X0023616Y0028764*
X0023602Y0028766*
X0023595Y0028768*
X0023588Y0028771*
X0023582Y0028773*
X0023575Y0028776*
X0023569Y0028779*
X0023563Y0028783*
X0023557Y0028787*
X0023551Y0028791*
X0023546Y0028796*
X002354Y00288*
X0023535Y0028805*
X0023531Y0028811*
X0023526Y0028816*
X0023522Y0028822*
X0023518Y0028829*
X0023515Y0028834*
X0023512Y002884*
X0023509Y0028847*
X0023506Y0028854*
X0023504Y002886*
X0023503Y0028867*
X0023501Y0028874*
X00235Y0028882*
Y0029282*
X0023501Y002929*
X0023503Y0029297*
X0023504Y0029304*
X0023506Y002931*
X0023512Y0029324*
X0023515Y002933*
X0023518Y0029337*
X0023522Y0029342*
X0023526Y0029348*
X0023531Y0029353*
X0023535Y0029359*
X002354Y0029364*
X0023546Y0029368*
X0023551Y0029373*
X0023563Y0029381*
X0023569Y0029385*
X0023575Y0029388*
X0023582Y0029391*
X0023588Y0029393*
X0023595Y0029396*
X0023602Y0029398*
X0023609Y0029399*
X0023623Y0029401*
X002363Y0029402*
X0023637*
X0023644Y0029401*
X0026056*
X0026063Y0029402*
X002607*
X0026077Y0029401*
G37*
G36*
X0020675Y0030203D02*
X0020699Y0030201D01*
X0020724Y0030198*
X0020748Y0030194*
X0020772Y0030188*
X0020796Y0030181*
X0020819Y0030173*
X0020842Y0030163*
X0020864Y0030153*
X0020886Y0030141*
X0020907Y0030128*
X0020927Y0030114*
X0020947Y0030099*
X0020966Y0030083*
X0020984Y0030066*
X0021001Y0030048*
X0021017Y0030029*
X0021032Y0030009*
X0021046Y0029989*
X0021059Y0029968*
X0021071Y0029946*
X0021082Y0029924*
X0021091Y0029901*
X0021099Y0029878*
X0021106Y0029854*
X0021112Y002983*
X0021116Y0029806*
X0021119Y0029781*
X0021121Y0029757*
X0021122Y0029732*
X0021121Y0029707*
X0021119Y0029683*
X0021116Y0029658*
X0021112Y0029634*
X0021106Y002961*
X0021099Y0029586*
X0021091Y0029563*
X0021082Y002954*
X0021071Y0029518*
X0021059Y0029496*
X0021046Y0029475*
X0021032Y0029455*
X0021017Y0029435*
X0021001Y0029416*
X0020984Y0029398*
X0020966Y0029381*
X0020947Y0029365*
X0020927Y002935*
X0020907Y0029337*
X0020886Y0029323*
X0020864Y0029311*
X0020842Y0029301*
X0020819Y0029291*
X0020796Y0029283*
X0020772Y0029276*
X0020748Y002927*
X0020724Y0029266*
X0020699Y0029263*
X0020675Y0029261*
X002065Y002926*
X0020629*
X0020604Y0029262*
X002058Y0029265*
X0020556Y0029269*
X0020532Y0029274*
X0020508Y002928*
X0020485Y0029288*
X0020463Y0029297*
X002044Y0029307*
X0020419Y0029319*
X0020398Y0029331*
X0020377Y0029344*
X0020357Y0029359*
X0020339Y0029375*
X0020321Y0029391*
X0020303Y0029408*
X0020287Y0029427*
X0020272Y0029446*
X0020258Y0029466*
X0020245Y0029486*
X0020233Y0029508*
X0020222Y002953*
X0020212Y0029552*
X0020203Y0029575*
X0020196Y0029598*
X002019Y0029622*
X0020185Y0029646*
X0020181Y002967*
X0020179Y0029694*
X0020178Y0029722*
X002065*
Y0029732*
X0020178*
X0020179Y0029757*
X0020181Y0029781*
X0020184Y0029806*
X0020188Y002983*
X0020194Y0029854*
X0020201Y0029878*
X0020209Y0029901*
X0020219Y0029924*
X0020229Y0029946*
X0020241Y0029968*
X0020254Y0029989*
X0020268Y0030009*
X0020283Y0030029*
X0020299Y0030048*
X0020316Y0030066*
X0020334Y0030083*
X0020353Y0030099*
X0020373Y0030114*
X0020393Y0030128*
X0020414Y0030141*
X0020436Y0030153*
X0020458Y0030163*
X0020481Y0030173*
X0020504Y0030181*
X0020528Y0030188*
X0020552Y0030194*
X0020576Y0030198*
X0020601Y0030201*
X0020625Y0030203*
X002065Y0030204*
X0020675Y0030203*
G37*
G36*
X0018975D02*
X0018999Y0030201D01*
X0019024Y0030198*
X0019048Y0030194*
X0019072Y0030188*
X0019096Y0030181*
X0019119Y0030173*
X0019142Y0030163*
X0019164Y0030153*
X0019186Y0030141*
X0019207Y0030128*
X0019227Y0030114*
X0019247Y0030099*
X0019266Y0030083*
X0019284Y0030066*
X0019301Y0030048*
X0019317Y0030029*
X0019332Y0030009*
X0019346Y0029989*
X0019359Y0029968*
X0019371Y0029946*
X0019381Y0029924*
X0019391Y0029901*
X0019399Y0029878*
X0019406Y0029854*
X0019412Y002983*
X0019416Y0029806*
X0019419Y0029781*
X0019421Y0029757*
X0019422Y0029732*
X0019421Y0029707*
X0019419Y0029683*
X0019416Y0029658*
X0019412Y0029634*
X0019406Y002961*
X0019399Y0029586*
X0019391Y0029563*
X0019381Y002954*
X0019371Y0029518*
X0019359Y0029496*
X0019346Y0029475*
X0019332Y0029455*
X0019317Y0029435*
X0019301Y0029416*
X0019284Y0029398*
X0019266Y0029381*
X0019247Y0029365*
X0019227Y002935*
X0019207Y0029337*
X0019186Y0029323*
X0019164Y0029311*
X0019142Y0029301*
X0019119Y0029291*
X0019096Y0029283*
X0019072Y0029276*
X0019048Y002927*
X0019024Y0029266*
X0018999Y0029263*
X0018975Y0029261*
X001895Y002926*
X0018929*
X0018904Y0029262*
X001888Y0029265*
X0018856Y0029269*
X0018832Y0029274*
X0018808Y002928*
X0018785Y0029288*
X0018763Y0029297*
X001874Y0029307*
X0018719Y0029319*
X0018698Y0029331*
X0018677Y0029344*
X0018657Y0029359*
X0018639Y0029375*
X0018621Y0029391*
X0018603Y0029408*
X0018587Y0029427*
X0018572Y0029446*
X0018558Y0029466*
X0018545Y0029486*
X0018533Y0029508*
X0018522Y002953*
X0018512Y0029552*
X0018503Y0029575*
X0018496Y0029598*
X001849Y0029622*
X0018485Y0029646*
X0018481Y002967*
X0018479Y0029694*
X0018478Y0029722*
X001895*
Y0029732*
X0018478*
X0018479Y0029757*
X0018481Y0029781*
X0018484Y0029806*
X0018488Y002983*
X0018494Y0029854*
X0018501Y0029878*
X0018509Y0029901*
X0018519Y0029924*
X0018529Y0029946*
X0018542Y0029968*
X0018554Y0029989*
X0018568Y0030009*
X0018583Y0030029*
X0018599Y0030048*
X0018616Y0030066*
X0018634Y0030083*
X0018653Y0030099*
X0018673Y0030114*
X0018693Y0030128*
X0018714Y0030141*
X0018736Y0030153*
X0018758Y0030163*
X0018781Y0030173*
X0018804Y0030181*
X0018828Y0030188*
X0018852Y0030194*
X0018876Y0030198*
X0018901Y0030201*
X0018925Y0030203*
X001895Y0030204*
X0018975Y0030203*
G37*
G54D18*
X0030824Y0024299D03*
X0032424D03*
X00658Y0048317D03*
X00642D03*
X0094685Y0061186D03*
X0093085D03*
X0030774Y0009374D03*
X0032374D03*
X0062799Y0011999D03*
X0061199D03*
X0086099Y0057299D03*
X0084499D03*
Y0059599D03*
X0086099D03*
X0100099Y0042099D03*
X0101699D03*
X0062693Y0048325D03*
X0061093D03*
X0054833Y0048393D03*
X0056434D03*
X0057947Y0048358D03*
X0059547D03*
G54D19*
X0045638Y0051154D03*
Y0049884D03*
Y0048614D03*
Y0047344D03*
X005106D03*
Y0048614D03*
Y0049884D03*
Y0051154D03*
G54D20*
X0064211Y0049584D03*
X0065911D03*
X0062842D03*
X0061142D03*
X0057935D03*
X0059635D03*
X0100149Y0043699D03*
X0101849D03*
X0056715Y0049584D03*
X0055015D03*
G54D21*
X0086749Y0012649D03*
X0086499Y0020199D03*
X0086249Y0012649D03*
X0085999Y0020199D03*
X0085749Y0012649D03*
X0085499Y0020199D03*
X0085249Y0012649D03*
X0084999Y0020199D03*
X0084749Y0012649D03*
X0084499Y0020199D03*
X0084249Y0012649D03*
X0081999Y0020199D03*
X0081749Y0012649D03*
X0081499Y0020199D03*
X0081249Y0012649D03*
X0080999Y0020199D03*
X0080749Y0012649D03*
X0080499Y0020199D03*
X0080249Y0012649D03*
X0079999Y0020199D03*
X0079749Y0012649D03*
X0079499Y0020199D03*
X0079249Y0012649D03*
X0078999Y0020199D03*
X0078749Y0012649D03*
X0078499Y0020199D03*
X0078249Y0012649D03*
X0077999Y0020199D03*
X0077749Y0012649D03*
X0077499Y0020199D03*
X0077249Y0012649D03*
X0076999Y0020199D03*
X0076749Y0012649D03*
X0076499Y0020199D03*
X0076249Y0012649D03*
X0075999Y0020199D03*
X0075749Y0012649D03*
X0075499Y0020199D03*
X0075249Y0012649D03*
X0074999Y0020199D03*
X0074749Y0012649D03*
X0074499Y0020199D03*
X0074249Y0012649D03*
X0073999Y0020199D03*
X0073749Y0012649D03*
X0073499Y0020199D03*
X0073249Y0012649D03*
X0072999Y0020199D03*
X0072749Y0012649D03*
X0072499Y0020199D03*
X0072249Y0012649D03*
X0071999Y0020199D03*
X0071749Y0012649D03*
X0071499Y0020199D03*
X0071249Y0012649D03*
X0070999Y0020199D03*
X0070749Y0012649D03*
X0070499Y0020199D03*
X0070249Y0012649D03*
X0069999Y0020199D03*
X0069749Y0012649D03*
X0069499Y0020199D03*
X0069249Y0012649D03*
X0068999Y0020199D03*
X0068749Y0012649D03*
X0068499Y0020199D03*
X0068249Y0012649D03*
G54D22*
X0087849Y0013424D03*
X0067149D03*
G54D23*
X0038411Y0022199D03*
Y0022699D03*
Y0023199D03*
Y0023699D03*
Y0024199D03*
Y0024699D03*
Y0025199D03*
Y0025699D03*
Y0026199D03*
Y0026699D03*
Y0027199D03*
Y0027699D03*
Y0028199D03*
Y0028699D03*
Y0029199D03*
Y0029699D03*
Y0030199D03*
Y0030699D03*
Y0031199D03*
Y0031699D03*
Y0032199D03*
Y0032699D03*
Y0033199D03*
Y0033699D03*
Y0034199D03*
Y0034699D03*
Y0035199D03*
Y0035699D03*
Y0036199D03*
Y0036699D03*
Y0037199D03*
Y0037699D03*
Y0038199D03*
Y0038699D03*
Y0039199D03*
Y0039699D03*
X0059887D03*
Y0039199D03*
Y0038699D03*
Y0038199D03*
Y0037699D03*
Y0037199D03*
Y0036699D03*
Y0036199D03*
Y0035699D03*
Y0035199D03*
Y0034699D03*
Y0034199D03*
Y0033699D03*
Y0033199D03*
Y0032699D03*
Y0032199D03*
Y0031699D03*
Y0031199D03*
Y0030699D03*
Y0030199D03*
Y0029699D03*
Y0029199D03*
Y0028699D03*
Y0028199D03*
Y0027699D03*
Y0027199D03*
Y0026699D03*
Y0026199D03*
Y0025699D03*
Y0025199D03*
Y0024699D03*
Y0024199D03*
Y0023699D03*
Y0023199D03*
Y0022699D03*
Y0022199D03*
G54D24*
X0040399Y0041687D03*
X0040899D03*
X0041399D03*
X0041899D03*
X0042399D03*
X0042899D03*
X0043399D03*
X0043899D03*
X0044399D03*
X0044899D03*
X0045399D03*
X0045899D03*
X0046399D03*
X0046899D03*
X0047399D03*
X0047899D03*
X0048399D03*
X0048899D03*
X0049399D03*
X0049899D03*
X0050399D03*
X0050899D03*
X0051399D03*
X0051899D03*
X0052399D03*
X0052899D03*
X0053399D03*
X0053899D03*
X0054399D03*
X0054899D03*
X0055399D03*
X0055899D03*
X0056399D03*
X0056899D03*
X0057399D03*
X0057899D03*
Y0020211D03*
X0057399D03*
X0056899D03*
X0056399D03*
X0055899D03*
X0055399D03*
X0054899D03*
X0054399D03*
X0053899D03*
X0053399D03*
X0052899D03*
X0052399D03*
X0051899D03*
X0051399D03*
X0050899D03*
X0050399D03*
X0049899D03*
X0049399D03*
X0048899D03*
X0048399D03*
X0047899D03*
X0047399D03*
X0046899D03*
X0046399D03*
X0045899D03*
X0045399D03*
X0044899D03*
X0044399D03*
X0043899D03*
X0043399D03*
X0042899D03*
X0042399D03*
X0041899D03*
X0041399D03*
X0040899D03*
X0040399D03*
G54D25*
X0053614Y0061628D03*
X0054614D03*
X0055614D03*
X0056614D03*
Y0062628D03*
X0055614D03*
X0054614D03*
X0053614D03*
Y0063628D03*
X0054614D03*
X0055614D03*
X0056614D03*
Y0064628D03*
X0055614D03*
X0054614D03*
X0053614D03*
X0056614Y0065628D03*
X0055614D03*
X0054614D03*
X0053614D03*
X0090623Y0039824D03*
Y0038772D03*
Y0037654D03*
Y0036537D03*
Y0035343D03*
X0092159Y0012629D03*
Y0013799D03*
Y0014979D03*
Y0017319D03*
Y0016139D03*
X0097699Y0039799D03*
X0094969Y0028899D03*
X0095949D03*
X0096939D03*
X0094669Y0030139D03*
X0093679D03*
X0092855Y0030137D03*
X0091999Y0031399D03*
X0092999D03*
X0093799D03*
X0094599D03*
X0091999Y0032699D03*
X0092999D03*
X0093899D03*
X0094799D03*
X0094299Y0039799D03*
X0095499D03*
X0096599D03*
G54D26*
X0077279Y0007789D03*
X0076099D03*
X007493D03*
G54D27*
X0032914Y002745D03*
X0031844Y00275D03*
X0032354Y002768D03*
X0029409Y0027469D03*
X0029799Y0028059D03*
X0029459Y0030361D03*
X0029006Y0029984D03*
X0003472Y0053305D03*
X0003982Y0053765D03*
X0004512Y0054185D03*
X0005032Y0054605D03*
X0005597Y005503D03*
X0005886Y0044133D03*
X0007406Y0044333D03*
Y0045273D03*
Y0046193D03*
Y0047123D03*
Y0048093D03*
Y0049023D03*
X0005886Y0045033D03*
Y0045873D03*
Y0046663D03*
Y0047493D03*
Y0048203D03*
Y0048913D03*
X0004389Y0051119D03*
X0005059Y0051759D03*
X0005649Y0052359D03*
X0006249Y0052959D03*
X0006789Y0053529D03*
X0007309Y0054029D03*
X0006219Y0055499D03*
X0030219Y0028639D03*
X0028456Y0029544D03*
X0032369Y0028249D03*
X0059479Y0015759D03*
X0057969Y0016109D03*
X0056929Y0016829D03*
G54D28*
X0092199Y0021999D03*
Y0019899D03*
X0090999Y0043349D03*
Y0041249D03*
G54D29*
X0093699Y0046549D03*
Y0045899D03*
Y0045249D03*
X0091869D03*
Y0045899D03*
Y0046549D03*
G54D30*
X0096399Y0044939D03*
Y0045859D03*
X0090199Y0029039D03*
Y0029959D03*
X0090299Y0047539D03*
Y0048459D03*
X0089799Y0022639D03*
Y0023559D03*
G54D31*
X0093699Y0043024D03*
Y0041574D03*
G54D32*
X0081799Y0065749D03*
Y0066849D03*
X0080999Y0065749D03*
Y0066849D03*
X0090799Y0023349D03*
Y0024449D03*
X0080049Y0066649D03*
Y0065549D03*
X0075449D03*
Y0066649D03*
X0074299Y0066624D03*
Y0065524D03*
X0076649Y0066649D03*
Y0065549D03*
X0077774D03*
Y0066649D03*
X0078924Y0065549D03*
Y0066649D03*
G54D33*
X0030999Y0007349D03*
X0036999D03*
X0030999Y0002849D03*
X0036999D03*
G54D34*
X0030779Y0011499D03*
X0032119D03*
X0053054Y0043474D03*
X0054394D03*
X0039296Y0046499D03*
X0040636D03*
X0049374Y0052907D03*
X0050714D03*
X0061279Y0018649D03*
X0062619D03*
X0062599Y0020149D03*
X0061259D03*
X0063569Y0034699D03*
X006223D03*
X0046929Y0044399D03*
X0048269D03*
X0061429Y0041099D03*
X0062769D03*
X0062129Y0029499D03*
X0063469D03*
X0062775Y0022878D03*
X0064115D03*
X0040636Y0044471D03*
X0039296D03*
X0034629Y0033699D03*
X0035969D03*
X0034603Y002877D03*
X0035943D03*
X0034629Y0022199D03*
X0035969D03*
G54D35*
X0093449Y0027511D03*
Y0026887D03*
X0093199Y0027199D03*
X0092949Y0027511D03*
Y0026887D03*
X0092699Y0027199D03*
X0092449Y0027511D03*
Y0026887D03*
G54D36*
X0091169Y0062599D03*
X0089829D03*
X0093139Y0057989D03*
X0094479D03*
X0093108Y0059614D03*
X0094449D03*
G54D37*
X0090499Y0055649D03*
Y0053749D03*
G54D38*
X0092499Y0055399D03*
Y0053799D03*
G54D39*
X0096874Y0056899D03*
Y0057549D03*
Y0058199D03*
Y0058849D03*
Y0059499D03*
G54D40*
X0099549Y0054149D03*
Y0056999D03*
Y0059399D03*
Y0062249D03*
G54D41*
X0022499Y0050129D03*
Y0051469D03*
X0021099Y0050129D03*
Y0051469D03*
X0019699D03*
Y0050129D03*
X0016599Y0049969D03*
Y0048629D03*
X0043299Y0011854D03*
Y0013194D03*
X0041299Y0011854D03*
Y0013194D03*
X0047169Y0013558D03*
Y0012218D03*
X0055499Y0013429D03*
Y0014769D03*
X0050274Y0018419D03*
Y0017079D03*
G54D42*
X0018099Y0049934D03*
Y0051464D03*
G54D43*
X0075299Y0057711D03*
X0075949D03*
X0076599D03*
X0077249D03*
X0077899D03*
X0078549D03*
X0079199D03*
X0079849D03*
X0080499D03*
X0081149D03*
Y0063587D03*
X0080499D03*
X0079849D03*
X0079199D03*
X0078549D03*
X0077899D03*
X0077249D03*
X0076599D03*
X0075949D03*
X0075299D03*
G54D44*
X0005715Y0070757D03*
X0018014D03*
X0005715Y0061957D03*
X0018014D03*
G54D45*
X0008684Y0057857D03*
X0011224D03*
X0013764D03*
X0009954D03*
X0012494D03*
X0015034D03*
G54D46*
X0024893Y006622D03*
Y007222D03*
X0029393Y006622D03*
Y007222D03*
G54D47*
X0023718Y0062551D03*
X0025168D03*
X0084424Y0061399D03*
X0085874D03*
G54D48*
X0094099Y0055269D03*
Y0053929D03*
G54D49*
X008745Y0052814D03*
Y0054514D03*
G54D50*
X0089069Y0058891D03*
G54D51*
X0090194Y0060341D03*
X0089744D03*
X0089294D03*
X0088844D03*
X0088394D03*
X0087944D03*
Y0057441D03*
X0088394D03*
X0088844D03*
X0089294D03*
X0089744D03*
X0090194D03*
G54D52*
X0039406Y0048248D03*
X0041006D03*
X0062899Y0016724D03*
X0061299D03*
G54D53*
X0033717Y0019206D03*
X0036517D03*
G54D54*
X0049067Y0012317D03*
X0053467D03*
Y0014717D03*
X0049067D03*
G54D55*
X0100899Y0045199D03*
X0101999D03*
G54D56*
X0042199Y0015149D03*
X0043299D03*
M02*