%FSTAX43Y43*%
%MOMM*%
%SFA1B1*%

%IPPOS*%
%ADD10C,0.200000*%
%ADD14C,0.100000*%
%ADD15C,0.127000*%
%ADD16C,0.203000*%
%ADD203C,0.000000*%
%LNshm_pcb-1*%
%LPD*%
G54D10*
X00268Y0020082D02*
D01*
X00268Y0020089*
X00268Y0020096*
X0026798Y0020103*
X0026797Y002011*
X0026794Y0020117*
X0026792Y0020123*
X0026789Y0020129*
X0026785Y0020135*
X0026781Y0020141*
X0026777Y0020147*
X0026772Y0020152*
X0026767Y0020157*
X0026762Y0020161*
X0026756Y0020165*
X002675Y0020169*
X0026744Y0020172*
X0026738Y0020175*
X0026731Y0020178*
X0026725Y002018*
X0026718Y0020181*
X0026711Y0020182*
X0026704Y0020182*
X0026697*
X002669Y0020182*
X0026683Y0020181*
X0026676Y002018*
X002667Y0020178*
X0026663Y0020175*
X0026657Y0020172*
X002665Y0020169*
X0026645Y0020165*
X0026639Y0020161*
X0026634Y0020157*
X0026629Y0020152*
X0026624Y0020147*
X002662Y0020141*
X0026616Y0020135*
X0026612Y0020129*
X0026609Y0020123*
X0026607Y0020117*
X0026604Y002011*
X0026603Y0020103*
X0026601Y0020096*
X0026601Y0020089*
X00266Y0020082*
X0026601Y0020076*
X0026601Y0020069*
X0026603Y0020062*
X0026604Y0020055*
X0026607Y0020048*
X0026609Y0020042*
X0026612Y0020036*
X0026616Y0020029*
X002662Y0020024*
X0026624Y0020018*
X0026629Y0020013*
X0026634Y0020008*
X0026639Y0020004*
X0026645Y002*
X002665Y0019996*
X0026657Y0019993*
X0026663Y001999*
X002667Y0019987*
X0026676Y0019985*
X0026683Y0019984*
X002669Y0019983*
X0026697Y0019983*
X0026704*
X0026711Y0019983*
X0026718Y0019984*
X0026725Y0019985*
X0026731Y0019987*
X0026738Y001999*
X0026744Y0019993*
X002675Y0019996*
X0026756Y002*
X0026762Y0020004*
X0026767Y0020008*
X0026772Y0020013*
X0026777Y0020018*
X0026781Y0020024*
X0026785Y0020029*
X0026789Y0020036*
X0026792Y0020042*
X0026794Y0020048*
X0026797Y0020055*
X0026798Y0020062*
X00268Y0020069*
X00268Y0020076*
X00268Y0020082*
X0025649Y0029374D02*
D01*
X0025649Y0029381*
X0025649Y0029388*
X0025647Y0029395*
X0025646Y0029402*
X0025643Y0029409*
X0025641Y0029415*
X0025638Y0029421*
X0025634Y0029427*
X002563Y0029433*
X0025626Y0029439*
X0025621Y0029444*
X0025616Y0029449*
X0025611Y0029453*
X0025605Y0029457*
X0025599Y0029461*
X0025593Y0029464*
X0025587Y0029467*
X002558Y002947*
X0025574Y0029472*
X0025567Y0029473*
X002556Y0029474*
X0025553Y0029474*
X0025546*
X0025539Y0029474*
X0025532Y0029473*
X0025525Y0029472*
X0025519Y002947*
X0025512Y0029467*
X0025506Y0029464*
X0025499Y0029461*
X0025494Y0029457*
X0025488Y0029453*
X0025483Y0029449*
X0025478Y0029444*
X0025473Y0029439*
X0025469Y0029433*
X0025465Y0029427*
X0025461Y0029421*
X0025458Y0029415*
X0025456Y0029409*
X0025453Y0029402*
X0025452Y0029395*
X002545Y0029388*
X002545Y0029381*
X0025449Y0029374*
X002545Y0029368*
X002545Y0029361*
X0025452Y0029354*
X0025453Y0029347*
X0025456Y002934*
X0025458Y0029334*
X0025461Y0029328*
X0025465Y0029321*
X0025469Y0029316*
X0025473Y002931*
X0025478Y0029305*
X0025483Y00293*
X0025488Y0029296*
X0025494Y0029292*
X0025499Y0029288*
X0025506Y0029285*
X0025512Y0029282*
X0025519Y0029279*
X0025525Y0029277*
X0025532Y0029276*
X0025539Y0029275*
X0025546Y0029275*
X0025553*
X002556Y0029275*
X0025567Y0029276*
X0025574Y0029277*
X002558Y0029279*
X0025587Y0029282*
X0025593Y0029285*
X0025599Y0029288*
X0025605Y0029292*
X0025611Y0029296*
X0025616Y00293*
X0025621Y0029305*
X0025626Y002931*
X002563Y0029316*
X0025634Y0029321*
X0025638Y0029328*
X0025641Y0029334*
X0025643Y002934*
X0025646Y0029347*
X0025647Y0029354*
X0025649Y0029361*
X0025649Y0029368*
X0025649Y0029374*
X005418Y0047834D02*
D01*
X005418Y0047841*
X005418Y0047848*
X0054178Y0047855*
X0054177Y0047862*
X0054174Y0047869*
X0054172Y0047875*
X0054169Y0047881*
X0054165Y0047887*
X0054161Y0047893*
X0054157Y0047899*
X0054152Y0047904*
X0054147Y0047909*
X0054142Y0047913*
X0054136Y0047917*
X005413Y0047921*
X0054124Y0047924*
X0054118Y0047927*
X0054111Y004793*
X0054105Y0047932*
X0054098Y0047933*
X0054091Y0047934*
X0054084Y0047934*
X0054077*
X005407Y0047934*
X0054063Y0047933*
X0054056Y0047932*
X005405Y004793*
X0054043Y0047927*
X0054037Y0047924*
X005403Y0047921*
X0054025Y0047917*
X0054019Y0047913*
X0054014Y0047909*
X0054009Y0047904*
X0054004Y0047899*
X0054Y0047893*
X0053996Y0047887*
X0053992Y0047881*
X0053989Y0047875*
X0053987Y0047869*
X0053984Y0047862*
X0053983Y0047855*
X0053981Y0047848*
X0053981Y0047841*
X005398Y0047834*
X0053981Y0047828*
X0053981Y0047821*
X0053983Y0047814*
X0053984Y0047807*
X0053987Y00478*
X0053989Y0047794*
X0053992Y0047788*
X0053996Y0047781*
X0054Y0047776*
X0054004Y004777*
X0054009Y0047765*
X0054014Y004776*
X0054019Y0047756*
X0054025Y0047752*
X005403Y0047748*
X0054037Y0047745*
X0054043Y0047742*
X005405Y0047739*
X0054056Y0047737*
X0054063Y0047736*
X005407Y0047735*
X0054077Y0047735*
X0054084*
X0054091Y0047735*
X0054098Y0047736*
X0054105Y0047737*
X0054111Y0047739*
X0054118Y0047742*
X0054124Y0047745*
X005413Y0047748*
X0054136Y0047752*
X0054142Y0047756*
X0054147Y004776*
X0054152Y0047765*
X0054157Y004777*
X0054161Y0047776*
X0054165Y0047781*
X0054169Y0047788*
X0054172Y0047794*
X0054174Y00478*
X0054177Y0047807*
X0054178Y0047814*
X005418Y0047821*
X005418Y0047828*
X005418Y0047834*
X0058375D02*
D01*
X0058375Y0047841*
X0058375Y0047848*
X0058373Y0047855*
X0058372Y0047862*
X0058369Y0047869*
X0058367Y0047875*
X0058364Y0047881*
X005836Y0047887*
X0058356Y0047893*
X0058352Y0047899*
X0058347Y0047904*
X0058342Y0047909*
X0058337Y0047913*
X0058331Y0047917*
X0058325Y0047921*
X0058319Y0047924*
X0058313Y0047927*
X0058306Y004793*
X00583Y0047932*
X0058293Y0047933*
X0058286Y0047934*
X0058279Y0047934*
X0058272*
X0058265Y0047934*
X0058258Y0047933*
X0058251Y0047932*
X0058245Y004793*
X0058238Y0047927*
X0058232Y0047924*
X0058225Y0047921*
X005822Y0047917*
X0058214Y0047913*
X0058209Y0047909*
X0058204Y0047904*
X0058199Y0047899*
X0058195Y0047893*
X0058191Y0047887*
X0058187Y0047881*
X0058184Y0047875*
X0058182Y0047869*
X0058179Y0047862*
X0058178Y0047855*
X0058176Y0047848*
X0058176Y0047841*
X0058175Y0047834*
X0058176Y0047828*
X0058176Y0047821*
X0058178Y0047814*
X0058179Y0047807*
X0058182Y00478*
X0058184Y0047794*
X0058187Y0047788*
X0058191Y0047781*
X0058195Y0047776*
X0058199Y004777*
X0058204Y0047765*
X0058209Y004776*
X0058214Y0047756*
X005822Y0047752*
X0058225Y0047748*
X0058232Y0047745*
X0058238Y0047742*
X0058245Y0047739*
X0058251Y0047737*
X0058258Y0047736*
X0058265Y0047735*
X0058272Y0047735*
X0058279*
X0058286Y0047735*
X0058293Y0047736*
X00583Y0047737*
X0058306Y0047739*
X0058313Y0047742*
X0058319Y0047745*
X0058325Y0047748*
X0058331Y0047752*
X0058337Y0047756*
X0058342Y004776*
X0058347Y0047765*
X0058352Y004777*
X0058356Y0047776*
X005836Y0047781*
X0058364Y0047788*
X0058367Y0047794*
X0058369Y00478*
X0058372Y0047807*
X0058373Y0047814*
X0058375Y0047821*
X0058375Y0047828*
X0058375Y0047834*
X006283D02*
D01*
X006283Y0047841*
X006283Y0047848*
X0062828Y0047855*
X0062827Y0047862*
X0062824Y0047869*
X0062822Y0047875*
X0062819Y0047881*
X0062815Y0047887*
X0062811Y0047893*
X0062807Y0047899*
X0062802Y0047904*
X0062797Y0047909*
X0062792Y0047913*
X0062786Y0047917*
X006278Y0047921*
X0062774Y0047924*
X0062768Y0047927*
X0062761Y004793*
X0062755Y0047932*
X0062748Y0047933*
X0062741Y0047934*
X0062734Y0047934*
X0062727*
X006272Y0047934*
X0062713Y0047933*
X0062706Y0047932*
X00627Y004793*
X0062693Y0047927*
X0062687Y0047924*
X006268Y0047921*
X0062675Y0047917*
X0062669Y0047913*
X0062664Y0047909*
X0062659Y0047904*
X0062654Y0047899*
X006265Y0047893*
X0062646Y0047887*
X0062642Y0047881*
X0062639Y0047875*
X0062637Y0047869*
X0062634Y0047862*
X0062633Y0047855*
X0062631Y0047848*
X0062631Y0047841*
X006263Y0047834*
X0062631Y0047828*
X0062631Y0047821*
X0062633Y0047814*
X0062634Y0047807*
X0062637Y00478*
X0062639Y0047794*
X0062642Y0047788*
X0062646Y0047781*
X006265Y0047776*
X0062654Y004777*
X0062659Y0047765*
X0062664Y004776*
X0062669Y0047756*
X0062675Y0047752*
X006268Y0047748*
X0062687Y0047745*
X0062693Y0047742*
X00627Y0047739*
X0062706Y0047737*
X0062713Y0047736*
X006272Y0047735*
X0062727Y0047735*
X0062734*
X0062741Y0047735*
X0062748Y0047736*
X0062755Y0047737*
X0062761Y0047739*
X0062768Y0047742*
X0062774Y0047745*
X006278Y0047748*
X0062786Y0047752*
X0062792Y0047756*
X0062797Y004776*
X0062802Y0047765*
X0062807Y004777*
X0062811Y0047776*
X0062815Y0047781*
X0062819Y0047788*
X0062822Y0047794*
X0062824Y00478*
X0062827Y0047807*
X0062828Y0047814*
X006283Y0047821*
X006283Y0047828*
X006283Y0047834*
X0066711D02*
D01*
X0066711Y0047841*
X0066711Y0047848*
X0066709Y0047855*
X0066708Y0047862*
X0066705Y0047869*
X0066703Y0047875*
X00667Y0047881*
X0066696Y0047887*
X0066692Y0047893*
X0066688Y0047899*
X0066683Y0047904*
X0066678Y0047909*
X0066673Y0047913*
X0066667Y0047917*
X0066661Y0047921*
X0066655Y0047924*
X0066649Y0047927*
X0066642Y004793*
X0066636Y0047932*
X0066629Y0047933*
X0066622Y0047934*
X0066615Y0047934*
X0066608*
X0066601Y0047934*
X0066594Y0047933*
X0066587Y0047932*
X0066581Y004793*
X0066574Y0047927*
X0066568Y0047924*
X0066561Y0047921*
X0066556Y0047917*
X006655Y0047913*
X0066545Y0047909*
X006654Y0047904*
X0066535Y0047899*
X0066531Y0047893*
X0066527Y0047887*
X0066523Y0047881*
X006652Y0047875*
X0066518Y0047869*
X0066515Y0047862*
X0066514Y0047855*
X0066512Y0047848*
X0066512Y0047841*
X0066511Y0047834*
X0066512Y0047828*
X0066512Y0047821*
X0066514Y0047814*
X0066515Y0047807*
X0066518Y00478*
X006652Y0047794*
X0066523Y0047788*
X0066527Y0047781*
X0066531Y0047776*
X0066535Y004777*
X006654Y0047765*
X0066545Y004776*
X006655Y0047756*
X0066556Y0047752*
X0066561Y0047748*
X0066568Y0047745*
X0066574Y0047742*
X0066581Y0047739*
X0066587Y0047737*
X0066594Y0047736*
X0066601Y0047735*
X0066608Y0047735*
X0066615*
X0066622Y0047735*
X0066629Y0047736*
X0066636Y0047737*
X0066642Y0047739*
X0066649Y0047742*
X0066655Y0047745*
X0066661Y0047748*
X0066667Y0047752*
X0066673Y0047756*
X0066678Y004776*
X0066683Y0047765*
X0066688Y004777*
X0066692Y0047776*
X0066696Y0047781*
X00667Y0047788*
X0066703Y0047794*
X0066705Y00478*
X0066708Y0047807*
X0066709Y0047814*
X0066711Y0047821*
X0066711Y0047828*
X0066711Y0047834*
X0009699Y0013449D02*
Y0014699D01*
X0011699*
Y0013449D02*
Y0014699D01*
X0009699Y0013449D02*
X0011699D01*
X0095324Y0002124D02*
X0096124D01*
X0095324D02*
Y0003724D01*
X0096124*
Y0002124D02*
Y0003724D01*
X0083174Y0005299D02*
X0083974D01*
X0083174D02*
Y0006899D01*
X0083974*
Y0005299D02*
Y0006899D01*
X0082849Y0020924D02*
Y0021724D01*
X0081249Y0020924D02*
X0082849D01*
X0081249D02*
Y0021724D01*
X0082849*
X0071524Y0021424D02*
X0072324D01*
X0071524D02*
Y0023024D01*
X0072324*
Y0021424D02*
Y0023024D01*
X0097024Y0009999D02*
X0100224D01*
X0097024Y0007499D02*
Y0009999D01*
Y0007499D02*
X0100224D01*
Y0009999*
X0060325Y0067349D02*
X0063524D01*
X0060325Y0064849D02*
Y0067349D01*
Y0064849D02*
X0063524D01*
Y0067349*
X0060325Y0063849D02*
X0063524D01*
X0060325Y0061349D02*
Y0063849D01*
Y0061349D02*
X0063524D01*
Y0063849*
X0048139Y0001804D02*
X0083699D01*
X0048139D02*
Y0004344D01*
X0083699*
Y0001804D02*
Y0004344D01*
X0062149Y0070854D02*
X0097709D01*
X0062149D02*
Y0073394D01*
X0097709*
Y0070854D02*
Y0073394D01*
X0066549Y0020424D02*
X0088449D01*
X0066549Y0012674D02*
Y0020424D01*
Y0012674D02*
X0088449D01*
Y0020424*
X0058724Y0037724D02*
Y0039324D01*
X0057924D02*
X0058724D01*
X0057924Y0037724D02*
Y0039324D01*
Y0037724D02*
X0058724D01*
X0059224Y0034174D02*
Y0035774D01*
Y0034174D02*
X0060024D01*
Y0035774*
X0059224D02*
X0060024D01*
X0006524Y-0005424D02*
Y0002674D01*
Y-0005424D02*
X0012874D01*
Y0002674*
X0006199D02*
Y0009674D01*
X0013199*
Y0002674D02*
Y0009674D01*
X0006199Y0002674D02*
X0013199D01*
X0095924Y0002449D02*
Y0008749D01*
X0085274Y0002449D02*
X0095924D01*
X0085274D02*
Y0008749D01*
X0095924*
X0098599Y0020199D02*
X0100199D01*
Y0020999*
X0098599D02*
X0100199D01*
X0098599Y0020199D02*
Y0020999D01*
X0091784Y0046899D02*
X0093784D01*
X0091784Y0044899D02*
Y0046899D01*
Y0044899D02*
X0093784D01*
Y0046899*
X0093299Y0041499D02*
X0094099D01*
Y0043099*
X0093299D02*
X0094099D01*
X0093299Y0041499D02*
Y0043099D01*
X0030999Y0008099D02*
X0036999D01*
Y0002099D02*
Y0008099D01*
X0030999Y0002099D02*
X0036999D01*
X0030999D02*
Y0008099D01*
X0096699Y0054199D02*
Y0062199D01*
X0101699*
Y0054199D02*
Y0062199D01*
X0096699Y0054199D02*
X0101699D01*
X0080949Y0061499D02*
X0081449D01*
Y0060499D02*
Y0061499D01*
X0080949Y0060499D02*
X0081449D01*
X0080949D02*
Y0061499D01*
X0017459Y0057658D02*
Y0073097D01*
X0006259D02*
X0017459D01*
X0006259Y0057658D02*
Y0073097D01*
Y0057658D02*
X0017459D01*
X0024143Y006622D02*
Y007222D01*
X0030143*
Y006622D02*
Y007222D01*
X0024143Y006622D02*
X0030143D01*
X0023642Y0062951D02*
X0025242D01*
Y0062151D02*
Y0062951D01*
X0023642Y0062151D02*
X0025242D01*
X0023642D02*
Y0062951D01*
X0085949Y0060999D02*
Y0061799D01*
X0084349D02*
X0085949D01*
X0084349Y0060999D02*
Y0061799D01*
Y0060999D02*
X0085949D01*
X0021579Y002956D02*
Y003036D01*
X0019979Y002956D02*
X0021579D01*
X0019979D02*
Y003036D01*
X0021579*
X0030099Y0016008D02*
X0044098D01*
Y0000808D02*
Y0016008D01*
X0030099Y0000808D02*
X0044098D01*
X0030099D02*
Y0016008D01*
X001905Y0037774D02*
X0020649D01*
Y0038574*
X001905D02*
X0020649D01*
X001905Y0037774D02*
Y0038574D01*
X0003183Y0028385D02*
X0003983D01*
X0003183D02*
Y0029985D01*
X0003983*
Y0028385D02*
Y0029985D01*
X0015724Y0034899D02*
Y0035699D01*
X0014124Y0034899D02*
X0015724D01*
X0014124D02*
Y0035699D01*
X0015724*
X0066224Y0008049D02*
X0067824D01*
Y0008849*
X0066224D02*
X0067824D01*
X0066224Y0008049D02*
Y0008849D01*
X0041348Y0017308D02*
Y0018908D01*
Y0017308D02*
X0042148D01*
Y0018908*
X0041348D02*
X0042148D01*
X0042748D02*
X0043548D01*
Y0017308D02*
Y0018908D01*
X0042748Y0017308D02*
X0043548D01*
X0042748D02*
Y0018908D01*
X0034648D02*
X0035448D01*
Y0017308D02*
Y0018908D01*
X0034648Y0017308D02*
X0035448D01*
X0034648D02*
Y0018908D01*
X0040048D02*
X0040848D01*
Y0017308D02*
Y0018908D01*
X0040048Y0017308D02*
X0040848D01*
X0040048D02*
Y0018908D01*
X0067174Y0029474D02*
X0070174D01*
X0067174Y0026974D02*
Y0029474D01*
Y0026974D02*
X0070174D01*
Y0029474*
X0041949Y0015649D02*
X0043549D01*
Y0014649D02*
Y0015649D01*
X0041949Y0014649D02*
X0043549D01*
X0041949D02*
Y0015649D01*
X0087664Y0027024D02*
X0088964D01*
X0087664D02*
Y0028224D01*
X0088964*
Y0027024D02*
Y0028224D01*
X0037348Y0017308D02*
Y0018908D01*
Y0017308D02*
X0038148D01*
Y0018908*
X0037348D02*
X0038148D01*
X0035948Y0017308D02*
Y0018908D01*
Y0017308D02*
X0036748D01*
Y0018908*
X0035948D02*
X0036748D01*
G54D14*
X0068924Y0040549D02*
D01*
X0068923Y0040584*
X006892Y0040619*
X0068914Y0040653*
X0068905Y0040687*
X0068894Y0040721*
X0068881Y0040753*
X0068866Y0040784*
X0068849Y0040814*
X0068829Y0040843*
X0068808Y0040871*
X0068784Y0040897*
X0068759Y0040921*
X0068732Y0040943*
X0068704Y0040964*
X0068674Y0040983*
X0068644Y0040999*
X0068612Y0041013*
X0068579Y0041025*
X0068545Y0041035*
X0068511Y0041042*
X0068477Y0041047*
X0068442Y0041049*
X0068407*
X0068372Y0041047*
X0068338Y0041042*
X0068304Y0041035*
X006827Y0041025*
X0068237Y0041013*
X0068205Y0040999*
X0068174Y0040983*
X0068145Y0040964*
X0068117Y0040943*
X006809Y0040921*
X0068065Y0040897*
X0068041Y0040871*
X006802Y0040843*
X0068Y0040814*
X0067983Y0040784*
X0067968Y0040753*
X0067955Y0040721*
X0067944Y0040687*
X0067935Y0040653*
X0067929Y0040619*
X0067926Y0040584*
X0067924Y0040549*
X0067926Y0040515*
X0067929Y004048*
X0067935Y0040446*
X0067944Y0040412*
X0067955Y0040378*
X0067968Y0040346*
X0067983Y0040315*
X0068Y0040285*
X006802Y0040256*
X0068041Y0040228*
X0068065Y0040202*
X006809Y0040178*
X0068117Y0040155*
X0068145Y0040135*
X0068174Y0040116*
X0068205Y00401*
X0068237Y0040086*
X006827Y0040074*
X0068304Y0040064*
X0068338Y0040057*
X0068372Y0040052*
X0068407Y004005*
X0068442*
X0068477Y0040052*
X0068511Y0040057*
X0068545Y0040064*
X0068579Y0040074*
X0068612Y0040086*
X0068644Y00401*
X0068674Y0040116*
X0068704Y0040135*
X0068732Y0040155*
X0068759Y0040178*
X0068784Y0040202*
X0068808Y0040228*
X0068829Y0040256*
X0068849Y0040285*
X0068866Y0040315*
X0068881Y0040346*
X0068894Y0040378*
X0068905Y0040412*
X0068914Y0040446*
X006892Y004048*
X0068923Y0040515*
X0068924Y0040549*
X0030824Y0024699D02*
X0032424D01*
Y0023899D02*
Y0024699D01*
X0030824Y0023899D02*
X0032424D01*
X0030824D02*
Y0024699D01*
X0075999Y0020599D02*
Y0022199D01*
X0079199*
Y0020599D02*
Y0022199D01*
X0075999Y0020599D02*
X0079199D01*
X0046401Y0051701D02*
X0050297D01*
Y0046797D02*
Y0051701D01*
X0046401Y0046797D02*
X0050297D01*
X0046401D02*
Y0051701D01*
Y0050431D02*
X0047671Y0051701D01*
X00642Y0047917D02*
Y0048717D01*
Y0047917D02*
X00658D01*
Y0048717*
X00642D02*
X00658D01*
X0065461Y0049184D02*
X0065861Y0049584D01*
Y0049184D02*
Y0049984D01*
X0064262D02*
X0065861D01*
X0064262Y0049184D02*
Y0049984D01*
Y0049184D02*
X0065861D01*
X0061192D02*
X0062792D01*
X0061192D02*
Y0049984D01*
X0062792*
Y0049184D02*
Y0049984D01*
X0062392Y0049184D02*
X0062792Y0049584D01*
X0039149Y0021449D02*
X0039649Y0020949D01*
X0039149D02*
X0059149D01*
Y0040949*
X0039149D02*
X0059149D01*
X0039149Y0020949D02*
Y0040949D01*
X0072449Y0043024D02*
X0073249D01*
Y0041424D02*
Y0043024D01*
X0072449Y0041424D02*
X0073249D01*
X0072449D02*
Y0043024D01*
X0074049D02*
X0074849D01*
Y0041424D02*
Y0043024D01*
X0074049Y0041424D02*
X0074849D01*
X0074049D02*
Y0043024D01*
X0074699Y0039399D02*
Y0040199D01*
X0073099Y0039399D02*
X0074699D01*
X0073099D02*
Y0040199D01*
X0074699*
X0074749Y0037899D02*
Y0038699D01*
X0073149Y0037899D02*
X0074749D01*
X0073149D02*
Y0038699D01*
X0074749*
X0060399Y0039524D02*
Y0040324D01*
X0061999*
Y0039524D02*
Y0040324D01*
X0060399Y0039524D02*
X0061999D01*
X0060399Y0037974D02*
Y0038774D01*
X0061999*
Y0037974D02*
Y0038774D01*
X0060399Y0037974D02*
X0061999D01*
X0060724Y0035899D02*
X0061524D01*
Y0034299D02*
Y0035899D01*
X0060724Y0034299D02*
X0061524D01*
X0060724D02*
Y0035899D01*
X0067999Y0034499D02*
Y0035299D01*
X0066399Y0034499D02*
X0067999D01*
X0066399D02*
Y0035299D01*
X0067999*
X0069198Y001581D02*
X0070798D01*
Y001261D02*
Y001581D01*
X0069198Y001261D02*
X0070798D01*
X0069198D02*
Y001581D01*
X0070924Y0036449D02*
Y0041236D01*
X0065924Y0036449D02*
X0070924D01*
X0070712Y0041449D02*
X0070924Y0041236D01*
X0065924Y0036449D02*
Y0041449D01*
X0070712*
X0096489Y0003744D02*
X0102289D01*
X0096489D02*
Y0025074D01*
X0102289*
Y0003744D02*
Y0025074D01*
X0096299Y0010999D02*
Y0012599D01*
X0093099Y0010999D02*
X0096299D01*
X0093099D02*
Y0012599D01*
X0096299*
Y0013099D02*
Y0014699D01*
X0093099Y0013099D02*
X0096299D01*
X0093099D02*
Y0014699D01*
X0096299*
Y0015099D02*
Y0016699D01*
X0093099Y0015099D02*
X0096299D01*
X0093099D02*
Y0016699D01*
X0096299*
Y0017099D02*
Y0018699D01*
X0093099Y0017099D02*
X0096299D01*
X0093099D02*
Y0018699D01*
X0096299*
Y0019099D02*
Y0020699D01*
X0093099Y0019099D02*
X0096299D01*
X0093099D02*
Y0020699D01*
X0096299*
X0093085Y0060786D02*
X0094685D01*
X0093085D02*
Y0061586D01*
X0094685*
Y0060786D02*
Y0061586D01*
X0093199Y0019699D02*
Y0022199D01*
X0091199Y0019699D02*
X0093199D01*
X0091199D02*
Y0022199D01*
X0093199*
X0096149Y0044899D02*
Y0045899D01*
X0096649*
Y0044899D02*
Y0045899D01*
X0096149Y0044899D02*
X0096649D01*
X0089949Y0028999D02*
Y0029999D01*
X0090449*
Y0028999D02*
Y0029999D01*
X0089949Y0028999D02*
X0090449D01*
X0081549Y0066799D02*
X0082049D01*
X0081549Y0065799D02*
Y0066799D01*
Y0065799D02*
X0082049D01*
Y0066799*
X0080749D02*
X0081249D01*
X0080749Y0065799D02*
Y0066799D01*
Y0065799D02*
X0081249D01*
Y0066799*
X0030774Y0009774D02*
X0032374D01*
Y0008974D02*
Y0009774D01*
X0030774Y0008974D02*
X0032374D01*
X0030774D02*
Y0009774D01*
X0030649Y0011899D02*
X0032249D01*
Y0011099D02*
Y0011899D01*
X0030649Y0011099D02*
X0032249D01*
X0030649D02*
Y0011899D01*
X0092244Y0026644D02*
Y0027754D01*
X0093654*
Y0026644D02*
Y0027754D01*
X0092244Y0026644D02*
X0093654D01*
X0091999Y0041049D02*
Y0043549D01*
X0089999Y0041049D02*
X0091999D01*
X0089999D02*
Y0043549D01*
X0091999*
X0090049Y0048499D02*
X0090549D01*
X0090049Y0047499D02*
Y0048499D01*
Y0047499D02*
X0090549D01*
Y0048499*
Y0024399D02*
X0091049D01*
X0090549Y0023399D02*
Y0024399D01*
Y0023399D02*
X0091049D01*
Y0024399*
X0089549Y0023599D02*
X0090049D01*
X0089549Y0022599D02*
Y0023599D01*
Y0022599D02*
X0090049D01*
Y0023599*
X0080299Y0065599D02*
Y0066599D01*
X0079799Y0065599D02*
X0080299D01*
X0079799D02*
Y0066599D01*
X0080299*
X0089699Y0062199D02*
X0091299D01*
X0089699D02*
Y0062999D01*
X0091299*
Y0062199D02*
Y0062999D01*
X0089874Y0053699D02*
X0091124D01*
Y0055699*
X0089874D02*
X0091124D01*
X0089874Y0053699D02*
Y0055699D01*
X0092899Y0053799D02*
Y0055399D01*
X0092099Y0053799D02*
X0092899D01*
X0092099D02*
Y0055399D01*
X0092899*
X0022099Y0049999D02*
Y0051599D01*
X0022899*
Y0049999D02*
Y0051599D01*
X0022099Y0049999D02*
X0022899D01*
X0020699D02*
Y0051599D01*
X0021499*
Y0049999D02*
Y0051599D01*
X0020699Y0049999D02*
X0021499D01*
X0020099D02*
Y0051599D01*
X0019299Y0049999D02*
X0020099D01*
X0019299D02*
Y0051599D01*
X0020099*
X0016199Y0048499D02*
X0016999D01*
Y0050099*
X0016199D02*
X0016999D01*
X0016199Y0048499D02*
Y0050099D01*
X0072351Y0059417D02*
X0073621Y0058147D01*
X0072351D02*
Y0063051D01*
X0076247*
Y0058147D02*
Y0063051D01*
X0072351Y0058147D02*
X0076247D01*
X0073499Y0064799D02*
X0075099D01*
Y0065599*
X0073499D02*
X0075099D01*
X0073499Y0064799D02*
Y0065599D01*
X0074974Y0058449D02*
Y0062849D01*
X0081474*
Y0058449D02*
Y0062849D01*
X0074974Y0058449D02*
X0081474D01*
X0074974Y0059099D02*
X0075624Y0058449D01*
X0075199Y0065599D02*
X0075699D01*
Y0066599*
X0075199D02*
X0075699D01*
X0075199Y0065599D02*
Y0066599D01*
X0074049Y0065574D02*
X0074549D01*
Y0066574*
X0074049D02*
X0074549D01*
X0074049Y0065574D02*
Y0066574D01*
X0076399Y0065599D02*
X0076899D01*
Y0066599*
X0076399D02*
X0076899D01*
X0076399Y0065599D02*
Y0066599D01*
X0077524D02*
X0078024D01*
X0077524Y0065599D02*
Y0066599D01*
Y0065599D02*
X0078024D01*
Y0066599*
X0078674D02*
X0079174D01*
X0078674Y0065599D02*
Y0066599D01*
Y0065599D02*
X0079174D01*
Y0066599*
X0061199Y0011599D02*
Y0012399D01*
Y0011599D02*
X0062799D01*
Y0012399*
X0061199D02*
X0062799D01*
X0084499Y0056899D02*
Y0057699D01*
Y0056899D02*
X0086099D01*
Y0057699*
X0084499D02*
X0086099D01*
X0094499Y0053799D02*
Y0055399D01*
X0093699Y0053799D02*
X0094499D01*
X0093699D02*
Y0055399D01*
X0094499*
X0093009Y0058389D02*
X0094609D01*
Y0057589D02*
Y0058389D01*
X0093009Y0057589D02*
X0094609D01*
X0093009D02*
Y0058389D01*
X0092978Y0060014D02*
X0094578D01*
Y0059214D02*
Y0060014D01*
X0092978Y0059214D02*
X0094578D01*
X0092978D02*
Y0060014D01*
X008745Y0054464D02*
X008785Y0054064D01*
X008705Y0054464D02*
X008785D01*
X008705Y0052864D02*
Y0054464D01*
Y0052864D02*
X008785D01*
Y0054464*
X0089819Y0057391D02*
X0090569Y0058141D01*
X0087569Y0057391D02*
X0090569D01*
X0087569D02*
Y0060391D01*
X0090569*
Y0057391D02*
Y0060391D01*
X0052924Y0043874D02*
X0054524D01*
Y0043074D02*
Y0043874D01*
X0052924Y0043074D02*
X0054524D01*
X0052924D02*
Y0043874D01*
X0084799Y0064549D02*
X0085749Y0065499D01*
X0082849Y0064549D02*
X0085749D01*
X0082849D02*
Y0065849D01*
X0085749*
Y0064549D02*
Y0065849D01*
X0020072Y0027757D02*
X0021672D01*
Y0028558*
X0020072D02*
X0021672D01*
X0020072Y0027757D02*
Y0028558D01*
X0011781Y0025021D02*
X0012431Y0024371D01*
X0011781D02*
Y0029371D01*
X0016181*
Y0024371D02*
Y0029371D01*
X0011781Y0024371D02*
X0016181D01*
X0020121Y0024353D02*
Y0024853D01*
X0021121*
Y0024353D02*
Y0024853D01*
X0020121Y0024353D02*
X0021121D01*
X0040765Y0046099D02*
Y0046899D01*
X0039166D02*
X0040765D01*
X0039166Y0046099D02*
Y0046899D01*
Y0046099D02*
X0040765D01*
X0041206Y0047623D02*
Y0048873D01*
X0039206D02*
X0041206D01*
X0039206Y0047623D02*
Y0048873D01*
Y0047623D02*
X0041206D01*
X0036717Y0018406D02*
Y0020006D01*
X0033517D02*
X0036717D01*
X0033517Y0018406D02*
Y0020006D01*
Y0018406D02*
X0036717D01*
X0084499Y0059999D02*
X0086099D01*
Y0059199D02*
Y0059999D01*
X0084499Y0059199D02*
X0086099D01*
X0084499D02*
Y0059999D01*
X0008211Y0033814D02*
Y0035414D01*
X0007411D02*
X0008211D01*
X0007411Y0033814D02*
Y0035414D01*
Y0033814D02*
X0008211D01*
X0009031Y0035463D02*
X0009831D01*
Y0033863D02*
Y0035463D01*
X0009031Y0033863D02*
X0009831D01*
X0009031D02*
Y0035463D01*
X0003799Y0012624D02*
Y0013424D01*
X0005399*
Y0012624D02*
Y0013424D01*
X0003799Y0012624D02*
X0005399D01*
X0003799Y0015149D02*
X0005399D01*
X0003799Y0014349D02*
Y0015149D01*
Y0014349D02*
X0005399D01*
Y0015149*
X0003799Y0015849D02*
X0005399D01*
Y0016649*
X0003799D02*
X0005399D01*
X0003799Y0015849D02*
Y0016649D01*
X0028554Y0034874D02*
Y0035674D01*
X0026954Y0034874D02*
X0028554D01*
X0026954D02*
Y0035674D01*
X0028554*
X0050844Y0052507D02*
Y0053307D01*
X0049244D02*
X0050844D01*
X0049244Y0052507D02*
Y0053307D01*
Y0052507D02*
X0050844D01*
X0059185Y0049184D02*
X0059585Y0049584D01*
Y0049184D02*
Y0049984D01*
X0057985D02*
X0059585D01*
X0057985Y0049184D02*
Y0049984D01*
Y0049184D02*
X0059585D01*
X0028424Y0033224D02*
Y0034024D01*
X0026824Y0033224D02*
X0028424D01*
X0026824D02*
Y0034024D01*
X0028424*
X0061099Y0016099D02*
X0063099D01*
X0061099D02*
Y0017349D01*
X0063099*
Y0016099D02*
Y0017349D01*
X0062749Y0018249D02*
Y001905D01*
X0061149D02*
X0062749D01*
X0061149Y0018249D02*
Y001905D01*
Y0018249D02*
X0062749D01*
X0061129Y0019749D02*
Y0020549D01*
Y0019749D02*
X0062729D01*
Y0020549*
X0061129D02*
X0062729D01*
X0101699Y0041699D02*
Y0042499D01*
X0100099D02*
X0101699D01*
X0100099Y0041699D02*
Y0042499D01*
Y0041699D02*
X0101699D01*
X0062099Y0034299D02*
Y0035099D01*
Y0034299D02*
X0063699D01*
Y0035099*
X0062099D02*
X0063699D01*
X0066299Y0010349D02*
X0067899D01*
X0066299Y0009549D02*
Y0010349D01*
Y0009549D02*
X0067899D01*
Y0010349*
X0067195Y0041938D02*
Y0042738D01*
X0065595Y0041938D02*
X0067195D01*
X0065595D02*
Y0042738D01*
X0067195*
X0057584Y0067659D02*
Y0073459D01*
X0036254Y0067659D02*
X0057584D01*
X0036254D02*
Y0073459D01*
X0057584*
X0099574Y0036849D02*
X0101574D01*
X0099574D02*
Y0040849D01*
X0101574*
Y0036849D02*
Y0040849D01*
X0020207Y0026615D02*
X0021207D01*
Y0027115*
X0020207D02*
X0021207D01*
X0020207Y0026615D02*
Y0027115D01*
X0100199Y0044099D02*
X0101799D01*
Y0043299D02*
Y0044099D01*
X0100199Y0043299D02*
X0101799D01*
X0100199D02*
Y0044099D01*
Y0043699D02*
X0100599Y0044099D01*
X0101949Y0044949D02*
Y0045449D01*
X0100949D02*
X0101949D01*
X0100949Y0044949D02*
Y0045449D01*
Y0044949D02*
X0101949D01*
X0020121Y0025509D02*
X0021121D01*
Y0026009*
X0020121D02*
X0021121D01*
X0020121Y0025509D02*
Y0026009D01*
X0061093Y0047925D02*
Y0048725D01*
Y0047925D02*
X0062693D01*
Y0048725*
X0061093D02*
X0062693D01*
X0054833Y0048793D02*
X0056434D01*
Y0047993D02*
Y0048793D01*
X0054833Y0047993D02*
X0056434D01*
X0054833D02*
Y0048793D01*
X0057947Y0048757D02*
X0059547D01*
Y0047957D02*
Y0048757D01*
X0057947Y0047957D02*
X0059547D01*
X0057947D02*
Y0048757D01*
X0042899Y0013324D02*
X0043699D01*
X0042899Y0011724D02*
Y0013324D01*
Y0011724D02*
X0043699D01*
Y0013324*
X0040899D02*
X0041699D01*
X0040899Y0011724D02*
Y0013324D01*
Y0011724D02*
X0041699D01*
Y0013324*
X0047569Y0012088D02*
Y0013688D01*
X0046769Y0012088D02*
X0047569D01*
X0046769D02*
Y0013688D01*
X0047569*
X0087762Y0030377D02*
Y0031377D01*
Y0030377D02*
X0088262D01*
Y0031377*
X0087762D02*
X0088262D01*
X0085242Y0029281D02*
Y0030281D01*
Y0029281D02*
X0085742D01*
Y0030281*
X0085242D02*
X0085742D01*
X0090824Y0027549D02*
Y0028549D01*
X0090324D02*
X0090824D01*
X0090324Y0027549D02*
Y0028549D01*
Y0027549D02*
X0090824D01*
X0085214Y0026204D02*
X0085714D01*
X0085214D02*
Y0027204D01*
X0085714*
Y0026204D02*
Y0027204D01*
X0032024Y0028174D02*
Y0028474D01*
X0032624*
Y0028174D02*
Y0028474D01*
X0032024Y0028174D02*
X0032624D01*
X0032024Y0029274D02*
Y0029574D01*
X0032624*
Y0029274D02*
Y0029574D01*
X0032024Y0029274D02*
X0032624D01*
X007188Y0030501D02*
Y0031301D01*
X007348*
Y0030501D02*
Y0031301D01*
X007188Y0030501D02*
X007348D01*
X0032049Y0030449D02*
Y0030749D01*
X0032649*
Y0030449D02*
Y0030749D01*
X0032049Y0030449D02*
X0032649D01*
X0032036Y0026849D02*
Y0027149D01*
X0032636*
Y0026849D02*
Y0027149D01*
X0032036Y0026849D02*
X0032636D01*
X0072853Y0026916D02*
Y0028516D01*
Y0026916D02*
X0073653D01*
Y0028516*
X0072853D02*
X0073653D01*
X0071484Y0026886D02*
Y0028486D01*
Y0026886D02*
X0072284D01*
Y0028486*
X0071484D02*
X0072284D01*
X0079699Y0059299D02*
X0081299D01*
X0079699Y0058499D02*
Y0059299D01*
Y0058499D02*
X0081299D01*
Y0059299*
X0018574Y0036349D02*
X0019824D01*
X0018574Y0034349D02*
Y0036349D01*
Y0034349D02*
X0019824D01*
Y0036349*
X0019174D02*
X0019824Y0035699D01*
X0015024Y0037149D02*
X0016274D01*
Y0039149*
X0015024D02*
X0016274D01*
X0015024Y0037149D02*
Y0039149D01*
Y0037799D02*
X0015674Y0037149D01*
X0102264Y0028224D02*
Y0033304D01*
X0098864D02*
X0102264D01*
X0098864Y0028224D02*
Y0033304D01*
Y0028224D02*
X0102264D01*
X0003197Y0024954D02*
X0003998D01*
Y0023354D02*
Y0024954D01*
X0003197Y0023354D02*
X0003998D01*
X0003197D02*
Y0024954D01*
X0019969Y0022777D02*
Y0023577D01*
X0021569*
Y0022777D02*
Y0023577D01*
X0019969Y0022777D02*
X0021569D01*
X0003844Y0017674D02*
X0007044D01*
Y0019274*
X0003844D02*
X0007044D01*
X0003844Y0017674D02*
Y0019274D01*
X0038648Y0017308D02*
X0039448D01*
X0038648D02*
Y0018908D01*
X0039448*
Y0017308D02*
Y0018908D01*
X0055065Y0049184D02*
X0056665D01*
X0055065D02*
Y0049984D01*
X0056665*
Y0049184D02*
Y0049984D01*
X0056265Y0049184D02*
X0056665Y0049584D01*
X0055099Y0013299D02*
Y0014899D01*
X0055899*
Y0013299D02*
Y0014899D01*
X0055099Y0013299D02*
X0055899D01*
X0046799Y0044799D02*
X0048399D01*
Y0043999D02*
Y0044799D01*
X0046799Y0043999D02*
X0048399D01*
X0046799D02*
Y0044799D01*
X0061299Y0041499D02*
X0062899D01*
Y0040699D02*
Y0041499D01*
X0061299Y0040699D02*
X0062899D01*
X0061299D02*
Y0041499D01*
X0061999Y0029899D02*
X0063599D01*
Y0029099D02*
Y0029899D01*
X0061999Y0029099D02*
X0063599D01*
X0061999D02*
Y0029899D01*
X0050674Y0016949D02*
Y0018549D01*
X0049874Y0016949D02*
X0050674D01*
X0049874D02*
Y0018549D01*
X0050674*
X0062645Y0023278D02*
X0064245D01*
Y0022479D02*
Y0023278D01*
X0062645Y0022479D02*
X0064245D01*
X0062645D02*
Y0023278D01*
X0039166Y0044071D02*
Y0044871D01*
Y0044071D02*
X0040765D01*
Y0044871*
X0039166D02*
X0040765D01*
X0036099Y0033299D02*
Y0034099D01*
X0034499D02*
X0036099D01*
X0034499Y0033299D02*
Y0034099D01*
Y0033299D02*
X0036099D01*
X0036073Y002837D02*
Y002917D01*
X0034473D02*
X0036073D01*
X0034473Y002837D02*
Y002917D01*
Y002837D02*
X0036073D01*
X0036099Y0021799D02*
Y0022599D01*
X0034499D02*
X0036099D01*
X0034499Y0021799D02*
Y0022599D01*
Y0021799D02*
X0036099D01*
X0073149Y0036699D02*
X0074749D01*
X0073149Y0035899D02*
Y0036699D01*
Y0035899D02*
X0074749D01*
Y0036699*
Y0034399D02*
Y0035199D01*
X0073149Y0034399D02*
X0074749D01*
X0073149D02*
Y0035199D01*
X0074749*
X0062099Y0015924D02*
X0062899D01*
X0062099D02*
Y0017524D01*
X0062899*
Y0015924D02*
Y0017524D01*
X0060799Y0015899D02*
X0061599D01*
X0060799D02*
Y0017499D01*
X0061599*
Y0015899D02*
Y0017499D01*
X0059199Y0015899D02*
X0059999D01*
X0059199D02*
Y0017499D01*
X0059999*
Y0015899D02*
Y0017499D01*
X0068349Y0012449D02*
Y0014049D01*
X0067549D02*
X0068349D01*
X0067549Y0012449D02*
Y0014049D01*
Y0012449D02*
X0068349D01*
X0065974Y0014049D02*
X0066774D01*
Y0012449D02*
Y0014049D01*
X0065974Y0012449D02*
X0066774D01*
X0065974D02*
Y0014049D01*
G54D15*
X0004675Y0017007D02*
X0024725D01*
X0004675D02*
Y0040757D01*
X0024725*
Y0017007D02*
Y0040757D01*
X0027224Y0031799D02*
X0028724D01*
Y0028899D02*
Y0031799D01*
X0027224Y0028899D02*
X0028724D01*
X0027224D02*
Y0031799D01*
X0017629Y0051529D02*
X0018569D01*
X0017629Y0049869D02*
X0018569D01*
Y0051529*
X0017629Y0049869D02*
Y0051529D01*
X005167Y004943D02*
X005459D01*
X005167D02*
Y005073D01*
X005459*
Y004943D02*
Y005073D01*
X0058785Y004943D02*
Y005073D01*
X0055865D02*
X0058785D01*
X0055865Y004943D02*
Y005073D01*
Y004943D02*
X0058785D01*
X006324D02*
Y005073D01*
X006032D02*
X006324D01*
X006032Y004943D02*
Y005073D01*
Y004943D02*
X006324D01*
X0067121D02*
Y005073D01*
X0064201D02*
X0067121D01*
X0064201Y004943D02*
Y005073D01*
Y004943D02*
X0067121D01*
G54D16*
X0048365Y0014742D02*
D01*
X0048395Y0014744*
X0048425Y0014747*
X0048454Y0014752*
X0048483Y0014759*
X0048512Y0014768*
X0048539Y0014779*
X0048566Y0014792*
X0048592Y0014807*
X0048616Y0014824*
X004864Y0014842*
X0048662Y0014862*
X0048683Y0014884*
X0048702Y0014907*
X0048719Y0014931*
X0048735Y0014956*
X0048749Y0014982*
X0048761Y001501*
X0048772Y0015038*
X004878Y0015066*
X0048786Y0015095*
X004879Y0015125*
X0048792Y0015155*
X0048792Y0015169*
X0053742D02*
D01*
X0053744Y001514*
X0053747Y001511*
X0053752Y0015081*
X0053759Y0015052*
X0053768Y0015023*
X0053779Y0014996*
X0053792Y0014969*
X0053807Y0014943*
X0053824Y0014918*
X0053842Y0014895*
X0053862Y0014873*
X0053884Y0014852*
X0053907Y0014833*
X0053931Y0014815*
X0053956Y00148*
X0053982Y0014786*
X005401Y0014774*
X0054038Y0014763*
X0054066Y0014755*
X0054095Y0014749*
X0054125Y0014745*
X0054155Y0014743*
X0054168Y0014742*
Y0012292D02*
D01*
X0054139Y0012291*
X0054109Y0012288*
X005408Y0012283*
X0054051Y0012276*
X0054022Y0012267*
X0053995Y0012256*
X0053968Y0012243*
X0053942Y0012228*
X0053918Y0012211*
X0053894Y0012193*
X0053872Y0012173*
X0053851Y0012151*
X0053832Y0012128*
X0053814Y0012104*
X0053799Y0012079*
X0053785Y0012053*
X0053773Y0012025*
X0053762Y0011997*
X0053754Y0011969*
X0053748Y001194*
X0053744Y001191*
X0053742Y001188*
X0053742Y0011865*
X0048792D02*
D01*
X0048791Y0011895*
X0048788Y0011925*
X0048783Y0011954*
X0048776Y0011983*
X0048767Y0012012*
X0048756Y0012039*
X0048743Y0012066*
X0048728Y0012092*
X0048711Y0012116*
X0048693Y001214*
X0048673Y0012162*
X0048651Y0012183*
X0048628Y0012202*
X0048604Y0012219*
X0048579Y0012235*
X0048553Y0012249*
X0048525Y0012261*
X0048497Y0012272*
X0048469Y001228*
X004844Y0012286*
X004841Y001229*
X004838Y0012292*
X0048365Y0012292*
X0048792Y0015167D02*
X0050217D01*
X0052317D02*
X0053742D01*
X0054167Y0013817D02*
Y0014742D01*
Y0012292D02*
Y0013217D01*
X0052317Y0011867D02*
X0053742D01*
X0048792D02*
X0050217D01*
X0048367Y0012292D02*
Y0013217D01*
Y0013817D02*
Y0014742D01*
G54D203*
X0059441Y0008166D02*
X0063607D01*
Y0012332*
X0059441D02*
X0063607D01*
X0059441Y0008166D02*
Y0012332D01*
X0062337D02*
X0062642D01*
X0061702D02*
X0062007D01*
X0061041D02*
X0061346D01*
X0060406D02*
X0060711D01*
X0059441Y0011062D02*
Y0011367D01*
Y0010427D02*
Y0010732D01*
Y0009766D02*
Y0010071D01*
Y0009131D02*
Y0009436D01*
X0060406Y0008166D02*
X0060711D01*
X0061041D02*
X0061346D01*
X0061702D02*
X0062007D01*
X0062337D02*
X0062642D01*
X0063607Y0009131D02*
Y0009436D01*
Y0009766D02*
Y0010071D01*
Y0010427D02*
Y0010732D01*
Y0011062D02*
Y0011367D01*
X0062337Y0008166D02*
X0063607Y0009436D01*
M02*